%TF.GenerationSoftware,KiCad,Pcbnew,9.0.3-9.0.3-0~ubuntu24.04.1*%
%TF.CreationDate,2026-04-16T11:51:35+03:00*%
%TF.ProjectId,logic_unary,6c6f6769-635f-4756-9e61-72792e6b6963,rev?*%
%TF.SameCoordinates,Original*%
%TF.FileFunction,Soldermask,Bot*%
%TF.FilePolarity,Negative*%
%FSLAX46Y46*%
G04 Gerber Fmt 4.6, Leading zero omitted, Abs format (unit mm)*
G04 Created by KiCad (PCBNEW 9.0.3-9.0.3-0~ubuntu24.04.1) date 2026-04-16 11:51:35*
%MOMM*%
%LPD*%
G01*
G04 APERTURE LIST*
G04 Aperture macros list*
%AMRoundRect*
0 Rectangle with rounded corners*
0 $1 Rounding radius*
0 $2 $3 $4 $5 $6 $7 $8 $9 X,Y pos of 4 corners*
0 Add a 4 corners polygon primitive as box body*
4,1,4,$2,$3,$4,$5,$6,$7,$8,$9,$2,$3,0*
0 Add four circle primitives for the rounded corners*
1,1,$1+$1,$2,$3*
1,1,$1+$1,$4,$5*
1,1,$1+$1,$6,$7*
1,1,$1+$1,$8,$9*
0 Add four rect primitives between the rounded corners*
20,1,$1+$1,$2,$3,$4,$5,0*
20,1,$1+$1,$4,$5,$6,$7,0*
20,1,$1+$1,$6,$7,$8,$9,0*
20,1,$1+$1,$8,$9,$2,$3,0*%
G04 Aperture macros list end*
%ADD10RoundRect,0.250000X0.600000X-0.600000X0.600000X0.600000X-0.600000X0.600000X-0.600000X-0.600000X0*%
%ADD11C,1.700000*%
%ADD12C,2.100000*%
%ADD13RoundRect,0.250000X-0.550000X-0.550000X0.550000X-0.550000X0.550000X0.550000X-0.550000X0.550000X0*%
%ADD14C,1.600000*%
%ADD15RoundRect,0.250000X-0.600000X-0.600000X0.600000X-0.600000X0.600000X0.600000X-0.600000X0.600000X0*%
%ADD16R,1.700000X1.700000*%
G04 APERTURE END LIST*
D10*
%TO.C,J8*%
X175380000Y-102540000D03*
D11*
X175380000Y-100000000D03*
X177920000Y-102540000D03*
X177920000Y-100000000D03*
X180460000Y-102540000D03*
X180460000Y-100000000D03*
X183000000Y-102540000D03*
X183000000Y-100000000D03*
%TD*%
D12*
%TO.C,K2*%
X172616666Y-53000000D03*
X168216666Y-53000000D03*
X163816666Y-53000000D03*
X159416666Y-53000000D03*
X172616666Y-57100000D03*
X168216666Y-57100000D03*
X163816666Y-57100000D03*
X159416666Y-57100000D03*
X172616666Y-63450000D03*
X168216666Y-63450000D03*
X163816666Y-63450000D03*
X159416666Y-63450000D03*
X172616666Y-69800000D03*
X159416666Y-69800000D03*
%TD*%
%TO.C,K1*%
X198000000Y-53000000D03*
X193600000Y-53000000D03*
X189200000Y-53000000D03*
X184800000Y-53000000D03*
X198000000Y-57100000D03*
X193600000Y-57100000D03*
X189200000Y-57100000D03*
X184800000Y-57100000D03*
X198000000Y-63450000D03*
X193600000Y-63450000D03*
X189200000Y-63450000D03*
X184800000Y-63450000D03*
X198000000Y-69800000D03*
X184800000Y-69800000D03*
%TD*%
D13*
%TO.C,D1*%
X111590000Y-80500000D03*
D14*
X119210000Y-80500000D03*
%TD*%
D13*
%TO.C,D4*%
X187590000Y-80500000D03*
D14*
X195210000Y-80500000D03*
%TD*%
D15*
%TO.C,J9*%
X94960000Y-90420000D03*
D11*
X97500000Y-90420000D03*
X94960000Y-92960000D03*
X97500000Y-92960000D03*
X94960000Y-95500000D03*
X97500000Y-95500000D03*
X94960000Y-98040000D03*
X97500000Y-98040000D03*
%TD*%
D16*
%TO.C,J2*%
X209000000Y-53960000D03*
D11*
X209000000Y-56500000D03*
X209000000Y-59040000D03*
X209000000Y-61580000D03*
X209000000Y-64120000D03*
X209000000Y-66660000D03*
X209000000Y-69200000D03*
X209000000Y-71740000D03*
%TD*%
D10*
%TO.C,J4*%
X161880000Y-39000000D03*
D11*
X161880000Y-36460000D03*
X164420000Y-39000000D03*
X164420000Y-36460000D03*
X166960000Y-39000000D03*
X166960000Y-36460000D03*
X169500000Y-39000000D03*
X169500000Y-36460000D03*
%TD*%
D16*
%TO.C,J5*%
X145720000Y-108500000D03*
D11*
X148260000Y-108500000D03*
X150800000Y-108500000D03*
X153340000Y-108500000D03*
X155880000Y-108500000D03*
X158420000Y-108500000D03*
X160960000Y-108500000D03*
X163500000Y-108500000D03*
%TD*%
D12*
%TO.C,K3*%
X147233333Y-53000000D03*
X142833333Y-53000000D03*
X138433333Y-53000000D03*
X134033333Y-53000000D03*
X147233333Y-57100000D03*
X142833333Y-57100000D03*
X138433333Y-57100000D03*
X134033333Y-57100000D03*
X147233333Y-63450000D03*
X142833333Y-63450000D03*
X138433333Y-63450000D03*
X134033333Y-63450000D03*
X147233333Y-69800000D03*
X134033333Y-69800000D03*
%TD*%
D13*
%TO.C,D3*%
X162206666Y-80500000D03*
D14*
X169826666Y-80500000D03*
%TD*%
D12*
%TO.C,K4*%
X122000000Y-53000000D03*
X117600000Y-53000000D03*
X113200000Y-53000000D03*
X108800000Y-53000000D03*
X122000000Y-57100000D03*
X117600000Y-57100000D03*
X113200000Y-57100000D03*
X108800000Y-57100000D03*
X122000000Y-63450000D03*
X117600000Y-63450000D03*
X113200000Y-63450000D03*
X108800000Y-63450000D03*
X122000000Y-69800000D03*
X108800000Y-69800000D03*
%TD*%
D16*
%TO.C,J3*%
X131680000Y-35000000D03*
D11*
X134220000Y-35000000D03*
X136760000Y-35000000D03*
X139300000Y-35000000D03*
X141840000Y-35000000D03*
X144380000Y-35000000D03*
X146920000Y-35000000D03*
X149460000Y-35000000D03*
%TD*%
D10*
%TO.C,J7*%
X150880000Y-102540000D03*
D11*
X150880000Y-100000000D03*
X153420000Y-102540000D03*
X153420000Y-100000000D03*
X155960000Y-102540000D03*
X155960000Y-100000000D03*
X158500000Y-102540000D03*
X158500000Y-100000000D03*
%TD*%
D16*
%TO.C,J1*%
X99500000Y-53460000D03*
D11*
X99500000Y-56000000D03*
X99500000Y-58540000D03*
X99500000Y-61080000D03*
X99500000Y-63620000D03*
X99500000Y-66160000D03*
X99500000Y-68700000D03*
X99500000Y-71240000D03*
%TD*%
D16*
%TO.C,J6*%
X170220000Y-108500000D03*
D11*
X172760000Y-108500000D03*
X175300000Y-108500000D03*
X177840000Y-108500000D03*
X180380000Y-108500000D03*
X182920000Y-108500000D03*
X185460000Y-108500000D03*
X188000000Y-108500000D03*
%TD*%
D15*
%TO.C,J11*%
X118000000Y-90500000D03*
D11*
X120540000Y-90500000D03*
X118000000Y-93040000D03*
X120540000Y-93040000D03*
X118000000Y-95580000D03*
X120540000Y-95580000D03*
X118000000Y-98120000D03*
X120540000Y-98120000D03*
%TD*%
D15*
%TO.C,J10*%
X106500000Y-90420000D03*
D11*
X109040000Y-90420000D03*
X106500000Y-92960000D03*
X109040000Y-92960000D03*
X106500000Y-95500000D03*
X109040000Y-95500000D03*
X106500000Y-98040000D03*
X109040000Y-98040000D03*
%TD*%
D13*
%TO.C,D2*%
X136823333Y-80500000D03*
D14*
X144443333Y-80500000D03*
%TD*%
M02*
