M48
; DRILL file {KiCad 9.0.3-9.0.3-0~ubuntu24.04.1} date 2026-04-16T11:51:35+0300
; FORMAT={-:-/ absolute / metric / decimal}
; #@! TF.CreationDate,2026-04-16T11:51:35+03:00
; #@! TF.GenerationSoftware,Kicad,Pcbnew,9.0.3-9.0.3-0~ubuntu24.04.1
; #@! TF.FileFunction,Plated,1,2,PTH
FMAT,2
METRIC
; #@! TA.AperFunction,Plated,PTH,ViaDrill
T1C0.300
; #@! TA.AperFunction,Plated,PTH,ComponentDrill
T2C0.800
; #@! TA.AperFunction,Plated,PTH,ComponentDrill
T3C1.000
; #@! TA.AperFunction,Plated,PTH,ComponentDrill
T4C1.400
%
G90
G05
T1
X94.639Y-59.75
X96.0Y-57.5
X102.0Y-60.75
X102.5Y-55.5
X104.25Y-105.0
X105.25Y-59.5
X107.75Y-54.9
X110.75Y-50.25
X111.0Y-61.25
X119.25Y-60.148
X126.0Y-61.75
X126.75Y-58.499
X130.25Y-101.25
X136.0Y-50.85
X175.25Y-55.5
X176.727Y-50.85
X177.75Y-50.25
X179.0Y-55.25
X181.25Y-98.0
T2
X111.59Y-80.5
X119.21Y-80.5
X136.823Y-80.5
X144.443Y-80.5
X162.207Y-80.5
X169.827Y-80.5
X187.59Y-80.5
X195.21Y-80.5
T3
X94.96Y-90.42
X94.96Y-92.96
X94.96Y-95.5
X94.96Y-98.04
X97.5Y-90.42
X97.5Y-92.96
X97.5Y-95.5
X97.5Y-98.04
X99.5Y-53.46
X99.5Y-56.0
X99.5Y-58.54
X99.5Y-61.08
X99.5Y-63.62
X99.5Y-66.16
X99.5Y-68.7
X99.5Y-71.24
X106.5Y-90.42
X106.5Y-92.96
X106.5Y-95.5
X106.5Y-98.04
X109.04Y-90.42
X109.04Y-92.96
X109.04Y-95.5
X109.04Y-98.04
X118.0Y-90.5
X118.0Y-93.04
X118.0Y-95.58
X118.0Y-98.12
X120.54Y-90.5
X120.54Y-93.04
X120.54Y-95.58
X120.54Y-98.12
X131.68Y-35.0
X134.22Y-35.0
X136.76Y-35.0
X139.3Y-35.0
X141.84Y-35.0
X144.38Y-35.0
X145.72Y-108.5
X146.92Y-35.0
X148.26Y-108.5
X149.46Y-35.0
X150.8Y-108.5
X150.88Y-100.0
X150.88Y-102.54
X153.34Y-108.5
X153.42Y-100.0
X153.42Y-102.54
X155.88Y-108.5
X155.96Y-100.0
X155.96Y-102.54
X158.42Y-108.5
X158.5Y-100.0
X158.5Y-102.54
X160.96Y-108.5
X161.88Y-36.46
X161.88Y-39.0
X163.5Y-108.5
X164.42Y-36.46
X164.42Y-39.0
X166.96Y-36.46
X166.96Y-39.0
X169.5Y-36.46
X169.5Y-39.0
X170.22Y-108.5
X172.76Y-108.5
X175.3Y-108.5
X175.38Y-100.0
X175.38Y-102.54
X177.84Y-108.5
X177.92Y-100.0
X177.92Y-102.54
X180.38Y-108.5
X180.46Y-100.0
X180.46Y-102.54
X182.92Y-108.5
X183.0Y-100.0
X183.0Y-102.54
X185.46Y-108.5
X188.0Y-108.5
X209.0Y-53.96
X209.0Y-56.5
X209.0Y-59.04
X209.0Y-61.58
X209.0Y-64.12
X209.0Y-66.66
X209.0Y-69.2
X209.0Y-71.74
T4
X108.8Y-53.0
X108.8Y-57.1
X108.8Y-63.45
X108.8Y-69.8
X113.2Y-53.0
X113.2Y-57.1
X113.2Y-63.45
X117.6Y-53.0
X117.6Y-57.1
X117.6Y-63.45
X122.0Y-53.0
X122.0Y-57.1
X122.0Y-63.45
X122.0Y-69.8
X134.033Y-53.0
X134.033Y-57.1
X134.033Y-63.45
X134.033Y-69.8
X138.433Y-53.0
X138.433Y-57.1
X138.433Y-63.45
X142.833Y-53.0
X142.833Y-57.1
X142.833Y-63.45
X147.233Y-53.0
X147.233Y-57.1
X147.233Y-63.45
X147.233Y-69.8
X159.417Y-53.0
X159.417Y-57.1
X159.417Y-63.45
X159.417Y-69.8
X163.817Y-53.0
X163.817Y-57.1
X163.817Y-63.45
X168.217Y-53.0
X168.217Y-57.1
X168.217Y-63.45
X172.617Y-53.0
X172.617Y-57.1
X172.617Y-63.45
X172.617Y-69.8
X184.8Y-53.0
X184.8Y-57.1
X184.8Y-63.45
X184.8Y-69.8
X189.2Y-53.0
X189.2Y-57.1
X189.2Y-63.45
X193.6Y-53.0
X193.6Y-57.1
X193.6Y-63.45
X198.0Y-53.0
X198.0Y-57.1
X198.0Y-63.45
X198.0Y-69.8
M30
