%TF.GenerationSoftware,KiCad,Pcbnew,9.0.3-9.0.3-0~ubuntu24.04.1*%
%TF.CreationDate,2026-03-24T10:01:24+03:00*%
%TF.ProjectId,logic_unary,6c6f6769-635f-4756-9e61-72792e6b6963,rev?*%
%TF.SameCoordinates,Original*%
%TF.FileFunction,Legend,Top*%
%TF.FilePolarity,Positive*%
%FSLAX46Y46*%
G04 Gerber Fmt 4.6, Leading zero omitted, Abs format (unit mm)*
G04 Created by KiCad (PCBNEW 9.0.3-9.0.3-0~ubuntu24.04.1) date 2026-03-24 10:01:24*
%MOMM*%
%LPD*%
G01*
G04 APERTURE LIST*
%ADD10C,0.625000*%
%ADD11C,1.000000*%
%ADD12C,0.750000*%
%ADD13C,0.150000*%
%ADD14C,0.120000*%
%ADD15C,0.100000*%
G04 APERTURE END LIST*
D10*
X148601660Y-94355595D02*
X148601660Y-89355595D01*
X148601660Y-89355595D02*
X151458803Y-94355595D01*
X151458803Y-94355595D02*
X151458803Y-89355595D01*
X154792136Y-89355595D02*
X155744517Y-89355595D01*
X155744517Y-89355595D02*
X156220707Y-89593690D01*
X156220707Y-89593690D02*
X156696898Y-90069880D01*
X156696898Y-90069880D02*
X156934993Y-91022261D01*
X156934993Y-91022261D02*
X156934993Y-92688928D01*
X156934993Y-92688928D02*
X156696898Y-93641309D01*
X156696898Y-93641309D02*
X156220707Y-94117500D01*
X156220707Y-94117500D02*
X155744517Y-94355595D01*
X155744517Y-94355595D02*
X154792136Y-94355595D01*
X154792136Y-94355595D02*
X154315945Y-94117500D01*
X154315945Y-94117500D02*
X153839755Y-93641309D01*
X153839755Y-93641309D02*
X153601659Y-92688928D01*
X153601659Y-92688928D02*
X153601659Y-91022261D01*
X153601659Y-91022261D02*
X153839755Y-90069880D01*
X153839755Y-90069880D02*
X154315945Y-89593690D01*
X154315945Y-89593690D02*
X154792136Y-89355595D01*
X158363564Y-89355595D02*
X161220707Y-89355595D01*
X159792135Y-94355595D02*
X159792135Y-89355595D01*
X101958803Y-112379404D02*
X101720707Y-112617500D01*
X101720707Y-112617500D02*
X101006422Y-112855595D01*
X101006422Y-112855595D02*
X100530231Y-112855595D01*
X100530231Y-112855595D02*
X99815945Y-112617500D01*
X99815945Y-112617500D02*
X99339755Y-112141309D01*
X99339755Y-112141309D02*
X99101660Y-111665119D01*
X99101660Y-111665119D02*
X98863564Y-110712738D01*
X98863564Y-110712738D02*
X98863564Y-109998452D01*
X98863564Y-109998452D02*
X99101660Y-109046071D01*
X99101660Y-109046071D02*
X99339755Y-108569880D01*
X99339755Y-108569880D02*
X99815945Y-108093690D01*
X99815945Y-108093690D02*
X100530231Y-107855595D01*
X100530231Y-107855595D02*
X101006422Y-107855595D01*
X101006422Y-107855595D02*
X101720707Y-108093690D01*
X101720707Y-108093690D02*
X101958803Y-108331785D01*
X105054041Y-107855595D02*
X106006422Y-107855595D01*
X106006422Y-107855595D02*
X106482612Y-108093690D01*
X106482612Y-108093690D02*
X106958803Y-108569880D01*
X106958803Y-108569880D02*
X107196898Y-109522261D01*
X107196898Y-109522261D02*
X107196898Y-111188928D01*
X107196898Y-111188928D02*
X106958803Y-112141309D01*
X106958803Y-112141309D02*
X106482612Y-112617500D01*
X106482612Y-112617500D02*
X106006422Y-112855595D01*
X106006422Y-112855595D02*
X105054041Y-112855595D01*
X105054041Y-112855595D02*
X104577850Y-112617500D01*
X104577850Y-112617500D02*
X104101660Y-112141309D01*
X104101660Y-112141309D02*
X103863564Y-111188928D01*
X103863564Y-111188928D02*
X103863564Y-109522261D01*
X103863564Y-109522261D02*
X104101660Y-108569880D01*
X104101660Y-108569880D02*
X104577850Y-108093690D01*
X104577850Y-108093690D02*
X105054041Y-107855595D01*
X109339755Y-112855595D02*
X109339755Y-107855595D01*
X109339755Y-107855595D02*
X111244517Y-107855595D01*
X111244517Y-107855595D02*
X111720707Y-108093690D01*
X111720707Y-108093690D02*
X111958802Y-108331785D01*
X111958802Y-108331785D02*
X112196898Y-108807976D01*
X112196898Y-108807976D02*
X112196898Y-109522261D01*
X112196898Y-109522261D02*
X111958802Y-109998452D01*
X111958802Y-109998452D02*
X111720707Y-110236547D01*
X111720707Y-110236547D02*
X111244517Y-110474642D01*
X111244517Y-110474642D02*
X109339755Y-110474642D01*
X115292136Y-110474642D02*
X115292136Y-112855595D01*
X113625469Y-107855595D02*
X115292136Y-110474642D01*
X115292136Y-110474642D02*
X116958802Y-107855595D01*
D11*
X92562655Y-34468952D02*
X92562655Y-40945142D01*
X92562655Y-40945142D02*
X92943608Y-41707047D01*
X92943608Y-41707047D02*
X93324560Y-42088000D01*
X93324560Y-42088000D02*
X94086465Y-42468952D01*
X94086465Y-42468952D02*
X95610274Y-42468952D01*
X95610274Y-42468952D02*
X96372179Y-42088000D01*
X96372179Y-42088000D02*
X96753132Y-41707047D01*
X96753132Y-41707047D02*
X97134084Y-40945142D01*
X97134084Y-40945142D02*
X97134084Y-34468952D01*
X100943607Y-37135619D02*
X100943607Y-42468952D01*
X100943607Y-37897523D02*
X101324560Y-37516571D01*
X101324560Y-37516571D02*
X102086465Y-37135619D01*
X102086465Y-37135619D02*
X103229322Y-37135619D01*
X103229322Y-37135619D02*
X103991226Y-37516571D01*
X103991226Y-37516571D02*
X104372179Y-38278476D01*
X104372179Y-38278476D02*
X104372179Y-42468952D01*
X111610274Y-42468952D02*
X111610274Y-38278476D01*
X111610274Y-38278476D02*
X111229321Y-37516571D01*
X111229321Y-37516571D02*
X110467417Y-37135619D01*
X110467417Y-37135619D02*
X108943607Y-37135619D01*
X108943607Y-37135619D02*
X108181702Y-37516571D01*
X111610274Y-42088000D02*
X110848369Y-42468952D01*
X110848369Y-42468952D02*
X108943607Y-42468952D01*
X108943607Y-42468952D02*
X108181702Y-42088000D01*
X108181702Y-42088000D02*
X107800750Y-41326095D01*
X107800750Y-41326095D02*
X107800750Y-40564190D01*
X107800750Y-40564190D02*
X108181702Y-39802285D01*
X108181702Y-39802285D02*
X108943607Y-39421333D01*
X108943607Y-39421333D02*
X110848369Y-39421333D01*
X110848369Y-39421333D02*
X111610274Y-39040380D01*
X115419797Y-42468952D02*
X115419797Y-37135619D01*
X115419797Y-38659428D02*
X115800750Y-37897523D01*
X115800750Y-37897523D02*
X116181702Y-37516571D01*
X116181702Y-37516571D02*
X116943607Y-37135619D01*
X116943607Y-37135619D02*
X117705512Y-37135619D01*
X119610274Y-37135619D02*
X121515036Y-42468952D01*
X123419797Y-37135619D02*
X121515036Y-42468952D01*
X121515036Y-42468952D02*
X120753131Y-44373714D01*
X120753131Y-44373714D02*
X120372178Y-44754666D01*
X120372178Y-44754666D02*
X119610274Y-45135619D01*
D10*
X172363564Y-94117500D02*
X173077850Y-94355595D01*
X173077850Y-94355595D02*
X174268326Y-94355595D01*
X174268326Y-94355595D02*
X174744517Y-94117500D01*
X174744517Y-94117500D02*
X174982612Y-93879404D01*
X174982612Y-93879404D02*
X175220707Y-93403214D01*
X175220707Y-93403214D02*
X175220707Y-92927023D01*
X175220707Y-92927023D02*
X174982612Y-92450833D01*
X174982612Y-92450833D02*
X174744517Y-92212738D01*
X174744517Y-92212738D02*
X174268326Y-91974642D01*
X174268326Y-91974642D02*
X173315945Y-91736547D01*
X173315945Y-91736547D02*
X172839755Y-91498452D01*
X172839755Y-91498452D02*
X172601660Y-91260357D01*
X172601660Y-91260357D02*
X172363564Y-90784166D01*
X172363564Y-90784166D02*
X172363564Y-90307976D01*
X172363564Y-90307976D02*
X172601660Y-89831785D01*
X172601660Y-89831785D02*
X172839755Y-89593690D01*
X172839755Y-89593690D02*
X173315945Y-89355595D01*
X173315945Y-89355595D02*
X174506422Y-89355595D01*
X174506422Y-89355595D02*
X175220707Y-89593690D01*
X177363565Y-94355595D02*
X177363565Y-89355595D01*
X177363565Y-91736547D02*
X180220708Y-91736547D01*
X180220708Y-94355595D02*
X180220708Y-89355595D01*
X185458803Y-94355595D02*
X183792136Y-91974642D01*
X182601660Y-94355595D02*
X182601660Y-89355595D01*
X182601660Y-89355595D02*
X184506422Y-89355595D01*
X184506422Y-89355595D02*
X184982612Y-89593690D01*
X184982612Y-89593690D02*
X185220707Y-89831785D01*
X185220707Y-89831785D02*
X185458803Y-90307976D01*
X185458803Y-90307976D02*
X185458803Y-91022261D01*
X185458803Y-91022261D02*
X185220707Y-91498452D01*
X185220707Y-91498452D02*
X184982612Y-91736547D01*
X184982612Y-91736547D02*
X184506422Y-91974642D01*
X184506422Y-91974642D02*
X182601660Y-91974642D01*
D12*
X138421992Y-44726714D02*
X138421992Y-38726714D01*
X141279135Y-44726714D02*
X141279135Y-38726714D01*
X141279135Y-38726714D02*
X144707706Y-44726714D01*
X144707706Y-44726714D02*
X144707706Y-38726714D01*
D13*
X94610952Y-104499580D02*
X94563333Y-104547200D01*
X94563333Y-104547200D02*
X94420476Y-104594819D01*
X94420476Y-104594819D02*
X94325238Y-104594819D01*
X94325238Y-104594819D02*
X94182381Y-104547200D01*
X94182381Y-104547200D02*
X94087143Y-104451961D01*
X94087143Y-104451961D02*
X94039524Y-104356723D01*
X94039524Y-104356723D02*
X93991905Y-104166247D01*
X93991905Y-104166247D02*
X93991905Y-104023390D01*
X93991905Y-104023390D02*
X94039524Y-103832914D01*
X94039524Y-103832914D02*
X94087143Y-103737676D01*
X94087143Y-103737676D02*
X94182381Y-103642438D01*
X94182381Y-103642438D02*
X94325238Y-103594819D01*
X94325238Y-103594819D02*
X94420476Y-103594819D01*
X94420476Y-103594819D02*
X94563333Y-103642438D01*
X94563333Y-103642438D02*
X94610952Y-103690057D01*
X95230000Y-103594819D02*
X95420476Y-103594819D01*
X95420476Y-103594819D02*
X95515714Y-103642438D01*
X95515714Y-103642438D02*
X95610952Y-103737676D01*
X95610952Y-103737676D02*
X95658571Y-103928152D01*
X95658571Y-103928152D02*
X95658571Y-104261485D01*
X95658571Y-104261485D02*
X95610952Y-104451961D01*
X95610952Y-104451961D02*
X95515714Y-104547200D01*
X95515714Y-104547200D02*
X95420476Y-104594819D01*
X95420476Y-104594819D02*
X95230000Y-104594819D01*
X95230000Y-104594819D02*
X95134762Y-104547200D01*
X95134762Y-104547200D02*
X95039524Y-104451961D01*
X95039524Y-104451961D02*
X94991905Y-104261485D01*
X94991905Y-104261485D02*
X94991905Y-103928152D01*
X94991905Y-103928152D02*
X95039524Y-103737676D01*
X95039524Y-103737676D02*
X95134762Y-103642438D01*
X95134762Y-103642438D02*
X95230000Y-103594819D01*
X96087143Y-104594819D02*
X96087143Y-103594819D01*
X96087143Y-103594819D02*
X96468095Y-103594819D01*
X96468095Y-103594819D02*
X96563333Y-103642438D01*
X96563333Y-103642438D02*
X96610952Y-103690057D01*
X96610952Y-103690057D02*
X96658571Y-103785295D01*
X96658571Y-103785295D02*
X96658571Y-103928152D01*
X96658571Y-103928152D02*
X96610952Y-104023390D01*
X96610952Y-104023390D02*
X96563333Y-104071009D01*
X96563333Y-104071009D02*
X96468095Y-104118628D01*
X96468095Y-104118628D02*
X96087143Y-104118628D01*
X97277619Y-104118628D02*
X97277619Y-104594819D01*
X96944286Y-103594819D02*
X97277619Y-104118628D01*
X97277619Y-104118628D02*
X97610952Y-103594819D01*
X98468095Y-104594819D02*
X97896667Y-104594819D01*
X98182381Y-104594819D02*
X98182381Y-103594819D01*
X98182381Y-103594819D02*
X98087143Y-103737676D01*
X98087143Y-103737676D02*
X97991905Y-103832914D01*
X97991905Y-103832914D02*
X97896667Y-103880533D01*
X117650952Y-104579580D02*
X117603333Y-104627200D01*
X117603333Y-104627200D02*
X117460476Y-104674819D01*
X117460476Y-104674819D02*
X117365238Y-104674819D01*
X117365238Y-104674819D02*
X117222381Y-104627200D01*
X117222381Y-104627200D02*
X117127143Y-104531961D01*
X117127143Y-104531961D02*
X117079524Y-104436723D01*
X117079524Y-104436723D02*
X117031905Y-104246247D01*
X117031905Y-104246247D02*
X117031905Y-104103390D01*
X117031905Y-104103390D02*
X117079524Y-103912914D01*
X117079524Y-103912914D02*
X117127143Y-103817676D01*
X117127143Y-103817676D02*
X117222381Y-103722438D01*
X117222381Y-103722438D02*
X117365238Y-103674819D01*
X117365238Y-103674819D02*
X117460476Y-103674819D01*
X117460476Y-103674819D02*
X117603333Y-103722438D01*
X117603333Y-103722438D02*
X117650952Y-103770057D01*
X118270000Y-103674819D02*
X118460476Y-103674819D01*
X118460476Y-103674819D02*
X118555714Y-103722438D01*
X118555714Y-103722438D02*
X118650952Y-103817676D01*
X118650952Y-103817676D02*
X118698571Y-104008152D01*
X118698571Y-104008152D02*
X118698571Y-104341485D01*
X118698571Y-104341485D02*
X118650952Y-104531961D01*
X118650952Y-104531961D02*
X118555714Y-104627200D01*
X118555714Y-104627200D02*
X118460476Y-104674819D01*
X118460476Y-104674819D02*
X118270000Y-104674819D01*
X118270000Y-104674819D02*
X118174762Y-104627200D01*
X118174762Y-104627200D02*
X118079524Y-104531961D01*
X118079524Y-104531961D02*
X118031905Y-104341485D01*
X118031905Y-104341485D02*
X118031905Y-104008152D01*
X118031905Y-104008152D02*
X118079524Y-103817676D01*
X118079524Y-103817676D02*
X118174762Y-103722438D01*
X118174762Y-103722438D02*
X118270000Y-103674819D01*
X119127143Y-104674819D02*
X119127143Y-103674819D01*
X119127143Y-103674819D02*
X119508095Y-103674819D01*
X119508095Y-103674819D02*
X119603333Y-103722438D01*
X119603333Y-103722438D02*
X119650952Y-103770057D01*
X119650952Y-103770057D02*
X119698571Y-103865295D01*
X119698571Y-103865295D02*
X119698571Y-104008152D01*
X119698571Y-104008152D02*
X119650952Y-104103390D01*
X119650952Y-104103390D02*
X119603333Y-104151009D01*
X119603333Y-104151009D02*
X119508095Y-104198628D01*
X119508095Y-104198628D02*
X119127143Y-104198628D01*
X120317619Y-104198628D02*
X120317619Y-104674819D01*
X119984286Y-103674819D02*
X120317619Y-104198628D01*
X120317619Y-104198628D02*
X120650952Y-103674819D01*
X120889048Y-103674819D02*
X121508095Y-103674819D01*
X121508095Y-103674819D02*
X121174762Y-104055771D01*
X121174762Y-104055771D02*
X121317619Y-104055771D01*
X121317619Y-104055771D02*
X121412857Y-104103390D01*
X121412857Y-104103390D02*
X121460476Y-104151009D01*
X121460476Y-104151009D02*
X121508095Y-104246247D01*
X121508095Y-104246247D02*
X121508095Y-104484342D01*
X121508095Y-104484342D02*
X121460476Y-104579580D01*
X121460476Y-104579580D02*
X121412857Y-104627200D01*
X121412857Y-104627200D02*
X121317619Y-104674819D01*
X121317619Y-104674819D02*
X121031905Y-104674819D01*
X121031905Y-104674819D02*
X120936667Y-104627200D01*
X120936667Y-104627200D02*
X120889048Y-104579580D01*
X106150952Y-104499580D02*
X106103333Y-104547200D01*
X106103333Y-104547200D02*
X105960476Y-104594819D01*
X105960476Y-104594819D02*
X105865238Y-104594819D01*
X105865238Y-104594819D02*
X105722381Y-104547200D01*
X105722381Y-104547200D02*
X105627143Y-104451961D01*
X105627143Y-104451961D02*
X105579524Y-104356723D01*
X105579524Y-104356723D02*
X105531905Y-104166247D01*
X105531905Y-104166247D02*
X105531905Y-104023390D01*
X105531905Y-104023390D02*
X105579524Y-103832914D01*
X105579524Y-103832914D02*
X105627143Y-103737676D01*
X105627143Y-103737676D02*
X105722381Y-103642438D01*
X105722381Y-103642438D02*
X105865238Y-103594819D01*
X105865238Y-103594819D02*
X105960476Y-103594819D01*
X105960476Y-103594819D02*
X106103333Y-103642438D01*
X106103333Y-103642438D02*
X106150952Y-103690057D01*
X106770000Y-103594819D02*
X106960476Y-103594819D01*
X106960476Y-103594819D02*
X107055714Y-103642438D01*
X107055714Y-103642438D02*
X107150952Y-103737676D01*
X107150952Y-103737676D02*
X107198571Y-103928152D01*
X107198571Y-103928152D02*
X107198571Y-104261485D01*
X107198571Y-104261485D02*
X107150952Y-104451961D01*
X107150952Y-104451961D02*
X107055714Y-104547200D01*
X107055714Y-104547200D02*
X106960476Y-104594819D01*
X106960476Y-104594819D02*
X106770000Y-104594819D01*
X106770000Y-104594819D02*
X106674762Y-104547200D01*
X106674762Y-104547200D02*
X106579524Y-104451961D01*
X106579524Y-104451961D02*
X106531905Y-104261485D01*
X106531905Y-104261485D02*
X106531905Y-103928152D01*
X106531905Y-103928152D02*
X106579524Y-103737676D01*
X106579524Y-103737676D02*
X106674762Y-103642438D01*
X106674762Y-103642438D02*
X106770000Y-103594819D01*
X107627143Y-104594819D02*
X107627143Y-103594819D01*
X107627143Y-103594819D02*
X108008095Y-103594819D01*
X108008095Y-103594819D02*
X108103333Y-103642438D01*
X108103333Y-103642438D02*
X108150952Y-103690057D01*
X108150952Y-103690057D02*
X108198571Y-103785295D01*
X108198571Y-103785295D02*
X108198571Y-103928152D01*
X108198571Y-103928152D02*
X108150952Y-104023390D01*
X108150952Y-104023390D02*
X108103333Y-104071009D01*
X108103333Y-104071009D02*
X108008095Y-104118628D01*
X108008095Y-104118628D02*
X107627143Y-104118628D01*
X108817619Y-104118628D02*
X108817619Y-104594819D01*
X108484286Y-103594819D02*
X108817619Y-104118628D01*
X108817619Y-104118628D02*
X109150952Y-103594819D01*
X109436667Y-103690057D02*
X109484286Y-103642438D01*
X109484286Y-103642438D02*
X109579524Y-103594819D01*
X109579524Y-103594819D02*
X109817619Y-103594819D01*
X109817619Y-103594819D02*
X109912857Y-103642438D01*
X109912857Y-103642438D02*
X109960476Y-103690057D01*
X109960476Y-103690057D02*
X110008095Y-103785295D01*
X110008095Y-103785295D02*
X110008095Y-103880533D01*
X110008095Y-103880533D02*
X109960476Y-104023390D01*
X109960476Y-104023390D02*
X109389048Y-104594819D01*
X109389048Y-104594819D02*
X110008095Y-104594819D01*
D14*
%TO.C,J8*%
X170170000Y-96710000D02*
X188210000Y-96710000D01*
X170170000Y-105830000D02*
X170170000Y-96710000D01*
X171470000Y-98020000D02*
X186910000Y-98020000D01*
X171470000Y-104520000D02*
X171470000Y-98020000D01*
X174880000Y-107220000D02*
X175880000Y-107220000D01*
X175380000Y-106220000D02*
X174880000Y-107220000D01*
X175880000Y-107220000D02*
X175380000Y-106220000D01*
X177140000Y-104520000D02*
X171470000Y-104520000D01*
X177140000Y-105830000D02*
X177140000Y-104520000D01*
X181240000Y-104520000D02*
X181240000Y-105830000D01*
X186910000Y-98020000D02*
X186910000Y-104520000D01*
X186910000Y-104520000D02*
X181240000Y-104520000D01*
X188210000Y-96710000D02*
X188210000Y-105830000D01*
X188210000Y-105830000D02*
X170170000Y-105830000D01*
%TO.C,K2*%
D15*
X155156666Y-47090000D02*
X176876666Y-47090000D01*
X176876666Y-76610000D01*
X155156666Y-76610000D01*
X155156666Y-47090000D01*
%TO.C,K1*%
X180540000Y-47090000D02*
X202260000Y-47090000D01*
X202260000Y-76610000D01*
X180540000Y-76610000D01*
X180540000Y-47090000D01*
D14*
%TO.C,D1*%
X112630000Y-80500000D02*
X113280000Y-80500000D01*
X113880000Y-79380000D02*
X113880000Y-81620000D01*
X114000000Y-79380000D02*
X114000000Y-81620000D01*
X114120000Y-79380000D02*
X114120000Y-81620000D01*
X118170000Y-80500000D02*
X117520000Y-80500000D01*
X113280000Y-79380000D02*
X117520000Y-79380000D01*
X117520000Y-81620000D01*
X113280000Y-81620000D01*
X113280000Y-79380000D01*
%TO.C,D4*%
X188630000Y-80500000D02*
X189280000Y-80500000D01*
X189880000Y-79380000D02*
X189880000Y-81620000D01*
X190000000Y-79380000D02*
X190000000Y-81620000D01*
X190120000Y-79380000D02*
X190120000Y-81620000D01*
X194170000Y-80500000D02*
X193520000Y-80500000D01*
X189280000Y-79380000D02*
X193520000Y-79380000D01*
X193520000Y-81620000D01*
X189280000Y-81620000D01*
X189280000Y-79380000D01*
%TO.C,J9*%
X90280000Y-89920000D02*
X90280000Y-90920000D01*
X90280000Y-90920000D02*
X91280000Y-90420000D01*
X91280000Y-90420000D02*
X90280000Y-89920000D01*
X91670000Y-85210000D02*
X100790000Y-85210000D01*
X91670000Y-92180000D02*
X92980000Y-92180000D01*
X91670000Y-103250000D02*
X91670000Y-85210000D01*
X92980000Y-86510000D02*
X99480000Y-86510000D01*
X92980000Y-92180000D02*
X92980000Y-86510000D01*
X92980000Y-96280000D02*
X91670000Y-96280000D01*
X92980000Y-101950000D02*
X92980000Y-96280000D01*
X99480000Y-86510000D02*
X99480000Y-101950000D01*
X99480000Y-101950000D02*
X92980000Y-101950000D01*
X100790000Y-85210000D02*
X100790000Y-103250000D01*
X100790000Y-103250000D02*
X91670000Y-103250000D01*
%TO.C,J2*%
X207730000Y-52690000D02*
X209000000Y-52690000D01*
X207730000Y-53960000D02*
X207730000Y-52690000D01*
X210077358Y-56070000D02*
X210390000Y-56070000D01*
X210077358Y-56930000D02*
X210390000Y-56930000D01*
X210077358Y-58610000D02*
X210390000Y-58610000D01*
X210077358Y-59470000D02*
X210390000Y-59470000D01*
X210077358Y-61150000D02*
X210390000Y-61150000D01*
X210077358Y-62010000D02*
X210390000Y-62010000D01*
X210077358Y-63690000D02*
X210390000Y-63690000D01*
X210077358Y-64550000D02*
X210390000Y-64550000D01*
X210077358Y-66230000D02*
X210390000Y-66230000D01*
X210077358Y-67090000D02*
X210390000Y-67090000D01*
X210077358Y-68770000D02*
X210390000Y-68770000D01*
X210077358Y-69630000D02*
X210390000Y-69630000D01*
X210077358Y-71310000D02*
X210390000Y-71310000D01*
X210077358Y-72170000D02*
X210390000Y-72170000D01*
X210160000Y-53530000D02*
X210390000Y-53530000D01*
X210160000Y-54390000D02*
X210390000Y-54390000D01*
X210390000Y-52580000D02*
X210390000Y-73120000D01*
X210390000Y-55230000D02*
X213150000Y-55230000D01*
X210390000Y-57770000D02*
X213150000Y-57770000D01*
X210390000Y-60310000D02*
X213150000Y-60310000D01*
X210390000Y-62850000D02*
X213150000Y-62850000D01*
X210390000Y-65390000D02*
X213150000Y-65390000D01*
X210390000Y-67930000D02*
X213150000Y-67930000D01*
X210390000Y-70470000D02*
X213150000Y-70470000D01*
X210390000Y-73120000D02*
X213150000Y-73120000D01*
X213150000Y-52580000D02*
X210390000Y-52580000D01*
X213150000Y-56070000D02*
X219150000Y-56070000D01*
X213150000Y-58610000D02*
X219150000Y-58610000D01*
X213150000Y-61150000D02*
X219150000Y-61150000D01*
X213150000Y-63690000D02*
X219150000Y-63690000D01*
X213150000Y-66230000D02*
X219150000Y-66230000D01*
X213150000Y-68770000D02*
X219150000Y-68770000D01*
X213150000Y-71310000D02*
X219150000Y-71310000D01*
X213150000Y-73120000D02*
X213150000Y-52580000D01*
X219150000Y-56070000D02*
X219150000Y-56930000D01*
X219150000Y-56930000D02*
X213150000Y-56930000D01*
X219150000Y-58610000D02*
X219150000Y-59470000D01*
X219150000Y-59470000D02*
X213150000Y-59470000D01*
X219150000Y-61150000D02*
X219150000Y-62010000D01*
X219150000Y-62010000D02*
X213150000Y-62010000D01*
X219150000Y-63690000D02*
X219150000Y-64550000D01*
X219150000Y-64550000D02*
X213150000Y-64550000D01*
X219150000Y-66230000D02*
X219150000Y-67090000D01*
X219150000Y-67090000D02*
X213150000Y-67090000D01*
X219150000Y-68770000D02*
X219150000Y-69630000D01*
X219150000Y-69630000D02*
X213150000Y-69630000D01*
X219150000Y-71310000D02*
X219150000Y-72170000D01*
X219150000Y-72170000D02*
X213150000Y-72170000D01*
X213150000Y-53530000D02*
X219150000Y-53530000D01*
X219150000Y-54390000D01*
X213150000Y-54390000D01*
X213150000Y-53530000D01*
G36*
X213150000Y-53530000D02*
G01*
X219150000Y-53530000D01*
X219150000Y-54390000D01*
X213150000Y-54390000D01*
X213150000Y-53530000D01*
G37*
%TO.C,J4*%
X156670000Y-33170000D02*
X174710000Y-33170000D01*
X156670000Y-42290000D02*
X156670000Y-33170000D01*
X157970000Y-34480000D02*
X173410000Y-34480000D01*
X157970000Y-40980000D02*
X157970000Y-34480000D01*
X161380000Y-43680000D02*
X162380000Y-43680000D01*
X161880000Y-42680000D02*
X161380000Y-43680000D01*
X162380000Y-43680000D02*
X161880000Y-42680000D01*
X163640000Y-40980000D02*
X157970000Y-40980000D01*
X163640000Y-42290000D02*
X163640000Y-40980000D01*
X167740000Y-40980000D02*
X167740000Y-42290000D01*
X173410000Y-34480000D02*
X173410000Y-40980000D01*
X173410000Y-40980000D02*
X167740000Y-40980000D01*
X174710000Y-33170000D02*
X174710000Y-42290000D01*
X174710000Y-42290000D02*
X156670000Y-42290000D01*
%TO.C,J5*%
X144390000Y-107390000D02*
X145720000Y-107390000D01*
X144390000Y-108500000D02*
X144390000Y-107390000D01*
X144390000Y-109960000D02*
X164830000Y-109960000D01*
X144390000Y-118590000D02*
X144390000Y-109960000D01*
X144390000Y-118590000D02*
X164830000Y-118590000D01*
X144510000Y-118590000D02*
X144510000Y-109960000D01*
X144628095Y-118590000D02*
X144628095Y-109960000D01*
X144746190Y-118590000D02*
X144746190Y-109960000D01*
X144864285Y-118590000D02*
X144864285Y-109960000D01*
X144982380Y-118590000D02*
X144982380Y-109960000D01*
X145100475Y-118590000D02*
X145100475Y-109960000D01*
X145218570Y-118590000D02*
X145218570Y-109960000D01*
X145336665Y-118590000D02*
X145336665Y-109960000D01*
X145360000Y-109960000D02*
X145360000Y-109610000D01*
X145454760Y-118590000D02*
X145454760Y-109960000D01*
X145572855Y-118590000D02*
X145572855Y-109960000D01*
X145690950Y-118590000D02*
X145690950Y-109960000D01*
X145809045Y-118590000D02*
X145809045Y-109960000D01*
X145927140Y-118590000D02*
X145927140Y-109960000D01*
X146045235Y-118590000D02*
X146045235Y-109960000D01*
X146080000Y-109960000D02*
X146080000Y-109610000D01*
X146163330Y-118590000D02*
X146163330Y-109960000D01*
X146281425Y-118590000D02*
X146281425Y-109960000D01*
X146399520Y-118590000D02*
X146399520Y-109960000D01*
X146517615Y-118590000D02*
X146517615Y-109960000D01*
X146635710Y-118590000D02*
X146635710Y-109960000D01*
X146753805Y-118590000D02*
X146753805Y-109960000D01*
X146871900Y-118590000D02*
X146871900Y-109960000D01*
X146990000Y-118590000D02*
X146990000Y-109960000D01*
X147900000Y-109960000D02*
X147900000Y-109550000D01*
X148620000Y-109960000D02*
X148620000Y-109550000D01*
X149530000Y-118590000D02*
X149530000Y-109960000D01*
X150440000Y-109960000D02*
X150440000Y-109550000D01*
X151160000Y-109960000D02*
X151160000Y-109550000D01*
X152070000Y-118590000D02*
X152070000Y-109960000D01*
X152980000Y-109960000D02*
X152980000Y-109550000D01*
X153700000Y-109960000D02*
X153700000Y-109550000D01*
X154610000Y-118590000D02*
X154610000Y-109960000D01*
X155520000Y-109960000D02*
X155520000Y-109550000D01*
X156240000Y-109960000D02*
X156240000Y-109550000D01*
X157150000Y-118590000D02*
X157150000Y-109960000D01*
X158060000Y-109960000D02*
X158060000Y-109550000D01*
X158780000Y-109960000D02*
X158780000Y-109550000D01*
X159690000Y-118590000D02*
X159690000Y-109960000D01*
X160600000Y-109960000D02*
X160600000Y-109550000D01*
X161320000Y-109960000D02*
X161320000Y-109550000D01*
X162230000Y-118590000D02*
X162230000Y-109960000D01*
X163140000Y-109960000D02*
X163140000Y-109550000D01*
X163860000Y-109960000D02*
X163860000Y-109550000D01*
X164830000Y-118590000D02*
X164830000Y-109960000D01*
%TO.C,K3*%
D15*
X129773333Y-47090000D02*
X151493333Y-47090000D01*
X151493333Y-76610000D01*
X129773333Y-76610000D01*
X129773333Y-47090000D01*
D14*
%TO.C,D3*%
X163246666Y-80500000D02*
X163896666Y-80500000D01*
X164496666Y-79380000D02*
X164496666Y-81620000D01*
X164616666Y-79380000D02*
X164616666Y-81620000D01*
X164736666Y-79380000D02*
X164736666Y-81620000D01*
X168786666Y-80500000D02*
X168136666Y-80500000D01*
X163896666Y-79380000D02*
X168136666Y-79380000D01*
X168136666Y-81620000D01*
X163896666Y-81620000D01*
X163896666Y-79380000D01*
%TO.C,K4*%
D15*
X104540000Y-47090000D02*
X126260000Y-47090000D01*
X126260000Y-76610000D01*
X104540000Y-76610000D01*
X104540000Y-47090000D01*
D14*
%TO.C,J3*%
X130300000Y-30850000D02*
X130300000Y-33610000D01*
X130300000Y-33610000D02*
X150840000Y-33610000D01*
X130410000Y-36270000D02*
X130410000Y-35000000D01*
X131250000Y-33840000D02*
X131250000Y-33610000D01*
X131680000Y-36270000D02*
X130410000Y-36270000D01*
X132110000Y-33840000D02*
X132110000Y-33610000D01*
X132950000Y-33610000D02*
X132950000Y-30850000D01*
X133790000Y-24850000D02*
X134650000Y-24850000D01*
X133790000Y-30850000D02*
X133790000Y-24850000D01*
X133790000Y-33922642D02*
X133790000Y-33610000D01*
X134650000Y-24850000D02*
X134650000Y-30850000D01*
X134650000Y-33922642D02*
X134650000Y-33610000D01*
X135490000Y-33610000D02*
X135490000Y-30850000D01*
X136330000Y-24850000D02*
X137190000Y-24850000D01*
X136330000Y-30850000D02*
X136330000Y-24850000D01*
X136330000Y-33922642D02*
X136330000Y-33610000D01*
X137190000Y-24850000D02*
X137190000Y-30850000D01*
X137190000Y-33922642D02*
X137190000Y-33610000D01*
X138030000Y-33610000D02*
X138030000Y-30850000D01*
X138870000Y-24850000D02*
X139730000Y-24850000D01*
X138870000Y-30850000D02*
X138870000Y-24850000D01*
X138870000Y-33922642D02*
X138870000Y-33610000D01*
X139730000Y-24850000D02*
X139730000Y-30850000D01*
X139730000Y-33922642D02*
X139730000Y-33610000D01*
X140570000Y-33610000D02*
X140570000Y-30850000D01*
X141410000Y-24850000D02*
X142270000Y-24850000D01*
X141410000Y-30850000D02*
X141410000Y-24850000D01*
X141410000Y-33922642D02*
X141410000Y-33610000D01*
X142270000Y-24850000D02*
X142270000Y-30850000D01*
X142270000Y-33922642D02*
X142270000Y-33610000D01*
X143110000Y-33610000D02*
X143110000Y-30850000D01*
X143950000Y-24850000D02*
X144810000Y-24850000D01*
X143950000Y-30850000D02*
X143950000Y-24850000D01*
X143950000Y-33922642D02*
X143950000Y-33610000D01*
X144810000Y-24850000D02*
X144810000Y-30850000D01*
X144810000Y-33922642D02*
X144810000Y-33610000D01*
X145650000Y-33610000D02*
X145650000Y-30850000D01*
X146490000Y-24850000D02*
X147350000Y-24850000D01*
X146490000Y-30850000D02*
X146490000Y-24850000D01*
X146490000Y-33922642D02*
X146490000Y-33610000D01*
X147350000Y-24850000D02*
X147350000Y-30850000D01*
X147350000Y-33922642D02*
X147350000Y-33610000D01*
X148190000Y-33610000D02*
X148190000Y-30850000D01*
X149030000Y-24850000D02*
X149890000Y-24850000D01*
X149030000Y-30850000D02*
X149030000Y-24850000D01*
X149030000Y-33922642D02*
X149030000Y-33610000D01*
X149890000Y-24850000D02*
X149890000Y-30850000D01*
X149890000Y-33922642D02*
X149890000Y-33610000D01*
X150840000Y-30850000D02*
X130300000Y-30850000D01*
X150840000Y-33610000D02*
X150840000Y-30850000D01*
X131250000Y-30850000D02*
X132110000Y-30850000D01*
X132110000Y-24850000D01*
X131250000Y-24850000D01*
X131250000Y-30850000D01*
G36*
X131250000Y-30850000D02*
G01*
X132110000Y-30850000D01*
X132110000Y-24850000D01*
X131250000Y-24850000D01*
X131250000Y-30850000D01*
G37*
%TO.C,J7*%
X145670000Y-96710000D02*
X163710000Y-96710000D01*
X145670000Y-105830000D02*
X145670000Y-96710000D01*
X146970000Y-98020000D02*
X162410000Y-98020000D01*
X146970000Y-104520000D02*
X146970000Y-98020000D01*
X150380000Y-107220000D02*
X151380000Y-107220000D01*
X150880000Y-106220000D02*
X150380000Y-107220000D01*
X151380000Y-107220000D02*
X150880000Y-106220000D01*
X152640000Y-104520000D02*
X146970000Y-104520000D01*
X152640000Y-105830000D02*
X152640000Y-104520000D01*
X156740000Y-104520000D02*
X156740000Y-105830000D01*
X162410000Y-98020000D02*
X162410000Y-104520000D01*
X162410000Y-104520000D02*
X156740000Y-104520000D01*
X163710000Y-96710000D02*
X163710000Y-105830000D01*
X163710000Y-105830000D02*
X145670000Y-105830000D01*
%TO.C,J1*%
X89410000Y-52130000D02*
X89410000Y-72570000D01*
X89410000Y-52130000D02*
X98040000Y-52130000D01*
X89410000Y-52250000D02*
X98040000Y-52250000D01*
X89410000Y-52368095D02*
X98040000Y-52368095D01*
X89410000Y-52486190D02*
X98040000Y-52486190D01*
X89410000Y-52604285D02*
X98040000Y-52604285D01*
X89410000Y-52722380D02*
X98040000Y-52722380D01*
X89410000Y-52840475D02*
X98040000Y-52840475D01*
X89410000Y-52958570D02*
X98040000Y-52958570D01*
X89410000Y-53076665D02*
X98040000Y-53076665D01*
X89410000Y-53194760D02*
X98040000Y-53194760D01*
X89410000Y-53312855D02*
X98040000Y-53312855D01*
X89410000Y-53430950D02*
X98040000Y-53430950D01*
X89410000Y-53549045D02*
X98040000Y-53549045D01*
X89410000Y-53667140D02*
X98040000Y-53667140D01*
X89410000Y-53785235D02*
X98040000Y-53785235D01*
X89410000Y-53903330D02*
X98040000Y-53903330D01*
X89410000Y-54021425D02*
X98040000Y-54021425D01*
X89410000Y-54139520D02*
X98040000Y-54139520D01*
X89410000Y-54257615D02*
X98040000Y-54257615D01*
X89410000Y-54375710D02*
X98040000Y-54375710D01*
X89410000Y-54493805D02*
X98040000Y-54493805D01*
X89410000Y-54611900D02*
X98040000Y-54611900D01*
X89410000Y-54730000D02*
X98040000Y-54730000D01*
X89410000Y-57270000D02*
X98040000Y-57270000D01*
X89410000Y-59810000D02*
X98040000Y-59810000D01*
X89410000Y-62350000D02*
X98040000Y-62350000D01*
X89410000Y-64890000D02*
X98040000Y-64890000D01*
X89410000Y-67430000D02*
X98040000Y-67430000D01*
X89410000Y-69970000D02*
X98040000Y-69970000D01*
X89410000Y-72570000D02*
X98040000Y-72570000D01*
X98040000Y-52130000D02*
X98040000Y-72570000D01*
X98040000Y-53100000D02*
X98390000Y-53100000D01*
X98040000Y-53820000D02*
X98390000Y-53820000D01*
X98040000Y-55640000D02*
X98450000Y-55640000D01*
X98040000Y-56360000D02*
X98450000Y-56360000D01*
X98040000Y-58180000D02*
X98450000Y-58180000D01*
X98040000Y-58900000D02*
X98450000Y-58900000D01*
X98040000Y-60720000D02*
X98450000Y-60720000D01*
X98040000Y-61440000D02*
X98450000Y-61440000D01*
X98040000Y-63260000D02*
X98450000Y-63260000D01*
X98040000Y-63980000D02*
X98450000Y-63980000D01*
X98040000Y-65800000D02*
X98450000Y-65800000D01*
X98040000Y-66520000D02*
X98450000Y-66520000D01*
X98040000Y-68340000D02*
X98450000Y-68340000D01*
X98040000Y-69060000D02*
X98450000Y-69060000D01*
X98040000Y-70880000D02*
X98450000Y-70880000D01*
X98040000Y-71600000D02*
X98450000Y-71600000D01*
X99500000Y-52130000D02*
X100610000Y-52130000D01*
X100610000Y-52130000D02*
X100610000Y-53460000D01*
%TO.C,J6*%
X168890000Y-107390000D02*
X170220000Y-107390000D01*
X168890000Y-108500000D02*
X168890000Y-107390000D01*
X168890000Y-109960000D02*
X189330000Y-109960000D01*
X168890000Y-118590000D02*
X168890000Y-109960000D01*
X168890000Y-118590000D02*
X189330000Y-118590000D01*
X169010000Y-118590000D02*
X169010000Y-109960000D01*
X169128095Y-118590000D02*
X169128095Y-109960000D01*
X169246190Y-118590000D02*
X169246190Y-109960000D01*
X169364285Y-118590000D02*
X169364285Y-109960000D01*
X169482380Y-118590000D02*
X169482380Y-109960000D01*
X169600475Y-118590000D02*
X169600475Y-109960000D01*
X169718570Y-118590000D02*
X169718570Y-109960000D01*
X169836665Y-118590000D02*
X169836665Y-109960000D01*
X169860000Y-109960000D02*
X169860000Y-109610000D01*
X169954760Y-118590000D02*
X169954760Y-109960000D01*
X170072855Y-118590000D02*
X170072855Y-109960000D01*
X170190950Y-118590000D02*
X170190950Y-109960000D01*
X170309045Y-118590000D02*
X170309045Y-109960000D01*
X170427140Y-118590000D02*
X170427140Y-109960000D01*
X170545235Y-118590000D02*
X170545235Y-109960000D01*
X170580000Y-109960000D02*
X170580000Y-109610000D01*
X170663330Y-118590000D02*
X170663330Y-109960000D01*
X170781425Y-118590000D02*
X170781425Y-109960000D01*
X170899520Y-118590000D02*
X170899520Y-109960000D01*
X171017615Y-118590000D02*
X171017615Y-109960000D01*
X171135710Y-118590000D02*
X171135710Y-109960000D01*
X171253805Y-118590000D02*
X171253805Y-109960000D01*
X171371900Y-118590000D02*
X171371900Y-109960000D01*
X171490000Y-118590000D02*
X171490000Y-109960000D01*
X172400000Y-109960000D02*
X172400000Y-109550000D01*
X173120000Y-109960000D02*
X173120000Y-109550000D01*
X174030000Y-118590000D02*
X174030000Y-109960000D01*
X174940000Y-109960000D02*
X174940000Y-109550000D01*
X175660000Y-109960000D02*
X175660000Y-109550000D01*
X176570000Y-118590000D02*
X176570000Y-109960000D01*
X177480000Y-109960000D02*
X177480000Y-109550000D01*
X178200000Y-109960000D02*
X178200000Y-109550000D01*
X179110000Y-118590000D02*
X179110000Y-109960000D01*
X180020000Y-109960000D02*
X180020000Y-109550000D01*
X180740000Y-109960000D02*
X180740000Y-109550000D01*
X181650000Y-118590000D02*
X181650000Y-109960000D01*
X182560000Y-109960000D02*
X182560000Y-109550000D01*
X183280000Y-109960000D02*
X183280000Y-109550000D01*
X184190000Y-118590000D02*
X184190000Y-109960000D01*
X185100000Y-109960000D02*
X185100000Y-109550000D01*
X185820000Y-109960000D02*
X185820000Y-109550000D01*
X186730000Y-118590000D02*
X186730000Y-109960000D01*
X187640000Y-109960000D02*
X187640000Y-109550000D01*
X188360000Y-109960000D02*
X188360000Y-109550000D01*
X189330000Y-118590000D02*
X189330000Y-109960000D01*
%TO.C,J11*%
X113320000Y-90000000D02*
X113320000Y-91000000D01*
X113320000Y-91000000D02*
X114320000Y-90500000D01*
X114320000Y-90500000D02*
X113320000Y-90000000D01*
X114710000Y-85290000D02*
X123830000Y-85290000D01*
X114710000Y-92260000D02*
X116020000Y-92260000D01*
X114710000Y-103330000D02*
X114710000Y-85290000D01*
X116020000Y-86590000D02*
X122520000Y-86590000D01*
X116020000Y-92260000D02*
X116020000Y-86590000D01*
X116020000Y-96360000D02*
X114710000Y-96360000D01*
X116020000Y-102030000D02*
X116020000Y-96360000D01*
X122520000Y-86590000D02*
X122520000Y-102030000D01*
X122520000Y-102030000D02*
X116020000Y-102030000D01*
X123830000Y-85290000D02*
X123830000Y-103330000D01*
X123830000Y-103330000D02*
X114710000Y-103330000D01*
%TO.C,J10*%
X101820000Y-89920000D02*
X101820000Y-90920000D01*
X101820000Y-90920000D02*
X102820000Y-90420000D01*
X102820000Y-90420000D02*
X101820000Y-89920000D01*
X103210000Y-85210000D02*
X112330000Y-85210000D01*
X103210000Y-92180000D02*
X104520000Y-92180000D01*
X103210000Y-103250000D02*
X103210000Y-85210000D01*
X104520000Y-86510000D02*
X111020000Y-86510000D01*
X104520000Y-92180000D02*
X104520000Y-86510000D01*
X104520000Y-96280000D02*
X103210000Y-96280000D01*
X104520000Y-101950000D02*
X104520000Y-96280000D01*
X111020000Y-86510000D02*
X111020000Y-101950000D01*
X111020000Y-101950000D02*
X104520000Y-101950000D01*
X112330000Y-85210000D02*
X112330000Y-103250000D01*
X112330000Y-103250000D02*
X103210000Y-103250000D01*
%TO.C,D2*%
X137863333Y-80500000D02*
X138513333Y-80500000D01*
X139113333Y-79380000D02*
X139113333Y-81620000D01*
X139233333Y-79380000D02*
X139233333Y-81620000D01*
X139353333Y-79380000D02*
X139353333Y-81620000D01*
X143403333Y-80500000D02*
X142753333Y-80500000D01*
X138513333Y-79380000D02*
X142753333Y-79380000D01*
X142753333Y-81620000D01*
X138513333Y-81620000D01*
X138513333Y-79380000D01*
%TD*%
M02*
