M48
; DRILL file {KiCad 9.0.9-9.0.9~ubuntu24.04.1} date 2026-09-15T09:26:47+0300
; FORMAT={-:-/ absolute / metric / decimal}
; #@! TF.CreationDate,2026-09-15T09:26:47+03:00
; #@! TF.GenerationSoftware,Kicad,Pcbnew,9.0.9-9.0.9~ubuntu24.04.1
; #@! TF.FileFunction,Plated,1,2,PTH
FMAT,2
METRIC
; #@! TA.AperFunction,Plated,PTH,ComponentDrill
T1C0.800
; #@! TA.AperFunction,Plated,PTH,ComponentDrill
T2C0.900
; #@! TA.AperFunction,Plated,PTH,ComponentDrill
T3C1.000
; #@! TA.AperFunction,Plated,PTH,ComponentDrill
T4C1.100
; #@! TA.AperFunction,Plated,PTH,ComponentDrill
T5C1.400
%
G90
G05
T1
X82.3Y-34.0
X82.3Y-45.25
X82.3Y-57.0
X82.3Y-68.25
X95.0Y-34.0
X95.0Y-45.25
X95.0Y-57.0
X95.0Y-68.25
X99.88Y-32.5
X99.88Y-40.12
X99.88Y-44.017
X99.88Y-51.637
X99.88Y-55.534
X99.88Y-63.154
X99.88Y-67.051
X99.88Y-74.671
X102.42Y-32.5
X102.42Y-40.12
X102.42Y-44.017
X102.42Y-51.637
X102.42Y-55.534
X102.42Y-63.154
X102.42Y-67.051
X102.42Y-74.671
X104.96Y-32.5
X104.96Y-40.12
X104.96Y-44.017
X104.96Y-51.637
X104.96Y-55.534
X104.96Y-63.154
X104.96Y-67.051
X104.96Y-74.671
X107.5Y-32.5
X107.5Y-40.12
X107.5Y-44.017
X107.5Y-51.637
X107.5Y-55.534
X107.5Y-63.154
X107.5Y-67.051
X107.5Y-74.671
X111.75Y-40.483
X111.75Y-51.967
X111.75Y-63.451
X111.75Y-74.935
X112.88Y-37.655
X112.88Y-49.096
X112.88Y-60.58
X112.88Y-72.064
X113.94Y-34.828
X113.94Y-46.225
X113.94Y-57.709
X113.94Y-69.193
X115.13Y-32.0
X115.13Y-43.354
X115.13Y-54.838
X115.13Y-66.322
X119.37Y-40.483
X119.37Y-51.967
X119.37Y-63.451
X119.37Y-74.935
X120.5Y-37.655
X120.5Y-49.096
X120.5Y-60.58
X120.5Y-72.064
X121.56Y-34.828
X121.56Y-46.225
X121.56Y-57.709
X121.56Y-69.193
X122.75Y-32.0
X122.75Y-43.354
X122.75Y-54.838
X122.75Y-66.322
X127.25Y-32.5
X127.25Y-40.12
X127.25Y-44.017
X127.25Y-51.637
X127.25Y-55.534
X127.25Y-63.154
X127.25Y-67.051
X127.25Y-74.671
X129.79Y-32.5
X129.79Y-40.12
X129.79Y-44.017
X129.79Y-51.637
X129.79Y-55.534
X129.79Y-63.154
X129.79Y-67.051
X129.79Y-74.671
X132.33Y-32.5
X132.33Y-40.12
X132.33Y-44.017
X132.33Y-51.637
X132.33Y-55.534
X132.33Y-63.154
X132.33Y-67.051
X132.33Y-74.671
X134.87Y-32.5
X134.87Y-40.12
X134.87Y-44.017
X134.87Y-51.637
X134.87Y-55.534
X134.87Y-63.154
X134.87Y-67.051
X134.87Y-74.671
X139.17Y-40.6
X139.17Y-52.084
X139.17Y-63.568
X139.17Y-75.051
X140.25Y-37.729
X140.25Y-49.213
X140.25Y-60.697
X140.25Y-72.18
X141.29Y-34.858
X141.29Y-46.342
X141.29Y-57.826
X141.29Y-69.309
X142.42Y-31.987
X142.42Y-43.471
X142.42Y-54.955
X142.42Y-66.439
X146.79Y-40.6
X146.79Y-52.084
X146.79Y-63.568
X146.79Y-75.051
X147.87Y-37.729
X147.87Y-49.213
X147.87Y-60.697
X147.87Y-72.18
X148.91Y-34.858
X148.91Y-46.342
X148.91Y-57.826
X148.91Y-69.309
X150.04Y-31.987
X150.04Y-43.471
X150.04Y-54.955
X150.04Y-66.439
T2
X92.46Y-39.0
X92.46Y-50.5
X92.46Y-62.0
X92.46Y-73.5
X95.0Y-39.0
X95.0Y-50.5
X95.0Y-62.0
X95.0Y-73.5
T3
X40.9Y-42.515
X40.9Y-45.055
X40.9Y-47.595
X40.9Y-50.135
X40.9Y-52.675
X40.9Y-55.215
X40.9Y-57.755
X40.9Y-60.295
X40.965Y-72.989
X40.965Y-75.529
X40.965Y-78.069
X40.965Y-80.609
X40.965Y-83.149
X40.965Y-85.689
X40.965Y-88.229
X40.965Y-90.769
X44.59Y-34.96
X44.59Y-37.5
X47.13Y-34.96
X47.13Y-37.5
X48.21Y-47.58
X48.21Y-50.12
X48.21Y-52.66
X48.21Y-55.2
X48.21Y-78.054
X48.21Y-80.594
X48.21Y-83.134
X48.21Y-85.674
X49.67Y-34.96
X49.67Y-37.5
X50.75Y-47.58
X50.75Y-50.12
X50.75Y-52.66
X50.75Y-55.2
X50.75Y-78.054
X50.75Y-80.594
X50.75Y-83.134
X50.75Y-85.674
X52.21Y-34.96
X52.21Y-37.5
X54.75Y-34.96
X54.75Y-37.5
X101.97Y-27.0
X101.97Y-92.1
X104.51Y-27.0
X104.51Y-92.1
X107.05Y-27.0
X107.05Y-92.1
X107.13Y-82.5
X107.13Y-85.04
X109.59Y-27.0
X109.59Y-92.1
X109.67Y-82.5
X109.67Y-85.04
X112.13Y-27.0
X112.13Y-92.1
X112.21Y-82.5
X112.21Y-85.04
X114.67Y-27.0
X114.67Y-92.1
X114.75Y-82.5
X114.75Y-85.04
X117.21Y-27.0
X117.21Y-92.1
X119.75Y-27.0
X119.75Y-92.1
X129.36Y-27.0
X129.375Y-92.1
X131.9Y-27.0
X131.915Y-92.1
X134.44Y-27.0
X134.455Y-92.1
X134.63Y-82.25
X134.63Y-84.79
X136.98Y-27.0
X136.995Y-92.1
X137.17Y-82.25
X137.17Y-84.79
X139.52Y-27.0
X139.535Y-92.1
X139.71Y-82.25
X139.71Y-84.79
X142.06Y-27.0
X142.075Y-92.1
X142.25Y-82.25
X142.25Y-84.79
X144.6Y-27.0
X144.615Y-92.1
X147.14Y-27.0
X147.155Y-92.1
X155.5Y-42.5
X155.5Y-45.04
X155.5Y-47.58
X155.5Y-50.12
X155.5Y-52.66
X155.5Y-55.2
X155.5Y-57.74
X155.5Y-60.28
X155.5Y-72.974
X155.5Y-75.514
X155.5Y-78.054
X155.5Y-80.594
X155.5Y-83.134
X155.5Y-85.674
X155.5Y-88.214
X155.5Y-90.754
T4
X63.32Y-60.0
X63.32Y-97.5
X73.48Y-60.0
X73.48Y-97.5
T5
X61.8Y-33.25
X61.8Y-37.35
X61.8Y-43.7
X61.8Y-50.05
X61.8Y-70.7
X61.8Y-74.8
X61.8Y-81.15
X61.8Y-87.5
X66.2Y-33.25
X66.2Y-37.35
X66.2Y-43.7
X66.2Y-70.7
X66.2Y-74.8
X66.2Y-81.15
X70.6Y-33.25
X70.6Y-37.35
X70.6Y-43.7
X70.6Y-70.7
X70.6Y-74.8
X70.6Y-81.15
X75.0Y-33.25
X75.0Y-37.35
X75.0Y-43.7
X75.0Y-50.05
X75.0Y-70.7
X75.0Y-74.8
X75.0Y-81.15
X75.0Y-87.5
M30
