M48
; DRILL file {KiCad 9.0.9-9.0.9~ubuntu24.04.1} date 2026-09-22T11:37:50+0300
; FORMAT={-:-/ absolute / metric / decimal}
; #@! TF.CreationDate,2026-09-22T11:37:50+03:00
; #@! TF.GenerationSoftware,Kicad,Pcbnew,9.0.9-9.0.9~ubuntu24.04.1
; #@! TF.FileFunction,Plated,1,2,PTH
FMAT,2
METRIC
; #@! TA.AperFunction,Plated,PTH,ComponentDrill
T1C0.800
; #@! TA.AperFunction,Plated,PTH,ComponentDrill
T2C0.900
; #@! TA.AperFunction,Plated,PTH,ComponentDrill
T3C1.000
; #@! TA.AperFunction,Plated,PTH,ComponentDrill
T4C1.100
; #@! TA.AperFunction,Plated,PTH,ComponentDrill
T5C1.400
%
G90
G05
T1
X126.95Y-61.811
X126.95Y-73.061
X126.95Y-84.811
X126.95Y-96.061
X139.65Y-61.811
X139.65Y-73.061
X139.65Y-84.811
X139.65Y-96.061
X144.53Y-60.311
X144.53Y-67.931
X144.53Y-71.829
X144.53Y-79.449
X144.53Y-83.346
X144.53Y-90.966
X144.53Y-94.863
X144.53Y-102.483
X147.07Y-60.311
X147.07Y-67.931
X147.07Y-71.829
X147.07Y-79.449
X147.07Y-83.346
X147.07Y-90.966
X147.07Y-94.863
X147.07Y-102.483
X149.61Y-60.311
X149.61Y-67.931
X149.61Y-71.829
X149.61Y-79.449
X149.61Y-83.346
X149.61Y-90.966
X149.61Y-94.863
X149.61Y-102.483
X152.15Y-60.311
X152.15Y-67.931
X152.15Y-71.829
X152.15Y-79.449
X152.15Y-83.346
X152.15Y-90.966
X152.15Y-94.863
X152.15Y-102.483
X156.4Y-68.294
X156.4Y-79.778
X156.4Y-91.262
X156.4Y-102.746
X157.53Y-65.467
X157.53Y-76.907
X157.53Y-88.391
X157.53Y-99.875
X158.59Y-62.639
X158.59Y-74.036
X158.59Y-85.52
X158.59Y-97.004
X159.78Y-59.811
X159.78Y-71.165
X159.78Y-82.649
X159.78Y-94.133
X164.02Y-68.294
X164.02Y-79.778
X164.02Y-91.262
X164.02Y-102.746
X165.15Y-65.467
X165.15Y-76.907
X165.15Y-88.391
X165.15Y-99.875
X166.21Y-62.639
X166.21Y-74.036
X166.21Y-85.52
X166.21Y-97.004
X167.4Y-59.811
X167.4Y-71.165
X167.4Y-82.649
X167.4Y-94.133
X171.9Y-60.311
X171.9Y-67.931
X171.9Y-71.829
X171.9Y-79.449
X171.9Y-83.346
X171.9Y-90.966
X171.9Y-94.863
X171.9Y-102.483
X174.44Y-60.311
X174.44Y-67.931
X174.44Y-71.829
X174.44Y-79.449
X174.44Y-83.346
X174.44Y-90.966
X174.44Y-94.863
X174.44Y-102.483
X176.98Y-60.311
X176.98Y-67.931
X176.98Y-71.829
X176.98Y-79.449
X176.98Y-83.346
X176.98Y-90.966
X176.98Y-94.863
X176.98Y-102.483
X179.52Y-60.311
X179.52Y-67.931
X179.52Y-71.829
X179.52Y-79.449
X179.52Y-83.346
X179.52Y-90.966
X179.52Y-94.863
X179.52Y-102.483
X183.82Y-68.411
X183.82Y-79.895
X183.82Y-91.379
X183.82Y-102.863
X184.9Y-65.54
X184.9Y-77.024
X184.9Y-88.508
X184.9Y-99.992
X185.94Y-62.669
X185.94Y-74.153
X185.94Y-85.637
X185.94Y-97.121
X187.07Y-59.798
X187.07Y-71.282
X187.07Y-82.766
X187.07Y-94.25
X191.44Y-68.411
X191.44Y-79.895
X191.44Y-91.379
X191.44Y-102.863
X192.52Y-65.54
X192.52Y-77.024
X192.52Y-88.508
X192.52Y-99.992
X193.56Y-62.669
X193.56Y-74.153
X193.56Y-85.637
X193.56Y-97.121
X194.69Y-59.798
X194.69Y-71.282
X194.69Y-82.766
X194.69Y-94.25
T2
X137.11Y-66.811
X137.11Y-78.311
X137.11Y-89.811
X137.11Y-101.311
X139.65Y-66.811
X139.65Y-78.311
X139.65Y-89.811
X139.65Y-101.311
T3
X85.55Y-70.326
X85.55Y-72.866
X85.55Y-75.406
X85.55Y-77.946
X85.55Y-80.486
X85.55Y-83.026
X85.55Y-85.566
X85.55Y-88.106
X85.615Y-100.801
X85.615Y-103.341
X85.615Y-105.881
X85.615Y-108.421
X85.615Y-110.961
X85.615Y-113.501
X85.615Y-116.041
X85.615Y-118.581
X89.24Y-62.771
X89.24Y-65.311
X91.78Y-62.771
X91.78Y-65.311
X92.86Y-75.391
X92.86Y-77.931
X92.86Y-80.471
X92.86Y-83.011
X92.86Y-105.866
X92.86Y-108.406
X92.86Y-110.946
X92.86Y-113.486
X94.32Y-62.771
X94.32Y-65.311
X95.4Y-75.391
X95.4Y-77.931
X95.4Y-80.471
X95.4Y-83.011
X95.4Y-105.866
X95.4Y-108.406
X95.4Y-110.946
X95.4Y-113.486
X96.86Y-62.771
X96.86Y-65.311
X99.4Y-62.771
X99.4Y-65.311
X146.62Y-54.811
X146.62Y-119.911
X149.16Y-54.811
X149.16Y-119.911
X151.7Y-54.811
X151.7Y-119.911
X151.78Y-110.311
X151.78Y-112.851
X154.24Y-54.811
X154.24Y-119.911
X154.32Y-110.311
X154.32Y-112.851
X156.78Y-54.811
X156.78Y-119.911
X156.86Y-110.311
X156.86Y-112.851
X159.32Y-54.811
X159.32Y-119.911
X159.4Y-110.311
X159.4Y-112.851
X161.86Y-54.811
X161.86Y-119.911
X164.4Y-54.811
X164.4Y-119.911
X174.01Y-54.811
X174.025Y-119.911
X176.55Y-54.811
X176.565Y-119.911
X179.09Y-54.811
X179.105Y-119.911
X179.28Y-110.061
X179.28Y-112.601
X181.63Y-54.811
X181.645Y-119.911
X181.82Y-110.061
X181.82Y-112.601
X184.17Y-54.811
X184.185Y-119.911
X184.36Y-110.061
X184.36Y-112.601
X186.71Y-54.811
X186.725Y-119.911
X186.9Y-110.061
X186.9Y-112.601
X189.25Y-54.811
X189.265Y-119.911
X191.79Y-54.811
X191.805Y-119.911
X200.15Y-70.311
X200.15Y-72.851
X200.15Y-75.391
X200.15Y-77.931
X200.15Y-80.471
X200.15Y-83.011
X200.15Y-85.551
X200.15Y-88.091
X200.15Y-100.786
X200.15Y-103.326
X200.15Y-105.866
X200.15Y-108.406
X200.15Y-110.946
X200.15Y-113.486
X200.15Y-116.026
X200.15Y-118.566
T4
X107.97Y-87.811
X107.97Y-125.311
X118.13Y-87.811
X118.13Y-125.311
T5
X106.45Y-61.061
X106.45Y-65.161
X106.45Y-71.511
X106.45Y-77.861
X106.45Y-98.511
X106.45Y-102.611
X106.45Y-108.961
X106.45Y-115.311
X110.85Y-61.061
X110.85Y-65.161
X110.85Y-71.511
X110.85Y-98.511
X110.85Y-102.611
X110.85Y-108.961
X115.25Y-61.061
X115.25Y-65.161
X115.25Y-71.511
X115.25Y-98.511
X115.25Y-102.611
X115.25Y-108.961
X119.65Y-61.061
X119.65Y-65.161
X119.65Y-71.511
X119.65Y-77.861
X119.65Y-98.511
X119.65Y-102.611
X119.65Y-108.961
X119.65Y-115.311
M30
