%TF.GenerationSoftware,KiCad,Pcbnew,9.0.9-9.0.9~ubuntu24.04.1*%
%TF.CreationDate,2026-07-10T12:51:24+03:00*%
%TF.ProjectId,rom,726f6d2e-6b69-4636-9164-5f7063625858,rev?*%
%TF.SameCoordinates,Original*%
%TF.FileFunction,Legend,Bot*%
%TF.FilePolarity,Positive*%
%FSLAX46Y46*%
G04 Gerber Fmt 4.6, Leading zero omitted, Abs format (unit mm)*
G04 Created by KiCad (PCBNEW 9.0.9-9.0.9~ubuntu24.04.1) date 2026-07-10 12:51:24*
%MOMM*%
%LPD*%
G01*
G04 APERTURE LIST*
%ADD10C,0.100000*%
G04 APERTURE END LIST*
D10*
X155315163Y-96530150D02*
X155981830Y-95577769D01*
X156458020Y-96530150D02*
X156458020Y-94530150D01*
X156458020Y-94530150D02*
X155696115Y-94530150D01*
X155696115Y-94530150D02*
X155505639Y-94625388D01*
X155505639Y-94625388D02*
X155410401Y-94720626D01*
X155410401Y-94720626D02*
X155315163Y-94911102D01*
X155315163Y-94911102D02*
X155315163Y-95196816D01*
X155315163Y-95196816D02*
X155410401Y-95387292D01*
X155410401Y-95387292D02*
X155505639Y-95482531D01*
X155505639Y-95482531D02*
X155696115Y-95577769D01*
X155696115Y-95577769D02*
X156458020Y-95577769D01*
X154077068Y-94530150D02*
X153696115Y-94530150D01*
X153696115Y-94530150D02*
X153505639Y-94625388D01*
X153505639Y-94625388D02*
X153315163Y-94815864D01*
X153315163Y-94815864D02*
X153219925Y-95196816D01*
X153219925Y-95196816D02*
X153219925Y-95863483D01*
X153219925Y-95863483D02*
X153315163Y-96244435D01*
X153315163Y-96244435D02*
X153505639Y-96434912D01*
X153505639Y-96434912D02*
X153696115Y-96530150D01*
X153696115Y-96530150D02*
X154077068Y-96530150D01*
X154077068Y-96530150D02*
X154267544Y-96434912D01*
X154267544Y-96434912D02*
X154458020Y-96244435D01*
X154458020Y-96244435D02*
X154553258Y-95863483D01*
X154553258Y-95863483D02*
X154553258Y-95196816D01*
X154553258Y-95196816D02*
X154458020Y-94815864D01*
X154458020Y-94815864D02*
X154267544Y-94625388D01*
X154267544Y-94625388D02*
X154077068Y-94530150D01*
X152362782Y-96530150D02*
X152362782Y-94530150D01*
X152362782Y-94530150D02*
X151696115Y-95958721D01*
X151696115Y-95958721D02*
X151029449Y-94530150D01*
X151029449Y-94530150D02*
X151029449Y-96530150D01*
X148553258Y-96530150D02*
X148553258Y-94530150D01*
X148553258Y-95292054D02*
X148362782Y-95196816D01*
X148362782Y-95196816D02*
X147981829Y-95196816D01*
X147981829Y-95196816D02*
X147791353Y-95292054D01*
X147791353Y-95292054D02*
X147696115Y-95387292D01*
X147696115Y-95387292D02*
X147600877Y-95577769D01*
X147600877Y-95577769D02*
X147600877Y-96149197D01*
X147600877Y-96149197D02*
X147696115Y-96339673D01*
X147696115Y-96339673D02*
X147791353Y-96434912D01*
X147791353Y-96434912D02*
X147981829Y-96530150D01*
X147981829Y-96530150D02*
X148362782Y-96530150D01*
X148362782Y-96530150D02*
X148553258Y-96434912D01*
X146458020Y-96530150D02*
X146648496Y-96434912D01*
X146648496Y-96434912D02*
X146743734Y-96339673D01*
X146743734Y-96339673D02*
X146838972Y-96149197D01*
X146838972Y-96149197D02*
X146838972Y-95577769D01*
X146838972Y-95577769D02*
X146743734Y-95387292D01*
X146743734Y-95387292D02*
X146648496Y-95292054D01*
X146648496Y-95292054D02*
X146458020Y-95196816D01*
X146458020Y-95196816D02*
X146172305Y-95196816D01*
X146172305Y-95196816D02*
X145981829Y-95292054D01*
X145981829Y-95292054D02*
X145886591Y-95387292D01*
X145886591Y-95387292D02*
X145791353Y-95577769D01*
X145791353Y-95577769D02*
X145791353Y-96149197D01*
X145791353Y-96149197D02*
X145886591Y-96339673D01*
X145886591Y-96339673D02*
X145981829Y-96434912D01*
X145981829Y-96434912D02*
X146172305Y-96530150D01*
X146172305Y-96530150D02*
X146458020Y-96530150D01*
X144077067Y-96530150D02*
X144077067Y-95482531D01*
X144077067Y-95482531D02*
X144172305Y-95292054D01*
X144172305Y-95292054D02*
X144362781Y-95196816D01*
X144362781Y-95196816D02*
X144743734Y-95196816D01*
X144743734Y-95196816D02*
X144934210Y-95292054D01*
X144077067Y-96434912D02*
X144267543Y-96530150D01*
X144267543Y-96530150D02*
X144743734Y-96530150D01*
X144743734Y-96530150D02*
X144934210Y-96434912D01*
X144934210Y-96434912D02*
X145029448Y-96244435D01*
X145029448Y-96244435D02*
X145029448Y-96053959D01*
X145029448Y-96053959D02*
X144934210Y-95863483D01*
X144934210Y-95863483D02*
X144743734Y-95768245D01*
X144743734Y-95768245D02*
X144267543Y-95768245D01*
X144267543Y-95768245D02*
X144077067Y-95673007D01*
X143124686Y-96530150D02*
X143124686Y-95196816D01*
X143124686Y-95577769D02*
X143029448Y-95387292D01*
X143029448Y-95387292D02*
X142934210Y-95292054D01*
X142934210Y-95292054D02*
X142743734Y-95196816D01*
X142743734Y-95196816D02*
X142553257Y-95196816D01*
X141029448Y-96530150D02*
X141029448Y-94530150D01*
X141029448Y-96434912D02*
X141219924Y-96530150D01*
X141219924Y-96530150D02*
X141600877Y-96530150D01*
X141600877Y-96530150D02*
X141791353Y-96434912D01*
X141791353Y-96434912D02*
X141886591Y-96339673D01*
X141886591Y-96339673D02*
X141981829Y-96149197D01*
X141981829Y-96149197D02*
X141981829Y-95577769D01*
X141981829Y-95577769D02*
X141886591Y-95387292D01*
X141886591Y-95387292D02*
X141791353Y-95292054D01*
X141791353Y-95292054D02*
X141600877Y-95196816D01*
X141600877Y-95196816D02*
X141219924Y-95196816D01*
X141219924Y-95196816D02*
X141029448Y-95292054D01*
X138553257Y-96530150D02*
X138553257Y-95196816D01*
X138553257Y-95577769D02*
X138458019Y-95387292D01*
X138458019Y-95387292D02*
X138362781Y-95292054D01*
X138362781Y-95292054D02*
X138172305Y-95196816D01*
X138172305Y-95196816D02*
X137981828Y-95196816D01*
X136553257Y-96434912D02*
X136743733Y-96530150D01*
X136743733Y-96530150D02*
X137124686Y-96530150D01*
X137124686Y-96530150D02*
X137315162Y-96434912D01*
X137315162Y-96434912D02*
X137410400Y-96244435D01*
X137410400Y-96244435D02*
X137410400Y-95482531D01*
X137410400Y-95482531D02*
X137315162Y-95292054D01*
X137315162Y-95292054D02*
X137124686Y-95196816D01*
X137124686Y-95196816D02*
X136743733Y-95196816D01*
X136743733Y-95196816D02*
X136553257Y-95292054D01*
X136553257Y-95292054D02*
X136458019Y-95482531D01*
X136458019Y-95482531D02*
X136458019Y-95673007D01*
X136458019Y-95673007D02*
X137410400Y-95863483D01*
X135791352Y-95196816D02*
X135315162Y-96530150D01*
X135315162Y-96530150D02*
X134838971Y-95196816D01*
X134267542Y-94530150D02*
X132934209Y-94530150D01*
X132934209Y-94530150D02*
X133791352Y-96530150D01*
X156458020Y-99750038D02*
X156458020Y-97750038D01*
X156458020Y-97750038D02*
X155696115Y-97750038D01*
X155696115Y-97750038D02*
X155505639Y-97845276D01*
X155505639Y-97845276D02*
X155410401Y-97940514D01*
X155410401Y-97940514D02*
X155315163Y-98130990D01*
X155315163Y-98130990D02*
X155315163Y-98416704D01*
X155315163Y-98416704D02*
X155410401Y-98607180D01*
X155410401Y-98607180D02*
X155505639Y-98702419D01*
X155505639Y-98702419D02*
X155696115Y-98797657D01*
X155696115Y-98797657D02*
X156458020Y-98797657D01*
X154458020Y-99559561D02*
X154362782Y-99654800D01*
X154362782Y-99654800D02*
X154458020Y-99750038D01*
X154458020Y-99750038D02*
X154553258Y-99654800D01*
X154553258Y-99654800D02*
X154458020Y-99559561D01*
X154458020Y-99559561D02*
X154458020Y-99750038D01*
X151981829Y-99750038D02*
X151981829Y-97750038D01*
X151981829Y-97750038D02*
X151505639Y-97750038D01*
X151505639Y-97750038D02*
X151219924Y-97845276D01*
X151219924Y-97845276D02*
X151029448Y-98035752D01*
X151029448Y-98035752D02*
X150934210Y-98226228D01*
X150934210Y-98226228D02*
X150838972Y-98607180D01*
X150838972Y-98607180D02*
X150838972Y-98892895D01*
X150838972Y-98892895D02*
X150934210Y-99273847D01*
X150934210Y-99273847D02*
X151029448Y-99464323D01*
X151029448Y-99464323D02*
X151219924Y-99654800D01*
X151219924Y-99654800D02*
X151505639Y-99750038D01*
X151505639Y-99750038D02*
X151981829Y-99750038D01*
X149696115Y-99750038D02*
X149886591Y-99654800D01*
X149886591Y-99654800D02*
X149981829Y-99559561D01*
X149981829Y-99559561D02*
X150077067Y-99369085D01*
X150077067Y-99369085D02*
X150077067Y-98797657D01*
X150077067Y-98797657D02*
X149981829Y-98607180D01*
X149981829Y-98607180D02*
X149886591Y-98511942D01*
X149886591Y-98511942D02*
X149696115Y-98416704D01*
X149696115Y-98416704D02*
X149410400Y-98416704D01*
X149410400Y-98416704D02*
X149219924Y-98511942D01*
X149219924Y-98511942D02*
X149124686Y-98607180D01*
X149124686Y-98607180D02*
X149029448Y-98797657D01*
X149029448Y-98797657D02*
X149029448Y-99369085D01*
X149029448Y-99369085D02*
X149124686Y-99559561D01*
X149124686Y-99559561D02*
X149219924Y-99654800D01*
X149219924Y-99654800D02*
X149410400Y-99750038D01*
X149410400Y-99750038D02*
X149696115Y-99750038D01*
X148362781Y-98416704D02*
X147886591Y-99750038D01*
X147886591Y-99750038D02*
X147410400Y-98416704D01*
X145791352Y-98416704D02*
X145791352Y-100035752D01*
X145791352Y-100035752D02*
X145886590Y-100226228D01*
X145886590Y-100226228D02*
X145981828Y-100321466D01*
X145981828Y-100321466D02*
X146172305Y-100416704D01*
X146172305Y-100416704D02*
X146458019Y-100416704D01*
X146458019Y-100416704D02*
X146648495Y-100321466D01*
X145791352Y-99654800D02*
X145981828Y-99750038D01*
X145981828Y-99750038D02*
X146362781Y-99750038D01*
X146362781Y-99750038D02*
X146553257Y-99654800D01*
X146553257Y-99654800D02*
X146648495Y-99559561D01*
X146648495Y-99559561D02*
X146743733Y-99369085D01*
X146743733Y-99369085D02*
X146743733Y-98797657D01*
X146743733Y-98797657D02*
X146648495Y-98607180D01*
X146648495Y-98607180D02*
X146553257Y-98511942D01*
X146553257Y-98511942D02*
X146362781Y-98416704D01*
X146362781Y-98416704D02*
X145981828Y-98416704D01*
X145981828Y-98416704D02*
X145791352Y-98511942D01*
X143981828Y-99750038D02*
X143981828Y-98702419D01*
X143981828Y-98702419D02*
X144077066Y-98511942D01*
X144077066Y-98511942D02*
X144267542Y-98416704D01*
X144267542Y-98416704D02*
X144648495Y-98416704D01*
X144648495Y-98416704D02*
X144838971Y-98511942D01*
X143981828Y-99654800D02*
X144172304Y-99750038D01*
X144172304Y-99750038D02*
X144648495Y-99750038D01*
X144648495Y-99750038D02*
X144838971Y-99654800D01*
X144838971Y-99654800D02*
X144934209Y-99464323D01*
X144934209Y-99464323D02*
X144934209Y-99273847D01*
X144934209Y-99273847D02*
X144838971Y-99083371D01*
X144838971Y-99083371D02*
X144648495Y-98988133D01*
X144648495Y-98988133D02*
X144172304Y-98988133D01*
X144172304Y-98988133D02*
X143981828Y-98892895D01*
X142743733Y-99750038D02*
X142934209Y-99654800D01*
X142934209Y-99654800D02*
X143029447Y-99464323D01*
X143029447Y-99464323D02*
X143029447Y-97750038D01*
X142172304Y-98416704D02*
X141696114Y-99750038D01*
X141219923Y-98416704D02*
X141696114Y-99750038D01*
X141696114Y-99750038D02*
X141886590Y-100226228D01*
X141886590Y-100226228D02*
X141981828Y-100321466D01*
X141981828Y-100321466D02*
X142172304Y-100416704D01*
X139600875Y-98416704D02*
X139600875Y-99750038D01*
X140458018Y-98416704D02*
X140458018Y-99464323D01*
X140458018Y-99464323D02*
X140362780Y-99654800D01*
X140362780Y-99654800D02*
X140172304Y-99750038D01*
X140172304Y-99750038D02*
X139886589Y-99750038D01*
X139886589Y-99750038D02*
X139696113Y-99654800D01*
X139696113Y-99654800D02*
X139600875Y-99559561D01*
X138648494Y-99750038D02*
X138648494Y-97750038D01*
X138458018Y-98988133D02*
X137886589Y-99750038D01*
X137886589Y-98416704D02*
X138648494Y-99178609D01*
X136934208Y-99654800D02*
X136934208Y-99750038D01*
X136934208Y-99750038D02*
X137029446Y-99940514D01*
X137029446Y-99940514D02*
X137124684Y-100035752D01*
X134648493Y-97940514D02*
X134553255Y-97845276D01*
X134553255Y-97845276D02*
X134362779Y-97750038D01*
X134362779Y-97750038D02*
X133886588Y-97750038D01*
X133886588Y-97750038D02*
X133696112Y-97845276D01*
X133696112Y-97845276D02*
X133600874Y-97940514D01*
X133600874Y-97940514D02*
X133505636Y-98130990D01*
X133505636Y-98130990D02*
X133505636Y-98321466D01*
X133505636Y-98321466D02*
X133600874Y-98607180D01*
X133600874Y-98607180D02*
X134743731Y-99750038D01*
X134743731Y-99750038D02*
X133505636Y-99750038D01*
X132267541Y-97750038D02*
X132077064Y-97750038D01*
X132077064Y-97750038D02*
X131886588Y-97845276D01*
X131886588Y-97845276D02*
X131791350Y-97940514D01*
X131791350Y-97940514D02*
X131696112Y-98130990D01*
X131696112Y-98130990D02*
X131600874Y-98511942D01*
X131600874Y-98511942D02*
X131600874Y-98988133D01*
X131600874Y-98988133D02*
X131696112Y-99369085D01*
X131696112Y-99369085D02*
X131791350Y-99559561D01*
X131791350Y-99559561D02*
X131886588Y-99654800D01*
X131886588Y-99654800D02*
X132077064Y-99750038D01*
X132077064Y-99750038D02*
X132267541Y-99750038D01*
X132267541Y-99750038D02*
X132458017Y-99654800D01*
X132458017Y-99654800D02*
X132553255Y-99559561D01*
X132553255Y-99559561D02*
X132648493Y-99369085D01*
X132648493Y-99369085D02*
X132743731Y-98988133D01*
X132743731Y-98988133D02*
X132743731Y-98511942D01*
X132743731Y-98511942D02*
X132648493Y-98130990D01*
X132648493Y-98130990D02*
X132553255Y-97940514D01*
X132553255Y-97940514D02*
X132458017Y-97845276D01*
X132458017Y-97845276D02*
X132267541Y-97750038D01*
X130838969Y-97940514D02*
X130743731Y-97845276D01*
X130743731Y-97845276D02*
X130553255Y-97750038D01*
X130553255Y-97750038D02*
X130077064Y-97750038D01*
X130077064Y-97750038D02*
X129886588Y-97845276D01*
X129886588Y-97845276D02*
X129791350Y-97940514D01*
X129791350Y-97940514D02*
X129696112Y-98130990D01*
X129696112Y-98130990D02*
X129696112Y-98321466D01*
X129696112Y-98321466D02*
X129791350Y-98607180D01*
X129791350Y-98607180D02*
X130934207Y-99750038D01*
X130934207Y-99750038D02*
X129696112Y-99750038D01*
X127981826Y-97750038D02*
X128362779Y-97750038D01*
X128362779Y-97750038D02*
X128553255Y-97845276D01*
X128553255Y-97845276D02*
X128648493Y-97940514D01*
X128648493Y-97940514D02*
X128838969Y-98226228D01*
X128838969Y-98226228D02*
X128934207Y-98607180D01*
X128934207Y-98607180D02*
X128934207Y-99369085D01*
X128934207Y-99369085D02*
X128838969Y-99559561D01*
X128838969Y-99559561D02*
X128743731Y-99654800D01*
X128743731Y-99654800D02*
X128553255Y-99750038D01*
X128553255Y-99750038D02*
X128172302Y-99750038D01*
X128172302Y-99750038D02*
X127981826Y-99654800D01*
X127981826Y-99654800D02*
X127886588Y-99559561D01*
X127886588Y-99559561D02*
X127791350Y-99369085D01*
X127791350Y-99369085D02*
X127791350Y-98892895D01*
X127791350Y-98892895D02*
X127886588Y-98702419D01*
X127886588Y-98702419D02*
X127981826Y-98607180D01*
X127981826Y-98607180D02*
X128172302Y-98511942D01*
X128172302Y-98511942D02*
X128553255Y-98511942D01*
X128553255Y-98511942D02*
X128743731Y-98607180D01*
X128743731Y-98607180D02*
X128838969Y-98702419D01*
X128838969Y-98702419D02*
X128934207Y-98892895D01*
M02*
