%TF.GenerationSoftware,KiCad,Pcbnew,9.0.9-9.0.9~ubuntu24.04.1*%
%TF.CreationDate,2026-09-22T11:37:50+03:00*%
%TF.ProjectId,rom,726f6d2e-6b69-4636-9164-5f7063625858,rev?*%
%TF.SameCoordinates,Original*%
%TF.FileFunction,Soldermask,Bot*%
%TF.FilePolarity,Negative*%
%FSLAX46Y46*%
G04 Gerber Fmt 4.6, Leading zero omitted, Abs format (unit mm)*
G04 Created by KiCad (PCBNEW 9.0.9-9.0.9~ubuntu24.04.1) date 2026-09-22 11:37:50*
%MOMM*%
%LPD*%
G01*
G04 APERTURE LIST*
G04 Aperture macros list*
%AMRoundRect*
0 Rectangle with rounded corners*
0 $1 Rounding radius*
0 $2 $3 $4 $5 $6 $7 $8 $9 X,Y pos of 4 corners*
0 Add a 4 corners polygon primitive as box body*
4,1,4,$2,$3,$4,$5,$6,$7,$8,$9,$2,$3,0*
0 Add four circle primitives for the rounded corners*
1,1,$1+$1,$2,$3*
1,1,$1+$1,$4,$5*
1,1,$1+$1,$6,$7*
1,1,$1+$1,$8,$9*
0 Add four rect primitives between the rounded corners*
20,1,$1+$1,$2,$3,$4,$5,0*
20,1,$1+$1,$4,$5,$6,$7,0*
20,1,$1+$1,$6,$7,$8,$9,0*
20,1,$1+$1,$8,$9,$2,$3,0*%
G04 Aperture macros list end*
%ADD10R,1.600000X1.600000*%
%ADD11O,1.600000X1.600000*%
%ADD12C,2.100000*%
%ADD13RoundRect,0.249999X-0.850001X-0.850001X0.850001X-0.850001X0.850001X0.850001X-0.850001X0.850001X0*%
%ADD14C,2.200000*%
%ADD15RoundRect,0.250000X0.600000X-0.600000X0.600000X0.600000X-0.600000X0.600000X-0.600000X-0.600000X0*%
%ADD16C,1.700000*%
%ADD17C,1.600000*%
%ADD18RoundRect,0.250000X-0.600000X-0.600000X0.600000X-0.600000X0.600000X0.600000X-0.600000X0.600000X0*%
%ADD19R,1.800000X1.800000*%
%ADD20C,1.800000*%
%ADD21R,1.700000X1.700000*%
%ADD22O,1.700000X1.700000*%
G04 APERTURE END LIST*
D10*
%TO.C,D15*%
X165150000Y-76907294D03*
D11*
X157530000Y-76907294D03*
%TD*%
D10*
%TO.C,D10*%
X166210000Y-62639126D03*
D11*
X158590000Y-62639126D03*
%TD*%
D10*
%TO.C,SW5*%
X171900000Y-67931492D03*
D11*
X174440000Y-67931492D03*
X176980000Y-67931492D03*
X179520000Y-67931492D03*
X179520000Y-60311492D03*
X176980000Y-60311492D03*
X174440000Y-60311492D03*
X171900000Y-60311492D03*
%TD*%
D12*
%TO.C,K1*%
X119650000Y-98511492D03*
X115250000Y-98511492D03*
X110850000Y-98511492D03*
X106450000Y-98511492D03*
X119650000Y-102611492D03*
X115250000Y-102611492D03*
X110850000Y-102611492D03*
X106450000Y-102611492D03*
X119650000Y-108961492D03*
X115250000Y-108961492D03*
X110850000Y-108961492D03*
X106450000Y-108961492D03*
X119650000Y-115311492D03*
X106450000Y-115311492D03*
%TD*%
D13*
%TO.C,D41*%
X107970000Y-125311492D03*
D14*
X118130000Y-125311492D03*
%TD*%
D10*
%TO.C,D28*%
X191440000Y-68411297D03*
D11*
X183820000Y-68411297D03*
%TD*%
D10*
%TO.C,D22*%
X166210000Y-97004063D03*
D11*
X158590000Y-97004063D03*
%TD*%
D10*
%TO.C,D9*%
X167400000Y-59811492D03*
D11*
X159780000Y-59811492D03*
%TD*%
D15*
%TO.C,J9*%
X179280000Y-112601492D03*
D16*
X179280000Y-110061492D03*
X181820000Y-112601492D03*
X181820000Y-110061492D03*
X184360000Y-112601492D03*
X184360000Y-110061492D03*
X186900000Y-112601492D03*
X186900000Y-110061492D03*
%TD*%
D10*
%TO.C,D40*%
X191440000Y-102862924D03*
D11*
X183820000Y-102862924D03*
%TD*%
D15*
%TO.C,J8*%
X151780000Y-112851492D03*
D16*
X151780000Y-110311492D03*
X154320000Y-112851492D03*
X154320000Y-110311492D03*
X156860000Y-112851492D03*
X156860000Y-110311492D03*
X159400000Y-112851492D03*
X159400000Y-110311492D03*
%TD*%
D10*
%TO.C,SW4*%
X144530000Y-102482924D03*
D11*
X147070000Y-102482924D03*
X149610000Y-102482924D03*
X152150000Y-102482924D03*
X152150000Y-94862924D03*
X149610000Y-94862924D03*
X147070000Y-94862924D03*
X144530000Y-94862924D03*
%TD*%
D10*
%TO.C,D12*%
X164020000Y-68294393D03*
D11*
X156400000Y-68294393D03*
%TD*%
D10*
%TO.C,D23*%
X165150000Y-99875030D03*
D11*
X157530000Y-99875030D03*
%TD*%
D17*
%TO.C,R1*%
X139650000Y-61811492D03*
X126950000Y-61811492D03*
%TD*%
D10*
%TO.C,D29*%
X194690000Y-71282264D03*
D11*
X187070000Y-71282264D03*
%TD*%
D10*
%TO.C,D32*%
X191440000Y-79895165D03*
D11*
X183820000Y-79895165D03*
%TD*%
D10*
%TO.C,D30*%
X193560000Y-74153231D03*
D11*
X185940000Y-74153231D03*
%TD*%
D18*
%TO.C,J10*%
X92860000Y-75391492D03*
D16*
X95400000Y-75391492D03*
X92860000Y-77931492D03*
X95400000Y-77931492D03*
X92860000Y-80471492D03*
X95400000Y-80471492D03*
X92860000Y-83011492D03*
X95400000Y-83011492D03*
%TD*%
D10*
%TO.C,SW1*%
X144530000Y-67931492D03*
D11*
X147070000Y-67931492D03*
X149610000Y-67931492D03*
X152150000Y-67931492D03*
X152150000Y-60311492D03*
X149610000Y-60311492D03*
X147070000Y-60311492D03*
X144530000Y-60311492D03*
%TD*%
D19*
%TO.C,D3*%
X137110000Y-89811492D03*
D20*
X139650000Y-89811492D03*
%TD*%
D21*
%TO.C,J3*%
X146620000Y-54811492D03*
D22*
X149160000Y-54811492D03*
X151700000Y-54811492D03*
X154240000Y-54811492D03*
X156780000Y-54811492D03*
X159320000Y-54811492D03*
X161860000Y-54811492D03*
X164400000Y-54811492D03*
%TD*%
D10*
%TO.C,D38*%
X193560000Y-97120967D03*
D11*
X185940000Y-97120967D03*
%TD*%
D21*
%TO.C,J4*%
X146620000Y-119911492D03*
D22*
X149160000Y-119911492D03*
X151700000Y-119911492D03*
X154240000Y-119911492D03*
X156780000Y-119911492D03*
X159320000Y-119911492D03*
X161860000Y-119911492D03*
X164400000Y-119911492D03*
%TD*%
D10*
%TO.C,D39*%
X192520000Y-99991934D03*
D11*
X184900000Y-99991934D03*
%TD*%
D10*
%TO.C,SW8*%
X171900000Y-102482924D03*
D11*
X174440000Y-102482924D03*
X176980000Y-102482924D03*
X179520000Y-102482924D03*
X179520000Y-94862924D03*
X176980000Y-94862924D03*
X174440000Y-94862924D03*
X171900000Y-94862924D03*
%TD*%
D10*
%TO.C,D11*%
X165150000Y-65466759D03*
D11*
X157530000Y-65466759D03*
%TD*%
D10*
%TO.C,D18*%
X166210000Y-85520195D03*
D11*
X158590000Y-85520195D03*
%TD*%
D21*
%TO.C,J11*%
X85550000Y-70326492D03*
D16*
X85550000Y-72866492D03*
X85550000Y-75406492D03*
X85550000Y-77946492D03*
X85550000Y-80486492D03*
X85550000Y-83026492D03*
X85550000Y-85566492D03*
X85550000Y-88106492D03*
%TD*%
D21*
%TO.C,J7*%
X174025000Y-119911492D03*
D16*
X176565000Y-119911492D03*
X179105000Y-119911492D03*
X181645000Y-119911492D03*
X184185000Y-119911492D03*
X186725000Y-119911492D03*
X189265000Y-119911492D03*
X191805000Y-119911492D03*
%TD*%
D19*
%TO.C,D4*%
X137110000Y-101311492D03*
D20*
X139650000Y-101311492D03*
%TD*%
D10*
%TO.C,D33*%
X194690000Y-82766132D03*
D11*
X187070000Y-82766132D03*
%TD*%
D10*
%TO.C,D34*%
X193560000Y-85637099D03*
D11*
X185940000Y-85637099D03*
%TD*%
D10*
%TO.C,SW6*%
X171900000Y-79448636D03*
D11*
X174440000Y-79448636D03*
X176980000Y-79448636D03*
X179520000Y-79448636D03*
X179520000Y-71828636D03*
X176980000Y-71828636D03*
X174440000Y-71828636D03*
X171900000Y-71828636D03*
%TD*%
D21*
%TO.C,J13*%
X85615150Y-100800773D03*
D16*
X85615150Y-103340773D03*
X85615150Y-105880773D03*
X85615150Y-108420773D03*
X85615150Y-110960773D03*
X85615150Y-113500773D03*
X85615150Y-116040773D03*
X85615150Y-118580773D03*
%TD*%
D10*
%TO.C,D17*%
X167400000Y-82649228D03*
D11*
X159780000Y-82649228D03*
%TD*%
D10*
%TO.C,D13*%
X167400000Y-71165360D03*
D11*
X159780000Y-71165360D03*
%TD*%
D10*
%TO.C,D27*%
X192520000Y-65540330D03*
D11*
X184900000Y-65540330D03*
%TD*%
D17*
%TO.C,R4*%
X139650000Y-96061492D03*
X126950000Y-96061492D03*
%TD*%
D10*
%TO.C,D14*%
X166210000Y-74036327D03*
D11*
X158590000Y-74036327D03*
%TD*%
D13*
%TO.C,D42*%
X107970000Y-87811492D03*
D14*
X118130000Y-87811492D03*
%TD*%
D10*
%TO.C,D21*%
X167400000Y-94133096D03*
D11*
X159780000Y-94133096D03*
%TD*%
D10*
%TO.C,D36*%
X191440000Y-91379033D03*
D11*
X183820000Y-91379033D03*
%TD*%
D10*
%TO.C,D37*%
X194690000Y-94250000D03*
D11*
X187070000Y-94250000D03*
%TD*%
D19*
%TO.C,D2*%
X137110000Y-78311492D03*
D20*
X139650000Y-78311492D03*
%TD*%
D12*
%TO.C,K2*%
X119650000Y-61061492D03*
X115250000Y-61061492D03*
X110850000Y-61061492D03*
X106450000Y-61061492D03*
X119650000Y-65161492D03*
X115250000Y-65161492D03*
X110850000Y-65161492D03*
X106450000Y-65161492D03*
X119650000Y-71511492D03*
X115250000Y-71511492D03*
X110850000Y-71511492D03*
X106450000Y-71511492D03*
X119650000Y-77861492D03*
X106450000Y-77861492D03*
%TD*%
D10*
%TO.C,D24*%
X164020000Y-102745997D03*
D11*
X156400000Y-102745997D03*
%TD*%
D21*
%TO.C,J14*%
X89240000Y-65311492D03*
D16*
X89240000Y-62771492D03*
X91780000Y-65311492D03*
X91780000Y-62771492D03*
X94320000Y-65311492D03*
X94320000Y-62771492D03*
X96860000Y-65311492D03*
X96860000Y-62771492D03*
X99400000Y-65311492D03*
X99400000Y-62771492D03*
%TD*%
D10*
%TO.C,SW7*%
X171900000Y-90965780D03*
D11*
X174440000Y-90965780D03*
X176980000Y-90965780D03*
X179520000Y-90965780D03*
X179520000Y-83345780D03*
X176980000Y-83345780D03*
X174440000Y-83345780D03*
X171900000Y-83345780D03*
%TD*%
D10*
%TO.C,SW3*%
X144530000Y-90965780D03*
D11*
X147070000Y-90965780D03*
X149610000Y-90965780D03*
X152150000Y-90965780D03*
X152150000Y-83345780D03*
X149610000Y-83345780D03*
X147070000Y-83345780D03*
X144530000Y-83345780D03*
%TD*%
D10*
%TO.C,D35*%
X192520000Y-88508066D03*
D11*
X184900000Y-88508066D03*
%TD*%
D21*
%TO.C,J2*%
X200150000Y-70311492D03*
D16*
X200150000Y-72851492D03*
X200150000Y-75391492D03*
X200150000Y-77931492D03*
X200150000Y-80471492D03*
X200150000Y-83011492D03*
X200150000Y-85551492D03*
X200150000Y-88091492D03*
%TD*%
D17*
%TO.C,R3*%
X139650000Y-84811492D03*
X126950000Y-84811492D03*
%TD*%
D10*
%TO.C,SW2*%
X144530000Y-79448636D03*
D11*
X147070000Y-79448636D03*
X149610000Y-79448636D03*
X152150000Y-79448636D03*
X152150000Y-71828636D03*
X149610000Y-71828636D03*
X147070000Y-71828636D03*
X144530000Y-71828636D03*
%TD*%
D10*
%TO.C,D25*%
X194690000Y-59798396D03*
D11*
X187070000Y-59798396D03*
%TD*%
D10*
%TO.C,D19*%
X165150000Y-88391162D03*
D11*
X157530000Y-88391162D03*
%TD*%
D10*
%TO.C,D26*%
X193560000Y-62669363D03*
D11*
X185940000Y-62669363D03*
%TD*%
D18*
%TO.C,J12*%
X92860000Y-105865773D03*
D16*
X95400000Y-105865773D03*
X92860000Y-108405773D03*
X95400000Y-108405773D03*
X92860000Y-110945773D03*
X95400000Y-110945773D03*
X92860000Y-113485773D03*
X95400000Y-113485773D03*
%TD*%
D17*
%TO.C,R2*%
X139650000Y-73061492D03*
X126950000Y-73061492D03*
%TD*%
D19*
%TO.C,D1*%
X137110000Y-66811492D03*
D20*
X139650000Y-66811492D03*
%TD*%
D10*
%TO.C,D16*%
X164020000Y-79778261D03*
D11*
X156400000Y-79778261D03*
%TD*%
D10*
%TO.C,D20*%
X164020000Y-91262129D03*
D11*
X156400000Y-91262129D03*
%TD*%
D21*
%TO.C,J6*%
X174010000Y-54811492D03*
D16*
X176550000Y-54811492D03*
X179090000Y-54811492D03*
X181630000Y-54811492D03*
X184170000Y-54811492D03*
X186710000Y-54811492D03*
X189250000Y-54811492D03*
X191790000Y-54811492D03*
%TD*%
D10*
%TO.C,D31*%
X192520000Y-77024198D03*
D11*
X184900000Y-77024198D03*
%TD*%
D21*
%TO.C,J1*%
X200150000Y-100785773D03*
D16*
X200150000Y-103325773D03*
X200150000Y-105865773D03*
X200150000Y-108405773D03*
X200150000Y-110945773D03*
X200150000Y-113485773D03*
X200150000Y-116025773D03*
X200150000Y-118565773D03*
%TD*%
M02*
