%TF.GenerationSoftware,KiCad,Pcbnew,9.0.3-9.0.3-0~ubuntu24.04.1*%
%TF.CreationDate,2026-04-16T11:51:36+03:00*%
%TF.ProjectId,power,706f7765-722e-46b6-9963-61645f706362,rev?*%
%TF.SameCoordinates,Original*%
%TF.FileFunction,Legend,Top*%
%TF.FilePolarity,Positive*%
%FSLAX46Y46*%
G04 Gerber Fmt 4.6, Leading zero omitted, Abs format (unit mm)*
G04 Created by KiCad (PCBNEW 9.0.3-9.0.3-0~ubuntu24.04.1) date 2026-04-16 11:51:36*
%MOMM*%
%LPD*%
G01*
G04 APERTURE LIST*
%ADD10C,0.120000*%
G04 APERTURE END LIST*
D10*
%TO.C,J2*%
X127295000Y-87990000D02*
X128625000Y-87990000D01*
X127295000Y-89100000D02*
X127295000Y-87990000D01*
X127295000Y-90560000D02*
X147735000Y-90560000D01*
X127295000Y-99190000D02*
X127295000Y-90560000D01*
X127295000Y-99190000D02*
X147735000Y-99190000D01*
X127415000Y-99190000D02*
X127415000Y-90560000D01*
X127533095Y-99190000D02*
X127533095Y-90560000D01*
X127651190Y-99190000D02*
X127651190Y-90560000D01*
X127769285Y-99190000D02*
X127769285Y-90560000D01*
X127887380Y-99190000D02*
X127887380Y-90560000D01*
X128005475Y-99190000D02*
X128005475Y-90560000D01*
X128123570Y-99190000D02*
X128123570Y-90560000D01*
X128241665Y-99190000D02*
X128241665Y-90560000D01*
X128265000Y-90560000D02*
X128265000Y-90210000D01*
X128359760Y-99190000D02*
X128359760Y-90560000D01*
X128477855Y-99190000D02*
X128477855Y-90560000D01*
X128595950Y-99190000D02*
X128595950Y-90560000D01*
X128714045Y-99190000D02*
X128714045Y-90560000D01*
X128832140Y-99190000D02*
X128832140Y-90560000D01*
X128950235Y-99190000D02*
X128950235Y-90560000D01*
X128985000Y-90560000D02*
X128985000Y-90210000D01*
X129068330Y-99190000D02*
X129068330Y-90560000D01*
X129186425Y-99190000D02*
X129186425Y-90560000D01*
X129304520Y-99190000D02*
X129304520Y-90560000D01*
X129422615Y-99190000D02*
X129422615Y-90560000D01*
X129540710Y-99190000D02*
X129540710Y-90560000D01*
X129658805Y-99190000D02*
X129658805Y-90560000D01*
X129776900Y-99190000D02*
X129776900Y-90560000D01*
X129895000Y-99190000D02*
X129895000Y-90560000D01*
X130805000Y-90560000D02*
X130805000Y-90150000D01*
X131525000Y-90560000D02*
X131525000Y-90150000D01*
X132435000Y-99190000D02*
X132435000Y-90560000D01*
X133345000Y-90560000D02*
X133345000Y-90150000D01*
X134065000Y-90560000D02*
X134065000Y-90150000D01*
X134975000Y-99190000D02*
X134975000Y-90560000D01*
X135885000Y-90560000D02*
X135885000Y-90150000D01*
X136605000Y-90560000D02*
X136605000Y-90150000D01*
X137515000Y-99190000D02*
X137515000Y-90560000D01*
X138425000Y-90560000D02*
X138425000Y-90150000D01*
X139145000Y-90560000D02*
X139145000Y-90150000D01*
X140055000Y-99190000D02*
X140055000Y-90560000D01*
X140965000Y-90560000D02*
X140965000Y-90150000D01*
X141685000Y-90560000D02*
X141685000Y-90150000D01*
X142595000Y-99190000D02*
X142595000Y-90560000D01*
X143505000Y-90560000D02*
X143505000Y-90150000D01*
X144225000Y-90560000D02*
X144225000Y-90150000D01*
X145135000Y-99190000D02*
X145135000Y-90560000D01*
X146045000Y-90560000D02*
X146045000Y-90150000D01*
X146765000Y-90560000D02*
X146765000Y-90150000D01*
X147735000Y-99190000D02*
X147735000Y-90560000D01*
%TO.C,J3*%
X128210000Y-58670000D02*
X146250000Y-58670000D01*
X128210000Y-67790000D02*
X128210000Y-58670000D01*
X129510000Y-59980000D02*
X144950000Y-59980000D01*
X129510000Y-66480000D02*
X129510000Y-59980000D01*
X132920000Y-69180000D02*
X133920000Y-69180000D01*
X133420000Y-68180000D02*
X132920000Y-69180000D01*
X133920000Y-69180000D02*
X133420000Y-68180000D01*
X135180000Y-66480000D02*
X129510000Y-66480000D01*
X135180000Y-67790000D02*
X135180000Y-66480000D01*
X139280000Y-66480000D02*
X139280000Y-66480000D01*
X139280000Y-66480000D02*
X139280000Y-67790000D01*
X144950000Y-59980000D02*
X144950000Y-66480000D01*
X144950000Y-66480000D02*
X139280000Y-66480000D01*
X146250000Y-58670000D02*
X146250000Y-67790000D01*
X146250000Y-67790000D02*
X128210000Y-67790000D01*
%TO.C,J4*%
X128240000Y-73210000D02*
X146280000Y-73210000D01*
X128240000Y-82330000D02*
X128240000Y-73210000D01*
X129540000Y-74520000D02*
X144980000Y-74520000D01*
X129540000Y-81020000D02*
X129540000Y-74520000D01*
X132950000Y-83720000D02*
X133950000Y-83720000D01*
X133450000Y-82720000D02*
X132950000Y-83720000D01*
X133950000Y-83720000D02*
X133450000Y-82720000D01*
X135210000Y-81020000D02*
X129540000Y-81020000D01*
X135210000Y-82330000D02*
X135210000Y-81020000D01*
X139310000Y-81020000D02*
X139310000Y-81020000D01*
X139310000Y-81020000D02*
X139310000Y-82330000D01*
X144980000Y-74520000D02*
X144980000Y-81020000D01*
X144980000Y-81020000D02*
X139310000Y-81020000D01*
X146280000Y-73210000D02*
X146280000Y-82330000D01*
X146280000Y-82330000D02*
X128240000Y-82330000D01*
%TO.C,F1*%
X150400000Y-66200000D02*
X151400000Y-66200000D01*
X150400000Y-70200000D02*
X150400000Y-66200000D01*
X150400000Y-70200000D02*
X151400000Y-70200000D01*
X150400000Y-81500000D02*
X150400000Y-85500000D01*
X150400000Y-81500000D02*
X151800000Y-81500000D01*
X150500000Y-81500000D02*
X150500000Y-70200000D01*
X151800000Y-85500000D02*
X150400000Y-85500000D01*
X154200000Y-85500000D02*
X155600000Y-85500000D01*
X155500000Y-81500000D02*
X155500000Y-70200000D01*
X155600000Y-66200000D02*
X154600000Y-66200000D01*
X155600000Y-70200000D02*
X154600000Y-70200000D01*
X155600000Y-70200000D02*
X155600000Y-66200000D01*
X155600000Y-81500000D02*
X154200000Y-81500000D01*
X155600000Y-85500000D02*
X155600000Y-81500000D01*
%TO.C,J1*%
X158700000Y-78200000D02*
X158700000Y-79900000D01*
X158700000Y-79900000D02*
X160000000Y-79900000D01*
X159000000Y-70400000D02*
X160300000Y-70400000D01*
X159000000Y-72400000D02*
X159000000Y-70400000D01*
X159000000Y-79600000D02*
X159000000Y-77600000D01*
X164900000Y-70400000D02*
X173500000Y-70400000D01*
X173500000Y-70400000D02*
X173500000Y-79600000D01*
X173500000Y-79600000D02*
X159000000Y-79600000D01*
%TD*%
M02*
