%TF.GenerationSoftware,KiCad,Pcbnew,9.0.3-9.0.3-0~ubuntu24.04.1*%
%TF.CreationDate,2026-04-16T11:51:36+03:00*%
%TF.ProjectId,power,706f7765-722e-46b6-9963-61645f706362,rev?*%
%TF.SameCoordinates,Original*%
%TF.FileFunction,Copper,L2,Bot*%
%TF.FilePolarity,Positive*%
%FSLAX46Y46*%
G04 Gerber Fmt 4.6, Leading zero omitted, Abs format (unit mm)*
G04 Created by KiCad (PCBNEW 9.0.3-9.0.3-0~ubuntu24.04.1) date 2026-04-16 11:51:36*
%MOMM*%
%LPD*%
G01*
G04 APERTURE LIST*
G04 Aperture macros list*
%AMRoundRect*
0 Rectangle with rounded corners*
0 $1 Rounding radius*
0 $2 $3 $4 $5 $6 $7 $8 $9 X,Y pos of 4 corners*
0 Add a 4 corners polygon primitive as box body*
4,1,4,$2,$3,$4,$5,$6,$7,$8,$9,$2,$3,0*
0 Add four circle primitives for the rounded corners*
1,1,$1+$1,$2,$3*
1,1,$1+$1,$4,$5*
1,1,$1+$1,$6,$7*
1,1,$1+$1,$8,$9*
0 Add four rect primitives between the rounded corners*
20,1,$1+$1,$2,$3,$4,$5,0*
20,1,$1+$1,$4,$5,$6,$7,0*
20,1,$1+$1,$6,$7,$8,$9,0*
20,1,$1+$1,$8,$9,$2,$3,0*%
G04 Aperture macros list end*
%TA.AperFunction,ComponentPad*%
%ADD10R,1.700000X1.700000*%
%TD*%
%TA.AperFunction,ComponentPad*%
%ADD11O,1.700000X1.700000*%
%TD*%
%TA.AperFunction,ComponentPad*%
%ADD12RoundRect,0.250000X0.600000X-0.600000X0.600000X0.600000X-0.600000X0.600000X-0.600000X-0.600000X0*%
%TD*%
%TA.AperFunction,ComponentPad*%
%ADD13C,1.700000*%
%TD*%
%TA.AperFunction,ComponentPad*%
%ADD14RoundRect,0.575000X-0.575000X0.575000X-0.575000X-0.575000X0.575000X-0.575000X0.575000X0.575000X0*%
%TD*%
%TA.AperFunction,ComponentPad*%
%ADD15C,2.300000*%
%TD*%
%TA.AperFunction,ComponentPad*%
%ADD16R,2.000000X4.600000*%
%TD*%
%TA.AperFunction,ComponentPad*%
%ADD17O,2.000000X4.200000*%
%TD*%
%TA.AperFunction,ComponentPad*%
%ADD18O,4.200000X2.000000*%
%TD*%
G04 APERTURE END LIST*
D10*
%TO.P,J2,1,+V*%
%TO.N,+24V*%
X128625000Y-89100000D03*
D11*
%TO.P,J2,2,D0*%
%TO.N,unconnected-(J2-D0-Pad2)*%
X131165000Y-89100000D03*
%TO.P,J2,3,D1*%
%TO.N,unconnected-(J2-D1-Pad3)*%
X133705000Y-89100000D03*
%TO.P,J2,4,D2*%
%TO.N,unconnected-(J2-D2-Pad4)*%
X136245000Y-89100000D03*
%TO.P,J2,5,D3*%
%TO.N,unconnected-(J2-D3-Pad5)*%
X138785000Y-89100000D03*
%TO.P,J2,6,NC*%
%TO.N,unconnected-(J2-NC-Pad6)*%
X141325000Y-89100000D03*
%TO.P,J2,7,NC*%
%TO.N,unconnected-(J2-NC-Pad7)*%
X143865000Y-89100000D03*
%TO.P,J2,8,GND*%
%TO.N,GND*%
X146405000Y-89100000D03*
%TD*%
D12*
%TO.P,J3,1,+V*%
%TO.N,+24V*%
X133420000Y-64500000D03*
D13*
%TO.P,J3,2,D0*%
%TO.N,unconnected-(J3-D0-Pad2)*%
X133420000Y-61960000D03*
%TO.P,J3,3,D1*%
%TO.N,unconnected-(J3-D1-Pad3)*%
X135960000Y-64500000D03*
%TO.P,J3,4,D2*%
%TO.N,unconnected-(J3-D2-Pad4)*%
X135960000Y-61960000D03*
%TO.P,J3,5,D3*%
%TO.N,unconnected-(J3-D3-Pad5)*%
X138500000Y-64500000D03*
%TO.P,J3,6,NC*%
%TO.N,unconnected-(J3-NC-Pad6)*%
X138500000Y-61960000D03*
%TO.P,J3,7,NC*%
%TO.N,unconnected-(J3-NC-Pad7)*%
X141040000Y-64500000D03*
%TO.P,J3,8,GND*%
%TO.N,GND*%
X141040000Y-61960000D03*
%TD*%
D12*
%TO.P,J4,1,+V*%
%TO.N,+24V*%
X133450000Y-79040000D03*
D13*
%TO.P,J4,2,D0*%
%TO.N,unconnected-(J4-D0-Pad2)*%
X133450000Y-76500000D03*
%TO.P,J4,3,D1*%
%TO.N,unconnected-(J4-D1-Pad3)*%
X135990000Y-79040000D03*
%TO.P,J4,4,D2*%
%TO.N,unconnected-(J4-D2-Pad4)*%
X135990000Y-76500000D03*
%TO.P,J4,5,D3*%
%TO.N,unconnected-(J4-D3-Pad5)*%
X138530000Y-79040000D03*
%TO.P,J4,6,NC*%
%TO.N,unconnected-(J4-NC-Pad6)*%
X138530000Y-76500000D03*
%TO.P,J4,7,NC*%
%TO.N,unconnected-(J4-NC-Pad7)*%
X141070000Y-79040000D03*
%TO.P,J4,8,GND*%
%TO.N,GND*%
X141070000Y-76500000D03*
%TD*%
D14*
%TO.P,F1,1*%
%TO.N,+24V*%
X153000000Y-65600000D03*
X153000000Y-70800000D03*
D15*
%TO.P,F1,2*%
%TO.N,/VIN*%
X153000000Y-80900000D03*
X153000000Y-86100000D03*
%TD*%
D16*
%TO.P,J1,1*%
%TO.N,/VIN*%
X159700000Y-75000000D03*
D17*
%TO.P,J1,2*%
%TO.N,GND*%
X166000000Y-75000000D03*
D18*
%TO.P,J1,3*%
%TO.N,N/C*%
X162600000Y-70200000D03*
%TD*%
%TA.AperFunction,Conductor*%
%TO.N,GND*%
G36*
X172442539Y-57020185D02*
G01*
X172488294Y-57072989D01*
X172499500Y-57124500D01*
X172499500Y-97875500D01*
X172479815Y-97942539D01*
X172427011Y-97988294D01*
X172375500Y-97999500D01*
X124624500Y-97999500D01*
X124557461Y-97979815D01*
X124511706Y-97927011D01*
X124500500Y-97875500D01*
X124500500Y-88202135D01*
X127274500Y-88202135D01*
X127274500Y-89997870D01*
X127274501Y-89997876D01*
X127280908Y-90057483D01*
X127331202Y-90192328D01*
X127331206Y-90192335D01*
X127417452Y-90307544D01*
X127417455Y-90307547D01*
X127532664Y-90393793D01*
X127532671Y-90393797D01*
X127667517Y-90444091D01*
X127667516Y-90444091D01*
X127674444Y-90444835D01*
X127727127Y-90450500D01*
X129522872Y-90450499D01*
X129582483Y-90444091D01*
X129717331Y-90393796D01*
X129832546Y-90307546D01*
X129918796Y-90192331D01*
X129967810Y-90060916D01*
X130009681Y-90004984D01*
X130075145Y-89980566D01*
X130143418Y-89995417D01*
X130171673Y-90016569D01*
X130285213Y-90130109D01*
X130457179Y-90255048D01*
X130457181Y-90255049D01*
X130457184Y-90255051D01*
X130646588Y-90351557D01*
X130848757Y-90417246D01*
X131058713Y-90450500D01*
X131058714Y-90450500D01*
X131271286Y-90450500D01*
X131271287Y-90450500D01*
X131481243Y-90417246D01*
X131683412Y-90351557D01*
X131872816Y-90255051D01*
X131959138Y-90192335D01*
X132044786Y-90130109D01*
X132044788Y-90130106D01*
X132044792Y-90130104D01*
X132195104Y-89979792D01*
X132195106Y-89979788D01*
X132195109Y-89979786D01*
X132320048Y-89807820D01*
X132320047Y-89807820D01*
X132320051Y-89807816D01*
X132324514Y-89799054D01*
X132372488Y-89748259D01*
X132440308Y-89731463D01*
X132506444Y-89753999D01*
X132545486Y-89799056D01*
X132549951Y-89807820D01*
X132674890Y-89979786D01*
X132825213Y-90130109D01*
X132997179Y-90255048D01*
X132997181Y-90255049D01*
X132997184Y-90255051D01*
X133186588Y-90351557D01*
X133388757Y-90417246D01*
X133598713Y-90450500D01*
X133598714Y-90450500D01*
X133811286Y-90450500D01*
X133811287Y-90450500D01*
X134021243Y-90417246D01*
X134223412Y-90351557D01*
X134412816Y-90255051D01*
X134499138Y-90192335D01*
X134584786Y-90130109D01*
X134584788Y-90130106D01*
X134584792Y-90130104D01*
X134735104Y-89979792D01*
X134735106Y-89979788D01*
X134735109Y-89979786D01*
X134860048Y-89807820D01*
X134860047Y-89807820D01*
X134860051Y-89807816D01*
X134864514Y-89799054D01*
X134912488Y-89748259D01*
X134980308Y-89731463D01*
X135046444Y-89753999D01*
X135085486Y-89799056D01*
X135089951Y-89807820D01*
X135214890Y-89979786D01*
X135365213Y-90130109D01*
X135537179Y-90255048D01*
X135537181Y-90255049D01*
X135537184Y-90255051D01*
X135726588Y-90351557D01*
X135928757Y-90417246D01*
X136138713Y-90450500D01*
X136138714Y-90450500D01*
X136351286Y-90450500D01*
X136351287Y-90450500D01*
X136561243Y-90417246D01*
X136763412Y-90351557D01*
X136952816Y-90255051D01*
X137039138Y-90192335D01*
X137124786Y-90130109D01*
X137124788Y-90130106D01*
X137124792Y-90130104D01*
X137275104Y-89979792D01*
X137275106Y-89979788D01*
X137275109Y-89979786D01*
X137400048Y-89807820D01*
X137400047Y-89807820D01*
X137400051Y-89807816D01*
X137404514Y-89799054D01*
X137452488Y-89748259D01*
X137520308Y-89731463D01*
X137586444Y-89753999D01*
X137625486Y-89799056D01*
X137629951Y-89807820D01*
X137754890Y-89979786D01*
X137905213Y-90130109D01*
X138077179Y-90255048D01*
X138077181Y-90255049D01*
X138077184Y-90255051D01*
X138266588Y-90351557D01*
X138468757Y-90417246D01*
X138678713Y-90450500D01*
X138678714Y-90450500D01*
X138891286Y-90450500D01*
X138891287Y-90450500D01*
X139101243Y-90417246D01*
X139303412Y-90351557D01*
X139492816Y-90255051D01*
X139579138Y-90192335D01*
X139664786Y-90130109D01*
X139664788Y-90130106D01*
X139664792Y-90130104D01*
X139815104Y-89979792D01*
X139815106Y-89979788D01*
X139815109Y-89979786D01*
X139940048Y-89807820D01*
X139940047Y-89807820D01*
X139940051Y-89807816D01*
X139944514Y-89799054D01*
X139992488Y-89748259D01*
X140060308Y-89731463D01*
X140126444Y-89753999D01*
X140165486Y-89799056D01*
X140169951Y-89807820D01*
X140294890Y-89979786D01*
X140445213Y-90130109D01*
X140617179Y-90255048D01*
X140617181Y-90255049D01*
X140617184Y-90255051D01*
X140806588Y-90351557D01*
X141008757Y-90417246D01*
X141218713Y-90450500D01*
X141218714Y-90450500D01*
X141431286Y-90450500D01*
X141431287Y-90450500D01*
X141641243Y-90417246D01*
X141843412Y-90351557D01*
X142032816Y-90255051D01*
X142119138Y-90192335D01*
X142204786Y-90130109D01*
X142204788Y-90130106D01*
X142204792Y-90130104D01*
X142355104Y-89979792D01*
X142355106Y-89979788D01*
X142355109Y-89979786D01*
X142480048Y-89807820D01*
X142480047Y-89807820D01*
X142480051Y-89807816D01*
X142484514Y-89799054D01*
X142532488Y-89748259D01*
X142600308Y-89731463D01*
X142666444Y-89753999D01*
X142705486Y-89799056D01*
X142709951Y-89807820D01*
X142834890Y-89979786D01*
X142985213Y-90130109D01*
X143157179Y-90255048D01*
X143157181Y-90255049D01*
X143157184Y-90255051D01*
X143346588Y-90351557D01*
X143548757Y-90417246D01*
X143758713Y-90450500D01*
X143758714Y-90450500D01*
X143971286Y-90450500D01*
X143971287Y-90450500D01*
X144181243Y-90417246D01*
X144383412Y-90351557D01*
X144572816Y-90255051D01*
X144659138Y-90192335D01*
X144744786Y-90130109D01*
X144744788Y-90130106D01*
X144744792Y-90130104D01*
X144895104Y-89979792D01*
X144895106Y-89979788D01*
X144895109Y-89979786D01*
X145020048Y-89807820D01*
X145020047Y-89807820D01*
X145020051Y-89807816D01*
X145116557Y-89618412D01*
X145182246Y-89416243D01*
X145215500Y-89206287D01*
X145215500Y-88993713D01*
X145182246Y-88783757D01*
X145116557Y-88581588D01*
X145020051Y-88392184D01*
X145020049Y-88392181D01*
X145020048Y-88392179D01*
X144895109Y-88220213D01*
X144744786Y-88069890D01*
X144572820Y-87944951D01*
X144383414Y-87848444D01*
X144383413Y-87848443D01*
X144383412Y-87848443D01*
X144181243Y-87782754D01*
X144181241Y-87782753D01*
X144181240Y-87782753D01*
X144019957Y-87757208D01*
X143971287Y-87749500D01*
X143758713Y-87749500D01*
X143710042Y-87757208D01*
X143548760Y-87782753D01*
X143346585Y-87848444D01*
X143157179Y-87944951D01*
X142985213Y-88069890D01*
X142834890Y-88220213D01*
X142709949Y-88392182D01*
X142705484Y-88400946D01*
X142657509Y-88451742D01*
X142589688Y-88468536D01*
X142523553Y-88445998D01*
X142484516Y-88400946D01*
X142480050Y-88392182D01*
X142355109Y-88220213D01*
X142204786Y-88069890D01*
X142032820Y-87944951D01*
X141843414Y-87848444D01*
X141843413Y-87848443D01*
X141843412Y-87848443D01*
X141641243Y-87782754D01*
X141641241Y-87782753D01*
X141641240Y-87782753D01*
X141479957Y-87757208D01*
X141431287Y-87749500D01*
X141218713Y-87749500D01*
X141170042Y-87757208D01*
X141008760Y-87782753D01*
X140806585Y-87848444D01*
X140617179Y-87944951D01*
X140445213Y-88069890D01*
X140294890Y-88220213D01*
X140169949Y-88392182D01*
X140165484Y-88400946D01*
X140117509Y-88451742D01*
X140049688Y-88468536D01*
X139983553Y-88445998D01*
X139944516Y-88400946D01*
X139940050Y-88392182D01*
X139815109Y-88220213D01*
X139664786Y-88069890D01*
X139492820Y-87944951D01*
X139303414Y-87848444D01*
X139303413Y-87848443D01*
X139303412Y-87848443D01*
X139101243Y-87782754D01*
X139101241Y-87782753D01*
X139101240Y-87782753D01*
X138939957Y-87757208D01*
X138891287Y-87749500D01*
X138678713Y-87749500D01*
X138630042Y-87757208D01*
X138468760Y-87782753D01*
X138266585Y-87848444D01*
X138077179Y-87944951D01*
X137905213Y-88069890D01*
X137754890Y-88220213D01*
X137629949Y-88392182D01*
X137625484Y-88400946D01*
X137577509Y-88451742D01*
X137509688Y-88468536D01*
X137443553Y-88445998D01*
X137404516Y-88400946D01*
X137400050Y-88392182D01*
X137275109Y-88220213D01*
X137124786Y-88069890D01*
X136952820Y-87944951D01*
X136763414Y-87848444D01*
X136763413Y-87848443D01*
X136763412Y-87848443D01*
X136561243Y-87782754D01*
X136561241Y-87782753D01*
X136561240Y-87782753D01*
X136399957Y-87757208D01*
X136351287Y-87749500D01*
X136138713Y-87749500D01*
X136090042Y-87757208D01*
X135928760Y-87782753D01*
X135726585Y-87848444D01*
X135537179Y-87944951D01*
X135365213Y-88069890D01*
X135214890Y-88220213D01*
X135089949Y-88392182D01*
X135085484Y-88400946D01*
X135037509Y-88451742D01*
X134969688Y-88468536D01*
X134903553Y-88445998D01*
X134864516Y-88400946D01*
X134860050Y-88392182D01*
X134735109Y-88220213D01*
X134584786Y-88069890D01*
X134412820Y-87944951D01*
X134223414Y-87848444D01*
X134223413Y-87848443D01*
X134223412Y-87848443D01*
X134021243Y-87782754D01*
X134021241Y-87782753D01*
X134021240Y-87782753D01*
X133859957Y-87757208D01*
X133811287Y-87749500D01*
X133598713Y-87749500D01*
X133550042Y-87757208D01*
X133388760Y-87782753D01*
X133186585Y-87848444D01*
X132997179Y-87944951D01*
X132825213Y-88069890D01*
X132674890Y-88220213D01*
X132549949Y-88392182D01*
X132545484Y-88400946D01*
X132497509Y-88451742D01*
X132429688Y-88468536D01*
X132363553Y-88445998D01*
X132324516Y-88400946D01*
X132320050Y-88392182D01*
X132195109Y-88220213D01*
X132044786Y-88069890D01*
X131872820Y-87944951D01*
X131683414Y-87848444D01*
X131683413Y-87848443D01*
X131683412Y-87848443D01*
X131481243Y-87782754D01*
X131481241Y-87782753D01*
X131481240Y-87782753D01*
X131319957Y-87757208D01*
X131271287Y-87749500D01*
X131058713Y-87749500D01*
X131010042Y-87757208D01*
X130848760Y-87782753D01*
X130646585Y-87848444D01*
X130457179Y-87944951D01*
X130285215Y-88069889D01*
X130171673Y-88183431D01*
X130110350Y-88216915D01*
X130040658Y-88211931D01*
X129984725Y-88170059D01*
X129967810Y-88139082D01*
X129918797Y-88007671D01*
X129918793Y-88007664D01*
X129832547Y-87892455D01*
X129832544Y-87892452D01*
X129717335Y-87806206D01*
X129717328Y-87806202D01*
X129582482Y-87755908D01*
X129582483Y-87755908D01*
X129522883Y-87749501D01*
X129522881Y-87749500D01*
X129522873Y-87749500D01*
X129522864Y-87749500D01*
X127727129Y-87749500D01*
X127727123Y-87749501D01*
X127667516Y-87755908D01*
X127532671Y-87806202D01*
X127532664Y-87806206D01*
X127417455Y-87892452D01*
X127417452Y-87892455D01*
X127331206Y-88007664D01*
X127331202Y-88007671D01*
X127280908Y-88142517D01*
X127274501Y-88202116D01*
X127274500Y-88202135D01*
X124500500Y-88202135D01*
X124500500Y-85970097D01*
X151349500Y-85970097D01*
X151349500Y-86229902D01*
X151390140Y-86486493D01*
X151470422Y-86733576D01*
X151551534Y-86892764D01*
X151588366Y-86965051D01*
X151741069Y-87175229D01*
X151924771Y-87358931D01*
X152134949Y-87511634D01*
X152282445Y-87586787D01*
X152366423Y-87629577D01*
X152366425Y-87629577D01*
X152366428Y-87629579D01*
X152613507Y-87709860D01*
X152745706Y-87730797D01*
X152870098Y-87750500D01*
X152870103Y-87750500D01*
X153129902Y-87750500D01*
X153243298Y-87732539D01*
X153386493Y-87709860D01*
X153633572Y-87629579D01*
X153865051Y-87511634D01*
X154075229Y-87358931D01*
X154258931Y-87175229D01*
X154411634Y-86965051D01*
X154529579Y-86733572D01*
X154609860Y-86486493D01*
X154632539Y-86343298D01*
X154650500Y-86229902D01*
X154650500Y-85970097D01*
X154628947Y-85834021D01*
X154609860Y-85713507D01*
X154529579Y-85466428D01*
X154529577Y-85466425D01*
X154529577Y-85466423D01*
X154486787Y-85382445D01*
X154411634Y-85234949D01*
X154258931Y-85024771D01*
X154075229Y-84841069D01*
X153865051Y-84688366D01*
X153792764Y-84651534D01*
X153633576Y-84570422D01*
X153386493Y-84490140D01*
X153129902Y-84449500D01*
X153129897Y-84449500D01*
X152870103Y-84449500D01*
X152870098Y-84449500D01*
X152613506Y-84490140D01*
X152366423Y-84570422D01*
X152134945Y-84688368D01*
X151924774Y-84841066D01*
X151924768Y-84841071D01*
X151741071Y-85024768D01*
X151741066Y-85024774D01*
X151588368Y-85234945D01*
X151470422Y-85466423D01*
X151390140Y-85713506D01*
X151349500Y-85970097D01*
X124500500Y-85970097D01*
X124500500Y-80770097D01*
X151349500Y-80770097D01*
X151349500Y-81029902D01*
X151390140Y-81286493D01*
X151470422Y-81533576D01*
X151551534Y-81692764D01*
X151588366Y-81765051D01*
X151741069Y-81975229D01*
X151924771Y-82158931D01*
X152134949Y-82311634D01*
X152282445Y-82386787D01*
X152366423Y-82429577D01*
X152366425Y-82429577D01*
X152366428Y-82429579D01*
X152613507Y-82509860D01*
X152745706Y-82530797D01*
X152870098Y-82550500D01*
X152870103Y-82550500D01*
X153129902Y-82550500D01*
X153243298Y-82532539D01*
X153386493Y-82509860D01*
X153633572Y-82429579D01*
X153865051Y-82311634D01*
X154075229Y-82158931D01*
X154258931Y-81975229D01*
X154411634Y-81765051D01*
X154529579Y-81533572D01*
X154609860Y-81286493D01*
X154632539Y-81143298D01*
X154650500Y-81029902D01*
X154650500Y-80770097D01*
X154628947Y-80634021D01*
X154609860Y-80513507D01*
X154529579Y-80266428D01*
X154529577Y-80266425D01*
X154529577Y-80266423D01*
X154449190Y-80108657D01*
X154411634Y-80034949D01*
X154258931Y-79824771D01*
X154075229Y-79641069D01*
X153865051Y-79488366D01*
X153792764Y-79451534D01*
X153633576Y-79370422D01*
X153386493Y-79290140D01*
X153129902Y-79249500D01*
X153129897Y-79249500D01*
X152870103Y-79249500D01*
X152870098Y-79249500D01*
X152613506Y-79290140D01*
X152366423Y-79370422D01*
X152134945Y-79488368D01*
X151924774Y-79641066D01*
X151924768Y-79641071D01*
X151741071Y-79824768D01*
X151741066Y-79824774D01*
X151588368Y-80034945D01*
X151470422Y-80266423D01*
X151390140Y-80513506D01*
X151349500Y-80770097D01*
X124500500Y-80770097D01*
X124500500Y-76393713D01*
X132099500Y-76393713D01*
X132099500Y-76606286D01*
X132132753Y-76816239D01*
X132198444Y-77018414D01*
X132294951Y-77207820D01*
X132419890Y-77379786D01*
X132570209Y-77530105D01*
X132575106Y-77533663D01*
X132617771Y-77588994D01*
X132623750Y-77658607D01*
X132591144Y-77720402D01*
X132541229Y-77751685D01*
X132530673Y-77755183D01*
X132530663Y-77755187D01*
X132381342Y-77847289D01*
X132257289Y-77971342D01*
X132165187Y-78120663D01*
X132165185Y-78120668D01*
X132152083Y-78160208D01*
X132110001Y-78287203D01*
X132110001Y-78287204D01*
X132110000Y-78287204D01*
X132099500Y-78389983D01*
X132099500Y-79690001D01*
X132099501Y-79690018D01*
X132110000Y-79792796D01*
X132110001Y-79792799D01*
X132120595Y-79824768D01*
X132165186Y-79959334D01*
X132257288Y-80108656D01*
X132381344Y-80232712D01*
X132530666Y-80324814D01*
X132697203Y-80379999D01*
X132799991Y-80390500D01*
X134100008Y-80390499D01*
X134202797Y-80379999D01*
X134369334Y-80324814D01*
X134518656Y-80232712D01*
X134642712Y-80108656D01*
X134734814Y-79959334D01*
X134738312Y-79948775D01*
X134778082Y-79891332D01*
X134842598Y-79864507D01*
X134911374Y-79876821D01*
X134956334Y-79914891D01*
X134959890Y-79919785D01*
X134959894Y-79919790D01*
X135110213Y-80070109D01*
X135282179Y-80195048D01*
X135282181Y-80195049D01*
X135282184Y-80195051D01*
X135471588Y-80291557D01*
X135673757Y-80357246D01*
X135883713Y-80390500D01*
X135883714Y-80390500D01*
X136096286Y-80390500D01*
X136096287Y-80390500D01*
X136306243Y-80357246D01*
X136508412Y-80291557D01*
X136697816Y-80195051D01*
X136719789Y-80179086D01*
X136869786Y-80070109D01*
X136869788Y-80070106D01*
X136869792Y-80070104D01*
X137020104Y-79919792D01*
X137020106Y-79919788D01*
X137020109Y-79919786D01*
X137145048Y-79747820D01*
X137145047Y-79747820D01*
X137145051Y-79747816D01*
X137149514Y-79739054D01*
X137197488Y-79688259D01*
X137265308Y-79671463D01*
X137331444Y-79693999D01*
X137370486Y-79739056D01*
X137374951Y-79747820D01*
X137499890Y-79919786D01*
X137650213Y-80070109D01*
X137822179Y-80195048D01*
X137822181Y-80195049D01*
X137822184Y-80195051D01*
X138011588Y-80291557D01*
X138213757Y-80357246D01*
X138423713Y-80390500D01*
X138423714Y-80390500D01*
X138636286Y-80390500D01*
X138636287Y-80390500D01*
X138846243Y-80357246D01*
X139048412Y-80291557D01*
X139237816Y-80195051D01*
X139259789Y-80179086D01*
X139409786Y-80070109D01*
X139409788Y-80070106D01*
X139409792Y-80070104D01*
X139560104Y-79919792D01*
X139560106Y-79919788D01*
X139560109Y-79919786D01*
X139685048Y-79747820D01*
X139685047Y-79747820D01*
X139685051Y-79747816D01*
X139689514Y-79739054D01*
X139737488Y-79688259D01*
X139805308Y-79671463D01*
X139871444Y-79693999D01*
X139910486Y-79739056D01*
X139914951Y-79747820D01*
X140039890Y-79919786D01*
X140190213Y-80070109D01*
X140362179Y-80195048D01*
X140362181Y-80195049D01*
X140362184Y-80195051D01*
X140551588Y-80291557D01*
X140753757Y-80357246D01*
X140963713Y-80390500D01*
X140963714Y-80390500D01*
X141176286Y-80390500D01*
X141176287Y-80390500D01*
X141386243Y-80357246D01*
X141588412Y-80291557D01*
X141777816Y-80195051D01*
X141799789Y-80179086D01*
X141949786Y-80070109D01*
X141949788Y-80070106D01*
X141949792Y-80070104D01*
X142100104Y-79919792D01*
X142100106Y-79919788D01*
X142100109Y-79919786D01*
X142225048Y-79747820D01*
X142225047Y-79747820D01*
X142225051Y-79747816D01*
X142321557Y-79558412D01*
X142387246Y-79356243D01*
X142420500Y-79146287D01*
X142420500Y-78933713D01*
X142387246Y-78723757D01*
X142321557Y-78521588D01*
X142225051Y-78332184D01*
X142225049Y-78332181D01*
X142225048Y-78332179D01*
X142100109Y-78160213D01*
X141949786Y-78009890D01*
X141777820Y-77884951D01*
X141588414Y-77788444D01*
X141588413Y-77788443D01*
X141588412Y-77788443D01*
X141386243Y-77722754D01*
X141386241Y-77722753D01*
X141386240Y-77722753D01*
X141224957Y-77697208D01*
X141176287Y-77689500D01*
X140963713Y-77689500D01*
X140915042Y-77697208D01*
X140753760Y-77722753D01*
X140551585Y-77788444D01*
X140362179Y-77884951D01*
X140190213Y-78009890D01*
X140039890Y-78160213D01*
X139914949Y-78332182D01*
X139910484Y-78340946D01*
X139862509Y-78391742D01*
X139794688Y-78408536D01*
X139728553Y-78385998D01*
X139689516Y-78340946D01*
X139685050Y-78332182D01*
X139560109Y-78160213D01*
X139409786Y-78009890D01*
X139237820Y-77884951D01*
X139237115Y-77884591D01*
X139229054Y-77880485D01*
X139178259Y-77832512D01*
X139161463Y-77764692D01*
X139183999Y-77698556D01*
X139229054Y-77659515D01*
X139237816Y-77655051D01*
X139259789Y-77639086D01*
X139409786Y-77530109D01*
X139409788Y-77530106D01*
X139409792Y-77530104D01*
X139560104Y-77379792D01*
X139560106Y-77379788D01*
X139560109Y-77379786D01*
X139685048Y-77207820D01*
X139685047Y-77207820D01*
X139685051Y-77207816D01*
X139781557Y-77018412D01*
X139847246Y-76816243D01*
X139880500Y-76606287D01*
X139880500Y-76393713D01*
X139847246Y-76183757D01*
X139781557Y-75981588D01*
X139685051Y-75792184D01*
X139685049Y-75792181D01*
X139685048Y-75792179D01*
X139560109Y-75620213D01*
X139409786Y-75469890D01*
X139237820Y-75344951D01*
X139048414Y-75248444D01*
X139048413Y-75248443D01*
X139048412Y-75248443D01*
X138846243Y-75182754D01*
X138846241Y-75182753D01*
X138846240Y-75182753D01*
X138684957Y-75157208D01*
X138636287Y-75149500D01*
X138423713Y-75149500D01*
X138375042Y-75157208D01*
X138213760Y-75182753D01*
X138011585Y-75248444D01*
X137822179Y-75344951D01*
X137650213Y-75469890D01*
X137499890Y-75620213D01*
X137374949Y-75792182D01*
X137370484Y-75800946D01*
X137322509Y-75851742D01*
X137254688Y-75868536D01*
X137188553Y-75845998D01*
X137149516Y-75800946D01*
X137145050Y-75792182D01*
X137020109Y-75620213D01*
X136869786Y-75469890D01*
X136697820Y-75344951D01*
X136508414Y-75248444D01*
X136508413Y-75248443D01*
X136508412Y-75248443D01*
X136306243Y-75182754D01*
X136306241Y-75182753D01*
X136306240Y-75182753D01*
X136144957Y-75157208D01*
X136096287Y-75149500D01*
X135883713Y-75149500D01*
X135835042Y-75157208D01*
X135673760Y-75182753D01*
X135471585Y-75248444D01*
X135282179Y-75344951D01*
X135110213Y-75469890D01*
X134959890Y-75620213D01*
X134834949Y-75792182D01*
X134830484Y-75800946D01*
X134782509Y-75851742D01*
X134714688Y-75868536D01*
X134648553Y-75845998D01*
X134609516Y-75800946D01*
X134605050Y-75792182D01*
X134480109Y-75620213D01*
X134329786Y-75469890D01*
X134157820Y-75344951D01*
X133968414Y-75248444D01*
X133968413Y-75248443D01*
X133968412Y-75248443D01*
X133766243Y-75182754D01*
X133766241Y-75182753D01*
X133766240Y-75182753D01*
X133604957Y-75157208D01*
X133556287Y-75149500D01*
X133343713Y-75149500D01*
X133295042Y-75157208D01*
X133133760Y-75182753D01*
X132931585Y-75248444D01*
X132742179Y-75344951D01*
X132570213Y-75469890D01*
X132419890Y-75620213D01*
X132294951Y-75792179D01*
X132198444Y-75981585D01*
X132132753Y-76183760D01*
X132099500Y-76393713D01*
X124500500Y-76393713D01*
X124500500Y-72652135D01*
X158199500Y-72652135D01*
X158199500Y-77347870D01*
X158199501Y-77347876D01*
X158205908Y-77407483D01*
X158256202Y-77542328D01*
X158256206Y-77542335D01*
X158342452Y-77657544D01*
X158342455Y-77657547D01*
X158457664Y-77743793D01*
X158457671Y-77743797D01*
X158592517Y-77794091D01*
X158592516Y-77794091D01*
X158599444Y-77794835D01*
X158652127Y-77800500D01*
X160747872Y-77800499D01*
X160807483Y-77794091D01*
X160942331Y-77743796D01*
X161057546Y-77657546D01*
X161143796Y-77542331D01*
X161194091Y-77407483D01*
X161200500Y-77347873D01*
X161200499Y-72652128D01*
X161194091Y-72592517D01*
X161143796Y-72457669D01*
X161143795Y-72457668D01*
X161143793Y-72457664D01*
X161057547Y-72342455D01*
X161057544Y-72342452D01*
X160942335Y-72256206D01*
X160942328Y-72256202D01*
X160807482Y-72205908D01*
X160807483Y-72205908D01*
X160747883Y-72199501D01*
X160747881Y-72199500D01*
X160747873Y-72199500D01*
X160747864Y-72199500D01*
X158652129Y-72199500D01*
X158652123Y-72199501D01*
X158592516Y-72205908D01*
X158457671Y-72256202D01*
X158457664Y-72256206D01*
X158342455Y-72342452D01*
X158342452Y-72342455D01*
X158256206Y-72457664D01*
X158256202Y-72457671D01*
X158205908Y-72592517D01*
X158199501Y-72652116D01*
X158199501Y-72652123D01*
X158199500Y-72652135D01*
X124500500Y-72652135D01*
X124500500Y-70142882D01*
X151349500Y-70142882D01*
X151349500Y-71457118D01*
X151352249Y-71503263D01*
X151352249Y-71503267D01*
X151352250Y-71503268D01*
X151395907Y-71703961D01*
X151395909Y-71703968D01*
X151476760Y-71892771D01*
X151476763Y-71892777D01*
X151476766Y-71892781D01*
X151591882Y-72062868D01*
X151591890Y-72062877D01*
X151737122Y-72208109D01*
X151737131Y-72208117D01*
X151808178Y-72256202D01*
X151907223Y-72323237D01*
X151907228Y-72323239D01*
X152096031Y-72404090D01*
X152096038Y-72404092D01*
X152162935Y-72418644D01*
X152296737Y-72447751D01*
X152342882Y-72450500D01*
X152342893Y-72450500D01*
X153657107Y-72450500D01*
X153657118Y-72450500D01*
X153703263Y-72447751D01*
X153878954Y-72409531D01*
X153903961Y-72404092D01*
X153903968Y-72404090D01*
X153966902Y-72377139D01*
X154092777Y-72323237D01*
X154262875Y-72208112D01*
X154408112Y-72062875D01*
X154523237Y-71892777D01*
X154604091Y-71703965D01*
X154647751Y-71503263D01*
X154650500Y-71457118D01*
X154650500Y-70142882D01*
X154647751Y-70096737D01*
X154644524Y-70081902D01*
X159999500Y-70081902D01*
X159999500Y-70318097D01*
X160036446Y-70551368D01*
X160109433Y-70775996D01*
X160216657Y-70986433D01*
X160355483Y-71177510D01*
X160522490Y-71344517D01*
X160713567Y-71483343D01*
X160812991Y-71534002D01*
X160924003Y-71590566D01*
X160924005Y-71590566D01*
X160924008Y-71590568D01*
X161044412Y-71629689D01*
X161148631Y-71663553D01*
X161381903Y-71700500D01*
X161381908Y-71700500D01*
X163818097Y-71700500D01*
X164051368Y-71663553D01*
X164275992Y-71590568D01*
X164486433Y-71483343D01*
X164677510Y-71344517D01*
X164844517Y-71177510D01*
X164983343Y-70986433D01*
X165090568Y-70775992D01*
X165163553Y-70551368D01*
X165200500Y-70318097D01*
X165200500Y-70081902D01*
X165163553Y-69848631D01*
X165090566Y-69624003D01*
X164983342Y-69413566D01*
X164844517Y-69222490D01*
X164677510Y-69055483D01*
X164486433Y-68916657D01*
X164275996Y-68809433D01*
X164051368Y-68736446D01*
X163818097Y-68699500D01*
X163818092Y-68699500D01*
X161381908Y-68699500D01*
X161381903Y-68699500D01*
X161148631Y-68736446D01*
X160924003Y-68809433D01*
X160713566Y-68916657D01*
X160604550Y-68995862D01*
X160522490Y-69055483D01*
X160522488Y-69055485D01*
X160522487Y-69055485D01*
X160355485Y-69222487D01*
X160355485Y-69222488D01*
X160355483Y-69222490D01*
X160316051Y-69276763D01*
X160216657Y-69413566D01*
X160109433Y-69624003D01*
X160036446Y-69848631D01*
X159999500Y-70081902D01*
X154644524Y-70081902D01*
X154604091Y-69896035D01*
X154604090Y-69896031D01*
X154523239Y-69707228D01*
X154523237Y-69707223D01*
X154466916Y-69624008D01*
X154408117Y-69537131D01*
X154408109Y-69537122D01*
X154262877Y-69391890D01*
X154262868Y-69391882D01*
X154092781Y-69276766D01*
X154092777Y-69276763D01*
X154092773Y-69276761D01*
X154092771Y-69276760D01*
X153903968Y-69195909D01*
X153903961Y-69195907D01*
X153703268Y-69152250D01*
X153703267Y-69152249D01*
X153703263Y-69152249D01*
X153657118Y-69149500D01*
X152342882Y-69149500D01*
X152296737Y-69152249D01*
X152296732Y-69152249D01*
X152296731Y-69152250D01*
X152096038Y-69195907D01*
X152096031Y-69195909D01*
X151907228Y-69276760D01*
X151907218Y-69276766D01*
X151737131Y-69391882D01*
X151737122Y-69391890D01*
X151591890Y-69537122D01*
X151591882Y-69537131D01*
X151476766Y-69707218D01*
X151476760Y-69707228D01*
X151395909Y-69896031D01*
X151395907Y-69896038D01*
X151352250Y-70096731D01*
X151352249Y-70096737D01*
X151349500Y-70142882D01*
X124500500Y-70142882D01*
X124500500Y-61853713D01*
X132069500Y-61853713D01*
X132069500Y-62066286D01*
X132102753Y-62276239D01*
X132168444Y-62478414D01*
X132264951Y-62667820D01*
X132389890Y-62839786D01*
X132540209Y-62990105D01*
X132545106Y-62993663D01*
X132587771Y-63048994D01*
X132593750Y-63118607D01*
X132561144Y-63180402D01*
X132511229Y-63211685D01*
X132500673Y-63215183D01*
X132500663Y-63215187D01*
X132351342Y-63307289D01*
X132227289Y-63431342D01*
X132135187Y-63580663D01*
X132135185Y-63580668D01*
X132122083Y-63620208D01*
X132080001Y-63747203D01*
X132080001Y-63747204D01*
X132080000Y-63747204D01*
X132069500Y-63849983D01*
X132069500Y-65150001D01*
X132069501Y-65150018D01*
X132080000Y-65252796D01*
X132080001Y-65252799D01*
X132103763Y-65324507D01*
X132135186Y-65419334D01*
X132227288Y-65568656D01*
X132351344Y-65692712D01*
X132500666Y-65784814D01*
X132667203Y-65839999D01*
X132769991Y-65850500D01*
X134070008Y-65850499D01*
X134172797Y-65839999D01*
X134339334Y-65784814D01*
X134488656Y-65692712D01*
X134612712Y-65568656D01*
X134704814Y-65419334D01*
X134708312Y-65408775D01*
X134748082Y-65351332D01*
X134812598Y-65324507D01*
X134881374Y-65336821D01*
X134926334Y-65374891D01*
X134929890Y-65379785D01*
X134929894Y-65379790D01*
X135080213Y-65530109D01*
X135252179Y-65655048D01*
X135252181Y-65655049D01*
X135252184Y-65655051D01*
X135441588Y-65751557D01*
X135643757Y-65817246D01*
X135853713Y-65850500D01*
X135853714Y-65850500D01*
X136066286Y-65850500D01*
X136066287Y-65850500D01*
X136276243Y-65817246D01*
X136478412Y-65751557D01*
X136667816Y-65655051D01*
X136689789Y-65639086D01*
X136839786Y-65530109D01*
X136839788Y-65530106D01*
X136839792Y-65530104D01*
X136990104Y-65379792D01*
X136990106Y-65379788D01*
X136990109Y-65379786D01*
X137115048Y-65207820D01*
X137115047Y-65207820D01*
X137115051Y-65207816D01*
X137119514Y-65199054D01*
X137167488Y-65148259D01*
X137235308Y-65131463D01*
X137301444Y-65153999D01*
X137340486Y-65199056D01*
X137344951Y-65207820D01*
X137469890Y-65379786D01*
X137620213Y-65530109D01*
X137792179Y-65655048D01*
X137792181Y-65655049D01*
X137792184Y-65655051D01*
X137981588Y-65751557D01*
X138183757Y-65817246D01*
X138393713Y-65850500D01*
X138393714Y-65850500D01*
X138606286Y-65850500D01*
X138606287Y-65850500D01*
X138816243Y-65817246D01*
X139018412Y-65751557D01*
X139207816Y-65655051D01*
X139229789Y-65639086D01*
X139379786Y-65530109D01*
X139379788Y-65530106D01*
X139379792Y-65530104D01*
X139530104Y-65379792D01*
X139530106Y-65379788D01*
X139530109Y-65379786D01*
X139655048Y-65207820D01*
X139655047Y-65207820D01*
X139655051Y-65207816D01*
X139659514Y-65199054D01*
X139707488Y-65148259D01*
X139775308Y-65131463D01*
X139841444Y-65153999D01*
X139880486Y-65199056D01*
X139884951Y-65207820D01*
X140009890Y-65379786D01*
X140160213Y-65530109D01*
X140332179Y-65655048D01*
X140332181Y-65655049D01*
X140332184Y-65655051D01*
X140521588Y-65751557D01*
X140723757Y-65817246D01*
X140933713Y-65850500D01*
X140933714Y-65850500D01*
X141146286Y-65850500D01*
X141146287Y-65850500D01*
X141356243Y-65817246D01*
X141558412Y-65751557D01*
X141747816Y-65655051D01*
X141769789Y-65639086D01*
X141919786Y-65530109D01*
X141919788Y-65530106D01*
X141919792Y-65530104D01*
X142070104Y-65379792D01*
X142070106Y-65379788D01*
X142070109Y-65379786D01*
X142195048Y-65207820D01*
X142195047Y-65207820D01*
X142195051Y-65207816D01*
X142291557Y-65018412D01*
X142316098Y-64942882D01*
X151349500Y-64942882D01*
X151349500Y-66257118D01*
X151352249Y-66303263D01*
X151352249Y-66303267D01*
X151352250Y-66303268D01*
X151395907Y-66503961D01*
X151395909Y-66503968D01*
X151476760Y-66692771D01*
X151476763Y-66692777D01*
X151476766Y-66692781D01*
X151591882Y-66862868D01*
X151591890Y-66862877D01*
X151737122Y-67008109D01*
X151737131Y-67008117D01*
X151839849Y-67077637D01*
X151907223Y-67123237D01*
X151907228Y-67123239D01*
X152096031Y-67204090D01*
X152096038Y-67204092D01*
X152162935Y-67218644D01*
X152296737Y-67247751D01*
X152342882Y-67250500D01*
X152342893Y-67250500D01*
X153657107Y-67250500D01*
X153657118Y-67250500D01*
X153703263Y-67247751D01*
X153878954Y-67209531D01*
X153903961Y-67204092D01*
X153903968Y-67204090D01*
X153966902Y-67177139D01*
X154092777Y-67123237D01*
X154262875Y-67008112D01*
X154408112Y-66862875D01*
X154523237Y-66692777D01*
X154604091Y-66503965D01*
X154647751Y-66303263D01*
X154650500Y-66257118D01*
X154650500Y-64942882D01*
X154647751Y-64896737D01*
X154604091Y-64696035D01*
X154604090Y-64696031D01*
X154523239Y-64507228D01*
X154523237Y-64507223D01*
X154446412Y-64393713D01*
X154408117Y-64337131D01*
X154408109Y-64337122D01*
X154262877Y-64191890D01*
X154262868Y-64191882D01*
X154092781Y-64076766D01*
X154092777Y-64076763D01*
X154092773Y-64076761D01*
X154092771Y-64076760D01*
X153903968Y-63995909D01*
X153903961Y-63995907D01*
X153703268Y-63952250D01*
X153703267Y-63952249D01*
X153703263Y-63952249D01*
X153657118Y-63949500D01*
X152342882Y-63949500D01*
X152296737Y-63952249D01*
X152296732Y-63952249D01*
X152296731Y-63952250D01*
X152096038Y-63995907D01*
X152096031Y-63995909D01*
X151907228Y-64076760D01*
X151907218Y-64076766D01*
X151737131Y-64191882D01*
X151737122Y-64191890D01*
X151591890Y-64337122D01*
X151591882Y-64337131D01*
X151476766Y-64507218D01*
X151476760Y-64507228D01*
X151395909Y-64696031D01*
X151395907Y-64696038D01*
X151369759Y-64816243D01*
X151352249Y-64896737D01*
X151349500Y-64942882D01*
X142316098Y-64942882D01*
X142357246Y-64816243D01*
X142390500Y-64606287D01*
X142390500Y-64393713D01*
X142357246Y-64183757D01*
X142291557Y-63981588D01*
X142195051Y-63792184D01*
X142195049Y-63792181D01*
X142195048Y-63792179D01*
X142070109Y-63620213D01*
X141919786Y-63469890D01*
X141747820Y-63344951D01*
X141558414Y-63248444D01*
X141558413Y-63248443D01*
X141558412Y-63248443D01*
X141356243Y-63182754D01*
X141356241Y-63182753D01*
X141356240Y-63182753D01*
X141194957Y-63157208D01*
X141146287Y-63149500D01*
X140933713Y-63149500D01*
X140885042Y-63157208D01*
X140723760Y-63182753D01*
X140521585Y-63248444D01*
X140332179Y-63344951D01*
X140160213Y-63469890D01*
X140009890Y-63620213D01*
X139884949Y-63792182D01*
X139880484Y-63800946D01*
X139832509Y-63851742D01*
X139764688Y-63868536D01*
X139698553Y-63845998D01*
X139659516Y-63800946D01*
X139655050Y-63792182D01*
X139530109Y-63620213D01*
X139379786Y-63469890D01*
X139207820Y-63344951D01*
X139207115Y-63344591D01*
X139199054Y-63340485D01*
X139148259Y-63292512D01*
X139131463Y-63224692D01*
X139153999Y-63158556D01*
X139199054Y-63119515D01*
X139207816Y-63115051D01*
X139229789Y-63099086D01*
X139379786Y-62990109D01*
X139379788Y-62990106D01*
X139379792Y-62990104D01*
X139530104Y-62839792D01*
X139530106Y-62839788D01*
X139530109Y-62839786D01*
X139655048Y-62667820D01*
X139655047Y-62667820D01*
X139655051Y-62667816D01*
X139751557Y-62478412D01*
X139817246Y-62276243D01*
X139850500Y-62066287D01*
X139850500Y-61853713D01*
X139817246Y-61643757D01*
X139751557Y-61441588D01*
X139655051Y-61252184D01*
X139655049Y-61252181D01*
X139655048Y-61252179D01*
X139530109Y-61080213D01*
X139379786Y-60929890D01*
X139207820Y-60804951D01*
X139018414Y-60708444D01*
X139018413Y-60708443D01*
X139018412Y-60708443D01*
X138816243Y-60642754D01*
X138816241Y-60642753D01*
X138816240Y-60642753D01*
X138654957Y-60617208D01*
X138606287Y-60609500D01*
X138393713Y-60609500D01*
X138345042Y-60617208D01*
X138183760Y-60642753D01*
X137981585Y-60708444D01*
X137792179Y-60804951D01*
X137620213Y-60929890D01*
X137469890Y-61080213D01*
X137344949Y-61252182D01*
X137340484Y-61260946D01*
X137292509Y-61311742D01*
X137224688Y-61328536D01*
X137158553Y-61305998D01*
X137119516Y-61260946D01*
X137115050Y-61252182D01*
X136990109Y-61080213D01*
X136839786Y-60929890D01*
X136667820Y-60804951D01*
X136478414Y-60708444D01*
X136478413Y-60708443D01*
X136478412Y-60708443D01*
X136276243Y-60642754D01*
X136276241Y-60642753D01*
X136276240Y-60642753D01*
X136114957Y-60617208D01*
X136066287Y-60609500D01*
X135853713Y-60609500D01*
X135805042Y-60617208D01*
X135643760Y-60642753D01*
X135441585Y-60708444D01*
X135252179Y-60804951D01*
X135080213Y-60929890D01*
X134929890Y-61080213D01*
X134804949Y-61252182D01*
X134800484Y-61260946D01*
X134752509Y-61311742D01*
X134684688Y-61328536D01*
X134618553Y-61305998D01*
X134579516Y-61260946D01*
X134575050Y-61252182D01*
X134450109Y-61080213D01*
X134299786Y-60929890D01*
X134127820Y-60804951D01*
X133938414Y-60708444D01*
X133938413Y-60708443D01*
X133938412Y-60708443D01*
X133736243Y-60642754D01*
X133736241Y-60642753D01*
X133736240Y-60642753D01*
X133574957Y-60617208D01*
X133526287Y-60609500D01*
X133313713Y-60609500D01*
X133265042Y-60617208D01*
X133103760Y-60642753D01*
X132901585Y-60708444D01*
X132712179Y-60804951D01*
X132540213Y-60929890D01*
X132389890Y-61080213D01*
X132264951Y-61252179D01*
X132168444Y-61441585D01*
X132102753Y-61643760D01*
X132069500Y-61853713D01*
X124500500Y-61853713D01*
X124500500Y-57124500D01*
X124520185Y-57057461D01*
X124572989Y-57011706D01*
X124624500Y-57000500D01*
X172375500Y-57000500D01*
X172442539Y-57020185D01*
G37*
%TD.AperFunction*%
%TD*%
M02*
