%TF.GenerationSoftware,KiCad,Pcbnew,9.0.3-9.0.3-0~ubuntu24.04.1*%
%TF.CreationDate,2026-04-16T14:24:11+03:00*%
%TF.ProjectId,power,706f7765-722e-46b6-9963-61645f706362,rev?*%
%TF.SameCoordinates,Original*%
%TF.FileFunction,Copper,L1,Top*%
%TF.FilePolarity,Positive*%
%FSLAX46Y46*%
G04 Gerber Fmt 4.6, Leading zero omitted, Abs format (unit mm)*
G04 Created by KiCad (PCBNEW 9.0.3-9.0.3-0~ubuntu24.04.1) date 2026-04-16 14:24:11*
%MOMM*%
%LPD*%
G01*
G04 APERTURE LIST*
G04 Aperture macros list*
%AMRoundRect*
0 Rectangle with rounded corners*
0 $1 Rounding radius*
0 $2 $3 $4 $5 $6 $7 $8 $9 X,Y pos of 4 corners*
0 Add a 4 corners polygon primitive as box body*
4,1,4,$2,$3,$4,$5,$6,$7,$8,$9,$2,$3,0*
0 Add four circle primitives for the rounded corners*
1,1,$1+$1,$2,$3*
1,1,$1+$1,$4,$5*
1,1,$1+$1,$6,$7*
1,1,$1+$1,$8,$9*
0 Add four rect primitives between the rounded corners*
20,1,$1+$1,$2,$3,$4,$5,0*
20,1,$1+$1,$4,$5,$6,$7,0*
20,1,$1+$1,$6,$7,$8,$9,0*
20,1,$1+$1,$8,$9,$2,$3,0*%
G04 Aperture macros list end*
%TA.AperFunction,ComponentPad*%
%ADD10R,1.700000X1.700000*%
%TD*%
%TA.AperFunction,ComponentPad*%
%ADD11O,1.700000X1.700000*%
%TD*%
%TA.AperFunction,ComponentPad*%
%ADD12RoundRect,0.250000X0.600000X-0.600000X0.600000X0.600000X-0.600000X0.600000X-0.600000X-0.600000X0*%
%TD*%
%TA.AperFunction,ComponentPad*%
%ADD13C,1.700000*%
%TD*%
%TA.AperFunction,ComponentPad*%
%ADD14RoundRect,0.575000X-0.575000X0.575000X-0.575000X-0.575000X0.575000X-0.575000X0.575000X0.575000X0*%
%TD*%
%TA.AperFunction,ComponentPad*%
%ADD15C,2.300000*%
%TD*%
%TA.AperFunction,ComponentPad*%
%ADD16R,2.000000X4.600000*%
%TD*%
%TA.AperFunction,ComponentPad*%
%ADD17O,2.000000X4.200000*%
%TD*%
%TA.AperFunction,ComponentPad*%
%ADD18O,4.200000X2.000000*%
%TD*%
G04 APERTURE END LIST*
D10*
%TO.P,J2,1,+V*%
%TO.N,+24V*%
X128625000Y-89100000D03*
D11*
%TO.P,J2,2,D0*%
%TO.N,unconnected-(J2-D0-Pad2)*%
X131165000Y-89100000D03*
%TO.P,J2,3,D1*%
%TO.N,unconnected-(J2-D1-Pad3)*%
X133705000Y-89100000D03*
%TO.P,J2,4,D2*%
%TO.N,unconnected-(J2-D2-Pad4)*%
X136245000Y-89100000D03*
%TO.P,J2,5,D3*%
%TO.N,unconnected-(J2-D3-Pad5)*%
X138785000Y-89100000D03*
%TO.P,J2,6,NC*%
%TO.N,unconnected-(J2-NC-Pad6)*%
X141325000Y-89100000D03*
%TO.P,J2,7,NC*%
%TO.N,unconnected-(J2-NC-Pad7)*%
X143865000Y-89100000D03*
%TO.P,J2,8,GND*%
%TO.N,GND*%
X146405000Y-89100000D03*
%TD*%
D12*
%TO.P,J3,1,+V*%
%TO.N,+24V*%
X133420000Y-64500000D03*
D13*
%TO.P,J3,2,D0*%
%TO.N,unconnected-(J3-D0-Pad2)*%
X133420000Y-61960000D03*
%TO.P,J3,3,D1*%
%TO.N,unconnected-(J3-D1-Pad3)*%
X135960000Y-64500000D03*
%TO.P,J3,4,D2*%
%TO.N,unconnected-(J3-D2-Pad4)*%
X135960000Y-61960000D03*
%TO.P,J3,5,D3*%
%TO.N,unconnected-(J3-D3-Pad5)*%
X138500000Y-64500000D03*
%TO.P,J3,6,NC*%
%TO.N,unconnected-(J3-NC-Pad6)*%
X138500000Y-61960000D03*
%TO.P,J3,7,NC*%
%TO.N,unconnected-(J3-NC-Pad7)*%
X141040000Y-64500000D03*
%TO.P,J3,8,GND*%
%TO.N,GND*%
X141040000Y-61960000D03*
%TD*%
D12*
%TO.P,J4,1,+V*%
%TO.N,+24V*%
X133450000Y-79040000D03*
D13*
%TO.P,J4,2,D0*%
%TO.N,unconnected-(J4-D0-Pad2)*%
X133450000Y-76500000D03*
%TO.P,J4,3,D1*%
%TO.N,unconnected-(J4-D1-Pad3)*%
X135990000Y-79040000D03*
%TO.P,J4,4,D2*%
%TO.N,unconnected-(J4-D2-Pad4)*%
X135990000Y-76500000D03*
%TO.P,J4,5,D3*%
%TO.N,unconnected-(J4-D3-Pad5)*%
X138530000Y-79040000D03*
%TO.P,J4,6,NC*%
%TO.N,unconnected-(J4-NC-Pad6)*%
X138530000Y-76500000D03*
%TO.P,J4,7,NC*%
%TO.N,unconnected-(J4-NC-Pad7)*%
X141070000Y-79040000D03*
%TO.P,J4,8,GND*%
%TO.N,GND*%
X141070000Y-76500000D03*
%TD*%
D14*
%TO.P,F1,1*%
%TO.N,+24V*%
X153000000Y-65600000D03*
X153000000Y-70800000D03*
D15*
%TO.P,F1,2*%
%TO.N,/VIN*%
X153000000Y-80900000D03*
X153000000Y-86100000D03*
%TD*%
D16*
%TO.P,J1,1*%
%TO.N,/VIN*%
X159700000Y-75000000D03*
D17*
%TO.P,J1,2*%
%TO.N,GND*%
X166000000Y-75000000D03*
D18*
%TO.P,J1,3*%
%TO.N,N/C*%
X162600000Y-70200000D03*
%TD*%
%TA.AperFunction,Conductor*%
%TO.N,/VIN*%
G36*
X161443039Y-72519685D02*
G01*
X161488794Y-72572489D01*
X161500000Y-72624000D01*
X161500000Y-87626000D01*
X161480315Y-87693039D01*
X161427511Y-87738794D01*
X161376000Y-87750000D01*
X150374000Y-87750000D01*
X150306961Y-87730315D01*
X150261206Y-87677511D01*
X150250000Y-87626000D01*
X150250000Y-72624000D01*
X150269685Y-72556961D01*
X150322489Y-72511206D01*
X150374000Y-72500000D01*
X161376000Y-72500000D01*
X161443039Y-72519685D01*
G37*
%TD.AperFunction*%
%TD*%
%TA.AperFunction,Conductor*%
%TO.N,+24V*%
G36*
X172442539Y-57020185D02*
G01*
X172488294Y-57072989D01*
X172499500Y-57124500D01*
X172499500Y-97875500D01*
X172479815Y-97942539D01*
X172427011Y-97988294D01*
X172375500Y-97999500D01*
X124624500Y-97999500D01*
X124557461Y-97979815D01*
X124511706Y-97927011D01*
X124500500Y-97875500D01*
X124500500Y-88993713D01*
X129814500Y-88993713D01*
X129814500Y-89206286D01*
X129847753Y-89416239D01*
X129913444Y-89618414D01*
X130009951Y-89807820D01*
X130134890Y-89979786D01*
X130285213Y-90130109D01*
X130457179Y-90255048D01*
X130457181Y-90255049D01*
X130457184Y-90255051D01*
X130646588Y-90351557D01*
X130848757Y-90417246D01*
X131058713Y-90450500D01*
X131058714Y-90450500D01*
X131271286Y-90450500D01*
X131271287Y-90450500D01*
X131481243Y-90417246D01*
X131683412Y-90351557D01*
X131872816Y-90255051D01*
X131894789Y-90239086D01*
X132044786Y-90130109D01*
X132044788Y-90130106D01*
X132044792Y-90130104D01*
X132195104Y-89979792D01*
X132195106Y-89979788D01*
X132195109Y-89979786D01*
X132320048Y-89807820D01*
X132320047Y-89807820D01*
X132320051Y-89807816D01*
X132324514Y-89799054D01*
X132372488Y-89748259D01*
X132440308Y-89731463D01*
X132506444Y-89753999D01*
X132545486Y-89799056D01*
X132549951Y-89807820D01*
X132674890Y-89979786D01*
X132825213Y-90130109D01*
X132997179Y-90255048D01*
X132997181Y-90255049D01*
X132997184Y-90255051D01*
X133186588Y-90351557D01*
X133388757Y-90417246D01*
X133598713Y-90450500D01*
X133598714Y-90450500D01*
X133811286Y-90450500D01*
X133811287Y-90450500D01*
X134021243Y-90417246D01*
X134223412Y-90351557D01*
X134412816Y-90255051D01*
X134434789Y-90239086D01*
X134584786Y-90130109D01*
X134584788Y-90130106D01*
X134584792Y-90130104D01*
X134735104Y-89979792D01*
X134735106Y-89979788D01*
X134735109Y-89979786D01*
X134860048Y-89807820D01*
X134860047Y-89807820D01*
X134860051Y-89807816D01*
X134864514Y-89799054D01*
X134912488Y-89748259D01*
X134980308Y-89731463D01*
X135046444Y-89753999D01*
X135085486Y-89799056D01*
X135089951Y-89807820D01*
X135214890Y-89979786D01*
X135365213Y-90130109D01*
X135537179Y-90255048D01*
X135537181Y-90255049D01*
X135537184Y-90255051D01*
X135726588Y-90351557D01*
X135928757Y-90417246D01*
X136138713Y-90450500D01*
X136138714Y-90450500D01*
X136351286Y-90450500D01*
X136351287Y-90450500D01*
X136561243Y-90417246D01*
X136763412Y-90351557D01*
X136952816Y-90255051D01*
X136974789Y-90239086D01*
X137124786Y-90130109D01*
X137124788Y-90130106D01*
X137124792Y-90130104D01*
X137275104Y-89979792D01*
X137275106Y-89979788D01*
X137275109Y-89979786D01*
X137400048Y-89807820D01*
X137400047Y-89807820D01*
X137400051Y-89807816D01*
X137404514Y-89799054D01*
X137452488Y-89748259D01*
X137520308Y-89731463D01*
X137586444Y-89753999D01*
X137625486Y-89799056D01*
X137629951Y-89807820D01*
X137754890Y-89979786D01*
X137905213Y-90130109D01*
X138077179Y-90255048D01*
X138077181Y-90255049D01*
X138077184Y-90255051D01*
X138266588Y-90351557D01*
X138468757Y-90417246D01*
X138678713Y-90450500D01*
X138678714Y-90450500D01*
X138891286Y-90450500D01*
X138891287Y-90450500D01*
X139101243Y-90417246D01*
X139303412Y-90351557D01*
X139492816Y-90255051D01*
X139514789Y-90239086D01*
X139664786Y-90130109D01*
X139664788Y-90130106D01*
X139664792Y-90130104D01*
X139815104Y-89979792D01*
X139815106Y-89979788D01*
X139815109Y-89979786D01*
X139940048Y-89807820D01*
X139940047Y-89807820D01*
X139940051Y-89807816D01*
X139944514Y-89799054D01*
X139992488Y-89748259D01*
X140060308Y-89731463D01*
X140126444Y-89753999D01*
X140165486Y-89799056D01*
X140169951Y-89807820D01*
X140294890Y-89979786D01*
X140445213Y-90130109D01*
X140617179Y-90255048D01*
X140617181Y-90255049D01*
X140617184Y-90255051D01*
X140806588Y-90351557D01*
X141008757Y-90417246D01*
X141218713Y-90450500D01*
X141218714Y-90450500D01*
X141431286Y-90450500D01*
X141431287Y-90450500D01*
X141641243Y-90417246D01*
X141843412Y-90351557D01*
X142032816Y-90255051D01*
X142054789Y-90239086D01*
X142204786Y-90130109D01*
X142204788Y-90130106D01*
X142204792Y-90130104D01*
X142355104Y-89979792D01*
X142355106Y-89979788D01*
X142355109Y-89979786D01*
X142480048Y-89807820D01*
X142480047Y-89807820D01*
X142480051Y-89807816D01*
X142484514Y-89799054D01*
X142532488Y-89748259D01*
X142600308Y-89731463D01*
X142666444Y-89753999D01*
X142705486Y-89799056D01*
X142709951Y-89807820D01*
X142834890Y-89979786D01*
X142985213Y-90130109D01*
X143157179Y-90255048D01*
X143157181Y-90255049D01*
X143157184Y-90255051D01*
X143346588Y-90351557D01*
X143548757Y-90417246D01*
X143758713Y-90450500D01*
X143758714Y-90450500D01*
X143971286Y-90450500D01*
X143971287Y-90450500D01*
X144181243Y-90417246D01*
X144383412Y-90351557D01*
X144572816Y-90255051D01*
X144594789Y-90239086D01*
X144744786Y-90130109D01*
X144744788Y-90130106D01*
X144744792Y-90130104D01*
X144895104Y-89979792D01*
X144895106Y-89979788D01*
X144895109Y-89979786D01*
X145020048Y-89807820D01*
X145020047Y-89807820D01*
X145020051Y-89807816D01*
X145024514Y-89799054D01*
X145072488Y-89748259D01*
X145140308Y-89731463D01*
X145206444Y-89753999D01*
X145245486Y-89799056D01*
X145249951Y-89807820D01*
X145374890Y-89979786D01*
X145525213Y-90130109D01*
X145697179Y-90255048D01*
X145697181Y-90255049D01*
X145697184Y-90255051D01*
X145886588Y-90351557D01*
X146088757Y-90417246D01*
X146298713Y-90450500D01*
X146298714Y-90450500D01*
X146511286Y-90450500D01*
X146511287Y-90450500D01*
X146721243Y-90417246D01*
X146923412Y-90351557D01*
X147112816Y-90255051D01*
X147134789Y-90239086D01*
X147284786Y-90130109D01*
X147284788Y-90130106D01*
X147284792Y-90130104D01*
X147435104Y-89979792D01*
X147435106Y-89979788D01*
X147435109Y-89979786D01*
X147560048Y-89807820D01*
X147560047Y-89807820D01*
X147560051Y-89807816D01*
X147656557Y-89618412D01*
X147722246Y-89416243D01*
X147755500Y-89206287D01*
X147755500Y-88993713D01*
X147722246Y-88783757D01*
X147656557Y-88581588D01*
X147560051Y-88392184D01*
X147560049Y-88392181D01*
X147560048Y-88392179D01*
X147435109Y-88220213D01*
X147284786Y-88069890D01*
X147112820Y-87944951D01*
X146923414Y-87848444D01*
X146923413Y-87848443D01*
X146923412Y-87848443D01*
X146721243Y-87782754D01*
X146721241Y-87782753D01*
X146721240Y-87782753D01*
X146559957Y-87757208D01*
X146511287Y-87749500D01*
X146298713Y-87749500D01*
X146250042Y-87757208D01*
X146088760Y-87782753D01*
X146088757Y-87782754D01*
X145926549Y-87835459D01*
X145886585Y-87848444D01*
X145697179Y-87944951D01*
X145525213Y-88069890D01*
X145374890Y-88220213D01*
X145249949Y-88392182D01*
X145245484Y-88400946D01*
X145197509Y-88451742D01*
X145129688Y-88468536D01*
X145063553Y-88445998D01*
X145024516Y-88400946D01*
X145020050Y-88392182D01*
X144895109Y-88220213D01*
X144744786Y-88069890D01*
X144572820Y-87944951D01*
X144383414Y-87848444D01*
X144383413Y-87848443D01*
X144383412Y-87848443D01*
X144181243Y-87782754D01*
X144181241Y-87782753D01*
X144181240Y-87782753D01*
X144019957Y-87757208D01*
X143971287Y-87749500D01*
X143758713Y-87749500D01*
X143710042Y-87757208D01*
X143548760Y-87782753D01*
X143548757Y-87782754D01*
X143386549Y-87835459D01*
X143346585Y-87848444D01*
X143157179Y-87944951D01*
X142985213Y-88069890D01*
X142834890Y-88220213D01*
X142709949Y-88392182D01*
X142705484Y-88400946D01*
X142657509Y-88451742D01*
X142589688Y-88468536D01*
X142523553Y-88445998D01*
X142484516Y-88400946D01*
X142480050Y-88392182D01*
X142355109Y-88220213D01*
X142204786Y-88069890D01*
X142032820Y-87944951D01*
X141843414Y-87848444D01*
X141843413Y-87848443D01*
X141843412Y-87848443D01*
X141641243Y-87782754D01*
X141641241Y-87782753D01*
X141641240Y-87782753D01*
X141479957Y-87757208D01*
X141431287Y-87749500D01*
X141218713Y-87749500D01*
X141170042Y-87757208D01*
X141008760Y-87782753D01*
X141008757Y-87782754D01*
X140846549Y-87835459D01*
X140806585Y-87848444D01*
X140617179Y-87944951D01*
X140445213Y-88069890D01*
X140294890Y-88220213D01*
X140169949Y-88392182D01*
X140165484Y-88400946D01*
X140117509Y-88451742D01*
X140049688Y-88468536D01*
X139983553Y-88445998D01*
X139944516Y-88400946D01*
X139940050Y-88392182D01*
X139815109Y-88220213D01*
X139664786Y-88069890D01*
X139492820Y-87944951D01*
X139303414Y-87848444D01*
X139303413Y-87848443D01*
X139303412Y-87848443D01*
X139101243Y-87782754D01*
X139101241Y-87782753D01*
X139101240Y-87782753D01*
X138939957Y-87757208D01*
X138891287Y-87749500D01*
X138678713Y-87749500D01*
X138630042Y-87757208D01*
X138468760Y-87782753D01*
X138468757Y-87782754D01*
X138306549Y-87835459D01*
X138266585Y-87848444D01*
X138077179Y-87944951D01*
X137905213Y-88069890D01*
X137754890Y-88220213D01*
X137629949Y-88392182D01*
X137625484Y-88400946D01*
X137577509Y-88451742D01*
X137509688Y-88468536D01*
X137443553Y-88445998D01*
X137404516Y-88400946D01*
X137400050Y-88392182D01*
X137275109Y-88220213D01*
X137124786Y-88069890D01*
X136952820Y-87944951D01*
X136763414Y-87848444D01*
X136763413Y-87848443D01*
X136763412Y-87848443D01*
X136561243Y-87782754D01*
X136561241Y-87782753D01*
X136561240Y-87782753D01*
X136399957Y-87757208D01*
X136351287Y-87749500D01*
X136138713Y-87749500D01*
X136090042Y-87757208D01*
X135928760Y-87782753D01*
X135928757Y-87782754D01*
X135766549Y-87835459D01*
X135726585Y-87848444D01*
X135537179Y-87944951D01*
X135365213Y-88069890D01*
X135214890Y-88220213D01*
X135089949Y-88392182D01*
X135085484Y-88400946D01*
X135037509Y-88451742D01*
X134969688Y-88468536D01*
X134903553Y-88445998D01*
X134864516Y-88400946D01*
X134860050Y-88392182D01*
X134735109Y-88220213D01*
X134584786Y-88069890D01*
X134412820Y-87944951D01*
X134223414Y-87848444D01*
X134223413Y-87848443D01*
X134223412Y-87848443D01*
X134021243Y-87782754D01*
X134021241Y-87782753D01*
X134021240Y-87782753D01*
X133859957Y-87757208D01*
X133811287Y-87749500D01*
X133598713Y-87749500D01*
X133550042Y-87757208D01*
X133388760Y-87782753D01*
X133388757Y-87782754D01*
X133226549Y-87835459D01*
X133186585Y-87848444D01*
X132997179Y-87944951D01*
X132825213Y-88069890D01*
X132674890Y-88220213D01*
X132549949Y-88392182D01*
X132545484Y-88400946D01*
X132497509Y-88451742D01*
X132429688Y-88468536D01*
X132363553Y-88445998D01*
X132324516Y-88400946D01*
X132320050Y-88392182D01*
X132195109Y-88220213D01*
X132044786Y-88069890D01*
X131872820Y-87944951D01*
X131683414Y-87848444D01*
X131683413Y-87848443D01*
X131683412Y-87848443D01*
X131481243Y-87782754D01*
X131481241Y-87782753D01*
X131481240Y-87782753D01*
X131319957Y-87757208D01*
X131271287Y-87749500D01*
X131058713Y-87749500D01*
X131010042Y-87757208D01*
X130848760Y-87782753D01*
X130848757Y-87782754D01*
X130686549Y-87835459D01*
X130646585Y-87848444D01*
X130457179Y-87944951D01*
X130285213Y-88069890D01*
X130134890Y-88220213D01*
X130009951Y-88392179D01*
X129913444Y-88581585D01*
X129847753Y-88783760D01*
X129814500Y-88993713D01*
X124500500Y-88993713D01*
X124500500Y-76393713D01*
X132099500Y-76393713D01*
X132099500Y-76606287D01*
X132132754Y-76816243D01*
X132155560Y-76886433D01*
X132198444Y-77018414D01*
X132294951Y-77207820D01*
X132419890Y-77379786D01*
X132570213Y-77530109D01*
X132742179Y-77655048D01*
X132742181Y-77655049D01*
X132742184Y-77655051D01*
X132931588Y-77751557D01*
X133133757Y-77817246D01*
X133343713Y-77850500D01*
X133343714Y-77850500D01*
X133556286Y-77850500D01*
X133556287Y-77850500D01*
X133766243Y-77817246D01*
X133968412Y-77751557D01*
X134157816Y-77655051D01*
X134232900Y-77600500D01*
X134329786Y-77530109D01*
X134329788Y-77530106D01*
X134329792Y-77530104D01*
X134480104Y-77379792D01*
X134480106Y-77379788D01*
X134480109Y-77379786D01*
X134605048Y-77207820D01*
X134605047Y-77207820D01*
X134605051Y-77207816D01*
X134609514Y-77199054D01*
X134657488Y-77148259D01*
X134725308Y-77131463D01*
X134791444Y-77153999D01*
X134830486Y-77199056D01*
X134834951Y-77207820D01*
X134959890Y-77379786D01*
X135110213Y-77530109D01*
X135282182Y-77655050D01*
X135290946Y-77659516D01*
X135341742Y-77707491D01*
X135358536Y-77775312D01*
X135335998Y-77841447D01*
X135290946Y-77880484D01*
X135282182Y-77884949D01*
X135110213Y-78009890D01*
X134959890Y-78160213D01*
X134834951Y-78332179D01*
X134738444Y-78521585D01*
X134672753Y-78723760D01*
X134639500Y-78933713D01*
X134639500Y-79146286D01*
X134672753Y-79356239D01*
X134738444Y-79558414D01*
X134834951Y-79747820D01*
X134959890Y-79919786D01*
X135110213Y-80070109D01*
X135282179Y-80195048D01*
X135282181Y-80195049D01*
X135282184Y-80195051D01*
X135471588Y-80291557D01*
X135673757Y-80357246D01*
X135883713Y-80390500D01*
X135883714Y-80390500D01*
X136096286Y-80390500D01*
X136096287Y-80390500D01*
X136306243Y-80357246D01*
X136508412Y-80291557D01*
X136697816Y-80195051D01*
X136719789Y-80179086D01*
X136869786Y-80070109D01*
X136869788Y-80070106D01*
X136869792Y-80070104D01*
X137020104Y-79919792D01*
X137020106Y-79919788D01*
X137020109Y-79919786D01*
X137145048Y-79747820D01*
X137145047Y-79747820D01*
X137145051Y-79747816D01*
X137149514Y-79739054D01*
X137197488Y-79688259D01*
X137265308Y-79671463D01*
X137331444Y-79693999D01*
X137370486Y-79739056D01*
X137374951Y-79747820D01*
X137499890Y-79919786D01*
X137650213Y-80070109D01*
X137822179Y-80195048D01*
X137822181Y-80195049D01*
X137822184Y-80195051D01*
X138011588Y-80291557D01*
X138213757Y-80357246D01*
X138423713Y-80390500D01*
X138423714Y-80390500D01*
X138636286Y-80390500D01*
X138636287Y-80390500D01*
X138846243Y-80357246D01*
X139048412Y-80291557D01*
X139237816Y-80195051D01*
X139259789Y-80179086D01*
X139409786Y-80070109D01*
X139409788Y-80070106D01*
X139409792Y-80070104D01*
X139560104Y-79919792D01*
X139560106Y-79919788D01*
X139560109Y-79919786D01*
X139685048Y-79747820D01*
X139685047Y-79747820D01*
X139685051Y-79747816D01*
X139689514Y-79739054D01*
X139737488Y-79688259D01*
X139805308Y-79671463D01*
X139871444Y-79693999D01*
X139910486Y-79739056D01*
X139914951Y-79747820D01*
X140039890Y-79919786D01*
X140190213Y-80070109D01*
X140362179Y-80195048D01*
X140362181Y-80195049D01*
X140362184Y-80195051D01*
X140551588Y-80291557D01*
X140753757Y-80357246D01*
X140963713Y-80390500D01*
X140963714Y-80390500D01*
X141176286Y-80390500D01*
X141176287Y-80390500D01*
X141386243Y-80357246D01*
X141588412Y-80291557D01*
X141777816Y-80195051D01*
X141799789Y-80179086D01*
X141949786Y-80070109D01*
X141949788Y-80070106D01*
X141949792Y-80070104D01*
X142100104Y-79919792D01*
X142100106Y-79919788D01*
X142100109Y-79919786D01*
X142225048Y-79747820D01*
X142225047Y-79747820D01*
X142225051Y-79747816D01*
X142321557Y-79558412D01*
X142387246Y-79356243D01*
X142420500Y-79146287D01*
X142420500Y-78933713D01*
X142387246Y-78723757D01*
X142321557Y-78521588D01*
X142225051Y-78332184D01*
X142225049Y-78332181D01*
X142225048Y-78332179D01*
X142100109Y-78160213D01*
X141949786Y-78009890D01*
X141777820Y-77884951D01*
X141777115Y-77884591D01*
X141769054Y-77880485D01*
X141718259Y-77832512D01*
X141701463Y-77764692D01*
X141723999Y-77698556D01*
X141769054Y-77659515D01*
X141777816Y-77655051D01*
X141852900Y-77600500D01*
X141949786Y-77530109D01*
X141949788Y-77530106D01*
X141949792Y-77530104D01*
X142100104Y-77379792D01*
X142100106Y-77379788D01*
X142100109Y-77379786D01*
X142225048Y-77207820D01*
X142225047Y-77207820D01*
X142225051Y-77207816D01*
X142321557Y-77018412D01*
X142387246Y-76816243D01*
X142420500Y-76606287D01*
X142420500Y-76393713D01*
X142387246Y-76183757D01*
X142321557Y-75981588D01*
X142225051Y-75792184D01*
X142225049Y-75792181D01*
X142225048Y-75792179D01*
X142100109Y-75620213D01*
X141949786Y-75469890D01*
X141777820Y-75344951D01*
X141588414Y-75248444D01*
X141588413Y-75248443D01*
X141588412Y-75248443D01*
X141386243Y-75182754D01*
X141386241Y-75182753D01*
X141386240Y-75182753D01*
X141224957Y-75157208D01*
X141176287Y-75149500D01*
X140963713Y-75149500D01*
X140915042Y-75157208D01*
X140753760Y-75182753D01*
X140551585Y-75248444D01*
X140362179Y-75344951D01*
X140190213Y-75469890D01*
X140039890Y-75620213D01*
X139914949Y-75792182D01*
X139910484Y-75800946D01*
X139862509Y-75851742D01*
X139794688Y-75868536D01*
X139728553Y-75845998D01*
X139689516Y-75800946D01*
X139685050Y-75792182D01*
X139560109Y-75620213D01*
X139409786Y-75469890D01*
X139237820Y-75344951D01*
X139048414Y-75248444D01*
X139048413Y-75248443D01*
X139048412Y-75248443D01*
X138846243Y-75182754D01*
X138846241Y-75182753D01*
X138846240Y-75182753D01*
X138684957Y-75157208D01*
X138636287Y-75149500D01*
X138423713Y-75149500D01*
X138375042Y-75157208D01*
X138213760Y-75182753D01*
X138011585Y-75248444D01*
X137822179Y-75344951D01*
X137650213Y-75469890D01*
X137499890Y-75620213D01*
X137374949Y-75792182D01*
X137370484Y-75800946D01*
X137322509Y-75851742D01*
X137254688Y-75868536D01*
X137188553Y-75845998D01*
X137149516Y-75800946D01*
X137145050Y-75792182D01*
X137020109Y-75620213D01*
X136869786Y-75469890D01*
X136697820Y-75344951D01*
X136508414Y-75248444D01*
X136508413Y-75248443D01*
X136508412Y-75248443D01*
X136306243Y-75182754D01*
X136306241Y-75182753D01*
X136306240Y-75182753D01*
X136144957Y-75157208D01*
X136096287Y-75149500D01*
X135883713Y-75149500D01*
X135835042Y-75157208D01*
X135673760Y-75182753D01*
X135471585Y-75248444D01*
X135282179Y-75344951D01*
X135110213Y-75469890D01*
X134959890Y-75620213D01*
X134834949Y-75792182D01*
X134830484Y-75800946D01*
X134782509Y-75851742D01*
X134714688Y-75868536D01*
X134648553Y-75845998D01*
X134609516Y-75800946D01*
X134605050Y-75792182D01*
X134480109Y-75620213D01*
X134329786Y-75469890D01*
X134157820Y-75344951D01*
X133968414Y-75248444D01*
X133968413Y-75248443D01*
X133968412Y-75248443D01*
X133766243Y-75182754D01*
X133766241Y-75182753D01*
X133766240Y-75182753D01*
X133604957Y-75157208D01*
X133556287Y-75149500D01*
X133343713Y-75149500D01*
X133295042Y-75157208D01*
X133133760Y-75182753D01*
X132931585Y-75248444D01*
X132742179Y-75344951D01*
X132570213Y-75469890D01*
X132419890Y-75620213D01*
X132294951Y-75792179D01*
X132198444Y-75981585D01*
X132132753Y-76183760D01*
X132127315Y-76218097D01*
X132099500Y-76393713D01*
X124500500Y-76393713D01*
X124500500Y-72624000D01*
X149744500Y-72624000D01*
X149744500Y-87626000D01*
X149744501Y-87626009D01*
X149756052Y-87733450D01*
X149756054Y-87733462D01*
X149767260Y-87784972D01*
X149801383Y-87887497D01*
X149801386Y-87887503D01*
X149879171Y-88008537D01*
X149879179Y-88008548D01*
X149924923Y-88061340D01*
X149924926Y-88061343D01*
X149924930Y-88061347D01*
X150033664Y-88155567D01*
X150033667Y-88155568D01*
X150033668Y-88155569D01*
X150127925Y-88198616D01*
X150164541Y-88215338D01*
X150231580Y-88235023D01*
X150231584Y-88235024D01*
X150374000Y-88255500D01*
X150374003Y-88255500D01*
X161375990Y-88255500D01*
X161376000Y-88255500D01*
X161483456Y-88243947D01*
X161534967Y-88232741D01*
X161572622Y-88220208D01*
X161637497Y-88198616D01*
X161637501Y-88198613D01*
X161637504Y-88198613D01*
X161758543Y-88120825D01*
X161811347Y-88075070D01*
X161905567Y-87966336D01*
X161965338Y-87835459D01*
X161985023Y-87768420D01*
X161985024Y-87768416D01*
X162005500Y-87626000D01*
X162005500Y-73781902D01*
X164499500Y-73781902D01*
X164499500Y-76218097D01*
X164536446Y-76451368D01*
X164609433Y-76675996D01*
X164680891Y-76816239D01*
X164716657Y-76886433D01*
X164855483Y-77077510D01*
X165022490Y-77244517D01*
X165213567Y-77383343D01*
X165312991Y-77434002D01*
X165424003Y-77490566D01*
X165424005Y-77490566D01*
X165424008Y-77490568D01*
X165544412Y-77529689D01*
X165648631Y-77563553D01*
X165881903Y-77600500D01*
X165881908Y-77600500D01*
X166118097Y-77600500D01*
X166351368Y-77563553D01*
X166575992Y-77490568D01*
X166786433Y-77383343D01*
X166977510Y-77244517D01*
X167144517Y-77077510D01*
X167283343Y-76886433D01*
X167390568Y-76675992D01*
X167463553Y-76451368D01*
X167472685Y-76393713D01*
X167500500Y-76218097D01*
X167500500Y-73781902D01*
X167463553Y-73548631D01*
X167390566Y-73324003D01*
X167283342Y-73113566D01*
X167144517Y-72922490D01*
X166977510Y-72755483D01*
X166786433Y-72616657D01*
X166575996Y-72509433D01*
X166351368Y-72436446D01*
X166118097Y-72399500D01*
X166118092Y-72399500D01*
X165881908Y-72399500D01*
X165881903Y-72399500D01*
X165648631Y-72436446D01*
X165424003Y-72509433D01*
X165213566Y-72616657D01*
X165203446Y-72624010D01*
X165022490Y-72755483D01*
X165022488Y-72755485D01*
X165022487Y-72755485D01*
X164855485Y-72922487D01*
X164855485Y-72922488D01*
X164855483Y-72922490D01*
X164795862Y-73004550D01*
X164716657Y-73113566D01*
X164609433Y-73324003D01*
X164536446Y-73548631D01*
X164499500Y-73781902D01*
X162005500Y-73781902D01*
X162005500Y-72624000D01*
X161993947Y-72516544D01*
X161982741Y-72465033D01*
X161973226Y-72436446D01*
X161948616Y-72362502D01*
X161948613Y-72362496D01*
X161870828Y-72241462D01*
X161870825Y-72241457D01*
X161870820Y-72241451D01*
X161825076Y-72188659D01*
X161825072Y-72188656D01*
X161825070Y-72188653D01*
X161716336Y-72094433D01*
X161716333Y-72094431D01*
X161716331Y-72094430D01*
X161585465Y-72034664D01*
X161585460Y-72034662D01*
X161585459Y-72034662D01*
X161518420Y-72014977D01*
X161518422Y-72014977D01*
X161518417Y-72014976D01*
X161456347Y-72006052D01*
X161376000Y-71994500D01*
X150374000Y-71994500D01*
X150373991Y-71994500D01*
X150373990Y-71994501D01*
X150266549Y-72006052D01*
X150266537Y-72006054D01*
X150215027Y-72017260D01*
X150112502Y-72051383D01*
X150112496Y-72051386D01*
X149991462Y-72129171D01*
X149991451Y-72129179D01*
X149938659Y-72174923D01*
X149844433Y-72283664D01*
X149844430Y-72283668D01*
X149784664Y-72414534D01*
X149764976Y-72481582D01*
X149759949Y-72516549D01*
X149744500Y-72624000D01*
X124500500Y-72624000D01*
X124500500Y-70081902D01*
X159999500Y-70081902D01*
X159999500Y-70318097D01*
X160036446Y-70551368D01*
X160109433Y-70775996D01*
X160216657Y-70986433D01*
X160355483Y-71177510D01*
X160522490Y-71344517D01*
X160713567Y-71483343D01*
X160812991Y-71534002D01*
X160924003Y-71590566D01*
X160924005Y-71590566D01*
X160924008Y-71590568D01*
X161044412Y-71629689D01*
X161148631Y-71663553D01*
X161381903Y-71700500D01*
X161381908Y-71700500D01*
X163818097Y-71700500D01*
X164051368Y-71663553D01*
X164275992Y-71590568D01*
X164486433Y-71483343D01*
X164677510Y-71344517D01*
X164844517Y-71177510D01*
X164983343Y-70986433D01*
X165090568Y-70775992D01*
X165163553Y-70551368D01*
X165200500Y-70318097D01*
X165200500Y-70081902D01*
X165163553Y-69848631D01*
X165090566Y-69624003D01*
X164983342Y-69413566D01*
X164844517Y-69222490D01*
X164677510Y-69055483D01*
X164486433Y-68916657D01*
X164275996Y-68809433D01*
X164051368Y-68736446D01*
X163818097Y-68699500D01*
X163818092Y-68699500D01*
X161381908Y-68699500D01*
X161381903Y-68699500D01*
X161148631Y-68736446D01*
X160924003Y-68809433D01*
X160713566Y-68916657D01*
X160604550Y-68995862D01*
X160522490Y-69055483D01*
X160522488Y-69055485D01*
X160522487Y-69055485D01*
X160355485Y-69222487D01*
X160355485Y-69222488D01*
X160355483Y-69222490D01*
X160295862Y-69304550D01*
X160216657Y-69413566D01*
X160109433Y-69624003D01*
X160036446Y-69848631D01*
X159999500Y-70081902D01*
X124500500Y-70081902D01*
X124500500Y-61853713D01*
X132069500Y-61853713D01*
X132069500Y-62066286D01*
X132102753Y-62276239D01*
X132168444Y-62478414D01*
X132264951Y-62667820D01*
X132389890Y-62839786D01*
X132540213Y-62990109D01*
X132712179Y-63115048D01*
X132712181Y-63115049D01*
X132712184Y-63115051D01*
X132901588Y-63211557D01*
X133103757Y-63277246D01*
X133313713Y-63310500D01*
X133313714Y-63310500D01*
X133526286Y-63310500D01*
X133526287Y-63310500D01*
X133736243Y-63277246D01*
X133938412Y-63211557D01*
X134127816Y-63115051D01*
X134149789Y-63099086D01*
X134299786Y-62990109D01*
X134299788Y-62990106D01*
X134299792Y-62990104D01*
X134450104Y-62839792D01*
X134450106Y-62839788D01*
X134450109Y-62839786D01*
X134575048Y-62667820D01*
X134575047Y-62667820D01*
X134575051Y-62667816D01*
X134579514Y-62659054D01*
X134627488Y-62608259D01*
X134695308Y-62591463D01*
X134761444Y-62613999D01*
X134800486Y-62659056D01*
X134804951Y-62667820D01*
X134929890Y-62839786D01*
X135080213Y-62990109D01*
X135252182Y-63115050D01*
X135260946Y-63119516D01*
X135311742Y-63167491D01*
X135328536Y-63235312D01*
X135305998Y-63301447D01*
X135260946Y-63340484D01*
X135252182Y-63344949D01*
X135080213Y-63469890D01*
X134929890Y-63620213D01*
X134804951Y-63792179D01*
X134708444Y-63981585D01*
X134642753Y-64183760D01*
X134609500Y-64393713D01*
X134609500Y-64606286D01*
X134642753Y-64816239D01*
X134708444Y-65018414D01*
X134804951Y-65207820D01*
X134929890Y-65379786D01*
X135080213Y-65530109D01*
X135252179Y-65655048D01*
X135252181Y-65655049D01*
X135252184Y-65655051D01*
X135441588Y-65751557D01*
X135643757Y-65817246D01*
X135853713Y-65850500D01*
X135853714Y-65850500D01*
X136066286Y-65850500D01*
X136066287Y-65850500D01*
X136276243Y-65817246D01*
X136478412Y-65751557D01*
X136667816Y-65655051D01*
X136689789Y-65639086D01*
X136839786Y-65530109D01*
X136839788Y-65530106D01*
X136839792Y-65530104D01*
X136990104Y-65379792D01*
X136990106Y-65379788D01*
X136990109Y-65379786D01*
X137115048Y-65207820D01*
X137115047Y-65207820D01*
X137115051Y-65207816D01*
X137119514Y-65199054D01*
X137167488Y-65148259D01*
X137235308Y-65131463D01*
X137301444Y-65153999D01*
X137340486Y-65199056D01*
X137344951Y-65207820D01*
X137469890Y-65379786D01*
X137620213Y-65530109D01*
X137792179Y-65655048D01*
X137792181Y-65655049D01*
X137792184Y-65655051D01*
X137981588Y-65751557D01*
X138183757Y-65817246D01*
X138393713Y-65850500D01*
X138393714Y-65850500D01*
X138606286Y-65850500D01*
X138606287Y-65850500D01*
X138816243Y-65817246D01*
X139018412Y-65751557D01*
X139207816Y-65655051D01*
X139229789Y-65639086D01*
X139379786Y-65530109D01*
X139379788Y-65530106D01*
X139379792Y-65530104D01*
X139530104Y-65379792D01*
X139530106Y-65379788D01*
X139530109Y-65379786D01*
X139655048Y-65207820D01*
X139655047Y-65207820D01*
X139655051Y-65207816D01*
X139659514Y-65199054D01*
X139707488Y-65148259D01*
X139775308Y-65131463D01*
X139841444Y-65153999D01*
X139880486Y-65199056D01*
X139884951Y-65207820D01*
X140009890Y-65379786D01*
X140160213Y-65530109D01*
X140332179Y-65655048D01*
X140332181Y-65655049D01*
X140332184Y-65655051D01*
X140521588Y-65751557D01*
X140723757Y-65817246D01*
X140933713Y-65850500D01*
X140933714Y-65850500D01*
X141146286Y-65850500D01*
X141146287Y-65850500D01*
X141356243Y-65817246D01*
X141558412Y-65751557D01*
X141747816Y-65655051D01*
X141769789Y-65639086D01*
X141919786Y-65530109D01*
X141919788Y-65530106D01*
X141919792Y-65530104D01*
X142070104Y-65379792D01*
X142070106Y-65379788D01*
X142070109Y-65379786D01*
X142195048Y-65207820D01*
X142195047Y-65207820D01*
X142195051Y-65207816D01*
X142291557Y-65018412D01*
X142357246Y-64816243D01*
X142390500Y-64606287D01*
X142390500Y-64393713D01*
X142357246Y-64183757D01*
X142291557Y-63981588D01*
X142195051Y-63792184D01*
X142195049Y-63792181D01*
X142195048Y-63792179D01*
X142070109Y-63620213D01*
X141919786Y-63469890D01*
X141747820Y-63344951D01*
X141747115Y-63344591D01*
X141739054Y-63340485D01*
X141688259Y-63292512D01*
X141671463Y-63224692D01*
X141693999Y-63158556D01*
X141739054Y-63119515D01*
X141747816Y-63115051D01*
X141769789Y-63099086D01*
X141919786Y-62990109D01*
X141919788Y-62990106D01*
X141919792Y-62990104D01*
X142070104Y-62839792D01*
X142070106Y-62839788D01*
X142070109Y-62839786D01*
X142195048Y-62667820D01*
X142195047Y-62667820D01*
X142195051Y-62667816D01*
X142291557Y-62478412D01*
X142357246Y-62276243D01*
X142390500Y-62066287D01*
X142390500Y-61853713D01*
X142357246Y-61643757D01*
X142291557Y-61441588D01*
X142195051Y-61252184D01*
X142195049Y-61252181D01*
X142195048Y-61252179D01*
X142070109Y-61080213D01*
X141919786Y-60929890D01*
X141747820Y-60804951D01*
X141558414Y-60708444D01*
X141558413Y-60708443D01*
X141558412Y-60708443D01*
X141356243Y-60642754D01*
X141356241Y-60642753D01*
X141356240Y-60642753D01*
X141194957Y-60617208D01*
X141146287Y-60609500D01*
X140933713Y-60609500D01*
X140885042Y-60617208D01*
X140723760Y-60642753D01*
X140521585Y-60708444D01*
X140332179Y-60804951D01*
X140160213Y-60929890D01*
X140009890Y-61080213D01*
X139884949Y-61252182D01*
X139880484Y-61260946D01*
X139832509Y-61311742D01*
X139764688Y-61328536D01*
X139698553Y-61305998D01*
X139659516Y-61260946D01*
X139655050Y-61252182D01*
X139530109Y-61080213D01*
X139379786Y-60929890D01*
X139207820Y-60804951D01*
X139018414Y-60708444D01*
X139018413Y-60708443D01*
X139018412Y-60708443D01*
X138816243Y-60642754D01*
X138816241Y-60642753D01*
X138816240Y-60642753D01*
X138654957Y-60617208D01*
X138606287Y-60609500D01*
X138393713Y-60609500D01*
X138345042Y-60617208D01*
X138183760Y-60642753D01*
X137981585Y-60708444D01*
X137792179Y-60804951D01*
X137620213Y-60929890D01*
X137469890Y-61080213D01*
X137344949Y-61252182D01*
X137340484Y-61260946D01*
X137292509Y-61311742D01*
X137224688Y-61328536D01*
X137158553Y-61305998D01*
X137119516Y-61260946D01*
X137115050Y-61252182D01*
X136990109Y-61080213D01*
X136839786Y-60929890D01*
X136667820Y-60804951D01*
X136478414Y-60708444D01*
X136478413Y-60708443D01*
X136478412Y-60708443D01*
X136276243Y-60642754D01*
X136276241Y-60642753D01*
X136276240Y-60642753D01*
X136114957Y-60617208D01*
X136066287Y-60609500D01*
X135853713Y-60609500D01*
X135805042Y-60617208D01*
X135643760Y-60642753D01*
X135441585Y-60708444D01*
X135252179Y-60804951D01*
X135080213Y-60929890D01*
X134929890Y-61080213D01*
X134804949Y-61252182D01*
X134800484Y-61260946D01*
X134752509Y-61311742D01*
X134684688Y-61328536D01*
X134618553Y-61305998D01*
X134579516Y-61260946D01*
X134575050Y-61252182D01*
X134450109Y-61080213D01*
X134299786Y-60929890D01*
X134127820Y-60804951D01*
X133938414Y-60708444D01*
X133938413Y-60708443D01*
X133938412Y-60708443D01*
X133736243Y-60642754D01*
X133736241Y-60642753D01*
X133736240Y-60642753D01*
X133574957Y-60617208D01*
X133526287Y-60609500D01*
X133313713Y-60609500D01*
X133265042Y-60617208D01*
X133103760Y-60642753D01*
X132901585Y-60708444D01*
X132712179Y-60804951D01*
X132540213Y-60929890D01*
X132389890Y-61080213D01*
X132264951Y-61252179D01*
X132168444Y-61441585D01*
X132102753Y-61643760D01*
X132069500Y-61853713D01*
X124500500Y-61853713D01*
X124500500Y-57124500D01*
X124520185Y-57057461D01*
X124572989Y-57011706D01*
X124624500Y-57000500D01*
X172375500Y-57000500D01*
X172442539Y-57020185D01*
G37*
%TD.AperFunction*%
%TD*%
M02*
