M48
; DRILL file {KiCad 9.0.3-9.0.3-0~ubuntu24.04.1} date 2026-04-21T10:36:45+0300
; FORMAT={-:-/ absolute / metric / decimal}
; #@! TF.CreationDate,2026-04-21T10:36:45+03:00
; #@! TF.GenerationSoftware,Kicad,Pcbnew,9.0.3-9.0.3-0~ubuntu24.04.1
; #@! TF.FileFunction,Plated,1,2,PTH
FMAT,2
METRIC
; #@! TA.AperFunction,Plated,PTH,ComponentDrill
T1C1.000
; #@! TA.AperFunction,Plated,PTH,ComponentDrill
T2C1.300
%
G90
G05
T1
X128.625Y-89.1
X131.165Y-89.1
X133.42Y-61.96
X133.42Y-64.5
X133.45Y-76.5
X133.45Y-79.04
X133.705Y-89.1
X135.96Y-61.96
X135.96Y-64.5
X135.99Y-76.5
X135.99Y-79.04
X136.245Y-89.1
X138.5Y-61.96
X138.5Y-64.5
X138.53Y-76.5
X138.53Y-79.04
X138.785Y-89.1
X141.04Y-61.96
X141.04Y-64.5
X141.07Y-76.5
X141.07Y-79.04
X141.325Y-89.1
X143.865Y-89.1
X146.405Y-89.1
T2
X153.0Y-65.6
X153.0Y-70.8
X153.0Y-80.9
X153.0Y-86.1
T1
X159.7Y-76.3G85X159.7Y-73.7
G05
X161.5Y-70.2G85X163.7Y-70.2
G05
X166.0Y-76.1G85X166.0Y-73.9
G05
M30
