%TF.GenerationSoftware,KiCad,Pcbnew,9.0.9-9.0.9~ubuntu24.04.1*%
%TF.CreationDate,2026-09-22T11:37:43+03:00*%
%TF.ProjectId,clock,636c6f63-6b2e-46b6-9963-61645f706362,rev?*%
%TF.SameCoordinates,Original*%
%TF.FileFunction,Copper,L2,Bot*%
%TF.FilePolarity,Positive*%
%FSLAX46Y46*%
G04 Gerber Fmt 4.6, Leading zero omitted, Abs format (unit mm)*
G04 Created by KiCad (PCBNEW 9.0.9-9.0.9~ubuntu24.04.1) date 2026-09-22 11:37:43*
%MOMM*%
%LPD*%
G01*
G04 APERTURE LIST*
G04 Aperture macros list*
%AMRoundRect*
0 Rectangle with rounded corners*
0 $1 Rounding radius*
0 $2 $3 $4 $5 $6 $7 $8 $9 X,Y pos of 4 corners*
0 Add a 4 corners polygon primitive as box body*
4,1,4,$2,$3,$4,$5,$6,$7,$8,$9,$2,$3,0*
0 Add four circle primitives for the rounded corners*
1,1,$1+$1,$2,$3*
1,1,$1+$1,$4,$5*
1,1,$1+$1,$6,$7*
1,1,$1+$1,$8,$9*
0 Add four rect primitives between the rounded corners*
20,1,$1+$1,$2,$3,$4,$5,0*
20,1,$1+$1,$4,$5,$6,$7,0*
20,1,$1+$1,$6,$7,$8,$9,0*
20,1,$1+$1,$8,$9,$2,$3,0*%
G04 Aperture macros list end*
%TA.AperFunction,ComponentPad*%
%ADD10C,2.100000*%
%TD*%
%TA.AperFunction,ComponentPad*%
%ADD11RoundRect,0.250000X0.550000X0.550000X-0.550000X0.550000X-0.550000X-0.550000X0.550000X-0.550000X0*%
%TD*%
%TA.AperFunction,ComponentPad*%
%ADD12C,1.600000*%
%TD*%
%TA.AperFunction,ComponentPad*%
%ADD13R,1.700000X1.700000*%
%TD*%
%TA.AperFunction,ComponentPad*%
%ADD14C,1.700000*%
%TD*%
%TA.AperFunction,ComponentPad*%
%ADD15RoundRect,0.250000X-0.550000X0.550000X-0.550000X-0.550000X0.550000X-0.550000X0.550000X0.550000X0*%
%TD*%
%TA.AperFunction,ComponentPad*%
%ADD16RoundRect,0.250000X-0.600000X-0.600000X0.600000X-0.600000X0.600000X0.600000X-0.600000X0.600000X0*%
%TD*%
%TA.AperFunction,ComponentPad*%
%ADD17RoundRect,0.250000X0.600000X-0.600000X0.600000X0.600000X-0.600000X0.600000X-0.600000X-0.600000X0*%
%TD*%
%TA.AperFunction,ComponentPad*%
%ADD18O,2.000000X3.000000*%
%TD*%
%TA.AperFunction,Conductor*%
%ADD19C,0.200000*%
%TD*%
G04 APERTURE END LIST*
D10*
%TO.P,K2,1*%
%TO.N,Net-(K2-Pad1)*%
X115866667Y-69830000D03*
%TO.P,K2,2*%
%TO.N,unconnected-(K2-Pad2)*%
X120266667Y-69830000D03*
%TO.P,K2,3*%
%TO.N,unconnected-(K2-Pad3)*%
X124666667Y-69830000D03*
%TO.P,K2,4*%
%TO.N,unconnected-(K2-Pad4)*%
X129066667Y-69830000D03*
%TO.P,K2,5*%
%TO.N,unconnected-(K2-Pad5)*%
X115866667Y-73930000D03*
%TO.P,K2,6*%
%TO.N,Net-(D3-K)*%
X120266667Y-73930000D03*
%TO.P,K2,7*%
%TO.N,Net-(K2-Pad7)*%
X124666667Y-73930000D03*
%TO.P,K2,8*%
%TO.N,Net-(J1-D1)*%
X129066667Y-73930000D03*
%TO.P,K2,9*%
%TO.N,Net-(J3-ENABLE)*%
X115866667Y-80280000D03*
%TO.P,K2,10*%
%TO.N,Net-(K1-Pad1)*%
X120266667Y-80280000D03*
%TO.P,K2,11*%
%TO.N,+24V*%
X124666667Y-80280000D03*
%TO.P,K2,12*%
%TO.N,Net-(K1-Pad7)*%
X129066667Y-80280000D03*
%TO.P,K2,13*%
%TO.N,GND*%
X129066667Y-86630000D03*
%TO.P,K2,14*%
%TO.N,Net-(D2-K)*%
X115866667Y-86630000D03*
%TD*%
D11*
%TO.P,D6,1,K*%
%TO.N,Net-(D6-K)*%
X120800000Y-118800000D03*
D12*
%TO.P,D6,2,A*%
%TO.N,Net-(D5-A)*%
X113180000Y-118800000D03*
%TD*%
D13*
%TO.P,J7,1,+V*%
%TO.N,+24V*%
X125970000Y-125600000D03*
D14*
%TO.P,J7,2,D0*%
%TO.N,Net-(D6-K)*%
X128510000Y-125600000D03*
%TO.P,J7,3,D1*%
%TO.N,Net-(J1-D1)*%
X131050000Y-125600000D03*
%TO.P,J7,4,D2*%
%TO.N,Net-(J1-D2)*%
X133590000Y-125600000D03*
%TO.P,J7,5,D3*%
%TO.N,Net-(J1-D3)*%
X136130000Y-125600000D03*
%TO.P,J7,6,NC*%
%TO.N,unconnected-(J7-NC-Pad6)*%
X138670000Y-125600000D03*
%TO.P,J7,7,NC*%
%TO.N,unconnected-(J7-NC-Pad7)*%
X141210000Y-125600000D03*
%TO.P,J7,8,GND*%
%TO.N,GND*%
X143750000Y-125600000D03*
%TD*%
D13*
%TO.P,J6,1,+V*%
%TO.N,+24V*%
X94400000Y-107875000D03*
D14*
%TO.P,J6,2,PHASE1*%
%TO.N,Net-(J5-PHASE1)*%
X94400000Y-110415000D03*
%TO.P,J6,3,PHASE2*%
%TO.N,Net-(D1-K)*%
X94400000Y-112955000D03*
%TO.P,J6,4,ENABLE*%
%TO.N,Net-(J3-ENABLE)*%
X94400000Y-115495000D03*
%TO.P,J6,5,OUT*%
%TO.N,Net-(J5-OUT)*%
X94400000Y-118035000D03*
%TO.P,J6,6,NC*%
%TO.N,unconnected-(J6-NC-Pad6)*%
X94400000Y-120575000D03*
%TO.P,J6,7,NC*%
%TO.N,unconnected-(J6-NC-Pad7)*%
X94400000Y-123115000D03*
%TO.P,J6,8,GND*%
%TO.N,GND*%
X94400000Y-125655000D03*
%TD*%
D11*
%TO.P,D5,1,K*%
%TO.N,Net-(D1-K)*%
X120730000Y-114240000D03*
D12*
%TO.P,D5,2,A*%
%TO.N,Net-(D5-A)*%
X113110000Y-114240000D03*
%TD*%
D15*
%TO.P,C2,1*%
%TO.N,Net-(D2-K)*%
X126000000Y-98347349D03*
D12*
%TO.P,C2,2*%
%TO.N,GND*%
X126000000Y-101847349D03*
%TD*%
D10*
%TO.P,K3,1*%
%TO.N,Net-(K3-Pad1)*%
X140933333Y-69830000D03*
%TO.P,K3,2*%
%TO.N,unconnected-(K3-Pad2)*%
X145333333Y-69830000D03*
%TO.P,K3,3*%
%TO.N,unconnected-(K3-Pad3)*%
X149733333Y-69830000D03*
%TO.P,K3,4*%
%TO.N,unconnected-(K3-Pad4)*%
X154133333Y-69830000D03*
%TO.P,K3,5*%
%TO.N,unconnected-(K3-Pad5)*%
X140933333Y-73930000D03*
%TO.P,K3,6*%
%TO.N,Net-(D4-K)*%
X145333333Y-73930000D03*
%TO.P,K3,7*%
%TO.N,Net-(K3-Pad7)*%
X149733333Y-73930000D03*
%TO.P,K3,8*%
%TO.N,Net-(J1-D2)*%
X154133333Y-73930000D03*
%TO.P,K3,9*%
%TO.N,Net-(J3-ENABLE)*%
X140933333Y-80280000D03*
%TO.P,K3,10*%
%TO.N,Net-(K2-Pad1)*%
X145333333Y-80280000D03*
%TO.P,K3,11*%
%TO.N,+24V*%
X149733333Y-80280000D03*
%TO.P,K3,12*%
%TO.N,Net-(K2-Pad7)*%
X154133333Y-80280000D03*
%TO.P,K3,13*%
%TO.N,GND*%
X154133333Y-86630000D03*
%TO.P,K3,14*%
%TO.N,Net-(D3-K)*%
X140933333Y-86630000D03*
%TD*%
D16*
%TO.P,J5,1,+V*%
%TO.N,+24V*%
X101750000Y-112940000D03*
D14*
%TO.P,J5,2,PHASE1*%
%TO.N,Net-(J5-PHASE1)*%
X104290000Y-112940000D03*
%TO.P,J5,3,PHASE2*%
%TO.N,Net-(D1-K)*%
X101750000Y-115480000D03*
%TO.P,J5,4,ENABLE*%
%TO.N,Net-(J3-ENABLE)*%
X104290000Y-115480000D03*
%TO.P,J5,5,OUT*%
%TO.N,Net-(J5-OUT)*%
X101750000Y-118020000D03*
%TO.P,J5,6,NC*%
%TO.N,unconnected-(J5-NC-Pad6)*%
X104290000Y-118020000D03*
%TO.P,J5,7,NC*%
%TO.N,unconnected-(J5-NC-Pad7)*%
X101750000Y-120560000D03*
%TO.P,J5,8,GND*%
%TO.N,GND*%
X104290000Y-120560000D03*
%TD*%
D16*
%TO.P,J3,1,+V*%
%TO.N,+24V*%
X172750000Y-112940000D03*
D14*
%TO.P,J3,2,PHASE1*%
%TO.N,Net-(J3-PHASE1)*%
X175290000Y-112940000D03*
%TO.P,J3,3,PHASE2*%
%TO.N,Net-(J3-PHASE2)*%
X172750000Y-115480000D03*
%TO.P,J3,4,ENABLE*%
%TO.N,Net-(J3-ENABLE)*%
X175290000Y-115480000D03*
%TO.P,J3,5,OUT*%
%TO.N,Net-(J3-OUT)*%
X172750000Y-118020000D03*
%TO.P,J3,6,NC*%
%TO.N,unconnected-(J3-NC-Pad6)*%
X175290000Y-118020000D03*
%TO.P,J3,7,NC*%
%TO.N,unconnected-(J3-NC-Pad7)*%
X172750000Y-120560000D03*
%TO.P,J3,8,GND*%
%TO.N,GND*%
X175290000Y-120560000D03*
%TD*%
D15*
%TO.P,D4,1,K*%
%TO.N,Net-(D4-K)*%
X167250000Y-97000000D03*
D12*
%TO.P,D4,2,A*%
%TO.N,GND*%
X167250000Y-104620000D03*
%TD*%
D10*
%TO.P,K4,1*%
%TO.N,Net-(J3-PHASE1)*%
X166000000Y-69830000D03*
%TO.P,K4,2*%
%TO.N,unconnected-(K4-Pad2)*%
X170400000Y-69830000D03*
%TO.P,K4,3*%
%TO.N,unconnected-(K4-Pad3)*%
X174800000Y-69830000D03*
%TO.P,K4,4*%
%TO.N,unconnected-(K4-Pad4)*%
X179200000Y-69830000D03*
%TO.P,K4,5*%
%TO.N,unconnected-(K4-Pad5)*%
X166000000Y-73930000D03*
%TO.P,K4,6*%
%TO.N,Net-(J3-PHASE2)*%
X170400000Y-73930000D03*
%TO.P,K4,7*%
%TO.N,Net-(J3-OUT)*%
X174800000Y-73930000D03*
%TO.P,K4,8*%
%TO.N,Net-(J1-D3)*%
X179200000Y-73930000D03*
%TO.P,K4,9*%
%TO.N,Net-(J3-ENABLE)*%
X166000000Y-80280000D03*
%TO.P,K4,10*%
%TO.N,Net-(K3-Pad1)*%
X170400000Y-80280000D03*
%TO.P,K4,11*%
%TO.N,+24V*%
X174800000Y-80280000D03*
%TO.P,K4,12*%
%TO.N,Net-(K3-Pad7)*%
X179200000Y-80280000D03*
%TO.P,K4,13*%
%TO.N,GND*%
X179200000Y-86630000D03*
%TO.P,K4,14*%
%TO.N,Net-(D4-K)*%
X166000000Y-86630000D03*
%TD*%
D15*
%TO.P,D1,1,K*%
%TO.N,Net-(D1-K)*%
X92500000Y-96190000D03*
D12*
%TO.P,D1,2,A*%
%TO.N,GND*%
X92500000Y-103810000D03*
%TD*%
D15*
%TO.P,D3,1,K*%
%TO.N,Net-(D3-K)*%
X142250000Y-96690000D03*
D12*
%TO.P,D3,2,A*%
%TO.N,GND*%
X142250000Y-104310000D03*
%TD*%
D15*
%TO.P,C3,1*%
%TO.N,Net-(D3-K)*%
X151000000Y-98500000D03*
D12*
%TO.P,C3,2*%
%TO.N,GND*%
X151000000Y-102000000D03*
%TD*%
D13*
%TO.P,J4,1,+V*%
%TO.N,+24V*%
X182615000Y-107860000D03*
D14*
%TO.P,J4,2,PHASE1*%
%TO.N,Net-(J3-PHASE1)*%
X182615000Y-110400000D03*
%TO.P,J4,3,PHASE2*%
%TO.N,Net-(J3-PHASE2)*%
X182615000Y-112940000D03*
%TO.P,J4,4,ENABLE*%
%TO.N,Net-(J3-ENABLE)*%
X182615000Y-115480000D03*
%TO.P,J4,5,OUT*%
%TO.N,Net-(J3-OUT)*%
X182615000Y-118020000D03*
%TO.P,J4,6,NC*%
%TO.N,unconnected-(J4-NC-Pad6)*%
X182615000Y-120560000D03*
%TO.P,J4,7,NC*%
%TO.N,unconnected-(J4-NC-Pad7)*%
X182615000Y-123100000D03*
%TO.P,J4,8,GND*%
%TO.N,GND*%
X182615000Y-125640000D03*
%TD*%
D17*
%TO.P,J1,1,+V*%
%TO.N,+24V*%
X131035000Y-118750000D03*
D14*
%TO.P,J1,2,D0*%
%TO.N,Net-(D6-K)*%
X131035000Y-116210000D03*
%TO.P,J1,3,D1*%
%TO.N,Net-(J1-D1)*%
X133575000Y-118750000D03*
%TO.P,J1,4,D2*%
%TO.N,Net-(J1-D2)*%
X133575000Y-116210000D03*
%TO.P,J1,5,D3*%
%TO.N,Net-(J1-D3)*%
X136115000Y-118750000D03*
%TO.P,J1,6,NC*%
%TO.N,unconnected-(J1-NC-Pad6)*%
X136115000Y-116210000D03*
%TO.P,J1,7,NC*%
%TO.N,unconnected-(J1-NC-Pad7)*%
X138655000Y-118750000D03*
%TO.P,J1,8,GND*%
%TO.N,GND*%
X138655000Y-116210000D03*
%TD*%
D10*
%TO.P,K1,1*%
%TO.N,Net-(K1-Pad1)*%
X90800000Y-69700000D03*
%TO.P,K1,2*%
%TO.N,unconnected-(K1-Pad2)*%
X95200000Y-69700000D03*
%TO.P,K1,3*%
%TO.N,unconnected-(K1-Pad3)*%
X99600000Y-69700000D03*
%TO.P,K1,4*%
%TO.N,unconnected-(K1-Pad4)*%
X104000000Y-69700000D03*
%TO.P,K1,5*%
%TO.N,unconnected-(K1-Pad5)*%
X90800000Y-73800000D03*
%TO.P,K1,6*%
%TO.N,Net-(D2-K)*%
X95200000Y-73800000D03*
%TO.P,K1,7*%
%TO.N,Net-(K1-Pad7)*%
X99600000Y-73800000D03*
%TO.P,K1,8*%
%TO.N,Net-(D6-K)*%
X104000000Y-73800000D03*
%TO.P,K1,9*%
%TO.N,Net-(J3-ENABLE)*%
X90800000Y-80150000D03*
%TO.P,K1,10*%
%TO.N,Net-(J5-PHASE1)*%
X95200000Y-80150000D03*
%TO.P,K1,11*%
%TO.N,+24V*%
X99600000Y-80150000D03*
%TO.P,K1,12*%
%TO.N,Net-(J5-OUT)*%
X104000000Y-80150000D03*
%TO.P,K1,13*%
%TO.N,GND*%
X104000000Y-86500000D03*
%TO.P,K1,14*%
%TO.N,Net-(D1-K)*%
X90800000Y-86500000D03*
%TD*%
D15*
%TO.P,C4,1*%
%TO.N,Net-(D4-K)*%
X176250000Y-98500000D03*
D12*
%TO.P,C4,2*%
%TO.N,GND*%
X176250000Y-102000000D03*
%TD*%
D15*
%TO.P,D2,1,K*%
%TO.N,Net-(D2-K)*%
X117250000Y-96440000D03*
D12*
%TO.P,D2,2,A*%
%TO.N,GND*%
X117250000Y-104060000D03*
%TD*%
D18*
%TO.P,SW1,1,A*%
%TO.N,Net-(J3-ENABLE)*%
X177620000Y-57910000D03*
%TO.P,SW1,2,B*%
%TO.N,+24V*%
X172920000Y-57910000D03*
%TO.P,SW1,3,C*%
%TO.N,unconnected-(SW1-C-Pad3)*%
X168220000Y-57910000D03*
%TD*%
D15*
%TO.P,C1,1*%
%TO.N,Net-(D1-K)*%
X101000000Y-98347349D03*
D12*
%TO.P,C1,2*%
%TO.N,GND*%
X101000000Y-101847349D03*
%TD*%
D19*
%TO.N,Net-(D1-K)*%
X112474365Y-115340000D02*
X119630000Y-115340000D01*
X94400000Y-112955000D02*
X96925000Y-115480000D01*
X92500000Y-96190000D02*
X98842651Y-96190000D01*
X98842651Y-96190000D02*
X101000000Y-98347349D01*
X102900000Y-114330000D02*
X111464365Y-114330000D01*
X101750000Y-115480000D02*
X102900000Y-114330000D01*
X111464365Y-114330000D02*
X112474365Y-115340000D01*
X96925000Y-115480000D02*
X101750000Y-115480000D01*
X119630000Y-115340000D02*
X120730000Y-114240000D01*
%TO.N,Net-(D2-K)*%
X124092651Y-96440000D02*
X126000000Y-98347349D01*
X117250000Y-96440000D02*
X124092651Y-96440000D01*
%TO.N,Net-(D3-K)*%
X142250000Y-96690000D02*
X149190000Y-96690000D01*
X149190000Y-96690000D02*
X151000000Y-98500000D01*
%TO.N,Net-(D4-K)*%
X174750000Y-97000000D02*
X176250000Y-98500000D01*
X167250000Y-97000000D02*
X174750000Y-97000000D01*
%TO.N,Net-(J1-D2)*%
X134725000Y-117360000D02*
X133575000Y-116210000D01*
X133590000Y-125600000D02*
X134725000Y-124465000D01*
X134725000Y-124465000D02*
X134725000Y-117360000D01*
%TO.N,Net-(J1-D1)*%
X133575000Y-123075000D02*
X133575000Y-118750000D01*
X131050000Y-125600000D02*
X133575000Y-123075000D01*
%TO.N,Net-(J1-D3)*%
X136130000Y-125600000D02*
X136130000Y-118765000D01*
X136130000Y-118765000D02*
X136115000Y-118750000D01*
%TO.N,Net-(J3-PHASE1)*%
X182615000Y-110400000D02*
X180075000Y-112940000D01*
X180075000Y-112940000D02*
X175290000Y-112940000D01*
%TO.N,Net-(J3-ENABLE)*%
X183765000Y-114330000D02*
X183765000Y-98045000D01*
X117216667Y-81630000D02*
X139583333Y-81630000D01*
X140933333Y-80280000D02*
X142283333Y-81630000D01*
X92300000Y-81650000D02*
X114496667Y-81650000D01*
X142283333Y-81630000D02*
X164650000Y-81630000D01*
X183765000Y-98045000D02*
X166000000Y-80280000D01*
X139583333Y-81630000D02*
X140933333Y-80280000D01*
X164650000Y-81630000D02*
X166000000Y-80280000D01*
X114496667Y-81650000D02*
X115866667Y-80280000D01*
X90800000Y-80150000D02*
X92300000Y-81650000D01*
X182615000Y-115480000D02*
X183765000Y-114330000D01*
X103140000Y-116630000D02*
X104290000Y-115480000D01*
X95535000Y-116630000D02*
X103140000Y-116630000D01*
X94400000Y-115495000D02*
X95535000Y-116630000D01*
X115866667Y-80280000D02*
X117216667Y-81630000D01*
X182615000Y-115480000D02*
X175290000Y-115480000D01*
%TO.N,Net-(J3-OUT)*%
X181225000Y-116630000D02*
X174140000Y-116630000D01*
X182615000Y-118020000D02*
X181225000Y-116630000D01*
X174140000Y-116630000D02*
X172750000Y-118020000D01*
%TO.N,Net-(J3-PHASE2)*%
X181465000Y-114090000D02*
X174140000Y-114090000D01*
X182615000Y-112940000D02*
X181465000Y-114090000D01*
X174140000Y-114090000D02*
X172750000Y-115480000D01*
%TO.N,Net-(J5-PHASE1)*%
X101765000Y-110415000D02*
X104290000Y-112940000D01*
X94400000Y-110415000D02*
X101765000Y-110415000D01*
%TO.N,Net-(J5-OUT)*%
X101735000Y-118035000D02*
X101750000Y-118020000D01*
X94400000Y-118035000D02*
X101735000Y-118035000D01*
%TO.N,Net-(K1-Pad7)*%
X117390000Y-75280000D02*
X119450000Y-77340000D01*
X101080000Y-75280000D02*
X117390000Y-75280000D01*
X119450000Y-77340000D02*
X126126667Y-77340000D01*
X126126667Y-77340000D02*
X129066667Y-80280000D01*
X99600000Y-73800000D02*
X101080000Y-75280000D01*
%TO.N,Net-(K1-Pad1)*%
X115666667Y-75680000D02*
X120266667Y-80280000D01*
X99570811Y-75680000D02*
X115666667Y-75680000D01*
X90800000Y-69700000D02*
X93550000Y-72450000D01*
X93550000Y-72450000D02*
X96340811Y-72450000D01*
X96340811Y-72450000D02*
X99570811Y-75680000D01*
%TO.N,Net-(K2-Pad1)*%
X115866667Y-69830000D02*
X117216667Y-71180000D01*
X125767478Y-76940000D02*
X141993333Y-76940000D01*
X120007478Y-71180000D02*
X125767478Y-76940000D01*
X117216667Y-71180000D02*
X120007478Y-71180000D01*
X141993333Y-76940000D02*
X145333333Y-80280000D01*
%TO.N,Net-(K2-Pad7)*%
X124666667Y-73930000D02*
X127146667Y-76410000D01*
X127146667Y-76410000D02*
X150263333Y-76410000D01*
X150263333Y-76410000D02*
X154133333Y-80280000D01*
%TO.N,Net-(K3-Pad1)*%
X149322522Y-76010000D02*
X150429019Y-76010000D01*
X140933333Y-69830000D02*
X143142522Y-69830000D01*
X153349019Y-78930000D02*
X169050000Y-78930000D01*
X150429019Y-76010000D02*
X153349019Y-78930000D01*
X143142522Y-69830000D02*
X149322522Y-76010000D01*
X169050000Y-78930000D02*
X170400000Y-80280000D01*
%TO.N,Net-(K3-Pad7)*%
X175260000Y-76340000D02*
X179200000Y-80280000D01*
X152143333Y-76340000D02*
X175260000Y-76340000D01*
X149733333Y-73930000D02*
X152143333Y-76340000D01*
%TO.N,Net-(D6-K)*%
X128510000Y-118735000D02*
X131035000Y-116210000D01*
X128510000Y-125600000D02*
X128510000Y-118735000D01*
X128445000Y-118800000D02*
X128510000Y-118735000D01*
X120800000Y-118800000D02*
X128445000Y-118800000D01*
%TD*%
%TA.AperFunction,Conductor*%
%TO.N,GND*%
G36*
X184442539Y-50520185D02*
G01*
X184488294Y-50572989D01*
X184499500Y-50624500D01*
X184499500Y-97653417D01*
X184492142Y-97678473D01*
X184488559Y-97704345D01*
X184482455Y-97711462D01*
X184479815Y-97720456D01*
X184460080Y-97737556D01*
X184443077Y-97757385D01*
X184434094Y-97760072D01*
X184427011Y-97766211D01*
X184401160Y-97769927D01*
X184376140Y-97777415D01*
X184367132Y-97774820D01*
X184357853Y-97776155D01*
X184334094Y-97765304D01*
X184309000Y-97758077D01*
X184298441Y-97749022D01*
X184294297Y-97747130D01*
X184289599Y-97741440D01*
X184282208Y-97735102D01*
X184274193Y-97725948D01*
X184245520Y-97676284D01*
X184133716Y-97564480D01*
X184133713Y-97564478D01*
X167492478Y-80923243D01*
X167458993Y-80861920D01*
X167462228Y-80797244D01*
X167512321Y-80643076D01*
X167550500Y-80402027D01*
X167550500Y-80157973D01*
X167512321Y-79916924D01*
X167439503Y-79692816D01*
X167437509Y-79622977D01*
X167473589Y-79563144D01*
X167536290Y-79532316D01*
X167557435Y-79530500D01*
X168749903Y-79530500D01*
X168779343Y-79539144D01*
X168809330Y-79545668D01*
X168814345Y-79549422D01*
X168816942Y-79550185D01*
X168837584Y-79566819D01*
X168907520Y-79636755D01*
X168941005Y-79698078D01*
X168937770Y-79762753D01*
X168887679Y-79916920D01*
X168870090Y-80027973D01*
X168849500Y-80157973D01*
X168849500Y-80402027D01*
X168887679Y-80643076D01*
X168963096Y-80875185D01*
X169041723Y-81029500D01*
X169073896Y-81092642D01*
X169217339Y-81290076D01*
X169217343Y-81290081D01*
X169389918Y-81462656D01*
X169389923Y-81462660D01*
X169560929Y-81586902D01*
X169587361Y-81606106D01*
X169804815Y-81716904D01*
X170036924Y-81792321D01*
X170277973Y-81830500D01*
X170277974Y-81830500D01*
X170522026Y-81830500D01*
X170522027Y-81830500D01*
X170763076Y-81792321D01*
X170995185Y-81716904D01*
X171212639Y-81606106D01*
X171410083Y-81462655D01*
X171582655Y-81290083D01*
X171726106Y-81092639D01*
X171836904Y-80875185D01*
X171912321Y-80643076D01*
X171950500Y-80402027D01*
X171950500Y-80157973D01*
X173249500Y-80157973D01*
X173249500Y-80402027D01*
X173287679Y-80643076D01*
X173363096Y-80875185D01*
X173441723Y-81029500D01*
X173473896Y-81092642D01*
X173617339Y-81290076D01*
X173617343Y-81290081D01*
X173789918Y-81462656D01*
X173789923Y-81462660D01*
X173960929Y-81586902D01*
X173987361Y-81606106D01*
X174204815Y-81716904D01*
X174436924Y-81792321D01*
X174677973Y-81830500D01*
X174677974Y-81830500D01*
X174922026Y-81830500D01*
X174922027Y-81830500D01*
X175163076Y-81792321D01*
X175395185Y-81716904D01*
X175612639Y-81606106D01*
X175810083Y-81462655D01*
X175982655Y-81290083D01*
X176126106Y-81092639D01*
X176236904Y-80875185D01*
X176312321Y-80643076D01*
X176350500Y-80402027D01*
X176350500Y-80157973D01*
X176312321Y-79916924D01*
X176236904Y-79684815D01*
X176126106Y-79467361D01*
X176031653Y-79337357D01*
X175982660Y-79269923D01*
X175982656Y-79269918D01*
X175810081Y-79097343D01*
X175810076Y-79097339D01*
X175612642Y-78953896D01*
X175612641Y-78953895D01*
X175612639Y-78953894D01*
X175395185Y-78843096D01*
X175163076Y-78767679D01*
X175163074Y-78767678D01*
X175163072Y-78767678D01*
X174994769Y-78741021D01*
X174922027Y-78729500D01*
X174677973Y-78729500D01*
X174622093Y-78738350D01*
X174436927Y-78767678D01*
X174204812Y-78843097D01*
X173987357Y-78953896D01*
X173789923Y-79097339D01*
X173789918Y-79097343D01*
X173617343Y-79269918D01*
X173617339Y-79269923D01*
X173473896Y-79467357D01*
X173363097Y-79684812D01*
X173287678Y-79916927D01*
X173270090Y-80027973D01*
X173249500Y-80157973D01*
X171950500Y-80157973D01*
X171912321Y-79916924D01*
X171836904Y-79684815D01*
X171726106Y-79467361D01*
X171631653Y-79337357D01*
X171582660Y-79269923D01*
X171582656Y-79269918D01*
X171410081Y-79097343D01*
X171410076Y-79097339D01*
X171212642Y-78953896D01*
X171212641Y-78953895D01*
X171212639Y-78953894D01*
X170995185Y-78843096D01*
X170763076Y-78767679D01*
X170763074Y-78767678D01*
X170763072Y-78767678D01*
X170594769Y-78741021D01*
X170522027Y-78729500D01*
X170277973Y-78729500D01*
X170229763Y-78737135D01*
X170036920Y-78767679D01*
X169882753Y-78817770D01*
X169812912Y-78819765D01*
X169756755Y-78787520D01*
X169537590Y-78568355D01*
X169537588Y-78568352D01*
X169418717Y-78449481D01*
X169418716Y-78449480D01*
X169331904Y-78399360D01*
X169331904Y-78399359D01*
X169331900Y-78399358D01*
X169281785Y-78370423D01*
X169129057Y-78329499D01*
X168970943Y-78329499D01*
X168963347Y-78329499D01*
X168963331Y-78329500D01*
X153649117Y-78329500D01*
X153582078Y-78309815D01*
X153561436Y-78293181D01*
X153020436Y-77752181D01*
X152420434Y-77152180D01*
X152386950Y-77090858D01*
X152391934Y-77021166D01*
X152433806Y-76965233D01*
X152499270Y-76940816D01*
X152508116Y-76940500D01*
X174959903Y-76940500D01*
X175026942Y-76960185D01*
X175047584Y-76976819D01*
X177707520Y-79636755D01*
X177741005Y-79698078D01*
X177737770Y-79762753D01*
X177687679Y-79916920D01*
X177670090Y-80027973D01*
X177649500Y-80157973D01*
X177649500Y-80402027D01*
X177687679Y-80643076D01*
X177763096Y-80875185D01*
X177841723Y-81029500D01*
X177873896Y-81092642D01*
X178017339Y-81290076D01*
X178017343Y-81290081D01*
X178189918Y-81462656D01*
X178189923Y-81462660D01*
X178360929Y-81586902D01*
X178387361Y-81606106D01*
X178604815Y-81716904D01*
X178836924Y-81792321D01*
X179077973Y-81830500D01*
X179077974Y-81830500D01*
X179322026Y-81830500D01*
X179322027Y-81830500D01*
X179563076Y-81792321D01*
X179795185Y-81716904D01*
X180012639Y-81606106D01*
X180210083Y-81462655D01*
X180382655Y-81290083D01*
X180526106Y-81092639D01*
X180636904Y-80875185D01*
X180712321Y-80643076D01*
X180750500Y-80402027D01*
X180750500Y-80157973D01*
X180712321Y-79916924D01*
X180636904Y-79684815D01*
X180526106Y-79467361D01*
X180431653Y-79337357D01*
X180382660Y-79269923D01*
X180382656Y-79269918D01*
X180210081Y-79097343D01*
X180210076Y-79097339D01*
X180012642Y-78953896D01*
X180012641Y-78953895D01*
X180012639Y-78953894D01*
X179795185Y-78843096D01*
X179563076Y-78767679D01*
X179563074Y-78767678D01*
X179563072Y-78767678D01*
X179394769Y-78741021D01*
X179322027Y-78729500D01*
X179077973Y-78729500D01*
X179029763Y-78737135D01*
X178836920Y-78767679D01*
X178682753Y-78817770D01*
X178612912Y-78819765D01*
X178556755Y-78787520D01*
X175747590Y-75978355D01*
X175747588Y-75978352D01*
X175628717Y-75859481D01*
X175628716Y-75859480D01*
X175541904Y-75809360D01*
X175541904Y-75809359D01*
X175541900Y-75809358D01*
X175491785Y-75780423D01*
X175339057Y-75739499D01*
X175180943Y-75739499D01*
X175173347Y-75739499D01*
X175173331Y-75739500D01*
X152443431Y-75739500D01*
X152376392Y-75719815D01*
X152355750Y-75703181D01*
X151225811Y-74573242D01*
X151192326Y-74511919D01*
X151195560Y-74447245D01*
X151245654Y-74293076D01*
X151283833Y-74052027D01*
X151283833Y-73807973D01*
X152582833Y-73807973D01*
X152582833Y-74052027D01*
X152621012Y-74293076D01*
X152696429Y-74525185D01*
X152807226Y-74742638D01*
X152807229Y-74742642D01*
X152950672Y-74940076D01*
X152950676Y-74940081D01*
X153123251Y-75112656D01*
X153123256Y-75112660D01*
X153294262Y-75236902D01*
X153320694Y-75256106D01*
X153538148Y-75366904D01*
X153770257Y-75442321D01*
X154011306Y-75480500D01*
X154011307Y-75480500D01*
X154255359Y-75480500D01*
X154255360Y-75480500D01*
X154496409Y-75442321D01*
X154728518Y-75366904D01*
X154945972Y-75256106D01*
X155143416Y-75112655D01*
X155315988Y-74940083D01*
X155459439Y-74742639D01*
X155570237Y-74525185D01*
X155645654Y-74293076D01*
X155683833Y-74052027D01*
X155683833Y-73807973D01*
X164449500Y-73807973D01*
X164449500Y-74052027D01*
X164487679Y-74293076D01*
X164563096Y-74525185D01*
X164673893Y-74742638D01*
X164673896Y-74742642D01*
X164817339Y-74940076D01*
X164817343Y-74940081D01*
X164989918Y-75112656D01*
X164989923Y-75112660D01*
X165160929Y-75236902D01*
X165187361Y-75256106D01*
X165404815Y-75366904D01*
X165636924Y-75442321D01*
X165877973Y-75480500D01*
X165877974Y-75480500D01*
X166122026Y-75480500D01*
X166122027Y-75480500D01*
X166363076Y-75442321D01*
X166595185Y-75366904D01*
X166812639Y-75256106D01*
X167010083Y-75112655D01*
X167182655Y-74940083D01*
X167326106Y-74742639D01*
X167436904Y-74525185D01*
X167512321Y-74293076D01*
X167550500Y-74052027D01*
X167550500Y-73807973D01*
X168849500Y-73807973D01*
X168849500Y-74052027D01*
X168887679Y-74293076D01*
X168963096Y-74525185D01*
X169073893Y-74742638D01*
X169073896Y-74742642D01*
X169217339Y-74940076D01*
X169217343Y-74940081D01*
X169389918Y-75112656D01*
X169389923Y-75112660D01*
X169560929Y-75236902D01*
X169587361Y-75256106D01*
X169804815Y-75366904D01*
X170036924Y-75442321D01*
X170277973Y-75480500D01*
X170277974Y-75480500D01*
X170522026Y-75480500D01*
X170522027Y-75480500D01*
X170763076Y-75442321D01*
X170995185Y-75366904D01*
X171212639Y-75256106D01*
X171410083Y-75112655D01*
X171582655Y-74940083D01*
X171726106Y-74742639D01*
X171836904Y-74525185D01*
X171912321Y-74293076D01*
X171950500Y-74052027D01*
X171950500Y-73807973D01*
X173249500Y-73807973D01*
X173249500Y-74052027D01*
X173287679Y-74293076D01*
X173363096Y-74525185D01*
X173473893Y-74742638D01*
X173473896Y-74742642D01*
X173617339Y-74940076D01*
X173617343Y-74940081D01*
X173789918Y-75112656D01*
X173789923Y-75112660D01*
X173960929Y-75236902D01*
X173987361Y-75256106D01*
X174204815Y-75366904D01*
X174436924Y-75442321D01*
X174677973Y-75480500D01*
X174677974Y-75480500D01*
X174922026Y-75480500D01*
X174922027Y-75480500D01*
X175163076Y-75442321D01*
X175395185Y-75366904D01*
X175612639Y-75256106D01*
X175810083Y-75112655D01*
X175982655Y-74940083D01*
X176126106Y-74742639D01*
X176236904Y-74525185D01*
X176312321Y-74293076D01*
X176350500Y-74052027D01*
X176350500Y-73807973D01*
X177649500Y-73807973D01*
X177649500Y-74052027D01*
X177687679Y-74293076D01*
X177763096Y-74525185D01*
X177873893Y-74742638D01*
X177873896Y-74742642D01*
X178017339Y-74940076D01*
X178017343Y-74940081D01*
X178189918Y-75112656D01*
X178189923Y-75112660D01*
X178360929Y-75236902D01*
X178387361Y-75256106D01*
X178604815Y-75366904D01*
X178836924Y-75442321D01*
X179077973Y-75480500D01*
X179077974Y-75480500D01*
X179322026Y-75480500D01*
X179322027Y-75480500D01*
X179563076Y-75442321D01*
X179795185Y-75366904D01*
X180012639Y-75256106D01*
X180210083Y-75112655D01*
X180382655Y-74940083D01*
X180526106Y-74742639D01*
X180636904Y-74525185D01*
X180712321Y-74293076D01*
X180750500Y-74052027D01*
X180750500Y-73807973D01*
X180712321Y-73566924D01*
X180636904Y-73334815D01*
X180526106Y-73117361D01*
X180431653Y-72987357D01*
X180382660Y-72919923D01*
X180382656Y-72919918D01*
X180210081Y-72747343D01*
X180210076Y-72747339D01*
X180012642Y-72603896D01*
X180012641Y-72603895D01*
X180012639Y-72603894D01*
X179795185Y-72493096D01*
X179563076Y-72417679D01*
X179563074Y-72417678D01*
X179563072Y-72417678D01*
X179378427Y-72388433D01*
X179322027Y-72379500D01*
X179077973Y-72379500D01*
X179022093Y-72388350D01*
X178836927Y-72417678D01*
X178604812Y-72493097D01*
X178387357Y-72603896D01*
X178189923Y-72747339D01*
X178189918Y-72747343D01*
X178017343Y-72919918D01*
X178017339Y-72919923D01*
X177873896Y-73117357D01*
X177763097Y-73334812D01*
X177687678Y-73566927D01*
X177670090Y-73677973D01*
X177649500Y-73807973D01*
X176350500Y-73807973D01*
X176312321Y-73566924D01*
X176236904Y-73334815D01*
X176126106Y-73117361D01*
X176031653Y-72987357D01*
X175982660Y-72919923D01*
X175982656Y-72919918D01*
X175810081Y-72747343D01*
X175810076Y-72747339D01*
X175612642Y-72603896D01*
X175612641Y-72603895D01*
X175612639Y-72603894D01*
X175395185Y-72493096D01*
X175163076Y-72417679D01*
X175163074Y-72417678D01*
X175163072Y-72417678D01*
X174978427Y-72388433D01*
X174922027Y-72379500D01*
X174677973Y-72379500D01*
X174622093Y-72388350D01*
X174436927Y-72417678D01*
X174204812Y-72493097D01*
X173987357Y-72603896D01*
X173789923Y-72747339D01*
X173789918Y-72747343D01*
X173617343Y-72919918D01*
X173617339Y-72919923D01*
X173473896Y-73117357D01*
X173363097Y-73334812D01*
X173287678Y-73566927D01*
X173270090Y-73677973D01*
X173249500Y-73807973D01*
X171950500Y-73807973D01*
X171912321Y-73566924D01*
X171836904Y-73334815D01*
X171726106Y-73117361D01*
X171631653Y-72987357D01*
X171582660Y-72919923D01*
X171582656Y-72919918D01*
X171410081Y-72747343D01*
X171410076Y-72747339D01*
X171212642Y-72603896D01*
X171212641Y-72603895D01*
X171212639Y-72603894D01*
X170995185Y-72493096D01*
X170763076Y-72417679D01*
X170763074Y-72417678D01*
X170763072Y-72417678D01*
X170578427Y-72388433D01*
X170522027Y-72379500D01*
X170277973Y-72379500D01*
X170222093Y-72388350D01*
X170036927Y-72417678D01*
X169804812Y-72493097D01*
X169587357Y-72603896D01*
X169389923Y-72747339D01*
X169389918Y-72747343D01*
X169217343Y-72919918D01*
X169217339Y-72919923D01*
X169073896Y-73117357D01*
X168963097Y-73334812D01*
X168887678Y-73566927D01*
X168870090Y-73677973D01*
X168849500Y-73807973D01*
X167550500Y-73807973D01*
X167512321Y-73566924D01*
X167436904Y-73334815D01*
X167326106Y-73117361D01*
X167231653Y-72987357D01*
X167182660Y-72919923D01*
X167182656Y-72919918D01*
X167010081Y-72747343D01*
X167010076Y-72747339D01*
X166812642Y-72603896D01*
X166812641Y-72603895D01*
X166812639Y-72603894D01*
X166595185Y-72493096D01*
X166363076Y-72417679D01*
X166363074Y-72417678D01*
X166363072Y-72417678D01*
X166178427Y-72388433D01*
X166122027Y-72379500D01*
X165877973Y-72379500D01*
X165822093Y-72388350D01*
X165636927Y-72417678D01*
X165404812Y-72493097D01*
X165187357Y-72603896D01*
X164989923Y-72747339D01*
X164989918Y-72747343D01*
X164817343Y-72919918D01*
X164817339Y-72919923D01*
X164673896Y-73117357D01*
X164563097Y-73334812D01*
X164487678Y-73566927D01*
X164470090Y-73677973D01*
X164449500Y-73807973D01*
X155683833Y-73807973D01*
X155645654Y-73566924D01*
X155570237Y-73334815D01*
X155459439Y-73117361D01*
X155364986Y-72987357D01*
X155315993Y-72919923D01*
X155315989Y-72919918D01*
X155143414Y-72747343D01*
X155143409Y-72747339D01*
X154945975Y-72603896D01*
X154945974Y-72603895D01*
X154945972Y-72603894D01*
X154728518Y-72493096D01*
X154496409Y-72417679D01*
X154496407Y-72417678D01*
X154496405Y-72417678D01*
X154311760Y-72388433D01*
X154255360Y-72379500D01*
X154011306Y-72379500D01*
X153955426Y-72388350D01*
X153770260Y-72417678D01*
X153538145Y-72493097D01*
X153320690Y-72603896D01*
X153123256Y-72747339D01*
X153123251Y-72747343D01*
X152950676Y-72919918D01*
X152950672Y-72919923D01*
X152807229Y-73117357D01*
X152696430Y-73334812D01*
X152621011Y-73566927D01*
X152603423Y-73677973D01*
X152582833Y-73807973D01*
X151283833Y-73807973D01*
X151245654Y-73566924D01*
X151170237Y-73334815D01*
X151059439Y-73117361D01*
X150964986Y-72987357D01*
X150915993Y-72919923D01*
X150915989Y-72919918D01*
X150743414Y-72747343D01*
X150743409Y-72747339D01*
X150545975Y-72603896D01*
X150545974Y-72603895D01*
X150545972Y-72603894D01*
X150328518Y-72493096D01*
X150096409Y-72417679D01*
X150096407Y-72417678D01*
X150096405Y-72417678D01*
X149911760Y-72388433D01*
X149855360Y-72379500D01*
X149611306Y-72379500D01*
X149555426Y-72388350D01*
X149370260Y-72417678D01*
X149138145Y-72493097D01*
X148920690Y-72603896D01*
X148723256Y-72747339D01*
X148723251Y-72747343D01*
X148550676Y-72919918D01*
X148550672Y-72919923D01*
X148407229Y-73117357D01*
X148296430Y-73334812D01*
X148221011Y-73566927D01*
X148191766Y-73751572D01*
X148161837Y-73814707D01*
X148102525Y-73851638D01*
X148032662Y-73850640D01*
X147981612Y-73819855D01*
X145694327Y-71532570D01*
X145660842Y-71471247D01*
X145665826Y-71401555D01*
X145707698Y-71345622D01*
X145743687Y-71326959D01*
X145928518Y-71266904D01*
X146145972Y-71156106D01*
X146343416Y-71012655D01*
X146515988Y-70840083D01*
X146659439Y-70642639D01*
X146770237Y-70425185D01*
X146845654Y-70193076D01*
X146883833Y-69952027D01*
X146883833Y-69707973D01*
X148182833Y-69707973D01*
X148182833Y-69952027D01*
X148221012Y-70193076D01*
X148296429Y-70425185D01*
X148375056Y-70579500D01*
X148407229Y-70642642D01*
X148550672Y-70840076D01*
X148550676Y-70840081D01*
X148723251Y-71012656D01*
X148723256Y-71012660D01*
X148894262Y-71136902D01*
X148920694Y-71156106D01*
X149138148Y-71266904D01*
X149370257Y-71342321D01*
X149611306Y-71380500D01*
X149611307Y-71380500D01*
X149855359Y-71380500D01*
X149855360Y-71380500D01*
X150096409Y-71342321D01*
X150328518Y-71266904D01*
X150545972Y-71156106D01*
X150743416Y-71012655D01*
X150915988Y-70840083D01*
X151059439Y-70642639D01*
X151170237Y-70425185D01*
X151245654Y-70193076D01*
X151283833Y-69952027D01*
X151283833Y-69707973D01*
X152582833Y-69707973D01*
X152582833Y-69952027D01*
X152621012Y-70193076D01*
X152696429Y-70425185D01*
X152775056Y-70579500D01*
X152807229Y-70642642D01*
X152950672Y-70840076D01*
X152950676Y-70840081D01*
X153123251Y-71012656D01*
X153123256Y-71012660D01*
X153294262Y-71136902D01*
X153320694Y-71156106D01*
X153538148Y-71266904D01*
X153770257Y-71342321D01*
X154011306Y-71380500D01*
X154011307Y-71380500D01*
X154255359Y-71380500D01*
X154255360Y-71380500D01*
X154496409Y-71342321D01*
X154728518Y-71266904D01*
X154945972Y-71156106D01*
X155143416Y-71012655D01*
X155315988Y-70840083D01*
X155459439Y-70642639D01*
X155570237Y-70425185D01*
X155645654Y-70193076D01*
X155683833Y-69952027D01*
X155683833Y-69707973D01*
X164449500Y-69707973D01*
X164449500Y-69952027D01*
X164487679Y-70193076D01*
X164563096Y-70425185D01*
X164641723Y-70579500D01*
X164673896Y-70642642D01*
X164817339Y-70840076D01*
X164817343Y-70840081D01*
X164989918Y-71012656D01*
X164989923Y-71012660D01*
X165160929Y-71136902D01*
X165187361Y-71156106D01*
X165404815Y-71266904D01*
X165636924Y-71342321D01*
X165877973Y-71380500D01*
X165877974Y-71380500D01*
X166122026Y-71380500D01*
X166122027Y-71380500D01*
X166363076Y-71342321D01*
X166595185Y-71266904D01*
X166812639Y-71156106D01*
X167010083Y-71012655D01*
X167182655Y-70840083D01*
X167326106Y-70642639D01*
X167436904Y-70425185D01*
X167512321Y-70193076D01*
X167550500Y-69952027D01*
X167550500Y-69707973D01*
X168849500Y-69707973D01*
X168849500Y-69952027D01*
X168887679Y-70193076D01*
X168963096Y-70425185D01*
X169041723Y-70579500D01*
X169073896Y-70642642D01*
X169217339Y-70840076D01*
X169217343Y-70840081D01*
X169389918Y-71012656D01*
X169389923Y-71012660D01*
X169560929Y-71136902D01*
X169587361Y-71156106D01*
X169804815Y-71266904D01*
X170036924Y-71342321D01*
X170277973Y-71380500D01*
X170277974Y-71380500D01*
X170522026Y-71380500D01*
X170522027Y-71380500D01*
X170763076Y-71342321D01*
X170995185Y-71266904D01*
X171212639Y-71156106D01*
X171410083Y-71012655D01*
X171582655Y-70840083D01*
X171726106Y-70642639D01*
X171836904Y-70425185D01*
X171912321Y-70193076D01*
X171950500Y-69952027D01*
X171950500Y-69707973D01*
X173249500Y-69707973D01*
X173249500Y-69952027D01*
X173287679Y-70193076D01*
X173363096Y-70425185D01*
X173441723Y-70579500D01*
X173473896Y-70642642D01*
X173617339Y-70840076D01*
X173617343Y-70840081D01*
X173789918Y-71012656D01*
X173789923Y-71012660D01*
X173960929Y-71136902D01*
X173987361Y-71156106D01*
X174204815Y-71266904D01*
X174436924Y-71342321D01*
X174677973Y-71380500D01*
X174677974Y-71380500D01*
X174922026Y-71380500D01*
X174922027Y-71380500D01*
X175163076Y-71342321D01*
X175395185Y-71266904D01*
X175612639Y-71156106D01*
X175810083Y-71012655D01*
X175982655Y-70840083D01*
X176126106Y-70642639D01*
X176236904Y-70425185D01*
X176312321Y-70193076D01*
X176350500Y-69952027D01*
X176350500Y-69707973D01*
X177649500Y-69707973D01*
X177649500Y-69952027D01*
X177687679Y-70193076D01*
X177763096Y-70425185D01*
X177841723Y-70579500D01*
X177873896Y-70642642D01*
X178017339Y-70840076D01*
X178017343Y-70840081D01*
X178189918Y-71012656D01*
X178189923Y-71012660D01*
X178360929Y-71136902D01*
X178387361Y-71156106D01*
X178604815Y-71266904D01*
X178836924Y-71342321D01*
X179077973Y-71380500D01*
X179077974Y-71380500D01*
X179322026Y-71380500D01*
X179322027Y-71380500D01*
X179563076Y-71342321D01*
X179795185Y-71266904D01*
X180012639Y-71156106D01*
X180210083Y-71012655D01*
X180382655Y-70840083D01*
X180526106Y-70642639D01*
X180636904Y-70425185D01*
X180712321Y-70193076D01*
X180750500Y-69952027D01*
X180750500Y-69707973D01*
X180712321Y-69466924D01*
X180636904Y-69234815D01*
X180526106Y-69017361D01*
X180431653Y-68887357D01*
X180382660Y-68819923D01*
X180382656Y-68819918D01*
X180210081Y-68647343D01*
X180210076Y-68647339D01*
X180012642Y-68503896D01*
X180012641Y-68503895D01*
X180012639Y-68503894D01*
X179795185Y-68393096D01*
X179563076Y-68317679D01*
X179563074Y-68317678D01*
X179563072Y-68317678D01*
X179394769Y-68291021D01*
X179322027Y-68279500D01*
X179077973Y-68279500D01*
X179022093Y-68288350D01*
X178836927Y-68317678D01*
X178604812Y-68393097D01*
X178387357Y-68503896D01*
X178189923Y-68647339D01*
X178189918Y-68647343D01*
X178017343Y-68819918D01*
X178017339Y-68819923D01*
X177873896Y-69017357D01*
X177763097Y-69234812D01*
X177687678Y-69466927D01*
X177649500Y-69707973D01*
X176350500Y-69707973D01*
X176312321Y-69466924D01*
X176236904Y-69234815D01*
X176126106Y-69017361D01*
X176031653Y-68887357D01*
X175982660Y-68819923D01*
X175982656Y-68819918D01*
X175810081Y-68647343D01*
X175810076Y-68647339D01*
X175612642Y-68503896D01*
X175612641Y-68503895D01*
X175612639Y-68503894D01*
X175395185Y-68393096D01*
X175163076Y-68317679D01*
X175163074Y-68317678D01*
X175163072Y-68317678D01*
X174994769Y-68291021D01*
X174922027Y-68279500D01*
X174677973Y-68279500D01*
X174622093Y-68288350D01*
X174436927Y-68317678D01*
X174204812Y-68393097D01*
X173987357Y-68503896D01*
X173789923Y-68647339D01*
X173789918Y-68647343D01*
X173617343Y-68819918D01*
X173617339Y-68819923D01*
X173473896Y-69017357D01*
X173363097Y-69234812D01*
X173287678Y-69466927D01*
X173249500Y-69707973D01*
X171950500Y-69707973D01*
X171912321Y-69466924D01*
X171836904Y-69234815D01*
X171726106Y-69017361D01*
X171631653Y-68887357D01*
X171582660Y-68819923D01*
X171582656Y-68819918D01*
X171410081Y-68647343D01*
X171410076Y-68647339D01*
X171212642Y-68503896D01*
X171212641Y-68503895D01*
X171212639Y-68503894D01*
X170995185Y-68393096D01*
X170763076Y-68317679D01*
X170763074Y-68317678D01*
X170763072Y-68317678D01*
X170594769Y-68291021D01*
X170522027Y-68279500D01*
X170277973Y-68279500D01*
X170222093Y-68288350D01*
X170036927Y-68317678D01*
X169804812Y-68393097D01*
X169587357Y-68503896D01*
X169389923Y-68647339D01*
X169389918Y-68647343D01*
X169217343Y-68819918D01*
X169217339Y-68819923D01*
X169073896Y-69017357D01*
X168963097Y-69234812D01*
X168887678Y-69466927D01*
X168849500Y-69707973D01*
X167550500Y-69707973D01*
X167512321Y-69466924D01*
X167436904Y-69234815D01*
X167326106Y-69017361D01*
X167231653Y-68887357D01*
X167182660Y-68819923D01*
X167182656Y-68819918D01*
X167010081Y-68647343D01*
X167010076Y-68647339D01*
X166812642Y-68503896D01*
X166812641Y-68503895D01*
X166812639Y-68503894D01*
X166595185Y-68393096D01*
X166363076Y-68317679D01*
X166363074Y-68317678D01*
X166363072Y-68317678D01*
X166194769Y-68291021D01*
X166122027Y-68279500D01*
X165877973Y-68279500D01*
X165822093Y-68288350D01*
X165636927Y-68317678D01*
X165404812Y-68393097D01*
X165187357Y-68503896D01*
X164989923Y-68647339D01*
X164989918Y-68647343D01*
X164817343Y-68819918D01*
X164817339Y-68819923D01*
X164673896Y-69017357D01*
X164563097Y-69234812D01*
X164487678Y-69466927D01*
X164449500Y-69707973D01*
X155683833Y-69707973D01*
X155645654Y-69466924D01*
X155570237Y-69234815D01*
X155459439Y-69017361D01*
X155364986Y-68887357D01*
X155315993Y-68819923D01*
X155315989Y-68819918D01*
X155143414Y-68647343D01*
X155143409Y-68647339D01*
X154945975Y-68503896D01*
X154945974Y-68503895D01*
X154945972Y-68503894D01*
X154728518Y-68393096D01*
X154496409Y-68317679D01*
X154496407Y-68317678D01*
X154496405Y-68317678D01*
X154328102Y-68291021D01*
X154255360Y-68279500D01*
X154011306Y-68279500D01*
X153955426Y-68288350D01*
X153770260Y-68317678D01*
X153538145Y-68393097D01*
X153320690Y-68503896D01*
X153123256Y-68647339D01*
X153123251Y-68647343D01*
X152950676Y-68819918D01*
X152950672Y-68819923D01*
X152807229Y-69017357D01*
X152696430Y-69234812D01*
X152621011Y-69466927D01*
X152582833Y-69707973D01*
X151283833Y-69707973D01*
X151245654Y-69466924D01*
X151170237Y-69234815D01*
X151059439Y-69017361D01*
X150964986Y-68887357D01*
X150915993Y-68819923D01*
X150915989Y-68819918D01*
X150743414Y-68647343D01*
X150743409Y-68647339D01*
X150545975Y-68503896D01*
X150545974Y-68503895D01*
X150545972Y-68503894D01*
X150328518Y-68393096D01*
X150096409Y-68317679D01*
X150096407Y-68317678D01*
X150096405Y-68317678D01*
X149928102Y-68291021D01*
X149855360Y-68279500D01*
X149611306Y-68279500D01*
X149555426Y-68288350D01*
X149370260Y-68317678D01*
X149138145Y-68393097D01*
X148920690Y-68503896D01*
X148723256Y-68647339D01*
X148723251Y-68647343D01*
X148550676Y-68819918D01*
X148550672Y-68819923D01*
X148407229Y-69017357D01*
X148296430Y-69234812D01*
X148221011Y-69466927D01*
X148182833Y-69707973D01*
X146883833Y-69707973D01*
X146845654Y-69466924D01*
X146770237Y-69234815D01*
X146659439Y-69017361D01*
X146564986Y-68887357D01*
X146515993Y-68819923D01*
X146515989Y-68819918D01*
X146343414Y-68647343D01*
X146343409Y-68647339D01*
X146145975Y-68503896D01*
X146145974Y-68503895D01*
X146145972Y-68503894D01*
X145928518Y-68393096D01*
X145696409Y-68317679D01*
X145696407Y-68317678D01*
X145696405Y-68317678D01*
X145528102Y-68291021D01*
X145455360Y-68279500D01*
X145211306Y-68279500D01*
X145155426Y-68288350D01*
X144970260Y-68317678D01*
X144738145Y-68393097D01*
X144520690Y-68503896D01*
X144323256Y-68647339D01*
X144323251Y-68647343D01*
X144150676Y-68819918D01*
X144150672Y-68819923D01*
X144007229Y-69017357D01*
X143896430Y-69234810D01*
X143836374Y-69419643D01*
X143834821Y-69421913D01*
X143834625Y-69424658D01*
X143815217Y-69450582D01*
X143796936Y-69477318D01*
X143794401Y-69478389D01*
X143792753Y-69480591D01*
X143762413Y-69491907D01*
X143732577Y-69504516D01*
X143729866Y-69504046D01*
X143727289Y-69505008D01*
X143695646Y-69498124D01*
X143663731Y-69492601D01*
X143660881Y-69490561D01*
X143659016Y-69490156D01*
X143630762Y-69469005D01*
X143630112Y-69468355D01*
X143630110Y-69468352D01*
X143511239Y-69349481D01*
X143511238Y-69349480D01*
X143424426Y-69299360D01*
X143424426Y-69299359D01*
X143424422Y-69299358D01*
X143374307Y-69270423D01*
X143221579Y-69229499D01*
X143063465Y-69229499D01*
X143055869Y-69229499D01*
X143055853Y-69229500D01*
X142443517Y-69229500D01*
X142376478Y-69209815D01*
X142333032Y-69161795D01*
X142303997Y-69104812D01*
X142259439Y-69017361D01*
X142164986Y-68887357D01*
X142115993Y-68819923D01*
X142115989Y-68819918D01*
X141943414Y-68647343D01*
X141943409Y-68647339D01*
X141745975Y-68503896D01*
X141745974Y-68503895D01*
X141745972Y-68503894D01*
X141528518Y-68393096D01*
X141296409Y-68317679D01*
X141296407Y-68317678D01*
X141296405Y-68317678D01*
X141128102Y-68291021D01*
X141055360Y-68279500D01*
X140811306Y-68279500D01*
X140755426Y-68288350D01*
X140570260Y-68317678D01*
X140338145Y-68393097D01*
X140120690Y-68503896D01*
X139923256Y-68647339D01*
X139923251Y-68647343D01*
X139750676Y-68819918D01*
X139750672Y-68819923D01*
X139607229Y-69017357D01*
X139496430Y-69234812D01*
X139421011Y-69466927D01*
X139382833Y-69707973D01*
X139382833Y-69952027D01*
X139421012Y-70193076D01*
X139496429Y-70425185D01*
X139575056Y-70579500D01*
X139607229Y-70642642D01*
X139750672Y-70840076D01*
X139750676Y-70840081D01*
X139923251Y-71012656D01*
X139923256Y-71012660D01*
X140094262Y-71136902D01*
X140120694Y-71156106D01*
X140338148Y-71266904D01*
X140570257Y-71342321D01*
X140811306Y-71380500D01*
X140811307Y-71380500D01*
X141055359Y-71380500D01*
X141055360Y-71380500D01*
X141296409Y-71342321D01*
X141528518Y-71266904D01*
X141745972Y-71156106D01*
X141943416Y-71012655D01*
X142115988Y-70840083D01*
X142259439Y-70642639D01*
X142333032Y-70498205D01*
X142381007Y-70447409D01*
X142443517Y-70430500D01*
X142842425Y-70430500D01*
X142909464Y-70450185D01*
X142930106Y-70466819D01*
X144762036Y-72298749D01*
X144795521Y-72360072D01*
X144790537Y-72429764D01*
X144748665Y-72485697D01*
X144730650Y-72496915D01*
X144520690Y-72603896D01*
X144323256Y-72747339D01*
X144323251Y-72747343D01*
X144150676Y-72919918D01*
X144150672Y-72919923D01*
X144007229Y-73117357D01*
X143896430Y-73334812D01*
X143821011Y-73566927D01*
X143803423Y-73677973D01*
X143782833Y-73807973D01*
X143782833Y-74052027D01*
X143821012Y-74293076D01*
X143896429Y-74525185D01*
X144007226Y-74742638D01*
X144007229Y-74742642D01*
X144150672Y-74940076D01*
X144150676Y-74940081D01*
X144323251Y-75112656D01*
X144323256Y-75112660D01*
X144494262Y-75236902D01*
X144520694Y-75256106D01*
X144738148Y-75366904D01*
X144970257Y-75442321D01*
X145211306Y-75480500D01*
X145211307Y-75480500D01*
X145455359Y-75480500D01*
X145455360Y-75480500D01*
X145696409Y-75442321D01*
X145928518Y-75366904D01*
X146145972Y-75256106D01*
X146343416Y-75112655D01*
X146515988Y-74940083D01*
X146659439Y-74742639D01*
X146766417Y-74532681D01*
X146814391Y-74481886D01*
X146882212Y-74465091D01*
X146948347Y-74487628D01*
X146964583Y-74501296D01*
X148061106Y-75597819D01*
X148094591Y-75659142D01*
X148089607Y-75728834D01*
X148047735Y-75784767D01*
X147982271Y-75809184D01*
X147973425Y-75809500D01*
X127446765Y-75809500D01*
X127379726Y-75789815D01*
X127359084Y-75773181D01*
X126159145Y-74573242D01*
X126125660Y-74511919D01*
X126128894Y-74447245D01*
X126178988Y-74293076D01*
X126217167Y-74052027D01*
X126217167Y-73807973D01*
X127516167Y-73807973D01*
X127516167Y-74052027D01*
X127554346Y-74293076D01*
X127629763Y-74525185D01*
X127740560Y-74742638D01*
X127740563Y-74742642D01*
X127884006Y-74940076D01*
X127884010Y-74940081D01*
X128056585Y-75112656D01*
X128056590Y-75112660D01*
X128227596Y-75236902D01*
X128254028Y-75256106D01*
X128471482Y-75366904D01*
X128703591Y-75442321D01*
X128944640Y-75480500D01*
X128944641Y-75480500D01*
X129188693Y-75480500D01*
X129188694Y-75480500D01*
X129429743Y-75442321D01*
X129661852Y-75366904D01*
X129879306Y-75256106D01*
X130076750Y-75112655D01*
X130249322Y-74940083D01*
X130392773Y-74742639D01*
X130503571Y-74525185D01*
X130578988Y-74293076D01*
X130617167Y-74052027D01*
X130617167Y-73807973D01*
X139382833Y-73807973D01*
X139382833Y-74052027D01*
X139421012Y-74293076D01*
X139496429Y-74525185D01*
X139607226Y-74742638D01*
X139607229Y-74742642D01*
X139750672Y-74940076D01*
X139750676Y-74940081D01*
X139923251Y-75112656D01*
X139923256Y-75112660D01*
X140094262Y-75236902D01*
X140120694Y-75256106D01*
X140338148Y-75366904D01*
X140570257Y-75442321D01*
X140811306Y-75480500D01*
X140811307Y-75480500D01*
X141055359Y-75480500D01*
X141055360Y-75480500D01*
X141296409Y-75442321D01*
X141528518Y-75366904D01*
X141745972Y-75256106D01*
X141943416Y-75112655D01*
X142115988Y-74940083D01*
X142259439Y-74742639D01*
X142370237Y-74525185D01*
X142445654Y-74293076D01*
X142483833Y-74052027D01*
X142483833Y-73807973D01*
X142445654Y-73566924D01*
X142370237Y-73334815D01*
X142259439Y-73117361D01*
X142164986Y-72987357D01*
X142115993Y-72919923D01*
X142115989Y-72919918D01*
X141943414Y-72747343D01*
X141943409Y-72747339D01*
X141745975Y-72603896D01*
X141745974Y-72603895D01*
X141745972Y-72603894D01*
X141528518Y-72493096D01*
X141296409Y-72417679D01*
X141296407Y-72417678D01*
X141296405Y-72417678D01*
X141111760Y-72388433D01*
X141055360Y-72379500D01*
X140811306Y-72379500D01*
X140755426Y-72388350D01*
X140570260Y-72417678D01*
X140338145Y-72493097D01*
X140120690Y-72603896D01*
X139923256Y-72747339D01*
X139923251Y-72747343D01*
X139750676Y-72919918D01*
X139750672Y-72919923D01*
X139607229Y-73117357D01*
X139496430Y-73334812D01*
X139421011Y-73566927D01*
X139403423Y-73677973D01*
X139382833Y-73807973D01*
X130617167Y-73807973D01*
X130578988Y-73566924D01*
X130503571Y-73334815D01*
X130392773Y-73117361D01*
X130298320Y-72987357D01*
X130249327Y-72919923D01*
X130249323Y-72919918D01*
X130076748Y-72747343D01*
X130076743Y-72747339D01*
X129879309Y-72603896D01*
X129879308Y-72603895D01*
X129879306Y-72603894D01*
X129661852Y-72493096D01*
X129429743Y-72417679D01*
X129429741Y-72417678D01*
X129429739Y-72417678D01*
X129245094Y-72388433D01*
X129188694Y-72379500D01*
X128944640Y-72379500D01*
X128888760Y-72388350D01*
X128703594Y-72417678D01*
X128471479Y-72493097D01*
X128254024Y-72603896D01*
X128056590Y-72747339D01*
X128056585Y-72747343D01*
X127884010Y-72919918D01*
X127884006Y-72919923D01*
X127740563Y-73117357D01*
X127629764Y-73334812D01*
X127554345Y-73566927D01*
X127536757Y-73677973D01*
X127516167Y-73807973D01*
X126217167Y-73807973D01*
X126178988Y-73566924D01*
X126103571Y-73334815D01*
X125992773Y-73117361D01*
X125898320Y-72987357D01*
X125849327Y-72919923D01*
X125849323Y-72919918D01*
X125676748Y-72747343D01*
X125676743Y-72747339D01*
X125479309Y-72603896D01*
X125479308Y-72603895D01*
X125479306Y-72603894D01*
X125261852Y-72493096D01*
X125029743Y-72417679D01*
X125029741Y-72417678D01*
X125029739Y-72417678D01*
X124845094Y-72388433D01*
X124788694Y-72379500D01*
X124544640Y-72379500D01*
X124488760Y-72388350D01*
X124303594Y-72417678D01*
X124071479Y-72493097D01*
X123854024Y-72603896D01*
X123656590Y-72747339D01*
X123656585Y-72747343D01*
X123484010Y-72919918D01*
X123484006Y-72919923D01*
X123340563Y-73117357D01*
X123233582Y-73327317D01*
X123185607Y-73378113D01*
X123117786Y-73394908D01*
X123051651Y-73372370D01*
X123035416Y-73358703D01*
X121036701Y-71359988D01*
X121003216Y-71298665D01*
X121008200Y-71228973D01*
X121050072Y-71173040D01*
X121068088Y-71161822D01*
X121071206Y-71160233D01*
X121079306Y-71156106D01*
X121276750Y-71012655D01*
X121449322Y-70840083D01*
X121592773Y-70642639D01*
X121703571Y-70425185D01*
X121778988Y-70193076D01*
X121817167Y-69952027D01*
X121817167Y-69707973D01*
X123116167Y-69707973D01*
X123116167Y-69952027D01*
X123154346Y-70193076D01*
X123229763Y-70425185D01*
X123308390Y-70579500D01*
X123340563Y-70642642D01*
X123484006Y-70840076D01*
X123484010Y-70840081D01*
X123656585Y-71012656D01*
X123656590Y-71012660D01*
X123827596Y-71136902D01*
X123854028Y-71156106D01*
X124071482Y-71266904D01*
X124303591Y-71342321D01*
X124544640Y-71380500D01*
X124544641Y-71380500D01*
X124788693Y-71380500D01*
X124788694Y-71380500D01*
X125029743Y-71342321D01*
X125261852Y-71266904D01*
X125479306Y-71156106D01*
X125676750Y-71012655D01*
X125849322Y-70840083D01*
X125992773Y-70642639D01*
X126103571Y-70425185D01*
X126178988Y-70193076D01*
X126217167Y-69952027D01*
X126217167Y-69707973D01*
X127516167Y-69707973D01*
X127516167Y-69952027D01*
X127554346Y-70193076D01*
X127629763Y-70425185D01*
X127708390Y-70579500D01*
X127740563Y-70642642D01*
X127884006Y-70840076D01*
X127884010Y-70840081D01*
X128056585Y-71012656D01*
X128056590Y-71012660D01*
X128227596Y-71136902D01*
X128254028Y-71156106D01*
X128471482Y-71266904D01*
X128703591Y-71342321D01*
X128944640Y-71380500D01*
X128944641Y-71380500D01*
X129188693Y-71380500D01*
X129188694Y-71380500D01*
X129429743Y-71342321D01*
X129661852Y-71266904D01*
X129879306Y-71156106D01*
X130076750Y-71012655D01*
X130249322Y-70840083D01*
X130392773Y-70642639D01*
X130503571Y-70425185D01*
X130578988Y-70193076D01*
X130617167Y-69952027D01*
X130617167Y-69707973D01*
X130578988Y-69466924D01*
X130503571Y-69234815D01*
X130392773Y-69017361D01*
X130298320Y-68887357D01*
X130249327Y-68819923D01*
X130249323Y-68819918D01*
X130076748Y-68647343D01*
X130076743Y-68647339D01*
X129879309Y-68503896D01*
X129879308Y-68503895D01*
X129879306Y-68503894D01*
X129661852Y-68393096D01*
X129429743Y-68317679D01*
X129429741Y-68317678D01*
X129429739Y-68317678D01*
X129261436Y-68291021D01*
X129188694Y-68279500D01*
X128944640Y-68279500D01*
X128888760Y-68288350D01*
X128703594Y-68317678D01*
X128471479Y-68393097D01*
X128254024Y-68503896D01*
X128056590Y-68647339D01*
X128056585Y-68647343D01*
X127884010Y-68819918D01*
X127884006Y-68819923D01*
X127740563Y-69017357D01*
X127629764Y-69234812D01*
X127554345Y-69466927D01*
X127516167Y-69707973D01*
X126217167Y-69707973D01*
X126178988Y-69466924D01*
X126103571Y-69234815D01*
X125992773Y-69017361D01*
X125898320Y-68887357D01*
X125849327Y-68819923D01*
X125849323Y-68819918D01*
X125676748Y-68647343D01*
X125676743Y-68647339D01*
X125479309Y-68503896D01*
X125479308Y-68503895D01*
X125479306Y-68503894D01*
X125261852Y-68393096D01*
X125029743Y-68317679D01*
X125029741Y-68317678D01*
X125029739Y-68317678D01*
X124861436Y-68291021D01*
X124788694Y-68279500D01*
X124544640Y-68279500D01*
X124488760Y-68288350D01*
X124303594Y-68317678D01*
X124071479Y-68393097D01*
X123854024Y-68503896D01*
X123656590Y-68647339D01*
X123656585Y-68647343D01*
X123484010Y-68819918D01*
X123484006Y-68819923D01*
X123340563Y-69017357D01*
X123229764Y-69234812D01*
X123154345Y-69466927D01*
X123116167Y-69707973D01*
X121817167Y-69707973D01*
X121778988Y-69466924D01*
X121703571Y-69234815D01*
X121592773Y-69017361D01*
X121498320Y-68887357D01*
X121449327Y-68819923D01*
X121449323Y-68819918D01*
X121276748Y-68647343D01*
X121276743Y-68647339D01*
X121079309Y-68503896D01*
X121079308Y-68503895D01*
X121079306Y-68503894D01*
X120861852Y-68393096D01*
X120629743Y-68317679D01*
X120629741Y-68317678D01*
X120629739Y-68317678D01*
X120461436Y-68291021D01*
X120388694Y-68279500D01*
X120144640Y-68279500D01*
X120088760Y-68288350D01*
X119903594Y-68317678D01*
X119671479Y-68393097D01*
X119454024Y-68503896D01*
X119256590Y-68647339D01*
X119256585Y-68647343D01*
X119084010Y-68819918D01*
X119084006Y-68819923D01*
X118940563Y-69017357D01*
X118829764Y-69234812D01*
X118754345Y-69466927D01*
X118716167Y-69707973D01*
X118716167Y-69952027D01*
X118754346Y-70193076D01*
X118804438Y-70347244D01*
X118827163Y-70417182D01*
X118829158Y-70487023D01*
X118793078Y-70546856D01*
X118730377Y-70577684D01*
X118709232Y-70579500D01*
X117516764Y-70579500D01*
X117487323Y-70570855D01*
X117457337Y-70564332D01*
X117452321Y-70560577D01*
X117449725Y-70559815D01*
X117429083Y-70543181D01*
X117359145Y-70473243D01*
X117325660Y-70411920D01*
X117328895Y-70347244D01*
X117330195Y-70343243D01*
X117378988Y-70193076D01*
X117417167Y-69952027D01*
X117417167Y-69707973D01*
X117378988Y-69466924D01*
X117303571Y-69234815D01*
X117192773Y-69017361D01*
X117098320Y-68887357D01*
X117049327Y-68819923D01*
X117049323Y-68819918D01*
X116876748Y-68647343D01*
X116876743Y-68647339D01*
X116679309Y-68503896D01*
X116679308Y-68503895D01*
X116679306Y-68503894D01*
X116461852Y-68393096D01*
X116229743Y-68317679D01*
X116229741Y-68317678D01*
X116229739Y-68317678D01*
X116061436Y-68291021D01*
X115988694Y-68279500D01*
X115744640Y-68279500D01*
X115688760Y-68288350D01*
X115503594Y-68317678D01*
X115271479Y-68393097D01*
X115054024Y-68503896D01*
X114856590Y-68647339D01*
X114856585Y-68647343D01*
X114684010Y-68819918D01*
X114684006Y-68819923D01*
X114540563Y-69017357D01*
X114429764Y-69234812D01*
X114354345Y-69466927D01*
X114316167Y-69707973D01*
X114316167Y-69952027D01*
X114354346Y-70193076D01*
X114429763Y-70425185D01*
X114508390Y-70579500D01*
X114540563Y-70642642D01*
X114684006Y-70840076D01*
X114684010Y-70840081D01*
X114856585Y-71012656D01*
X114856590Y-71012660D01*
X115027596Y-71136902D01*
X115054028Y-71156106D01*
X115271482Y-71266904D01*
X115503591Y-71342321D01*
X115744640Y-71380500D01*
X115744641Y-71380500D01*
X115988693Y-71380500D01*
X115988694Y-71380500D01*
X116229743Y-71342321D01*
X116383912Y-71292227D01*
X116453752Y-71290233D01*
X116509910Y-71322478D01*
X116731806Y-71544374D01*
X116731816Y-71544385D01*
X116736146Y-71548715D01*
X116736147Y-71548716D01*
X116847951Y-71660520D01*
X116934762Y-71710639D01*
X116934764Y-71710641D01*
X116984880Y-71739576D01*
X116984882Y-71739577D01*
X117137609Y-71780500D01*
X117137610Y-71780500D01*
X119707381Y-71780500D01*
X119774420Y-71800185D01*
X119795062Y-71816819D01*
X120156522Y-72178279D01*
X120190007Y-72239602D01*
X120185023Y-72309294D01*
X120143151Y-72365227D01*
X120088239Y-72388433D01*
X119903594Y-72417678D01*
X119671479Y-72493097D01*
X119454024Y-72603896D01*
X119256590Y-72747339D01*
X119256585Y-72747343D01*
X119084010Y-72919918D01*
X119084006Y-72919923D01*
X118940563Y-73117357D01*
X118829764Y-73334812D01*
X118754345Y-73566927D01*
X118736757Y-73677973D01*
X118716167Y-73807973D01*
X118716167Y-74052027D01*
X118754346Y-74293076D01*
X118829763Y-74525185D01*
X118940560Y-74742638D01*
X118940563Y-74742642D01*
X119084006Y-74940076D01*
X119084010Y-74940081D01*
X119256585Y-75112656D01*
X119256590Y-75112660D01*
X119427596Y-75236902D01*
X119454028Y-75256106D01*
X119671482Y-75366904D01*
X119903591Y-75442321D01*
X120144640Y-75480500D01*
X120144641Y-75480500D01*
X120388693Y-75480500D01*
X120388694Y-75480500D01*
X120629743Y-75442321D01*
X120861852Y-75366904D01*
X121079306Y-75256106D01*
X121276750Y-75112655D01*
X121449322Y-74940083D01*
X121592773Y-74742639D01*
X121703571Y-74525185D01*
X121778988Y-74293076D01*
X121808234Y-74108425D01*
X121838162Y-74045293D01*
X121897473Y-74008361D01*
X121967336Y-74009359D01*
X122018387Y-74040144D01*
X124506062Y-76527819D01*
X124539547Y-76589142D01*
X124534563Y-76658834D01*
X124492691Y-76714767D01*
X124427227Y-76739184D01*
X124418381Y-76739500D01*
X119750097Y-76739500D01*
X119683058Y-76719815D01*
X119662416Y-76703181D01*
X117877590Y-74918355D01*
X117877588Y-74918352D01*
X117758717Y-74799481D01*
X117758709Y-74799475D01*
X117660265Y-74742639D01*
X117660263Y-74742638D01*
X117621790Y-74720425D01*
X117621789Y-74720424D01*
X117609263Y-74717067D01*
X117469057Y-74679499D01*
X117424102Y-74679499D01*
X117357063Y-74659814D01*
X117311308Y-74607010D01*
X117301364Y-74537852D01*
X117306171Y-74517182D01*
X117378988Y-74293076D01*
X117417167Y-74052027D01*
X117417167Y-73807973D01*
X117378988Y-73566924D01*
X117303571Y-73334815D01*
X117192773Y-73117361D01*
X117098320Y-72987357D01*
X117049327Y-72919923D01*
X117049323Y-72919918D01*
X116876748Y-72747343D01*
X116876743Y-72747339D01*
X116679309Y-72603896D01*
X116679308Y-72603895D01*
X116679306Y-72603894D01*
X116461852Y-72493096D01*
X116229743Y-72417679D01*
X116229741Y-72417678D01*
X116229739Y-72417678D01*
X116045094Y-72388433D01*
X115988694Y-72379500D01*
X115744640Y-72379500D01*
X115688760Y-72388350D01*
X115503594Y-72417678D01*
X115271479Y-72493097D01*
X115054024Y-72603896D01*
X114856590Y-72747339D01*
X114856585Y-72747343D01*
X114684010Y-72919918D01*
X114684006Y-72919923D01*
X114540563Y-73117357D01*
X114429764Y-73334812D01*
X114354345Y-73566927D01*
X114336757Y-73677973D01*
X114316167Y-73807973D01*
X114316167Y-74052027D01*
X114354346Y-74293076D01*
X114427162Y-74517181D01*
X114427163Y-74517182D01*
X114429158Y-74587023D01*
X114393078Y-74646856D01*
X114330377Y-74677684D01*
X114309232Y-74679500D01*
X105494388Y-74679500D01*
X105427349Y-74659815D01*
X105381594Y-74607011D01*
X105371650Y-74537853D01*
X105383903Y-74499205D01*
X105389802Y-74487628D01*
X105436904Y-74395185D01*
X105512321Y-74163076D01*
X105550500Y-73922027D01*
X105550500Y-73677973D01*
X105512321Y-73436924D01*
X105436904Y-73204815D01*
X105326106Y-72987361D01*
X105203579Y-72818716D01*
X105182660Y-72789923D01*
X105182656Y-72789918D01*
X105010081Y-72617343D01*
X105010076Y-72617339D01*
X104812642Y-72473896D01*
X104812641Y-72473895D01*
X104812639Y-72473894D01*
X104595185Y-72363096D01*
X104363076Y-72287679D01*
X104363074Y-72287678D01*
X104363072Y-72287678D01*
X104194769Y-72261021D01*
X104122027Y-72249500D01*
X103877973Y-72249500D01*
X103822093Y-72258350D01*
X103636927Y-72287678D01*
X103404812Y-72363097D01*
X103187357Y-72473896D01*
X102989923Y-72617339D01*
X102989918Y-72617343D01*
X102817343Y-72789918D01*
X102817339Y-72789923D01*
X102673896Y-72987357D01*
X102563097Y-73204812D01*
X102487678Y-73436927D01*
X102467088Y-73566927D01*
X102449500Y-73677973D01*
X102449500Y-73922027D01*
X102487679Y-74163076D01*
X102537771Y-74317244D01*
X102563097Y-74395187D01*
X102616097Y-74499205D01*
X102628993Y-74567874D01*
X102602717Y-74632615D01*
X102545610Y-74672872D01*
X102505612Y-74679500D01*
X101380097Y-74679500D01*
X101313058Y-74659815D01*
X101292416Y-74643181D01*
X101092478Y-74443243D01*
X101058993Y-74381920D01*
X101062228Y-74317244D01*
X101070082Y-74293072D01*
X101112321Y-74163076D01*
X101150500Y-73922027D01*
X101150500Y-73677973D01*
X101112321Y-73436924D01*
X101036904Y-73204815D01*
X100926106Y-72987361D01*
X100803579Y-72818716D01*
X100782660Y-72789923D01*
X100782656Y-72789918D01*
X100610081Y-72617343D01*
X100610076Y-72617339D01*
X100412642Y-72473896D01*
X100412641Y-72473895D01*
X100412639Y-72473894D01*
X100195185Y-72363096D01*
X99963076Y-72287679D01*
X99963074Y-72287678D01*
X99963072Y-72287678D01*
X99794769Y-72261021D01*
X99722027Y-72249500D01*
X99477973Y-72249500D01*
X99422093Y-72258350D01*
X99236927Y-72287678D01*
X99004812Y-72363097D01*
X98787357Y-72473896D01*
X98589923Y-72617339D01*
X98589918Y-72617343D01*
X98417343Y-72789918D01*
X98417339Y-72789923D01*
X98273896Y-72987357D01*
X98166915Y-73197317D01*
X98118940Y-73248113D01*
X98051119Y-73264908D01*
X97984984Y-73242370D01*
X97968749Y-73228703D01*
X96828401Y-72088355D01*
X96828399Y-72088352D01*
X96709528Y-71969481D01*
X96709527Y-71969480D01*
X96622715Y-71919360D01*
X96622715Y-71919359D01*
X96622711Y-71919358D01*
X96572596Y-71890423D01*
X96419868Y-71849499D01*
X96261754Y-71849499D01*
X96254158Y-71849499D01*
X96254142Y-71849500D01*
X93850097Y-71849500D01*
X93783058Y-71829815D01*
X93762416Y-71813181D01*
X92292478Y-70343243D01*
X92258993Y-70281920D01*
X92262228Y-70217244D01*
X92270082Y-70193072D01*
X92312321Y-70063076D01*
X92350500Y-69822027D01*
X92350500Y-69577973D01*
X93649500Y-69577973D01*
X93649500Y-69822027D01*
X93687679Y-70063076D01*
X93763096Y-70295185D01*
X93842072Y-70450185D01*
X93873896Y-70512642D01*
X94017339Y-70710076D01*
X94017343Y-70710081D01*
X94189918Y-70882656D01*
X94189923Y-70882660D01*
X94362136Y-71007779D01*
X94387361Y-71026106D01*
X94604815Y-71136904D01*
X94836924Y-71212321D01*
X95077973Y-71250500D01*
X95077974Y-71250500D01*
X95322026Y-71250500D01*
X95322027Y-71250500D01*
X95563076Y-71212321D01*
X95795185Y-71136904D01*
X96012639Y-71026106D01*
X96210083Y-70882655D01*
X96382655Y-70710083D01*
X96526106Y-70512639D01*
X96636904Y-70295185D01*
X96712321Y-70063076D01*
X96750500Y-69822027D01*
X96750500Y-69577973D01*
X98049500Y-69577973D01*
X98049500Y-69822027D01*
X98087679Y-70063076D01*
X98163096Y-70295185D01*
X98242072Y-70450185D01*
X98273896Y-70512642D01*
X98417339Y-70710076D01*
X98417343Y-70710081D01*
X98589918Y-70882656D01*
X98589923Y-70882660D01*
X98762136Y-71007779D01*
X98787361Y-71026106D01*
X99004815Y-71136904D01*
X99236924Y-71212321D01*
X99477973Y-71250500D01*
X99477974Y-71250500D01*
X99722026Y-71250500D01*
X99722027Y-71250500D01*
X99963076Y-71212321D01*
X100195185Y-71136904D01*
X100412639Y-71026106D01*
X100610083Y-70882655D01*
X100782655Y-70710083D01*
X100926106Y-70512639D01*
X101036904Y-70295185D01*
X101112321Y-70063076D01*
X101150500Y-69822027D01*
X101150500Y-69577973D01*
X102449500Y-69577973D01*
X102449500Y-69822027D01*
X102487679Y-70063076D01*
X102563096Y-70295185D01*
X102642072Y-70450185D01*
X102673896Y-70512642D01*
X102817339Y-70710076D01*
X102817343Y-70710081D01*
X102989918Y-70882656D01*
X102989923Y-70882660D01*
X103162136Y-71007779D01*
X103187361Y-71026106D01*
X103404815Y-71136904D01*
X103636924Y-71212321D01*
X103877973Y-71250500D01*
X103877974Y-71250500D01*
X104122026Y-71250500D01*
X104122027Y-71250500D01*
X104363076Y-71212321D01*
X104595185Y-71136904D01*
X104812639Y-71026106D01*
X105010083Y-70882655D01*
X105182655Y-70710083D01*
X105326106Y-70512639D01*
X105436904Y-70295185D01*
X105512321Y-70063076D01*
X105550500Y-69822027D01*
X105550500Y-69577973D01*
X105512321Y-69336924D01*
X105436904Y-69104815D01*
X105326106Y-68887361D01*
X105277105Y-68819917D01*
X105182660Y-68689923D01*
X105182656Y-68689918D01*
X105010081Y-68517343D01*
X105010076Y-68517339D01*
X104812642Y-68373896D01*
X104812641Y-68373895D01*
X104812639Y-68373894D01*
X104595185Y-68263096D01*
X104363076Y-68187679D01*
X104363074Y-68187678D01*
X104363072Y-68187678D01*
X104194769Y-68161021D01*
X104122027Y-68149500D01*
X103877973Y-68149500D01*
X103822093Y-68158350D01*
X103636927Y-68187678D01*
X103404812Y-68263097D01*
X103187357Y-68373896D01*
X102989923Y-68517339D01*
X102989918Y-68517343D01*
X102817343Y-68689918D01*
X102817339Y-68689923D01*
X102673896Y-68887357D01*
X102563097Y-69104812D01*
X102487678Y-69336927D01*
X102461057Y-69505008D01*
X102449500Y-69577973D01*
X101150500Y-69577973D01*
X101112321Y-69336924D01*
X101036904Y-69104815D01*
X100926106Y-68887361D01*
X100877105Y-68819917D01*
X100782660Y-68689923D01*
X100782656Y-68689918D01*
X100610081Y-68517343D01*
X100610076Y-68517339D01*
X100412642Y-68373896D01*
X100412641Y-68373895D01*
X100412639Y-68373894D01*
X100195185Y-68263096D01*
X99963076Y-68187679D01*
X99963074Y-68187678D01*
X99963072Y-68187678D01*
X99794769Y-68161021D01*
X99722027Y-68149500D01*
X99477973Y-68149500D01*
X99422093Y-68158350D01*
X99236927Y-68187678D01*
X99004812Y-68263097D01*
X98787357Y-68373896D01*
X98589923Y-68517339D01*
X98589918Y-68517343D01*
X98417343Y-68689918D01*
X98417339Y-68689923D01*
X98273896Y-68887357D01*
X98163097Y-69104812D01*
X98087678Y-69336927D01*
X98061057Y-69505008D01*
X98049500Y-69577973D01*
X96750500Y-69577973D01*
X96712321Y-69336924D01*
X96636904Y-69104815D01*
X96526106Y-68887361D01*
X96477105Y-68819917D01*
X96382660Y-68689923D01*
X96382656Y-68689918D01*
X96210081Y-68517343D01*
X96210076Y-68517339D01*
X96012642Y-68373896D01*
X96012641Y-68373895D01*
X96012639Y-68373894D01*
X95795185Y-68263096D01*
X95563076Y-68187679D01*
X95563074Y-68187678D01*
X95563072Y-68187678D01*
X95394769Y-68161021D01*
X95322027Y-68149500D01*
X95077973Y-68149500D01*
X95022093Y-68158350D01*
X94836927Y-68187678D01*
X94604812Y-68263097D01*
X94387357Y-68373896D01*
X94189923Y-68517339D01*
X94189918Y-68517343D01*
X94017343Y-68689918D01*
X94017339Y-68689923D01*
X93873896Y-68887357D01*
X93763097Y-69104812D01*
X93687678Y-69336927D01*
X93661057Y-69505008D01*
X93649500Y-69577973D01*
X92350500Y-69577973D01*
X92312321Y-69336924D01*
X92236904Y-69104815D01*
X92126106Y-68887361D01*
X92077105Y-68819917D01*
X91982660Y-68689923D01*
X91982656Y-68689918D01*
X91810081Y-68517343D01*
X91810076Y-68517339D01*
X91612642Y-68373896D01*
X91612641Y-68373895D01*
X91612639Y-68373894D01*
X91395185Y-68263096D01*
X91163076Y-68187679D01*
X91163074Y-68187678D01*
X91163072Y-68187678D01*
X90994769Y-68161021D01*
X90922027Y-68149500D01*
X90677973Y-68149500D01*
X90622093Y-68158350D01*
X90436927Y-68187678D01*
X90204812Y-68263097D01*
X89987357Y-68373896D01*
X89789923Y-68517339D01*
X89789918Y-68517343D01*
X89617343Y-68689918D01*
X89617339Y-68689923D01*
X89473896Y-68887357D01*
X89363097Y-69104812D01*
X89287678Y-69336927D01*
X89261057Y-69505008D01*
X89249500Y-69577973D01*
X89249500Y-69822027D01*
X89287679Y-70063076D01*
X89363096Y-70295185D01*
X89442072Y-70450185D01*
X89473896Y-70512642D01*
X89617339Y-70710076D01*
X89617343Y-70710081D01*
X89789918Y-70882656D01*
X89789923Y-70882660D01*
X89962136Y-71007779D01*
X89987361Y-71026106D01*
X90204815Y-71136904D01*
X90436924Y-71212321D01*
X90677973Y-71250500D01*
X90677974Y-71250500D01*
X90922026Y-71250500D01*
X90922027Y-71250500D01*
X91163076Y-71212321D01*
X91317245Y-71162227D01*
X91387085Y-71160233D01*
X91443243Y-71192478D01*
X93065139Y-72814374D01*
X93065149Y-72814385D01*
X93069479Y-72818715D01*
X93069480Y-72818716D01*
X93181284Y-72930520D01*
X93268095Y-72980639D01*
X93268097Y-72980641D01*
X93318213Y-73009576D01*
X93318215Y-73009577D01*
X93470942Y-73050500D01*
X93470943Y-73050500D01*
X93642565Y-73050500D01*
X93709604Y-73070185D01*
X93755359Y-73122989D01*
X93765303Y-73192147D01*
X93760496Y-73212814D01*
X93750894Y-73242370D01*
X93687678Y-73436927D01*
X93667088Y-73566927D01*
X93649500Y-73677973D01*
X93649500Y-73922027D01*
X93687679Y-74163076D01*
X93763096Y-74395185D01*
X93871026Y-74607011D01*
X93873896Y-74612642D01*
X94017339Y-74810076D01*
X94017343Y-74810081D01*
X94189918Y-74982656D01*
X94189923Y-74982660D01*
X94362136Y-75107779D01*
X94387361Y-75126106D01*
X94604815Y-75236904D01*
X94836924Y-75312321D01*
X95077973Y-75350500D01*
X95077974Y-75350500D01*
X95322026Y-75350500D01*
X95322027Y-75350500D01*
X95563076Y-75312321D01*
X95795185Y-75236904D01*
X96012639Y-75126106D01*
X96210083Y-74982655D01*
X96382655Y-74810083D01*
X96526106Y-74612639D01*
X96636904Y-74395185D01*
X96712321Y-74163076D01*
X96741567Y-73978425D01*
X96771495Y-73915293D01*
X96830806Y-73878361D01*
X96900669Y-73879359D01*
X96951720Y-73910144D01*
X99085950Y-76044374D01*
X99085960Y-76044385D01*
X99090290Y-76048715D01*
X99090291Y-76048716D01*
X99202095Y-76160520D01*
X99288906Y-76210639D01*
X99288908Y-76210641D01*
X99326962Y-76232611D01*
X99339026Y-76239577D01*
X99491754Y-76280501D01*
X99491757Y-76280501D01*
X99657465Y-76280501D01*
X99657481Y-76280500D01*
X115366570Y-76280500D01*
X115433609Y-76300185D01*
X115454251Y-76316819D01*
X118774187Y-79636755D01*
X118807672Y-79698078D01*
X118804437Y-79762753D01*
X118754346Y-79916920D01*
X118736757Y-80027973D01*
X118716167Y-80157973D01*
X118716167Y-80402027D01*
X118754346Y-80643076D01*
X118814013Y-80826713D01*
X118827163Y-80867182D01*
X118829158Y-80937023D01*
X118793078Y-80996856D01*
X118730377Y-81027684D01*
X118709232Y-81029500D01*
X117516764Y-81029500D01*
X117487323Y-81020855D01*
X117457337Y-81014332D01*
X117452321Y-81010577D01*
X117449725Y-81009815D01*
X117429083Y-80993181D01*
X117359145Y-80923243D01*
X117325660Y-80861920D01*
X117328895Y-80797244D01*
X117378988Y-80643076D01*
X117417167Y-80402027D01*
X117417167Y-80157973D01*
X117378988Y-79916924D01*
X117303571Y-79684815D01*
X117192773Y-79467361D01*
X117098320Y-79337357D01*
X117049327Y-79269923D01*
X117049323Y-79269918D01*
X116876748Y-79097343D01*
X116876743Y-79097339D01*
X116679309Y-78953896D01*
X116679308Y-78953895D01*
X116679306Y-78953894D01*
X116461852Y-78843096D01*
X116229743Y-78767679D01*
X116229741Y-78767678D01*
X116229739Y-78767678D01*
X116061436Y-78741021D01*
X115988694Y-78729500D01*
X115744640Y-78729500D01*
X115688760Y-78738350D01*
X115503594Y-78767678D01*
X115271479Y-78843097D01*
X115054024Y-78953896D01*
X114856590Y-79097339D01*
X114856585Y-79097343D01*
X114684010Y-79269918D01*
X114684006Y-79269923D01*
X114540563Y-79467357D01*
X114429764Y-79684812D01*
X114354345Y-79916927D01*
X114316167Y-80157973D01*
X114316167Y-80402026D01*
X114354346Y-80643077D01*
X114354346Y-80643080D01*
X114404437Y-80797243D01*
X114404871Y-80812455D01*
X114410190Y-80826714D01*
X114405848Y-80846670D01*
X114406432Y-80867084D01*
X114398344Y-80881168D01*
X114395339Y-80894987D01*
X114374188Y-80923241D01*
X114284251Y-81013180D01*
X114222928Y-81046666D01*
X114196569Y-81049500D01*
X105484198Y-81049500D01*
X105417159Y-81029815D01*
X105371404Y-80977011D01*
X105361460Y-80907853D01*
X105373713Y-80869205D01*
X105395363Y-80826714D01*
X105436904Y-80745185D01*
X105512321Y-80513076D01*
X105550500Y-80272027D01*
X105550500Y-80027973D01*
X105512321Y-79786924D01*
X105436904Y-79554815D01*
X105326106Y-79337361D01*
X105277105Y-79269917D01*
X105182660Y-79139923D01*
X105182656Y-79139918D01*
X105010081Y-78967343D01*
X105010076Y-78967339D01*
X104812642Y-78823896D01*
X104812641Y-78823895D01*
X104812639Y-78823894D01*
X104595185Y-78713096D01*
X104363076Y-78637679D01*
X104363074Y-78637678D01*
X104363072Y-78637678D01*
X104194769Y-78611021D01*
X104122027Y-78599500D01*
X103877973Y-78599500D01*
X103822093Y-78608350D01*
X103636927Y-78637678D01*
X103404812Y-78713097D01*
X103187357Y-78823896D01*
X102989923Y-78967339D01*
X102989918Y-78967343D01*
X102817343Y-79139918D01*
X102817339Y-79139923D01*
X102673896Y-79337357D01*
X102563097Y-79554812D01*
X102487678Y-79786927D01*
X102467088Y-79916927D01*
X102449500Y-80027973D01*
X102449500Y-80272027D01*
X102487679Y-80513076D01*
X102537771Y-80667244D01*
X102563097Y-80745187D01*
X102626287Y-80869205D01*
X102639183Y-80937875D01*
X102612907Y-81002615D01*
X102555800Y-81042872D01*
X102515802Y-81049500D01*
X101084198Y-81049500D01*
X101017159Y-81029815D01*
X100971404Y-80977011D01*
X100961460Y-80907853D01*
X100973713Y-80869205D01*
X100995363Y-80826714D01*
X101036904Y-80745185D01*
X101112321Y-80513076D01*
X101150500Y-80272027D01*
X101150500Y-80027973D01*
X101112321Y-79786924D01*
X101036904Y-79554815D01*
X100926106Y-79337361D01*
X100877105Y-79269917D01*
X100782660Y-79139923D01*
X100782656Y-79139918D01*
X100610081Y-78967343D01*
X100610076Y-78967339D01*
X100412642Y-78823896D01*
X100412641Y-78823895D01*
X100412639Y-78823894D01*
X100195185Y-78713096D01*
X99963076Y-78637679D01*
X99963074Y-78637678D01*
X99963072Y-78637678D01*
X99794769Y-78611021D01*
X99722027Y-78599500D01*
X99477973Y-78599500D01*
X99422093Y-78608350D01*
X99236927Y-78637678D01*
X99004812Y-78713097D01*
X98787357Y-78823896D01*
X98589923Y-78967339D01*
X98589918Y-78967343D01*
X98417343Y-79139918D01*
X98417339Y-79139923D01*
X98273896Y-79337357D01*
X98163097Y-79554812D01*
X98087678Y-79786927D01*
X98067088Y-79916927D01*
X98049500Y-80027973D01*
X98049500Y-80272027D01*
X98087679Y-80513076D01*
X98137771Y-80667244D01*
X98163097Y-80745187D01*
X98226287Y-80869205D01*
X98239183Y-80937875D01*
X98212907Y-81002615D01*
X98155800Y-81042872D01*
X98115802Y-81049500D01*
X96684198Y-81049500D01*
X96617159Y-81029815D01*
X96571404Y-80977011D01*
X96561460Y-80907853D01*
X96573713Y-80869205D01*
X96595363Y-80826714D01*
X96636904Y-80745185D01*
X96712321Y-80513076D01*
X96750500Y-80272027D01*
X96750500Y-80027973D01*
X96712321Y-79786924D01*
X96636904Y-79554815D01*
X96526106Y-79337361D01*
X96477105Y-79269917D01*
X96382660Y-79139923D01*
X96382656Y-79139918D01*
X96210081Y-78967343D01*
X96210076Y-78967339D01*
X96012642Y-78823896D01*
X96012641Y-78823895D01*
X96012639Y-78823894D01*
X95795185Y-78713096D01*
X95563076Y-78637679D01*
X95563074Y-78637678D01*
X95563072Y-78637678D01*
X95394769Y-78611021D01*
X95322027Y-78599500D01*
X95077973Y-78599500D01*
X95022093Y-78608350D01*
X94836927Y-78637678D01*
X94604812Y-78713097D01*
X94387357Y-78823896D01*
X94189923Y-78967339D01*
X94189918Y-78967343D01*
X94017343Y-79139918D01*
X94017339Y-79139923D01*
X93873896Y-79337357D01*
X93763097Y-79554812D01*
X93687678Y-79786927D01*
X93667088Y-79916927D01*
X93649500Y-80027973D01*
X93649500Y-80272027D01*
X93687679Y-80513076D01*
X93737771Y-80667244D01*
X93763097Y-80745187D01*
X93826287Y-80869205D01*
X93839183Y-80937875D01*
X93812907Y-81002615D01*
X93755800Y-81042872D01*
X93715802Y-81049500D01*
X92600097Y-81049500D01*
X92533058Y-81029815D01*
X92512416Y-81013181D01*
X92292478Y-80793243D01*
X92258993Y-80731920D01*
X92262228Y-80667244D01*
X92312321Y-80513076D01*
X92350500Y-80272027D01*
X92350500Y-80027973D01*
X92312321Y-79786924D01*
X92236904Y-79554815D01*
X92126106Y-79337361D01*
X92077105Y-79269917D01*
X91982660Y-79139923D01*
X91982656Y-79139918D01*
X91810081Y-78967343D01*
X91810076Y-78967339D01*
X91612642Y-78823896D01*
X91612641Y-78823895D01*
X91612639Y-78823894D01*
X91395185Y-78713096D01*
X91163076Y-78637679D01*
X91163074Y-78637678D01*
X91163072Y-78637678D01*
X90994769Y-78611021D01*
X90922027Y-78599500D01*
X90677973Y-78599500D01*
X90622093Y-78608350D01*
X90436927Y-78637678D01*
X90204812Y-78713097D01*
X89987357Y-78823896D01*
X89789923Y-78967339D01*
X89789918Y-78967343D01*
X89617343Y-79139918D01*
X89617339Y-79139923D01*
X89473896Y-79337357D01*
X89363097Y-79554812D01*
X89287678Y-79786927D01*
X89267088Y-79916927D01*
X89249500Y-80027973D01*
X89249500Y-80272027D01*
X89287679Y-80513076D01*
X89363096Y-80745185D01*
X89471026Y-80957011D01*
X89473896Y-80962642D01*
X89617339Y-81160076D01*
X89617343Y-81160081D01*
X89789918Y-81332656D01*
X89789923Y-81332660D01*
X89962136Y-81457779D01*
X89987361Y-81476106D01*
X90204815Y-81586904D01*
X90436924Y-81662321D01*
X90677973Y-81700500D01*
X90677974Y-81700500D01*
X90922026Y-81700500D01*
X90922027Y-81700500D01*
X91163076Y-81662321D01*
X91317245Y-81612227D01*
X91387085Y-81610233D01*
X91443243Y-81642478D01*
X91815139Y-82014374D01*
X91815149Y-82014385D01*
X91819479Y-82018715D01*
X91819480Y-82018716D01*
X91931284Y-82130520D01*
X91931286Y-82130521D01*
X91931290Y-82130524D01*
X92068209Y-82209573D01*
X92068216Y-82209577D01*
X92146306Y-82230501D01*
X92220942Y-82250500D01*
X92220943Y-82250500D01*
X114409998Y-82250500D01*
X114410014Y-82250501D01*
X114417610Y-82250501D01*
X114575721Y-82250501D01*
X114575724Y-82250501D01*
X114728452Y-82209577D01*
X114778571Y-82180639D01*
X114865383Y-82130520D01*
X114977187Y-82018716D01*
X114977187Y-82018714D01*
X114987395Y-82008507D01*
X114987396Y-82008504D01*
X115223424Y-81772477D01*
X115284746Y-81738993D01*
X115349421Y-81742227D01*
X115503591Y-81792321D01*
X115744640Y-81830500D01*
X115744641Y-81830500D01*
X115988693Y-81830500D01*
X115988694Y-81830500D01*
X116229743Y-81792321D01*
X116383912Y-81742227D01*
X116453752Y-81740233D01*
X116509910Y-81772478D01*
X116731806Y-81994374D01*
X116731816Y-81994385D01*
X116736146Y-81998715D01*
X116736147Y-81998716D01*
X116847951Y-82110520D01*
X116882595Y-82130521D01*
X116934762Y-82160639D01*
X116934764Y-82160641D01*
X116984880Y-82189576D01*
X116984882Y-82189577D01*
X117137609Y-82230500D01*
X117137610Y-82230500D01*
X139496664Y-82230500D01*
X139496680Y-82230501D01*
X139504276Y-82230501D01*
X139662387Y-82230501D01*
X139662390Y-82230501D01*
X139815118Y-82189577D01*
X139865237Y-82160639D01*
X139952049Y-82110520D01*
X140063853Y-81998716D01*
X140063853Y-81998714D01*
X140074061Y-81988507D01*
X140074063Y-81988504D01*
X140290090Y-81772476D01*
X140351411Y-81738993D01*
X140416086Y-81742227D01*
X140570257Y-81792321D01*
X140811306Y-81830500D01*
X140811307Y-81830500D01*
X141055359Y-81830500D01*
X141055360Y-81830500D01*
X141296409Y-81792321D01*
X141450578Y-81742227D01*
X141520418Y-81740233D01*
X141576576Y-81772478D01*
X141798472Y-81994374D01*
X141798482Y-81994385D01*
X141802812Y-81998715D01*
X141802813Y-81998716D01*
X141914617Y-82110520D01*
X141949261Y-82130521D01*
X142001428Y-82160639D01*
X142001430Y-82160641D01*
X142051546Y-82189576D01*
X142051548Y-82189577D01*
X142204275Y-82230500D01*
X142204276Y-82230500D01*
X164563331Y-82230500D01*
X164563347Y-82230501D01*
X164570943Y-82230501D01*
X164729054Y-82230501D01*
X164729057Y-82230501D01*
X164881785Y-82189577D01*
X164931904Y-82160639D01*
X165018716Y-82110520D01*
X165130520Y-81998716D01*
X165130520Y-81998714D01*
X165140728Y-81988507D01*
X165140730Y-81988504D01*
X165356757Y-81772476D01*
X165418078Y-81738993D01*
X165482753Y-81742227D01*
X165636924Y-81792321D01*
X165877973Y-81830500D01*
X165877974Y-81830500D01*
X166122026Y-81830500D01*
X166122027Y-81830500D01*
X166363076Y-81792321D01*
X166517245Y-81742227D01*
X166587085Y-81740233D01*
X166643243Y-81772478D01*
X183128181Y-98257416D01*
X183161666Y-98318739D01*
X183164500Y-98345097D01*
X183164500Y-106385500D01*
X183144815Y-106452539D01*
X183092011Y-106498294D01*
X183040500Y-106509500D01*
X181717129Y-106509500D01*
X181717123Y-106509501D01*
X181657516Y-106515908D01*
X181522671Y-106566202D01*
X181522664Y-106566206D01*
X181407455Y-106652452D01*
X181407452Y-106652455D01*
X181321206Y-106767664D01*
X181321202Y-106767671D01*
X181270908Y-106902517D01*
X181264501Y-106962116D01*
X181264500Y-106962135D01*
X181264500Y-108757870D01*
X181264501Y-108757876D01*
X181270908Y-108817483D01*
X181321202Y-108952328D01*
X181321206Y-108952335D01*
X181407452Y-109067544D01*
X181407455Y-109067547D01*
X181522664Y-109153793D01*
X181522671Y-109153797D01*
X181654082Y-109202810D01*
X181710016Y-109244681D01*
X181734433Y-109310145D01*
X181719582Y-109378418D01*
X181698431Y-109406673D01*
X181584889Y-109520215D01*
X181459951Y-109692179D01*
X181363444Y-109881585D01*
X181297753Y-110083760D01*
X181264500Y-110293713D01*
X181264500Y-110506286D01*
X181297754Y-110716244D01*
X181297754Y-110716247D01*
X181311491Y-110758523D01*
X181313486Y-110828364D01*
X181281241Y-110884522D01*
X179862584Y-112303181D01*
X179801261Y-112336666D01*
X179774903Y-112339500D01*
X176575719Y-112339500D01*
X176508680Y-112319815D01*
X176465235Y-112271795D01*
X176445052Y-112232185D01*
X176445051Y-112232184D01*
X176320109Y-112060213D01*
X176169786Y-111909890D01*
X175997820Y-111784951D01*
X175808414Y-111688444D01*
X175808413Y-111688443D01*
X175808412Y-111688443D01*
X175606243Y-111622754D01*
X175606241Y-111622753D01*
X175606240Y-111622753D01*
X175444957Y-111597208D01*
X175396287Y-111589500D01*
X175183713Y-111589500D01*
X175135042Y-111597208D01*
X174973760Y-111622753D01*
X174771585Y-111688444D01*
X174582179Y-111784951D01*
X174410213Y-111909890D01*
X174259894Y-112060209D01*
X174259885Y-112060219D01*
X174256330Y-112065113D01*
X174200997Y-112107775D01*
X174131383Y-112113748D01*
X174069591Y-112081137D01*
X174038312Y-112031223D01*
X174034815Y-112020670D01*
X174034814Y-112020666D01*
X173942712Y-111871344D01*
X173818656Y-111747288D01*
X173723253Y-111688443D01*
X173669336Y-111655187D01*
X173669331Y-111655185D01*
X173658382Y-111651557D01*
X173502797Y-111600001D01*
X173502795Y-111600000D01*
X173400010Y-111589500D01*
X172099998Y-111589500D01*
X172099981Y-111589501D01*
X171997203Y-111600000D01*
X171997200Y-111600001D01*
X171830668Y-111655185D01*
X171830663Y-111655187D01*
X171681342Y-111747289D01*
X171557289Y-111871342D01*
X171465187Y-112020663D01*
X171465185Y-112020668D01*
X171447111Y-112075213D01*
X171410001Y-112187203D01*
X171410001Y-112187204D01*
X171410000Y-112187204D01*
X171399500Y-112289983D01*
X171399500Y-113590001D01*
X171399501Y-113590018D01*
X171410000Y-113692796D01*
X171410001Y-113692799D01*
X171461921Y-113849480D01*
X171465186Y-113859334D01*
X171557288Y-114008656D01*
X171681344Y-114132712D01*
X171830666Y-114224814D01*
X171841223Y-114228312D01*
X171898668Y-114268084D01*
X171925492Y-114332600D01*
X171913177Y-114401376D01*
X171875113Y-114446330D01*
X171870219Y-114449885D01*
X171870209Y-114449894D01*
X171719890Y-114600213D01*
X171594951Y-114772179D01*
X171498444Y-114961585D01*
X171432753Y-115163760D01*
X171399500Y-115373713D01*
X171399500Y-115586286D01*
X171418890Y-115708713D01*
X171432754Y-115796243D01*
X171496743Y-115993181D01*
X171498444Y-115998414D01*
X171594951Y-116187820D01*
X171719890Y-116359786D01*
X171870213Y-116510109D01*
X172042182Y-116635050D01*
X172050946Y-116639516D01*
X172101742Y-116687491D01*
X172118536Y-116755312D01*
X172095998Y-116821447D01*
X172050946Y-116860484D01*
X172042182Y-116864949D01*
X171870213Y-116989890D01*
X171719890Y-117140213D01*
X171594951Y-117312179D01*
X171498444Y-117501585D01*
X171498443Y-117501587D01*
X171498443Y-117501588D01*
X171487432Y-117535476D01*
X171432753Y-117703760D01*
X171406390Y-117870209D01*
X171399500Y-117913713D01*
X171399500Y-118126287D01*
X171407978Y-118179815D01*
X171427136Y-118300776D01*
X171432754Y-118336243D01*
X171464439Y-118433760D01*
X171498444Y-118538414D01*
X171594951Y-118727820D01*
X171719890Y-118899786D01*
X171870213Y-119050109D01*
X172042182Y-119175050D01*
X172050946Y-119179516D01*
X172101742Y-119227491D01*
X172118536Y-119295312D01*
X172095998Y-119361447D01*
X172050946Y-119400484D01*
X172042182Y-119404949D01*
X171870213Y-119529890D01*
X171719890Y-119680213D01*
X171594951Y-119852179D01*
X171498444Y-120041585D01*
X171432753Y-120243760D01*
X171399500Y-120453713D01*
X171399500Y-120666286D01*
X171432753Y-120876239D01*
X171498444Y-121078414D01*
X171594951Y-121267820D01*
X171719890Y-121439786D01*
X171870213Y-121590109D01*
X172042179Y-121715048D01*
X172042181Y-121715049D01*
X172042184Y-121715051D01*
X172231588Y-121811557D01*
X172433757Y-121877246D01*
X172643713Y-121910500D01*
X172643714Y-121910500D01*
X172856286Y-121910500D01*
X172856287Y-121910500D01*
X173066243Y-121877246D01*
X173268412Y-121811557D01*
X173457816Y-121715051D01*
X173479789Y-121699086D01*
X173629786Y-121590109D01*
X173629788Y-121590106D01*
X173629792Y-121590104D01*
X173780104Y-121439792D01*
X173780106Y-121439788D01*
X173780109Y-121439786D01*
X173905048Y-121267820D01*
X173905047Y-121267820D01*
X173905051Y-121267816D01*
X174001557Y-121078412D01*
X174067246Y-120876243D01*
X174100500Y-120666287D01*
X174100500Y-120453713D01*
X174067246Y-120243757D01*
X174001557Y-120041588D01*
X173905051Y-119852184D01*
X173905049Y-119852181D01*
X173905048Y-119852179D01*
X173780109Y-119680213D01*
X173629786Y-119529890D01*
X173457820Y-119404951D01*
X173457115Y-119404591D01*
X173449054Y-119400485D01*
X173398259Y-119352512D01*
X173381463Y-119284692D01*
X173403999Y-119218556D01*
X173449054Y-119179515D01*
X173457816Y-119175051D01*
X173554875Y-119104534D01*
X173629786Y-119050109D01*
X173629788Y-119050106D01*
X173629792Y-119050104D01*
X173780104Y-118899792D01*
X173780106Y-118899788D01*
X173780109Y-118899786D01*
X173905048Y-118727820D01*
X173905050Y-118727817D01*
X173905051Y-118727816D01*
X173909514Y-118719054D01*
X173957488Y-118668259D01*
X174025308Y-118651463D01*
X174091444Y-118673999D01*
X174130486Y-118719056D01*
X174134951Y-118727820D01*
X174259890Y-118899786D01*
X174410213Y-119050109D01*
X174582179Y-119175048D01*
X174582181Y-119175049D01*
X174582184Y-119175051D01*
X174771588Y-119271557D01*
X174973757Y-119337246D01*
X175183713Y-119370500D01*
X175183714Y-119370500D01*
X175396286Y-119370500D01*
X175396287Y-119370500D01*
X175606243Y-119337246D01*
X175808412Y-119271557D01*
X175997816Y-119175051D01*
X176094875Y-119104534D01*
X176169786Y-119050109D01*
X176169788Y-119050106D01*
X176169792Y-119050104D01*
X176320104Y-118899792D01*
X176320106Y-118899788D01*
X176320109Y-118899786D01*
X176445048Y-118727820D01*
X176445050Y-118727817D01*
X176445051Y-118727816D01*
X176541557Y-118538412D01*
X176607246Y-118336243D01*
X176640500Y-118126287D01*
X176640500Y-117913713D01*
X176607246Y-117703757D01*
X176541557Y-117501588D01*
X176495296Y-117410795D01*
X176482400Y-117342125D01*
X176508677Y-117277385D01*
X176565783Y-117237128D01*
X176605781Y-117230500D01*
X180924903Y-117230500D01*
X180991942Y-117250185D01*
X181012584Y-117266819D01*
X181281241Y-117535476D01*
X181314726Y-117596799D01*
X181311492Y-117661473D01*
X181297753Y-117703757D01*
X181268076Y-117891137D01*
X181264500Y-117913713D01*
X181264500Y-118126287D01*
X181272978Y-118179815D01*
X181292136Y-118300776D01*
X181297754Y-118336243D01*
X181329439Y-118433760D01*
X181363444Y-118538414D01*
X181459951Y-118727820D01*
X181584890Y-118899786D01*
X181735213Y-119050109D01*
X181907182Y-119175050D01*
X181915946Y-119179516D01*
X181966742Y-119227491D01*
X181983536Y-119295312D01*
X181960998Y-119361447D01*
X181915946Y-119400484D01*
X181907182Y-119404949D01*
X181735213Y-119529890D01*
X181584890Y-119680213D01*
X181459951Y-119852179D01*
X181363444Y-120041585D01*
X181297753Y-120243760D01*
X181264500Y-120453713D01*
X181264500Y-120666286D01*
X181297753Y-120876239D01*
X181363444Y-121078414D01*
X181459951Y-121267820D01*
X181584890Y-121439786D01*
X181735213Y-121590109D01*
X181907182Y-121715050D01*
X181915946Y-121719516D01*
X181966742Y-121767491D01*
X181983536Y-121835312D01*
X181960998Y-121901447D01*
X181915946Y-121940484D01*
X181907182Y-121944949D01*
X181735213Y-122069890D01*
X181584890Y-122220213D01*
X181459951Y-122392179D01*
X181363444Y-122581585D01*
X181297753Y-122783760D01*
X181264500Y-122993713D01*
X181264500Y-123206286D01*
X181288355Y-123356904D01*
X181297754Y-123416243D01*
X181353046Y-123586415D01*
X181363444Y-123618414D01*
X181459951Y-123807820D01*
X181584890Y-123979786D01*
X181735213Y-124130109D01*
X181907179Y-124255048D01*
X181907181Y-124255049D01*
X181907184Y-124255051D01*
X182096588Y-124351557D01*
X182298757Y-124417246D01*
X182508713Y-124450500D01*
X182508714Y-124450500D01*
X182721286Y-124450500D01*
X182721287Y-124450500D01*
X182931243Y-124417246D01*
X183133412Y-124351557D01*
X183322816Y-124255051D01*
X183446898Y-124164901D01*
X183494786Y-124130109D01*
X183494788Y-124130106D01*
X183494792Y-124130104D01*
X183645104Y-123979792D01*
X183645106Y-123979788D01*
X183645109Y-123979786D01*
X183770048Y-123807820D01*
X183770047Y-123807820D01*
X183770051Y-123807816D01*
X183866557Y-123618412D01*
X183932246Y-123416243D01*
X183965500Y-123206287D01*
X183965500Y-122993713D01*
X183932246Y-122783757D01*
X183866557Y-122581588D01*
X183770051Y-122392184D01*
X183770049Y-122392181D01*
X183770048Y-122392179D01*
X183645109Y-122220213D01*
X183494786Y-122069890D01*
X183322820Y-121944951D01*
X183322115Y-121944591D01*
X183314054Y-121940485D01*
X183263259Y-121892512D01*
X183246463Y-121824692D01*
X183268999Y-121758556D01*
X183314054Y-121719515D01*
X183322816Y-121715051D01*
X183344789Y-121699086D01*
X183494786Y-121590109D01*
X183494788Y-121590106D01*
X183494792Y-121590104D01*
X183645104Y-121439792D01*
X183645106Y-121439788D01*
X183645109Y-121439786D01*
X183770048Y-121267820D01*
X183770047Y-121267820D01*
X183770051Y-121267816D01*
X183866557Y-121078412D01*
X183932246Y-120876243D01*
X183965500Y-120666287D01*
X183965500Y-120453713D01*
X183932246Y-120243757D01*
X183866557Y-120041588D01*
X183770051Y-119852184D01*
X183770049Y-119852181D01*
X183770048Y-119852179D01*
X183645109Y-119680213D01*
X183494786Y-119529890D01*
X183322820Y-119404951D01*
X183322115Y-119404591D01*
X183314054Y-119400485D01*
X183263259Y-119352512D01*
X183246463Y-119284692D01*
X183268999Y-119218556D01*
X183314054Y-119179515D01*
X183322816Y-119175051D01*
X183419875Y-119104534D01*
X183494786Y-119050109D01*
X183494788Y-119050106D01*
X183494792Y-119050104D01*
X183645104Y-118899792D01*
X183645106Y-118899788D01*
X183645109Y-118899786D01*
X183770048Y-118727820D01*
X183770050Y-118727817D01*
X183770051Y-118727816D01*
X183866557Y-118538412D01*
X183932246Y-118336243D01*
X183965500Y-118126287D01*
X183965500Y-117913713D01*
X183932246Y-117703757D01*
X183866557Y-117501588D01*
X183770051Y-117312184D01*
X183770049Y-117312181D01*
X183770048Y-117312179D01*
X183645109Y-117140213D01*
X183494786Y-116989890D01*
X183322820Y-116864951D01*
X183322115Y-116864591D01*
X183314054Y-116860485D01*
X183263259Y-116812512D01*
X183246463Y-116744692D01*
X183268999Y-116678556D01*
X183314054Y-116639515D01*
X183322816Y-116635051D01*
X183414385Y-116568523D01*
X183494786Y-116510109D01*
X183494788Y-116510106D01*
X183494792Y-116510104D01*
X183645104Y-116359792D01*
X183645106Y-116359788D01*
X183645109Y-116359786D01*
X183770048Y-116187820D01*
X183770047Y-116187820D01*
X183770051Y-116187816D01*
X183866557Y-115998412D01*
X183932246Y-115796243D01*
X183965500Y-115586287D01*
X183965500Y-115373713D01*
X183932246Y-115163757D01*
X183918506Y-115121473D01*
X183916512Y-115051635D01*
X183948753Y-114995480D01*
X184245520Y-114698716D01*
X184268113Y-114659582D01*
X184318678Y-114611368D01*
X184387285Y-114598144D01*
X184452150Y-114624111D01*
X184492680Y-114681025D01*
X184499500Y-114721583D01*
X184499500Y-134375500D01*
X184479815Y-134442539D01*
X184427011Y-134488294D01*
X184375500Y-134499500D01*
X85624500Y-134499500D01*
X85557461Y-134479815D01*
X85511706Y-134427011D01*
X85500500Y-134375500D01*
X85500500Y-106977135D01*
X93049500Y-106977135D01*
X93049500Y-108772870D01*
X93049501Y-108772876D01*
X93055908Y-108832483D01*
X93106202Y-108967328D01*
X93106206Y-108967335D01*
X93192452Y-109082544D01*
X93192455Y-109082547D01*
X93307664Y-109168793D01*
X93307671Y-109168797D01*
X93439082Y-109217810D01*
X93495016Y-109259681D01*
X93519433Y-109325145D01*
X93504582Y-109393418D01*
X93483431Y-109421673D01*
X93369889Y-109535215D01*
X93244951Y-109707179D01*
X93148444Y-109896585D01*
X93082753Y-110098760D01*
X93051876Y-110293713D01*
X93049500Y-110308713D01*
X93049500Y-110521287D01*
X93082754Y-110731243D01*
X93115099Y-110830791D01*
X93148444Y-110933414D01*
X93244951Y-111122820D01*
X93369890Y-111294786D01*
X93520213Y-111445109D01*
X93692182Y-111570050D01*
X93700946Y-111574516D01*
X93751742Y-111622491D01*
X93768536Y-111690312D01*
X93745998Y-111756447D01*
X93700946Y-111795484D01*
X93692182Y-111799949D01*
X93520213Y-111924890D01*
X93369890Y-112075213D01*
X93244951Y-112247179D01*
X93148444Y-112436585D01*
X93082753Y-112638760D01*
X93049500Y-112848713D01*
X93049500Y-113061286D01*
X93082753Y-113271239D01*
X93082753Y-113271241D01*
X93082754Y-113271243D01*
X93147274Y-113469815D01*
X93148444Y-113473414D01*
X93244951Y-113662820D01*
X93369890Y-113834786D01*
X93520213Y-113985109D01*
X93692182Y-114110050D01*
X93700946Y-114114516D01*
X93751742Y-114162491D01*
X93768536Y-114230312D01*
X93745998Y-114296447D01*
X93700946Y-114335484D01*
X93692182Y-114339949D01*
X93520213Y-114464890D01*
X93369890Y-114615213D01*
X93244951Y-114787179D01*
X93148444Y-114976585D01*
X93082753Y-115178760D01*
X93049500Y-115388713D01*
X93049500Y-115601286D01*
X93082753Y-115811239D01*
X93082753Y-115811241D01*
X93082754Y-115811243D01*
X93147274Y-116009815D01*
X93148444Y-116013414D01*
X93244951Y-116202820D01*
X93369890Y-116374786D01*
X93520213Y-116525109D01*
X93692182Y-116650050D01*
X93700946Y-116654516D01*
X93751742Y-116702491D01*
X93768536Y-116770312D01*
X93745998Y-116836447D01*
X93700946Y-116875484D01*
X93692182Y-116879949D01*
X93520213Y-117004890D01*
X93369890Y-117155213D01*
X93244951Y-117327179D01*
X93148444Y-117516585D01*
X93082753Y-117718760D01*
X93049500Y-117928713D01*
X93049500Y-118141286D01*
X93080377Y-118336239D01*
X93082754Y-118351243D01*
X93143569Y-118538412D01*
X93148444Y-118553414D01*
X93244951Y-118742820D01*
X93369890Y-118914786D01*
X93520213Y-119065109D01*
X93692182Y-119190050D01*
X93700946Y-119194516D01*
X93751742Y-119242491D01*
X93768536Y-119310312D01*
X93745998Y-119376447D01*
X93700946Y-119415484D01*
X93692182Y-119419949D01*
X93520213Y-119544890D01*
X93369890Y-119695213D01*
X93244951Y-119867179D01*
X93148444Y-120056585D01*
X93082753Y-120258760D01*
X93049500Y-120468713D01*
X93049500Y-120681286D01*
X93080377Y-120876239D01*
X93082754Y-120891243D01*
X93143569Y-121078412D01*
X93148444Y-121093414D01*
X93244951Y-121282820D01*
X93369890Y-121454786D01*
X93520213Y-121605109D01*
X93692182Y-121730050D01*
X93700946Y-121734516D01*
X93751742Y-121782491D01*
X93768536Y-121850312D01*
X93745998Y-121916447D01*
X93700946Y-121955484D01*
X93692182Y-121959949D01*
X93520213Y-122084890D01*
X93369890Y-122235213D01*
X93244951Y-122407179D01*
X93148444Y-122596585D01*
X93082753Y-122798760D01*
X93049500Y-123008713D01*
X93049500Y-123221286D01*
X93080377Y-123416239D01*
X93082754Y-123431243D01*
X93143569Y-123618412D01*
X93148444Y-123633414D01*
X93244951Y-123822820D01*
X93369890Y-123994786D01*
X93520213Y-124145109D01*
X93692179Y-124270048D01*
X93692181Y-124270049D01*
X93692184Y-124270051D01*
X93881588Y-124366557D01*
X94083757Y-124432246D01*
X94293713Y-124465500D01*
X94293714Y-124465500D01*
X94506286Y-124465500D01*
X94506287Y-124465500D01*
X94716243Y-124432246D01*
X94918412Y-124366557D01*
X95107816Y-124270051D01*
X95160272Y-124231940D01*
X95279786Y-124145109D01*
X95279788Y-124145106D01*
X95279792Y-124145104D01*
X95430104Y-123994792D01*
X95430106Y-123994788D01*
X95430109Y-123994786D01*
X95555048Y-123822820D01*
X95555047Y-123822820D01*
X95555051Y-123822816D01*
X95651557Y-123633412D01*
X95717246Y-123431243D01*
X95750500Y-123221287D01*
X95750500Y-123008713D01*
X95717246Y-122798757D01*
X95651557Y-122596588D01*
X95555051Y-122407184D01*
X95555049Y-122407181D01*
X95555048Y-122407179D01*
X95430109Y-122235213D01*
X95279786Y-122084890D01*
X95107820Y-121959951D01*
X95107115Y-121959591D01*
X95099054Y-121955485D01*
X95048259Y-121907512D01*
X95031463Y-121839692D01*
X95053999Y-121773556D01*
X95099054Y-121734515D01*
X95107816Y-121730051D01*
X95129789Y-121714086D01*
X95279786Y-121605109D01*
X95279788Y-121605106D01*
X95279792Y-121605104D01*
X95430104Y-121454792D01*
X95430106Y-121454788D01*
X95430109Y-121454786D01*
X95555048Y-121282820D01*
X95555047Y-121282820D01*
X95555051Y-121282816D01*
X95651557Y-121093412D01*
X95717246Y-120891243D01*
X95750500Y-120681287D01*
X95750500Y-120468713D01*
X95717246Y-120258757D01*
X95651557Y-120056588D01*
X95555051Y-119867184D01*
X95555049Y-119867181D01*
X95555048Y-119867179D01*
X95430109Y-119695213D01*
X95279786Y-119544890D01*
X95107820Y-119419951D01*
X95107115Y-119419591D01*
X95099054Y-119415485D01*
X95048259Y-119367512D01*
X95031463Y-119299692D01*
X95053999Y-119233556D01*
X95099054Y-119194515D01*
X95107816Y-119190051D01*
X95225521Y-119104534D01*
X95279786Y-119065109D01*
X95279788Y-119065106D01*
X95279792Y-119065104D01*
X95430104Y-118914792D01*
X95430106Y-118914788D01*
X95430109Y-118914786D01*
X95488661Y-118834193D01*
X95555051Y-118742816D01*
X95562692Y-118727820D01*
X95575235Y-118703205D01*
X95623209Y-118652409D01*
X95685719Y-118635500D01*
X100471925Y-118635500D01*
X100538964Y-118655185D01*
X100582409Y-118703205D01*
X100594949Y-118727816D01*
X100594950Y-118727817D01*
X100594956Y-118727826D01*
X100719890Y-118899786D01*
X100870213Y-119050109D01*
X101042182Y-119175050D01*
X101050946Y-119179516D01*
X101101742Y-119227491D01*
X101118536Y-119295312D01*
X101095998Y-119361447D01*
X101050946Y-119400484D01*
X101042182Y-119404949D01*
X100870213Y-119529890D01*
X100719890Y-119680213D01*
X100594951Y-119852179D01*
X100498444Y-120041585D01*
X100432753Y-120243760D01*
X100399500Y-120453713D01*
X100399500Y-120666286D01*
X100432753Y-120876239D01*
X100498444Y-121078414D01*
X100594951Y-121267820D01*
X100719890Y-121439786D01*
X100870213Y-121590109D01*
X101042179Y-121715048D01*
X101042181Y-121715049D01*
X101042184Y-121715051D01*
X101231588Y-121811557D01*
X101433757Y-121877246D01*
X101643713Y-121910500D01*
X101643714Y-121910500D01*
X101856286Y-121910500D01*
X101856287Y-121910500D01*
X102066243Y-121877246D01*
X102268412Y-121811557D01*
X102457816Y-121715051D01*
X102479789Y-121699086D01*
X102629786Y-121590109D01*
X102629788Y-121590106D01*
X102629792Y-121590104D01*
X102780104Y-121439792D01*
X102780106Y-121439788D01*
X102780109Y-121439786D01*
X102905048Y-121267820D01*
X102905047Y-121267820D01*
X102905051Y-121267816D01*
X103001557Y-121078412D01*
X103067246Y-120876243D01*
X103100500Y-120666287D01*
X103100500Y-120453713D01*
X103067246Y-120243757D01*
X103001557Y-120041588D01*
X102905051Y-119852184D01*
X102905049Y-119852181D01*
X102905048Y-119852179D01*
X102780109Y-119680213D01*
X102629786Y-119529890D01*
X102457820Y-119404951D01*
X102457115Y-119404591D01*
X102449054Y-119400485D01*
X102398259Y-119352512D01*
X102381463Y-119284692D01*
X102403999Y-119218556D01*
X102449054Y-119179515D01*
X102457816Y-119175051D01*
X102554875Y-119104534D01*
X102629786Y-119050109D01*
X102629788Y-119050106D01*
X102629792Y-119050104D01*
X102780104Y-118899792D01*
X102780106Y-118899788D01*
X102780109Y-118899786D01*
X102905048Y-118727820D01*
X102905050Y-118727817D01*
X102905051Y-118727816D01*
X102909514Y-118719054D01*
X102957488Y-118668259D01*
X103025308Y-118651463D01*
X103091444Y-118673999D01*
X103130486Y-118719056D01*
X103134951Y-118727820D01*
X103259890Y-118899786D01*
X103410213Y-119050109D01*
X103582179Y-119175048D01*
X103582181Y-119175049D01*
X103582184Y-119175051D01*
X103771588Y-119271557D01*
X103973757Y-119337246D01*
X104183713Y-119370500D01*
X104183714Y-119370500D01*
X104396286Y-119370500D01*
X104396287Y-119370500D01*
X104606243Y-119337246D01*
X104808412Y-119271557D01*
X104997816Y-119175051D01*
X105094875Y-119104534D01*
X105169786Y-119050109D01*
X105169788Y-119050106D01*
X105169792Y-119050104D01*
X105320104Y-118899792D01*
X105320106Y-118899788D01*
X105320109Y-118899786D01*
X105434153Y-118742816D01*
X105445051Y-118727816D01*
X105460422Y-118697648D01*
X111879500Y-118697648D01*
X111879500Y-118902351D01*
X111911522Y-119104534D01*
X111974781Y-119299223D01*
X112028168Y-119403999D01*
X112063320Y-119472989D01*
X112067715Y-119481613D01*
X112188028Y-119647213D01*
X112332786Y-119791971D01*
X112487749Y-119904556D01*
X112498390Y-119912287D01*
X112576504Y-119952088D01*
X112680776Y-120005218D01*
X112680778Y-120005218D01*
X112680781Y-120005220D01*
X112771856Y-120034812D01*
X112875465Y-120068477D01*
X112976557Y-120084488D01*
X113077648Y-120100500D01*
X113077649Y-120100500D01*
X113282351Y-120100500D01*
X113282352Y-120100500D01*
X113484534Y-120068477D01*
X113679219Y-120005220D01*
X113861610Y-119912287D01*
X113990482Y-119818657D01*
X114027213Y-119791971D01*
X114027215Y-119791968D01*
X114027219Y-119791966D01*
X114171966Y-119647219D01*
X114171968Y-119647215D01*
X114171971Y-119647213D01*
X114257205Y-119529896D01*
X114292287Y-119481610D01*
X114385220Y-119299219D01*
X114448477Y-119104534D01*
X114480500Y-118902352D01*
X114480500Y-118697648D01*
X114470657Y-118635500D01*
X114448477Y-118495465D01*
X114385218Y-118300776D01*
X114360940Y-118253129D01*
X114333861Y-118199983D01*
X119499500Y-118199983D01*
X119499500Y-119400001D01*
X119499501Y-119400018D01*
X119510000Y-119502796D01*
X119510001Y-119502799D01*
X119523949Y-119544890D01*
X119565186Y-119669334D01*
X119657288Y-119818656D01*
X119781344Y-119942712D01*
X119930666Y-120034814D01*
X120097203Y-120089999D01*
X120199991Y-120100500D01*
X121400008Y-120100499D01*
X121502797Y-120089999D01*
X121669334Y-120034814D01*
X121818656Y-119942712D01*
X121942712Y-119818656D01*
X122034814Y-119669334D01*
X122089999Y-119502797D01*
X122089999Y-119502793D01*
X122090912Y-119498533D01*
X122124199Y-119437102D01*
X122185414Y-119403419D01*
X122212163Y-119400500D01*
X127785500Y-119400500D01*
X127852539Y-119420185D01*
X127898294Y-119472989D01*
X127909500Y-119524500D01*
X127909500Y-124314281D01*
X127889815Y-124381320D01*
X127841795Y-124424765D01*
X127802185Y-124444947D01*
X127802184Y-124444948D01*
X127630215Y-124569889D01*
X127516673Y-124683431D01*
X127455350Y-124716915D01*
X127385658Y-124711931D01*
X127329725Y-124670059D01*
X127312810Y-124639082D01*
X127263797Y-124507671D01*
X127263793Y-124507664D01*
X127177547Y-124392455D01*
X127177544Y-124392452D01*
X127062335Y-124306206D01*
X127062328Y-124306202D01*
X126927482Y-124255908D01*
X126927483Y-124255908D01*
X126867883Y-124249501D01*
X126867881Y-124249500D01*
X126867873Y-124249500D01*
X126867864Y-124249500D01*
X125072129Y-124249500D01*
X125072123Y-124249501D01*
X125012516Y-124255908D01*
X124877671Y-124306202D01*
X124877664Y-124306206D01*
X124762455Y-124392452D01*
X124762452Y-124392455D01*
X124676206Y-124507664D01*
X124676202Y-124507671D01*
X124625908Y-124642517D01*
X124619501Y-124702116D01*
X124619500Y-124702135D01*
X124619500Y-126497870D01*
X124619501Y-126497876D01*
X124625908Y-126557483D01*
X124676202Y-126692328D01*
X124676206Y-126692335D01*
X124762452Y-126807544D01*
X124762455Y-126807547D01*
X124877664Y-126893793D01*
X124877671Y-126893797D01*
X125012517Y-126944091D01*
X125012516Y-126944091D01*
X125019444Y-126944835D01*
X125072127Y-126950500D01*
X126867872Y-126950499D01*
X126927483Y-126944091D01*
X127062331Y-126893796D01*
X127177546Y-126807546D01*
X127263796Y-126692331D01*
X127312810Y-126560916D01*
X127354681Y-126504984D01*
X127420145Y-126480566D01*
X127488418Y-126495417D01*
X127516673Y-126516569D01*
X127630213Y-126630109D01*
X127802179Y-126755048D01*
X127802181Y-126755049D01*
X127802184Y-126755051D01*
X127991588Y-126851557D01*
X128193757Y-126917246D01*
X128403713Y-126950500D01*
X128403714Y-126950500D01*
X128616286Y-126950500D01*
X128616287Y-126950500D01*
X128826243Y-126917246D01*
X129028412Y-126851557D01*
X129217816Y-126755051D01*
X129304138Y-126692335D01*
X129389786Y-126630109D01*
X129389788Y-126630106D01*
X129389792Y-126630104D01*
X129540104Y-126479792D01*
X129540106Y-126479788D01*
X129540109Y-126479786D01*
X129665048Y-126307820D01*
X129665047Y-126307820D01*
X129665051Y-126307816D01*
X129669514Y-126299054D01*
X129717488Y-126248259D01*
X129785308Y-126231463D01*
X129851444Y-126253999D01*
X129890486Y-126299056D01*
X129894951Y-126307820D01*
X130019890Y-126479786D01*
X130170213Y-126630109D01*
X130342179Y-126755048D01*
X130342181Y-126755049D01*
X130342184Y-126755051D01*
X130531588Y-126851557D01*
X130733757Y-126917246D01*
X130943713Y-126950500D01*
X130943714Y-126950500D01*
X131156286Y-126950500D01*
X131156287Y-126950500D01*
X131366243Y-126917246D01*
X131568412Y-126851557D01*
X131757816Y-126755051D01*
X131844138Y-126692335D01*
X131929786Y-126630109D01*
X131929788Y-126630106D01*
X131929792Y-126630104D01*
X132080104Y-126479792D01*
X132080106Y-126479788D01*
X132080109Y-126479786D01*
X132205048Y-126307820D01*
X132205047Y-126307820D01*
X132205051Y-126307816D01*
X132209514Y-126299054D01*
X132257488Y-126248259D01*
X132325308Y-126231463D01*
X132391444Y-126253999D01*
X132430486Y-126299056D01*
X132434951Y-126307820D01*
X132559890Y-126479786D01*
X132710213Y-126630109D01*
X132882179Y-126755048D01*
X132882181Y-126755049D01*
X132882184Y-126755051D01*
X133071588Y-126851557D01*
X133273757Y-126917246D01*
X133483713Y-126950500D01*
X133483714Y-126950500D01*
X133696286Y-126950500D01*
X133696287Y-126950500D01*
X133906243Y-126917246D01*
X134108412Y-126851557D01*
X134297816Y-126755051D01*
X134384138Y-126692335D01*
X134469786Y-126630109D01*
X134469788Y-126630106D01*
X134469792Y-126630104D01*
X134620104Y-126479792D01*
X134620106Y-126479788D01*
X134620109Y-126479786D01*
X134745048Y-126307820D01*
X134745047Y-126307820D01*
X134745051Y-126307816D01*
X134749514Y-126299054D01*
X134797488Y-126248259D01*
X134865308Y-126231463D01*
X134931444Y-126253999D01*
X134970486Y-126299056D01*
X134974951Y-126307820D01*
X135099890Y-126479786D01*
X135250213Y-126630109D01*
X135422179Y-126755048D01*
X135422181Y-126755049D01*
X135422184Y-126755051D01*
X135611588Y-126851557D01*
X135813757Y-126917246D01*
X136023713Y-126950500D01*
X136023714Y-126950500D01*
X136236286Y-126950500D01*
X136236287Y-126950500D01*
X136446243Y-126917246D01*
X136648412Y-126851557D01*
X136837816Y-126755051D01*
X136924138Y-126692335D01*
X137009786Y-126630109D01*
X137009788Y-126630106D01*
X137009792Y-126630104D01*
X137160104Y-126479792D01*
X137160106Y-126479788D01*
X137160109Y-126479786D01*
X137285048Y-126307820D01*
X137285047Y-126307820D01*
X137285051Y-126307816D01*
X137289514Y-126299054D01*
X137337488Y-126248259D01*
X137405308Y-126231463D01*
X137471444Y-126253999D01*
X137510486Y-126299056D01*
X137514951Y-126307820D01*
X137639890Y-126479786D01*
X137790213Y-126630109D01*
X137962179Y-126755048D01*
X137962181Y-126755049D01*
X137962184Y-126755051D01*
X138151588Y-126851557D01*
X138353757Y-126917246D01*
X138563713Y-126950500D01*
X138563714Y-126950500D01*
X138776286Y-126950500D01*
X138776287Y-126950500D01*
X138986243Y-126917246D01*
X139188412Y-126851557D01*
X139377816Y-126755051D01*
X139464138Y-126692335D01*
X139549786Y-126630109D01*
X139549788Y-126630106D01*
X139549792Y-126630104D01*
X139700104Y-126479792D01*
X139700106Y-126479788D01*
X139700109Y-126479786D01*
X139825048Y-126307820D01*
X139825047Y-126307820D01*
X139825051Y-126307816D01*
X139829514Y-126299054D01*
X139877488Y-126248259D01*
X139945308Y-126231463D01*
X140011444Y-126253999D01*
X140050486Y-126299056D01*
X140054951Y-126307820D01*
X140179890Y-126479786D01*
X140330213Y-126630109D01*
X140502179Y-126755048D01*
X140502181Y-126755049D01*
X140502184Y-126755051D01*
X140691588Y-126851557D01*
X140893757Y-126917246D01*
X141103713Y-126950500D01*
X141103714Y-126950500D01*
X141316286Y-126950500D01*
X141316287Y-126950500D01*
X141526243Y-126917246D01*
X141728412Y-126851557D01*
X141917816Y-126755051D01*
X142004138Y-126692335D01*
X142089786Y-126630109D01*
X142089788Y-126630106D01*
X142089792Y-126630104D01*
X142240104Y-126479792D01*
X142240106Y-126479788D01*
X142240109Y-126479786D01*
X142365048Y-126307820D01*
X142365047Y-126307820D01*
X142365051Y-126307816D01*
X142461557Y-126118412D01*
X142527246Y-125916243D01*
X142560500Y-125706287D01*
X142560500Y-125493713D01*
X142527246Y-125283757D01*
X142461557Y-125081588D01*
X142365051Y-124892184D01*
X142365049Y-124892181D01*
X142365048Y-124892179D01*
X142240109Y-124720213D01*
X142089786Y-124569890D01*
X141917820Y-124444951D01*
X141728414Y-124348444D01*
X141728413Y-124348443D01*
X141728412Y-124348443D01*
X141526243Y-124282754D01*
X141526241Y-124282753D01*
X141526240Y-124282753D01*
X141364957Y-124257208D01*
X141316287Y-124249500D01*
X141103713Y-124249500D01*
X141055042Y-124257208D01*
X140893760Y-124282753D01*
X140691585Y-124348444D01*
X140502179Y-124444951D01*
X140330213Y-124569890D01*
X140179890Y-124720213D01*
X140054949Y-124892182D01*
X140050484Y-124900946D01*
X140002509Y-124951742D01*
X139934688Y-124968536D01*
X139868553Y-124945998D01*
X139829516Y-124900946D01*
X139825050Y-124892182D01*
X139700109Y-124720213D01*
X139549786Y-124569890D01*
X139377820Y-124444951D01*
X139188414Y-124348444D01*
X139188413Y-124348443D01*
X139188412Y-124348443D01*
X138986243Y-124282754D01*
X138986241Y-124282753D01*
X138986240Y-124282753D01*
X138824957Y-124257208D01*
X138776287Y-124249500D01*
X138563713Y-124249500D01*
X138515042Y-124257208D01*
X138353760Y-124282753D01*
X138151585Y-124348444D01*
X137962179Y-124444951D01*
X137790213Y-124569890D01*
X137639890Y-124720213D01*
X137514949Y-124892182D01*
X137510484Y-124900946D01*
X137462509Y-124951742D01*
X137394688Y-124968536D01*
X137328553Y-124945998D01*
X137289516Y-124900946D01*
X137285050Y-124892182D01*
X137160109Y-124720213D01*
X137009786Y-124569890D01*
X136837815Y-124444948D01*
X136837814Y-124444947D01*
X136798205Y-124424765D01*
X136747409Y-124376791D01*
X136730500Y-124314281D01*
X136730500Y-120028075D01*
X136750185Y-119961036D01*
X136798205Y-119917590D01*
X136822816Y-119905051D01*
X136941728Y-119818657D01*
X136994786Y-119780109D01*
X136994788Y-119780106D01*
X136994792Y-119780104D01*
X137145104Y-119629792D01*
X137145106Y-119629788D01*
X137145109Y-119629786D01*
X137270048Y-119457820D01*
X137270047Y-119457820D01*
X137270051Y-119457816D01*
X137274514Y-119449054D01*
X137322488Y-119398259D01*
X137390308Y-119381463D01*
X137456444Y-119403999D01*
X137495486Y-119449056D01*
X137499951Y-119457820D01*
X137624890Y-119629786D01*
X137775213Y-119780109D01*
X137947179Y-119905048D01*
X137947181Y-119905049D01*
X137947184Y-119905051D01*
X138136588Y-120001557D01*
X138338757Y-120067246D01*
X138548713Y-120100500D01*
X138548714Y-120100500D01*
X138761286Y-120100500D01*
X138761287Y-120100500D01*
X138971243Y-120067246D01*
X139173412Y-120001557D01*
X139362816Y-119905051D01*
X139444501Y-119845704D01*
X139534786Y-119780109D01*
X139534788Y-119780106D01*
X139534792Y-119780104D01*
X139685104Y-119629792D01*
X139685106Y-119629788D01*
X139685109Y-119629786D01*
X139810048Y-119457820D01*
X139810047Y-119457820D01*
X139810051Y-119457816D01*
X139906557Y-119268412D01*
X139972246Y-119066243D01*
X140005500Y-118856287D01*
X140005500Y-118643713D01*
X139972246Y-118433757D01*
X139906557Y-118231588D01*
X139810051Y-118042184D01*
X139810049Y-118042181D01*
X139810048Y-118042179D01*
X139685109Y-117870213D01*
X139534786Y-117719890D01*
X139362820Y-117594951D01*
X139173414Y-117498444D01*
X139173413Y-117498443D01*
X139173412Y-117498443D01*
X138971243Y-117432754D01*
X138971241Y-117432753D01*
X138971240Y-117432753D01*
X138809957Y-117407208D01*
X138761287Y-117399500D01*
X138548713Y-117399500D01*
X138500042Y-117407208D01*
X138338760Y-117432753D01*
X138136585Y-117498444D01*
X137947179Y-117594951D01*
X137775213Y-117719890D01*
X137624890Y-117870213D01*
X137499949Y-118042182D01*
X137495484Y-118050946D01*
X137447509Y-118101742D01*
X137379688Y-118118536D01*
X137313553Y-118095998D01*
X137274516Y-118050946D01*
X137270050Y-118042182D01*
X137145109Y-117870213D01*
X136994786Y-117719890D01*
X136822820Y-117594951D01*
X136822115Y-117594591D01*
X136814054Y-117590485D01*
X136763259Y-117542512D01*
X136746463Y-117474692D01*
X136768999Y-117408556D01*
X136814054Y-117369515D01*
X136822816Y-117365051D01*
X136895589Y-117312179D01*
X136994786Y-117240109D01*
X136994788Y-117240106D01*
X136994792Y-117240104D01*
X137145104Y-117089792D01*
X137145106Y-117089788D01*
X137145109Y-117089786D01*
X137270048Y-116917820D01*
X137270047Y-116917820D01*
X137270051Y-116917816D01*
X137366557Y-116728412D01*
X137432246Y-116526243D01*
X137465500Y-116316287D01*
X137465500Y-116103713D01*
X137432246Y-115893757D01*
X137366557Y-115691588D01*
X137270051Y-115502184D01*
X137270049Y-115502181D01*
X137270048Y-115502179D01*
X137145109Y-115330213D01*
X136994786Y-115179890D01*
X136822820Y-115054951D01*
X136633414Y-114958444D01*
X136633413Y-114958443D01*
X136633412Y-114958443D01*
X136431243Y-114892754D01*
X136431241Y-114892753D01*
X136431240Y-114892753D01*
X136269957Y-114867208D01*
X136221287Y-114859500D01*
X136008713Y-114859500D01*
X135960042Y-114867208D01*
X135798760Y-114892753D01*
X135596585Y-114958444D01*
X135407179Y-115054951D01*
X135235213Y-115179890D01*
X135084890Y-115330213D01*
X134959949Y-115502182D01*
X134955484Y-115510946D01*
X134907509Y-115561742D01*
X134839688Y-115578536D01*
X134773553Y-115555998D01*
X134734516Y-115510946D01*
X134730050Y-115502182D01*
X134605109Y-115330213D01*
X134454786Y-115179890D01*
X134282820Y-115054951D01*
X134093414Y-114958444D01*
X134093413Y-114958443D01*
X134093412Y-114958443D01*
X133891243Y-114892754D01*
X133891241Y-114892753D01*
X133891240Y-114892753D01*
X133729957Y-114867208D01*
X133681287Y-114859500D01*
X133468713Y-114859500D01*
X133420042Y-114867208D01*
X133258760Y-114892753D01*
X133056585Y-114958444D01*
X132867179Y-115054951D01*
X132695213Y-115179890D01*
X132544890Y-115330213D01*
X132419949Y-115502182D01*
X132415484Y-115510946D01*
X132367509Y-115561742D01*
X132299688Y-115578536D01*
X132233553Y-115555998D01*
X132194516Y-115510946D01*
X132190050Y-115502182D01*
X132065109Y-115330213D01*
X131914786Y-115179890D01*
X131742820Y-115054951D01*
X131553414Y-114958444D01*
X131553413Y-114958443D01*
X131553412Y-114958443D01*
X131351243Y-114892754D01*
X131351241Y-114892753D01*
X131351240Y-114892753D01*
X131189957Y-114867208D01*
X131141287Y-114859500D01*
X130928713Y-114859500D01*
X130880042Y-114867208D01*
X130718760Y-114892753D01*
X130516585Y-114958444D01*
X130327179Y-115054951D01*
X130155213Y-115179890D01*
X130004890Y-115330213D01*
X129879951Y-115502179D01*
X129783444Y-115691585D01*
X129717753Y-115893760D01*
X129684500Y-116103713D01*
X129684500Y-116316286D01*
X129717754Y-116526244D01*
X129717754Y-116526247D01*
X129731491Y-116568523D01*
X129733486Y-116638364D01*
X129701241Y-116694522D01*
X128232584Y-118163181D01*
X128171261Y-118196666D01*
X128144903Y-118199500D01*
X122212163Y-118199500D01*
X122145124Y-118179815D01*
X122099369Y-118127011D01*
X122090911Y-118101459D01*
X122090000Y-118097207D01*
X122089999Y-118097203D01*
X122034814Y-117930666D01*
X121942712Y-117781344D01*
X121818656Y-117657288D01*
X121669334Y-117565186D01*
X121502797Y-117510001D01*
X121502795Y-117510000D01*
X121400010Y-117499500D01*
X120199998Y-117499500D01*
X120199981Y-117499501D01*
X120097203Y-117510000D01*
X120097200Y-117510001D01*
X119930668Y-117565185D01*
X119930663Y-117565187D01*
X119781342Y-117657289D01*
X119657289Y-117781342D01*
X119565187Y-117930663D01*
X119565186Y-117930666D01*
X119510001Y-118097203D01*
X119510001Y-118097204D01*
X119510000Y-118097204D01*
X119499500Y-118199983D01*
X114333861Y-118199983D01*
X114292287Y-118118390D01*
X114292285Y-118118387D01*
X114292284Y-118118385D01*
X114171971Y-117952786D01*
X114027213Y-117808028D01*
X113861613Y-117687715D01*
X113861612Y-117687714D01*
X113861610Y-117687713D01*
X113796024Y-117654295D01*
X113679223Y-117594781D01*
X113484534Y-117531522D01*
X113309995Y-117503878D01*
X113282352Y-117499500D01*
X113077648Y-117499500D01*
X113053329Y-117503351D01*
X112875465Y-117531522D01*
X112680776Y-117594781D01*
X112498386Y-117687715D01*
X112332786Y-117808028D01*
X112188028Y-117952786D01*
X112067715Y-118118386D01*
X111974781Y-118300776D01*
X111911522Y-118495465D01*
X111879500Y-118697648D01*
X105460422Y-118697648D01*
X105541557Y-118538412D01*
X105607246Y-118336243D01*
X105640500Y-118126287D01*
X105640500Y-117913713D01*
X105607246Y-117703757D01*
X105541557Y-117501588D01*
X105445051Y-117312184D01*
X105445049Y-117312181D01*
X105445048Y-117312179D01*
X105320109Y-117140213D01*
X105169786Y-116989890D01*
X104997820Y-116864951D01*
X104997115Y-116864591D01*
X104989054Y-116860485D01*
X104938259Y-116812512D01*
X104921463Y-116744692D01*
X104943999Y-116678556D01*
X104989054Y-116639515D01*
X104997816Y-116635051D01*
X105089385Y-116568523D01*
X105169786Y-116510109D01*
X105169788Y-116510106D01*
X105169792Y-116510104D01*
X105320104Y-116359792D01*
X105320106Y-116359788D01*
X105320109Y-116359786D01*
X105445048Y-116187820D01*
X105445047Y-116187820D01*
X105445051Y-116187816D01*
X105541557Y-115998412D01*
X105607246Y-115796243D01*
X105640500Y-115586287D01*
X105640500Y-115373713D01*
X105607246Y-115163757D01*
X105584195Y-115092816D01*
X105582201Y-115022977D01*
X105618281Y-114963144D01*
X105680982Y-114932316D01*
X105702127Y-114930500D01*
X111164268Y-114930500D01*
X111231307Y-114950185D01*
X111251948Y-114966818D01*
X112105649Y-115820520D01*
X112105651Y-115820521D01*
X112105655Y-115820524D01*
X112242574Y-115899573D01*
X112242581Y-115899577D01*
X112395308Y-115940501D01*
X112395310Y-115940501D01*
X112561019Y-115940501D01*
X112561035Y-115940500D01*
X119543331Y-115940500D01*
X119543347Y-115940501D01*
X119550943Y-115940501D01*
X119709054Y-115940501D01*
X119709057Y-115940501D01*
X119861785Y-115899577D01*
X119911904Y-115870639D01*
X119998716Y-115820520D01*
X120110520Y-115708716D01*
X120110521Y-115708713D01*
X120242418Y-115576815D01*
X120303739Y-115543333D01*
X120330097Y-115540499D01*
X121330002Y-115540499D01*
X121330008Y-115540499D01*
X121432797Y-115529999D01*
X121599334Y-115474814D01*
X121748656Y-115382712D01*
X121872712Y-115258656D01*
X121964814Y-115109334D01*
X122019999Y-114942797D01*
X122030500Y-114840009D01*
X122030499Y-113639992D01*
X122019999Y-113537203D01*
X121964814Y-113370666D01*
X121872712Y-113221344D01*
X121748656Y-113097288D01*
X121599334Y-113005186D01*
X121432797Y-112950001D01*
X121432795Y-112950000D01*
X121330010Y-112939500D01*
X120129998Y-112939500D01*
X120129981Y-112939501D01*
X120027203Y-112950000D01*
X120027200Y-112950001D01*
X119860668Y-113005185D01*
X119860663Y-113005187D01*
X119711342Y-113097289D01*
X119587289Y-113221342D01*
X119495187Y-113370663D01*
X119495185Y-113370668D01*
X119491281Y-113382450D01*
X119440001Y-113537203D01*
X119440001Y-113537204D01*
X119440000Y-113537204D01*
X119429500Y-113639983D01*
X119429500Y-114615500D01*
X119409815Y-114682539D01*
X119357011Y-114728294D01*
X119305500Y-114739500D01*
X114485801Y-114739500D01*
X114418762Y-114719815D01*
X114373007Y-114667011D01*
X114363063Y-114597853D01*
X114367870Y-114577183D01*
X114378475Y-114544542D01*
X114378475Y-114544538D01*
X114378477Y-114544534D01*
X114410500Y-114342352D01*
X114410500Y-114137648D01*
X114378477Y-113935466D01*
X114315220Y-113740781D01*
X114315218Y-113740778D01*
X114315218Y-113740776D01*
X114263865Y-113639991D01*
X114222287Y-113558390D01*
X114160549Y-113473414D01*
X114101971Y-113392786D01*
X113957213Y-113248028D01*
X113791613Y-113127715D01*
X113791612Y-113127714D01*
X113791610Y-113127713D01*
X113731898Y-113097288D01*
X113609223Y-113034781D01*
X113414534Y-112971522D01*
X113239995Y-112943878D01*
X113212352Y-112939500D01*
X113007648Y-112939500D01*
X112983329Y-112943351D01*
X112805465Y-112971522D01*
X112610776Y-113034781D01*
X112428386Y-113127715D01*
X112262786Y-113248028D01*
X112118028Y-113392786D01*
X111997715Y-113558386D01*
X111905008Y-113740332D01*
X111857033Y-113791128D01*
X111789212Y-113807923D01*
X111732523Y-113791423D01*
X111696150Y-113770423D01*
X111543422Y-113729499D01*
X111385308Y-113729499D01*
X111377712Y-113729499D01*
X111377696Y-113729500D01*
X105605781Y-113729500D01*
X105538742Y-113709815D01*
X105492987Y-113657011D01*
X105483043Y-113587853D01*
X105495296Y-113549205D01*
X105505230Y-113529706D01*
X105541557Y-113458412D01*
X105607246Y-113256243D01*
X105640500Y-113046287D01*
X105640500Y-112833713D01*
X105607246Y-112623757D01*
X105541557Y-112421588D01*
X105445051Y-112232184D01*
X105445049Y-112232181D01*
X105445048Y-112232179D01*
X105320109Y-112060213D01*
X105169786Y-111909890D01*
X104997820Y-111784951D01*
X104808414Y-111688444D01*
X104808413Y-111688443D01*
X104808412Y-111688443D01*
X104606243Y-111622754D01*
X104606241Y-111622753D01*
X104606240Y-111622753D01*
X104444957Y-111597208D01*
X104396287Y-111589500D01*
X104183713Y-111589500D01*
X104155006Y-111594046D01*
X103973757Y-111622753D01*
X103931473Y-111636492D01*
X103861632Y-111638486D01*
X103805476Y-111606241D01*
X102252590Y-110053355D01*
X102252588Y-110053352D01*
X102133717Y-109934481D01*
X102133712Y-109934477D01*
X102042104Y-109881588D01*
X101996785Y-109855423D01*
X101844057Y-109814499D01*
X101685943Y-109814499D01*
X101678347Y-109814499D01*
X101678331Y-109814500D01*
X95685719Y-109814500D01*
X95618680Y-109794815D01*
X95575235Y-109746795D01*
X95555052Y-109707185D01*
X95555051Y-109707184D01*
X95430109Y-109535213D01*
X95316569Y-109421673D01*
X95283084Y-109360350D01*
X95288068Y-109290658D01*
X95329940Y-109234725D01*
X95360915Y-109217810D01*
X95492331Y-109168796D01*
X95607546Y-109082546D01*
X95693796Y-108967331D01*
X95744091Y-108832483D01*
X95750500Y-108772873D01*
X95750499Y-106977128D01*
X95744091Y-106917517D01*
X95738496Y-106902517D01*
X95693797Y-106782671D01*
X95693793Y-106782664D01*
X95607547Y-106667455D01*
X95607544Y-106667452D01*
X95492335Y-106581206D01*
X95492328Y-106581202D01*
X95357482Y-106530908D01*
X95357483Y-106530908D01*
X95297883Y-106524501D01*
X95297881Y-106524500D01*
X95297873Y-106524500D01*
X95297864Y-106524500D01*
X93502129Y-106524500D01*
X93502123Y-106524501D01*
X93442516Y-106530908D01*
X93307671Y-106581202D01*
X93307664Y-106581206D01*
X93192455Y-106667452D01*
X93192452Y-106667455D01*
X93106206Y-106782664D01*
X93106202Y-106782671D01*
X93055908Y-106917517D01*
X93049501Y-106977116D01*
X93049501Y-106977123D01*
X93049500Y-106977135D01*
X85500500Y-106977135D01*
X85500500Y-95589983D01*
X91199500Y-95589983D01*
X91199500Y-96790001D01*
X91199501Y-96790018D01*
X91210000Y-96892796D01*
X91210001Y-96892799D01*
X91249014Y-97010530D01*
X91265186Y-97059334D01*
X91357288Y-97208656D01*
X91481344Y-97332712D01*
X91630666Y-97424814D01*
X91797203Y-97479999D01*
X91899991Y-97490500D01*
X93100008Y-97490499D01*
X93202797Y-97479999D01*
X93369334Y-97424814D01*
X93518656Y-97332712D01*
X93642712Y-97208656D01*
X93734814Y-97059334D01*
X93789999Y-96892797D01*
X93789999Y-96892793D01*
X93790912Y-96888533D01*
X93824199Y-96827102D01*
X93885414Y-96793419D01*
X93912163Y-96790500D01*
X98542554Y-96790500D01*
X98609593Y-96810185D01*
X98630235Y-96826819D01*
X99663181Y-97859765D01*
X99696666Y-97921088D01*
X99699500Y-97947446D01*
X99699500Y-98947350D01*
X99699501Y-98947368D01*
X99710000Y-99050145D01*
X99710001Y-99050148D01*
X99726524Y-99100009D01*
X99765186Y-99216683D01*
X99857288Y-99366005D01*
X99981344Y-99490061D01*
X100130666Y-99582163D01*
X100297203Y-99637348D01*
X100399991Y-99647849D01*
X101600008Y-99647848D01*
X101702797Y-99637348D01*
X101869334Y-99582163D01*
X102018656Y-99490061D01*
X102142712Y-99366005D01*
X102234814Y-99216683D01*
X102289999Y-99050146D01*
X102300500Y-98947358D01*
X102300499Y-97747341D01*
X102300477Y-97747130D01*
X102289999Y-97644552D01*
X102289998Y-97644549D01*
X102287530Y-97637102D01*
X102234814Y-97478015D01*
X102142712Y-97328693D01*
X102018656Y-97204637D01*
X101869334Y-97112535D01*
X101702797Y-97057350D01*
X101702795Y-97057349D01*
X101600016Y-97046849D01*
X101600009Y-97046849D01*
X100600097Y-97046849D01*
X100533058Y-97027164D01*
X100512416Y-97010530D01*
X99341869Y-95839983D01*
X115949500Y-95839983D01*
X115949500Y-97040001D01*
X115949501Y-97040018D01*
X115960000Y-97142796D01*
X115960001Y-97142799D01*
X116015185Y-97309331D01*
X116015187Y-97309336D01*
X116044764Y-97357288D01*
X116107288Y-97458656D01*
X116231344Y-97582712D01*
X116380666Y-97674814D01*
X116547203Y-97729999D01*
X116649991Y-97740500D01*
X117850008Y-97740499D01*
X117952797Y-97729999D01*
X118119334Y-97674814D01*
X118268656Y-97582712D01*
X118392712Y-97458656D01*
X118484814Y-97309334D01*
X118539999Y-97142797D01*
X118539999Y-97142793D01*
X118540912Y-97138533D01*
X118574199Y-97077102D01*
X118635414Y-97043419D01*
X118662163Y-97040500D01*
X123792554Y-97040500D01*
X123859593Y-97060185D01*
X123880235Y-97076819D01*
X124663181Y-97859765D01*
X124696666Y-97921088D01*
X124699500Y-97947446D01*
X124699500Y-98947350D01*
X124699501Y-98947368D01*
X124710000Y-99050145D01*
X124710001Y-99050148D01*
X124726524Y-99100009D01*
X124765186Y-99216683D01*
X124857288Y-99366005D01*
X124981344Y-99490061D01*
X125130666Y-99582163D01*
X125297203Y-99637348D01*
X125399991Y-99647849D01*
X126600008Y-99647848D01*
X126702797Y-99637348D01*
X126869334Y-99582163D01*
X127018656Y-99490061D01*
X127142712Y-99366005D01*
X127234814Y-99216683D01*
X127289999Y-99050146D01*
X127300500Y-98947358D01*
X127300499Y-97747341D01*
X127300477Y-97747130D01*
X127289999Y-97644552D01*
X127289998Y-97644549D01*
X127287530Y-97637102D01*
X127234814Y-97478015D01*
X127142712Y-97328693D01*
X127018656Y-97204637D01*
X126869334Y-97112535D01*
X126702797Y-97057350D01*
X126702795Y-97057349D01*
X126600016Y-97046849D01*
X126600009Y-97046849D01*
X125600097Y-97046849D01*
X125533058Y-97027164D01*
X125512416Y-97010530D01*
X124591869Y-96089983D01*
X140949500Y-96089983D01*
X140949500Y-97290001D01*
X140949501Y-97290018D01*
X140960000Y-97392796D01*
X140960001Y-97392799D01*
X141015185Y-97559331D01*
X141015187Y-97559336D01*
X141040269Y-97600001D01*
X141107288Y-97708656D01*
X141231344Y-97832712D01*
X141380666Y-97924814D01*
X141547203Y-97979999D01*
X141649991Y-97990500D01*
X142850008Y-97990499D01*
X142952797Y-97979999D01*
X143119334Y-97924814D01*
X143268656Y-97832712D01*
X143392712Y-97708656D01*
X143484814Y-97559334D01*
X143539999Y-97392797D01*
X143539999Y-97392793D01*
X143540912Y-97388533D01*
X143574199Y-97327102D01*
X143635414Y-97293419D01*
X143662163Y-97290500D01*
X148889903Y-97290500D01*
X148956942Y-97310185D01*
X148977584Y-97326819D01*
X149663181Y-98012416D01*
X149696666Y-98073739D01*
X149699500Y-98100097D01*
X149699500Y-99100001D01*
X149699501Y-99100019D01*
X149710000Y-99202796D01*
X149710001Y-99202799D01*
X149764083Y-99366005D01*
X149765186Y-99369334D01*
X149857288Y-99518656D01*
X149981344Y-99642712D01*
X150130666Y-99734814D01*
X150297203Y-99789999D01*
X150399991Y-99800500D01*
X151600008Y-99800499D01*
X151702797Y-99789999D01*
X151869334Y-99734814D01*
X152018656Y-99642712D01*
X152142712Y-99518656D01*
X152234814Y-99369334D01*
X152289999Y-99202797D01*
X152300500Y-99100009D01*
X152300499Y-97899992D01*
X152297367Y-97869336D01*
X152289999Y-97797203D01*
X152289998Y-97797200D01*
X152282582Y-97774820D01*
X152234814Y-97630666D01*
X152142712Y-97481344D01*
X152018656Y-97357288D01*
X151869334Y-97265186D01*
X151702797Y-97210001D01*
X151702795Y-97210000D01*
X151600016Y-97199500D01*
X151600009Y-97199500D01*
X150600098Y-97199500D01*
X150533059Y-97179815D01*
X150512417Y-97163181D01*
X150176055Y-96826819D01*
X149749218Y-96399983D01*
X165949500Y-96399983D01*
X165949500Y-97600001D01*
X165949501Y-97600018D01*
X165960000Y-97702796D01*
X165960001Y-97702799D01*
X166015185Y-97869331D01*
X166015187Y-97869336D01*
X166047108Y-97921088D01*
X166107288Y-98018656D01*
X166231344Y-98142712D01*
X166380666Y-98234814D01*
X166547203Y-98289999D01*
X166649991Y-98300500D01*
X167850008Y-98300499D01*
X167952797Y-98289999D01*
X168119334Y-98234814D01*
X168268656Y-98142712D01*
X168392712Y-98018656D01*
X168484814Y-97869334D01*
X168539999Y-97702797D01*
X168539999Y-97702793D01*
X168540912Y-97698533D01*
X168574199Y-97637102D01*
X168635414Y-97603419D01*
X168662163Y-97600500D01*
X174449903Y-97600500D01*
X174516942Y-97620185D01*
X174537584Y-97636819D01*
X174913181Y-98012416D01*
X174946666Y-98073739D01*
X174949500Y-98100097D01*
X174949500Y-99100001D01*
X174949501Y-99100019D01*
X174960000Y-99202796D01*
X174960001Y-99202799D01*
X175014083Y-99366005D01*
X175015186Y-99369334D01*
X175107288Y-99518656D01*
X175231344Y-99642712D01*
X175380666Y-99734814D01*
X175547203Y-99789999D01*
X175649991Y-99800500D01*
X176850008Y-99800499D01*
X176952797Y-99789999D01*
X177119334Y-99734814D01*
X177268656Y-99642712D01*
X177392712Y-99518656D01*
X177484814Y-99369334D01*
X177539999Y-99202797D01*
X177550500Y-99100009D01*
X177550499Y-97899992D01*
X177547367Y-97869336D01*
X177539999Y-97797203D01*
X177539998Y-97797200D01*
X177532582Y-97774820D01*
X177484814Y-97630666D01*
X177392712Y-97481344D01*
X177268656Y-97357288D01*
X177119334Y-97265186D01*
X176952797Y-97210001D01*
X176952795Y-97210000D01*
X176850016Y-97199500D01*
X176850009Y-97199500D01*
X175850097Y-97199500D01*
X175783058Y-97179815D01*
X175762416Y-97163181D01*
X175237590Y-96638355D01*
X175237588Y-96638352D01*
X175118717Y-96519481D01*
X175118709Y-96519475D01*
X175002991Y-96452666D01*
X175002990Y-96452665D01*
X174988085Y-96444060D01*
X174981785Y-96440423D01*
X174829057Y-96399499D01*
X174670943Y-96399499D01*
X174663347Y-96399499D01*
X174663331Y-96399500D01*
X168662163Y-96399500D01*
X168595124Y-96379815D01*
X168549369Y-96327011D01*
X168540911Y-96301459D01*
X168540000Y-96297207D01*
X168539999Y-96297203D01*
X168484814Y-96130666D01*
X168392712Y-95981344D01*
X168268656Y-95857288D01*
X168119334Y-95765186D01*
X167952797Y-95710001D01*
X167952795Y-95710000D01*
X167850010Y-95699500D01*
X166649998Y-95699500D01*
X166649981Y-95699501D01*
X166547203Y-95710000D01*
X166547200Y-95710001D01*
X166380668Y-95765185D01*
X166380663Y-95765187D01*
X166231342Y-95857289D01*
X166107289Y-95981342D01*
X166015187Y-96130663D01*
X166015186Y-96130666D01*
X165960001Y-96297203D01*
X165960001Y-96297204D01*
X165960000Y-96297204D01*
X165949500Y-96399983D01*
X149749218Y-96399983D01*
X149677589Y-96328354D01*
X149677588Y-96328352D01*
X149558717Y-96209481D01*
X149558716Y-96209480D01*
X149471904Y-96159360D01*
X149471904Y-96159359D01*
X149471900Y-96159358D01*
X149421785Y-96130423D01*
X149269057Y-96089499D01*
X149110943Y-96089499D01*
X149103347Y-96089499D01*
X149103331Y-96089500D01*
X143662163Y-96089500D01*
X143595124Y-96069815D01*
X143549369Y-96017011D01*
X143540911Y-95991459D01*
X143540000Y-95987207D01*
X143539999Y-95987203D01*
X143484814Y-95820666D01*
X143392712Y-95671344D01*
X143268656Y-95547288D01*
X143119334Y-95455186D01*
X142952797Y-95400001D01*
X142952795Y-95400000D01*
X142850010Y-95389500D01*
X141649998Y-95389500D01*
X141649981Y-95389501D01*
X141547203Y-95400000D01*
X141547200Y-95400001D01*
X141380668Y-95455185D01*
X141380663Y-95455187D01*
X141231342Y-95547289D01*
X141107289Y-95671342D01*
X141015187Y-95820663D01*
X141015185Y-95820668D01*
X140987349Y-95904670D01*
X140960001Y-95987203D01*
X140960001Y-95987204D01*
X140960000Y-95987204D01*
X140949500Y-96089983D01*
X124591869Y-96089983D01*
X124580241Y-96078355D01*
X124580239Y-96078352D01*
X124461368Y-95959481D01*
X124461360Y-95959475D01*
X124344466Y-95891987D01*
X124344465Y-95891986D01*
X124330386Y-95883858D01*
X124324436Y-95880423D01*
X124171708Y-95839499D01*
X124013594Y-95839499D01*
X124005998Y-95839499D01*
X124005982Y-95839500D01*
X118662163Y-95839500D01*
X118595124Y-95819815D01*
X118549369Y-95767011D01*
X118540911Y-95741459D01*
X118540000Y-95737207D01*
X118530985Y-95710001D01*
X118484814Y-95570666D01*
X118392712Y-95421344D01*
X118268656Y-95297288D01*
X118119334Y-95205186D01*
X117952797Y-95150001D01*
X117952795Y-95150000D01*
X117850010Y-95139500D01*
X116649998Y-95139500D01*
X116649981Y-95139501D01*
X116547203Y-95150000D01*
X116547200Y-95150001D01*
X116380668Y-95205185D01*
X116380663Y-95205187D01*
X116231342Y-95297289D01*
X116107289Y-95421342D01*
X116015187Y-95570663D01*
X116015185Y-95570668D01*
X115987349Y-95654670D01*
X115960001Y-95737203D01*
X115960001Y-95737204D01*
X115960000Y-95737204D01*
X115949500Y-95839983D01*
X99341869Y-95839983D01*
X99330241Y-95828355D01*
X99330239Y-95828352D01*
X99211368Y-95709481D01*
X99211360Y-95709475D01*
X99094466Y-95641987D01*
X99094465Y-95641986D01*
X99080386Y-95633858D01*
X99074436Y-95630423D01*
X98921708Y-95589499D01*
X98763594Y-95589499D01*
X98755998Y-95589499D01*
X98755982Y-95589500D01*
X93912163Y-95589500D01*
X93845124Y-95569815D01*
X93799369Y-95517011D01*
X93790911Y-95491459D01*
X93790000Y-95487207D01*
X93779390Y-95455187D01*
X93734814Y-95320666D01*
X93642712Y-95171344D01*
X93518656Y-95047288D01*
X93369334Y-94955186D01*
X93202797Y-94900001D01*
X93202795Y-94900000D01*
X93100010Y-94889500D01*
X91899998Y-94889500D01*
X91899981Y-94889501D01*
X91797203Y-94900000D01*
X91797200Y-94900001D01*
X91630668Y-94955185D01*
X91630663Y-94955187D01*
X91481342Y-95047289D01*
X91357289Y-95171342D01*
X91265187Y-95320663D01*
X91265186Y-95320666D01*
X91210001Y-95487203D01*
X91210001Y-95487204D01*
X91210000Y-95487204D01*
X91199500Y-95589983D01*
X85500500Y-95589983D01*
X85500500Y-86377973D01*
X89249500Y-86377973D01*
X89249500Y-86622027D01*
X89287679Y-86863076D01*
X89329917Y-86993072D01*
X89363097Y-87095187D01*
X89473896Y-87312642D01*
X89617339Y-87510076D01*
X89617343Y-87510081D01*
X89789918Y-87682656D01*
X89789923Y-87682660D01*
X89962136Y-87807779D01*
X89987361Y-87826106D01*
X90204815Y-87936904D01*
X90436924Y-88012321D01*
X90677973Y-88050500D01*
X90677974Y-88050500D01*
X90922026Y-88050500D01*
X90922027Y-88050500D01*
X91163076Y-88012321D01*
X91395185Y-87936904D01*
X91612639Y-87826106D01*
X91810083Y-87682655D01*
X91982655Y-87510083D01*
X92126106Y-87312639D01*
X92236904Y-87095185D01*
X92312321Y-86863076D01*
X92350500Y-86622027D01*
X92350500Y-86507973D01*
X114316167Y-86507973D01*
X114316167Y-86752027D01*
X114354346Y-86993076D01*
X114429763Y-87225185D01*
X114474324Y-87312642D01*
X114540563Y-87442642D01*
X114684006Y-87640076D01*
X114684010Y-87640081D01*
X114856585Y-87812656D01*
X114856590Y-87812660D01*
X115027596Y-87936902D01*
X115054028Y-87956106D01*
X115271482Y-88066904D01*
X115503591Y-88142321D01*
X115744640Y-88180500D01*
X115744641Y-88180500D01*
X115988693Y-88180500D01*
X115988694Y-88180500D01*
X116229743Y-88142321D01*
X116461852Y-88066904D01*
X116679306Y-87956106D01*
X116876750Y-87812655D01*
X117049322Y-87640083D01*
X117192773Y-87442639D01*
X117303571Y-87225185D01*
X117378988Y-86993076D01*
X117417167Y-86752027D01*
X117417167Y-86507973D01*
X139382833Y-86507973D01*
X139382833Y-86752027D01*
X139421012Y-86993076D01*
X139496429Y-87225185D01*
X139540990Y-87312642D01*
X139607229Y-87442642D01*
X139750672Y-87640076D01*
X139750676Y-87640081D01*
X139923251Y-87812656D01*
X139923256Y-87812660D01*
X140094262Y-87936902D01*
X140120694Y-87956106D01*
X140338148Y-88066904D01*
X140570257Y-88142321D01*
X140811306Y-88180500D01*
X140811307Y-88180500D01*
X141055359Y-88180500D01*
X141055360Y-88180500D01*
X141296409Y-88142321D01*
X141528518Y-88066904D01*
X141745972Y-87956106D01*
X141943416Y-87812655D01*
X142115988Y-87640083D01*
X142259439Y-87442639D01*
X142370237Y-87225185D01*
X142445654Y-86993076D01*
X142483833Y-86752027D01*
X142483833Y-86507973D01*
X164449500Y-86507973D01*
X164449500Y-86752027D01*
X164487679Y-86993076D01*
X164563096Y-87225185D01*
X164607657Y-87312642D01*
X164673896Y-87442642D01*
X164817339Y-87640076D01*
X164817343Y-87640081D01*
X164989918Y-87812656D01*
X164989923Y-87812660D01*
X165160929Y-87936902D01*
X165187361Y-87956106D01*
X165404815Y-88066904D01*
X165636924Y-88142321D01*
X165877973Y-88180500D01*
X165877974Y-88180500D01*
X166122026Y-88180500D01*
X166122027Y-88180500D01*
X166363076Y-88142321D01*
X166595185Y-88066904D01*
X166812639Y-87956106D01*
X167010083Y-87812655D01*
X167182655Y-87640083D01*
X167326106Y-87442639D01*
X167436904Y-87225185D01*
X167512321Y-86993076D01*
X167550500Y-86752027D01*
X167550500Y-86507973D01*
X167512321Y-86266924D01*
X167436904Y-86034815D01*
X167326106Y-85817361D01*
X167231653Y-85687357D01*
X167182660Y-85619923D01*
X167182656Y-85619918D01*
X167010081Y-85447343D01*
X167010076Y-85447339D01*
X166812642Y-85303896D01*
X166812641Y-85303895D01*
X166812639Y-85303894D01*
X166595185Y-85193096D01*
X166363076Y-85117679D01*
X166363074Y-85117678D01*
X166363072Y-85117678D01*
X166194769Y-85091021D01*
X166122027Y-85079500D01*
X165877973Y-85079500D01*
X165822093Y-85088350D01*
X165636927Y-85117678D01*
X165404812Y-85193097D01*
X165187357Y-85303896D01*
X164989923Y-85447339D01*
X164989918Y-85447343D01*
X164817343Y-85619918D01*
X164817339Y-85619923D01*
X164673896Y-85817357D01*
X164563097Y-86034812D01*
X164487678Y-86266927D01*
X164470090Y-86377973D01*
X164449500Y-86507973D01*
X142483833Y-86507973D01*
X142445654Y-86266924D01*
X142370237Y-86034815D01*
X142259439Y-85817361D01*
X142164986Y-85687357D01*
X142115993Y-85619923D01*
X142115989Y-85619918D01*
X141943414Y-85447343D01*
X141943409Y-85447339D01*
X141745975Y-85303896D01*
X141745974Y-85303895D01*
X141745972Y-85303894D01*
X141528518Y-85193096D01*
X141296409Y-85117679D01*
X141296407Y-85117678D01*
X141296405Y-85117678D01*
X141128102Y-85091021D01*
X141055360Y-85079500D01*
X140811306Y-85079500D01*
X140755426Y-85088350D01*
X140570260Y-85117678D01*
X140338145Y-85193097D01*
X140120690Y-85303896D01*
X139923256Y-85447339D01*
X139923251Y-85447343D01*
X139750676Y-85619918D01*
X139750672Y-85619923D01*
X139607229Y-85817357D01*
X139496430Y-86034812D01*
X139421011Y-86266927D01*
X139403423Y-86377973D01*
X139382833Y-86507973D01*
X117417167Y-86507973D01*
X117378988Y-86266924D01*
X117303571Y-86034815D01*
X117192773Y-85817361D01*
X117098320Y-85687357D01*
X117049327Y-85619923D01*
X117049323Y-85619918D01*
X116876748Y-85447343D01*
X116876743Y-85447339D01*
X116679309Y-85303896D01*
X116679308Y-85303895D01*
X116679306Y-85303894D01*
X116461852Y-85193096D01*
X116229743Y-85117679D01*
X116229741Y-85117678D01*
X116229739Y-85117678D01*
X116061436Y-85091021D01*
X115988694Y-85079500D01*
X115744640Y-85079500D01*
X115688760Y-85088350D01*
X115503594Y-85117678D01*
X115271479Y-85193097D01*
X115054024Y-85303896D01*
X114856590Y-85447339D01*
X114856585Y-85447343D01*
X114684010Y-85619918D01*
X114684006Y-85619923D01*
X114540563Y-85817357D01*
X114429764Y-86034812D01*
X114354345Y-86266927D01*
X114336757Y-86377973D01*
X114316167Y-86507973D01*
X92350500Y-86507973D01*
X92350500Y-86377973D01*
X92312321Y-86136924D01*
X92236904Y-85904815D01*
X92126106Y-85687361D01*
X92077105Y-85619917D01*
X91982660Y-85489923D01*
X91982656Y-85489918D01*
X91810081Y-85317343D01*
X91810076Y-85317339D01*
X91612642Y-85173896D01*
X91612641Y-85173895D01*
X91612639Y-85173894D01*
X91395185Y-85063096D01*
X91163076Y-84987679D01*
X91163074Y-84987678D01*
X91163072Y-84987678D01*
X90994769Y-84961021D01*
X90922027Y-84949500D01*
X90677973Y-84949500D01*
X90622093Y-84958350D01*
X90436927Y-84987678D01*
X90204812Y-85063097D01*
X89987357Y-85173896D01*
X89789923Y-85317339D01*
X89789918Y-85317343D01*
X89617343Y-85489918D01*
X89617339Y-85489923D01*
X89473896Y-85687357D01*
X89363097Y-85904812D01*
X89287678Y-86136927D01*
X89267088Y-86266927D01*
X89249500Y-86377973D01*
X85500500Y-86377973D01*
X85500500Y-73677973D01*
X89249500Y-73677973D01*
X89249500Y-73922027D01*
X89287679Y-74163076D01*
X89363096Y-74395185D01*
X89471026Y-74607011D01*
X89473896Y-74612642D01*
X89617339Y-74810076D01*
X89617343Y-74810081D01*
X89789918Y-74982656D01*
X89789923Y-74982660D01*
X89962136Y-75107779D01*
X89987361Y-75126106D01*
X90204815Y-75236904D01*
X90436924Y-75312321D01*
X90677973Y-75350500D01*
X90677974Y-75350500D01*
X90922026Y-75350500D01*
X90922027Y-75350500D01*
X91163076Y-75312321D01*
X91395185Y-75236904D01*
X91612639Y-75126106D01*
X91810083Y-74982655D01*
X91982655Y-74810083D01*
X92126106Y-74612639D01*
X92236904Y-74395185D01*
X92312321Y-74163076D01*
X92350500Y-73922027D01*
X92350500Y-73677973D01*
X92312321Y-73436924D01*
X92236904Y-73204815D01*
X92126106Y-72987361D01*
X92003579Y-72818716D01*
X91982660Y-72789923D01*
X91982656Y-72789918D01*
X91810081Y-72617343D01*
X91810076Y-72617339D01*
X91612642Y-72473896D01*
X91612641Y-72473895D01*
X91612639Y-72473894D01*
X91395185Y-72363096D01*
X91163076Y-72287679D01*
X91163074Y-72287678D01*
X91163072Y-72287678D01*
X90994769Y-72261021D01*
X90922027Y-72249500D01*
X90677973Y-72249500D01*
X90622093Y-72258350D01*
X90436927Y-72287678D01*
X90204812Y-72363097D01*
X89987357Y-72473896D01*
X89789923Y-72617339D01*
X89789918Y-72617343D01*
X89617343Y-72789918D01*
X89617339Y-72789923D01*
X89473896Y-72987357D01*
X89363097Y-73204812D01*
X89287678Y-73436927D01*
X89267088Y-73566927D01*
X89249500Y-73677973D01*
X85500500Y-73677973D01*
X85500500Y-57291902D01*
X166719500Y-57291902D01*
X166719500Y-58528097D01*
X166756446Y-58761368D01*
X166829433Y-58985996D01*
X166936657Y-59196433D01*
X167075483Y-59387510D01*
X167242490Y-59554517D01*
X167433567Y-59693343D01*
X167532991Y-59744002D01*
X167644003Y-59800566D01*
X167644005Y-59800566D01*
X167644008Y-59800568D01*
X167764412Y-59839689D01*
X167868631Y-59873553D01*
X168101903Y-59910500D01*
X168101908Y-59910500D01*
X168338097Y-59910500D01*
X168571368Y-59873553D01*
X168795992Y-59800568D01*
X169006433Y-59693343D01*
X169197510Y-59554517D01*
X169364517Y-59387510D01*
X169503343Y-59196433D01*
X169610568Y-58985992D01*
X169683553Y-58761368D01*
X169720500Y-58528097D01*
X169720500Y-57291902D01*
X171419500Y-57291902D01*
X171419500Y-58528097D01*
X171456446Y-58761368D01*
X171529433Y-58985996D01*
X171636657Y-59196433D01*
X171775483Y-59387510D01*
X171942490Y-59554517D01*
X172133567Y-59693343D01*
X172232991Y-59744002D01*
X172344003Y-59800566D01*
X172344005Y-59800566D01*
X172344008Y-59800568D01*
X172464412Y-59839689D01*
X172568631Y-59873553D01*
X172801903Y-59910500D01*
X172801908Y-59910500D01*
X173038097Y-59910500D01*
X173271368Y-59873553D01*
X173495992Y-59800568D01*
X173706433Y-59693343D01*
X173897510Y-59554517D01*
X174064517Y-59387510D01*
X174203343Y-59196433D01*
X174310568Y-58985992D01*
X174383553Y-58761368D01*
X174420500Y-58528097D01*
X174420500Y-57291902D01*
X176119500Y-57291902D01*
X176119500Y-58528097D01*
X176156446Y-58761368D01*
X176229433Y-58985996D01*
X176336657Y-59196433D01*
X176475483Y-59387510D01*
X176642490Y-59554517D01*
X176833567Y-59693343D01*
X176932991Y-59744002D01*
X177044003Y-59800566D01*
X177044005Y-59800566D01*
X177044008Y-59800568D01*
X177164412Y-59839689D01*
X177268631Y-59873553D01*
X177501903Y-59910500D01*
X177501908Y-59910500D01*
X177738097Y-59910500D01*
X177971368Y-59873553D01*
X178195992Y-59800568D01*
X178406433Y-59693343D01*
X178597510Y-59554517D01*
X178764517Y-59387510D01*
X178903343Y-59196433D01*
X179010568Y-58985992D01*
X179083553Y-58761368D01*
X179120500Y-58528097D01*
X179120500Y-57291902D01*
X179083553Y-57058631D01*
X179010566Y-56834003D01*
X178903342Y-56623566D01*
X178764517Y-56432490D01*
X178597510Y-56265483D01*
X178406433Y-56126657D01*
X178195996Y-56019433D01*
X177971368Y-55946446D01*
X177738097Y-55909500D01*
X177738092Y-55909500D01*
X177501908Y-55909500D01*
X177501903Y-55909500D01*
X177268631Y-55946446D01*
X177044003Y-56019433D01*
X176833566Y-56126657D01*
X176724550Y-56205862D01*
X176642490Y-56265483D01*
X176642488Y-56265485D01*
X176642487Y-56265485D01*
X176475485Y-56432487D01*
X176475485Y-56432488D01*
X176475483Y-56432490D01*
X176415862Y-56514550D01*
X176336657Y-56623566D01*
X176229433Y-56834003D01*
X176156446Y-57058631D01*
X176119500Y-57291902D01*
X174420500Y-57291902D01*
X174383553Y-57058631D01*
X174310566Y-56834003D01*
X174203342Y-56623566D01*
X174064517Y-56432490D01*
X173897510Y-56265483D01*
X173706433Y-56126657D01*
X173495996Y-56019433D01*
X173271368Y-55946446D01*
X173038097Y-55909500D01*
X173038092Y-55909500D01*
X172801908Y-55909500D01*
X172801903Y-55909500D01*
X172568631Y-55946446D01*
X172344003Y-56019433D01*
X172133566Y-56126657D01*
X172024550Y-56205862D01*
X171942490Y-56265483D01*
X171942488Y-56265485D01*
X171942487Y-56265485D01*
X171775485Y-56432487D01*
X171775485Y-56432488D01*
X171775483Y-56432490D01*
X171715862Y-56514550D01*
X171636657Y-56623566D01*
X171529433Y-56834003D01*
X171456446Y-57058631D01*
X171419500Y-57291902D01*
X169720500Y-57291902D01*
X169683553Y-57058631D01*
X169610566Y-56834003D01*
X169503342Y-56623566D01*
X169364517Y-56432490D01*
X169197510Y-56265483D01*
X169006433Y-56126657D01*
X168795996Y-56019433D01*
X168571368Y-55946446D01*
X168338097Y-55909500D01*
X168338092Y-55909500D01*
X168101908Y-55909500D01*
X168101903Y-55909500D01*
X167868631Y-55946446D01*
X167644003Y-56019433D01*
X167433566Y-56126657D01*
X167324550Y-56205862D01*
X167242490Y-56265483D01*
X167242488Y-56265485D01*
X167242487Y-56265485D01*
X167075485Y-56432487D01*
X167075485Y-56432488D01*
X167075483Y-56432490D01*
X167015862Y-56514550D01*
X166936657Y-56623566D01*
X166829433Y-56834003D01*
X166756446Y-57058631D01*
X166719500Y-57291902D01*
X85500500Y-57291902D01*
X85500500Y-50624500D01*
X85520185Y-50557461D01*
X85572989Y-50511706D01*
X85624500Y-50500500D01*
X184375500Y-50500500D01*
X184442539Y-50520185D01*
G37*
%TD.AperFunction*%
%TD*%
M02*
