%TF.GenerationSoftware,KiCad,Pcbnew,9.0.9-9.0.9~ubuntu24.04.1*%
%TF.CreationDate,2026-09-15T09:26:41+03:00*%
%TF.ProjectId,clock,636c6f63-6b2e-46b6-9963-61645f706362,rev?*%
%TF.SameCoordinates,Original*%
%TF.FileFunction,Legend,Top*%
%TF.FilePolarity,Positive*%
%FSLAX46Y46*%
G04 Gerber Fmt 4.6, Leading zero omitted, Abs format (unit mm)*
G04 Created by KiCad (PCBNEW 9.0.9-9.0.9~ubuntu24.04.1) date 2026-09-15 09:26:41*
%MOMM*%
%LPD*%
G01*
G04 APERTURE LIST*
%ADD10C,0.750000*%
%ADD11C,1.000000*%
%ADD12C,0.100000*%
%ADD13C,0.250000*%
%ADD14C,0.120000*%
G04 APERTURE END LIST*
D10*
X149564849Y-114976714D02*
X150707706Y-114976714D01*
X150707706Y-114976714D02*
X151279135Y-115262428D01*
X151279135Y-115262428D02*
X151850563Y-115833857D01*
X151850563Y-115833857D02*
X152136278Y-116976714D01*
X152136278Y-116976714D02*
X152136278Y-118976714D01*
X152136278Y-118976714D02*
X151850563Y-120119571D01*
X151850563Y-120119571D02*
X151279135Y-120691000D01*
X151279135Y-120691000D02*
X150707706Y-120976714D01*
X150707706Y-120976714D02*
X149564849Y-120976714D01*
X149564849Y-120976714D02*
X148993421Y-120691000D01*
X148993421Y-120691000D02*
X148421992Y-120119571D01*
X148421992Y-120119571D02*
X148136278Y-118976714D01*
X148136278Y-118976714D02*
X148136278Y-116976714D01*
X148136278Y-116976714D02*
X148421992Y-115833857D01*
X148421992Y-115833857D02*
X148993421Y-115262428D01*
X148993421Y-115262428D02*
X149564849Y-114976714D01*
X157279135Y-116976714D02*
X157279135Y-120976714D01*
X154707706Y-116976714D02*
X154707706Y-120119571D01*
X154707706Y-120119571D02*
X154993420Y-120691000D01*
X154993420Y-120691000D02*
X155564849Y-120976714D01*
X155564849Y-120976714D02*
X156421992Y-120976714D01*
X156421992Y-120976714D02*
X156993420Y-120691000D01*
X156993420Y-120691000D02*
X157279135Y-120405285D01*
X159279134Y-116976714D02*
X161564848Y-116976714D01*
X160136277Y-114976714D02*
X160136277Y-120119571D01*
X160136277Y-120119571D02*
X160421991Y-120691000D01*
X160421991Y-120691000D02*
X160993420Y-120976714D01*
X160993420Y-120976714D02*
X161564848Y-120976714D01*
D11*
X124884084Y-59957047D02*
X124503132Y-60338000D01*
X124503132Y-60338000D02*
X123360274Y-60718952D01*
X123360274Y-60718952D02*
X122598370Y-60718952D01*
X122598370Y-60718952D02*
X121455513Y-60338000D01*
X121455513Y-60338000D02*
X120693608Y-59576095D01*
X120693608Y-59576095D02*
X120312655Y-58814190D01*
X120312655Y-58814190D02*
X119931703Y-57290380D01*
X119931703Y-57290380D02*
X119931703Y-56147523D01*
X119931703Y-56147523D02*
X120312655Y-54623714D01*
X120312655Y-54623714D02*
X120693608Y-53861809D01*
X120693608Y-53861809D02*
X121455513Y-53099904D01*
X121455513Y-53099904D02*
X122598370Y-52718952D01*
X122598370Y-52718952D02*
X123360274Y-52718952D01*
X123360274Y-52718952D02*
X124503132Y-53099904D01*
X124503132Y-53099904D02*
X124884084Y-53480857D01*
X129455513Y-60718952D02*
X128693608Y-60338000D01*
X128693608Y-60338000D02*
X128312655Y-59576095D01*
X128312655Y-59576095D02*
X128312655Y-52718952D01*
X133645989Y-60718952D02*
X132884084Y-60338000D01*
X132884084Y-60338000D02*
X132503131Y-59957047D01*
X132503131Y-59957047D02*
X132122179Y-59195142D01*
X132122179Y-59195142D02*
X132122179Y-56909428D01*
X132122179Y-56909428D02*
X132503131Y-56147523D01*
X132503131Y-56147523D02*
X132884084Y-55766571D01*
X132884084Y-55766571D02*
X133645989Y-55385619D01*
X133645989Y-55385619D02*
X134788846Y-55385619D01*
X134788846Y-55385619D02*
X135550750Y-55766571D01*
X135550750Y-55766571D02*
X135931703Y-56147523D01*
X135931703Y-56147523D02*
X136312655Y-56909428D01*
X136312655Y-56909428D02*
X136312655Y-59195142D01*
X136312655Y-59195142D02*
X135931703Y-59957047D01*
X135931703Y-59957047D02*
X135550750Y-60338000D01*
X135550750Y-60338000D02*
X134788846Y-60718952D01*
X134788846Y-60718952D02*
X133645989Y-60718952D01*
X143169798Y-60338000D02*
X142407893Y-60718952D01*
X142407893Y-60718952D02*
X140884084Y-60718952D01*
X140884084Y-60718952D02*
X140122179Y-60338000D01*
X140122179Y-60338000D02*
X139741226Y-59957047D01*
X139741226Y-59957047D02*
X139360274Y-59195142D01*
X139360274Y-59195142D02*
X139360274Y-56909428D01*
X139360274Y-56909428D02*
X139741226Y-56147523D01*
X139741226Y-56147523D02*
X140122179Y-55766571D01*
X140122179Y-55766571D02*
X140884084Y-55385619D01*
X140884084Y-55385619D02*
X142407893Y-55385619D01*
X142407893Y-55385619D02*
X143169798Y-55766571D01*
X146598369Y-60718952D02*
X146598369Y-52718952D01*
X147360274Y-57671333D02*
X149645988Y-60718952D01*
X149645988Y-55385619D02*
X146598369Y-58433238D01*
D12*
X113128572Y-63287419D02*
X113128572Y-62287419D01*
X113700000Y-63287419D02*
X113271429Y-62715990D01*
X113700000Y-62287419D02*
X113128572Y-62858847D01*
X114080953Y-62382657D02*
X114128572Y-62335038D01*
X114128572Y-62335038D02*
X114223810Y-62287419D01*
X114223810Y-62287419D02*
X114461905Y-62287419D01*
X114461905Y-62287419D02*
X114557143Y-62335038D01*
X114557143Y-62335038D02*
X114604762Y-62382657D01*
X114604762Y-62382657D02*
X114652381Y-62477895D01*
X114652381Y-62477895D02*
X114652381Y-62573133D01*
X114652381Y-62573133D02*
X114604762Y-62715990D01*
X114604762Y-62715990D02*
X114033334Y-63287419D01*
X114033334Y-63287419D02*
X114652381Y-63287419D01*
D13*
X90011905Y-53317000D02*
X90297619Y-53412238D01*
X90297619Y-53412238D02*
X90773810Y-53412238D01*
X90773810Y-53412238D02*
X90964286Y-53317000D01*
X90964286Y-53317000D02*
X91059524Y-53221761D01*
X91059524Y-53221761D02*
X91154762Y-53031285D01*
X91154762Y-53031285D02*
X91154762Y-52840809D01*
X91154762Y-52840809D02*
X91059524Y-52650333D01*
X91059524Y-52650333D02*
X90964286Y-52555095D01*
X90964286Y-52555095D02*
X90773810Y-52459857D01*
X90773810Y-52459857D02*
X90392857Y-52364619D01*
X90392857Y-52364619D02*
X90202381Y-52269380D01*
X90202381Y-52269380D02*
X90107143Y-52174142D01*
X90107143Y-52174142D02*
X90011905Y-51983666D01*
X90011905Y-51983666D02*
X90011905Y-51793190D01*
X90011905Y-51793190D02*
X90107143Y-51602714D01*
X90107143Y-51602714D02*
X90202381Y-51507476D01*
X90202381Y-51507476D02*
X90392857Y-51412238D01*
X90392857Y-51412238D02*
X90869048Y-51412238D01*
X90869048Y-51412238D02*
X91154762Y-51507476D01*
X91726191Y-52078904D02*
X92488095Y-52078904D01*
X92011905Y-51412238D02*
X92011905Y-53126523D01*
X92011905Y-53126523D02*
X92107143Y-53317000D01*
X92107143Y-53317000D02*
X92297619Y-53412238D01*
X92297619Y-53412238D02*
X92488095Y-53412238D01*
X94011905Y-53412238D02*
X94011905Y-52364619D01*
X94011905Y-52364619D02*
X93916667Y-52174142D01*
X93916667Y-52174142D02*
X93726191Y-52078904D01*
X93726191Y-52078904D02*
X93345238Y-52078904D01*
X93345238Y-52078904D02*
X93154762Y-52174142D01*
X94011905Y-53317000D02*
X93821429Y-53412238D01*
X93821429Y-53412238D02*
X93345238Y-53412238D01*
X93345238Y-53412238D02*
X93154762Y-53317000D01*
X93154762Y-53317000D02*
X93059524Y-53126523D01*
X93059524Y-53126523D02*
X93059524Y-52936047D01*
X93059524Y-52936047D02*
X93154762Y-52745571D01*
X93154762Y-52745571D02*
X93345238Y-52650333D01*
X93345238Y-52650333D02*
X93821429Y-52650333D01*
X93821429Y-52650333D02*
X94011905Y-52555095D01*
X94964286Y-53412238D02*
X94964286Y-52078904D01*
X94964286Y-52459857D02*
X95059524Y-52269380D01*
X95059524Y-52269380D02*
X95154762Y-52174142D01*
X95154762Y-52174142D02*
X95345238Y-52078904D01*
X95345238Y-52078904D02*
X95535715Y-52078904D01*
X95916667Y-52078904D02*
X96678571Y-52078904D01*
X96202381Y-51412238D02*
X96202381Y-53126523D01*
X96202381Y-53126523D02*
X96297619Y-53317000D01*
X96297619Y-53317000D02*
X96488095Y-53412238D01*
X96488095Y-53412238D02*
X96678571Y-53412238D01*
D12*
X138195238Y-63287419D02*
X138195238Y-62287419D01*
X138766666Y-63287419D02*
X138338095Y-62715990D01*
X138766666Y-62287419D02*
X138195238Y-62858847D01*
X139100000Y-62287419D02*
X139719047Y-62287419D01*
X139719047Y-62287419D02*
X139385714Y-62668371D01*
X139385714Y-62668371D02*
X139528571Y-62668371D01*
X139528571Y-62668371D02*
X139623809Y-62715990D01*
X139623809Y-62715990D02*
X139671428Y-62763609D01*
X139671428Y-62763609D02*
X139719047Y-62858847D01*
X139719047Y-62858847D02*
X139719047Y-63096942D01*
X139719047Y-63096942D02*
X139671428Y-63192180D01*
X139671428Y-63192180D02*
X139623809Y-63239800D01*
X139623809Y-63239800D02*
X139528571Y-63287419D01*
X139528571Y-63287419D02*
X139242857Y-63287419D01*
X139242857Y-63287419D02*
X139147619Y-63239800D01*
X139147619Y-63239800D02*
X139100000Y-63192180D01*
X163261905Y-63287419D02*
X163261905Y-62287419D01*
X163833333Y-63287419D02*
X163404762Y-62715990D01*
X163833333Y-62287419D02*
X163261905Y-62858847D01*
X164690476Y-62620752D02*
X164690476Y-63287419D01*
X164452381Y-62239800D02*
X164214286Y-62954085D01*
X164214286Y-62954085D02*
X164833333Y-62954085D01*
X88061905Y-63157419D02*
X88061905Y-62157419D01*
X88633333Y-63157419D02*
X88204762Y-62585990D01*
X88633333Y-62157419D02*
X88061905Y-62728847D01*
X89585714Y-63157419D02*
X89014286Y-63157419D01*
X89300000Y-63157419D02*
X89300000Y-62157419D01*
X89300000Y-62157419D02*
X89204762Y-62300276D01*
X89204762Y-62300276D02*
X89109524Y-62395514D01*
X89109524Y-62395514D02*
X89014286Y-62443133D01*
D13*
X168536666Y-50932238D02*
X168917619Y-50932238D01*
X168917619Y-50932238D02*
X169108095Y-51027476D01*
X169108095Y-51027476D02*
X169298571Y-51217952D01*
X169298571Y-51217952D02*
X169393809Y-51598904D01*
X169393809Y-51598904D02*
X169393809Y-52265571D01*
X169393809Y-52265571D02*
X169298571Y-52646523D01*
X169298571Y-52646523D02*
X169108095Y-52837000D01*
X169108095Y-52837000D02*
X168917619Y-52932238D01*
X168917619Y-52932238D02*
X168536666Y-52932238D01*
X168536666Y-52932238D02*
X168346190Y-52837000D01*
X168346190Y-52837000D02*
X168155714Y-52646523D01*
X168155714Y-52646523D02*
X168060476Y-52265571D01*
X168060476Y-52265571D02*
X168060476Y-51598904D01*
X168060476Y-51598904D02*
X168155714Y-51217952D01*
X168155714Y-51217952D02*
X168346190Y-51027476D01*
X168346190Y-51027476D02*
X168536666Y-50932238D01*
X170250952Y-51598904D02*
X170250952Y-52932238D01*
X170250952Y-51789380D02*
X170346190Y-51694142D01*
X170346190Y-51694142D02*
X170536666Y-51598904D01*
X170536666Y-51598904D02*
X170822381Y-51598904D01*
X170822381Y-51598904D02*
X171012857Y-51694142D01*
X171012857Y-51694142D02*
X171108095Y-51884619D01*
X171108095Y-51884619D02*
X171108095Y-52932238D01*
X173489047Y-50837000D02*
X171774762Y-53408428D01*
X174536666Y-50932238D02*
X174917619Y-50932238D01*
X174917619Y-50932238D02*
X175108095Y-51027476D01*
X175108095Y-51027476D02*
X175298571Y-51217952D01*
X175298571Y-51217952D02*
X175393809Y-51598904D01*
X175393809Y-51598904D02*
X175393809Y-52265571D01*
X175393809Y-52265571D02*
X175298571Y-52646523D01*
X175298571Y-52646523D02*
X175108095Y-52837000D01*
X175108095Y-52837000D02*
X174917619Y-52932238D01*
X174917619Y-52932238D02*
X174536666Y-52932238D01*
X174536666Y-52932238D02*
X174346190Y-52837000D01*
X174346190Y-52837000D02*
X174155714Y-52646523D01*
X174155714Y-52646523D02*
X174060476Y-52265571D01*
X174060476Y-52265571D02*
X174060476Y-51598904D01*
X174060476Y-51598904D02*
X174155714Y-51217952D01*
X174155714Y-51217952D02*
X174346190Y-51027476D01*
X174346190Y-51027476D02*
X174536666Y-50932238D01*
X175965238Y-51598904D02*
X176727142Y-51598904D01*
X176250952Y-52932238D02*
X176250952Y-51217952D01*
X176250952Y-51217952D02*
X176346190Y-51027476D01*
X176346190Y-51027476D02*
X176536666Y-50932238D01*
X176536666Y-50932238D02*
X176727142Y-50932238D01*
X177108095Y-51598904D02*
X177869999Y-51598904D01*
X177393809Y-52932238D02*
X177393809Y-51217952D01*
X177393809Y-51217952D02*
X177489047Y-51027476D01*
X177489047Y-51027476D02*
X177679523Y-50932238D01*
X177679523Y-50932238D02*
X177869999Y-50932238D01*
%TO.C,K2*%
D12*
X111606667Y-63920000D02*
X133326667Y-63920000D01*
X133326667Y-93440000D01*
X111606667Y-93440000D01*
X111606667Y-63920000D01*
D14*
%TO.C,SW3*%
X90150000Y-54650000D02*
X90150000Y-54750000D01*
X90150000Y-54650000D02*
X96350000Y-54650000D01*
X90150000Y-56250000D02*
X90150000Y-59250000D01*
X90150000Y-60850000D02*
X90150000Y-60750000D01*
X90150000Y-60850000D02*
X96350000Y-60850000D01*
X96350000Y-54750000D02*
X96350000Y-54650000D01*
X96350000Y-56250000D02*
X96350000Y-59250000D01*
X96350000Y-60850000D02*
X96350000Y-60750000D01*
%TO.C,J7*%
X124640000Y-124490000D02*
X125970000Y-124490000D01*
X124640000Y-125600000D02*
X124640000Y-124490000D01*
X124640000Y-127060000D02*
X145080000Y-127060000D01*
X124640000Y-135690000D02*
X124640000Y-127060000D01*
X124640000Y-135690000D02*
X145080000Y-135690000D01*
X124760000Y-135690000D02*
X124760000Y-127060000D01*
X124878095Y-135690000D02*
X124878095Y-127060000D01*
X124996190Y-135690000D02*
X124996190Y-127060000D01*
X125114285Y-135690000D02*
X125114285Y-127060000D01*
X125232380Y-135690000D02*
X125232380Y-127060000D01*
X125350475Y-135690000D02*
X125350475Y-127060000D01*
X125468570Y-135690000D02*
X125468570Y-127060000D01*
X125586665Y-135690000D02*
X125586665Y-127060000D01*
X125610000Y-127060000D02*
X125610000Y-126710000D01*
X125704760Y-135690000D02*
X125704760Y-127060000D01*
X125822855Y-135690000D02*
X125822855Y-127060000D01*
X125940950Y-135690000D02*
X125940950Y-127060000D01*
X126059045Y-135690000D02*
X126059045Y-127060000D01*
X126177140Y-135690000D02*
X126177140Y-127060000D01*
X126295235Y-135690000D02*
X126295235Y-127060000D01*
X126330000Y-127060000D02*
X126330000Y-126710000D01*
X126413330Y-135690000D02*
X126413330Y-127060000D01*
X126531425Y-135690000D02*
X126531425Y-127060000D01*
X126649520Y-135690000D02*
X126649520Y-127060000D01*
X126767615Y-135690000D02*
X126767615Y-127060000D01*
X126885710Y-135690000D02*
X126885710Y-127060000D01*
X127003805Y-135690000D02*
X127003805Y-127060000D01*
X127121900Y-135690000D02*
X127121900Y-127060000D01*
X127240000Y-135690000D02*
X127240000Y-127060000D01*
X128150000Y-127060000D02*
X128150000Y-126650000D01*
X128870000Y-127060000D02*
X128870000Y-126650000D01*
X129780000Y-135690000D02*
X129780000Y-127060000D01*
X130690000Y-127060000D02*
X130690000Y-126650000D01*
X131410000Y-127060000D02*
X131410000Y-126650000D01*
X132320000Y-135690000D02*
X132320000Y-127060000D01*
X133230000Y-127060000D02*
X133230000Y-126650000D01*
X133950000Y-127060000D02*
X133950000Y-126650000D01*
X134860000Y-135690000D02*
X134860000Y-127060000D01*
X135770000Y-127060000D02*
X135770000Y-126650000D01*
X136490000Y-127060000D02*
X136490000Y-126650000D01*
X137400000Y-135690000D02*
X137400000Y-127060000D01*
X138310000Y-127060000D02*
X138310000Y-126650000D01*
X139030000Y-127060000D02*
X139030000Y-126650000D01*
X139940000Y-135690000D02*
X139940000Y-127060000D01*
X140850000Y-127060000D02*
X140850000Y-126650000D01*
X141570000Y-127060000D02*
X141570000Y-126650000D01*
X142480000Y-135690000D02*
X142480000Y-127060000D01*
X143390000Y-127060000D02*
X143390000Y-126650000D01*
X144110000Y-127060000D02*
X144110000Y-126650000D01*
X145080000Y-135690000D02*
X145080000Y-127060000D01*
%TO.C,J6*%
X84310000Y-106545000D02*
X84310000Y-126985000D01*
X84310000Y-106545000D02*
X92940000Y-106545000D01*
X84310000Y-106665000D02*
X92940000Y-106665000D01*
X84310000Y-106783095D02*
X92940000Y-106783095D01*
X84310000Y-106901190D02*
X92940000Y-106901190D01*
X84310000Y-107019285D02*
X92940000Y-107019285D01*
X84310000Y-107137380D02*
X92940000Y-107137380D01*
X84310000Y-107255475D02*
X92940000Y-107255475D01*
X84310000Y-107373570D02*
X92940000Y-107373570D01*
X84310000Y-107491665D02*
X92940000Y-107491665D01*
X84310000Y-107609760D02*
X92940000Y-107609760D01*
X84310000Y-107727855D02*
X92940000Y-107727855D01*
X84310000Y-107845950D02*
X92940000Y-107845950D01*
X84310000Y-107964045D02*
X92940000Y-107964045D01*
X84310000Y-108082140D02*
X92940000Y-108082140D01*
X84310000Y-108200235D02*
X92940000Y-108200235D01*
X84310000Y-108318330D02*
X92940000Y-108318330D01*
X84310000Y-108436425D02*
X92940000Y-108436425D01*
X84310000Y-108554520D02*
X92940000Y-108554520D01*
X84310000Y-108672615D02*
X92940000Y-108672615D01*
X84310000Y-108790710D02*
X92940000Y-108790710D01*
X84310000Y-108908805D02*
X92940000Y-108908805D01*
X84310000Y-109026900D02*
X92940000Y-109026900D01*
X84310000Y-109145000D02*
X92940000Y-109145000D01*
X84310000Y-111685000D02*
X92940000Y-111685000D01*
X84310000Y-114225000D02*
X92940000Y-114225000D01*
X84310000Y-116765000D02*
X92940000Y-116765000D01*
X84310000Y-119305000D02*
X92940000Y-119305000D01*
X84310000Y-121845000D02*
X92940000Y-121845000D01*
X84310000Y-124385000D02*
X92940000Y-124385000D01*
X84310000Y-126985000D02*
X92940000Y-126985000D01*
X92940000Y-106545000D02*
X92940000Y-126985000D01*
X92940000Y-107515000D02*
X93290000Y-107515000D01*
X92940000Y-108235000D02*
X93290000Y-108235000D01*
X92940000Y-110055000D02*
X93350000Y-110055000D01*
X92940000Y-110775000D02*
X93350000Y-110775000D01*
X92940000Y-112595000D02*
X93350000Y-112595000D01*
X92940000Y-113315000D02*
X93350000Y-113315000D01*
X92940000Y-115135000D02*
X93350000Y-115135000D01*
X92940000Y-115855000D02*
X93350000Y-115855000D01*
X92940000Y-117675000D02*
X93350000Y-117675000D01*
X92940000Y-118395000D02*
X93350000Y-118395000D01*
X92940000Y-120215000D02*
X93350000Y-120215000D01*
X92940000Y-120935000D02*
X93350000Y-120935000D01*
X92940000Y-122755000D02*
X93350000Y-122755000D01*
X92940000Y-123475000D02*
X93350000Y-123475000D01*
X92940000Y-125295000D02*
X93350000Y-125295000D01*
X92940000Y-126015000D02*
X93350000Y-126015000D01*
X94400000Y-106545000D02*
X95510000Y-106545000D01*
X95510000Y-106545000D02*
X95510000Y-107875000D01*
%TO.C,C2*%
X124960000Y-100817349D02*
X121983000Y-100817349D01*
X124960000Y-100857349D02*
X121991000Y-100857349D01*
X124960000Y-100897349D02*
X121998000Y-100897349D01*
X124960000Y-100937349D02*
X122007000Y-100937349D01*
X124960000Y-100977349D02*
X122015000Y-100977349D01*
X124960000Y-101017349D02*
X122024000Y-101017349D01*
X124960000Y-101057349D02*
X122033000Y-101057349D01*
X124960000Y-101097349D02*
X122043000Y-101097349D01*
X124960000Y-101137349D02*
X122053000Y-101137349D01*
X124960000Y-101177349D02*
X122064000Y-101177349D01*
X124960000Y-101217349D02*
X122075000Y-101217349D01*
X124960000Y-101257349D02*
X122087000Y-101257349D01*
X124960000Y-101297349D02*
X122099000Y-101297349D01*
X124960000Y-101337349D02*
X122111000Y-101337349D01*
X124960000Y-101377349D02*
X122124000Y-101377349D01*
X124960000Y-101417349D02*
X122137000Y-101417349D01*
X124960000Y-101457349D02*
X122151000Y-101457349D01*
X124960000Y-101497349D02*
X122165000Y-101497349D01*
X124960000Y-101537349D02*
X122180000Y-101537349D01*
X124960000Y-101577349D02*
X122195000Y-101577349D01*
X124960000Y-101617349D02*
X122211000Y-101617349D01*
X124960000Y-101657349D02*
X122227000Y-101657349D01*
X124960000Y-101697349D02*
X122243000Y-101697349D01*
X124960000Y-101737349D02*
X122260000Y-101737349D01*
X124960000Y-101777349D02*
X122278000Y-101777349D01*
X124960000Y-101817349D02*
X122296000Y-101817349D01*
X124960000Y-101857349D02*
X122315000Y-101857349D01*
X124960000Y-101897349D02*
X122334000Y-101897349D01*
X124960000Y-101937349D02*
X122354000Y-101937349D01*
X124960000Y-101977349D02*
X122374000Y-101977349D01*
X124960000Y-102017349D02*
X122395000Y-102017349D01*
X124960000Y-102057349D02*
X122416000Y-102057349D01*
X124960000Y-102097349D02*
X122438000Y-102097349D01*
X124960000Y-102137349D02*
X122461000Y-102137349D01*
X124960000Y-102177349D02*
X122484000Y-102177349D01*
X124960000Y-102217349D02*
X122507000Y-102217349D01*
X124960000Y-102257349D02*
X122532000Y-102257349D01*
X124960000Y-102297349D02*
X122557000Y-102297349D01*
X124960000Y-102337349D02*
X122582000Y-102337349D01*
X124960000Y-102377349D02*
X122608000Y-102377349D01*
X124960000Y-102417349D02*
X122635000Y-102417349D01*
X124960000Y-102457349D02*
X122663000Y-102457349D01*
X124960000Y-102497349D02*
X122691000Y-102497349D01*
X124960000Y-102537349D02*
X122720000Y-102537349D01*
X124960000Y-102577349D02*
X122750000Y-102577349D01*
X124960000Y-102617349D02*
X122781000Y-102617349D01*
X124960000Y-102657349D02*
X122812000Y-102657349D01*
X124960000Y-102697349D02*
X122844000Y-102697349D01*
X124960000Y-102737349D02*
X122877000Y-102737349D01*
X124960000Y-102777349D02*
X122911000Y-102777349D01*
X124960000Y-102817349D02*
X122945000Y-102817349D01*
X124960000Y-102857349D02*
X122981000Y-102857349D01*
X126533000Y-104177349D02*
X125467000Y-104177349D01*
X126768000Y-104137349D02*
X125232000Y-104137349D01*
X126947000Y-104097349D02*
X125053000Y-104097349D01*
X127097000Y-104057349D02*
X124903000Y-104057349D01*
X127228000Y-104017349D02*
X124772000Y-104017349D01*
X127346000Y-103977349D02*
X124654000Y-103977349D01*
X127453000Y-103937349D02*
X124547000Y-103937349D01*
X127552000Y-103897349D02*
X124448000Y-103897349D01*
X127644000Y-103857349D02*
X124356000Y-103857349D01*
X127731000Y-103817349D02*
X124269000Y-103817349D01*
X127813000Y-103777349D02*
X124187000Y-103777349D01*
X127890000Y-103737349D02*
X124110000Y-103737349D01*
X127964000Y-103697349D02*
X124036000Y-103697349D01*
X128034000Y-103657349D02*
X123966000Y-103657349D01*
X128101000Y-103617349D02*
X123899000Y-103617349D01*
X128165000Y-103577349D02*
X123835000Y-103577349D01*
X128227000Y-103537349D02*
X123773000Y-103537349D01*
X128287000Y-103497349D02*
X123713000Y-103497349D01*
X128315000Y-95687651D02*
X128315000Y-96487651D01*
X128344000Y-103457349D02*
X123656000Y-103457349D01*
X128400000Y-103417349D02*
X123600000Y-103417349D01*
X128453000Y-103377349D02*
X123547000Y-103377349D01*
X128505000Y-103337349D02*
X123495000Y-103337349D01*
X128555000Y-103297349D02*
X123445000Y-103297349D01*
X128604000Y-103257349D02*
X123396000Y-103257349D01*
X128651000Y-103217349D02*
X123349000Y-103217349D01*
X128696000Y-103177349D02*
X123304000Y-103177349D01*
X128715000Y-96087651D02*
X127915000Y-96087651D01*
X128741000Y-103137349D02*
X123259000Y-103137349D01*
X128784000Y-103097349D02*
X123216000Y-103097349D01*
X128826000Y-103057349D02*
X123174000Y-103057349D01*
X128867000Y-103017349D02*
X123133000Y-103017349D01*
X128906000Y-102977349D02*
X123094000Y-102977349D01*
X128945000Y-102937349D02*
X123055000Y-102937349D01*
X128982000Y-102897349D02*
X123018000Y-102897349D01*
X129019000Y-102857349D02*
X127040000Y-102857349D01*
X129055000Y-102817349D02*
X127040000Y-102817349D01*
X129089000Y-102777349D02*
X127040000Y-102777349D01*
X129123000Y-102737349D02*
X127040000Y-102737349D01*
X129156000Y-102697349D02*
X127040000Y-102697349D01*
X129188000Y-102657349D02*
X127040000Y-102657349D01*
X129219000Y-102617349D02*
X127040000Y-102617349D01*
X129250000Y-102577349D02*
X127040000Y-102577349D01*
X129280000Y-102537349D02*
X127040000Y-102537349D01*
X129309000Y-102497349D02*
X127040000Y-102497349D01*
X129337000Y-102457349D02*
X127040000Y-102457349D01*
X129365000Y-102417349D02*
X127040000Y-102417349D01*
X129392000Y-102377349D02*
X127040000Y-102377349D01*
X129418000Y-102337349D02*
X127040000Y-102337349D01*
X129443000Y-102297349D02*
X127040000Y-102297349D01*
X129468000Y-102257349D02*
X127040000Y-102257349D01*
X129493000Y-102217349D02*
X127040000Y-102217349D01*
X129516000Y-102177349D02*
X127040000Y-102177349D01*
X129539000Y-102137349D02*
X127040000Y-102137349D01*
X129562000Y-102097349D02*
X127040000Y-102097349D01*
X129584000Y-102057349D02*
X127040000Y-102057349D01*
X129605000Y-102017349D02*
X127040000Y-102017349D01*
X129626000Y-101977349D02*
X127040000Y-101977349D01*
X129646000Y-101937349D02*
X127040000Y-101937349D01*
X129666000Y-101897349D02*
X127040000Y-101897349D01*
X129685000Y-101857349D02*
X127040000Y-101857349D01*
X129704000Y-101817349D02*
X127040000Y-101817349D01*
X129722000Y-101777349D02*
X127040000Y-101777349D01*
X129740000Y-101737349D02*
X127040000Y-101737349D01*
X129757000Y-101697349D02*
X127040000Y-101697349D01*
X129773000Y-101657349D02*
X127040000Y-101657349D01*
X129789000Y-101617349D02*
X127040000Y-101617349D01*
X129805000Y-101577349D02*
X127040000Y-101577349D01*
X129820000Y-101537349D02*
X127040000Y-101537349D01*
X129835000Y-101497349D02*
X127040000Y-101497349D01*
X129849000Y-101457349D02*
X127040000Y-101457349D01*
X129863000Y-101417349D02*
X127040000Y-101417349D01*
X129876000Y-101377349D02*
X127040000Y-101377349D01*
X129889000Y-101337349D02*
X127040000Y-101337349D01*
X129901000Y-101297349D02*
X127040000Y-101297349D01*
X129913000Y-101257349D02*
X127040000Y-101257349D01*
X129925000Y-101217349D02*
X127040000Y-101217349D01*
X129936000Y-101177349D02*
X127040000Y-101177349D01*
X129947000Y-101137349D02*
X127040000Y-101137349D01*
X129957000Y-101097349D02*
X127040000Y-101097349D01*
X129967000Y-101057349D02*
X127040000Y-101057349D01*
X129976000Y-101017349D02*
X127040000Y-101017349D01*
X129985000Y-100977349D02*
X127040000Y-100977349D01*
X129993000Y-100937349D02*
X127040000Y-100937349D01*
X130002000Y-100897349D02*
X127040000Y-100897349D01*
X130009000Y-100857349D02*
X127040000Y-100857349D01*
X130017000Y-100817349D02*
X127040000Y-100817349D01*
X130023000Y-100777349D02*
X121977000Y-100777349D01*
X130030000Y-100737349D02*
X121970000Y-100737349D01*
X130036000Y-100697349D02*
X121964000Y-100697349D01*
X130042000Y-100657349D02*
X121958000Y-100657349D01*
X130047000Y-100617349D02*
X121953000Y-100617349D01*
X130052000Y-100577349D02*
X121948000Y-100577349D01*
X130056000Y-100537349D02*
X121944000Y-100537349D01*
X130061000Y-100497349D02*
X121939000Y-100497349D01*
X130064000Y-100457349D02*
X121936000Y-100457349D01*
X130068000Y-100417349D02*
X121932000Y-100417349D01*
X130070000Y-100377349D02*
X121930000Y-100377349D01*
X130073000Y-100337349D02*
X121927000Y-100337349D01*
X130075000Y-100297349D02*
X121925000Y-100297349D01*
X130077000Y-100257349D02*
X121923000Y-100257349D01*
X130078000Y-100217349D02*
X121922000Y-100217349D01*
X130079000Y-100177349D02*
X121921000Y-100177349D01*
X130080000Y-100097349D02*
X121920000Y-100097349D01*
X130080000Y-100137349D02*
X121920000Y-100137349D01*
X130120000Y-100097349D02*
G75*
G02*
X121880000Y-100097349I-4120000J0D01*
G01*
X121880000Y-100097349D02*
G75*
G02*
X130120000Y-100097349I4120000J0D01*
G01*
%TO.C,K3*%
D12*
X136673333Y-63920000D02*
X158393333Y-63920000D01*
X158393333Y-93440000D01*
X136673333Y-93440000D01*
X136673333Y-63920000D01*
D14*
%TO.C,J5*%
X97070000Y-112440000D02*
X97070000Y-113440000D01*
X97070000Y-113440000D02*
X98070000Y-112940000D01*
X98070000Y-112940000D02*
X97070000Y-112440000D01*
X98460000Y-107730000D02*
X107580000Y-107730000D01*
X98460000Y-114700000D02*
X99770000Y-114700000D01*
X98460000Y-125770000D02*
X98460000Y-107730000D01*
X99770000Y-109030000D02*
X106270000Y-109030000D01*
X99770000Y-114700000D02*
X99770000Y-109030000D01*
X99770000Y-118800000D02*
X98460000Y-118800000D01*
X99770000Y-124470000D02*
X99770000Y-118800000D01*
X106270000Y-109030000D02*
X106270000Y-124470000D01*
X106270000Y-124470000D02*
X99770000Y-124470000D01*
X107580000Y-107730000D02*
X107580000Y-125770000D01*
X107580000Y-125770000D02*
X98460000Y-125770000D01*
%TO.C,J3*%
X168070000Y-112440000D02*
X168070000Y-113440000D01*
X168070000Y-113440000D02*
X169070000Y-112940000D01*
X169070000Y-112940000D02*
X168070000Y-112440000D01*
X169460000Y-107730000D02*
X178580000Y-107730000D01*
X169460000Y-114700000D02*
X170770000Y-114700000D01*
X169460000Y-125770000D02*
X169460000Y-107730000D01*
X170770000Y-109030000D02*
X177270000Y-109030000D01*
X170770000Y-114700000D02*
X170770000Y-109030000D01*
X170770000Y-118800000D02*
X169460000Y-118800000D01*
X170770000Y-124470000D02*
X170770000Y-118800000D01*
X177270000Y-109030000D02*
X177270000Y-124470000D01*
X177270000Y-124470000D02*
X170770000Y-124470000D01*
X178580000Y-107730000D02*
X178580000Y-125770000D01*
X178580000Y-125770000D02*
X169460000Y-125770000D01*
%TO.C,D4*%
X167250000Y-98040000D02*
X167250000Y-98690000D01*
X167250000Y-103580000D02*
X167250000Y-102930000D01*
X168370000Y-99290000D02*
X166130000Y-99290000D01*
X168370000Y-99410000D02*
X166130000Y-99410000D01*
X168370000Y-99530000D02*
X166130000Y-99530000D01*
X168370000Y-98690000D02*
X166130000Y-98690000D01*
X166130000Y-102930000D01*
X168370000Y-102930000D01*
X168370000Y-98690000D01*
%TO.C,K4*%
D12*
X161740000Y-63920000D02*
X183460000Y-63920000D01*
X183460000Y-93440000D01*
X161740000Y-93440000D01*
X161740000Y-63920000D01*
D14*
%TO.C,D1*%
X92500000Y-97230000D02*
X92500000Y-97880000D01*
X92500000Y-102770000D02*
X92500000Y-102120000D01*
X93620000Y-98480000D02*
X91380000Y-98480000D01*
X93620000Y-98600000D02*
X91380000Y-98600000D01*
X93620000Y-98720000D02*
X91380000Y-98720000D01*
X93620000Y-97880000D02*
X91380000Y-97880000D01*
X91380000Y-102120000D01*
X93620000Y-102120000D01*
X93620000Y-97880000D01*
%TO.C,D3*%
X142250000Y-97730000D02*
X142250000Y-98380000D01*
X142250000Y-103270000D02*
X142250000Y-102620000D01*
X143370000Y-98980000D02*
X141130000Y-98980000D01*
X143370000Y-99100000D02*
X141130000Y-99100000D01*
X143370000Y-99220000D02*
X141130000Y-99220000D01*
X143370000Y-98380000D02*
X141130000Y-98380000D01*
X141130000Y-102620000D01*
X143370000Y-102620000D01*
X143370000Y-98380000D01*
%TO.C,C3*%
X149960000Y-100970000D02*
X146983000Y-100970000D01*
X149960000Y-101010000D02*
X146991000Y-101010000D01*
X149960000Y-101050000D02*
X146998000Y-101050000D01*
X149960000Y-101090000D02*
X147007000Y-101090000D01*
X149960000Y-101130000D02*
X147015000Y-101130000D01*
X149960000Y-101170000D02*
X147024000Y-101170000D01*
X149960000Y-101210000D02*
X147033000Y-101210000D01*
X149960000Y-101250000D02*
X147043000Y-101250000D01*
X149960000Y-101290000D02*
X147053000Y-101290000D01*
X149960000Y-101330000D02*
X147064000Y-101330000D01*
X149960000Y-101370000D02*
X147075000Y-101370000D01*
X149960000Y-101410000D02*
X147087000Y-101410000D01*
X149960000Y-101450000D02*
X147099000Y-101450000D01*
X149960000Y-101490000D02*
X147111000Y-101490000D01*
X149960000Y-101530000D02*
X147124000Y-101530000D01*
X149960000Y-101570000D02*
X147137000Y-101570000D01*
X149960000Y-101610000D02*
X147151000Y-101610000D01*
X149960000Y-101650000D02*
X147165000Y-101650000D01*
X149960000Y-101690000D02*
X147180000Y-101690000D01*
X149960000Y-101730000D02*
X147195000Y-101730000D01*
X149960000Y-101770000D02*
X147211000Y-101770000D01*
X149960000Y-101810000D02*
X147227000Y-101810000D01*
X149960000Y-101850000D02*
X147243000Y-101850000D01*
X149960000Y-101890000D02*
X147260000Y-101890000D01*
X149960000Y-101930000D02*
X147278000Y-101930000D01*
X149960000Y-101970000D02*
X147296000Y-101970000D01*
X149960000Y-102010000D02*
X147315000Y-102010000D01*
X149960000Y-102050000D02*
X147334000Y-102050000D01*
X149960000Y-102090000D02*
X147354000Y-102090000D01*
X149960000Y-102130000D02*
X147374000Y-102130000D01*
X149960000Y-102170000D02*
X147395000Y-102170000D01*
X149960000Y-102210000D02*
X147416000Y-102210000D01*
X149960000Y-102250000D02*
X147438000Y-102250000D01*
X149960000Y-102290000D02*
X147461000Y-102290000D01*
X149960000Y-102330000D02*
X147484000Y-102330000D01*
X149960000Y-102370000D02*
X147507000Y-102370000D01*
X149960000Y-102410000D02*
X147532000Y-102410000D01*
X149960000Y-102450000D02*
X147557000Y-102450000D01*
X149960000Y-102490000D02*
X147582000Y-102490000D01*
X149960000Y-102530000D02*
X147608000Y-102530000D01*
X149960000Y-102570000D02*
X147635000Y-102570000D01*
X149960000Y-102610000D02*
X147663000Y-102610000D01*
X149960000Y-102650000D02*
X147691000Y-102650000D01*
X149960000Y-102690000D02*
X147720000Y-102690000D01*
X149960000Y-102730000D02*
X147750000Y-102730000D01*
X149960000Y-102770000D02*
X147781000Y-102770000D01*
X149960000Y-102810000D02*
X147812000Y-102810000D01*
X149960000Y-102850000D02*
X147844000Y-102850000D01*
X149960000Y-102890000D02*
X147877000Y-102890000D01*
X149960000Y-102930000D02*
X147911000Y-102930000D01*
X149960000Y-102970000D02*
X147945000Y-102970000D01*
X149960000Y-103010000D02*
X147981000Y-103010000D01*
X151533000Y-104330000D02*
X150467000Y-104330000D01*
X151768000Y-104290000D02*
X150232000Y-104290000D01*
X151947000Y-104250000D02*
X150053000Y-104250000D01*
X152097000Y-104210000D02*
X149903000Y-104210000D01*
X152228000Y-104170000D02*
X149772000Y-104170000D01*
X152346000Y-104130000D02*
X149654000Y-104130000D01*
X152453000Y-104090000D02*
X149547000Y-104090000D01*
X152552000Y-104050000D02*
X149448000Y-104050000D01*
X152644000Y-104010000D02*
X149356000Y-104010000D01*
X152731000Y-103970000D02*
X149269000Y-103970000D01*
X152813000Y-103930000D02*
X149187000Y-103930000D01*
X152890000Y-103890000D02*
X149110000Y-103890000D01*
X152964000Y-103850000D02*
X149036000Y-103850000D01*
X153034000Y-103810000D02*
X148966000Y-103810000D01*
X153101000Y-103770000D02*
X148899000Y-103770000D01*
X153165000Y-103730000D02*
X148835000Y-103730000D01*
X153227000Y-103690000D02*
X148773000Y-103690000D01*
X153287000Y-103650000D02*
X148713000Y-103650000D01*
X153315000Y-95840302D02*
X153315000Y-96640302D01*
X153344000Y-103610000D02*
X148656000Y-103610000D01*
X153400000Y-103570000D02*
X148600000Y-103570000D01*
X153453000Y-103530000D02*
X148547000Y-103530000D01*
X153505000Y-103490000D02*
X148495000Y-103490000D01*
X153555000Y-103450000D02*
X148445000Y-103450000D01*
X153604000Y-103410000D02*
X148396000Y-103410000D01*
X153651000Y-103370000D02*
X148349000Y-103370000D01*
X153696000Y-103330000D02*
X148304000Y-103330000D01*
X153715000Y-96240302D02*
X152915000Y-96240302D01*
X153741000Y-103290000D02*
X148259000Y-103290000D01*
X153784000Y-103250000D02*
X148216000Y-103250000D01*
X153826000Y-103210000D02*
X148174000Y-103210000D01*
X153867000Y-103170000D02*
X148133000Y-103170000D01*
X153906000Y-103130000D02*
X148094000Y-103130000D01*
X153945000Y-103090000D02*
X148055000Y-103090000D01*
X153982000Y-103050000D02*
X148018000Y-103050000D01*
X154019000Y-103010000D02*
X152040000Y-103010000D01*
X154055000Y-102970000D02*
X152040000Y-102970000D01*
X154089000Y-102930000D02*
X152040000Y-102930000D01*
X154123000Y-102890000D02*
X152040000Y-102890000D01*
X154156000Y-102850000D02*
X152040000Y-102850000D01*
X154188000Y-102810000D02*
X152040000Y-102810000D01*
X154219000Y-102770000D02*
X152040000Y-102770000D01*
X154250000Y-102730000D02*
X152040000Y-102730000D01*
X154280000Y-102690000D02*
X152040000Y-102690000D01*
X154309000Y-102650000D02*
X152040000Y-102650000D01*
X154337000Y-102610000D02*
X152040000Y-102610000D01*
X154365000Y-102570000D02*
X152040000Y-102570000D01*
X154392000Y-102530000D02*
X152040000Y-102530000D01*
X154418000Y-102490000D02*
X152040000Y-102490000D01*
X154443000Y-102450000D02*
X152040000Y-102450000D01*
X154468000Y-102410000D02*
X152040000Y-102410000D01*
X154493000Y-102370000D02*
X152040000Y-102370000D01*
X154516000Y-102330000D02*
X152040000Y-102330000D01*
X154539000Y-102290000D02*
X152040000Y-102290000D01*
X154562000Y-102250000D02*
X152040000Y-102250000D01*
X154584000Y-102210000D02*
X152040000Y-102210000D01*
X154605000Y-102170000D02*
X152040000Y-102170000D01*
X154626000Y-102130000D02*
X152040000Y-102130000D01*
X154646000Y-102090000D02*
X152040000Y-102090000D01*
X154666000Y-102050000D02*
X152040000Y-102050000D01*
X154685000Y-102010000D02*
X152040000Y-102010000D01*
X154704000Y-101970000D02*
X152040000Y-101970000D01*
X154722000Y-101930000D02*
X152040000Y-101930000D01*
X154740000Y-101890000D02*
X152040000Y-101890000D01*
X154757000Y-101850000D02*
X152040000Y-101850000D01*
X154773000Y-101810000D02*
X152040000Y-101810000D01*
X154789000Y-101770000D02*
X152040000Y-101770000D01*
X154805000Y-101730000D02*
X152040000Y-101730000D01*
X154820000Y-101690000D02*
X152040000Y-101690000D01*
X154835000Y-101650000D02*
X152040000Y-101650000D01*
X154849000Y-101610000D02*
X152040000Y-101610000D01*
X154863000Y-101570000D02*
X152040000Y-101570000D01*
X154876000Y-101530000D02*
X152040000Y-101530000D01*
X154889000Y-101490000D02*
X152040000Y-101490000D01*
X154901000Y-101450000D02*
X152040000Y-101450000D01*
X154913000Y-101410000D02*
X152040000Y-101410000D01*
X154925000Y-101370000D02*
X152040000Y-101370000D01*
X154936000Y-101330000D02*
X152040000Y-101330000D01*
X154947000Y-101290000D02*
X152040000Y-101290000D01*
X154957000Y-101250000D02*
X152040000Y-101250000D01*
X154967000Y-101210000D02*
X152040000Y-101210000D01*
X154976000Y-101170000D02*
X152040000Y-101170000D01*
X154985000Y-101130000D02*
X152040000Y-101130000D01*
X154993000Y-101090000D02*
X152040000Y-101090000D01*
X155002000Y-101050000D02*
X152040000Y-101050000D01*
X155009000Y-101010000D02*
X152040000Y-101010000D01*
X155017000Y-100970000D02*
X152040000Y-100970000D01*
X155023000Y-100930000D02*
X146977000Y-100930000D01*
X155030000Y-100890000D02*
X146970000Y-100890000D01*
X155036000Y-100850000D02*
X146964000Y-100850000D01*
X155042000Y-100810000D02*
X146958000Y-100810000D01*
X155047000Y-100770000D02*
X146953000Y-100770000D01*
X155052000Y-100730000D02*
X146948000Y-100730000D01*
X155056000Y-100690000D02*
X146944000Y-100690000D01*
X155061000Y-100650000D02*
X146939000Y-100650000D01*
X155064000Y-100610000D02*
X146936000Y-100610000D01*
X155068000Y-100570000D02*
X146932000Y-100570000D01*
X155070000Y-100530000D02*
X146930000Y-100530000D01*
X155073000Y-100490000D02*
X146927000Y-100490000D01*
X155075000Y-100450000D02*
X146925000Y-100450000D01*
X155077000Y-100410000D02*
X146923000Y-100410000D01*
X155078000Y-100370000D02*
X146922000Y-100370000D01*
X155079000Y-100330000D02*
X146921000Y-100330000D01*
X155080000Y-100250000D02*
X146920000Y-100250000D01*
X155080000Y-100290000D02*
X146920000Y-100290000D01*
X155120000Y-100250000D02*
G75*
G02*
X146880000Y-100250000I-4120000J0D01*
G01*
X146880000Y-100250000D02*
G75*
G02*
X155120000Y-100250000I4120000J0D01*
G01*
%TO.C,J4*%
X181345000Y-106590000D02*
X182615000Y-106590000D01*
X181345000Y-107860000D02*
X181345000Y-106590000D01*
X183692358Y-109970000D02*
X184005000Y-109970000D01*
X183692358Y-110830000D02*
X184005000Y-110830000D01*
X183692358Y-112510000D02*
X184005000Y-112510000D01*
X183692358Y-113370000D02*
X184005000Y-113370000D01*
X183692358Y-115050000D02*
X184005000Y-115050000D01*
X183692358Y-115910000D02*
X184005000Y-115910000D01*
X183692358Y-117590000D02*
X184005000Y-117590000D01*
X183692358Y-118450000D02*
X184005000Y-118450000D01*
X183692358Y-120130000D02*
X184005000Y-120130000D01*
X183692358Y-120990000D02*
X184005000Y-120990000D01*
X183692358Y-122670000D02*
X184005000Y-122670000D01*
X183692358Y-123530000D02*
X184005000Y-123530000D01*
X183692358Y-125210000D02*
X184005000Y-125210000D01*
X183692358Y-126070000D02*
X184005000Y-126070000D01*
X183775000Y-107430000D02*
X184005000Y-107430000D01*
X183775000Y-108290000D02*
X184005000Y-108290000D01*
X184005000Y-106480000D02*
X184005000Y-127020000D01*
X184005000Y-109130000D02*
X186765000Y-109130000D01*
X184005000Y-111670000D02*
X186765000Y-111670000D01*
X184005000Y-114210000D02*
X186765000Y-114210000D01*
X184005000Y-116750000D02*
X186765000Y-116750000D01*
X184005000Y-119290000D02*
X186765000Y-119290000D01*
X184005000Y-121830000D02*
X186765000Y-121830000D01*
X184005000Y-124370000D02*
X186765000Y-124370000D01*
X184005000Y-127020000D02*
X186765000Y-127020000D01*
X186765000Y-106480000D02*
X184005000Y-106480000D01*
X186765000Y-109970000D02*
X192765000Y-109970000D01*
X186765000Y-112510000D02*
X192765000Y-112510000D01*
X186765000Y-115050000D02*
X192765000Y-115050000D01*
X186765000Y-117590000D02*
X192765000Y-117590000D01*
X186765000Y-120130000D02*
X192765000Y-120130000D01*
X186765000Y-122670000D02*
X192765000Y-122670000D01*
X186765000Y-125210000D02*
X192765000Y-125210000D01*
X186765000Y-127020000D02*
X186765000Y-106480000D01*
X192765000Y-109970000D02*
X192765000Y-110830000D01*
X192765000Y-110830000D02*
X186765000Y-110830000D01*
X192765000Y-112510000D02*
X192765000Y-113370000D01*
X192765000Y-113370000D02*
X186765000Y-113370000D01*
X192765000Y-115050000D02*
X192765000Y-115910000D01*
X192765000Y-115910000D02*
X186765000Y-115910000D01*
X192765000Y-117590000D02*
X192765000Y-118450000D01*
X192765000Y-118450000D02*
X186765000Y-118450000D01*
X192765000Y-120130000D02*
X192765000Y-120990000D01*
X192765000Y-120990000D02*
X186765000Y-120990000D01*
X192765000Y-122670000D02*
X192765000Y-123530000D01*
X192765000Y-123530000D02*
X186765000Y-123530000D01*
X192765000Y-125210000D02*
X192765000Y-126070000D01*
X192765000Y-126070000D02*
X186765000Y-126070000D01*
X186765000Y-107430000D02*
X192765000Y-107430000D01*
X192765000Y-108290000D01*
X186765000Y-108290000D01*
X186765000Y-107430000D01*
G36*
X186765000Y-107430000D02*
G01*
X192765000Y-107430000D01*
X192765000Y-108290000D01*
X186765000Y-108290000D01*
X186765000Y-107430000D01*
G37*
%TO.C,J1*%
X125825000Y-112920000D02*
X143865000Y-112920000D01*
X125825000Y-122040000D02*
X125825000Y-112920000D01*
X127125000Y-114230000D02*
X142565000Y-114230000D01*
X127125000Y-120730000D02*
X127125000Y-114230000D01*
X130535000Y-123430000D02*
X131535000Y-123430000D01*
X131035000Y-122430000D02*
X130535000Y-123430000D01*
X131535000Y-123430000D02*
X131035000Y-122430000D01*
X132795000Y-120730000D02*
X127125000Y-120730000D01*
X132795000Y-122040000D02*
X132795000Y-120730000D01*
X136895000Y-120730000D02*
X136895000Y-122040000D01*
X142565000Y-114230000D02*
X142565000Y-120730000D01*
X142565000Y-120730000D02*
X136895000Y-120730000D01*
X143865000Y-112920000D02*
X143865000Y-122040000D01*
X143865000Y-122040000D02*
X125825000Y-122040000D01*
%TO.C,K1*%
D12*
X86540000Y-63790000D02*
X108260000Y-63790000D01*
X108260000Y-93310000D01*
X86540000Y-93310000D01*
X86540000Y-63790000D01*
D14*
%TO.C,C4*%
X175210000Y-100970000D02*
X172233000Y-100970000D01*
X175210000Y-101010000D02*
X172241000Y-101010000D01*
X175210000Y-101050000D02*
X172248000Y-101050000D01*
X175210000Y-101090000D02*
X172257000Y-101090000D01*
X175210000Y-101130000D02*
X172265000Y-101130000D01*
X175210000Y-101170000D02*
X172274000Y-101170000D01*
X175210000Y-101210000D02*
X172283000Y-101210000D01*
X175210000Y-101250000D02*
X172293000Y-101250000D01*
X175210000Y-101290000D02*
X172303000Y-101290000D01*
X175210000Y-101330000D02*
X172314000Y-101330000D01*
X175210000Y-101370000D02*
X172325000Y-101370000D01*
X175210000Y-101410000D02*
X172337000Y-101410000D01*
X175210000Y-101450000D02*
X172349000Y-101450000D01*
X175210000Y-101490000D02*
X172361000Y-101490000D01*
X175210000Y-101530000D02*
X172374000Y-101530000D01*
X175210000Y-101570000D02*
X172387000Y-101570000D01*
X175210000Y-101610000D02*
X172401000Y-101610000D01*
X175210000Y-101650000D02*
X172415000Y-101650000D01*
X175210000Y-101690000D02*
X172430000Y-101690000D01*
X175210000Y-101730000D02*
X172445000Y-101730000D01*
X175210000Y-101770000D02*
X172461000Y-101770000D01*
X175210000Y-101810000D02*
X172477000Y-101810000D01*
X175210000Y-101850000D02*
X172493000Y-101850000D01*
X175210000Y-101890000D02*
X172510000Y-101890000D01*
X175210000Y-101930000D02*
X172528000Y-101930000D01*
X175210000Y-101970000D02*
X172546000Y-101970000D01*
X175210000Y-102010000D02*
X172565000Y-102010000D01*
X175210000Y-102050000D02*
X172584000Y-102050000D01*
X175210000Y-102090000D02*
X172604000Y-102090000D01*
X175210000Y-102130000D02*
X172624000Y-102130000D01*
X175210000Y-102170000D02*
X172645000Y-102170000D01*
X175210000Y-102210000D02*
X172666000Y-102210000D01*
X175210000Y-102250000D02*
X172688000Y-102250000D01*
X175210000Y-102290000D02*
X172711000Y-102290000D01*
X175210000Y-102330000D02*
X172734000Y-102330000D01*
X175210000Y-102370000D02*
X172757000Y-102370000D01*
X175210000Y-102410000D02*
X172782000Y-102410000D01*
X175210000Y-102450000D02*
X172807000Y-102450000D01*
X175210000Y-102490000D02*
X172832000Y-102490000D01*
X175210000Y-102530000D02*
X172858000Y-102530000D01*
X175210000Y-102570000D02*
X172885000Y-102570000D01*
X175210000Y-102610000D02*
X172913000Y-102610000D01*
X175210000Y-102650000D02*
X172941000Y-102650000D01*
X175210000Y-102690000D02*
X172970000Y-102690000D01*
X175210000Y-102730000D02*
X173000000Y-102730000D01*
X175210000Y-102770000D02*
X173031000Y-102770000D01*
X175210000Y-102810000D02*
X173062000Y-102810000D01*
X175210000Y-102850000D02*
X173094000Y-102850000D01*
X175210000Y-102890000D02*
X173127000Y-102890000D01*
X175210000Y-102930000D02*
X173161000Y-102930000D01*
X175210000Y-102970000D02*
X173195000Y-102970000D01*
X175210000Y-103010000D02*
X173231000Y-103010000D01*
X176783000Y-104330000D02*
X175717000Y-104330000D01*
X177018000Y-104290000D02*
X175482000Y-104290000D01*
X177197000Y-104250000D02*
X175303000Y-104250000D01*
X177347000Y-104210000D02*
X175153000Y-104210000D01*
X177478000Y-104170000D02*
X175022000Y-104170000D01*
X177596000Y-104130000D02*
X174904000Y-104130000D01*
X177703000Y-104090000D02*
X174797000Y-104090000D01*
X177802000Y-104050000D02*
X174698000Y-104050000D01*
X177894000Y-104010000D02*
X174606000Y-104010000D01*
X177981000Y-103970000D02*
X174519000Y-103970000D01*
X178063000Y-103930000D02*
X174437000Y-103930000D01*
X178140000Y-103890000D02*
X174360000Y-103890000D01*
X178214000Y-103850000D02*
X174286000Y-103850000D01*
X178284000Y-103810000D02*
X174216000Y-103810000D01*
X178351000Y-103770000D02*
X174149000Y-103770000D01*
X178415000Y-103730000D02*
X174085000Y-103730000D01*
X178477000Y-103690000D02*
X174023000Y-103690000D01*
X178537000Y-103650000D02*
X173963000Y-103650000D01*
X178565000Y-95840302D02*
X178565000Y-96640302D01*
X178594000Y-103610000D02*
X173906000Y-103610000D01*
X178650000Y-103570000D02*
X173850000Y-103570000D01*
X178703000Y-103530000D02*
X173797000Y-103530000D01*
X178755000Y-103490000D02*
X173745000Y-103490000D01*
X178805000Y-103450000D02*
X173695000Y-103450000D01*
X178854000Y-103410000D02*
X173646000Y-103410000D01*
X178901000Y-103370000D02*
X173599000Y-103370000D01*
X178946000Y-103330000D02*
X173554000Y-103330000D01*
X178965000Y-96240302D02*
X178165000Y-96240302D01*
X178991000Y-103290000D02*
X173509000Y-103290000D01*
X179034000Y-103250000D02*
X173466000Y-103250000D01*
X179076000Y-103210000D02*
X173424000Y-103210000D01*
X179117000Y-103170000D02*
X173383000Y-103170000D01*
X179156000Y-103130000D02*
X173344000Y-103130000D01*
X179195000Y-103090000D02*
X173305000Y-103090000D01*
X179232000Y-103050000D02*
X173268000Y-103050000D01*
X179269000Y-103010000D02*
X177290000Y-103010000D01*
X179305000Y-102970000D02*
X177290000Y-102970000D01*
X179339000Y-102930000D02*
X177290000Y-102930000D01*
X179373000Y-102890000D02*
X177290000Y-102890000D01*
X179406000Y-102850000D02*
X177290000Y-102850000D01*
X179438000Y-102810000D02*
X177290000Y-102810000D01*
X179469000Y-102770000D02*
X177290000Y-102770000D01*
X179500000Y-102730000D02*
X177290000Y-102730000D01*
X179530000Y-102690000D02*
X177290000Y-102690000D01*
X179559000Y-102650000D02*
X177290000Y-102650000D01*
X179587000Y-102610000D02*
X177290000Y-102610000D01*
X179615000Y-102570000D02*
X177290000Y-102570000D01*
X179642000Y-102530000D02*
X177290000Y-102530000D01*
X179668000Y-102490000D02*
X177290000Y-102490000D01*
X179693000Y-102450000D02*
X177290000Y-102450000D01*
X179718000Y-102410000D02*
X177290000Y-102410000D01*
X179743000Y-102370000D02*
X177290000Y-102370000D01*
X179766000Y-102330000D02*
X177290000Y-102330000D01*
X179789000Y-102290000D02*
X177290000Y-102290000D01*
X179812000Y-102250000D02*
X177290000Y-102250000D01*
X179834000Y-102210000D02*
X177290000Y-102210000D01*
X179855000Y-102170000D02*
X177290000Y-102170000D01*
X179876000Y-102130000D02*
X177290000Y-102130000D01*
X179896000Y-102090000D02*
X177290000Y-102090000D01*
X179916000Y-102050000D02*
X177290000Y-102050000D01*
X179935000Y-102010000D02*
X177290000Y-102010000D01*
X179954000Y-101970000D02*
X177290000Y-101970000D01*
X179972000Y-101930000D02*
X177290000Y-101930000D01*
X179990000Y-101890000D02*
X177290000Y-101890000D01*
X180007000Y-101850000D02*
X177290000Y-101850000D01*
X180023000Y-101810000D02*
X177290000Y-101810000D01*
X180039000Y-101770000D02*
X177290000Y-101770000D01*
X180055000Y-101730000D02*
X177290000Y-101730000D01*
X180070000Y-101690000D02*
X177290000Y-101690000D01*
X180085000Y-101650000D02*
X177290000Y-101650000D01*
X180099000Y-101610000D02*
X177290000Y-101610000D01*
X180113000Y-101570000D02*
X177290000Y-101570000D01*
X180126000Y-101530000D02*
X177290000Y-101530000D01*
X180139000Y-101490000D02*
X177290000Y-101490000D01*
X180151000Y-101450000D02*
X177290000Y-101450000D01*
X180163000Y-101410000D02*
X177290000Y-101410000D01*
X180175000Y-101370000D02*
X177290000Y-101370000D01*
X180186000Y-101330000D02*
X177290000Y-101330000D01*
X180197000Y-101290000D02*
X177290000Y-101290000D01*
X180207000Y-101250000D02*
X177290000Y-101250000D01*
X180217000Y-101210000D02*
X177290000Y-101210000D01*
X180226000Y-101170000D02*
X177290000Y-101170000D01*
X180235000Y-101130000D02*
X177290000Y-101130000D01*
X180243000Y-101090000D02*
X177290000Y-101090000D01*
X180252000Y-101050000D02*
X177290000Y-101050000D01*
X180259000Y-101010000D02*
X177290000Y-101010000D01*
X180267000Y-100970000D02*
X177290000Y-100970000D01*
X180273000Y-100930000D02*
X172227000Y-100930000D01*
X180280000Y-100890000D02*
X172220000Y-100890000D01*
X180286000Y-100850000D02*
X172214000Y-100850000D01*
X180292000Y-100810000D02*
X172208000Y-100810000D01*
X180297000Y-100770000D02*
X172203000Y-100770000D01*
X180302000Y-100730000D02*
X172198000Y-100730000D01*
X180306000Y-100690000D02*
X172194000Y-100690000D01*
X180311000Y-100650000D02*
X172189000Y-100650000D01*
X180314000Y-100610000D02*
X172186000Y-100610000D01*
X180318000Y-100570000D02*
X172182000Y-100570000D01*
X180320000Y-100530000D02*
X172180000Y-100530000D01*
X180323000Y-100490000D02*
X172177000Y-100490000D01*
X180325000Y-100450000D02*
X172175000Y-100450000D01*
X180327000Y-100410000D02*
X172173000Y-100410000D01*
X180328000Y-100370000D02*
X172172000Y-100370000D01*
X180329000Y-100330000D02*
X172171000Y-100330000D01*
X180330000Y-100250000D02*
X172170000Y-100250000D01*
X180330000Y-100290000D02*
X172170000Y-100290000D01*
X180370000Y-100250000D02*
G75*
G02*
X172130000Y-100250000I-4120000J0D01*
G01*
X172130000Y-100250000D02*
G75*
G02*
X180370000Y-100250000I4120000J0D01*
G01*
%TO.C,D2*%
X117250000Y-97480000D02*
X117250000Y-98130000D01*
X117250000Y-103020000D02*
X117250000Y-102370000D01*
X118370000Y-98730000D02*
X116130000Y-98730000D01*
X118370000Y-98850000D02*
X116130000Y-98850000D01*
X118370000Y-98970000D02*
X116130000Y-98970000D01*
X118370000Y-98130000D02*
X116130000Y-98130000D01*
X116130000Y-102370000D01*
X118370000Y-102370000D01*
X118370000Y-98130000D01*
%TO.C,SW1*%
D12*
X179630000Y-61970000D02*
X166210000Y-61970000D01*
X166210000Y-53850000D01*
X179630000Y-53850000D01*
X179630000Y-61970000D01*
D14*
%TO.C,C1*%
X99960000Y-100817349D02*
X96983000Y-100817349D01*
X99960000Y-100857349D02*
X96991000Y-100857349D01*
X99960000Y-100897349D02*
X96998000Y-100897349D01*
X99960000Y-100937349D02*
X97007000Y-100937349D01*
X99960000Y-100977349D02*
X97015000Y-100977349D01*
X99960000Y-101017349D02*
X97024000Y-101017349D01*
X99960000Y-101057349D02*
X97033000Y-101057349D01*
X99960000Y-101097349D02*
X97043000Y-101097349D01*
X99960000Y-101137349D02*
X97053000Y-101137349D01*
X99960000Y-101177349D02*
X97064000Y-101177349D01*
X99960000Y-101217349D02*
X97075000Y-101217349D01*
X99960000Y-101257349D02*
X97087000Y-101257349D01*
X99960000Y-101297349D02*
X97099000Y-101297349D01*
X99960000Y-101337349D02*
X97111000Y-101337349D01*
X99960000Y-101377349D02*
X97124000Y-101377349D01*
X99960000Y-101417349D02*
X97137000Y-101417349D01*
X99960000Y-101457349D02*
X97151000Y-101457349D01*
X99960000Y-101497349D02*
X97165000Y-101497349D01*
X99960000Y-101537349D02*
X97180000Y-101537349D01*
X99960000Y-101577349D02*
X97195000Y-101577349D01*
X99960000Y-101617349D02*
X97211000Y-101617349D01*
X99960000Y-101657349D02*
X97227000Y-101657349D01*
X99960000Y-101697349D02*
X97243000Y-101697349D01*
X99960000Y-101737349D02*
X97260000Y-101737349D01*
X99960000Y-101777349D02*
X97278000Y-101777349D01*
X99960000Y-101817349D02*
X97296000Y-101817349D01*
X99960000Y-101857349D02*
X97315000Y-101857349D01*
X99960000Y-101897349D02*
X97334000Y-101897349D01*
X99960000Y-101937349D02*
X97354000Y-101937349D01*
X99960000Y-101977349D02*
X97374000Y-101977349D01*
X99960000Y-102017349D02*
X97395000Y-102017349D01*
X99960000Y-102057349D02*
X97416000Y-102057349D01*
X99960000Y-102097349D02*
X97438000Y-102097349D01*
X99960000Y-102137349D02*
X97461000Y-102137349D01*
X99960000Y-102177349D02*
X97484000Y-102177349D01*
X99960000Y-102217349D02*
X97507000Y-102217349D01*
X99960000Y-102257349D02*
X97532000Y-102257349D01*
X99960000Y-102297349D02*
X97557000Y-102297349D01*
X99960000Y-102337349D02*
X97582000Y-102337349D01*
X99960000Y-102377349D02*
X97608000Y-102377349D01*
X99960000Y-102417349D02*
X97635000Y-102417349D01*
X99960000Y-102457349D02*
X97663000Y-102457349D01*
X99960000Y-102497349D02*
X97691000Y-102497349D01*
X99960000Y-102537349D02*
X97720000Y-102537349D01*
X99960000Y-102577349D02*
X97750000Y-102577349D01*
X99960000Y-102617349D02*
X97781000Y-102617349D01*
X99960000Y-102657349D02*
X97812000Y-102657349D01*
X99960000Y-102697349D02*
X97844000Y-102697349D01*
X99960000Y-102737349D02*
X97877000Y-102737349D01*
X99960000Y-102777349D02*
X97911000Y-102777349D01*
X99960000Y-102817349D02*
X97945000Y-102817349D01*
X99960000Y-102857349D02*
X97981000Y-102857349D01*
X101533000Y-104177349D02*
X100467000Y-104177349D01*
X101768000Y-104137349D02*
X100232000Y-104137349D01*
X101947000Y-104097349D02*
X100053000Y-104097349D01*
X102097000Y-104057349D02*
X99903000Y-104057349D01*
X102228000Y-104017349D02*
X99772000Y-104017349D01*
X102346000Y-103977349D02*
X99654000Y-103977349D01*
X102453000Y-103937349D02*
X99547000Y-103937349D01*
X102552000Y-103897349D02*
X99448000Y-103897349D01*
X102644000Y-103857349D02*
X99356000Y-103857349D01*
X102731000Y-103817349D02*
X99269000Y-103817349D01*
X102813000Y-103777349D02*
X99187000Y-103777349D01*
X102890000Y-103737349D02*
X99110000Y-103737349D01*
X102964000Y-103697349D02*
X99036000Y-103697349D01*
X103034000Y-103657349D02*
X98966000Y-103657349D01*
X103101000Y-103617349D02*
X98899000Y-103617349D01*
X103165000Y-103577349D02*
X98835000Y-103577349D01*
X103227000Y-103537349D02*
X98773000Y-103537349D01*
X103287000Y-103497349D02*
X98713000Y-103497349D01*
X103315000Y-95687651D02*
X103315000Y-96487651D01*
X103344000Y-103457349D02*
X98656000Y-103457349D01*
X103400000Y-103417349D02*
X98600000Y-103417349D01*
X103453000Y-103377349D02*
X98547000Y-103377349D01*
X103505000Y-103337349D02*
X98495000Y-103337349D01*
X103555000Y-103297349D02*
X98445000Y-103297349D01*
X103604000Y-103257349D02*
X98396000Y-103257349D01*
X103651000Y-103217349D02*
X98349000Y-103217349D01*
X103696000Y-103177349D02*
X98304000Y-103177349D01*
X103715000Y-96087651D02*
X102915000Y-96087651D01*
X103741000Y-103137349D02*
X98259000Y-103137349D01*
X103784000Y-103097349D02*
X98216000Y-103097349D01*
X103826000Y-103057349D02*
X98174000Y-103057349D01*
X103867000Y-103017349D02*
X98133000Y-103017349D01*
X103906000Y-102977349D02*
X98094000Y-102977349D01*
X103945000Y-102937349D02*
X98055000Y-102937349D01*
X103982000Y-102897349D02*
X98018000Y-102897349D01*
X104019000Y-102857349D02*
X102040000Y-102857349D01*
X104055000Y-102817349D02*
X102040000Y-102817349D01*
X104089000Y-102777349D02*
X102040000Y-102777349D01*
X104123000Y-102737349D02*
X102040000Y-102737349D01*
X104156000Y-102697349D02*
X102040000Y-102697349D01*
X104188000Y-102657349D02*
X102040000Y-102657349D01*
X104219000Y-102617349D02*
X102040000Y-102617349D01*
X104250000Y-102577349D02*
X102040000Y-102577349D01*
X104280000Y-102537349D02*
X102040000Y-102537349D01*
X104309000Y-102497349D02*
X102040000Y-102497349D01*
X104337000Y-102457349D02*
X102040000Y-102457349D01*
X104365000Y-102417349D02*
X102040000Y-102417349D01*
X104392000Y-102377349D02*
X102040000Y-102377349D01*
X104418000Y-102337349D02*
X102040000Y-102337349D01*
X104443000Y-102297349D02*
X102040000Y-102297349D01*
X104468000Y-102257349D02*
X102040000Y-102257349D01*
X104493000Y-102217349D02*
X102040000Y-102217349D01*
X104516000Y-102177349D02*
X102040000Y-102177349D01*
X104539000Y-102137349D02*
X102040000Y-102137349D01*
X104562000Y-102097349D02*
X102040000Y-102097349D01*
X104584000Y-102057349D02*
X102040000Y-102057349D01*
X104605000Y-102017349D02*
X102040000Y-102017349D01*
X104626000Y-101977349D02*
X102040000Y-101977349D01*
X104646000Y-101937349D02*
X102040000Y-101937349D01*
X104666000Y-101897349D02*
X102040000Y-101897349D01*
X104685000Y-101857349D02*
X102040000Y-101857349D01*
X104704000Y-101817349D02*
X102040000Y-101817349D01*
X104722000Y-101777349D02*
X102040000Y-101777349D01*
X104740000Y-101737349D02*
X102040000Y-101737349D01*
X104757000Y-101697349D02*
X102040000Y-101697349D01*
X104773000Y-101657349D02*
X102040000Y-101657349D01*
X104789000Y-101617349D02*
X102040000Y-101617349D01*
X104805000Y-101577349D02*
X102040000Y-101577349D01*
X104820000Y-101537349D02*
X102040000Y-101537349D01*
X104835000Y-101497349D02*
X102040000Y-101497349D01*
X104849000Y-101457349D02*
X102040000Y-101457349D01*
X104863000Y-101417349D02*
X102040000Y-101417349D01*
X104876000Y-101377349D02*
X102040000Y-101377349D01*
X104889000Y-101337349D02*
X102040000Y-101337349D01*
X104901000Y-101297349D02*
X102040000Y-101297349D01*
X104913000Y-101257349D02*
X102040000Y-101257349D01*
X104925000Y-101217349D02*
X102040000Y-101217349D01*
X104936000Y-101177349D02*
X102040000Y-101177349D01*
X104947000Y-101137349D02*
X102040000Y-101137349D01*
X104957000Y-101097349D02*
X102040000Y-101097349D01*
X104967000Y-101057349D02*
X102040000Y-101057349D01*
X104976000Y-101017349D02*
X102040000Y-101017349D01*
X104985000Y-100977349D02*
X102040000Y-100977349D01*
X104993000Y-100937349D02*
X102040000Y-100937349D01*
X105002000Y-100897349D02*
X102040000Y-100897349D01*
X105009000Y-100857349D02*
X102040000Y-100857349D01*
X105017000Y-100817349D02*
X102040000Y-100817349D01*
X105023000Y-100777349D02*
X96977000Y-100777349D01*
X105030000Y-100737349D02*
X96970000Y-100737349D01*
X105036000Y-100697349D02*
X96964000Y-100697349D01*
X105042000Y-100657349D02*
X96958000Y-100657349D01*
X105047000Y-100617349D02*
X96953000Y-100617349D01*
X105052000Y-100577349D02*
X96948000Y-100577349D01*
X105056000Y-100537349D02*
X96944000Y-100537349D01*
X105061000Y-100497349D02*
X96939000Y-100497349D01*
X105064000Y-100457349D02*
X96936000Y-100457349D01*
X105068000Y-100417349D02*
X96932000Y-100417349D01*
X105070000Y-100377349D02*
X96930000Y-100377349D01*
X105073000Y-100337349D02*
X96927000Y-100337349D01*
X105075000Y-100297349D02*
X96925000Y-100297349D01*
X105077000Y-100257349D02*
X96923000Y-100257349D01*
X105078000Y-100217349D02*
X96922000Y-100217349D01*
X105079000Y-100177349D02*
X96921000Y-100177349D01*
X105080000Y-100097349D02*
X96920000Y-100097349D01*
X105080000Y-100137349D02*
X96920000Y-100137349D01*
X105120000Y-100097349D02*
G75*
G02*
X96880000Y-100097349I-4120000J0D01*
G01*
X96880000Y-100097349D02*
G75*
G02*
X105120000Y-100097349I4120000J0D01*
G01*
%TD*%
M02*
