%TF.GenerationSoftware,KiCad,Pcbnew,9.0.9-9.0.9~ubuntu24.04.1*%
%TF.CreationDate,2026-09-15T09:26:41+03:00*%
%TF.ProjectId,clock,636c6f63-6b2e-46b6-9963-61645f706362,rev?*%
%TF.SameCoordinates,Original*%
%TF.FileFunction,Legend,Bot*%
%TF.FilePolarity,Positive*%
%FSLAX46Y46*%
G04 Gerber Fmt 4.6, Leading zero omitted, Abs format (unit mm)*
G04 Created by KiCad (PCBNEW 9.0.9-9.0.9~ubuntu24.04.1) date 2026-09-15 09:26:41*
%MOMM*%
%LPD*%
G01*
G04 APERTURE LIST*
%ADD10C,0.100000*%
G04 APERTURE END LIST*
D10*
X182315163Y-129839673D02*
X182410401Y-129934912D01*
X182410401Y-129934912D02*
X182696115Y-130030150D01*
X182696115Y-130030150D02*
X182886591Y-130030150D01*
X182886591Y-130030150D02*
X183172306Y-129934912D01*
X183172306Y-129934912D02*
X183362782Y-129744435D01*
X183362782Y-129744435D02*
X183458020Y-129553959D01*
X183458020Y-129553959D02*
X183553258Y-129173007D01*
X183553258Y-129173007D02*
X183553258Y-128887292D01*
X183553258Y-128887292D02*
X183458020Y-128506340D01*
X183458020Y-128506340D02*
X183362782Y-128315864D01*
X183362782Y-128315864D02*
X183172306Y-128125388D01*
X183172306Y-128125388D02*
X182886591Y-128030150D01*
X182886591Y-128030150D02*
X182696115Y-128030150D01*
X182696115Y-128030150D02*
X182410401Y-128125388D01*
X182410401Y-128125388D02*
X182315163Y-128220626D01*
X181172306Y-130030150D02*
X181362782Y-129934912D01*
X181362782Y-129934912D02*
X181458020Y-129744435D01*
X181458020Y-129744435D02*
X181458020Y-128030150D01*
X180124687Y-130030150D02*
X180315163Y-129934912D01*
X180315163Y-129934912D02*
X180410401Y-129839673D01*
X180410401Y-129839673D02*
X180505639Y-129649197D01*
X180505639Y-129649197D02*
X180505639Y-129077769D01*
X180505639Y-129077769D02*
X180410401Y-128887292D01*
X180410401Y-128887292D02*
X180315163Y-128792054D01*
X180315163Y-128792054D02*
X180124687Y-128696816D01*
X180124687Y-128696816D02*
X179838972Y-128696816D01*
X179838972Y-128696816D02*
X179648496Y-128792054D01*
X179648496Y-128792054D02*
X179553258Y-128887292D01*
X179553258Y-128887292D02*
X179458020Y-129077769D01*
X179458020Y-129077769D02*
X179458020Y-129649197D01*
X179458020Y-129649197D02*
X179553258Y-129839673D01*
X179553258Y-129839673D02*
X179648496Y-129934912D01*
X179648496Y-129934912D02*
X179838972Y-130030150D01*
X179838972Y-130030150D02*
X180124687Y-130030150D01*
X177743734Y-129934912D02*
X177934210Y-130030150D01*
X177934210Y-130030150D02*
X178315163Y-130030150D01*
X178315163Y-130030150D02*
X178505639Y-129934912D01*
X178505639Y-129934912D02*
X178600877Y-129839673D01*
X178600877Y-129839673D02*
X178696115Y-129649197D01*
X178696115Y-129649197D02*
X178696115Y-129077769D01*
X178696115Y-129077769D02*
X178600877Y-128887292D01*
X178600877Y-128887292D02*
X178505639Y-128792054D01*
X178505639Y-128792054D02*
X178315163Y-128696816D01*
X178315163Y-128696816D02*
X177934210Y-128696816D01*
X177934210Y-128696816D02*
X177743734Y-128792054D01*
X176886591Y-130030150D02*
X176886591Y-128030150D01*
X176696115Y-129268245D02*
X176124686Y-130030150D01*
X176124686Y-128696816D02*
X176886591Y-129458721D01*
X173743733Y-130030150D02*
X173743733Y-128030150D01*
X173743733Y-128792054D02*
X173553257Y-128696816D01*
X173553257Y-128696816D02*
X173172304Y-128696816D01*
X173172304Y-128696816D02*
X172981828Y-128792054D01*
X172981828Y-128792054D02*
X172886590Y-128887292D01*
X172886590Y-128887292D02*
X172791352Y-129077769D01*
X172791352Y-129077769D02*
X172791352Y-129649197D01*
X172791352Y-129649197D02*
X172886590Y-129839673D01*
X172886590Y-129839673D02*
X172981828Y-129934912D01*
X172981828Y-129934912D02*
X173172304Y-130030150D01*
X173172304Y-130030150D02*
X173553257Y-130030150D01*
X173553257Y-130030150D02*
X173743733Y-129934912D01*
X171648495Y-130030150D02*
X171838971Y-129934912D01*
X171838971Y-129934912D02*
X171934209Y-129839673D01*
X171934209Y-129839673D02*
X172029447Y-129649197D01*
X172029447Y-129649197D02*
X172029447Y-129077769D01*
X172029447Y-129077769D02*
X171934209Y-128887292D01*
X171934209Y-128887292D02*
X171838971Y-128792054D01*
X171838971Y-128792054D02*
X171648495Y-128696816D01*
X171648495Y-128696816D02*
X171362780Y-128696816D01*
X171362780Y-128696816D02*
X171172304Y-128792054D01*
X171172304Y-128792054D02*
X171077066Y-128887292D01*
X171077066Y-128887292D02*
X170981828Y-129077769D01*
X170981828Y-129077769D02*
X170981828Y-129649197D01*
X170981828Y-129649197D02*
X171077066Y-129839673D01*
X171077066Y-129839673D02*
X171172304Y-129934912D01*
X171172304Y-129934912D02*
X171362780Y-130030150D01*
X171362780Y-130030150D02*
X171648495Y-130030150D01*
X169267542Y-130030150D02*
X169267542Y-128982531D01*
X169267542Y-128982531D02*
X169362780Y-128792054D01*
X169362780Y-128792054D02*
X169553256Y-128696816D01*
X169553256Y-128696816D02*
X169934209Y-128696816D01*
X169934209Y-128696816D02*
X170124685Y-128792054D01*
X169267542Y-129934912D02*
X169458018Y-130030150D01*
X169458018Y-130030150D02*
X169934209Y-130030150D01*
X169934209Y-130030150D02*
X170124685Y-129934912D01*
X170124685Y-129934912D02*
X170219923Y-129744435D01*
X170219923Y-129744435D02*
X170219923Y-129553959D01*
X170219923Y-129553959D02*
X170124685Y-129363483D01*
X170124685Y-129363483D02*
X169934209Y-129268245D01*
X169934209Y-129268245D02*
X169458018Y-129268245D01*
X169458018Y-129268245D02*
X169267542Y-129173007D01*
X168315161Y-130030150D02*
X168315161Y-128696816D01*
X168315161Y-129077769D02*
X168219923Y-128887292D01*
X168219923Y-128887292D02*
X168124685Y-128792054D01*
X168124685Y-128792054D02*
X167934209Y-128696816D01*
X167934209Y-128696816D02*
X167743732Y-128696816D01*
X166219923Y-130030150D02*
X166219923Y-128030150D01*
X166219923Y-129934912D02*
X166410399Y-130030150D01*
X166410399Y-130030150D02*
X166791352Y-130030150D01*
X166791352Y-130030150D02*
X166981828Y-129934912D01*
X166981828Y-129934912D02*
X167077066Y-129839673D01*
X167077066Y-129839673D02*
X167172304Y-129649197D01*
X167172304Y-129649197D02*
X167172304Y-129077769D01*
X167172304Y-129077769D02*
X167077066Y-128887292D01*
X167077066Y-128887292D02*
X166981828Y-128792054D01*
X166981828Y-128792054D02*
X166791352Y-128696816D01*
X166791352Y-128696816D02*
X166410399Y-128696816D01*
X166410399Y-128696816D02*
X166219923Y-128792054D01*
X163743732Y-130030150D02*
X163743732Y-128696816D01*
X163743732Y-129077769D02*
X163648494Y-128887292D01*
X163648494Y-128887292D02*
X163553256Y-128792054D01*
X163553256Y-128792054D02*
X163362780Y-128696816D01*
X163362780Y-128696816D02*
X163172303Y-128696816D01*
X161743732Y-129934912D02*
X161934208Y-130030150D01*
X161934208Y-130030150D02*
X162315161Y-130030150D01*
X162315161Y-130030150D02*
X162505637Y-129934912D01*
X162505637Y-129934912D02*
X162600875Y-129744435D01*
X162600875Y-129744435D02*
X162600875Y-128982531D01*
X162600875Y-128982531D02*
X162505637Y-128792054D01*
X162505637Y-128792054D02*
X162315161Y-128696816D01*
X162315161Y-128696816D02*
X161934208Y-128696816D01*
X161934208Y-128696816D02*
X161743732Y-128792054D01*
X161743732Y-128792054D02*
X161648494Y-128982531D01*
X161648494Y-128982531D02*
X161648494Y-129173007D01*
X161648494Y-129173007D02*
X162600875Y-129363483D01*
X160981827Y-128696816D02*
X160505637Y-130030150D01*
X160505637Y-130030150D02*
X160029446Y-128696816D01*
X158981827Y-128887292D02*
X159172303Y-128792054D01*
X159172303Y-128792054D02*
X159267541Y-128696816D01*
X159267541Y-128696816D02*
X159362779Y-128506340D01*
X159362779Y-128506340D02*
X159362779Y-128411102D01*
X159362779Y-128411102D02*
X159267541Y-128220626D01*
X159267541Y-128220626D02*
X159172303Y-128125388D01*
X159172303Y-128125388D02*
X158981827Y-128030150D01*
X158981827Y-128030150D02*
X158600874Y-128030150D01*
X158600874Y-128030150D02*
X158410398Y-128125388D01*
X158410398Y-128125388D02*
X158315160Y-128220626D01*
X158315160Y-128220626D02*
X158219922Y-128411102D01*
X158219922Y-128411102D02*
X158219922Y-128506340D01*
X158219922Y-128506340D02*
X158315160Y-128696816D01*
X158315160Y-128696816D02*
X158410398Y-128792054D01*
X158410398Y-128792054D02*
X158600874Y-128887292D01*
X158600874Y-128887292D02*
X158981827Y-128887292D01*
X158981827Y-128887292D02*
X159172303Y-128982531D01*
X159172303Y-128982531D02*
X159267541Y-129077769D01*
X159267541Y-129077769D02*
X159362779Y-129268245D01*
X159362779Y-129268245D02*
X159362779Y-129649197D01*
X159362779Y-129649197D02*
X159267541Y-129839673D01*
X159267541Y-129839673D02*
X159172303Y-129934912D01*
X159172303Y-129934912D02*
X158981827Y-130030150D01*
X158981827Y-130030150D02*
X158600874Y-130030150D01*
X158600874Y-130030150D02*
X158410398Y-129934912D01*
X158410398Y-129934912D02*
X158315160Y-129839673D01*
X158315160Y-129839673D02*
X158219922Y-129649197D01*
X158219922Y-129649197D02*
X158219922Y-129268245D01*
X158219922Y-129268245D02*
X158315160Y-129077769D01*
X158315160Y-129077769D02*
X158410398Y-128982531D01*
X158410398Y-128982531D02*
X158600874Y-128887292D01*
X183458020Y-133250038D02*
X183458020Y-131250038D01*
X183458020Y-131250038D02*
X182696115Y-131250038D01*
X182696115Y-131250038D02*
X182505639Y-131345276D01*
X182505639Y-131345276D02*
X182410401Y-131440514D01*
X182410401Y-131440514D02*
X182315163Y-131630990D01*
X182315163Y-131630990D02*
X182315163Y-131916704D01*
X182315163Y-131916704D02*
X182410401Y-132107180D01*
X182410401Y-132107180D02*
X182505639Y-132202419D01*
X182505639Y-132202419D02*
X182696115Y-132297657D01*
X182696115Y-132297657D02*
X183458020Y-132297657D01*
X181458020Y-133059561D02*
X181362782Y-133154800D01*
X181362782Y-133154800D02*
X181458020Y-133250038D01*
X181458020Y-133250038D02*
X181553258Y-133154800D01*
X181553258Y-133154800D02*
X181458020Y-133059561D01*
X181458020Y-133059561D02*
X181458020Y-133250038D01*
X178981829Y-133250038D02*
X178981829Y-131250038D01*
X178981829Y-131250038D02*
X178505639Y-131250038D01*
X178505639Y-131250038D02*
X178219924Y-131345276D01*
X178219924Y-131345276D02*
X178029448Y-131535752D01*
X178029448Y-131535752D02*
X177934210Y-131726228D01*
X177934210Y-131726228D02*
X177838972Y-132107180D01*
X177838972Y-132107180D02*
X177838972Y-132392895D01*
X177838972Y-132392895D02*
X177934210Y-132773847D01*
X177934210Y-132773847D02*
X178029448Y-132964323D01*
X178029448Y-132964323D02*
X178219924Y-133154800D01*
X178219924Y-133154800D02*
X178505639Y-133250038D01*
X178505639Y-133250038D02*
X178981829Y-133250038D01*
X176696115Y-133250038D02*
X176886591Y-133154800D01*
X176886591Y-133154800D02*
X176981829Y-133059561D01*
X176981829Y-133059561D02*
X177077067Y-132869085D01*
X177077067Y-132869085D02*
X177077067Y-132297657D01*
X177077067Y-132297657D02*
X176981829Y-132107180D01*
X176981829Y-132107180D02*
X176886591Y-132011942D01*
X176886591Y-132011942D02*
X176696115Y-131916704D01*
X176696115Y-131916704D02*
X176410400Y-131916704D01*
X176410400Y-131916704D02*
X176219924Y-132011942D01*
X176219924Y-132011942D02*
X176124686Y-132107180D01*
X176124686Y-132107180D02*
X176029448Y-132297657D01*
X176029448Y-132297657D02*
X176029448Y-132869085D01*
X176029448Y-132869085D02*
X176124686Y-133059561D01*
X176124686Y-133059561D02*
X176219924Y-133154800D01*
X176219924Y-133154800D02*
X176410400Y-133250038D01*
X176410400Y-133250038D02*
X176696115Y-133250038D01*
X175362781Y-131916704D02*
X174886591Y-133250038D01*
X174886591Y-133250038D02*
X174410400Y-131916704D01*
X172791352Y-131916704D02*
X172791352Y-133535752D01*
X172791352Y-133535752D02*
X172886590Y-133726228D01*
X172886590Y-133726228D02*
X172981828Y-133821466D01*
X172981828Y-133821466D02*
X173172305Y-133916704D01*
X173172305Y-133916704D02*
X173458019Y-133916704D01*
X173458019Y-133916704D02*
X173648495Y-133821466D01*
X172791352Y-133154800D02*
X172981828Y-133250038D01*
X172981828Y-133250038D02*
X173362781Y-133250038D01*
X173362781Y-133250038D02*
X173553257Y-133154800D01*
X173553257Y-133154800D02*
X173648495Y-133059561D01*
X173648495Y-133059561D02*
X173743733Y-132869085D01*
X173743733Y-132869085D02*
X173743733Y-132297657D01*
X173743733Y-132297657D02*
X173648495Y-132107180D01*
X173648495Y-132107180D02*
X173553257Y-132011942D01*
X173553257Y-132011942D02*
X173362781Y-131916704D01*
X173362781Y-131916704D02*
X172981828Y-131916704D01*
X172981828Y-131916704D02*
X172791352Y-132011942D01*
X170981828Y-133250038D02*
X170981828Y-132202419D01*
X170981828Y-132202419D02*
X171077066Y-132011942D01*
X171077066Y-132011942D02*
X171267542Y-131916704D01*
X171267542Y-131916704D02*
X171648495Y-131916704D01*
X171648495Y-131916704D02*
X171838971Y-132011942D01*
X170981828Y-133154800D02*
X171172304Y-133250038D01*
X171172304Y-133250038D02*
X171648495Y-133250038D01*
X171648495Y-133250038D02*
X171838971Y-133154800D01*
X171838971Y-133154800D02*
X171934209Y-132964323D01*
X171934209Y-132964323D02*
X171934209Y-132773847D01*
X171934209Y-132773847D02*
X171838971Y-132583371D01*
X171838971Y-132583371D02*
X171648495Y-132488133D01*
X171648495Y-132488133D02*
X171172304Y-132488133D01*
X171172304Y-132488133D02*
X170981828Y-132392895D01*
X169743733Y-133250038D02*
X169934209Y-133154800D01*
X169934209Y-133154800D02*
X170029447Y-132964323D01*
X170029447Y-132964323D02*
X170029447Y-131250038D01*
X169172304Y-131916704D02*
X168696114Y-133250038D01*
X168219923Y-131916704D02*
X168696114Y-133250038D01*
X168696114Y-133250038D02*
X168886590Y-133726228D01*
X168886590Y-133726228D02*
X168981828Y-133821466D01*
X168981828Y-133821466D02*
X169172304Y-133916704D01*
X166600875Y-131916704D02*
X166600875Y-133250038D01*
X167458018Y-131916704D02*
X167458018Y-132964323D01*
X167458018Y-132964323D02*
X167362780Y-133154800D01*
X167362780Y-133154800D02*
X167172304Y-133250038D01*
X167172304Y-133250038D02*
X166886589Y-133250038D01*
X166886589Y-133250038D02*
X166696113Y-133154800D01*
X166696113Y-133154800D02*
X166600875Y-133059561D01*
X165648494Y-133250038D02*
X165648494Y-131250038D01*
X165458018Y-132488133D02*
X164886589Y-133250038D01*
X164886589Y-131916704D02*
X165648494Y-132678609D01*
X163934208Y-133154800D02*
X163934208Y-133250038D01*
X163934208Y-133250038D02*
X164029446Y-133440514D01*
X164029446Y-133440514D02*
X164124684Y-133535752D01*
X161648493Y-131440514D02*
X161553255Y-131345276D01*
X161553255Y-131345276D02*
X161362779Y-131250038D01*
X161362779Y-131250038D02*
X160886588Y-131250038D01*
X160886588Y-131250038D02*
X160696112Y-131345276D01*
X160696112Y-131345276D02*
X160600874Y-131440514D01*
X160600874Y-131440514D02*
X160505636Y-131630990D01*
X160505636Y-131630990D02*
X160505636Y-131821466D01*
X160505636Y-131821466D02*
X160600874Y-132107180D01*
X160600874Y-132107180D02*
X161743731Y-133250038D01*
X161743731Y-133250038D02*
X160505636Y-133250038D01*
X159267541Y-131250038D02*
X159077064Y-131250038D01*
X159077064Y-131250038D02*
X158886588Y-131345276D01*
X158886588Y-131345276D02*
X158791350Y-131440514D01*
X158791350Y-131440514D02*
X158696112Y-131630990D01*
X158696112Y-131630990D02*
X158600874Y-132011942D01*
X158600874Y-132011942D02*
X158600874Y-132488133D01*
X158600874Y-132488133D02*
X158696112Y-132869085D01*
X158696112Y-132869085D02*
X158791350Y-133059561D01*
X158791350Y-133059561D02*
X158886588Y-133154800D01*
X158886588Y-133154800D02*
X159077064Y-133250038D01*
X159077064Y-133250038D02*
X159267541Y-133250038D01*
X159267541Y-133250038D02*
X159458017Y-133154800D01*
X159458017Y-133154800D02*
X159553255Y-133059561D01*
X159553255Y-133059561D02*
X159648493Y-132869085D01*
X159648493Y-132869085D02*
X159743731Y-132488133D01*
X159743731Y-132488133D02*
X159743731Y-132011942D01*
X159743731Y-132011942D02*
X159648493Y-131630990D01*
X159648493Y-131630990D02*
X159553255Y-131440514D01*
X159553255Y-131440514D02*
X159458017Y-131345276D01*
X159458017Y-131345276D02*
X159267541Y-131250038D01*
X157838969Y-131440514D02*
X157743731Y-131345276D01*
X157743731Y-131345276D02*
X157553255Y-131250038D01*
X157553255Y-131250038D02*
X157077064Y-131250038D01*
X157077064Y-131250038D02*
X156886588Y-131345276D01*
X156886588Y-131345276D02*
X156791350Y-131440514D01*
X156791350Y-131440514D02*
X156696112Y-131630990D01*
X156696112Y-131630990D02*
X156696112Y-131821466D01*
X156696112Y-131821466D02*
X156791350Y-132107180D01*
X156791350Y-132107180D02*
X157934207Y-133250038D01*
X157934207Y-133250038D02*
X156696112Y-133250038D01*
X154981826Y-131250038D02*
X155362779Y-131250038D01*
X155362779Y-131250038D02*
X155553255Y-131345276D01*
X155553255Y-131345276D02*
X155648493Y-131440514D01*
X155648493Y-131440514D02*
X155838969Y-131726228D01*
X155838969Y-131726228D02*
X155934207Y-132107180D01*
X155934207Y-132107180D02*
X155934207Y-132869085D01*
X155934207Y-132869085D02*
X155838969Y-133059561D01*
X155838969Y-133059561D02*
X155743731Y-133154800D01*
X155743731Y-133154800D02*
X155553255Y-133250038D01*
X155553255Y-133250038D02*
X155172302Y-133250038D01*
X155172302Y-133250038D02*
X154981826Y-133154800D01*
X154981826Y-133154800D02*
X154886588Y-133059561D01*
X154886588Y-133059561D02*
X154791350Y-132869085D01*
X154791350Y-132869085D02*
X154791350Y-132392895D01*
X154791350Y-132392895D02*
X154886588Y-132202419D01*
X154886588Y-132202419D02*
X154981826Y-132107180D01*
X154981826Y-132107180D02*
X155172302Y-132011942D01*
X155172302Y-132011942D02*
X155553255Y-132011942D01*
X155553255Y-132011942D02*
X155743731Y-132107180D01*
X155743731Y-132107180D02*
X155838969Y-132202419D01*
X155838969Y-132202419D02*
X155934207Y-132392895D01*
M02*
