%TF.GenerationSoftware,KiCad,Pcbnew,9.0.9-9.0.9~ubuntu24.04.1*%
%TF.CreationDate,2026-09-22T11:37:43+03:00*%
%TF.ProjectId,clock,636c6f63-6b2e-46b6-9963-61645f706362,rev?*%
%TF.SameCoordinates,Original*%
%TF.FileFunction,Soldermask,Bot*%
%TF.FilePolarity,Negative*%
%FSLAX46Y46*%
G04 Gerber Fmt 4.6, Leading zero omitted, Abs format (unit mm)*
G04 Created by KiCad (PCBNEW 9.0.9-9.0.9~ubuntu24.04.1) date 2026-09-22 11:37:43*
%MOMM*%
%LPD*%
G01*
G04 APERTURE LIST*
G04 Aperture macros list*
%AMRoundRect*
0 Rectangle with rounded corners*
0 $1 Rounding radius*
0 $2 $3 $4 $5 $6 $7 $8 $9 X,Y pos of 4 corners*
0 Add a 4 corners polygon primitive as box body*
4,1,4,$2,$3,$4,$5,$6,$7,$8,$9,$2,$3,0*
0 Add four circle primitives for the rounded corners*
1,1,$1+$1,$2,$3*
1,1,$1+$1,$4,$5*
1,1,$1+$1,$6,$7*
1,1,$1+$1,$8,$9*
0 Add four rect primitives between the rounded corners*
20,1,$1+$1,$2,$3,$4,$5,0*
20,1,$1+$1,$4,$5,$6,$7,0*
20,1,$1+$1,$6,$7,$8,$9,0*
20,1,$1+$1,$8,$9,$2,$3,0*%
G04 Aperture macros list end*
%ADD10C,2.100000*%
%ADD11RoundRect,0.250000X0.550000X0.550000X-0.550000X0.550000X-0.550000X-0.550000X0.550000X-0.550000X0*%
%ADD12C,1.600000*%
%ADD13R,1.700000X1.700000*%
%ADD14C,1.700000*%
%ADD15RoundRect,0.250000X-0.550000X0.550000X-0.550000X-0.550000X0.550000X-0.550000X0.550000X0.550000X0*%
%ADD16RoundRect,0.250000X-0.600000X-0.600000X0.600000X-0.600000X0.600000X0.600000X-0.600000X0.600000X0*%
%ADD17RoundRect,0.250000X0.600000X-0.600000X0.600000X0.600000X-0.600000X0.600000X-0.600000X-0.600000X0*%
%ADD18O,2.000000X3.000000*%
G04 APERTURE END LIST*
D10*
%TO.C,K2*%
X115866667Y-69830000D03*
X120266667Y-69830000D03*
X124666667Y-69830000D03*
X129066667Y-69830000D03*
X115866667Y-73930000D03*
X120266667Y-73930000D03*
X124666667Y-73930000D03*
X129066667Y-73930000D03*
X115866667Y-80280000D03*
X120266667Y-80280000D03*
X124666667Y-80280000D03*
X129066667Y-80280000D03*
X129066667Y-86630000D03*
X115866667Y-86630000D03*
%TD*%
D11*
%TO.C,D6*%
X120800000Y-118800000D03*
D12*
X113180000Y-118800000D03*
%TD*%
D13*
%TO.C,J7*%
X125970000Y-125600000D03*
D14*
X128510000Y-125600000D03*
X131050000Y-125600000D03*
X133590000Y-125600000D03*
X136130000Y-125600000D03*
X138670000Y-125600000D03*
X141210000Y-125600000D03*
X143750000Y-125600000D03*
%TD*%
D13*
%TO.C,J6*%
X94400000Y-107875000D03*
D14*
X94400000Y-110415000D03*
X94400000Y-112955000D03*
X94400000Y-115495000D03*
X94400000Y-118035000D03*
X94400000Y-120575000D03*
X94400000Y-123115000D03*
X94400000Y-125655000D03*
%TD*%
D11*
%TO.C,D5*%
X120730000Y-114240000D03*
D12*
X113110000Y-114240000D03*
%TD*%
D15*
%TO.C,C2*%
X126000000Y-98347349D03*
D12*
X126000000Y-101847349D03*
%TD*%
D10*
%TO.C,K3*%
X140933333Y-69830000D03*
X145333333Y-69830000D03*
X149733333Y-69830000D03*
X154133333Y-69830000D03*
X140933333Y-73930000D03*
X145333333Y-73930000D03*
X149733333Y-73930000D03*
X154133333Y-73930000D03*
X140933333Y-80280000D03*
X145333333Y-80280000D03*
X149733333Y-80280000D03*
X154133333Y-80280000D03*
X154133333Y-86630000D03*
X140933333Y-86630000D03*
%TD*%
D16*
%TO.C,J5*%
X101750000Y-112940000D03*
D14*
X104290000Y-112940000D03*
X101750000Y-115480000D03*
X104290000Y-115480000D03*
X101750000Y-118020000D03*
X104290000Y-118020000D03*
X101750000Y-120560000D03*
X104290000Y-120560000D03*
%TD*%
D16*
%TO.C,J3*%
X172750000Y-112940000D03*
D14*
X175290000Y-112940000D03*
X172750000Y-115480000D03*
X175290000Y-115480000D03*
X172750000Y-118020000D03*
X175290000Y-118020000D03*
X172750000Y-120560000D03*
X175290000Y-120560000D03*
%TD*%
D15*
%TO.C,D4*%
X167250000Y-97000000D03*
D12*
X167250000Y-104620000D03*
%TD*%
D10*
%TO.C,K4*%
X166000000Y-69830000D03*
X170400000Y-69830000D03*
X174800000Y-69830000D03*
X179200000Y-69830000D03*
X166000000Y-73930000D03*
X170400000Y-73930000D03*
X174800000Y-73930000D03*
X179200000Y-73930000D03*
X166000000Y-80280000D03*
X170400000Y-80280000D03*
X174800000Y-80280000D03*
X179200000Y-80280000D03*
X179200000Y-86630000D03*
X166000000Y-86630000D03*
%TD*%
D15*
%TO.C,D1*%
X92500000Y-96190000D03*
D12*
X92500000Y-103810000D03*
%TD*%
D15*
%TO.C,D3*%
X142250000Y-96690000D03*
D12*
X142250000Y-104310000D03*
%TD*%
D15*
%TO.C,C3*%
X151000000Y-98500000D03*
D12*
X151000000Y-102000000D03*
%TD*%
D13*
%TO.C,J4*%
X182615000Y-107860000D03*
D14*
X182615000Y-110400000D03*
X182615000Y-112940000D03*
X182615000Y-115480000D03*
X182615000Y-118020000D03*
X182615000Y-120560000D03*
X182615000Y-123100000D03*
X182615000Y-125640000D03*
%TD*%
D17*
%TO.C,J1*%
X131035000Y-118750000D03*
D14*
X131035000Y-116210000D03*
X133575000Y-118750000D03*
X133575000Y-116210000D03*
X136115000Y-118750000D03*
X136115000Y-116210000D03*
X138655000Y-118750000D03*
X138655000Y-116210000D03*
%TD*%
D10*
%TO.C,K1*%
X90800000Y-69700000D03*
X95200000Y-69700000D03*
X99600000Y-69700000D03*
X104000000Y-69700000D03*
X90800000Y-73800000D03*
X95200000Y-73800000D03*
X99600000Y-73800000D03*
X104000000Y-73800000D03*
X90800000Y-80150000D03*
X95200000Y-80150000D03*
X99600000Y-80150000D03*
X104000000Y-80150000D03*
X104000000Y-86500000D03*
X90800000Y-86500000D03*
%TD*%
D15*
%TO.C,C4*%
X176250000Y-98500000D03*
D12*
X176250000Y-102000000D03*
%TD*%
D15*
%TO.C,D2*%
X117250000Y-96440000D03*
D12*
X117250000Y-104060000D03*
%TD*%
D18*
%TO.C,SW1*%
X177620000Y-57910000D03*
X172920000Y-57910000D03*
X168220000Y-57910000D03*
%TD*%
D15*
%TO.C,C1*%
X101000000Y-98347349D03*
D12*
X101000000Y-101847349D03*
%TD*%
M02*
