M48
; DRILL file {KiCad 9.0.9-9.0.9~ubuntu24.04.1} date 2026-09-15T09:26:41+0300
; FORMAT={-:-/ absolute / metric / decimal}
; #@! TF.CreationDate,2026-09-15T09:26:41+03:00
; #@! TF.GenerationSoftware,Kicad,Pcbnew,9.0.9-9.0.9~ubuntu24.04.1
; #@! TF.FileFunction,Plated,1,2,PTH
FMAT,2
METRIC
; #@! TA.AperFunction,Plated,PTH,ComponentDrill
T1C0.800
; #@! TA.AperFunction,Plated,PTH,ComponentDrill
T2C1.000
; #@! TA.AperFunction,Plated,PTH,ComponentDrill
T3C1.300
; #@! TA.AperFunction,Plated,PTH,ComponentDrill
T4C1.400
%
G90
G05
T1
X92.5Y-96.19
X92.5Y-103.81
X101.0Y-98.347
X101.0Y-101.847
X117.25Y-96.44
X117.25Y-104.06
X126.0Y-98.347
X126.0Y-101.847
X142.25Y-96.69
X142.25Y-104.31
X151.0Y-98.5
X151.0Y-102.0
X167.25Y-97.0
X167.25Y-104.62
X176.25Y-98.5
X176.25Y-102.0
T2
X94.4Y-107.875
X94.4Y-110.415
X94.4Y-112.955
X94.4Y-115.495
X94.4Y-118.035
X94.4Y-120.575
X94.4Y-123.115
X94.4Y-125.655
X101.75Y-112.94
X101.75Y-115.48
X101.75Y-118.02
X101.75Y-120.56
X104.29Y-112.94
X104.29Y-115.48
X104.29Y-118.02
X104.29Y-120.56
X125.97Y-125.6
X128.51Y-125.6
X131.035Y-116.21
X131.035Y-118.75
X131.05Y-125.6
X133.575Y-116.21
X133.575Y-118.75
X133.59Y-125.6
X136.115Y-116.21
X136.115Y-118.75
X136.13Y-125.6
X138.655Y-116.21
X138.655Y-118.75
X138.67Y-125.6
X141.21Y-125.6
X143.75Y-125.6
X172.75Y-112.94
X172.75Y-115.48
X172.75Y-118.02
X172.75Y-120.56
X175.29Y-112.94
X175.29Y-115.48
X175.29Y-118.02
X175.29Y-120.56
X182.615Y-107.86
X182.615Y-110.4
X182.615Y-112.94
X182.615Y-115.48
X182.615Y-118.02
X182.615Y-120.56
X182.615Y-123.1
X182.615Y-125.64
T4
X90.8Y-69.7
X90.8Y-73.8
X90.8Y-80.15
X90.8Y-86.5
X95.2Y-69.7
X95.2Y-73.8
X95.2Y-80.15
X99.6Y-69.7
X99.6Y-73.8
X99.6Y-80.15
X104.0Y-69.7
X104.0Y-73.8
X104.0Y-80.15
X104.0Y-86.5
X115.867Y-69.83
X115.867Y-73.93
X115.867Y-80.28
X115.867Y-86.63
X120.267Y-69.83
X120.267Y-73.93
X120.267Y-80.28
X124.667Y-69.83
X124.667Y-73.93
X124.667Y-80.28
X129.067Y-69.83
X129.067Y-73.93
X129.067Y-80.28
X129.067Y-86.63
X140.933Y-69.83
X140.933Y-73.93
X140.933Y-80.28
X140.933Y-86.63
X145.333Y-69.83
X145.333Y-73.93
X145.333Y-80.28
X149.733Y-69.83
X149.733Y-73.93
X149.733Y-80.28
X154.133Y-69.83
X154.133Y-73.93
X154.133Y-80.28
X154.133Y-86.63
X166.0Y-69.83
X166.0Y-73.93
X166.0Y-80.28
X166.0Y-86.63
X170.4Y-69.83
X170.4Y-73.93
X170.4Y-80.28
X174.8Y-69.83
X174.8Y-73.93
X174.8Y-80.28
X179.2Y-69.83
X179.2Y-73.93
X179.2Y-80.28
X179.2Y-86.63
T3
X168.22Y-58.41G85X168.22Y-57.41
G05
X172.92Y-58.41G85X172.92Y-57.41
G05
X177.62Y-58.41G85X177.62Y-57.41
G05
M30
