M48
; DRILL file {KiCad 9.0.3-9.0.3-0~ubuntu24.04.1} date 2026-03-12T12:19:26+0300
; FORMAT={-:-/ absolute / metric / decimal}
; #@! TF.CreationDate,2026-03-12T12:19:26+03:00
; #@! TF.GenerationSoftware,Kicad,Pcbnew,9.0.3-9.0.3-0~ubuntu24.04.1
; #@! TF.FileFunction,Plated,1,2,PTH
FMAT,2
METRIC
; #@! TA.AperFunction,Plated,PTH,ComponentDrill
T1C0.800
; #@! TA.AperFunction,Plated,PTH,ComponentDrill
T2C1.000
; #@! TA.AperFunction,Plated,PTH,ComponentDrill
T3C1.400
%
G90
G05
T1
X105.59Y-98.5
X105.59Y-136.04
X113.21Y-98.5
X113.21Y-136.04
X130.09Y-98.5
X130.09Y-136.04
X137.71Y-98.5
X137.71Y-136.04
X154.59Y-98.5
X154.59Y-136.04
X162.21Y-98.5
X162.21Y-136.04
X179.09Y-98.5
X179.09Y-136.04
X186.71Y-98.5
X186.71Y-136.04
T2
X90.46Y-113.0
X90.46Y-115.54
X90.46Y-118.08
X90.46Y-120.62
X90.46Y-135.5
X90.46Y-138.04
X90.46Y-140.58
X90.46Y-143.12
X90.96Y-66.88
X90.96Y-69.42
X90.96Y-71.96
X90.96Y-74.5
X93.0Y-113.0
X93.0Y-115.54
X93.0Y-118.08
X93.0Y-120.62
X93.0Y-135.5
X93.0Y-138.04
X93.0Y-140.58
X93.0Y-143.12
X93.5Y-66.88
X93.5Y-69.42
X93.5Y-71.96
X93.5Y-74.5
X95.9Y-83.125
X95.9Y-85.665
X95.9Y-88.205
X95.9Y-90.745
X95.9Y-93.285
X95.9Y-95.825
X95.9Y-98.365
X95.9Y-100.905
X125.025Y-49.5
X125.025Y-140.5
X127.565Y-49.5
X127.565Y-140.5
X130.055Y-55.675
X130.055Y-58.215
X130.105Y-49.5
X130.105Y-140.5
X132.595Y-55.675
X132.595Y-58.215
X132.645Y-49.5
X132.645Y-140.5
X135.135Y-55.675
X135.135Y-58.215
X135.185Y-49.5
X135.185Y-140.5
X137.675Y-55.675
X137.675Y-58.215
X137.725Y-49.5
X137.725Y-140.5
X140.265Y-49.5
X140.265Y-140.5
X142.805Y-49.5
X142.805Y-140.5
X149.525Y-49.5
X149.525Y-140.5
X152.065Y-49.5
X152.065Y-140.5
X154.555Y-55.675
X154.555Y-58.215
X154.605Y-49.5
X154.605Y-140.5
X157.095Y-55.675
X157.095Y-58.215
X157.145Y-49.5
X157.145Y-140.5
X159.635Y-55.675
X159.635Y-58.215
X159.685Y-49.5
X159.685Y-140.5
X162.175Y-55.675
X162.175Y-58.215
X162.225Y-49.5
X162.225Y-140.5
X164.765Y-49.5
X164.765Y-140.5
X167.305Y-49.5
X167.305Y-140.5
X174.025Y-49.5
X174.025Y-140.5
X176.565Y-49.5
X176.565Y-140.5
X179.055Y-55.675
X179.055Y-58.215
X179.105Y-49.5
X179.105Y-140.5
X181.595Y-55.675
X181.595Y-58.215
X181.645Y-49.5
X181.645Y-140.5
X184.135Y-55.675
X184.135Y-58.215
X184.185Y-49.5
X184.185Y-140.5
X186.675Y-55.675
X186.675Y-58.215
X186.725Y-49.5
X186.725Y-140.5
X189.265Y-49.5
X189.265Y-140.5
X191.805Y-49.5
X191.805Y-140.5
X196.5Y-83.125
X196.5Y-85.665
X196.5Y-88.205
X196.5Y-90.745
X196.5Y-93.285
X196.5Y-95.825
X196.5Y-98.365
X196.5Y-100.905
T3
X102.8Y-71.7
X102.8Y-75.8
X102.8Y-82.15
X102.8Y-88.5
X102.8Y-109.55
X102.8Y-113.65
X102.8Y-120.0
X102.8Y-126.35
X107.2Y-71.7
X107.2Y-75.8
X107.2Y-82.15
X107.2Y-109.55
X107.2Y-113.65
X107.2Y-120.0
X111.6Y-71.7
X111.6Y-75.8
X111.6Y-82.15
X111.6Y-109.55
X111.6Y-113.65
X111.6Y-120.0
X116.0Y-71.7
X116.0Y-75.8
X116.0Y-82.15
X116.0Y-88.5
X116.0Y-109.55
X116.0Y-113.65
X116.0Y-120.0
X116.0Y-126.35
X127.3Y-71.7
X127.3Y-75.8
X127.3Y-82.15
X127.3Y-88.5
X127.3Y-109.55
X127.3Y-113.65
X127.3Y-120.0
X127.3Y-126.35
X131.7Y-71.7
X131.7Y-75.8
X131.7Y-82.15
X131.7Y-109.55
X131.7Y-113.65
X131.7Y-120.0
X136.1Y-71.7
X136.1Y-75.8
X136.1Y-82.15
X136.1Y-109.55
X136.1Y-113.65
X136.1Y-120.0
X140.5Y-71.7
X140.5Y-75.8
X140.5Y-82.15
X140.5Y-88.5
X140.5Y-109.55
X140.5Y-113.65
X140.5Y-120.0
X140.5Y-126.35
X151.8Y-71.7
X151.8Y-75.8
X151.8Y-82.15
X151.8Y-88.5
X151.8Y-109.5
X151.8Y-113.6
X151.8Y-119.95
X151.8Y-126.3
X156.2Y-71.7
X156.2Y-75.8
X156.2Y-82.15
X156.2Y-109.5
X156.2Y-113.6
X156.2Y-119.95
X160.6Y-71.7
X160.6Y-75.8
X160.6Y-82.15
X160.6Y-109.5
X160.6Y-113.6
X160.6Y-119.95
X165.0Y-71.7
X165.0Y-75.8
X165.0Y-82.15
X165.0Y-88.5
X165.0Y-109.5
X165.0Y-113.6
X165.0Y-119.95
X165.0Y-126.3
X176.3Y-71.7
X176.3Y-75.8
X176.3Y-82.15
X176.3Y-88.5
X176.3Y-109.5
X176.3Y-113.6
X176.3Y-119.95
X176.3Y-126.3
X180.7Y-71.7
X180.7Y-75.8
X180.7Y-82.15
X180.7Y-109.5
X180.7Y-113.6
X180.7Y-119.95
X185.1Y-71.7
X185.1Y-75.8
X185.1Y-82.15
X185.1Y-109.5
X185.1Y-113.6
X185.1Y-119.95
X189.5Y-71.7
X189.5Y-75.8
X189.5Y-82.15
X189.5Y-88.5
X189.5Y-109.5
X189.5Y-113.6
X189.5Y-119.95
X189.5Y-126.3
M30
