%TF.GenerationSoftware,KiCad,Pcbnew,9.0.3-9.0.3-0~ubuntu24.04.1*%
%TF.CreationDate,2026-03-12T12:19:26+03:00*%
%TF.ProjectId,register,72656769-7374-4657-922e-6b696361645f,rev?*%
%TF.SameCoordinates,Original*%
%TF.FileFunction,Copper,L1,Top*%
%TF.FilePolarity,Positive*%
%FSLAX46Y46*%
G04 Gerber Fmt 4.6, Leading zero omitted, Abs format (unit mm)*
G04 Created by KiCad (PCBNEW 9.0.3-9.0.3-0~ubuntu24.04.1) date 2026-03-12 12:19:26*
%MOMM*%
%LPD*%
G01*
G04 APERTURE LIST*
G04 Aperture macros list*
%AMRoundRect*
0 Rectangle with rounded corners*
0 $1 Rounding radius*
0 $2 $3 $4 $5 $6 $7 $8 $9 X,Y pos of 4 corners*
0 Add a 4 corners polygon primitive as box body*
4,1,4,$2,$3,$4,$5,$6,$7,$8,$9,$2,$3,0*
0 Add four circle primitives for the rounded corners*
1,1,$1+$1,$2,$3*
1,1,$1+$1,$4,$5*
1,1,$1+$1,$6,$7*
1,1,$1+$1,$8,$9*
0 Add four rect primitives between the rounded corners*
20,1,$1+$1,$2,$3,$4,$5,0*
20,1,$1+$1,$4,$5,$6,$7,0*
20,1,$1+$1,$6,$7,$8,$9,0*
20,1,$1+$1,$8,$9,$2,$3,0*%
G04 Aperture macros list end*
%TA.AperFunction,ComponentPad*%
%ADD10RoundRect,0.250000X-0.550000X-0.550000X0.550000X-0.550000X0.550000X0.550000X-0.550000X0.550000X0*%
%TD*%
%TA.AperFunction,ComponentPad*%
%ADD11C,1.600000*%
%TD*%
%TA.AperFunction,ComponentPad*%
%ADD12R,1.700000X1.700000*%
%TD*%
%TA.AperFunction,ComponentPad*%
%ADD13C,1.700000*%
%TD*%
%TA.AperFunction,ComponentPad*%
%ADD14C,2.100000*%
%TD*%
%TA.AperFunction,ComponentPad*%
%ADD15RoundRect,0.250000X-0.600000X-0.600000X0.600000X-0.600000X0.600000X0.600000X-0.600000X0.600000X0*%
%TD*%
%TA.AperFunction,ComponentPad*%
%ADD16RoundRect,0.250000X0.600000X-0.600000X0.600000X0.600000X-0.600000X0.600000X-0.600000X-0.600000X0*%
%TD*%
%TA.AperFunction,Conductor*%
%ADD17C,0.500000*%
%TD*%
%TA.AperFunction,Conductor*%
%ADD18C,0.250000*%
%TD*%
G04 APERTURE END LIST*
D10*
%TO.P,D5,1,K*%
%TO.N,/D3*%
X105590000Y-136040000D03*
D11*
%TO.P,D5,2,A*%
%TO.N,GND*%
X113210000Y-136040000D03*
%TD*%
D10*
%TO.P,D1,1,K*%
%TO.N,Net-(D1-K)*%
X105590000Y-98500000D03*
D11*
%TO.P,D1,2,A*%
%TO.N,GND*%
X113210000Y-98500000D03*
%TD*%
D12*
%TO.P,BUS1-3,1,+V*%
%TO.N,Net-(BITS0-3-+V)*%
X125025000Y-49500000D03*
D13*
%TO.P,BUS1-3,2,D0*%
%TO.N,Net-(BUS1-1-D0)*%
X127565000Y-49500000D03*
%TO.P,BUS1-3,3,D1*%
%TO.N,Net-(BUS1-1-D1)*%
X130105000Y-49500000D03*
%TO.P,BUS1-3,4,D2*%
%TO.N,Net-(BUS1-1-D2)*%
X132645000Y-49500000D03*
%TO.P,BUS1-3,5,D3*%
%TO.N,Net-(BUS1-1-D3)*%
X135185000Y-49500000D03*
%TO.P,BUS1-3,6,NC*%
%TO.N,unconnected-(BUS1-3-NC-Pad6)*%
X137725000Y-49500000D03*
%TO.P,BUS1-3,7,NC*%
%TO.N,unconnected-(BUS1-3-NC-Pad7)*%
X140265000Y-49500000D03*
%TO.P,BUS1-3,8,GND*%
%TO.N,GND*%
X142805000Y-49500000D03*
%TD*%
D10*
%TO.P,D3,1,K*%
%TO.N,/D1*%
X154590000Y-136040000D03*
D11*
%TO.P,D3,2,A*%
%TO.N,GND*%
X162210000Y-136040000D03*
%TD*%
D10*
%TO.P,D2,1,K*%
%TO.N,/D0*%
X179090000Y-136040000D03*
D11*
%TO.P,D2,2,A*%
%TO.N,GND*%
X186710000Y-136040000D03*
%TD*%
D14*
%TO.P,K0,1*%
%TO.N,unconnected-(K0-Pad1)*%
X189500000Y-109500000D03*
%TO.P,K0,2*%
%TO.N,unconnected-(K0-Pad2)*%
X185100000Y-109500000D03*
%TO.P,K0,3*%
%TO.N,unconnected-(K0-Pad3)*%
X180700000Y-109500000D03*
%TO.P,K0,4*%
%TO.N,unconnected-(K0-Pad4)*%
X176300000Y-109500000D03*
%TO.P,K0,5*%
%TO.N,Net-(K-RESET1-Pad1)*%
X189500000Y-113600000D03*
%TO.P,K0,6*%
X185100000Y-113600000D03*
%TO.P,K0,7*%
X180700000Y-113600000D03*
%TO.P,K0,8*%
X176300000Y-113600000D03*
%TO.P,K0,9*%
%TO.N,/D0*%
X189500000Y-119950000D03*
%TO.P,K0,10*%
X185100000Y-119950000D03*
%TO.P,K0,11*%
X180700000Y-119950000D03*
%TO.P,K0,12*%
X176300000Y-119950000D03*
%TO.P,K0,13*%
%TO.N,GND*%
X189500000Y-126300000D03*
%TO.P,K0,14*%
%TO.N,/D0*%
X176300000Y-126300000D03*
%TD*%
D15*
%TO.P,BITS0-3,1,+V*%
%TO.N,Net-(BITS0-3-+V)*%
X90460000Y-113000000D03*
D13*
%TO.P,BITS0-3,2,D0*%
%TO.N,/D0*%
X93000000Y-113000000D03*
%TO.P,BITS0-3,3,D1*%
%TO.N,/D1*%
X90460000Y-115540000D03*
%TO.P,BITS0-3,4,D2*%
%TO.N,/D2*%
X93000000Y-115540000D03*
%TO.P,BITS0-3,5,D3*%
%TO.N,/D3*%
X90460000Y-118080000D03*
%TO.P,BITS0-3,6,NC*%
%TO.N,unconnected-(BITS0-3-NC-Pad6)*%
X93000000Y-118080000D03*
%TO.P,BITS0-3,7,NC*%
%TO.N,unconnected-(BITS0-3-NC-Pad7)*%
X90460000Y-120620000D03*
%TO.P,BITS0-3,8,GND*%
%TO.N,GND*%
X93000000Y-120620000D03*
%TD*%
D14*
%TO.P,BUS2,1*%
%TO.N,unconnected-(BUS2-Pad1)*%
X165000000Y-71700000D03*
%TO.P,BUS2,2*%
%TO.N,unconnected-(BUS2-Pad2)*%
X160600000Y-71700000D03*
%TO.P,BUS2,3*%
%TO.N,unconnected-(BUS2-Pad3)*%
X156200000Y-71700000D03*
%TO.P,BUS2,4*%
%TO.N,unconnected-(BUS2-Pad4)*%
X151800000Y-71700000D03*
%TO.P,BUS2,5*%
%TO.N,Net-(BUS2-1-D3)*%
X165000000Y-75800000D03*
%TO.P,BUS2,6*%
%TO.N,Net-(BUS2-1-D2)*%
X160600000Y-75800000D03*
%TO.P,BUS2,7*%
%TO.N,Net-(BUS2-1-D1)*%
X156200000Y-75800000D03*
%TO.P,BUS2,8*%
%TO.N,Net-(BUS2-1-D0)*%
X151800000Y-75800000D03*
%TO.P,BUS2,9*%
%TO.N,/D3*%
X165000000Y-82150000D03*
%TO.P,BUS2,10*%
%TO.N,/D2*%
X160600000Y-82150000D03*
%TO.P,BUS2,11*%
%TO.N,/D1*%
X156200000Y-82150000D03*
%TO.P,BUS2,12*%
%TO.N,/D0*%
X151800000Y-82150000D03*
%TO.P,BUS2,13*%
%TO.N,GND*%
X165000000Y-88500000D03*
%TO.P,BUS2,14*%
%TO.N,Net-(D7-K)*%
X151800000Y-88500000D03*
%TD*%
D12*
%TO.P,BUS1-2,1,+V*%
%TO.N,Net-(BITS0-3-+V)*%
X125025000Y-140500000D03*
D13*
%TO.P,BUS1-2,2,D0*%
%TO.N,Net-(BUS1-1-D0)*%
X127565000Y-140500000D03*
%TO.P,BUS1-2,3,D1*%
%TO.N,Net-(BUS1-1-D1)*%
X130105000Y-140500000D03*
%TO.P,BUS1-2,4,D2*%
%TO.N,Net-(BUS1-1-D2)*%
X132645000Y-140500000D03*
%TO.P,BUS1-2,5,D3*%
%TO.N,Net-(BUS1-1-D3)*%
X135185000Y-140500000D03*
%TO.P,BUS1-2,6,NC*%
%TO.N,unconnected-(BUS1-2-NC-Pad6)*%
X137725000Y-140500000D03*
%TO.P,BUS1-2,7,NC*%
%TO.N,unconnected-(BUS1-2-NC-Pad7)*%
X140265000Y-140500000D03*
%TO.P,BUS1-2,8,GND*%
%TO.N,GND*%
X142805000Y-140500000D03*
%TD*%
D14*
%TO.P,BUS3,1*%
%TO.N,unconnected-(BUS3-Pad1)*%
X189500000Y-71700000D03*
%TO.P,BUS3,2*%
%TO.N,unconnected-(BUS3-Pad2)*%
X185100000Y-71700000D03*
%TO.P,BUS3,3*%
%TO.N,unconnected-(BUS3-Pad3)*%
X180700000Y-71700000D03*
%TO.P,BUS3,4*%
%TO.N,unconnected-(BUS3-Pad4)*%
X176300000Y-71700000D03*
%TO.P,BUS3,5*%
%TO.N,Net-(BUS3-1-D3)*%
X189500000Y-75800000D03*
%TO.P,BUS3,6*%
%TO.N,Net-(BUS3-1-D2)*%
X185100000Y-75800000D03*
%TO.P,BUS3,7*%
%TO.N,Net-(BUS3-1-D1)*%
X180700000Y-75800000D03*
%TO.P,BUS3,8*%
%TO.N,Net-(BUS3-1-D0)*%
X176300000Y-75800000D03*
%TO.P,BUS3,9*%
%TO.N,/D3*%
X189500000Y-82150000D03*
%TO.P,BUS3,10*%
%TO.N,/D2*%
X185100000Y-82150000D03*
%TO.P,BUS3,11*%
%TO.N,/D1*%
X180700000Y-82150000D03*
%TO.P,BUS3,12*%
%TO.N,/D0*%
X176300000Y-82150000D03*
%TO.P,BUS3,13*%
%TO.N,GND*%
X189500000Y-88500000D03*
%TO.P,BUS3,14*%
%TO.N,Net-(D8-K)*%
X176300000Y-88500000D03*
%TD*%
%TO.P,BUS1,1*%
%TO.N,unconnected-(BUS1-Pad1)*%
X140500000Y-71700000D03*
%TO.P,BUS1,2*%
%TO.N,unconnected-(BUS1-Pad2)*%
X136100000Y-71700000D03*
%TO.P,BUS1,3*%
%TO.N,unconnected-(BUS1-Pad3)*%
X131700000Y-71700000D03*
%TO.P,BUS1,4*%
%TO.N,unconnected-(BUS1-Pad4)*%
X127300000Y-71700000D03*
%TO.P,BUS1,5*%
%TO.N,Net-(BUS1-1-D3)*%
X140500000Y-75800000D03*
%TO.P,BUS1,6*%
%TO.N,Net-(BUS1-1-D2)*%
X136100000Y-75800000D03*
%TO.P,BUS1,7*%
%TO.N,Net-(BUS1-1-D1)*%
X131700000Y-75800000D03*
%TO.P,BUS1,8*%
%TO.N,Net-(BUS1-1-D0)*%
X127300000Y-75800000D03*
%TO.P,BUS1,9*%
%TO.N,/D3*%
X140500000Y-82150000D03*
%TO.P,BUS1,10*%
%TO.N,/D2*%
X136100000Y-82150000D03*
%TO.P,BUS1,11*%
%TO.N,/D1*%
X131700000Y-82150000D03*
%TO.P,BUS1,12*%
%TO.N,/D0*%
X127300000Y-82150000D03*
%TO.P,BUS1,13*%
%TO.N,GND*%
X140500000Y-88500000D03*
%TO.P,BUS1,14*%
%TO.N,Net-(D6-K)*%
X127300000Y-88500000D03*
%TD*%
%TO.P,K3,1*%
%TO.N,unconnected-(K3-Pad1)*%
X116000000Y-109550000D03*
%TO.P,K3,2*%
%TO.N,unconnected-(K3-Pad2)*%
X111600000Y-109550000D03*
%TO.P,K3,3*%
%TO.N,unconnected-(K3-Pad3)*%
X107200000Y-109550000D03*
%TO.P,K3,4*%
%TO.N,unconnected-(K3-Pad4)*%
X102800000Y-109550000D03*
%TO.P,K3,5*%
%TO.N,Net-(K-RESET1-Pad1)*%
X116000000Y-113650000D03*
%TO.P,K3,6*%
X111600000Y-113650000D03*
%TO.P,K3,7*%
X107200000Y-113650000D03*
%TO.P,K3,8*%
X102800000Y-113650000D03*
%TO.P,K3,9*%
%TO.N,/D3*%
X116000000Y-120000000D03*
%TO.P,K3,10*%
X111600000Y-120000000D03*
%TO.P,K3,11*%
X107200000Y-120000000D03*
%TO.P,K3,12*%
X102800000Y-120000000D03*
%TO.P,K3,13*%
%TO.N,GND*%
X116000000Y-126350000D03*
%TO.P,K3,14*%
%TO.N,/D3*%
X102800000Y-126350000D03*
%TD*%
D12*
%TO.P,BUS2-2,1,+V*%
%TO.N,Net-(BITS0-3-+V)*%
X149525000Y-140500000D03*
D13*
%TO.P,BUS2-2,2,D0*%
%TO.N,Net-(BUS2-1-D0)*%
X152065000Y-140500000D03*
%TO.P,BUS2-2,3,D1*%
%TO.N,Net-(BUS2-1-D1)*%
X154605000Y-140500000D03*
%TO.P,BUS2-2,4,D2*%
%TO.N,Net-(BUS2-1-D2)*%
X157145000Y-140500000D03*
%TO.P,BUS2-2,5,D3*%
%TO.N,Net-(BUS2-1-D3)*%
X159685000Y-140500000D03*
%TO.P,BUS2-2,6,NC*%
%TO.N,unconnected-(BUS2-2-NC-Pad6)*%
X162225000Y-140500000D03*
%TO.P,BUS2-2,7,NC*%
%TO.N,unconnected-(BUS2-2-NC-Pad7)*%
X164765000Y-140500000D03*
%TO.P,BUS2-2,8,GND*%
%TO.N,GND*%
X167305000Y-140500000D03*
%TD*%
D15*
%TO.P,J3,1,+V*%
%TO.N,Net-(BITS0-3-+V)*%
X90960000Y-66880000D03*
D13*
%TO.P,J3,2,RESET*%
%TO.N,Net-(D1-K)*%
X93500000Y-66880000D03*
%TO.P,J3,3,SEL1*%
%TO.N,Net-(D6-K)*%
X90960000Y-69420000D03*
%TO.P,J3,4,SEL2*%
%TO.N,Net-(D7-K)*%
X93500000Y-69420000D03*
%TO.P,J3,5,SEL3*%
%TO.N,Net-(D8-K)*%
X90960000Y-71960000D03*
%TO.P,J3,6,NC*%
%TO.N,unconnected-(J3-NC-Pad6)*%
X93500000Y-71960000D03*
%TO.P,J3,7,NC*%
%TO.N,unconnected-(J3-NC-Pad7)*%
X90960000Y-74500000D03*
%TO.P,J3,8,GND*%
%TO.N,GND*%
X93500000Y-74500000D03*
%TD*%
D10*
%TO.P,D8,1,K*%
%TO.N,Net-(D8-K)*%
X179090000Y-98500000D03*
D11*
%TO.P,D8,2,A*%
%TO.N,GND*%
X186710000Y-98500000D03*
%TD*%
D10*
%TO.P,D6,1,K*%
%TO.N,Net-(D6-K)*%
X130090000Y-98500000D03*
D11*
%TO.P,D6,2,A*%
%TO.N,GND*%
X137710000Y-98500000D03*
%TD*%
D12*
%TO.P,BUS3-3,1,+V*%
%TO.N,Net-(BITS0-3-+V)*%
X174025000Y-49500000D03*
D13*
%TO.P,BUS3-3,2,D0*%
%TO.N,Net-(BUS3-1-D0)*%
X176565000Y-49500000D03*
%TO.P,BUS3-3,3,D1*%
%TO.N,Net-(BUS3-1-D1)*%
X179105000Y-49500000D03*
%TO.P,BUS3-3,4,D2*%
%TO.N,Net-(BUS3-1-D2)*%
X181645000Y-49500000D03*
%TO.P,BUS3-3,5,D3*%
%TO.N,Net-(BUS3-1-D3)*%
X184185000Y-49500000D03*
%TO.P,BUS3-3,6,NC*%
%TO.N,unconnected-(BUS3-3-NC-Pad6)*%
X186725000Y-49500000D03*
%TO.P,BUS3-3,7,NC*%
%TO.N,unconnected-(BUS3-3-NC-Pad7)*%
X189265000Y-49500000D03*
%TO.P,BUS3-3,8,GND*%
%TO.N,GND*%
X191805000Y-49500000D03*
%TD*%
D12*
%TO.P,J2,1,+V*%
%TO.N,Net-(BITS0-3-+V)*%
X196500000Y-83125000D03*
D13*
%TO.P,J2,2,RESET*%
%TO.N,Net-(D1-K)*%
X196500000Y-85665000D03*
%TO.P,J2,3,SEL1*%
%TO.N,Net-(D6-K)*%
X196500000Y-88205000D03*
%TO.P,J2,4,SEL2*%
%TO.N,Net-(D7-K)*%
X196500000Y-90745000D03*
%TO.P,J2,5,SEL3*%
%TO.N,Net-(D8-K)*%
X196500000Y-93285000D03*
%TO.P,J2,6,NC*%
%TO.N,unconnected-(J2-NC-Pad6)*%
X196500000Y-95825000D03*
%TO.P,J2,7,NC*%
%TO.N,unconnected-(J2-NC-Pad7)*%
X196500000Y-98365000D03*
%TO.P,J2,8,GND*%
%TO.N,GND*%
X196500000Y-100905000D03*
%TD*%
D12*
%TO.P,BUS2-3,1,+V*%
%TO.N,Net-(BITS0-3-+V)*%
X149525000Y-49500000D03*
D13*
%TO.P,BUS2-3,2,D0*%
%TO.N,Net-(BUS2-1-D0)*%
X152065000Y-49500000D03*
%TO.P,BUS2-3,3,D1*%
%TO.N,Net-(BUS2-1-D1)*%
X154605000Y-49500000D03*
%TO.P,BUS2-3,4,D2*%
%TO.N,Net-(BUS2-1-D2)*%
X157145000Y-49500000D03*
%TO.P,BUS2-3,5,D3*%
%TO.N,Net-(BUS2-1-D3)*%
X159685000Y-49500000D03*
%TO.P,BUS2-3,6,NC*%
%TO.N,unconnected-(BUS2-3-NC-Pad6)*%
X162225000Y-49500000D03*
%TO.P,BUS2-3,7,NC*%
%TO.N,unconnected-(BUS2-3-NC-Pad7)*%
X164765000Y-49500000D03*
%TO.P,BUS2-3,8,GND*%
%TO.N,GND*%
X167305000Y-49500000D03*
%TD*%
D10*
%TO.P,D4,1,K*%
%TO.N,/D2*%
X130090000Y-136040000D03*
D11*
%TO.P,D4,2,A*%
%TO.N,GND*%
X137710000Y-136040000D03*
%TD*%
D14*
%TO.P,K-RESET1,1*%
%TO.N,Net-(K-RESET1-Pad1)*%
X116000000Y-71700000D03*
%TO.P,K-RESET1,2*%
X111600000Y-71700000D03*
%TO.P,K-RESET1,3*%
X107200000Y-71700000D03*
%TO.P,K-RESET1,4*%
X102800000Y-71700000D03*
%TO.P,K-RESET1,5*%
%TO.N,unconnected-(K-RESET1-Pad5)*%
X116000000Y-75800000D03*
%TO.P,K-RESET1,6*%
%TO.N,unconnected-(K-RESET1-Pad6)*%
X111600000Y-75800000D03*
%TO.P,K-RESET1,7*%
%TO.N,unconnected-(K-RESET1-Pad7)*%
X107200000Y-75800000D03*
%TO.P,K-RESET1,8*%
%TO.N,unconnected-(K-RESET1-Pad8)*%
X102800000Y-75800000D03*
%TO.P,K-RESET1,9*%
%TO.N,Net-(BITS0-3-+V)*%
X116000000Y-82150000D03*
%TO.P,K-RESET1,10*%
X111600000Y-82150000D03*
%TO.P,K-RESET1,11*%
X107200000Y-82150000D03*
%TO.P,K-RESET1,12*%
X102800000Y-82150000D03*
%TO.P,K-RESET1,13*%
%TO.N,GND*%
X116000000Y-88500000D03*
%TO.P,K-RESET1,14*%
%TO.N,Net-(D1-K)*%
X102800000Y-88500000D03*
%TD*%
%TO.P,K1,1*%
%TO.N,unconnected-(K1-Pad1)*%
X165000000Y-109500000D03*
%TO.P,K1,2*%
%TO.N,unconnected-(K1-Pad2)*%
X160600000Y-109500000D03*
%TO.P,K1,3*%
%TO.N,unconnected-(K1-Pad3)*%
X156200000Y-109500000D03*
%TO.P,K1,4*%
%TO.N,unconnected-(K1-Pad4)*%
X151800000Y-109500000D03*
%TO.P,K1,5*%
%TO.N,Net-(K-RESET1-Pad1)*%
X165000000Y-113600000D03*
%TO.P,K1,6*%
X160600000Y-113600000D03*
%TO.P,K1,7*%
X156200000Y-113600000D03*
%TO.P,K1,8*%
X151800000Y-113600000D03*
%TO.P,K1,9*%
%TO.N,/D1*%
X165000000Y-119950000D03*
%TO.P,K1,10*%
X160600000Y-119950000D03*
%TO.P,K1,11*%
X156200000Y-119950000D03*
%TO.P,K1,12*%
X151800000Y-119950000D03*
%TO.P,K1,13*%
%TO.N,GND*%
X165000000Y-126300000D03*
%TO.P,K1,14*%
%TO.N,/D1*%
X151800000Y-126300000D03*
%TD*%
D12*
%TO.P,J1,1,+V*%
%TO.N,Net-(BITS0-3-+V)*%
X95900000Y-83125000D03*
D13*
%TO.P,J1,2,RESET*%
%TO.N,Net-(D1-K)*%
X95900000Y-85665000D03*
%TO.P,J1,3,SEL1*%
%TO.N,Net-(D6-K)*%
X95900000Y-88205000D03*
%TO.P,J1,4,SEL2*%
%TO.N,Net-(D7-K)*%
X95900000Y-90745000D03*
%TO.P,J1,5,SEL3*%
%TO.N,Net-(D8-K)*%
X95900000Y-93285000D03*
%TO.P,J1,6,NC*%
%TO.N,unconnected-(J1-NC-Pad6)*%
X95900000Y-95825000D03*
%TO.P,J1,7,NC*%
%TO.N,unconnected-(J1-NC-Pad7)*%
X95900000Y-98365000D03*
%TO.P,J1,8,GND*%
%TO.N,GND*%
X95900000Y-100905000D03*
%TD*%
D16*
%TO.P,BUS2-1,1,+V*%
%TO.N,Net-(BITS0-3-+V)*%
X154555000Y-58215000D03*
D13*
%TO.P,BUS2-1,2,D0*%
%TO.N,Net-(BUS2-1-D0)*%
X154555000Y-55675000D03*
%TO.P,BUS2-1,3,D1*%
%TO.N,Net-(BUS2-1-D1)*%
X157095000Y-58215000D03*
%TO.P,BUS2-1,4,D2*%
%TO.N,Net-(BUS2-1-D2)*%
X157095000Y-55675000D03*
%TO.P,BUS2-1,5,D3*%
%TO.N,Net-(BUS2-1-D3)*%
X159635000Y-58215000D03*
%TO.P,BUS2-1,6,NC*%
%TO.N,unconnected-(BUS2-1-NC-Pad6)*%
X159635000Y-55675000D03*
%TO.P,BUS2-1,7,NC*%
%TO.N,unconnected-(BUS2-1-NC-Pad7)*%
X162175000Y-58215000D03*
%TO.P,BUS2-1,8,GND*%
%TO.N,GND*%
X162175000Y-55675000D03*
%TD*%
D10*
%TO.P,D7,1,K*%
%TO.N,Net-(D7-K)*%
X154590000Y-98500000D03*
D11*
%TO.P,D7,2,A*%
%TO.N,GND*%
X162210000Y-98500000D03*
%TD*%
D12*
%TO.P,BUS3-2,1,+V*%
%TO.N,Net-(BITS0-3-+V)*%
X174025000Y-140500000D03*
D13*
%TO.P,BUS3-2,2,D0*%
%TO.N,Net-(BUS3-1-D0)*%
X176565000Y-140500000D03*
%TO.P,BUS3-2,3,D1*%
%TO.N,Net-(BUS3-1-D1)*%
X179105000Y-140500000D03*
%TO.P,BUS3-2,4,D2*%
%TO.N,Net-(BUS3-1-D2)*%
X181645000Y-140500000D03*
%TO.P,BUS3-2,5,D3*%
%TO.N,Net-(BUS3-1-D3)*%
X184185000Y-140500000D03*
%TO.P,BUS3-2,6,NC*%
%TO.N,unconnected-(BUS3-2-NC-Pad6)*%
X186725000Y-140500000D03*
%TO.P,BUS3-2,7,NC*%
%TO.N,unconnected-(BUS3-2-NC-Pad7)*%
X189265000Y-140500000D03*
%TO.P,BUS3-2,8,GND*%
%TO.N,GND*%
X191805000Y-140500000D03*
%TD*%
D16*
%TO.P,BUS1-1,1,+V*%
%TO.N,Net-(BITS0-3-+V)*%
X130055000Y-58215000D03*
D13*
%TO.P,BUS1-1,2,D0*%
%TO.N,Net-(BUS1-1-D0)*%
X130055000Y-55675000D03*
%TO.P,BUS1-1,3,D1*%
%TO.N,Net-(BUS1-1-D1)*%
X132595000Y-58215000D03*
%TO.P,BUS1-1,4,D2*%
%TO.N,Net-(BUS1-1-D2)*%
X132595000Y-55675000D03*
%TO.P,BUS1-1,5,D3*%
%TO.N,Net-(BUS1-1-D3)*%
X135135000Y-58215000D03*
%TO.P,BUS1-1,6,NC*%
%TO.N,unconnected-(BUS1-1-NC-Pad6)*%
X135135000Y-55675000D03*
%TO.P,BUS1-1,7,NC*%
%TO.N,unconnected-(BUS1-1-NC-Pad7)*%
X137675000Y-58215000D03*
%TO.P,BUS1-1,8,GND*%
%TO.N,GND*%
X137675000Y-55675000D03*
%TD*%
D15*
%TO.P,BITS2-3,1,+V*%
%TO.N,Net-(BITS0-3-+V)*%
X90460000Y-135500000D03*
D13*
%TO.P,BITS2-3,2,D0*%
%TO.N,/D2*%
X93000000Y-135500000D03*
%TO.P,BITS2-3,3,D1*%
%TO.N,/D3*%
X90460000Y-138040000D03*
%TO.P,BITS2-3,4,D2*%
%TO.N,unconnected-(BITS2-3-D2-Pad4)*%
X93000000Y-138040000D03*
%TO.P,BITS2-3,5,D3*%
%TO.N,unconnected-(BITS2-3-D3-Pad5)*%
X90460000Y-140580000D03*
%TO.P,BITS2-3,6,NC*%
%TO.N,unconnected-(BITS2-3-NC-Pad6)*%
X93000000Y-140580000D03*
%TO.P,BITS2-3,7,NC*%
%TO.N,unconnected-(BITS2-3-NC-Pad7)*%
X90460000Y-143120000D03*
%TO.P,BITS2-3,8,GND*%
%TO.N,GND*%
X93000000Y-143120000D03*
%TD*%
D16*
%TO.P,BUS3-1,1,+V*%
%TO.N,Net-(BITS0-3-+V)*%
X179055000Y-58215000D03*
D13*
%TO.P,BUS3-1,2,D0*%
%TO.N,Net-(BUS3-1-D0)*%
X179055000Y-55675000D03*
%TO.P,BUS3-1,3,D1*%
%TO.N,Net-(BUS3-1-D1)*%
X181595000Y-58215000D03*
%TO.P,BUS3-1,4,D2*%
%TO.N,Net-(BUS3-1-D2)*%
X181595000Y-55675000D03*
%TO.P,BUS3-1,5,D3*%
%TO.N,Net-(BUS3-1-D3)*%
X184135000Y-58215000D03*
%TO.P,BUS3-1,6,NC*%
%TO.N,unconnected-(BUS3-1-NC-Pad6)*%
X184135000Y-55675000D03*
%TO.P,BUS3-1,7,NC*%
%TO.N,unconnected-(BUS3-1-NC-Pad7)*%
X186675000Y-58215000D03*
%TO.P,BUS3-1,8,GND*%
%TO.N,GND*%
X186675000Y-55675000D03*
%TD*%
D14*
%TO.P,K2,1*%
%TO.N,unconnected-(K2-Pad1)*%
X140500000Y-109550000D03*
%TO.P,K2,2*%
%TO.N,unconnected-(K2-Pad2)*%
X136100000Y-109550000D03*
%TO.P,K2,3*%
%TO.N,unconnected-(K2-Pad3)*%
X131700000Y-109550000D03*
%TO.P,K2,4*%
%TO.N,unconnected-(K2-Pad4)*%
X127300000Y-109550000D03*
%TO.P,K2,5*%
%TO.N,Net-(K-RESET1-Pad1)*%
X140500000Y-113650000D03*
%TO.P,K2,6*%
X136100000Y-113650000D03*
%TO.P,K2,7*%
X131700000Y-113650000D03*
%TO.P,K2,8*%
X127300000Y-113650000D03*
%TO.P,K2,9*%
%TO.N,/D2*%
X140500000Y-120000000D03*
%TO.P,K2,10*%
X136100000Y-120000000D03*
%TO.P,K2,11*%
X131700000Y-120000000D03*
%TO.P,K2,12*%
X127300000Y-120000000D03*
%TO.P,K2,13*%
%TO.N,GND*%
X140500000Y-126350000D03*
%TO.P,K2,14*%
%TO.N,/D2*%
X127300000Y-126350000D03*
%TD*%
D17*
%TO.N,GND*%
X186710000Y-136040000D02*
X191170000Y-140500000D01*
X162210000Y-136040000D02*
X166670000Y-140500000D01*
X142805000Y-50545000D02*
X142805000Y-49500000D01*
X162210000Y-98500000D02*
X162210000Y-91290000D01*
X113210000Y-98500000D02*
X113210000Y-123560000D01*
X162175000Y-55675000D02*
X167305000Y-50545000D01*
X142170000Y-140500000D02*
X142805000Y-140500000D01*
X113210000Y-136040000D02*
X113210000Y-129140000D01*
X137710000Y-136040000D02*
X140500000Y-133250000D01*
X189500000Y-88500000D02*
X186710000Y-91290000D01*
X162210000Y-91290000D02*
X165000000Y-88500000D01*
X186675000Y-55675000D02*
X191805000Y-50545000D01*
X92795000Y-75205000D02*
X93500000Y-74500000D01*
X113210000Y-93290000D02*
X113210000Y-98500000D01*
X92795000Y-97800000D02*
X92795000Y-75205000D01*
X162175000Y-55675000D02*
X166501000Y-60001000D01*
X166501000Y-86999000D02*
X165000000Y-88500000D01*
X140500000Y-95710000D02*
X137710000Y-98500000D01*
X162210000Y-136040000D02*
X162210000Y-129090000D01*
X166501000Y-60001000D02*
X166501000Y-86999000D01*
X140500000Y-88500000D02*
X140500000Y-95710000D01*
X162210000Y-129090000D02*
X165000000Y-126300000D01*
X189500000Y-133250000D02*
X189500000Y-126300000D01*
X95900000Y-100905000D02*
X92795000Y-97800000D01*
X186710000Y-91290000D02*
X186710000Y-98500000D01*
X140500000Y-133250000D02*
X140500000Y-126350000D01*
X116000000Y-90500000D02*
X113210000Y-93290000D01*
X116000000Y-88500000D02*
X116000000Y-90500000D01*
X113210000Y-129140000D02*
X116000000Y-126350000D01*
X137675000Y-55675000D02*
X142805000Y-50545000D01*
X166670000Y-140500000D02*
X167305000Y-140500000D01*
X137710000Y-136040000D02*
X142170000Y-140500000D01*
X186710000Y-136040000D02*
X189500000Y-133250000D01*
X191170000Y-140500000D02*
X191805000Y-140500000D01*
X113210000Y-123560000D02*
X116000000Y-126350000D01*
X167305000Y-50545000D02*
X167305000Y-49500000D01*
X191805000Y-50545000D02*
X191805000Y-49500000D01*
D18*
%TO.N,/D3*%
X118500000Y-147500000D02*
X107040000Y-136040000D01*
X185584000Y-108038042D02*
X187529000Y-109983042D01*
X187529000Y-133628595D02*
X185361000Y-135796595D01*
X102800000Y-126350000D02*
X102800000Y-120000000D01*
X102800000Y-134520000D02*
X104320000Y-136040000D01*
X187529000Y-109983042D02*
X187529000Y-133628595D01*
X102800000Y-126350000D02*
X102800000Y-134520000D01*
X189500000Y-82150000D02*
X185584000Y-86066000D01*
X185361000Y-135796595D02*
X185361000Y-143139000D01*
X107040000Y-136040000D02*
X105590000Y-136040000D01*
X181000000Y-147500000D02*
X118500000Y-147500000D01*
X104320000Y-136040000D02*
X105590000Y-136040000D01*
X185361000Y-143139000D02*
X181000000Y-147500000D01*
X185584000Y-86066000D02*
X185584000Y-108038042D01*
%TO.N,/D2*%
X127300000Y-126350000D02*
X127300000Y-120000000D01*
X134725000Y-83525000D02*
X136100000Y-82150000D01*
X127300000Y-126350000D02*
X127300000Y-134500000D01*
X136100000Y-120000000D02*
X134725000Y-118625000D01*
X127300000Y-134500000D02*
X128840000Y-136040000D01*
X93000000Y-135500000D02*
X91825000Y-134325000D01*
X91825000Y-116715000D02*
X93000000Y-115540000D01*
X127300000Y-134500000D02*
X127300000Y-134520000D01*
X134725000Y-118625000D02*
X134725000Y-83525000D01*
X128840000Y-136040000D02*
X130090000Y-136040000D01*
X91825000Y-134325000D02*
X91825000Y-116715000D01*
%TO.N,/D1*%
X153464000Y-101547514D02*
X156200000Y-98811514D01*
X156200000Y-119950000D02*
X153464000Y-117214000D01*
X153340000Y-136040000D02*
X154590000Y-136040000D01*
X151800000Y-134500000D02*
X151800000Y-134520000D01*
X156200000Y-98811514D02*
X156200000Y-82150000D01*
X151800000Y-126300000D02*
X151800000Y-119950000D01*
X151800000Y-134500000D02*
X153340000Y-136040000D01*
X153464000Y-117214000D02*
X153464000Y-101547514D01*
X151800000Y-126300000D02*
X151800000Y-134500000D01*
%TO.N,/D0*%
X176300000Y-134520000D02*
X176300000Y-126300000D01*
X176300000Y-134520000D02*
X177820000Y-136040000D01*
X174925000Y-83525000D02*
X176300000Y-82150000D01*
X177820000Y-136040000D02*
X179090000Y-136040000D01*
X174925000Y-118575000D02*
X174925000Y-83525000D01*
X176300000Y-119950000D02*
X174925000Y-118575000D01*
X176300000Y-126300000D02*
X176300000Y-119950000D01*
%TO.N,Net-(D1-K)*%
X104320000Y-98500000D02*
X105590000Y-98500000D01*
X94724000Y-84489000D02*
X94724000Y-81950000D01*
X95900000Y-85665000D02*
X94724000Y-84489000D01*
X97674000Y-71054000D02*
X93500000Y-66880000D01*
X94724000Y-81950000D02*
X97674000Y-79000000D01*
X97674000Y-79000000D02*
X97674000Y-71054000D01*
X104320000Y-90020000D02*
X104320000Y-98500000D01*
X102800000Y-88500000D02*
X104320000Y-90020000D01*
%TO.N,Net-(BUS1-1-D1)*%
X133076000Y-137529000D02*
X133076000Y-77176000D01*
X131265000Y-50660000D02*
X131265000Y-55945000D01*
X130340000Y-61340000D02*
X132595000Y-59085000D01*
X132595000Y-59085000D02*
X132595000Y-58215000D01*
X131265000Y-55945000D02*
X131230000Y-55980000D01*
X130105000Y-49500000D02*
X131265000Y-50660000D01*
X130340000Y-61340000D02*
X130325000Y-61355000D01*
X130325000Y-74425000D02*
X131700000Y-75800000D01*
X131230000Y-55980000D02*
X132595000Y-57345000D01*
X130290000Y-61390000D02*
X130340000Y-61340000D01*
X130325000Y-61355000D02*
X130325000Y-74425000D01*
X133076000Y-77176000D02*
X131700000Y-75800000D01*
X132595000Y-57345000D02*
X132595000Y-58215000D01*
X130105000Y-140500000D02*
X133076000Y-137529000D01*
%TO.N,Net-(BUS1-1-D3)*%
X140500000Y-75800000D02*
X137650000Y-78650000D01*
X137650000Y-78650000D02*
X137650000Y-96967595D01*
X139090000Y-74390000D02*
X140500000Y-75800000D01*
X137566000Y-133434000D02*
X135185000Y-135815000D01*
X139090000Y-62170000D02*
X139090000Y-74390000D01*
X136500000Y-98117595D02*
X136500000Y-108004042D01*
X136345000Y-50660000D02*
X136345000Y-57005000D01*
X135135000Y-58215000D02*
X139090000Y-62170000D01*
X136345000Y-57005000D02*
X135135000Y-58215000D01*
X137566000Y-109070042D02*
X137566000Y-133434000D01*
X137650000Y-96967595D02*
X136500000Y-98117595D01*
X135185000Y-135815000D02*
X135185000Y-140500000D01*
X135185000Y-49500000D02*
X136345000Y-50660000D01*
X136500000Y-108004042D02*
X137566000Y-109070042D01*
%TO.N,Net-(BUS1-1-D2)*%
X136100000Y-73644544D02*
X136100000Y-75800000D01*
X133770000Y-71314544D02*
X136100000Y-73644544D01*
X133700000Y-139445000D02*
X132645000Y-140500000D01*
X133700000Y-78200000D02*
X136100000Y-75800000D01*
X132595000Y-55675000D02*
X133770000Y-56850000D01*
X132645000Y-55625000D02*
X132595000Y-55675000D01*
X133700000Y-78200000D02*
X133700000Y-139445000D01*
X133770000Y-56850000D02*
X133770000Y-71314544D01*
X132645000Y-49500000D02*
X132645000Y-55625000D01*
%TO.N,Net-(BUS1-1-D0)*%
X128895050Y-74204950D02*
X127300000Y-75800000D01*
X131230000Y-59060100D02*
X131230000Y-56850000D01*
X127565000Y-53115000D02*
X127530000Y-53150000D01*
X127565000Y-140500000D02*
X125925000Y-138860000D01*
X131230000Y-56850000D02*
X130055000Y-55675000D01*
X127565000Y-49500000D02*
X127565000Y-53115000D01*
X127530000Y-53150000D02*
X130055000Y-55675000D01*
X125925000Y-77175000D02*
X127300000Y-75800000D01*
X128895050Y-61395050D02*
X131230000Y-59060100D01*
X125925000Y-77175000D02*
X125925000Y-138860000D01*
X128895050Y-61395050D02*
X128895050Y-74204950D01*
%TO.N,Net-(BUS2-1-D0)*%
X150425000Y-74425000D02*
X150425000Y-64425000D01*
X152065000Y-140500000D02*
X150425000Y-138860000D01*
X155730000Y-56850000D02*
X154555000Y-55675000D01*
X150425000Y-138860000D02*
X150425000Y-138425000D01*
X151800000Y-75800000D02*
X150425000Y-74425000D01*
X150425000Y-64425000D02*
X150395050Y-64395050D01*
X154532500Y-52467500D02*
X154555000Y-52490000D01*
X152065000Y-49500000D02*
X154532500Y-51967500D01*
X154532500Y-51967500D02*
X154590000Y-52025000D01*
X154555000Y-52490000D02*
X154555000Y-55675000D01*
X150425000Y-138425000D02*
X150425000Y-77175000D01*
X150395050Y-64395050D02*
X155730000Y-59060100D01*
X155730000Y-59060100D02*
X155730000Y-56850000D01*
X150425000Y-77175000D02*
X151800000Y-75800000D01*
X150500000Y-138500000D02*
X150425000Y-138425000D01*
X154532500Y-51967500D02*
X154532500Y-52467500D01*
X150390000Y-64400100D02*
X150395050Y-64395050D01*
%TO.N,Net-(BUS2-1-D3)*%
X159635000Y-57385000D02*
X159635000Y-58215000D01*
X159224000Y-81576000D02*
X159224000Y-140039000D01*
X159224000Y-140039000D02*
X159685000Y-140500000D01*
X158460000Y-56210000D02*
X159635000Y-57385000D01*
X163590000Y-74390000D02*
X165000000Y-75800000D01*
X159685000Y-49500000D02*
X158460000Y-50725000D01*
X159635000Y-58215000D02*
X163590000Y-62170000D01*
X163590000Y-62170000D02*
X163590000Y-74390000D01*
X158460000Y-50725000D02*
X158460000Y-56210000D01*
X165000000Y-75800000D02*
X159224000Y-81576000D01*
%TO.N,Net-(BUS2-1-D2)*%
X158025000Y-78375000D02*
X158025000Y-139620000D01*
X158025000Y-139620000D02*
X157145000Y-140500000D01*
X157145000Y-49500000D02*
X157145000Y-55625000D01*
X157095000Y-55675000D02*
X158460000Y-57040000D01*
X158460000Y-57040000D02*
X158460000Y-73660000D01*
X158025000Y-78375000D02*
X160600000Y-75800000D01*
X157145000Y-55625000D02*
X157095000Y-55675000D01*
X158460000Y-73660000D02*
X160600000Y-75800000D01*
%TO.N,Net-(BUS2-1-D1)*%
X155730000Y-55980000D02*
X157095000Y-57345000D01*
X155765000Y-55945000D02*
X155730000Y-55980000D01*
X154605000Y-49500000D02*
X155765000Y-50660000D01*
X157575000Y-77175000D02*
X157575000Y-137530000D01*
X157095000Y-59417081D02*
X154790000Y-61722081D01*
X157095000Y-57345000D02*
X157095000Y-58215000D01*
X157095000Y-58215000D02*
X157095000Y-59417081D01*
X155765000Y-50660000D02*
X155765000Y-55945000D01*
X154790000Y-61722081D02*
X154790000Y-74390000D01*
X157575000Y-137530000D02*
X154605000Y-140500000D01*
X154790000Y-74390000D02*
X156200000Y-75800000D01*
X157575000Y-77175000D02*
X156200000Y-75800000D01*
%TO.N,Net-(BUS3-1-D2)*%
X182500000Y-139645000D02*
X181645000Y-140500000D01*
X182495000Y-78405000D02*
X182500000Y-78400000D01*
X181645000Y-55625000D02*
X181595000Y-55675000D01*
X181595000Y-55675000D02*
X182960000Y-57040000D01*
X181645000Y-49500000D02*
X181645000Y-55625000D01*
X182500000Y-78400000D02*
X185100000Y-75800000D01*
X182960000Y-73660000D02*
X185100000Y-75800000D01*
X182500000Y-78400000D02*
X182500000Y-139645000D01*
X182960000Y-57040000D02*
X182960000Y-73660000D01*
%TO.N,Net-(BUS3-1-D1)*%
X182075000Y-58695000D02*
X182075000Y-74425000D01*
X180455000Y-50850000D02*
X180420000Y-50885000D01*
X180420000Y-50885000D02*
X180420000Y-56161701D01*
X180700000Y-75800000D02*
X179324000Y-77176000D01*
X180700000Y-75800000D02*
X182075000Y-74425000D01*
X181595000Y-58215000D02*
X182075000Y-58695000D01*
X180216000Y-135244486D02*
X180216000Y-139389000D01*
X179105000Y-49500000D02*
X180455000Y-50850000D01*
X179324000Y-96812486D02*
X180500000Y-97988486D01*
X179324000Y-134352486D02*
X180216000Y-135244486D01*
X180420000Y-56161701D02*
X181595000Y-57336701D01*
X180500000Y-107754042D02*
X179324000Y-108930042D01*
X179324000Y-108930042D02*
X179324000Y-134352486D01*
X179324000Y-77176000D02*
X179324000Y-96812486D01*
X181595000Y-57336701D02*
X181595000Y-58215000D01*
X180500000Y-97988486D02*
X180500000Y-107754042D01*
X180216000Y-139389000D02*
X179105000Y-140500000D01*
%TO.N,Net-(BUS3-1-D0)*%
X176565000Y-49500000D02*
X176565000Y-53115000D01*
X174895050Y-64395050D02*
X180230000Y-59060100D01*
X173050000Y-79050000D02*
X173050000Y-136985000D01*
X180230000Y-59060100D02*
X180230000Y-56850000D01*
X174895050Y-74395050D02*
X176300000Y-75800000D01*
X174895050Y-64395050D02*
X174895050Y-74395050D01*
X174890000Y-64400100D02*
X174895050Y-64395050D01*
X173050000Y-79050000D02*
X173000000Y-79100000D01*
X176300000Y-75800000D02*
X173050000Y-79050000D01*
X176565000Y-53115000D02*
X176530000Y-53150000D01*
X180230000Y-56850000D02*
X179055000Y-55675000D01*
X176530000Y-53150000D02*
X179055000Y-55675000D01*
X173050000Y-136985000D02*
X176565000Y-140500000D01*
%TO.N,Net-(BUS3-1-D3)*%
X184185000Y-49500000D02*
X185345000Y-50660000D01*
X189500000Y-73644544D02*
X189500000Y-75800000D01*
X185345000Y-50660000D02*
X185345000Y-57005000D01*
X184135000Y-58215000D02*
X184135000Y-68279544D01*
X183335000Y-81965000D02*
X189500000Y-75800000D01*
X185345000Y-57005000D02*
X184135000Y-58215000D01*
X183335000Y-81965000D02*
X183335000Y-139650000D01*
X184135000Y-68279544D02*
X189500000Y-73644544D01*
X183335000Y-139650000D02*
X184185000Y-140500000D01*
D17*
%TO.N,Net-(BITS0-3-+V)*%
X89159000Y-134199000D02*
X90460000Y-135500000D01*
X130055000Y-58215000D02*
X125025000Y-53185000D01*
X174025000Y-53185000D02*
X179055000Y-58215000D01*
X98250000Y-80775000D02*
X98250000Y-64000000D01*
X91761000Y-111699000D02*
X90460000Y-113000000D01*
X104301000Y-128900182D02*
X104301000Y-119378265D01*
X149525000Y-49500000D02*
X149525000Y-53185000D01*
X149525000Y-53185000D02*
X154555000Y-58215000D01*
X116000000Y-82150000D02*
X117501000Y-80649000D01*
X95900000Y-83125000D02*
X98250000Y-80775000D01*
X93840000Y-64000000D02*
X90960000Y-66880000D01*
X117501000Y-80649000D02*
X117501000Y-70769000D01*
X115900818Y-140500000D02*
X104301000Y-128900182D01*
X117501000Y-70769000D02*
X130055000Y-58215000D01*
X125025000Y-140500000D02*
X115900818Y-140500000D01*
X174025000Y-49500000D02*
X174025000Y-53185000D01*
X96621735Y-111699000D02*
X91761000Y-111699000D01*
X104301000Y-119378265D02*
X96621735Y-111699000D01*
X90460000Y-113000000D02*
X89159000Y-114301000D01*
X98250000Y-64000000D02*
X93840000Y-64000000D01*
X125025000Y-53185000D02*
X125025000Y-49500000D01*
X89159000Y-114301000D02*
X89159000Y-134199000D01*
D18*
%TO.N,Net-(D8-K)*%
X95900000Y-93285000D02*
X93371000Y-90756000D01*
X92324000Y-73324000D02*
X90960000Y-71960000D01*
X95299000Y-74250000D02*
X94373000Y-73324000D01*
X94373000Y-73324000D02*
X92324000Y-73324000D01*
X95299000Y-76951000D02*
X95299000Y-74250000D01*
X93371000Y-90756000D02*
X93371000Y-78879000D01*
X93371000Y-78879000D02*
X95299000Y-76951000D01*
X176300000Y-88500000D02*
X176300000Y-95710000D01*
X176300000Y-95710000D02*
X179090000Y-98500000D01*
%TO.N,Net-(D7-K)*%
X95750000Y-71670000D02*
X93500000Y-69420000D01*
X93822000Y-88667000D02*
X93822000Y-79928000D01*
X154590000Y-91290000D02*
X154590000Y-98500000D01*
X95900000Y-90745000D02*
X93822000Y-88667000D01*
X95750000Y-78000000D02*
X95750000Y-71670000D01*
X93822000Y-79928000D02*
X95750000Y-78000000D01*
X151800000Y-88500000D02*
X154590000Y-91290000D01*
%TO.N,Net-(K-RESET1-Pad1)*%
X108576000Y-73076000D02*
X108576000Y-112274000D01*
X108576000Y-112274000D02*
X107200000Y-113650000D01*
X107200000Y-71700000D02*
X108576000Y-73076000D01*
%TO.N,Net-(D6-K)*%
X95900000Y-88205000D02*
X94273000Y-86578000D01*
X127300000Y-88500000D02*
X127300000Y-96980000D01*
X96500000Y-78250000D02*
X96500000Y-70756884D01*
X128820000Y-98500000D02*
X130090000Y-98500000D01*
X127300000Y-96980000D02*
X128820000Y-98500000D01*
X93799116Y-68056000D02*
X92324000Y-68056000D01*
X92324000Y-68056000D02*
X90960000Y-69420000D01*
X94273000Y-80477000D02*
X96500000Y-78250000D01*
X94273000Y-86578000D02*
X94273000Y-80477000D01*
X96500000Y-70756884D02*
X93799116Y-68056000D01*
%TD*%
M02*
