%TF.GenerationSoftware,KiCad,Pcbnew,9.0.3-9.0.3-0~ubuntu24.04.1*%
%TF.CreationDate,2026-04-21T10:36:47+03:00*%
%TF.ProjectId,register,72656769-7374-4657-922e-6b696361645f,rev?*%
%TF.SameCoordinates,Original*%
%TF.FileFunction,Legend,Top*%
%TF.FilePolarity,Positive*%
%FSLAX46Y46*%
G04 Gerber Fmt 4.6, Leading zero omitted, Abs format (unit mm)*
G04 Created by KiCad (PCBNEW 9.0.3-9.0.3-0~ubuntu24.04.1) date 2026-04-21 10:36:47*
%MOMM*%
%LPD*%
G01*
G04 APERTURE LIST*
%ADD10C,0.150000*%
%ADD11C,0.750000*%
%ADD12C,0.100000*%
%ADD13C,0.120000*%
G04 APERTURE END LIST*
D10*
X173812969Y-134002676D02*
X174193922Y-134002676D01*
X174193922Y-134002676D02*
X174574874Y-134193152D01*
X174574874Y-134193152D02*
X174765350Y-134383628D01*
X174765350Y-134383628D02*
X174955826Y-134764580D01*
X174955826Y-134764580D02*
X175146303Y-135526485D01*
X175146303Y-135526485D02*
X175146303Y-136478866D01*
X175146303Y-136478866D02*
X174955826Y-137240771D01*
X174955826Y-137240771D02*
X174765350Y-137621723D01*
X174765350Y-137621723D02*
X174574874Y-137812200D01*
X174574874Y-137812200D02*
X174193922Y-138002676D01*
X174193922Y-138002676D02*
X173812969Y-138002676D01*
X173812969Y-138002676D02*
X173432017Y-137812200D01*
X173432017Y-137812200D02*
X173241541Y-137621723D01*
X173241541Y-137621723D02*
X173051064Y-137240771D01*
X173051064Y-137240771D02*
X172860588Y-136478866D01*
X172860588Y-136478866D02*
X172860588Y-135526485D01*
X172860588Y-135526485D02*
X173051064Y-134764580D01*
X173051064Y-134764580D02*
X173241541Y-134383628D01*
X173241541Y-134383628D02*
X173432017Y-134193152D01*
X173432017Y-134193152D02*
X173812969Y-134002676D01*
X90408207Y-60274580D02*
X90360588Y-60322200D01*
X90360588Y-60322200D02*
X90217731Y-60369819D01*
X90217731Y-60369819D02*
X90122493Y-60369819D01*
X90122493Y-60369819D02*
X89979636Y-60322200D01*
X89979636Y-60322200D02*
X89884398Y-60226961D01*
X89884398Y-60226961D02*
X89836779Y-60131723D01*
X89836779Y-60131723D02*
X89789160Y-59941247D01*
X89789160Y-59941247D02*
X89789160Y-59798390D01*
X89789160Y-59798390D02*
X89836779Y-59607914D01*
X89836779Y-59607914D02*
X89884398Y-59512676D01*
X89884398Y-59512676D02*
X89979636Y-59417438D01*
X89979636Y-59417438D02*
X90122493Y-59369819D01*
X90122493Y-59369819D02*
X90217731Y-59369819D01*
X90217731Y-59369819D02*
X90360588Y-59417438D01*
X90360588Y-59417438D02*
X90408207Y-59465057D01*
X90979636Y-60369819D02*
X90884398Y-60322200D01*
X90884398Y-60322200D02*
X90836779Y-60274580D01*
X90836779Y-60274580D02*
X90789160Y-60179342D01*
X90789160Y-60179342D02*
X90789160Y-59893628D01*
X90789160Y-59893628D02*
X90836779Y-59798390D01*
X90836779Y-59798390D02*
X90884398Y-59750771D01*
X90884398Y-59750771D02*
X90979636Y-59703152D01*
X90979636Y-59703152D02*
X91122493Y-59703152D01*
X91122493Y-59703152D02*
X91217731Y-59750771D01*
X91217731Y-59750771D02*
X91265350Y-59798390D01*
X91265350Y-59798390D02*
X91312969Y-59893628D01*
X91312969Y-59893628D02*
X91312969Y-60179342D01*
X91312969Y-60179342D02*
X91265350Y-60274580D01*
X91265350Y-60274580D02*
X91217731Y-60322200D01*
X91217731Y-60322200D02*
X91122493Y-60369819D01*
X91122493Y-60369819D02*
X90979636Y-60369819D01*
X91741541Y-59703152D02*
X91741541Y-60369819D01*
X91741541Y-59798390D02*
X91789160Y-59750771D01*
X91789160Y-59750771D02*
X91884398Y-59703152D01*
X91884398Y-59703152D02*
X92027255Y-59703152D01*
X92027255Y-59703152D02*
X92122493Y-59750771D01*
X92122493Y-59750771D02*
X92170112Y-59846009D01*
X92170112Y-59846009D02*
X92170112Y-60369819D01*
X92503446Y-59703152D02*
X92884398Y-59703152D01*
X92646303Y-59369819D02*
X92646303Y-60226961D01*
X92646303Y-60226961D02*
X92693922Y-60322200D01*
X92693922Y-60322200D02*
X92789160Y-60369819D01*
X92789160Y-60369819D02*
X92884398Y-60369819D01*
X93217732Y-60369819D02*
X93217732Y-59703152D01*
X93217732Y-59893628D02*
X93265351Y-59798390D01*
X93265351Y-59798390D02*
X93312970Y-59750771D01*
X93312970Y-59750771D02*
X93408208Y-59703152D01*
X93408208Y-59703152D02*
X93503446Y-59703152D01*
X93979637Y-60369819D02*
X93884399Y-60322200D01*
X93884399Y-60322200D02*
X93836780Y-60274580D01*
X93836780Y-60274580D02*
X93789161Y-60179342D01*
X93789161Y-60179342D02*
X93789161Y-59893628D01*
X93789161Y-59893628D02*
X93836780Y-59798390D01*
X93836780Y-59798390D02*
X93884399Y-59750771D01*
X93884399Y-59750771D02*
X93979637Y-59703152D01*
X93979637Y-59703152D02*
X94122494Y-59703152D01*
X94122494Y-59703152D02*
X94217732Y-59750771D01*
X94217732Y-59750771D02*
X94265351Y-59798390D01*
X94265351Y-59798390D02*
X94312970Y-59893628D01*
X94312970Y-59893628D02*
X94312970Y-60179342D01*
X94312970Y-60179342D02*
X94265351Y-60274580D01*
X94265351Y-60274580D02*
X94217732Y-60322200D01*
X94217732Y-60322200D02*
X94122494Y-60369819D01*
X94122494Y-60369819D02*
X93979637Y-60369819D01*
X94884399Y-60369819D02*
X94789161Y-60322200D01*
X94789161Y-60322200D02*
X94741542Y-60226961D01*
X94741542Y-60226961D02*
X94741542Y-59369819D01*
X123860588Y-134383628D02*
X124051064Y-134193152D01*
X124051064Y-134193152D02*
X124432017Y-134002676D01*
X124432017Y-134002676D02*
X125384398Y-134002676D01*
X125384398Y-134002676D02*
X125765350Y-134193152D01*
X125765350Y-134193152D02*
X125955826Y-134383628D01*
X125955826Y-134383628D02*
X126146303Y-134764580D01*
X126146303Y-134764580D02*
X126146303Y-135145533D01*
X126146303Y-135145533D02*
X125955826Y-135716961D01*
X125955826Y-135716961D02*
X123670112Y-138002676D01*
X123670112Y-138002676D02*
X126146303Y-138002676D01*
D11*
X92541040Y-54849095D02*
X90874373Y-52468142D01*
X89683897Y-54849095D02*
X89683897Y-49849095D01*
X89683897Y-49849095D02*
X91588659Y-49849095D01*
X91588659Y-49849095D02*
X92064849Y-50087190D01*
X92064849Y-50087190D02*
X92302944Y-50325285D01*
X92302944Y-50325285D02*
X92541040Y-50801476D01*
X92541040Y-50801476D02*
X92541040Y-51515761D01*
X92541040Y-51515761D02*
X92302944Y-51991952D01*
X92302944Y-51991952D02*
X92064849Y-52230047D01*
X92064849Y-52230047D02*
X91588659Y-52468142D01*
X91588659Y-52468142D02*
X89683897Y-52468142D01*
X96588659Y-54611000D02*
X96112468Y-54849095D01*
X96112468Y-54849095D02*
X95160087Y-54849095D01*
X95160087Y-54849095D02*
X94683897Y-54611000D01*
X94683897Y-54611000D02*
X94445801Y-54134809D01*
X94445801Y-54134809D02*
X94445801Y-52230047D01*
X94445801Y-52230047D02*
X94683897Y-51753857D01*
X94683897Y-51753857D02*
X95160087Y-51515761D01*
X95160087Y-51515761D02*
X96112468Y-51515761D01*
X96112468Y-51515761D02*
X96588659Y-51753857D01*
X96588659Y-51753857D02*
X96826754Y-52230047D01*
X96826754Y-52230047D02*
X96826754Y-52706238D01*
X96826754Y-52706238D02*
X94445801Y-53182428D01*
X101112468Y-51515761D02*
X101112468Y-55563380D01*
X101112468Y-55563380D02*
X100874373Y-56039571D01*
X100874373Y-56039571D02*
X100636277Y-56277666D01*
X100636277Y-56277666D02*
X100160087Y-56515761D01*
X100160087Y-56515761D02*
X99445801Y-56515761D01*
X99445801Y-56515761D02*
X98969611Y-56277666D01*
X101112468Y-54611000D02*
X100636277Y-54849095D01*
X100636277Y-54849095D02*
X99683896Y-54849095D01*
X99683896Y-54849095D02*
X99207706Y-54611000D01*
X99207706Y-54611000D02*
X98969611Y-54372904D01*
X98969611Y-54372904D02*
X98731515Y-53896714D01*
X98731515Y-53896714D02*
X98731515Y-52468142D01*
X98731515Y-52468142D02*
X98969611Y-51991952D01*
X98969611Y-51991952D02*
X99207706Y-51753857D01*
X99207706Y-51753857D02*
X99683896Y-51515761D01*
X99683896Y-51515761D02*
X100636277Y-51515761D01*
X100636277Y-51515761D02*
X101112468Y-51753857D01*
X103493421Y-54849095D02*
X103493421Y-51515761D01*
X103493421Y-49849095D02*
X103255325Y-50087190D01*
X103255325Y-50087190D02*
X103493421Y-50325285D01*
X103493421Y-50325285D02*
X103731516Y-50087190D01*
X103731516Y-50087190D02*
X103493421Y-49849095D01*
X103493421Y-49849095D02*
X103493421Y-50325285D01*
X105636277Y-54611000D02*
X106112468Y-54849095D01*
X106112468Y-54849095D02*
X107064849Y-54849095D01*
X107064849Y-54849095D02*
X107541039Y-54611000D01*
X107541039Y-54611000D02*
X107779135Y-54134809D01*
X107779135Y-54134809D02*
X107779135Y-53896714D01*
X107779135Y-53896714D02*
X107541039Y-53420523D01*
X107541039Y-53420523D02*
X107064849Y-53182428D01*
X107064849Y-53182428D02*
X106350563Y-53182428D01*
X106350563Y-53182428D02*
X105874373Y-52944333D01*
X105874373Y-52944333D02*
X105636277Y-52468142D01*
X105636277Y-52468142D02*
X105636277Y-52230047D01*
X105636277Y-52230047D02*
X105874373Y-51753857D01*
X105874373Y-51753857D02*
X106350563Y-51515761D01*
X106350563Y-51515761D02*
X107064849Y-51515761D01*
X107064849Y-51515761D02*
X107541039Y-51753857D01*
X109207706Y-51515761D02*
X111112468Y-51515761D01*
X109921992Y-49849095D02*
X109921992Y-54134809D01*
X109921992Y-54134809D02*
X110160087Y-54611000D01*
X110160087Y-54611000D02*
X110636277Y-54849095D01*
X110636277Y-54849095D02*
X111112468Y-54849095D01*
X114683897Y-54611000D02*
X114207706Y-54849095D01*
X114207706Y-54849095D02*
X113255325Y-54849095D01*
X113255325Y-54849095D02*
X112779135Y-54611000D01*
X112779135Y-54611000D02*
X112541039Y-54134809D01*
X112541039Y-54134809D02*
X112541039Y-52230047D01*
X112541039Y-52230047D02*
X112779135Y-51753857D01*
X112779135Y-51753857D02*
X113255325Y-51515761D01*
X113255325Y-51515761D02*
X114207706Y-51515761D01*
X114207706Y-51515761D02*
X114683897Y-51753857D01*
X114683897Y-51753857D02*
X114921992Y-52230047D01*
X114921992Y-52230047D02*
X114921992Y-52706238D01*
X114921992Y-52706238D02*
X112541039Y-53182428D01*
X117064849Y-54849095D02*
X117064849Y-51515761D01*
X117064849Y-52468142D02*
X117302944Y-51991952D01*
X117302944Y-51991952D02*
X117541039Y-51753857D01*
X117541039Y-51753857D02*
X118017230Y-51515761D01*
X118017230Y-51515761D02*
X118493420Y-51515761D01*
D10*
X150646303Y-138002676D02*
X148360588Y-138002676D01*
X149503445Y-138002676D02*
X149503445Y-134002676D01*
X149503445Y-134002676D02*
X149122493Y-134574104D01*
X149122493Y-134574104D02*
X148741541Y-134955057D01*
X148741541Y-134955057D02*
X148360588Y-135145533D01*
X99170112Y-134002676D02*
X101646303Y-134002676D01*
X101646303Y-134002676D02*
X100312969Y-135526485D01*
X100312969Y-135526485D02*
X100884398Y-135526485D01*
X100884398Y-135526485D02*
X101265350Y-135716961D01*
X101265350Y-135716961D02*
X101455826Y-135907438D01*
X101455826Y-135907438D02*
X101646303Y-136288390D01*
X101646303Y-136288390D02*
X101646303Y-137240771D01*
X101646303Y-137240771D02*
X101455826Y-137621723D01*
X101455826Y-137621723D02*
X101265350Y-137812200D01*
X101265350Y-137812200D02*
X100884398Y-138002676D01*
X100884398Y-138002676D02*
X99741541Y-138002676D01*
X99741541Y-138002676D02*
X99360588Y-137812200D01*
X99360588Y-137812200D02*
X99170112Y-137621723D01*
X89134762Y-106831009D02*
X89277619Y-106878628D01*
X89277619Y-106878628D02*
X89325238Y-106926247D01*
X89325238Y-106926247D02*
X89372857Y-107021485D01*
X89372857Y-107021485D02*
X89372857Y-107164342D01*
X89372857Y-107164342D02*
X89325238Y-107259580D01*
X89325238Y-107259580D02*
X89277619Y-107307200D01*
X89277619Y-107307200D02*
X89182381Y-107354819D01*
X89182381Y-107354819D02*
X88801429Y-107354819D01*
X88801429Y-107354819D02*
X88801429Y-106354819D01*
X88801429Y-106354819D02*
X89134762Y-106354819D01*
X89134762Y-106354819D02*
X89230000Y-106402438D01*
X89230000Y-106402438D02*
X89277619Y-106450057D01*
X89277619Y-106450057D02*
X89325238Y-106545295D01*
X89325238Y-106545295D02*
X89325238Y-106640533D01*
X89325238Y-106640533D02*
X89277619Y-106735771D01*
X89277619Y-106735771D02*
X89230000Y-106783390D01*
X89230000Y-106783390D02*
X89134762Y-106831009D01*
X89134762Y-106831009D02*
X88801429Y-106831009D01*
X89801429Y-107354819D02*
X89801429Y-106354819D01*
X90134762Y-106354819D02*
X90706190Y-106354819D01*
X90420476Y-107354819D02*
X90420476Y-106354819D01*
X90991905Y-107307200D02*
X91134762Y-107354819D01*
X91134762Y-107354819D02*
X91372857Y-107354819D01*
X91372857Y-107354819D02*
X91468095Y-107307200D01*
X91468095Y-107307200D02*
X91515714Y-107259580D01*
X91515714Y-107259580D02*
X91563333Y-107164342D01*
X91563333Y-107164342D02*
X91563333Y-107069104D01*
X91563333Y-107069104D02*
X91515714Y-106973866D01*
X91515714Y-106973866D02*
X91468095Y-106926247D01*
X91468095Y-106926247D02*
X91372857Y-106878628D01*
X91372857Y-106878628D02*
X91182381Y-106831009D01*
X91182381Y-106831009D02*
X91087143Y-106783390D01*
X91087143Y-106783390D02*
X91039524Y-106735771D01*
X91039524Y-106735771D02*
X90991905Y-106640533D01*
X90991905Y-106640533D02*
X90991905Y-106545295D01*
X90991905Y-106545295D02*
X91039524Y-106450057D01*
X91039524Y-106450057D02*
X91087143Y-106402438D01*
X91087143Y-106402438D02*
X91182381Y-106354819D01*
X91182381Y-106354819D02*
X91420476Y-106354819D01*
X91420476Y-106354819D02*
X91563333Y-106402438D01*
X92182381Y-106354819D02*
X92277619Y-106354819D01*
X92277619Y-106354819D02*
X92372857Y-106402438D01*
X92372857Y-106402438D02*
X92420476Y-106450057D01*
X92420476Y-106450057D02*
X92468095Y-106545295D01*
X92468095Y-106545295D02*
X92515714Y-106735771D01*
X92515714Y-106735771D02*
X92515714Y-106973866D01*
X92515714Y-106973866D02*
X92468095Y-107164342D01*
X92468095Y-107164342D02*
X92420476Y-107259580D01*
X92420476Y-107259580D02*
X92372857Y-107307200D01*
X92372857Y-107307200D02*
X92277619Y-107354819D01*
X92277619Y-107354819D02*
X92182381Y-107354819D01*
X92182381Y-107354819D02*
X92087143Y-107307200D01*
X92087143Y-107307200D02*
X92039524Y-107259580D01*
X92039524Y-107259580D02*
X91991905Y-107164342D01*
X91991905Y-107164342D02*
X91944286Y-106973866D01*
X91944286Y-106973866D02*
X91944286Y-106735771D01*
X91944286Y-106735771D02*
X91991905Y-106545295D01*
X91991905Y-106545295D02*
X92039524Y-106450057D01*
X92039524Y-106450057D02*
X92087143Y-106402438D01*
X92087143Y-106402438D02*
X92182381Y-106354819D01*
X92944286Y-106973866D02*
X93706191Y-106973866D01*
X94087143Y-106354819D02*
X94706190Y-106354819D01*
X94706190Y-106354819D02*
X94372857Y-106735771D01*
X94372857Y-106735771D02*
X94515714Y-106735771D01*
X94515714Y-106735771D02*
X94610952Y-106783390D01*
X94610952Y-106783390D02*
X94658571Y-106831009D01*
X94658571Y-106831009D02*
X94706190Y-106926247D01*
X94706190Y-106926247D02*
X94706190Y-107164342D01*
X94706190Y-107164342D02*
X94658571Y-107259580D01*
X94658571Y-107259580D02*
X94610952Y-107307200D01*
X94610952Y-107307200D02*
X94515714Y-107354819D01*
X94515714Y-107354819D02*
X94230000Y-107354819D01*
X94230000Y-107354819D02*
X94134762Y-107307200D01*
X94134762Y-107307200D02*
X94087143Y-107259580D01*
D12*
X156858572Y-64633609D02*
X157001429Y-64681228D01*
X157001429Y-64681228D02*
X157049048Y-64728847D01*
X157049048Y-64728847D02*
X157096667Y-64824085D01*
X157096667Y-64824085D02*
X157096667Y-64966942D01*
X157096667Y-64966942D02*
X157049048Y-65062180D01*
X157049048Y-65062180D02*
X157001429Y-65109800D01*
X157001429Y-65109800D02*
X156906191Y-65157419D01*
X156906191Y-65157419D02*
X156525239Y-65157419D01*
X156525239Y-65157419D02*
X156525239Y-64157419D01*
X156525239Y-64157419D02*
X156858572Y-64157419D01*
X156858572Y-64157419D02*
X156953810Y-64205038D01*
X156953810Y-64205038D02*
X157001429Y-64252657D01*
X157001429Y-64252657D02*
X157049048Y-64347895D01*
X157049048Y-64347895D02*
X157049048Y-64443133D01*
X157049048Y-64443133D02*
X157001429Y-64538371D01*
X157001429Y-64538371D02*
X156953810Y-64585990D01*
X156953810Y-64585990D02*
X156858572Y-64633609D01*
X156858572Y-64633609D02*
X156525239Y-64633609D01*
X157525239Y-64157419D02*
X157525239Y-64966942D01*
X157525239Y-64966942D02*
X157572858Y-65062180D01*
X157572858Y-65062180D02*
X157620477Y-65109800D01*
X157620477Y-65109800D02*
X157715715Y-65157419D01*
X157715715Y-65157419D02*
X157906191Y-65157419D01*
X157906191Y-65157419D02*
X158001429Y-65109800D01*
X158001429Y-65109800D02*
X158049048Y-65062180D01*
X158049048Y-65062180D02*
X158096667Y-64966942D01*
X158096667Y-64966942D02*
X158096667Y-64157419D01*
X158525239Y-65109800D02*
X158668096Y-65157419D01*
X158668096Y-65157419D02*
X158906191Y-65157419D01*
X158906191Y-65157419D02*
X159001429Y-65109800D01*
X159001429Y-65109800D02*
X159049048Y-65062180D01*
X159049048Y-65062180D02*
X159096667Y-64966942D01*
X159096667Y-64966942D02*
X159096667Y-64871704D01*
X159096667Y-64871704D02*
X159049048Y-64776466D01*
X159049048Y-64776466D02*
X159001429Y-64728847D01*
X159001429Y-64728847D02*
X158906191Y-64681228D01*
X158906191Y-64681228D02*
X158715715Y-64633609D01*
X158715715Y-64633609D02*
X158620477Y-64585990D01*
X158620477Y-64585990D02*
X158572858Y-64538371D01*
X158572858Y-64538371D02*
X158525239Y-64443133D01*
X158525239Y-64443133D02*
X158525239Y-64347895D01*
X158525239Y-64347895D02*
X158572858Y-64252657D01*
X158572858Y-64252657D02*
X158620477Y-64205038D01*
X158620477Y-64205038D02*
X158715715Y-64157419D01*
X158715715Y-64157419D02*
X158953810Y-64157419D01*
X158953810Y-64157419D02*
X159096667Y-64205038D01*
X159477620Y-64252657D02*
X159525239Y-64205038D01*
X159525239Y-64205038D02*
X159620477Y-64157419D01*
X159620477Y-64157419D02*
X159858572Y-64157419D01*
X159858572Y-64157419D02*
X159953810Y-64205038D01*
X159953810Y-64205038D02*
X160001429Y-64252657D01*
X160001429Y-64252657D02*
X160049048Y-64347895D01*
X160049048Y-64347895D02*
X160049048Y-64443133D01*
X160049048Y-64443133D02*
X160001429Y-64585990D01*
X160001429Y-64585990D02*
X159430001Y-65157419D01*
X159430001Y-65157419D02*
X160049048Y-65157419D01*
D10*
X122186009Y-147379999D02*
X122233628Y-147237142D01*
X122233628Y-147237142D02*
X122281247Y-147189523D01*
X122281247Y-147189523D02*
X122376485Y-147141904D01*
X122376485Y-147141904D02*
X122519342Y-147141904D01*
X122519342Y-147141904D02*
X122614580Y-147189523D01*
X122614580Y-147189523D02*
X122662200Y-147237142D01*
X122662200Y-147237142D02*
X122709819Y-147332380D01*
X122709819Y-147332380D02*
X122709819Y-147713332D01*
X122709819Y-147713332D02*
X121709819Y-147713332D01*
X121709819Y-147713332D02*
X121709819Y-147379999D01*
X121709819Y-147379999D02*
X121757438Y-147284761D01*
X121757438Y-147284761D02*
X121805057Y-147237142D01*
X121805057Y-147237142D02*
X121900295Y-147189523D01*
X121900295Y-147189523D02*
X121995533Y-147189523D01*
X121995533Y-147189523D02*
X122090771Y-147237142D01*
X122090771Y-147237142D02*
X122138390Y-147284761D01*
X122138390Y-147284761D02*
X122186009Y-147379999D01*
X122186009Y-147379999D02*
X122186009Y-147713332D01*
X121709819Y-146713332D02*
X122519342Y-146713332D01*
X122519342Y-146713332D02*
X122614580Y-146665713D01*
X122614580Y-146665713D02*
X122662200Y-146618094D01*
X122662200Y-146618094D02*
X122709819Y-146522856D01*
X122709819Y-146522856D02*
X122709819Y-146332380D01*
X122709819Y-146332380D02*
X122662200Y-146237142D01*
X122662200Y-146237142D02*
X122614580Y-146189523D01*
X122614580Y-146189523D02*
X122519342Y-146141904D01*
X122519342Y-146141904D02*
X121709819Y-146141904D01*
X122662200Y-145713332D02*
X122709819Y-145570475D01*
X122709819Y-145570475D02*
X122709819Y-145332380D01*
X122709819Y-145332380D02*
X122662200Y-145237142D01*
X122662200Y-145237142D02*
X122614580Y-145189523D01*
X122614580Y-145189523D02*
X122519342Y-145141904D01*
X122519342Y-145141904D02*
X122424104Y-145141904D01*
X122424104Y-145141904D02*
X122328866Y-145189523D01*
X122328866Y-145189523D02*
X122281247Y-145237142D01*
X122281247Y-145237142D02*
X122233628Y-145332380D01*
X122233628Y-145332380D02*
X122186009Y-145522856D01*
X122186009Y-145522856D02*
X122138390Y-145618094D01*
X122138390Y-145618094D02*
X122090771Y-145665713D01*
X122090771Y-145665713D02*
X121995533Y-145713332D01*
X121995533Y-145713332D02*
X121900295Y-145713332D01*
X121900295Y-145713332D02*
X121805057Y-145665713D01*
X121805057Y-145665713D02*
X121757438Y-145618094D01*
X121757438Y-145618094D02*
X121709819Y-145522856D01*
X121709819Y-145522856D02*
X121709819Y-145284761D01*
X121709819Y-145284761D02*
X121757438Y-145141904D01*
X122709819Y-144189523D02*
X122709819Y-144760951D01*
X122709819Y-144475237D02*
X121709819Y-144475237D01*
X121709819Y-144475237D02*
X121852676Y-144570475D01*
X121852676Y-144570475D02*
X121947914Y-144665713D01*
X121947914Y-144665713D02*
X121995533Y-144760951D01*
X122328866Y-143760951D02*
X122328866Y-142999047D01*
X121805057Y-142570475D02*
X121757438Y-142522856D01*
X121757438Y-142522856D02*
X121709819Y-142427618D01*
X121709819Y-142427618D02*
X121709819Y-142189523D01*
X121709819Y-142189523D02*
X121757438Y-142094285D01*
X121757438Y-142094285D02*
X121805057Y-142046666D01*
X121805057Y-142046666D02*
X121900295Y-141999047D01*
X121900295Y-141999047D02*
X121995533Y-141999047D01*
X121995533Y-141999047D02*
X122138390Y-142046666D01*
X122138390Y-142046666D02*
X122709819Y-142618094D01*
X122709819Y-142618094D02*
X122709819Y-141999047D01*
D12*
X181495238Y-64633609D02*
X181638095Y-64681228D01*
X181638095Y-64681228D02*
X181685714Y-64728847D01*
X181685714Y-64728847D02*
X181733333Y-64824085D01*
X181733333Y-64824085D02*
X181733333Y-64966942D01*
X181733333Y-64966942D02*
X181685714Y-65062180D01*
X181685714Y-65062180D02*
X181638095Y-65109800D01*
X181638095Y-65109800D02*
X181542857Y-65157419D01*
X181542857Y-65157419D02*
X181161905Y-65157419D01*
X181161905Y-65157419D02*
X181161905Y-64157419D01*
X181161905Y-64157419D02*
X181495238Y-64157419D01*
X181495238Y-64157419D02*
X181590476Y-64205038D01*
X181590476Y-64205038D02*
X181638095Y-64252657D01*
X181638095Y-64252657D02*
X181685714Y-64347895D01*
X181685714Y-64347895D02*
X181685714Y-64443133D01*
X181685714Y-64443133D02*
X181638095Y-64538371D01*
X181638095Y-64538371D02*
X181590476Y-64585990D01*
X181590476Y-64585990D02*
X181495238Y-64633609D01*
X181495238Y-64633609D02*
X181161905Y-64633609D01*
X182161905Y-64157419D02*
X182161905Y-64966942D01*
X182161905Y-64966942D02*
X182209524Y-65062180D01*
X182209524Y-65062180D02*
X182257143Y-65109800D01*
X182257143Y-65109800D02*
X182352381Y-65157419D01*
X182352381Y-65157419D02*
X182542857Y-65157419D01*
X182542857Y-65157419D02*
X182638095Y-65109800D01*
X182638095Y-65109800D02*
X182685714Y-65062180D01*
X182685714Y-65062180D02*
X182733333Y-64966942D01*
X182733333Y-64966942D02*
X182733333Y-64157419D01*
X183161905Y-65109800D02*
X183304762Y-65157419D01*
X183304762Y-65157419D02*
X183542857Y-65157419D01*
X183542857Y-65157419D02*
X183638095Y-65109800D01*
X183638095Y-65109800D02*
X183685714Y-65062180D01*
X183685714Y-65062180D02*
X183733333Y-64966942D01*
X183733333Y-64966942D02*
X183733333Y-64871704D01*
X183733333Y-64871704D02*
X183685714Y-64776466D01*
X183685714Y-64776466D02*
X183638095Y-64728847D01*
X183638095Y-64728847D02*
X183542857Y-64681228D01*
X183542857Y-64681228D02*
X183352381Y-64633609D01*
X183352381Y-64633609D02*
X183257143Y-64585990D01*
X183257143Y-64585990D02*
X183209524Y-64538371D01*
X183209524Y-64538371D02*
X183161905Y-64443133D01*
X183161905Y-64443133D02*
X183161905Y-64347895D01*
X183161905Y-64347895D02*
X183209524Y-64252657D01*
X183209524Y-64252657D02*
X183257143Y-64205038D01*
X183257143Y-64205038D02*
X183352381Y-64157419D01*
X183352381Y-64157419D02*
X183590476Y-64157419D01*
X183590476Y-64157419D02*
X183733333Y-64205038D01*
X184066667Y-64157419D02*
X184685714Y-64157419D01*
X184685714Y-64157419D02*
X184352381Y-64538371D01*
X184352381Y-64538371D02*
X184495238Y-64538371D01*
X184495238Y-64538371D02*
X184590476Y-64585990D01*
X184590476Y-64585990D02*
X184638095Y-64633609D01*
X184638095Y-64633609D02*
X184685714Y-64728847D01*
X184685714Y-64728847D02*
X184685714Y-64966942D01*
X184685714Y-64966942D02*
X184638095Y-65062180D01*
X184638095Y-65062180D02*
X184590476Y-65109800D01*
X184590476Y-65109800D02*
X184495238Y-65157419D01*
X184495238Y-65157419D02*
X184209524Y-65157419D01*
X184209524Y-65157419D02*
X184114286Y-65109800D01*
X184114286Y-65109800D02*
X184066667Y-65062180D01*
X132495238Y-64633609D02*
X132638095Y-64681228D01*
X132638095Y-64681228D02*
X132685714Y-64728847D01*
X132685714Y-64728847D02*
X132733333Y-64824085D01*
X132733333Y-64824085D02*
X132733333Y-64966942D01*
X132733333Y-64966942D02*
X132685714Y-65062180D01*
X132685714Y-65062180D02*
X132638095Y-65109800D01*
X132638095Y-65109800D02*
X132542857Y-65157419D01*
X132542857Y-65157419D02*
X132161905Y-65157419D01*
X132161905Y-65157419D02*
X132161905Y-64157419D01*
X132161905Y-64157419D02*
X132495238Y-64157419D01*
X132495238Y-64157419D02*
X132590476Y-64205038D01*
X132590476Y-64205038D02*
X132638095Y-64252657D01*
X132638095Y-64252657D02*
X132685714Y-64347895D01*
X132685714Y-64347895D02*
X132685714Y-64443133D01*
X132685714Y-64443133D02*
X132638095Y-64538371D01*
X132638095Y-64538371D02*
X132590476Y-64585990D01*
X132590476Y-64585990D02*
X132495238Y-64633609D01*
X132495238Y-64633609D02*
X132161905Y-64633609D01*
X133161905Y-64157419D02*
X133161905Y-64966942D01*
X133161905Y-64966942D02*
X133209524Y-65062180D01*
X133209524Y-65062180D02*
X133257143Y-65109800D01*
X133257143Y-65109800D02*
X133352381Y-65157419D01*
X133352381Y-65157419D02*
X133542857Y-65157419D01*
X133542857Y-65157419D02*
X133638095Y-65109800D01*
X133638095Y-65109800D02*
X133685714Y-65062180D01*
X133685714Y-65062180D02*
X133733333Y-64966942D01*
X133733333Y-64966942D02*
X133733333Y-64157419D01*
X134161905Y-65109800D02*
X134304762Y-65157419D01*
X134304762Y-65157419D02*
X134542857Y-65157419D01*
X134542857Y-65157419D02*
X134638095Y-65109800D01*
X134638095Y-65109800D02*
X134685714Y-65062180D01*
X134685714Y-65062180D02*
X134733333Y-64966942D01*
X134733333Y-64966942D02*
X134733333Y-64871704D01*
X134733333Y-64871704D02*
X134685714Y-64776466D01*
X134685714Y-64776466D02*
X134638095Y-64728847D01*
X134638095Y-64728847D02*
X134542857Y-64681228D01*
X134542857Y-64681228D02*
X134352381Y-64633609D01*
X134352381Y-64633609D02*
X134257143Y-64585990D01*
X134257143Y-64585990D02*
X134209524Y-64538371D01*
X134209524Y-64538371D02*
X134161905Y-64443133D01*
X134161905Y-64443133D02*
X134161905Y-64347895D01*
X134161905Y-64347895D02*
X134209524Y-64252657D01*
X134209524Y-64252657D02*
X134257143Y-64205038D01*
X134257143Y-64205038D02*
X134352381Y-64157419D01*
X134352381Y-64157419D02*
X134590476Y-64157419D01*
X134590476Y-64157419D02*
X134733333Y-64205038D01*
X135685714Y-65157419D02*
X135114286Y-65157419D01*
X135400000Y-65157419D02*
X135400000Y-64157419D01*
X135400000Y-64157419D02*
X135304762Y-64300276D01*
X135304762Y-64300276D02*
X135209524Y-64395514D01*
X135209524Y-64395514D02*
X135114286Y-64443133D01*
D10*
X146686009Y-147379999D02*
X146733628Y-147237142D01*
X146733628Y-147237142D02*
X146781247Y-147189523D01*
X146781247Y-147189523D02*
X146876485Y-147141904D01*
X146876485Y-147141904D02*
X147019342Y-147141904D01*
X147019342Y-147141904D02*
X147114580Y-147189523D01*
X147114580Y-147189523D02*
X147162200Y-147237142D01*
X147162200Y-147237142D02*
X147209819Y-147332380D01*
X147209819Y-147332380D02*
X147209819Y-147713332D01*
X147209819Y-147713332D02*
X146209819Y-147713332D01*
X146209819Y-147713332D02*
X146209819Y-147379999D01*
X146209819Y-147379999D02*
X146257438Y-147284761D01*
X146257438Y-147284761D02*
X146305057Y-147237142D01*
X146305057Y-147237142D02*
X146400295Y-147189523D01*
X146400295Y-147189523D02*
X146495533Y-147189523D01*
X146495533Y-147189523D02*
X146590771Y-147237142D01*
X146590771Y-147237142D02*
X146638390Y-147284761D01*
X146638390Y-147284761D02*
X146686009Y-147379999D01*
X146686009Y-147379999D02*
X146686009Y-147713332D01*
X146209819Y-146713332D02*
X147019342Y-146713332D01*
X147019342Y-146713332D02*
X147114580Y-146665713D01*
X147114580Y-146665713D02*
X147162200Y-146618094D01*
X147162200Y-146618094D02*
X147209819Y-146522856D01*
X147209819Y-146522856D02*
X147209819Y-146332380D01*
X147209819Y-146332380D02*
X147162200Y-146237142D01*
X147162200Y-146237142D02*
X147114580Y-146189523D01*
X147114580Y-146189523D02*
X147019342Y-146141904D01*
X147019342Y-146141904D02*
X146209819Y-146141904D01*
X147162200Y-145713332D02*
X147209819Y-145570475D01*
X147209819Y-145570475D02*
X147209819Y-145332380D01*
X147209819Y-145332380D02*
X147162200Y-145237142D01*
X147162200Y-145237142D02*
X147114580Y-145189523D01*
X147114580Y-145189523D02*
X147019342Y-145141904D01*
X147019342Y-145141904D02*
X146924104Y-145141904D01*
X146924104Y-145141904D02*
X146828866Y-145189523D01*
X146828866Y-145189523D02*
X146781247Y-145237142D01*
X146781247Y-145237142D02*
X146733628Y-145332380D01*
X146733628Y-145332380D02*
X146686009Y-145522856D01*
X146686009Y-145522856D02*
X146638390Y-145618094D01*
X146638390Y-145618094D02*
X146590771Y-145665713D01*
X146590771Y-145665713D02*
X146495533Y-145713332D01*
X146495533Y-145713332D02*
X146400295Y-145713332D01*
X146400295Y-145713332D02*
X146305057Y-145665713D01*
X146305057Y-145665713D02*
X146257438Y-145618094D01*
X146257438Y-145618094D02*
X146209819Y-145522856D01*
X146209819Y-145522856D02*
X146209819Y-145284761D01*
X146209819Y-145284761D02*
X146257438Y-145141904D01*
X146305057Y-144760951D02*
X146257438Y-144713332D01*
X146257438Y-144713332D02*
X146209819Y-144618094D01*
X146209819Y-144618094D02*
X146209819Y-144379999D01*
X146209819Y-144379999D02*
X146257438Y-144284761D01*
X146257438Y-144284761D02*
X146305057Y-144237142D01*
X146305057Y-144237142D02*
X146400295Y-144189523D01*
X146400295Y-144189523D02*
X146495533Y-144189523D01*
X146495533Y-144189523D02*
X146638390Y-144237142D01*
X146638390Y-144237142D02*
X147209819Y-144808570D01*
X147209819Y-144808570D02*
X147209819Y-144189523D01*
X146828866Y-143760951D02*
X146828866Y-142999047D01*
X146305057Y-142570475D02*
X146257438Y-142522856D01*
X146257438Y-142522856D02*
X146209819Y-142427618D01*
X146209819Y-142427618D02*
X146209819Y-142189523D01*
X146209819Y-142189523D02*
X146257438Y-142094285D01*
X146257438Y-142094285D02*
X146305057Y-142046666D01*
X146305057Y-142046666D02*
X146400295Y-141999047D01*
X146400295Y-141999047D02*
X146495533Y-141999047D01*
X146495533Y-141999047D02*
X146638390Y-142046666D01*
X146638390Y-142046666D02*
X147209819Y-142618094D01*
X147209819Y-142618094D02*
X147209819Y-141999047D01*
D12*
X105780952Y-65157419D02*
X105780952Y-64157419D01*
X106352380Y-65157419D02*
X105923809Y-64585990D01*
X106352380Y-64157419D02*
X105780952Y-64728847D01*
X106780952Y-64776466D02*
X107542857Y-64776466D01*
X108590475Y-65157419D02*
X108257142Y-64681228D01*
X108019047Y-65157419D02*
X108019047Y-64157419D01*
X108019047Y-64157419D02*
X108399999Y-64157419D01*
X108399999Y-64157419D02*
X108495237Y-64205038D01*
X108495237Y-64205038D02*
X108542856Y-64252657D01*
X108542856Y-64252657D02*
X108590475Y-64347895D01*
X108590475Y-64347895D02*
X108590475Y-64490752D01*
X108590475Y-64490752D02*
X108542856Y-64585990D01*
X108542856Y-64585990D02*
X108495237Y-64633609D01*
X108495237Y-64633609D02*
X108399999Y-64681228D01*
X108399999Y-64681228D02*
X108019047Y-64681228D01*
X109019047Y-64633609D02*
X109352380Y-64633609D01*
X109495237Y-65157419D02*
X109019047Y-65157419D01*
X109019047Y-65157419D02*
X109019047Y-64157419D01*
X109019047Y-64157419D02*
X109495237Y-64157419D01*
X109876190Y-65109800D02*
X110019047Y-65157419D01*
X110019047Y-65157419D02*
X110257142Y-65157419D01*
X110257142Y-65157419D02*
X110352380Y-65109800D01*
X110352380Y-65109800D02*
X110399999Y-65062180D01*
X110399999Y-65062180D02*
X110447618Y-64966942D01*
X110447618Y-64966942D02*
X110447618Y-64871704D01*
X110447618Y-64871704D02*
X110399999Y-64776466D01*
X110399999Y-64776466D02*
X110352380Y-64728847D01*
X110352380Y-64728847D02*
X110257142Y-64681228D01*
X110257142Y-64681228D02*
X110066666Y-64633609D01*
X110066666Y-64633609D02*
X109971428Y-64585990D01*
X109971428Y-64585990D02*
X109923809Y-64538371D01*
X109923809Y-64538371D02*
X109876190Y-64443133D01*
X109876190Y-64443133D02*
X109876190Y-64347895D01*
X109876190Y-64347895D02*
X109923809Y-64252657D01*
X109923809Y-64252657D02*
X109971428Y-64205038D01*
X109971428Y-64205038D02*
X110066666Y-64157419D01*
X110066666Y-64157419D02*
X110304761Y-64157419D01*
X110304761Y-64157419D02*
X110447618Y-64205038D01*
X110876190Y-64633609D02*
X111209523Y-64633609D01*
X111352380Y-65157419D02*
X110876190Y-65157419D01*
X110876190Y-65157419D02*
X110876190Y-64157419D01*
X110876190Y-64157419D02*
X111352380Y-64157419D01*
X111638095Y-64157419D02*
X112209523Y-64157419D01*
X111923809Y-65157419D02*
X111923809Y-64157419D01*
X113066666Y-65157419D02*
X112495238Y-65157419D01*
X112780952Y-65157419D02*
X112780952Y-64157419D01*
X112780952Y-64157419D02*
X112685714Y-64300276D01*
X112685714Y-64300276D02*
X112590476Y-64395514D01*
X112590476Y-64395514D02*
X112495238Y-64443133D01*
D10*
X148386009Y-59444999D02*
X148433628Y-59302142D01*
X148433628Y-59302142D02*
X148481247Y-59254523D01*
X148481247Y-59254523D02*
X148576485Y-59206904D01*
X148576485Y-59206904D02*
X148719342Y-59206904D01*
X148719342Y-59206904D02*
X148814580Y-59254523D01*
X148814580Y-59254523D02*
X148862200Y-59302142D01*
X148862200Y-59302142D02*
X148909819Y-59397380D01*
X148909819Y-59397380D02*
X148909819Y-59778332D01*
X148909819Y-59778332D02*
X147909819Y-59778332D01*
X147909819Y-59778332D02*
X147909819Y-59444999D01*
X147909819Y-59444999D02*
X147957438Y-59349761D01*
X147957438Y-59349761D02*
X148005057Y-59302142D01*
X148005057Y-59302142D02*
X148100295Y-59254523D01*
X148100295Y-59254523D02*
X148195533Y-59254523D01*
X148195533Y-59254523D02*
X148290771Y-59302142D01*
X148290771Y-59302142D02*
X148338390Y-59349761D01*
X148338390Y-59349761D02*
X148386009Y-59444999D01*
X148386009Y-59444999D02*
X148386009Y-59778332D01*
X147909819Y-58778332D02*
X148719342Y-58778332D01*
X148719342Y-58778332D02*
X148814580Y-58730713D01*
X148814580Y-58730713D02*
X148862200Y-58683094D01*
X148862200Y-58683094D02*
X148909819Y-58587856D01*
X148909819Y-58587856D02*
X148909819Y-58397380D01*
X148909819Y-58397380D02*
X148862200Y-58302142D01*
X148862200Y-58302142D02*
X148814580Y-58254523D01*
X148814580Y-58254523D02*
X148719342Y-58206904D01*
X148719342Y-58206904D02*
X147909819Y-58206904D01*
X148862200Y-57778332D02*
X148909819Y-57635475D01*
X148909819Y-57635475D02*
X148909819Y-57397380D01*
X148909819Y-57397380D02*
X148862200Y-57302142D01*
X148862200Y-57302142D02*
X148814580Y-57254523D01*
X148814580Y-57254523D02*
X148719342Y-57206904D01*
X148719342Y-57206904D02*
X148624104Y-57206904D01*
X148624104Y-57206904D02*
X148528866Y-57254523D01*
X148528866Y-57254523D02*
X148481247Y-57302142D01*
X148481247Y-57302142D02*
X148433628Y-57397380D01*
X148433628Y-57397380D02*
X148386009Y-57587856D01*
X148386009Y-57587856D02*
X148338390Y-57683094D01*
X148338390Y-57683094D02*
X148290771Y-57730713D01*
X148290771Y-57730713D02*
X148195533Y-57778332D01*
X148195533Y-57778332D02*
X148100295Y-57778332D01*
X148100295Y-57778332D02*
X148005057Y-57730713D01*
X148005057Y-57730713D02*
X147957438Y-57683094D01*
X147957438Y-57683094D02*
X147909819Y-57587856D01*
X147909819Y-57587856D02*
X147909819Y-57349761D01*
X147909819Y-57349761D02*
X147957438Y-57206904D01*
X148005057Y-56825951D02*
X147957438Y-56778332D01*
X147957438Y-56778332D02*
X147909819Y-56683094D01*
X147909819Y-56683094D02*
X147909819Y-56444999D01*
X147909819Y-56444999D02*
X147957438Y-56349761D01*
X147957438Y-56349761D02*
X148005057Y-56302142D01*
X148005057Y-56302142D02*
X148100295Y-56254523D01*
X148100295Y-56254523D02*
X148195533Y-56254523D01*
X148195533Y-56254523D02*
X148338390Y-56302142D01*
X148338390Y-56302142D02*
X148909819Y-56873570D01*
X148909819Y-56873570D02*
X148909819Y-56254523D01*
X148528866Y-55825951D02*
X148528866Y-55064047D01*
X148909819Y-54064047D02*
X148909819Y-54635475D01*
X148909819Y-54349761D02*
X147909819Y-54349761D01*
X147909819Y-54349761D02*
X148052676Y-54444999D01*
X148052676Y-54444999D02*
X148147914Y-54540237D01*
X148147914Y-54540237D02*
X148195533Y-54635475D01*
X171186009Y-147379999D02*
X171233628Y-147237142D01*
X171233628Y-147237142D02*
X171281247Y-147189523D01*
X171281247Y-147189523D02*
X171376485Y-147141904D01*
X171376485Y-147141904D02*
X171519342Y-147141904D01*
X171519342Y-147141904D02*
X171614580Y-147189523D01*
X171614580Y-147189523D02*
X171662200Y-147237142D01*
X171662200Y-147237142D02*
X171709819Y-147332380D01*
X171709819Y-147332380D02*
X171709819Y-147713332D01*
X171709819Y-147713332D02*
X170709819Y-147713332D01*
X170709819Y-147713332D02*
X170709819Y-147379999D01*
X170709819Y-147379999D02*
X170757438Y-147284761D01*
X170757438Y-147284761D02*
X170805057Y-147237142D01*
X170805057Y-147237142D02*
X170900295Y-147189523D01*
X170900295Y-147189523D02*
X170995533Y-147189523D01*
X170995533Y-147189523D02*
X171090771Y-147237142D01*
X171090771Y-147237142D02*
X171138390Y-147284761D01*
X171138390Y-147284761D02*
X171186009Y-147379999D01*
X171186009Y-147379999D02*
X171186009Y-147713332D01*
X170709819Y-146713332D02*
X171519342Y-146713332D01*
X171519342Y-146713332D02*
X171614580Y-146665713D01*
X171614580Y-146665713D02*
X171662200Y-146618094D01*
X171662200Y-146618094D02*
X171709819Y-146522856D01*
X171709819Y-146522856D02*
X171709819Y-146332380D01*
X171709819Y-146332380D02*
X171662200Y-146237142D01*
X171662200Y-146237142D02*
X171614580Y-146189523D01*
X171614580Y-146189523D02*
X171519342Y-146141904D01*
X171519342Y-146141904D02*
X170709819Y-146141904D01*
X171662200Y-145713332D02*
X171709819Y-145570475D01*
X171709819Y-145570475D02*
X171709819Y-145332380D01*
X171709819Y-145332380D02*
X171662200Y-145237142D01*
X171662200Y-145237142D02*
X171614580Y-145189523D01*
X171614580Y-145189523D02*
X171519342Y-145141904D01*
X171519342Y-145141904D02*
X171424104Y-145141904D01*
X171424104Y-145141904D02*
X171328866Y-145189523D01*
X171328866Y-145189523D02*
X171281247Y-145237142D01*
X171281247Y-145237142D02*
X171233628Y-145332380D01*
X171233628Y-145332380D02*
X171186009Y-145522856D01*
X171186009Y-145522856D02*
X171138390Y-145618094D01*
X171138390Y-145618094D02*
X171090771Y-145665713D01*
X171090771Y-145665713D02*
X170995533Y-145713332D01*
X170995533Y-145713332D02*
X170900295Y-145713332D01*
X170900295Y-145713332D02*
X170805057Y-145665713D01*
X170805057Y-145665713D02*
X170757438Y-145618094D01*
X170757438Y-145618094D02*
X170709819Y-145522856D01*
X170709819Y-145522856D02*
X170709819Y-145284761D01*
X170709819Y-145284761D02*
X170757438Y-145141904D01*
X170709819Y-144808570D02*
X170709819Y-144189523D01*
X170709819Y-144189523D02*
X171090771Y-144522856D01*
X171090771Y-144522856D02*
X171090771Y-144379999D01*
X171090771Y-144379999D02*
X171138390Y-144284761D01*
X171138390Y-144284761D02*
X171186009Y-144237142D01*
X171186009Y-144237142D02*
X171281247Y-144189523D01*
X171281247Y-144189523D02*
X171519342Y-144189523D01*
X171519342Y-144189523D02*
X171614580Y-144237142D01*
X171614580Y-144237142D02*
X171662200Y-144284761D01*
X171662200Y-144284761D02*
X171709819Y-144379999D01*
X171709819Y-144379999D02*
X171709819Y-144665713D01*
X171709819Y-144665713D02*
X171662200Y-144760951D01*
X171662200Y-144760951D02*
X171614580Y-144808570D01*
X171328866Y-143760951D02*
X171328866Y-142999047D01*
X170805057Y-142570475D02*
X170757438Y-142522856D01*
X170757438Y-142522856D02*
X170709819Y-142427618D01*
X170709819Y-142427618D02*
X170709819Y-142189523D01*
X170709819Y-142189523D02*
X170757438Y-142094285D01*
X170757438Y-142094285D02*
X170805057Y-142046666D01*
X170805057Y-142046666D02*
X170900295Y-141999047D01*
X170900295Y-141999047D02*
X170995533Y-141999047D01*
X170995533Y-141999047D02*
X171138390Y-142046666D01*
X171138390Y-142046666D02*
X171709819Y-142618094D01*
X171709819Y-142618094D02*
X171709819Y-141999047D01*
X123886009Y-59444999D02*
X123933628Y-59302142D01*
X123933628Y-59302142D02*
X123981247Y-59254523D01*
X123981247Y-59254523D02*
X124076485Y-59206904D01*
X124076485Y-59206904D02*
X124219342Y-59206904D01*
X124219342Y-59206904D02*
X124314580Y-59254523D01*
X124314580Y-59254523D02*
X124362200Y-59302142D01*
X124362200Y-59302142D02*
X124409819Y-59397380D01*
X124409819Y-59397380D02*
X124409819Y-59778332D01*
X124409819Y-59778332D02*
X123409819Y-59778332D01*
X123409819Y-59778332D02*
X123409819Y-59444999D01*
X123409819Y-59444999D02*
X123457438Y-59349761D01*
X123457438Y-59349761D02*
X123505057Y-59302142D01*
X123505057Y-59302142D02*
X123600295Y-59254523D01*
X123600295Y-59254523D02*
X123695533Y-59254523D01*
X123695533Y-59254523D02*
X123790771Y-59302142D01*
X123790771Y-59302142D02*
X123838390Y-59349761D01*
X123838390Y-59349761D02*
X123886009Y-59444999D01*
X123886009Y-59444999D02*
X123886009Y-59778332D01*
X123409819Y-58778332D02*
X124219342Y-58778332D01*
X124219342Y-58778332D02*
X124314580Y-58730713D01*
X124314580Y-58730713D02*
X124362200Y-58683094D01*
X124362200Y-58683094D02*
X124409819Y-58587856D01*
X124409819Y-58587856D02*
X124409819Y-58397380D01*
X124409819Y-58397380D02*
X124362200Y-58302142D01*
X124362200Y-58302142D02*
X124314580Y-58254523D01*
X124314580Y-58254523D02*
X124219342Y-58206904D01*
X124219342Y-58206904D02*
X123409819Y-58206904D01*
X124362200Y-57778332D02*
X124409819Y-57635475D01*
X124409819Y-57635475D02*
X124409819Y-57397380D01*
X124409819Y-57397380D02*
X124362200Y-57302142D01*
X124362200Y-57302142D02*
X124314580Y-57254523D01*
X124314580Y-57254523D02*
X124219342Y-57206904D01*
X124219342Y-57206904D02*
X124124104Y-57206904D01*
X124124104Y-57206904D02*
X124028866Y-57254523D01*
X124028866Y-57254523D02*
X123981247Y-57302142D01*
X123981247Y-57302142D02*
X123933628Y-57397380D01*
X123933628Y-57397380D02*
X123886009Y-57587856D01*
X123886009Y-57587856D02*
X123838390Y-57683094D01*
X123838390Y-57683094D02*
X123790771Y-57730713D01*
X123790771Y-57730713D02*
X123695533Y-57778332D01*
X123695533Y-57778332D02*
X123600295Y-57778332D01*
X123600295Y-57778332D02*
X123505057Y-57730713D01*
X123505057Y-57730713D02*
X123457438Y-57683094D01*
X123457438Y-57683094D02*
X123409819Y-57587856D01*
X123409819Y-57587856D02*
X123409819Y-57349761D01*
X123409819Y-57349761D02*
X123457438Y-57206904D01*
X124409819Y-56254523D02*
X124409819Y-56825951D01*
X124409819Y-56540237D02*
X123409819Y-56540237D01*
X123409819Y-56540237D02*
X123552676Y-56635475D01*
X123552676Y-56635475D02*
X123647914Y-56730713D01*
X123647914Y-56730713D02*
X123695533Y-56825951D01*
X124028866Y-55825951D02*
X124028866Y-55064047D01*
X124409819Y-54064047D02*
X124409819Y-54635475D01*
X124409819Y-54349761D02*
X123409819Y-54349761D01*
X123409819Y-54349761D02*
X123552676Y-54444999D01*
X123552676Y-54444999D02*
X123647914Y-54540237D01*
X123647914Y-54540237D02*
X123695533Y-54635475D01*
X89134762Y-129331009D02*
X89277619Y-129378628D01*
X89277619Y-129378628D02*
X89325238Y-129426247D01*
X89325238Y-129426247D02*
X89372857Y-129521485D01*
X89372857Y-129521485D02*
X89372857Y-129664342D01*
X89372857Y-129664342D02*
X89325238Y-129759580D01*
X89325238Y-129759580D02*
X89277619Y-129807200D01*
X89277619Y-129807200D02*
X89182381Y-129854819D01*
X89182381Y-129854819D02*
X88801429Y-129854819D01*
X88801429Y-129854819D02*
X88801429Y-128854819D01*
X88801429Y-128854819D02*
X89134762Y-128854819D01*
X89134762Y-128854819D02*
X89230000Y-128902438D01*
X89230000Y-128902438D02*
X89277619Y-128950057D01*
X89277619Y-128950057D02*
X89325238Y-129045295D01*
X89325238Y-129045295D02*
X89325238Y-129140533D01*
X89325238Y-129140533D02*
X89277619Y-129235771D01*
X89277619Y-129235771D02*
X89230000Y-129283390D01*
X89230000Y-129283390D02*
X89134762Y-129331009D01*
X89134762Y-129331009D02*
X88801429Y-129331009D01*
X89801429Y-129854819D02*
X89801429Y-128854819D01*
X90134762Y-128854819D02*
X90706190Y-128854819D01*
X90420476Y-129854819D02*
X90420476Y-128854819D01*
X90991905Y-129807200D02*
X91134762Y-129854819D01*
X91134762Y-129854819D02*
X91372857Y-129854819D01*
X91372857Y-129854819D02*
X91468095Y-129807200D01*
X91468095Y-129807200D02*
X91515714Y-129759580D01*
X91515714Y-129759580D02*
X91563333Y-129664342D01*
X91563333Y-129664342D02*
X91563333Y-129569104D01*
X91563333Y-129569104D02*
X91515714Y-129473866D01*
X91515714Y-129473866D02*
X91468095Y-129426247D01*
X91468095Y-129426247D02*
X91372857Y-129378628D01*
X91372857Y-129378628D02*
X91182381Y-129331009D01*
X91182381Y-129331009D02*
X91087143Y-129283390D01*
X91087143Y-129283390D02*
X91039524Y-129235771D01*
X91039524Y-129235771D02*
X90991905Y-129140533D01*
X90991905Y-129140533D02*
X90991905Y-129045295D01*
X90991905Y-129045295D02*
X91039524Y-128950057D01*
X91039524Y-128950057D02*
X91087143Y-128902438D01*
X91087143Y-128902438D02*
X91182381Y-128854819D01*
X91182381Y-128854819D02*
X91420476Y-128854819D01*
X91420476Y-128854819D02*
X91563333Y-128902438D01*
X91944286Y-128950057D02*
X91991905Y-128902438D01*
X91991905Y-128902438D02*
X92087143Y-128854819D01*
X92087143Y-128854819D02*
X92325238Y-128854819D01*
X92325238Y-128854819D02*
X92420476Y-128902438D01*
X92420476Y-128902438D02*
X92468095Y-128950057D01*
X92468095Y-128950057D02*
X92515714Y-129045295D01*
X92515714Y-129045295D02*
X92515714Y-129140533D01*
X92515714Y-129140533D02*
X92468095Y-129283390D01*
X92468095Y-129283390D02*
X91896667Y-129854819D01*
X91896667Y-129854819D02*
X92515714Y-129854819D01*
X92944286Y-129473866D02*
X93706191Y-129473866D01*
X94087143Y-128854819D02*
X94706190Y-128854819D01*
X94706190Y-128854819D02*
X94372857Y-129235771D01*
X94372857Y-129235771D02*
X94515714Y-129235771D01*
X94515714Y-129235771D02*
X94610952Y-129283390D01*
X94610952Y-129283390D02*
X94658571Y-129331009D01*
X94658571Y-129331009D02*
X94706190Y-129426247D01*
X94706190Y-129426247D02*
X94706190Y-129664342D01*
X94706190Y-129664342D02*
X94658571Y-129759580D01*
X94658571Y-129759580D02*
X94610952Y-129807200D01*
X94610952Y-129807200D02*
X94515714Y-129854819D01*
X94515714Y-129854819D02*
X94230000Y-129854819D01*
X94230000Y-129854819D02*
X94134762Y-129807200D01*
X94134762Y-129807200D02*
X94087143Y-129759580D01*
X172886009Y-59444999D02*
X172933628Y-59302142D01*
X172933628Y-59302142D02*
X172981247Y-59254523D01*
X172981247Y-59254523D02*
X173076485Y-59206904D01*
X173076485Y-59206904D02*
X173219342Y-59206904D01*
X173219342Y-59206904D02*
X173314580Y-59254523D01*
X173314580Y-59254523D02*
X173362200Y-59302142D01*
X173362200Y-59302142D02*
X173409819Y-59397380D01*
X173409819Y-59397380D02*
X173409819Y-59778332D01*
X173409819Y-59778332D02*
X172409819Y-59778332D01*
X172409819Y-59778332D02*
X172409819Y-59444999D01*
X172409819Y-59444999D02*
X172457438Y-59349761D01*
X172457438Y-59349761D02*
X172505057Y-59302142D01*
X172505057Y-59302142D02*
X172600295Y-59254523D01*
X172600295Y-59254523D02*
X172695533Y-59254523D01*
X172695533Y-59254523D02*
X172790771Y-59302142D01*
X172790771Y-59302142D02*
X172838390Y-59349761D01*
X172838390Y-59349761D02*
X172886009Y-59444999D01*
X172886009Y-59444999D02*
X172886009Y-59778332D01*
X172409819Y-58778332D02*
X173219342Y-58778332D01*
X173219342Y-58778332D02*
X173314580Y-58730713D01*
X173314580Y-58730713D02*
X173362200Y-58683094D01*
X173362200Y-58683094D02*
X173409819Y-58587856D01*
X173409819Y-58587856D02*
X173409819Y-58397380D01*
X173409819Y-58397380D02*
X173362200Y-58302142D01*
X173362200Y-58302142D02*
X173314580Y-58254523D01*
X173314580Y-58254523D02*
X173219342Y-58206904D01*
X173219342Y-58206904D02*
X172409819Y-58206904D01*
X173362200Y-57778332D02*
X173409819Y-57635475D01*
X173409819Y-57635475D02*
X173409819Y-57397380D01*
X173409819Y-57397380D02*
X173362200Y-57302142D01*
X173362200Y-57302142D02*
X173314580Y-57254523D01*
X173314580Y-57254523D02*
X173219342Y-57206904D01*
X173219342Y-57206904D02*
X173124104Y-57206904D01*
X173124104Y-57206904D02*
X173028866Y-57254523D01*
X173028866Y-57254523D02*
X172981247Y-57302142D01*
X172981247Y-57302142D02*
X172933628Y-57397380D01*
X172933628Y-57397380D02*
X172886009Y-57587856D01*
X172886009Y-57587856D02*
X172838390Y-57683094D01*
X172838390Y-57683094D02*
X172790771Y-57730713D01*
X172790771Y-57730713D02*
X172695533Y-57778332D01*
X172695533Y-57778332D02*
X172600295Y-57778332D01*
X172600295Y-57778332D02*
X172505057Y-57730713D01*
X172505057Y-57730713D02*
X172457438Y-57683094D01*
X172457438Y-57683094D02*
X172409819Y-57587856D01*
X172409819Y-57587856D02*
X172409819Y-57349761D01*
X172409819Y-57349761D02*
X172457438Y-57206904D01*
X172409819Y-56873570D02*
X172409819Y-56254523D01*
X172409819Y-56254523D02*
X172790771Y-56587856D01*
X172790771Y-56587856D02*
X172790771Y-56444999D01*
X172790771Y-56444999D02*
X172838390Y-56349761D01*
X172838390Y-56349761D02*
X172886009Y-56302142D01*
X172886009Y-56302142D02*
X172981247Y-56254523D01*
X172981247Y-56254523D02*
X173219342Y-56254523D01*
X173219342Y-56254523D02*
X173314580Y-56302142D01*
X173314580Y-56302142D02*
X173362200Y-56349761D01*
X173362200Y-56349761D02*
X173409819Y-56444999D01*
X173409819Y-56444999D02*
X173409819Y-56730713D01*
X173409819Y-56730713D02*
X173362200Y-56825951D01*
X173362200Y-56825951D02*
X173314580Y-56873570D01*
X173028866Y-55825951D02*
X173028866Y-55064047D01*
X173409819Y-54064047D02*
X173409819Y-54635475D01*
X173409819Y-54349761D02*
X172409819Y-54349761D01*
X172409819Y-54349761D02*
X172552676Y-54444999D01*
X172552676Y-54444999D02*
X172647914Y-54540237D01*
X172647914Y-54540237D02*
X172695533Y-54635475D01*
D13*
%TO.C,D5*%
X106630000Y-136040000D02*
X107280000Y-136040000D01*
X107880000Y-134920000D02*
X107880000Y-137160000D01*
X108000000Y-134920000D02*
X108000000Y-137160000D01*
X108120000Y-134920000D02*
X108120000Y-137160000D01*
X112170000Y-136040000D02*
X111520000Y-136040000D01*
X107280000Y-134920000D02*
X111520000Y-134920000D01*
X111520000Y-137160000D01*
X107280000Y-137160000D01*
X107280000Y-134920000D01*
%TO.C,D1*%
X106630000Y-98500000D02*
X107280000Y-98500000D01*
X107880000Y-97380000D02*
X107880000Y-99620000D01*
X108000000Y-97380000D02*
X108000000Y-99620000D01*
X108120000Y-97380000D02*
X108120000Y-99620000D01*
X112170000Y-98500000D02*
X111520000Y-98500000D01*
X107280000Y-97380000D02*
X111520000Y-97380000D01*
X111520000Y-99620000D01*
X107280000Y-99620000D01*
X107280000Y-97380000D01*
%TO.C,BUS1-3*%
X123645000Y-45350000D02*
X123645000Y-48110000D01*
X123645000Y-48110000D02*
X144185000Y-48110000D01*
X123755000Y-50770000D02*
X123755000Y-49500000D01*
X124595000Y-48340000D02*
X124595000Y-48110000D01*
X125025000Y-50770000D02*
X123755000Y-50770000D01*
X125455000Y-48340000D02*
X125455000Y-48110000D01*
X126295000Y-48110000D02*
X126295000Y-45350000D01*
X127135000Y-39350000D02*
X127995000Y-39350000D01*
X127135000Y-45350000D02*
X127135000Y-39350000D01*
X127135000Y-48422642D02*
X127135000Y-48110000D01*
X127995000Y-39350000D02*
X127995000Y-45350000D01*
X127995000Y-48422642D02*
X127995000Y-48110000D01*
X128835000Y-48110000D02*
X128835000Y-45350000D01*
X129675000Y-39350000D02*
X130535000Y-39350000D01*
X129675000Y-45350000D02*
X129675000Y-39350000D01*
X129675000Y-48422642D02*
X129675000Y-48110000D01*
X130535000Y-39350000D02*
X130535000Y-45350000D01*
X130535000Y-48422642D02*
X130535000Y-48110000D01*
X131375000Y-48110000D02*
X131375000Y-45350000D01*
X132215000Y-39350000D02*
X133075000Y-39350000D01*
X132215000Y-45350000D02*
X132215000Y-39350000D01*
X132215000Y-48422642D02*
X132215000Y-48110000D01*
X133075000Y-39350000D02*
X133075000Y-45350000D01*
X133075000Y-48422642D02*
X133075000Y-48110000D01*
X133915000Y-48110000D02*
X133915000Y-45350000D01*
X134755000Y-39350000D02*
X135615000Y-39350000D01*
X134755000Y-45350000D02*
X134755000Y-39350000D01*
X134755000Y-48422642D02*
X134755000Y-48110000D01*
X135615000Y-39350000D02*
X135615000Y-45350000D01*
X135615000Y-48422642D02*
X135615000Y-48110000D01*
X136455000Y-48110000D02*
X136455000Y-45350000D01*
X137295000Y-39350000D02*
X138155000Y-39350000D01*
X137295000Y-45350000D02*
X137295000Y-39350000D01*
X137295000Y-48422642D02*
X137295000Y-48110000D01*
X138155000Y-39350000D02*
X138155000Y-45350000D01*
X138155000Y-48422642D02*
X138155000Y-48110000D01*
X138995000Y-48110000D02*
X138995000Y-45350000D01*
X139835000Y-39350000D02*
X140695000Y-39350000D01*
X139835000Y-45350000D02*
X139835000Y-39350000D01*
X139835000Y-48422642D02*
X139835000Y-48110000D01*
X140695000Y-39350000D02*
X140695000Y-45350000D01*
X140695000Y-48422642D02*
X140695000Y-48110000D01*
X141535000Y-48110000D02*
X141535000Y-45350000D01*
X142375000Y-39350000D02*
X143235000Y-39350000D01*
X142375000Y-45350000D02*
X142375000Y-39350000D01*
X142375000Y-48422642D02*
X142375000Y-48110000D01*
X143235000Y-39350000D02*
X143235000Y-45350000D01*
X143235000Y-48422642D02*
X143235000Y-48110000D01*
X144185000Y-45350000D02*
X123645000Y-45350000D01*
X144185000Y-48110000D02*
X144185000Y-45350000D01*
X124595000Y-45350000D02*
X125455000Y-45350000D01*
X125455000Y-39350000D01*
X124595000Y-39350000D01*
X124595000Y-45350000D01*
G36*
X124595000Y-45350000D02*
G01*
X125455000Y-45350000D01*
X125455000Y-39350000D01*
X124595000Y-39350000D01*
X124595000Y-45350000D01*
G37*
%TO.C,D3*%
X155630000Y-136040000D02*
X156280000Y-136040000D01*
X156880000Y-134920000D02*
X156880000Y-137160000D01*
X157000000Y-134920000D02*
X157000000Y-137160000D01*
X157120000Y-134920000D02*
X157120000Y-137160000D01*
X161170000Y-136040000D02*
X160520000Y-136040000D01*
X156280000Y-134920000D02*
X160520000Y-134920000D01*
X160520000Y-137160000D01*
X156280000Y-137160000D01*
X156280000Y-134920000D01*
%TO.C,D2*%
X180130000Y-136040000D02*
X180780000Y-136040000D01*
X181380000Y-134920000D02*
X181380000Y-137160000D01*
X181500000Y-134920000D02*
X181500000Y-137160000D01*
X181620000Y-134920000D02*
X181620000Y-137160000D01*
X185670000Y-136040000D02*
X185020000Y-136040000D01*
X180780000Y-134920000D02*
X185020000Y-134920000D01*
X185020000Y-137160000D01*
X180780000Y-137160000D01*
X180780000Y-134920000D01*
%TO.C,K0*%
D12*
X172040000Y-103590000D02*
X193760000Y-103590000D01*
X193760000Y-133110000D01*
X172040000Y-133110000D01*
X172040000Y-103590000D01*
D13*
%TO.C,BITS0-3*%
X85780000Y-112500000D02*
X85780000Y-113500000D01*
X85780000Y-113500000D02*
X86780000Y-113000000D01*
X86780000Y-113000000D02*
X85780000Y-112500000D01*
X87170000Y-107790000D02*
X96290000Y-107790000D01*
X87170000Y-114760000D02*
X88480000Y-114760000D01*
X87170000Y-125830000D02*
X87170000Y-107790000D01*
X88480000Y-109090000D02*
X94980000Y-109090000D01*
X88480000Y-114760000D02*
X88480000Y-109090000D01*
X88480000Y-118860000D02*
X87170000Y-118860000D01*
X88480000Y-124530000D02*
X88480000Y-118860000D01*
X94980000Y-109090000D02*
X94980000Y-124530000D01*
X94980000Y-124530000D02*
X88480000Y-124530000D01*
X96290000Y-107790000D02*
X96290000Y-125830000D01*
X96290000Y-125830000D02*
X87170000Y-125830000D01*
%TO.C,BUS2*%
D12*
X147540000Y-65790000D02*
X169260000Y-65790000D01*
X169260000Y-95310000D01*
X147540000Y-95310000D01*
X147540000Y-65790000D01*
D13*
%TO.C,BUS1-2*%
X123695000Y-139390000D02*
X125025000Y-139390000D01*
X123695000Y-140500000D02*
X123695000Y-139390000D01*
X123695000Y-141960000D02*
X144135000Y-141960000D01*
X123695000Y-150590000D02*
X123695000Y-141960000D01*
X123695000Y-150590000D02*
X144135000Y-150590000D01*
X123815000Y-150590000D02*
X123815000Y-141960000D01*
X123933095Y-150590000D02*
X123933095Y-141960000D01*
X124051190Y-150590000D02*
X124051190Y-141960000D01*
X124169285Y-150590000D02*
X124169285Y-141960000D01*
X124287380Y-150590000D02*
X124287380Y-141960000D01*
X124405475Y-150590000D02*
X124405475Y-141960000D01*
X124523570Y-150590000D02*
X124523570Y-141960000D01*
X124641665Y-150590000D02*
X124641665Y-141960000D01*
X124665000Y-141960000D02*
X124665000Y-141610000D01*
X124759760Y-150590000D02*
X124759760Y-141960000D01*
X124877855Y-150590000D02*
X124877855Y-141960000D01*
X124995950Y-150590000D02*
X124995950Y-141960000D01*
X125114045Y-150590000D02*
X125114045Y-141960000D01*
X125232140Y-150590000D02*
X125232140Y-141960000D01*
X125350235Y-150590000D02*
X125350235Y-141960000D01*
X125385000Y-141960000D02*
X125385000Y-141610000D01*
X125468330Y-150590000D02*
X125468330Y-141960000D01*
X125586425Y-150590000D02*
X125586425Y-141960000D01*
X125704520Y-150590000D02*
X125704520Y-141960000D01*
X125822615Y-150590000D02*
X125822615Y-141960000D01*
X125940710Y-150590000D02*
X125940710Y-141960000D01*
X126058805Y-150590000D02*
X126058805Y-141960000D01*
X126176900Y-150590000D02*
X126176900Y-141960000D01*
X126295000Y-150590000D02*
X126295000Y-141960000D01*
X127205000Y-141960000D02*
X127205000Y-141550000D01*
X127925000Y-141960000D02*
X127925000Y-141550000D01*
X128835000Y-150590000D02*
X128835000Y-141960000D01*
X129745000Y-141960000D02*
X129745000Y-141550000D01*
X130465000Y-141960000D02*
X130465000Y-141550000D01*
X131375000Y-150590000D02*
X131375000Y-141960000D01*
X132285000Y-141960000D02*
X132285000Y-141550000D01*
X133005000Y-141960000D02*
X133005000Y-141550000D01*
X133915000Y-150590000D02*
X133915000Y-141960000D01*
X134825000Y-141960000D02*
X134825000Y-141550000D01*
X135545000Y-141960000D02*
X135545000Y-141550000D01*
X136455000Y-150590000D02*
X136455000Y-141960000D01*
X137365000Y-141960000D02*
X137365000Y-141550000D01*
X138085000Y-141960000D02*
X138085000Y-141550000D01*
X138995000Y-150590000D02*
X138995000Y-141960000D01*
X139905000Y-141960000D02*
X139905000Y-141550000D01*
X140625000Y-141960000D02*
X140625000Y-141550000D01*
X141535000Y-150590000D02*
X141535000Y-141960000D01*
X142445000Y-141960000D02*
X142445000Y-141550000D01*
X143165000Y-141960000D02*
X143165000Y-141550000D01*
X144135000Y-150590000D02*
X144135000Y-141960000D01*
%TO.C,BUS3*%
D12*
X172040000Y-65790000D02*
X193760000Y-65790000D01*
X193760000Y-95310000D01*
X172040000Y-95310000D01*
X172040000Y-65790000D01*
%TO.C,BUS1*%
X123040000Y-65790000D02*
X144760000Y-65790000D01*
X144760000Y-95310000D01*
X123040000Y-95310000D01*
X123040000Y-65790000D01*
%TO.C,K3*%
X98540000Y-103640000D02*
X120260000Y-103640000D01*
X120260000Y-133160000D01*
X98540000Y-133160000D01*
X98540000Y-103640000D01*
D13*
%TO.C,BUS2-2*%
X148195000Y-139390000D02*
X149525000Y-139390000D01*
X148195000Y-140500000D02*
X148195000Y-139390000D01*
X148195000Y-141960000D02*
X168635000Y-141960000D01*
X148195000Y-150590000D02*
X148195000Y-141960000D01*
X148195000Y-150590000D02*
X168635000Y-150590000D01*
X148315000Y-150590000D02*
X148315000Y-141960000D01*
X148433095Y-150590000D02*
X148433095Y-141960000D01*
X148551190Y-150590000D02*
X148551190Y-141960000D01*
X148669285Y-150590000D02*
X148669285Y-141960000D01*
X148787380Y-150590000D02*
X148787380Y-141960000D01*
X148905475Y-150590000D02*
X148905475Y-141960000D01*
X149023570Y-150590000D02*
X149023570Y-141960000D01*
X149141665Y-150590000D02*
X149141665Y-141960000D01*
X149165000Y-141960000D02*
X149165000Y-141610000D01*
X149259760Y-150590000D02*
X149259760Y-141960000D01*
X149377855Y-150590000D02*
X149377855Y-141960000D01*
X149495950Y-150590000D02*
X149495950Y-141960000D01*
X149614045Y-150590000D02*
X149614045Y-141960000D01*
X149732140Y-150590000D02*
X149732140Y-141960000D01*
X149850235Y-150590000D02*
X149850235Y-141960000D01*
X149885000Y-141960000D02*
X149885000Y-141610000D01*
X149968330Y-150590000D02*
X149968330Y-141960000D01*
X150086425Y-150590000D02*
X150086425Y-141960000D01*
X150204520Y-150590000D02*
X150204520Y-141960000D01*
X150322615Y-150590000D02*
X150322615Y-141960000D01*
X150440710Y-150590000D02*
X150440710Y-141960000D01*
X150558805Y-150590000D02*
X150558805Y-141960000D01*
X150676900Y-150590000D02*
X150676900Y-141960000D01*
X150795000Y-150590000D02*
X150795000Y-141960000D01*
X151705000Y-141960000D02*
X151705000Y-141550000D01*
X152425000Y-141960000D02*
X152425000Y-141550000D01*
X153335000Y-150590000D02*
X153335000Y-141960000D01*
X154245000Y-141960000D02*
X154245000Y-141550000D01*
X154965000Y-141960000D02*
X154965000Y-141550000D01*
X155875000Y-150590000D02*
X155875000Y-141960000D01*
X156785000Y-141960000D02*
X156785000Y-141550000D01*
X157505000Y-141960000D02*
X157505000Y-141550000D01*
X158415000Y-150590000D02*
X158415000Y-141960000D01*
X159325000Y-141960000D02*
X159325000Y-141550000D01*
X160045000Y-141960000D02*
X160045000Y-141550000D01*
X160955000Y-150590000D02*
X160955000Y-141960000D01*
X161865000Y-141960000D02*
X161865000Y-141550000D01*
X162585000Y-141960000D02*
X162585000Y-141550000D01*
X163495000Y-150590000D02*
X163495000Y-141960000D01*
X164405000Y-141960000D02*
X164405000Y-141550000D01*
X165125000Y-141960000D02*
X165125000Y-141550000D01*
X166035000Y-150590000D02*
X166035000Y-141960000D01*
X166945000Y-141960000D02*
X166945000Y-141550000D01*
X167665000Y-141960000D02*
X167665000Y-141550000D01*
X168635000Y-150590000D02*
X168635000Y-141960000D01*
%TO.C,J3*%
X86280000Y-66380000D02*
X86280000Y-67380000D01*
X86280000Y-67380000D02*
X87280000Y-66880000D01*
X87280000Y-66880000D02*
X86280000Y-66380000D01*
X87670000Y-61670000D02*
X96790000Y-61670000D01*
X87670000Y-68640000D02*
X88980000Y-68640000D01*
X87670000Y-79710000D02*
X87670000Y-61670000D01*
X88980000Y-62970000D02*
X95480000Y-62970000D01*
X88980000Y-68640000D02*
X88980000Y-62970000D01*
X88980000Y-72740000D02*
X87670000Y-72740000D01*
X88980000Y-78410000D02*
X88980000Y-72740000D01*
X95480000Y-62970000D02*
X95480000Y-78410000D01*
X95480000Y-78410000D02*
X88980000Y-78410000D01*
X96790000Y-61670000D02*
X96790000Y-79710000D01*
X96790000Y-79710000D02*
X87670000Y-79710000D01*
%TO.C,D8*%
X180130000Y-98500000D02*
X180780000Y-98500000D01*
X181380000Y-97380000D02*
X181380000Y-99620000D01*
X181500000Y-97380000D02*
X181500000Y-99620000D01*
X181620000Y-97380000D02*
X181620000Y-99620000D01*
X185670000Y-98500000D02*
X185020000Y-98500000D01*
X180780000Y-97380000D02*
X185020000Y-97380000D01*
X185020000Y-99620000D01*
X180780000Y-99620000D01*
X180780000Y-97380000D01*
%TO.C,D6*%
X131130000Y-98500000D02*
X131780000Y-98500000D01*
X132380000Y-97380000D02*
X132380000Y-99620000D01*
X132500000Y-97380000D02*
X132500000Y-99620000D01*
X132620000Y-97380000D02*
X132620000Y-99620000D01*
X136670000Y-98500000D02*
X136020000Y-98500000D01*
X131780000Y-97380000D02*
X136020000Y-97380000D01*
X136020000Y-99620000D01*
X131780000Y-99620000D01*
X131780000Y-97380000D01*
%TO.C,BUS3-3*%
X172645000Y-45350000D02*
X172645000Y-48110000D01*
X172645000Y-48110000D02*
X193185000Y-48110000D01*
X172755000Y-50770000D02*
X172755000Y-49500000D01*
X173595000Y-48340000D02*
X173595000Y-48110000D01*
X174025000Y-50770000D02*
X172755000Y-50770000D01*
X174455000Y-48340000D02*
X174455000Y-48110000D01*
X175295000Y-48110000D02*
X175295000Y-45350000D01*
X176135000Y-39350000D02*
X176995000Y-39350000D01*
X176135000Y-45350000D02*
X176135000Y-39350000D01*
X176135000Y-48422642D02*
X176135000Y-48110000D01*
X176995000Y-39350000D02*
X176995000Y-45350000D01*
X176995000Y-48422642D02*
X176995000Y-48110000D01*
X177835000Y-48110000D02*
X177835000Y-45350000D01*
X178675000Y-39350000D02*
X179535000Y-39350000D01*
X178675000Y-45350000D02*
X178675000Y-39350000D01*
X178675000Y-48422642D02*
X178675000Y-48110000D01*
X179535000Y-39350000D02*
X179535000Y-45350000D01*
X179535000Y-48422642D02*
X179535000Y-48110000D01*
X180375000Y-48110000D02*
X180375000Y-45350000D01*
X181215000Y-39350000D02*
X182075000Y-39350000D01*
X181215000Y-45350000D02*
X181215000Y-39350000D01*
X181215000Y-48422642D02*
X181215000Y-48110000D01*
X182075000Y-39350000D02*
X182075000Y-45350000D01*
X182075000Y-48422642D02*
X182075000Y-48110000D01*
X182915000Y-48110000D02*
X182915000Y-45350000D01*
X183755000Y-39350000D02*
X184615000Y-39350000D01*
X183755000Y-45350000D02*
X183755000Y-39350000D01*
X183755000Y-48422642D02*
X183755000Y-48110000D01*
X184615000Y-39350000D02*
X184615000Y-45350000D01*
X184615000Y-48422642D02*
X184615000Y-48110000D01*
X185455000Y-48110000D02*
X185455000Y-45350000D01*
X186295000Y-39350000D02*
X187155000Y-39350000D01*
X186295000Y-45350000D02*
X186295000Y-39350000D01*
X186295000Y-48422642D02*
X186295000Y-48110000D01*
X187155000Y-39350000D02*
X187155000Y-45350000D01*
X187155000Y-48422642D02*
X187155000Y-48110000D01*
X187995000Y-48110000D02*
X187995000Y-45350000D01*
X188835000Y-39350000D02*
X189695000Y-39350000D01*
X188835000Y-45350000D02*
X188835000Y-39350000D01*
X188835000Y-48422642D02*
X188835000Y-48110000D01*
X189695000Y-39350000D02*
X189695000Y-45350000D01*
X189695000Y-48422642D02*
X189695000Y-48110000D01*
X190535000Y-48110000D02*
X190535000Y-45350000D01*
X191375000Y-39350000D02*
X192235000Y-39350000D01*
X191375000Y-45350000D02*
X191375000Y-39350000D01*
X191375000Y-48422642D02*
X191375000Y-48110000D01*
X192235000Y-39350000D02*
X192235000Y-45350000D01*
X192235000Y-48422642D02*
X192235000Y-48110000D01*
X193185000Y-45350000D02*
X172645000Y-45350000D01*
X193185000Y-48110000D02*
X193185000Y-45350000D01*
X173595000Y-45350000D02*
X174455000Y-45350000D01*
X174455000Y-39350000D01*
X173595000Y-39350000D01*
X173595000Y-45350000D01*
G36*
X173595000Y-45350000D02*
G01*
X174455000Y-45350000D01*
X174455000Y-39350000D01*
X173595000Y-39350000D01*
X173595000Y-45350000D01*
G37*
%TO.C,J2*%
X195230000Y-81855000D02*
X196500000Y-81855000D01*
X195230000Y-83125000D02*
X195230000Y-81855000D01*
X197577358Y-85235000D02*
X197890000Y-85235000D01*
X197577358Y-86095000D02*
X197890000Y-86095000D01*
X197577358Y-87775000D02*
X197890000Y-87775000D01*
X197577358Y-88635000D02*
X197890000Y-88635000D01*
X197577358Y-90315000D02*
X197890000Y-90315000D01*
X197577358Y-91175000D02*
X197890000Y-91175000D01*
X197577358Y-92855000D02*
X197890000Y-92855000D01*
X197577358Y-93715000D02*
X197890000Y-93715000D01*
X197577358Y-95395000D02*
X197890000Y-95395000D01*
X197577358Y-96255000D02*
X197890000Y-96255000D01*
X197577358Y-97935000D02*
X197890000Y-97935000D01*
X197577358Y-98795000D02*
X197890000Y-98795000D01*
X197577358Y-100475000D02*
X197890000Y-100475000D01*
X197577358Y-101335000D02*
X197890000Y-101335000D01*
X197660000Y-82695000D02*
X197890000Y-82695000D01*
X197660000Y-83555000D02*
X197890000Y-83555000D01*
X197890000Y-81745000D02*
X197890000Y-102285000D01*
X197890000Y-84395000D02*
X200650000Y-84395000D01*
X197890000Y-86935000D02*
X200650000Y-86935000D01*
X197890000Y-89475000D02*
X200650000Y-89475000D01*
X197890000Y-92015000D02*
X200650000Y-92015000D01*
X197890000Y-94555000D02*
X200650000Y-94555000D01*
X197890000Y-97095000D02*
X200650000Y-97095000D01*
X197890000Y-99635000D02*
X200650000Y-99635000D01*
X197890000Y-102285000D02*
X200650000Y-102285000D01*
X200650000Y-81745000D02*
X197890000Y-81745000D01*
X200650000Y-85235000D02*
X206650000Y-85235000D01*
X200650000Y-87775000D02*
X206650000Y-87775000D01*
X200650000Y-90315000D02*
X206650000Y-90315000D01*
X200650000Y-92855000D02*
X206650000Y-92855000D01*
X200650000Y-95395000D02*
X206650000Y-95395000D01*
X200650000Y-97935000D02*
X206650000Y-97935000D01*
X200650000Y-100475000D02*
X206650000Y-100475000D01*
X200650000Y-102285000D02*
X200650000Y-81745000D01*
X206650000Y-85235000D02*
X206650000Y-86095000D01*
X206650000Y-86095000D02*
X200650000Y-86095000D01*
X206650000Y-87775000D02*
X206650000Y-88635000D01*
X206650000Y-88635000D02*
X200650000Y-88635000D01*
X206650000Y-90315000D02*
X206650000Y-91175000D01*
X206650000Y-91175000D02*
X200650000Y-91175000D01*
X206650000Y-92855000D02*
X206650000Y-93715000D01*
X206650000Y-93715000D02*
X200650000Y-93715000D01*
X206650000Y-95395000D02*
X206650000Y-96255000D01*
X206650000Y-96255000D02*
X200650000Y-96255000D01*
X206650000Y-97935000D02*
X206650000Y-98795000D01*
X206650000Y-98795000D02*
X200650000Y-98795000D01*
X206650000Y-100475000D02*
X206650000Y-101335000D01*
X206650000Y-101335000D02*
X200650000Y-101335000D01*
X200650000Y-82695000D02*
X206650000Y-82695000D01*
X206650000Y-83555000D01*
X200650000Y-83555000D01*
X200650000Y-82695000D01*
G36*
X200650000Y-82695000D02*
G01*
X206650000Y-82695000D01*
X206650000Y-83555000D01*
X200650000Y-83555000D01*
X200650000Y-82695000D01*
G37*
%TO.C,BUS2-3*%
X148145000Y-45350000D02*
X148145000Y-48110000D01*
X148145000Y-48110000D02*
X168685000Y-48110000D01*
X148255000Y-50770000D02*
X148255000Y-49500000D01*
X149095000Y-48340000D02*
X149095000Y-48110000D01*
X149525000Y-50770000D02*
X148255000Y-50770000D01*
X149955000Y-48340000D02*
X149955000Y-48110000D01*
X150795000Y-48110000D02*
X150795000Y-45350000D01*
X151635000Y-39350000D02*
X152495000Y-39350000D01*
X151635000Y-45350000D02*
X151635000Y-39350000D01*
X151635000Y-48422642D02*
X151635000Y-48110000D01*
X152495000Y-39350000D02*
X152495000Y-45350000D01*
X152495000Y-48422642D02*
X152495000Y-48110000D01*
X153335000Y-48110000D02*
X153335000Y-45350000D01*
X154175000Y-39350000D02*
X155035000Y-39350000D01*
X154175000Y-45350000D02*
X154175000Y-39350000D01*
X154175000Y-48422642D02*
X154175000Y-48110000D01*
X155035000Y-39350000D02*
X155035000Y-45350000D01*
X155035000Y-48422642D02*
X155035000Y-48110000D01*
X155875000Y-48110000D02*
X155875000Y-45350000D01*
X156715000Y-39350000D02*
X157575000Y-39350000D01*
X156715000Y-45350000D02*
X156715000Y-39350000D01*
X156715000Y-48422642D02*
X156715000Y-48110000D01*
X157575000Y-39350000D02*
X157575000Y-45350000D01*
X157575000Y-48422642D02*
X157575000Y-48110000D01*
X158415000Y-48110000D02*
X158415000Y-45350000D01*
X159255000Y-39350000D02*
X160115000Y-39350000D01*
X159255000Y-45350000D02*
X159255000Y-39350000D01*
X159255000Y-48422642D02*
X159255000Y-48110000D01*
X160115000Y-39350000D02*
X160115000Y-45350000D01*
X160115000Y-48422642D02*
X160115000Y-48110000D01*
X160955000Y-48110000D02*
X160955000Y-45350000D01*
X161795000Y-39350000D02*
X162655000Y-39350000D01*
X161795000Y-45350000D02*
X161795000Y-39350000D01*
X161795000Y-48422642D02*
X161795000Y-48110000D01*
X162655000Y-39350000D02*
X162655000Y-45350000D01*
X162655000Y-48422642D02*
X162655000Y-48110000D01*
X163495000Y-48110000D02*
X163495000Y-45350000D01*
X164335000Y-39350000D02*
X165195000Y-39350000D01*
X164335000Y-45350000D02*
X164335000Y-39350000D01*
X164335000Y-48422642D02*
X164335000Y-48110000D01*
X165195000Y-39350000D02*
X165195000Y-45350000D01*
X165195000Y-48422642D02*
X165195000Y-48110000D01*
X166035000Y-48110000D02*
X166035000Y-45350000D01*
X166875000Y-39350000D02*
X167735000Y-39350000D01*
X166875000Y-45350000D02*
X166875000Y-39350000D01*
X166875000Y-48422642D02*
X166875000Y-48110000D01*
X167735000Y-39350000D02*
X167735000Y-45350000D01*
X167735000Y-48422642D02*
X167735000Y-48110000D01*
X168685000Y-45350000D02*
X148145000Y-45350000D01*
X168685000Y-48110000D02*
X168685000Y-45350000D01*
X149095000Y-45350000D02*
X149955000Y-45350000D01*
X149955000Y-39350000D01*
X149095000Y-39350000D01*
X149095000Y-45350000D01*
G36*
X149095000Y-45350000D02*
G01*
X149955000Y-45350000D01*
X149955000Y-39350000D01*
X149095000Y-39350000D01*
X149095000Y-45350000D01*
G37*
%TO.C,D4*%
X131130000Y-136040000D02*
X131780000Y-136040000D01*
X132380000Y-134920000D02*
X132380000Y-137160000D01*
X132500000Y-134920000D02*
X132500000Y-137160000D01*
X132620000Y-134920000D02*
X132620000Y-137160000D01*
X136670000Y-136040000D02*
X136020000Y-136040000D01*
X131780000Y-134920000D02*
X136020000Y-134920000D01*
X136020000Y-137160000D01*
X131780000Y-137160000D01*
X131780000Y-134920000D01*
%TO.C,K-RESET1*%
D12*
X98540000Y-65790000D02*
X120260000Y-65790000D01*
X120260000Y-95310000D01*
X98540000Y-95310000D01*
X98540000Y-65790000D01*
%TO.C,K1*%
X147540000Y-103590000D02*
X169260000Y-103590000D01*
X169260000Y-133110000D01*
X147540000Y-133110000D01*
X147540000Y-103590000D01*
D13*
%TO.C,J1*%
X85810000Y-81795000D02*
X85810000Y-102235000D01*
X85810000Y-81795000D02*
X94440000Y-81795000D01*
X85810000Y-81915000D02*
X94440000Y-81915000D01*
X85810000Y-82033095D02*
X94440000Y-82033095D01*
X85810000Y-82151190D02*
X94440000Y-82151190D01*
X85810000Y-82269285D02*
X94440000Y-82269285D01*
X85810000Y-82387380D02*
X94440000Y-82387380D01*
X85810000Y-82505475D02*
X94440000Y-82505475D01*
X85810000Y-82623570D02*
X94440000Y-82623570D01*
X85810000Y-82741665D02*
X94440000Y-82741665D01*
X85810000Y-82859760D02*
X94440000Y-82859760D01*
X85810000Y-82977855D02*
X94440000Y-82977855D01*
X85810000Y-83095950D02*
X94440000Y-83095950D01*
X85810000Y-83214045D02*
X94440000Y-83214045D01*
X85810000Y-83332140D02*
X94440000Y-83332140D01*
X85810000Y-83450235D02*
X94440000Y-83450235D01*
X85810000Y-83568330D02*
X94440000Y-83568330D01*
X85810000Y-83686425D02*
X94440000Y-83686425D01*
X85810000Y-83804520D02*
X94440000Y-83804520D01*
X85810000Y-83922615D02*
X94440000Y-83922615D01*
X85810000Y-84040710D02*
X94440000Y-84040710D01*
X85810000Y-84158805D02*
X94440000Y-84158805D01*
X85810000Y-84276900D02*
X94440000Y-84276900D01*
X85810000Y-84395000D02*
X94440000Y-84395000D01*
X85810000Y-86935000D02*
X94440000Y-86935000D01*
X85810000Y-89475000D02*
X94440000Y-89475000D01*
X85810000Y-92015000D02*
X94440000Y-92015000D01*
X85810000Y-94555000D02*
X94440000Y-94555000D01*
X85810000Y-97095000D02*
X94440000Y-97095000D01*
X85810000Y-99635000D02*
X94440000Y-99635000D01*
X85810000Y-102235000D02*
X94440000Y-102235000D01*
X94440000Y-81795000D02*
X94440000Y-102235000D01*
X94440000Y-82765000D02*
X94790000Y-82765000D01*
X94440000Y-83485000D02*
X94790000Y-83485000D01*
X94440000Y-85305000D02*
X94850000Y-85305000D01*
X94440000Y-86025000D02*
X94850000Y-86025000D01*
X94440000Y-87845000D02*
X94850000Y-87845000D01*
X94440000Y-88565000D02*
X94850000Y-88565000D01*
X94440000Y-90385000D02*
X94850000Y-90385000D01*
X94440000Y-91105000D02*
X94850000Y-91105000D01*
X94440000Y-92925000D02*
X94850000Y-92925000D01*
X94440000Y-93645000D02*
X94850000Y-93645000D01*
X94440000Y-95465000D02*
X94850000Y-95465000D01*
X94440000Y-96185000D02*
X94850000Y-96185000D01*
X94440000Y-98005000D02*
X94850000Y-98005000D01*
X94440000Y-98725000D02*
X94850000Y-98725000D01*
X94440000Y-100545000D02*
X94850000Y-100545000D01*
X94440000Y-101265000D02*
X94850000Y-101265000D01*
X95900000Y-81795000D02*
X97010000Y-81795000D01*
X97010000Y-81795000D02*
X97010000Y-83125000D01*
%TO.C,BUS2-1*%
X149345000Y-52385000D02*
X167385000Y-52385000D01*
X149345000Y-61505000D02*
X149345000Y-52385000D01*
X150645000Y-53695000D02*
X166085000Y-53695000D01*
X150645000Y-60195000D02*
X150645000Y-53695000D01*
X154055000Y-62895000D02*
X155055000Y-62895000D01*
X154555000Y-61895000D02*
X154055000Y-62895000D01*
X155055000Y-62895000D02*
X154555000Y-61895000D01*
X156315000Y-60195000D02*
X150645000Y-60195000D01*
X156315000Y-61505000D02*
X156315000Y-60195000D01*
X160415000Y-60195000D02*
X160415000Y-61505000D01*
X166085000Y-53695000D02*
X166085000Y-60195000D01*
X166085000Y-60195000D02*
X160415000Y-60195000D01*
X167385000Y-52385000D02*
X167385000Y-61505000D01*
X167385000Y-61505000D02*
X149345000Y-61505000D01*
%TO.C,D7*%
X155630000Y-98500000D02*
X156280000Y-98500000D01*
X156880000Y-97380000D02*
X156880000Y-99620000D01*
X157000000Y-97380000D02*
X157000000Y-99620000D01*
X157120000Y-97380000D02*
X157120000Y-99620000D01*
X161170000Y-98500000D02*
X160520000Y-98500000D01*
X156280000Y-97380000D02*
X160520000Y-97380000D01*
X160520000Y-99620000D01*
X156280000Y-99620000D01*
X156280000Y-97380000D01*
%TO.C,BUS3-2*%
X172695000Y-139390000D02*
X174025000Y-139390000D01*
X172695000Y-140500000D02*
X172695000Y-139390000D01*
X172695000Y-141960000D02*
X193135000Y-141960000D01*
X172695000Y-150590000D02*
X172695000Y-141960000D01*
X172695000Y-150590000D02*
X193135000Y-150590000D01*
X172815000Y-150590000D02*
X172815000Y-141960000D01*
X172933095Y-150590000D02*
X172933095Y-141960000D01*
X173051190Y-150590000D02*
X173051190Y-141960000D01*
X173169285Y-150590000D02*
X173169285Y-141960000D01*
X173287380Y-150590000D02*
X173287380Y-141960000D01*
X173405475Y-150590000D02*
X173405475Y-141960000D01*
X173523570Y-150590000D02*
X173523570Y-141960000D01*
X173641665Y-150590000D02*
X173641665Y-141960000D01*
X173665000Y-141960000D02*
X173665000Y-141610000D01*
X173759760Y-150590000D02*
X173759760Y-141960000D01*
X173877855Y-150590000D02*
X173877855Y-141960000D01*
X173995950Y-150590000D02*
X173995950Y-141960000D01*
X174114045Y-150590000D02*
X174114045Y-141960000D01*
X174232140Y-150590000D02*
X174232140Y-141960000D01*
X174350235Y-150590000D02*
X174350235Y-141960000D01*
X174385000Y-141960000D02*
X174385000Y-141610000D01*
X174468330Y-150590000D02*
X174468330Y-141960000D01*
X174586425Y-150590000D02*
X174586425Y-141960000D01*
X174704520Y-150590000D02*
X174704520Y-141960000D01*
X174822615Y-150590000D02*
X174822615Y-141960000D01*
X174940710Y-150590000D02*
X174940710Y-141960000D01*
X175058805Y-150590000D02*
X175058805Y-141960000D01*
X175176900Y-150590000D02*
X175176900Y-141960000D01*
X175295000Y-150590000D02*
X175295000Y-141960000D01*
X176205000Y-141960000D02*
X176205000Y-141550000D01*
X176925000Y-141960000D02*
X176925000Y-141550000D01*
X177835000Y-150590000D02*
X177835000Y-141960000D01*
X178745000Y-141960000D02*
X178745000Y-141550000D01*
X179465000Y-141960000D02*
X179465000Y-141550000D01*
X180375000Y-150590000D02*
X180375000Y-141960000D01*
X181285000Y-141960000D02*
X181285000Y-141550000D01*
X182005000Y-141960000D02*
X182005000Y-141550000D01*
X182915000Y-150590000D02*
X182915000Y-141960000D01*
X183825000Y-141960000D02*
X183825000Y-141550000D01*
X184545000Y-141960000D02*
X184545000Y-141550000D01*
X185455000Y-150590000D02*
X185455000Y-141960000D01*
X186365000Y-141960000D02*
X186365000Y-141550000D01*
X187085000Y-141960000D02*
X187085000Y-141550000D01*
X187995000Y-150590000D02*
X187995000Y-141960000D01*
X188905000Y-141960000D02*
X188905000Y-141550000D01*
X189625000Y-141960000D02*
X189625000Y-141550000D01*
X190535000Y-150590000D02*
X190535000Y-141960000D01*
X191445000Y-141960000D02*
X191445000Y-141550000D01*
X192165000Y-141960000D02*
X192165000Y-141550000D01*
X193135000Y-150590000D02*
X193135000Y-141960000D01*
%TO.C,BUS1-1*%
X124845000Y-52385000D02*
X142885000Y-52385000D01*
X124845000Y-61505000D02*
X124845000Y-52385000D01*
X126145000Y-53695000D02*
X141585000Y-53695000D01*
X126145000Y-60195000D02*
X126145000Y-53695000D01*
X129555000Y-62895000D02*
X130555000Y-62895000D01*
X130055000Y-61895000D02*
X129555000Y-62895000D01*
X130555000Y-62895000D02*
X130055000Y-61895000D01*
X131815000Y-60195000D02*
X126145000Y-60195000D01*
X131815000Y-61505000D02*
X131815000Y-60195000D01*
X135915000Y-60195000D02*
X135915000Y-61505000D01*
X141585000Y-53695000D02*
X141585000Y-60195000D01*
X141585000Y-60195000D02*
X135915000Y-60195000D01*
X142885000Y-52385000D02*
X142885000Y-61505000D01*
X142885000Y-61505000D02*
X124845000Y-61505000D01*
%TO.C,BITS2-3*%
X85780000Y-135000000D02*
X85780000Y-136000000D01*
X85780000Y-136000000D02*
X86780000Y-135500000D01*
X86780000Y-135500000D02*
X85780000Y-135000000D01*
X87170000Y-130290000D02*
X96290000Y-130290000D01*
X87170000Y-137260000D02*
X88480000Y-137260000D01*
X87170000Y-148330000D02*
X87170000Y-130290000D01*
X88480000Y-131590000D02*
X94980000Y-131590000D01*
X88480000Y-137260000D02*
X88480000Y-131590000D01*
X88480000Y-141360000D02*
X87170000Y-141360000D01*
X88480000Y-147030000D02*
X88480000Y-141360000D01*
X94980000Y-131590000D02*
X94980000Y-147030000D01*
X94980000Y-147030000D02*
X88480000Y-147030000D01*
X96290000Y-130290000D02*
X96290000Y-148330000D01*
X96290000Y-148330000D02*
X87170000Y-148330000D01*
%TO.C,BUS3-1*%
X173845000Y-52385000D02*
X191885000Y-52385000D01*
X173845000Y-61505000D02*
X173845000Y-52385000D01*
X175145000Y-53695000D02*
X190585000Y-53695000D01*
X175145000Y-60195000D02*
X175145000Y-53695000D01*
X178555000Y-62895000D02*
X179555000Y-62895000D01*
X179055000Y-61895000D02*
X178555000Y-62895000D01*
X179555000Y-62895000D02*
X179055000Y-61895000D01*
X180815000Y-60195000D02*
X175145000Y-60195000D01*
X180815000Y-61505000D02*
X180815000Y-60195000D01*
X184915000Y-60195000D02*
X184915000Y-61505000D01*
X190585000Y-53695000D02*
X190585000Y-60195000D01*
X190585000Y-60195000D02*
X184915000Y-60195000D01*
X191885000Y-52385000D02*
X191885000Y-61505000D01*
X191885000Y-61505000D02*
X173845000Y-61505000D01*
%TO.C,K2*%
D12*
X123040000Y-103640000D02*
X144760000Y-103640000D01*
X144760000Y-133160000D01*
X123040000Y-133160000D01*
X123040000Y-103640000D01*
%TD*%
M02*
