%TF.GenerationSoftware,KiCad,Pcbnew,9.0.3-9.0.3-0~ubuntu24.04.1*%
%TF.CreationDate,2026-04-16T11:51:37+03:00*%
%TF.ProjectId,register,72656769-7374-4657-922e-6b696361645f,rev?*%
%TF.SameCoordinates,Original*%
%TF.FileFunction,Legend,Bot*%
%TF.FilePolarity,Positive*%
%FSLAX46Y46*%
G04 Gerber Fmt 4.6, Leading zero omitted, Abs format (unit mm)*
G04 Created by KiCad (PCBNEW 9.0.3-9.0.3-0~ubuntu24.04.1) date 2026-04-16 11:51:37*
%MOMM*%
%LPD*%
G01*
G04 APERTURE LIST*
%ADD10C,0.150000*%
G04 APERTURE END LIST*
D10*
X197282268Y-145527550D02*
X197948935Y-144575169D01*
X198425125Y-145527550D02*
X198425125Y-143527550D01*
X198425125Y-143527550D02*
X197663220Y-143527550D01*
X197663220Y-143527550D02*
X197472744Y-143622788D01*
X197472744Y-143622788D02*
X197377506Y-143718026D01*
X197377506Y-143718026D02*
X197282268Y-143908502D01*
X197282268Y-143908502D02*
X197282268Y-144194216D01*
X197282268Y-144194216D02*
X197377506Y-144384692D01*
X197377506Y-144384692D02*
X197472744Y-144479931D01*
X197472744Y-144479931D02*
X197663220Y-144575169D01*
X197663220Y-144575169D02*
X198425125Y-144575169D01*
X195663220Y-145432312D02*
X195853696Y-145527550D01*
X195853696Y-145527550D02*
X196234649Y-145527550D01*
X196234649Y-145527550D02*
X196425125Y-145432312D01*
X196425125Y-145432312D02*
X196520363Y-145241835D01*
X196520363Y-145241835D02*
X196520363Y-144479931D01*
X196520363Y-144479931D02*
X196425125Y-144289454D01*
X196425125Y-144289454D02*
X196234649Y-144194216D01*
X196234649Y-144194216D02*
X195853696Y-144194216D01*
X195853696Y-144194216D02*
X195663220Y-144289454D01*
X195663220Y-144289454D02*
X195567982Y-144479931D01*
X195567982Y-144479931D02*
X195567982Y-144670407D01*
X195567982Y-144670407D02*
X196520363Y-144860883D01*
X193853696Y-144194216D02*
X193853696Y-145813264D01*
X193853696Y-145813264D02*
X193948934Y-146003740D01*
X193948934Y-146003740D02*
X194044172Y-146098978D01*
X194044172Y-146098978D02*
X194234649Y-146194216D01*
X194234649Y-146194216D02*
X194520363Y-146194216D01*
X194520363Y-146194216D02*
X194710839Y-146098978D01*
X193853696Y-145432312D02*
X194044172Y-145527550D01*
X194044172Y-145527550D02*
X194425125Y-145527550D01*
X194425125Y-145527550D02*
X194615601Y-145432312D01*
X194615601Y-145432312D02*
X194710839Y-145337073D01*
X194710839Y-145337073D02*
X194806077Y-145146597D01*
X194806077Y-145146597D02*
X194806077Y-144575169D01*
X194806077Y-144575169D02*
X194710839Y-144384692D01*
X194710839Y-144384692D02*
X194615601Y-144289454D01*
X194615601Y-144289454D02*
X194425125Y-144194216D01*
X194425125Y-144194216D02*
X194044172Y-144194216D01*
X194044172Y-144194216D02*
X193853696Y-144289454D01*
X192901315Y-145527550D02*
X192901315Y-144194216D01*
X192901315Y-143527550D02*
X192996553Y-143622788D01*
X192996553Y-143622788D02*
X192901315Y-143718026D01*
X192901315Y-143718026D02*
X192806077Y-143622788D01*
X192806077Y-143622788D02*
X192901315Y-143527550D01*
X192901315Y-143527550D02*
X192901315Y-143718026D01*
X192044172Y-145432312D02*
X191853696Y-145527550D01*
X191853696Y-145527550D02*
X191472744Y-145527550D01*
X191472744Y-145527550D02*
X191282267Y-145432312D01*
X191282267Y-145432312D02*
X191187029Y-145241835D01*
X191187029Y-145241835D02*
X191187029Y-145146597D01*
X191187029Y-145146597D02*
X191282267Y-144956121D01*
X191282267Y-144956121D02*
X191472744Y-144860883D01*
X191472744Y-144860883D02*
X191758458Y-144860883D01*
X191758458Y-144860883D02*
X191948934Y-144765645D01*
X191948934Y-144765645D02*
X192044172Y-144575169D01*
X192044172Y-144575169D02*
X192044172Y-144479931D01*
X192044172Y-144479931D02*
X191948934Y-144289454D01*
X191948934Y-144289454D02*
X191758458Y-144194216D01*
X191758458Y-144194216D02*
X191472744Y-144194216D01*
X191472744Y-144194216D02*
X191282267Y-144289454D01*
X190615600Y-144194216D02*
X189853696Y-144194216D01*
X190329886Y-143527550D02*
X190329886Y-145241835D01*
X190329886Y-145241835D02*
X190234648Y-145432312D01*
X190234648Y-145432312D02*
X190044172Y-145527550D01*
X190044172Y-145527550D02*
X189853696Y-145527550D01*
X188425124Y-145432312D02*
X188615600Y-145527550D01*
X188615600Y-145527550D02*
X188996553Y-145527550D01*
X188996553Y-145527550D02*
X189187029Y-145432312D01*
X189187029Y-145432312D02*
X189282267Y-145241835D01*
X189282267Y-145241835D02*
X189282267Y-144479931D01*
X189282267Y-144479931D02*
X189187029Y-144289454D01*
X189187029Y-144289454D02*
X188996553Y-144194216D01*
X188996553Y-144194216D02*
X188615600Y-144194216D01*
X188615600Y-144194216D02*
X188425124Y-144289454D01*
X188425124Y-144289454D02*
X188329886Y-144479931D01*
X188329886Y-144479931D02*
X188329886Y-144670407D01*
X188329886Y-144670407D02*
X189282267Y-144860883D01*
X187472743Y-145527550D02*
X187472743Y-144194216D01*
X187472743Y-144575169D02*
X187377505Y-144384692D01*
X187377505Y-144384692D02*
X187282267Y-144289454D01*
X187282267Y-144289454D02*
X187091791Y-144194216D01*
X187091791Y-144194216D02*
X186901314Y-144194216D01*
X184710838Y-145527550D02*
X184710838Y-143527550D01*
X184710838Y-144289454D02*
X184520362Y-144194216D01*
X184520362Y-144194216D02*
X184139409Y-144194216D01*
X184139409Y-144194216D02*
X183948933Y-144289454D01*
X183948933Y-144289454D02*
X183853695Y-144384692D01*
X183853695Y-144384692D02*
X183758457Y-144575169D01*
X183758457Y-144575169D02*
X183758457Y-145146597D01*
X183758457Y-145146597D02*
X183853695Y-145337073D01*
X183853695Y-145337073D02*
X183948933Y-145432312D01*
X183948933Y-145432312D02*
X184139409Y-145527550D01*
X184139409Y-145527550D02*
X184520362Y-145527550D01*
X184520362Y-145527550D02*
X184710838Y-145432312D01*
X182615600Y-145527550D02*
X182806076Y-145432312D01*
X182806076Y-145432312D02*
X182901314Y-145337073D01*
X182901314Y-145337073D02*
X182996552Y-145146597D01*
X182996552Y-145146597D02*
X182996552Y-144575169D01*
X182996552Y-144575169D02*
X182901314Y-144384692D01*
X182901314Y-144384692D02*
X182806076Y-144289454D01*
X182806076Y-144289454D02*
X182615600Y-144194216D01*
X182615600Y-144194216D02*
X182329885Y-144194216D01*
X182329885Y-144194216D02*
X182139409Y-144289454D01*
X182139409Y-144289454D02*
X182044171Y-144384692D01*
X182044171Y-144384692D02*
X181948933Y-144575169D01*
X181948933Y-144575169D02*
X181948933Y-145146597D01*
X181948933Y-145146597D02*
X182044171Y-145337073D01*
X182044171Y-145337073D02*
X182139409Y-145432312D01*
X182139409Y-145432312D02*
X182329885Y-145527550D01*
X182329885Y-145527550D02*
X182615600Y-145527550D01*
X180234647Y-145527550D02*
X180234647Y-144479931D01*
X180234647Y-144479931D02*
X180329885Y-144289454D01*
X180329885Y-144289454D02*
X180520361Y-144194216D01*
X180520361Y-144194216D02*
X180901314Y-144194216D01*
X180901314Y-144194216D02*
X181091790Y-144289454D01*
X180234647Y-145432312D02*
X180425123Y-145527550D01*
X180425123Y-145527550D02*
X180901314Y-145527550D01*
X180901314Y-145527550D02*
X181091790Y-145432312D01*
X181091790Y-145432312D02*
X181187028Y-145241835D01*
X181187028Y-145241835D02*
X181187028Y-145051359D01*
X181187028Y-145051359D02*
X181091790Y-144860883D01*
X181091790Y-144860883D02*
X180901314Y-144765645D01*
X180901314Y-144765645D02*
X180425123Y-144765645D01*
X180425123Y-144765645D02*
X180234647Y-144670407D01*
X179282266Y-145527550D02*
X179282266Y-144194216D01*
X179282266Y-144575169D02*
X179187028Y-144384692D01*
X179187028Y-144384692D02*
X179091790Y-144289454D01*
X179091790Y-144289454D02*
X178901314Y-144194216D01*
X178901314Y-144194216D02*
X178710837Y-144194216D01*
X177187028Y-145527550D02*
X177187028Y-143527550D01*
X177187028Y-145432312D02*
X177377504Y-145527550D01*
X177377504Y-145527550D02*
X177758457Y-145527550D01*
X177758457Y-145527550D02*
X177948933Y-145432312D01*
X177948933Y-145432312D02*
X178044171Y-145337073D01*
X178044171Y-145337073D02*
X178139409Y-145146597D01*
X178139409Y-145146597D02*
X178139409Y-144575169D01*
X178139409Y-144575169D02*
X178044171Y-144384692D01*
X178044171Y-144384692D02*
X177948933Y-144289454D01*
X177948933Y-144289454D02*
X177758457Y-144194216D01*
X177758457Y-144194216D02*
X177377504Y-144194216D01*
X177377504Y-144194216D02*
X177187028Y-144289454D01*
X174710837Y-145527550D02*
X174710837Y-144194216D01*
X174710837Y-144575169D02*
X174615599Y-144384692D01*
X174615599Y-144384692D02*
X174520361Y-144289454D01*
X174520361Y-144289454D02*
X174329885Y-144194216D01*
X174329885Y-144194216D02*
X174139408Y-144194216D01*
X172710837Y-145432312D02*
X172901313Y-145527550D01*
X172901313Y-145527550D02*
X173282266Y-145527550D01*
X173282266Y-145527550D02*
X173472742Y-145432312D01*
X173472742Y-145432312D02*
X173567980Y-145241835D01*
X173567980Y-145241835D02*
X173567980Y-144479931D01*
X173567980Y-144479931D02*
X173472742Y-144289454D01*
X173472742Y-144289454D02*
X173282266Y-144194216D01*
X173282266Y-144194216D02*
X172901313Y-144194216D01*
X172901313Y-144194216D02*
X172710837Y-144289454D01*
X172710837Y-144289454D02*
X172615599Y-144479931D01*
X172615599Y-144479931D02*
X172615599Y-144670407D01*
X172615599Y-144670407D02*
X173567980Y-144860883D01*
X171948932Y-144194216D02*
X171472742Y-145527550D01*
X171472742Y-145527550D02*
X170996551Y-144194216D01*
X169377503Y-143527550D02*
X169758456Y-143527550D01*
X169758456Y-143527550D02*
X169948932Y-143622788D01*
X169948932Y-143622788D02*
X170044170Y-143718026D01*
X170044170Y-143718026D02*
X170234646Y-144003740D01*
X170234646Y-144003740D02*
X170329884Y-144384692D01*
X170329884Y-144384692D02*
X170329884Y-145146597D01*
X170329884Y-145146597D02*
X170234646Y-145337073D01*
X170234646Y-145337073D02*
X170139408Y-145432312D01*
X170139408Y-145432312D02*
X169948932Y-145527550D01*
X169948932Y-145527550D02*
X169567979Y-145527550D01*
X169567979Y-145527550D02*
X169377503Y-145432312D01*
X169377503Y-145432312D02*
X169282265Y-145337073D01*
X169282265Y-145337073D02*
X169187027Y-145146597D01*
X169187027Y-145146597D02*
X169187027Y-144670407D01*
X169187027Y-144670407D02*
X169282265Y-144479931D01*
X169282265Y-144479931D02*
X169377503Y-144384692D01*
X169377503Y-144384692D02*
X169567979Y-144289454D01*
X169567979Y-144289454D02*
X169948932Y-144289454D01*
X169948932Y-144289454D02*
X170139408Y-144384692D01*
X170139408Y-144384692D02*
X170234646Y-144479931D01*
X170234646Y-144479931D02*
X170329884Y-144670407D01*
X198425125Y-148747438D02*
X198425125Y-146747438D01*
X198425125Y-146747438D02*
X197663220Y-146747438D01*
X197663220Y-146747438D02*
X197472744Y-146842676D01*
X197472744Y-146842676D02*
X197377506Y-146937914D01*
X197377506Y-146937914D02*
X197282268Y-147128390D01*
X197282268Y-147128390D02*
X197282268Y-147414104D01*
X197282268Y-147414104D02*
X197377506Y-147604580D01*
X197377506Y-147604580D02*
X197472744Y-147699819D01*
X197472744Y-147699819D02*
X197663220Y-147795057D01*
X197663220Y-147795057D02*
X198425125Y-147795057D01*
X196425125Y-148556961D02*
X196329887Y-148652200D01*
X196329887Y-148652200D02*
X196425125Y-148747438D01*
X196425125Y-148747438D02*
X196520363Y-148652200D01*
X196520363Y-148652200D02*
X196425125Y-148556961D01*
X196425125Y-148556961D02*
X196425125Y-148747438D01*
X193948934Y-148747438D02*
X193948934Y-146747438D01*
X193948934Y-146747438D02*
X193472744Y-146747438D01*
X193472744Y-146747438D02*
X193187029Y-146842676D01*
X193187029Y-146842676D02*
X192996553Y-147033152D01*
X192996553Y-147033152D02*
X192901315Y-147223628D01*
X192901315Y-147223628D02*
X192806077Y-147604580D01*
X192806077Y-147604580D02*
X192806077Y-147890295D01*
X192806077Y-147890295D02*
X192901315Y-148271247D01*
X192901315Y-148271247D02*
X192996553Y-148461723D01*
X192996553Y-148461723D02*
X193187029Y-148652200D01*
X193187029Y-148652200D02*
X193472744Y-148747438D01*
X193472744Y-148747438D02*
X193948934Y-148747438D01*
X191663220Y-148747438D02*
X191853696Y-148652200D01*
X191853696Y-148652200D02*
X191948934Y-148556961D01*
X191948934Y-148556961D02*
X192044172Y-148366485D01*
X192044172Y-148366485D02*
X192044172Y-147795057D01*
X192044172Y-147795057D02*
X191948934Y-147604580D01*
X191948934Y-147604580D02*
X191853696Y-147509342D01*
X191853696Y-147509342D02*
X191663220Y-147414104D01*
X191663220Y-147414104D02*
X191377505Y-147414104D01*
X191377505Y-147414104D02*
X191187029Y-147509342D01*
X191187029Y-147509342D02*
X191091791Y-147604580D01*
X191091791Y-147604580D02*
X190996553Y-147795057D01*
X190996553Y-147795057D02*
X190996553Y-148366485D01*
X190996553Y-148366485D02*
X191091791Y-148556961D01*
X191091791Y-148556961D02*
X191187029Y-148652200D01*
X191187029Y-148652200D02*
X191377505Y-148747438D01*
X191377505Y-148747438D02*
X191663220Y-148747438D01*
X190329886Y-147414104D02*
X189853696Y-148747438D01*
X189853696Y-148747438D02*
X189377505Y-147414104D01*
X187758457Y-147414104D02*
X187758457Y-149033152D01*
X187758457Y-149033152D02*
X187853695Y-149223628D01*
X187853695Y-149223628D02*
X187948933Y-149318866D01*
X187948933Y-149318866D02*
X188139410Y-149414104D01*
X188139410Y-149414104D02*
X188425124Y-149414104D01*
X188425124Y-149414104D02*
X188615600Y-149318866D01*
X187758457Y-148652200D02*
X187948933Y-148747438D01*
X187948933Y-148747438D02*
X188329886Y-148747438D01*
X188329886Y-148747438D02*
X188520362Y-148652200D01*
X188520362Y-148652200D02*
X188615600Y-148556961D01*
X188615600Y-148556961D02*
X188710838Y-148366485D01*
X188710838Y-148366485D02*
X188710838Y-147795057D01*
X188710838Y-147795057D02*
X188615600Y-147604580D01*
X188615600Y-147604580D02*
X188520362Y-147509342D01*
X188520362Y-147509342D02*
X188329886Y-147414104D01*
X188329886Y-147414104D02*
X187948933Y-147414104D01*
X187948933Y-147414104D02*
X187758457Y-147509342D01*
X185948933Y-148747438D02*
X185948933Y-147699819D01*
X185948933Y-147699819D02*
X186044171Y-147509342D01*
X186044171Y-147509342D02*
X186234647Y-147414104D01*
X186234647Y-147414104D02*
X186615600Y-147414104D01*
X186615600Y-147414104D02*
X186806076Y-147509342D01*
X185948933Y-148652200D02*
X186139409Y-148747438D01*
X186139409Y-148747438D02*
X186615600Y-148747438D01*
X186615600Y-148747438D02*
X186806076Y-148652200D01*
X186806076Y-148652200D02*
X186901314Y-148461723D01*
X186901314Y-148461723D02*
X186901314Y-148271247D01*
X186901314Y-148271247D02*
X186806076Y-148080771D01*
X186806076Y-148080771D02*
X186615600Y-147985533D01*
X186615600Y-147985533D02*
X186139409Y-147985533D01*
X186139409Y-147985533D02*
X185948933Y-147890295D01*
X184710838Y-148747438D02*
X184901314Y-148652200D01*
X184901314Y-148652200D02*
X184996552Y-148461723D01*
X184996552Y-148461723D02*
X184996552Y-146747438D01*
X184139409Y-147414104D02*
X183663219Y-148747438D01*
X183187028Y-147414104D02*
X183663219Y-148747438D01*
X183663219Y-148747438D02*
X183853695Y-149223628D01*
X183853695Y-149223628D02*
X183948933Y-149318866D01*
X183948933Y-149318866D02*
X184139409Y-149414104D01*
X181567980Y-147414104D02*
X181567980Y-148747438D01*
X182425123Y-147414104D02*
X182425123Y-148461723D01*
X182425123Y-148461723D02*
X182329885Y-148652200D01*
X182329885Y-148652200D02*
X182139409Y-148747438D01*
X182139409Y-148747438D02*
X181853694Y-148747438D01*
X181853694Y-148747438D02*
X181663218Y-148652200D01*
X181663218Y-148652200D02*
X181567980Y-148556961D01*
X180615599Y-148747438D02*
X180615599Y-146747438D01*
X180425123Y-147985533D02*
X179853694Y-148747438D01*
X179853694Y-147414104D02*
X180615599Y-148176009D01*
X178901313Y-148652200D02*
X178901313Y-148747438D01*
X178901313Y-148747438D02*
X178996551Y-148937914D01*
X178996551Y-148937914D02*
X179091789Y-149033152D01*
X176615598Y-146937914D02*
X176520360Y-146842676D01*
X176520360Y-146842676D02*
X176329884Y-146747438D01*
X176329884Y-146747438D02*
X175853693Y-146747438D01*
X175853693Y-146747438D02*
X175663217Y-146842676D01*
X175663217Y-146842676D02*
X175567979Y-146937914D01*
X175567979Y-146937914D02*
X175472741Y-147128390D01*
X175472741Y-147128390D02*
X175472741Y-147318866D01*
X175472741Y-147318866D02*
X175567979Y-147604580D01*
X175567979Y-147604580D02*
X176710836Y-148747438D01*
X176710836Y-148747438D02*
X175472741Y-148747438D01*
X174234646Y-146747438D02*
X174044169Y-146747438D01*
X174044169Y-146747438D02*
X173853693Y-146842676D01*
X173853693Y-146842676D02*
X173758455Y-146937914D01*
X173758455Y-146937914D02*
X173663217Y-147128390D01*
X173663217Y-147128390D02*
X173567979Y-147509342D01*
X173567979Y-147509342D02*
X173567979Y-147985533D01*
X173567979Y-147985533D02*
X173663217Y-148366485D01*
X173663217Y-148366485D02*
X173758455Y-148556961D01*
X173758455Y-148556961D02*
X173853693Y-148652200D01*
X173853693Y-148652200D02*
X174044169Y-148747438D01*
X174044169Y-148747438D02*
X174234646Y-148747438D01*
X174234646Y-148747438D02*
X174425122Y-148652200D01*
X174425122Y-148652200D02*
X174520360Y-148556961D01*
X174520360Y-148556961D02*
X174615598Y-148366485D01*
X174615598Y-148366485D02*
X174710836Y-147985533D01*
X174710836Y-147985533D02*
X174710836Y-147509342D01*
X174710836Y-147509342D02*
X174615598Y-147128390D01*
X174615598Y-147128390D02*
X174520360Y-146937914D01*
X174520360Y-146937914D02*
X174425122Y-146842676D01*
X174425122Y-146842676D02*
X174234646Y-146747438D01*
X172806074Y-146937914D02*
X172710836Y-146842676D01*
X172710836Y-146842676D02*
X172520360Y-146747438D01*
X172520360Y-146747438D02*
X172044169Y-146747438D01*
X172044169Y-146747438D02*
X171853693Y-146842676D01*
X171853693Y-146842676D02*
X171758455Y-146937914D01*
X171758455Y-146937914D02*
X171663217Y-147128390D01*
X171663217Y-147128390D02*
X171663217Y-147318866D01*
X171663217Y-147318866D02*
X171758455Y-147604580D01*
X171758455Y-147604580D02*
X172901312Y-148747438D01*
X172901312Y-148747438D02*
X171663217Y-148747438D01*
X169948931Y-146747438D02*
X170329884Y-146747438D01*
X170329884Y-146747438D02*
X170520360Y-146842676D01*
X170520360Y-146842676D02*
X170615598Y-146937914D01*
X170615598Y-146937914D02*
X170806074Y-147223628D01*
X170806074Y-147223628D02*
X170901312Y-147604580D01*
X170901312Y-147604580D02*
X170901312Y-148366485D01*
X170901312Y-148366485D02*
X170806074Y-148556961D01*
X170806074Y-148556961D02*
X170710836Y-148652200D01*
X170710836Y-148652200D02*
X170520360Y-148747438D01*
X170520360Y-148747438D02*
X170139407Y-148747438D01*
X170139407Y-148747438D02*
X169948931Y-148652200D01*
X169948931Y-148652200D02*
X169853693Y-148556961D01*
X169853693Y-148556961D02*
X169758455Y-148366485D01*
X169758455Y-148366485D02*
X169758455Y-147890295D01*
X169758455Y-147890295D02*
X169853693Y-147699819D01*
X169853693Y-147699819D02*
X169948931Y-147604580D01*
X169948931Y-147604580D02*
X170139407Y-147509342D01*
X170139407Y-147509342D02*
X170520360Y-147509342D01*
X170520360Y-147509342D02*
X170710836Y-147604580D01*
X170710836Y-147604580D02*
X170806074Y-147699819D01*
X170806074Y-147699819D02*
X170901312Y-147890295D01*
M02*
