%TF.GenerationSoftware,KiCad,Pcbnew,9.0.3-9.0.3-0~ubuntu24.04.1*%
%TF.CreationDate,2026-03-12T12:19:26+03:00*%
%TF.ProjectId,register,72656769-7374-4657-922e-6b696361645f,rev?*%
%TF.SameCoordinates,Original*%
%TF.FileFunction,Copper,L2,Bot*%
%TF.FilePolarity,Positive*%
%FSLAX46Y46*%
G04 Gerber Fmt 4.6, Leading zero omitted, Abs format (unit mm)*
G04 Created by KiCad (PCBNEW 9.0.3-9.0.3-0~ubuntu24.04.1) date 2026-03-12 12:19:26*
%MOMM*%
%LPD*%
G01*
G04 APERTURE LIST*
G04 Aperture macros list*
%AMRoundRect*
0 Rectangle with rounded corners*
0 $1 Rounding radius*
0 $2 $3 $4 $5 $6 $7 $8 $9 X,Y pos of 4 corners*
0 Add a 4 corners polygon primitive as box body*
4,1,4,$2,$3,$4,$5,$6,$7,$8,$9,$2,$3,0*
0 Add four circle primitives for the rounded corners*
1,1,$1+$1,$2,$3*
1,1,$1+$1,$4,$5*
1,1,$1+$1,$6,$7*
1,1,$1+$1,$8,$9*
0 Add four rect primitives between the rounded corners*
20,1,$1+$1,$2,$3,$4,$5,0*
20,1,$1+$1,$4,$5,$6,$7,0*
20,1,$1+$1,$6,$7,$8,$9,0*
20,1,$1+$1,$8,$9,$2,$3,0*%
G04 Aperture macros list end*
%TA.AperFunction,ComponentPad*%
%ADD10RoundRect,0.250000X-0.550000X-0.550000X0.550000X-0.550000X0.550000X0.550000X-0.550000X0.550000X0*%
%TD*%
%TA.AperFunction,ComponentPad*%
%ADD11C,1.600000*%
%TD*%
%TA.AperFunction,ComponentPad*%
%ADD12R,1.700000X1.700000*%
%TD*%
%TA.AperFunction,ComponentPad*%
%ADD13C,1.700000*%
%TD*%
%TA.AperFunction,ComponentPad*%
%ADD14C,2.100000*%
%TD*%
%TA.AperFunction,ComponentPad*%
%ADD15RoundRect,0.250000X-0.600000X-0.600000X0.600000X-0.600000X0.600000X0.600000X-0.600000X0.600000X0*%
%TD*%
%TA.AperFunction,ComponentPad*%
%ADD16RoundRect,0.250000X0.600000X-0.600000X0.600000X0.600000X-0.600000X0.600000X-0.600000X-0.600000X0*%
%TD*%
%TA.AperFunction,Conductor*%
%ADD17C,0.500000*%
%TD*%
%TA.AperFunction,Conductor*%
%ADD18C,0.250000*%
%TD*%
G04 APERTURE END LIST*
D10*
%TO.P,D5,1,K*%
%TO.N,/D3*%
X105590000Y-136040000D03*
D11*
%TO.P,D5,2,A*%
%TO.N,GND*%
X113210000Y-136040000D03*
%TD*%
D10*
%TO.P,D1,1,K*%
%TO.N,Net-(D1-K)*%
X105590000Y-98500000D03*
D11*
%TO.P,D1,2,A*%
%TO.N,GND*%
X113210000Y-98500000D03*
%TD*%
D12*
%TO.P,BUS1-3,1,+V*%
%TO.N,Net-(BITS0-3-+V)*%
X125025000Y-49500000D03*
D13*
%TO.P,BUS1-3,2,D0*%
%TO.N,Net-(BUS1-1-D0)*%
X127565000Y-49500000D03*
%TO.P,BUS1-3,3,D1*%
%TO.N,Net-(BUS1-1-D1)*%
X130105000Y-49500000D03*
%TO.P,BUS1-3,4,D2*%
%TO.N,Net-(BUS1-1-D2)*%
X132645000Y-49500000D03*
%TO.P,BUS1-3,5,D3*%
%TO.N,Net-(BUS1-1-D3)*%
X135185000Y-49500000D03*
%TO.P,BUS1-3,6,NC*%
%TO.N,unconnected-(BUS1-3-NC-Pad6)*%
X137725000Y-49500000D03*
%TO.P,BUS1-3,7,NC*%
%TO.N,unconnected-(BUS1-3-NC-Pad7)*%
X140265000Y-49500000D03*
%TO.P,BUS1-3,8,GND*%
%TO.N,GND*%
X142805000Y-49500000D03*
%TD*%
D10*
%TO.P,D3,1,K*%
%TO.N,/D1*%
X154590000Y-136040000D03*
D11*
%TO.P,D3,2,A*%
%TO.N,GND*%
X162210000Y-136040000D03*
%TD*%
D10*
%TO.P,D2,1,K*%
%TO.N,/D0*%
X179090000Y-136040000D03*
D11*
%TO.P,D2,2,A*%
%TO.N,GND*%
X186710000Y-136040000D03*
%TD*%
D14*
%TO.P,K0,1*%
%TO.N,unconnected-(K0-Pad1)*%
X189500000Y-109500000D03*
%TO.P,K0,2*%
%TO.N,unconnected-(K0-Pad2)*%
X185100000Y-109500000D03*
%TO.P,K0,3*%
%TO.N,unconnected-(K0-Pad3)*%
X180700000Y-109500000D03*
%TO.P,K0,4*%
%TO.N,unconnected-(K0-Pad4)*%
X176300000Y-109500000D03*
%TO.P,K0,5*%
%TO.N,Net-(K-RESET1-Pad1)*%
X189500000Y-113600000D03*
%TO.P,K0,6*%
X185100000Y-113600000D03*
%TO.P,K0,7*%
X180700000Y-113600000D03*
%TO.P,K0,8*%
X176300000Y-113600000D03*
%TO.P,K0,9*%
%TO.N,/D0*%
X189500000Y-119950000D03*
%TO.P,K0,10*%
X185100000Y-119950000D03*
%TO.P,K0,11*%
X180700000Y-119950000D03*
%TO.P,K0,12*%
X176300000Y-119950000D03*
%TO.P,K0,13*%
%TO.N,GND*%
X189500000Y-126300000D03*
%TO.P,K0,14*%
%TO.N,/D0*%
X176300000Y-126300000D03*
%TD*%
D15*
%TO.P,BITS0-3,1,+V*%
%TO.N,Net-(BITS0-3-+V)*%
X90460000Y-113000000D03*
D13*
%TO.P,BITS0-3,2,D0*%
%TO.N,/D0*%
X93000000Y-113000000D03*
%TO.P,BITS0-3,3,D1*%
%TO.N,/D1*%
X90460000Y-115540000D03*
%TO.P,BITS0-3,4,D2*%
%TO.N,/D2*%
X93000000Y-115540000D03*
%TO.P,BITS0-3,5,D3*%
%TO.N,/D3*%
X90460000Y-118080000D03*
%TO.P,BITS0-3,6,NC*%
%TO.N,unconnected-(BITS0-3-NC-Pad6)*%
X93000000Y-118080000D03*
%TO.P,BITS0-3,7,NC*%
%TO.N,unconnected-(BITS0-3-NC-Pad7)*%
X90460000Y-120620000D03*
%TO.P,BITS0-3,8,GND*%
%TO.N,GND*%
X93000000Y-120620000D03*
%TD*%
D14*
%TO.P,BUS2,1*%
%TO.N,unconnected-(BUS2-Pad1)*%
X165000000Y-71700000D03*
%TO.P,BUS2,2*%
%TO.N,unconnected-(BUS2-Pad2)*%
X160600000Y-71700000D03*
%TO.P,BUS2,3*%
%TO.N,unconnected-(BUS2-Pad3)*%
X156200000Y-71700000D03*
%TO.P,BUS2,4*%
%TO.N,unconnected-(BUS2-Pad4)*%
X151800000Y-71700000D03*
%TO.P,BUS2,5*%
%TO.N,Net-(BUS2-1-D3)*%
X165000000Y-75800000D03*
%TO.P,BUS2,6*%
%TO.N,Net-(BUS2-1-D2)*%
X160600000Y-75800000D03*
%TO.P,BUS2,7*%
%TO.N,Net-(BUS2-1-D1)*%
X156200000Y-75800000D03*
%TO.P,BUS2,8*%
%TO.N,Net-(BUS2-1-D0)*%
X151800000Y-75800000D03*
%TO.P,BUS2,9*%
%TO.N,/D3*%
X165000000Y-82150000D03*
%TO.P,BUS2,10*%
%TO.N,/D2*%
X160600000Y-82150000D03*
%TO.P,BUS2,11*%
%TO.N,/D1*%
X156200000Y-82150000D03*
%TO.P,BUS2,12*%
%TO.N,/D0*%
X151800000Y-82150000D03*
%TO.P,BUS2,13*%
%TO.N,GND*%
X165000000Y-88500000D03*
%TO.P,BUS2,14*%
%TO.N,Net-(D7-K)*%
X151800000Y-88500000D03*
%TD*%
D12*
%TO.P,BUS1-2,1,+V*%
%TO.N,Net-(BITS0-3-+V)*%
X125025000Y-140500000D03*
D13*
%TO.P,BUS1-2,2,D0*%
%TO.N,Net-(BUS1-1-D0)*%
X127565000Y-140500000D03*
%TO.P,BUS1-2,3,D1*%
%TO.N,Net-(BUS1-1-D1)*%
X130105000Y-140500000D03*
%TO.P,BUS1-2,4,D2*%
%TO.N,Net-(BUS1-1-D2)*%
X132645000Y-140500000D03*
%TO.P,BUS1-2,5,D3*%
%TO.N,Net-(BUS1-1-D3)*%
X135185000Y-140500000D03*
%TO.P,BUS1-2,6,NC*%
%TO.N,unconnected-(BUS1-2-NC-Pad6)*%
X137725000Y-140500000D03*
%TO.P,BUS1-2,7,NC*%
%TO.N,unconnected-(BUS1-2-NC-Pad7)*%
X140265000Y-140500000D03*
%TO.P,BUS1-2,8,GND*%
%TO.N,GND*%
X142805000Y-140500000D03*
%TD*%
D14*
%TO.P,BUS3,1*%
%TO.N,unconnected-(BUS3-Pad1)*%
X189500000Y-71700000D03*
%TO.P,BUS3,2*%
%TO.N,unconnected-(BUS3-Pad2)*%
X185100000Y-71700000D03*
%TO.P,BUS3,3*%
%TO.N,unconnected-(BUS3-Pad3)*%
X180700000Y-71700000D03*
%TO.P,BUS3,4*%
%TO.N,unconnected-(BUS3-Pad4)*%
X176300000Y-71700000D03*
%TO.P,BUS3,5*%
%TO.N,Net-(BUS3-1-D3)*%
X189500000Y-75800000D03*
%TO.P,BUS3,6*%
%TO.N,Net-(BUS3-1-D2)*%
X185100000Y-75800000D03*
%TO.P,BUS3,7*%
%TO.N,Net-(BUS3-1-D1)*%
X180700000Y-75800000D03*
%TO.P,BUS3,8*%
%TO.N,Net-(BUS3-1-D0)*%
X176300000Y-75800000D03*
%TO.P,BUS3,9*%
%TO.N,/D3*%
X189500000Y-82150000D03*
%TO.P,BUS3,10*%
%TO.N,/D2*%
X185100000Y-82150000D03*
%TO.P,BUS3,11*%
%TO.N,/D1*%
X180700000Y-82150000D03*
%TO.P,BUS3,12*%
%TO.N,/D0*%
X176300000Y-82150000D03*
%TO.P,BUS3,13*%
%TO.N,GND*%
X189500000Y-88500000D03*
%TO.P,BUS3,14*%
%TO.N,Net-(D8-K)*%
X176300000Y-88500000D03*
%TD*%
%TO.P,BUS1,1*%
%TO.N,unconnected-(BUS1-Pad1)*%
X140500000Y-71700000D03*
%TO.P,BUS1,2*%
%TO.N,unconnected-(BUS1-Pad2)*%
X136100000Y-71700000D03*
%TO.P,BUS1,3*%
%TO.N,unconnected-(BUS1-Pad3)*%
X131700000Y-71700000D03*
%TO.P,BUS1,4*%
%TO.N,unconnected-(BUS1-Pad4)*%
X127300000Y-71700000D03*
%TO.P,BUS1,5*%
%TO.N,Net-(BUS1-1-D3)*%
X140500000Y-75800000D03*
%TO.P,BUS1,6*%
%TO.N,Net-(BUS1-1-D2)*%
X136100000Y-75800000D03*
%TO.P,BUS1,7*%
%TO.N,Net-(BUS1-1-D1)*%
X131700000Y-75800000D03*
%TO.P,BUS1,8*%
%TO.N,Net-(BUS1-1-D0)*%
X127300000Y-75800000D03*
%TO.P,BUS1,9*%
%TO.N,/D3*%
X140500000Y-82150000D03*
%TO.P,BUS1,10*%
%TO.N,/D2*%
X136100000Y-82150000D03*
%TO.P,BUS1,11*%
%TO.N,/D1*%
X131700000Y-82150000D03*
%TO.P,BUS1,12*%
%TO.N,/D0*%
X127300000Y-82150000D03*
%TO.P,BUS1,13*%
%TO.N,GND*%
X140500000Y-88500000D03*
%TO.P,BUS1,14*%
%TO.N,Net-(D6-K)*%
X127300000Y-88500000D03*
%TD*%
%TO.P,K3,1*%
%TO.N,unconnected-(K3-Pad1)*%
X116000000Y-109550000D03*
%TO.P,K3,2*%
%TO.N,unconnected-(K3-Pad2)*%
X111600000Y-109550000D03*
%TO.P,K3,3*%
%TO.N,unconnected-(K3-Pad3)*%
X107200000Y-109550000D03*
%TO.P,K3,4*%
%TO.N,unconnected-(K3-Pad4)*%
X102800000Y-109550000D03*
%TO.P,K3,5*%
%TO.N,Net-(K-RESET1-Pad1)*%
X116000000Y-113650000D03*
%TO.P,K3,6*%
X111600000Y-113650000D03*
%TO.P,K3,7*%
X107200000Y-113650000D03*
%TO.P,K3,8*%
X102800000Y-113650000D03*
%TO.P,K3,9*%
%TO.N,/D3*%
X116000000Y-120000000D03*
%TO.P,K3,10*%
X111600000Y-120000000D03*
%TO.P,K3,11*%
X107200000Y-120000000D03*
%TO.P,K3,12*%
X102800000Y-120000000D03*
%TO.P,K3,13*%
%TO.N,GND*%
X116000000Y-126350000D03*
%TO.P,K3,14*%
%TO.N,/D3*%
X102800000Y-126350000D03*
%TD*%
D12*
%TO.P,BUS2-2,1,+V*%
%TO.N,Net-(BITS0-3-+V)*%
X149525000Y-140500000D03*
D13*
%TO.P,BUS2-2,2,D0*%
%TO.N,Net-(BUS2-1-D0)*%
X152065000Y-140500000D03*
%TO.P,BUS2-2,3,D1*%
%TO.N,Net-(BUS2-1-D1)*%
X154605000Y-140500000D03*
%TO.P,BUS2-2,4,D2*%
%TO.N,Net-(BUS2-1-D2)*%
X157145000Y-140500000D03*
%TO.P,BUS2-2,5,D3*%
%TO.N,Net-(BUS2-1-D3)*%
X159685000Y-140500000D03*
%TO.P,BUS2-2,6,NC*%
%TO.N,unconnected-(BUS2-2-NC-Pad6)*%
X162225000Y-140500000D03*
%TO.P,BUS2-2,7,NC*%
%TO.N,unconnected-(BUS2-2-NC-Pad7)*%
X164765000Y-140500000D03*
%TO.P,BUS2-2,8,GND*%
%TO.N,GND*%
X167305000Y-140500000D03*
%TD*%
D15*
%TO.P,J3,1,+V*%
%TO.N,Net-(BITS0-3-+V)*%
X90960000Y-66880000D03*
D13*
%TO.P,J3,2,RESET*%
%TO.N,Net-(D1-K)*%
X93500000Y-66880000D03*
%TO.P,J3,3,SEL1*%
%TO.N,Net-(D6-K)*%
X90960000Y-69420000D03*
%TO.P,J3,4,SEL2*%
%TO.N,Net-(D7-K)*%
X93500000Y-69420000D03*
%TO.P,J3,5,SEL3*%
%TO.N,Net-(D8-K)*%
X90960000Y-71960000D03*
%TO.P,J3,6,NC*%
%TO.N,unconnected-(J3-NC-Pad6)*%
X93500000Y-71960000D03*
%TO.P,J3,7,NC*%
%TO.N,unconnected-(J3-NC-Pad7)*%
X90960000Y-74500000D03*
%TO.P,J3,8,GND*%
%TO.N,GND*%
X93500000Y-74500000D03*
%TD*%
D10*
%TO.P,D8,1,K*%
%TO.N,Net-(D8-K)*%
X179090000Y-98500000D03*
D11*
%TO.P,D8,2,A*%
%TO.N,GND*%
X186710000Y-98500000D03*
%TD*%
D10*
%TO.P,D6,1,K*%
%TO.N,Net-(D6-K)*%
X130090000Y-98500000D03*
D11*
%TO.P,D6,2,A*%
%TO.N,GND*%
X137710000Y-98500000D03*
%TD*%
D12*
%TO.P,BUS3-3,1,+V*%
%TO.N,Net-(BITS0-3-+V)*%
X174025000Y-49500000D03*
D13*
%TO.P,BUS3-3,2,D0*%
%TO.N,Net-(BUS3-1-D0)*%
X176565000Y-49500000D03*
%TO.P,BUS3-3,3,D1*%
%TO.N,Net-(BUS3-1-D1)*%
X179105000Y-49500000D03*
%TO.P,BUS3-3,4,D2*%
%TO.N,Net-(BUS3-1-D2)*%
X181645000Y-49500000D03*
%TO.P,BUS3-3,5,D3*%
%TO.N,Net-(BUS3-1-D3)*%
X184185000Y-49500000D03*
%TO.P,BUS3-3,6,NC*%
%TO.N,unconnected-(BUS3-3-NC-Pad6)*%
X186725000Y-49500000D03*
%TO.P,BUS3-3,7,NC*%
%TO.N,unconnected-(BUS3-3-NC-Pad7)*%
X189265000Y-49500000D03*
%TO.P,BUS3-3,8,GND*%
%TO.N,GND*%
X191805000Y-49500000D03*
%TD*%
D12*
%TO.P,J2,1,+V*%
%TO.N,Net-(BITS0-3-+V)*%
X196500000Y-83125000D03*
D13*
%TO.P,J2,2,RESET*%
%TO.N,Net-(D1-K)*%
X196500000Y-85665000D03*
%TO.P,J2,3,SEL1*%
%TO.N,Net-(D6-K)*%
X196500000Y-88205000D03*
%TO.P,J2,4,SEL2*%
%TO.N,Net-(D7-K)*%
X196500000Y-90745000D03*
%TO.P,J2,5,SEL3*%
%TO.N,Net-(D8-K)*%
X196500000Y-93285000D03*
%TO.P,J2,6,NC*%
%TO.N,unconnected-(J2-NC-Pad6)*%
X196500000Y-95825000D03*
%TO.P,J2,7,NC*%
%TO.N,unconnected-(J2-NC-Pad7)*%
X196500000Y-98365000D03*
%TO.P,J2,8,GND*%
%TO.N,GND*%
X196500000Y-100905000D03*
%TD*%
D12*
%TO.P,BUS2-3,1,+V*%
%TO.N,Net-(BITS0-3-+V)*%
X149525000Y-49500000D03*
D13*
%TO.P,BUS2-3,2,D0*%
%TO.N,Net-(BUS2-1-D0)*%
X152065000Y-49500000D03*
%TO.P,BUS2-3,3,D1*%
%TO.N,Net-(BUS2-1-D1)*%
X154605000Y-49500000D03*
%TO.P,BUS2-3,4,D2*%
%TO.N,Net-(BUS2-1-D2)*%
X157145000Y-49500000D03*
%TO.P,BUS2-3,5,D3*%
%TO.N,Net-(BUS2-1-D3)*%
X159685000Y-49500000D03*
%TO.P,BUS2-3,6,NC*%
%TO.N,unconnected-(BUS2-3-NC-Pad6)*%
X162225000Y-49500000D03*
%TO.P,BUS2-3,7,NC*%
%TO.N,unconnected-(BUS2-3-NC-Pad7)*%
X164765000Y-49500000D03*
%TO.P,BUS2-3,8,GND*%
%TO.N,GND*%
X167305000Y-49500000D03*
%TD*%
D10*
%TO.P,D4,1,K*%
%TO.N,/D2*%
X130090000Y-136040000D03*
D11*
%TO.P,D4,2,A*%
%TO.N,GND*%
X137710000Y-136040000D03*
%TD*%
D14*
%TO.P,K-RESET1,1*%
%TO.N,Net-(K-RESET1-Pad1)*%
X116000000Y-71700000D03*
%TO.P,K-RESET1,2*%
X111600000Y-71700000D03*
%TO.P,K-RESET1,3*%
X107200000Y-71700000D03*
%TO.P,K-RESET1,4*%
X102800000Y-71700000D03*
%TO.P,K-RESET1,5*%
%TO.N,unconnected-(K-RESET1-Pad5)*%
X116000000Y-75800000D03*
%TO.P,K-RESET1,6*%
%TO.N,unconnected-(K-RESET1-Pad6)*%
X111600000Y-75800000D03*
%TO.P,K-RESET1,7*%
%TO.N,unconnected-(K-RESET1-Pad7)*%
X107200000Y-75800000D03*
%TO.P,K-RESET1,8*%
%TO.N,unconnected-(K-RESET1-Pad8)*%
X102800000Y-75800000D03*
%TO.P,K-RESET1,9*%
%TO.N,Net-(BITS0-3-+V)*%
X116000000Y-82150000D03*
%TO.P,K-RESET1,10*%
X111600000Y-82150000D03*
%TO.P,K-RESET1,11*%
X107200000Y-82150000D03*
%TO.P,K-RESET1,12*%
X102800000Y-82150000D03*
%TO.P,K-RESET1,13*%
%TO.N,GND*%
X116000000Y-88500000D03*
%TO.P,K-RESET1,14*%
%TO.N,Net-(D1-K)*%
X102800000Y-88500000D03*
%TD*%
%TO.P,K1,1*%
%TO.N,unconnected-(K1-Pad1)*%
X165000000Y-109500000D03*
%TO.P,K1,2*%
%TO.N,unconnected-(K1-Pad2)*%
X160600000Y-109500000D03*
%TO.P,K1,3*%
%TO.N,unconnected-(K1-Pad3)*%
X156200000Y-109500000D03*
%TO.P,K1,4*%
%TO.N,unconnected-(K1-Pad4)*%
X151800000Y-109500000D03*
%TO.P,K1,5*%
%TO.N,Net-(K-RESET1-Pad1)*%
X165000000Y-113600000D03*
%TO.P,K1,6*%
X160600000Y-113600000D03*
%TO.P,K1,7*%
X156200000Y-113600000D03*
%TO.P,K1,8*%
X151800000Y-113600000D03*
%TO.P,K1,9*%
%TO.N,/D1*%
X165000000Y-119950000D03*
%TO.P,K1,10*%
X160600000Y-119950000D03*
%TO.P,K1,11*%
X156200000Y-119950000D03*
%TO.P,K1,12*%
X151800000Y-119950000D03*
%TO.P,K1,13*%
%TO.N,GND*%
X165000000Y-126300000D03*
%TO.P,K1,14*%
%TO.N,/D1*%
X151800000Y-126300000D03*
%TD*%
D12*
%TO.P,J1,1,+V*%
%TO.N,Net-(BITS0-3-+V)*%
X95900000Y-83125000D03*
D13*
%TO.P,J1,2,RESET*%
%TO.N,Net-(D1-K)*%
X95900000Y-85665000D03*
%TO.P,J1,3,SEL1*%
%TO.N,Net-(D6-K)*%
X95900000Y-88205000D03*
%TO.P,J1,4,SEL2*%
%TO.N,Net-(D7-K)*%
X95900000Y-90745000D03*
%TO.P,J1,5,SEL3*%
%TO.N,Net-(D8-K)*%
X95900000Y-93285000D03*
%TO.P,J1,6,NC*%
%TO.N,unconnected-(J1-NC-Pad6)*%
X95900000Y-95825000D03*
%TO.P,J1,7,NC*%
%TO.N,unconnected-(J1-NC-Pad7)*%
X95900000Y-98365000D03*
%TO.P,J1,8,GND*%
%TO.N,GND*%
X95900000Y-100905000D03*
%TD*%
D16*
%TO.P,BUS2-1,1,+V*%
%TO.N,Net-(BITS0-3-+V)*%
X154555000Y-58215000D03*
D13*
%TO.P,BUS2-1,2,D0*%
%TO.N,Net-(BUS2-1-D0)*%
X154555000Y-55675000D03*
%TO.P,BUS2-1,3,D1*%
%TO.N,Net-(BUS2-1-D1)*%
X157095000Y-58215000D03*
%TO.P,BUS2-1,4,D2*%
%TO.N,Net-(BUS2-1-D2)*%
X157095000Y-55675000D03*
%TO.P,BUS2-1,5,D3*%
%TO.N,Net-(BUS2-1-D3)*%
X159635000Y-58215000D03*
%TO.P,BUS2-1,6,NC*%
%TO.N,unconnected-(BUS2-1-NC-Pad6)*%
X159635000Y-55675000D03*
%TO.P,BUS2-1,7,NC*%
%TO.N,unconnected-(BUS2-1-NC-Pad7)*%
X162175000Y-58215000D03*
%TO.P,BUS2-1,8,GND*%
%TO.N,GND*%
X162175000Y-55675000D03*
%TD*%
D10*
%TO.P,D7,1,K*%
%TO.N,Net-(D7-K)*%
X154590000Y-98500000D03*
D11*
%TO.P,D7,2,A*%
%TO.N,GND*%
X162210000Y-98500000D03*
%TD*%
D12*
%TO.P,BUS3-2,1,+V*%
%TO.N,Net-(BITS0-3-+V)*%
X174025000Y-140500000D03*
D13*
%TO.P,BUS3-2,2,D0*%
%TO.N,Net-(BUS3-1-D0)*%
X176565000Y-140500000D03*
%TO.P,BUS3-2,3,D1*%
%TO.N,Net-(BUS3-1-D1)*%
X179105000Y-140500000D03*
%TO.P,BUS3-2,4,D2*%
%TO.N,Net-(BUS3-1-D2)*%
X181645000Y-140500000D03*
%TO.P,BUS3-2,5,D3*%
%TO.N,Net-(BUS3-1-D3)*%
X184185000Y-140500000D03*
%TO.P,BUS3-2,6,NC*%
%TO.N,unconnected-(BUS3-2-NC-Pad6)*%
X186725000Y-140500000D03*
%TO.P,BUS3-2,7,NC*%
%TO.N,unconnected-(BUS3-2-NC-Pad7)*%
X189265000Y-140500000D03*
%TO.P,BUS3-2,8,GND*%
%TO.N,GND*%
X191805000Y-140500000D03*
%TD*%
D16*
%TO.P,BUS1-1,1,+V*%
%TO.N,Net-(BITS0-3-+V)*%
X130055000Y-58215000D03*
D13*
%TO.P,BUS1-1,2,D0*%
%TO.N,Net-(BUS1-1-D0)*%
X130055000Y-55675000D03*
%TO.P,BUS1-1,3,D1*%
%TO.N,Net-(BUS1-1-D1)*%
X132595000Y-58215000D03*
%TO.P,BUS1-1,4,D2*%
%TO.N,Net-(BUS1-1-D2)*%
X132595000Y-55675000D03*
%TO.P,BUS1-1,5,D3*%
%TO.N,Net-(BUS1-1-D3)*%
X135135000Y-58215000D03*
%TO.P,BUS1-1,6,NC*%
%TO.N,unconnected-(BUS1-1-NC-Pad6)*%
X135135000Y-55675000D03*
%TO.P,BUS1-1,7,NC*%
%TO.N,unconnected-(BUS1-1-NC-Pad7)*%
X137675000Y-58215000D03*
%TO.P,BUS1-1,8,GND*%
%TO.N,GND*%
X137675000Y-55675000D03*
%TD*%
D15*
%TO.P,BITS2-3,1,+V*%
%TO.N,Net-(BITS0-3-+V)*%
X90460000Y-135500000D03*
D13*
%TO.P,BITS2-3,2,D0*%
%TO.N,/D2*%
X93000000Y-135500000D03*
%TO.P,BITS2-3,3,D1*%
%TO.N,/D3*%
X90460000Y-138040000D03*
%TO.P,BITS2-3,4,D2*%
%TO.N,unconnected-(BITS2-3-D2-Pad4)*%
X93000000Y-138040000D03*
%TO.P,BITS2-3,5,D3*%
%TO.N,unconnected-(BITS2-3-D3-Pad5)*%
X90460000Y-140580000D03*
%TO.P,BITS2-3,6,NC*%
%TO.N,unconnected-(BITS2-3-NC-Pad6)*%
X93000000Y-140580000D03*
%TO.P,BITS2-3,7,NC*%
%TO.N,unconnected-(BITS2-3-NC-Pad7)*%
X90460000Y-143120000D03*
%TO.P,BITS2-3,8,GND*%
%TO.N,GND*%
X93000000Y-143120000D03*
%TD*%
D16*
%TO.P,BUS3-1,1,+V*%
%TO.N,Net-(BITS0-3-+V)*%
X179055000Y-58215000D03*
D13*
%TO.P,BUS3-1,2,D0*%
%TO.N,Net-(BUS3-1-D0)*%
X179055000Y-55675000D03*
%TO.P,BUS3-1,3,D1*%
%TO.N,Net-(BUS3-1-D1)*%
X181595000Y-58215000D03*
%TO.P,BUS3-1,4,D2*%
%TO.N,Net-(BUS3-1-D2)*%
X181595000Y-55675000D03*
%TO.P,BUS3-1,5,D3*%
%TO.N,Net-(BUS3-1-D3)*%
X184135000Y-58215000D03*
%TO.P,BUS3-1,6,NC*%
%TO.N,unconnected-(BUS3-1-NC-Pad6)*%
X184135000Y-55675000D03*
%TO.P,BUS3-1,7,NC*%
%TO.N,unconnected-(BUS3-1-NC-Pad7)*%
X186675000Y-58215000D03*
%TO.P,BUS3-1,8,GND*%
%TO.N,GND*%
X186675000Y-55675000D03*
%TD*%
D14*
%TO.P,K2,1*%
%TO.N,unconnected-(K2-Pad1)*%
X140500000Y-109550000D03*
%TO.P,K2,2*%
%TO.N,unconnected-(K2-Pad2)*%
X136100000Y-109550000D03*
%TO.P,K2,3*%
%TO.N,unconnected-(K2-Pad3)*%
X131700000Y-109550000D03*
%TO.P,K2,4*%
%TO.N,unconnected-(K2-Pad4)*%
X127300000Y-109550000D03*
%TO.P,K2,5*%
%TO.N,Net-(K-RESET1-Pad1)*%
X140500000Y-113650000D03*
%TO.P,K2,6*%
X136100000Y-113650000D03*
%TO.P,K2,7*%
X131700000Y-113650000D03*
%TO.P,K2,8*%
X127300000Y-113650000D03*
%TO.P,K2,9*%
%TO.N,/D2*%
X140500000Y-120000000D03*
%TO.P,K2,10*%
X136100000Y-120000000D03*
%TO.P,K2,11*%
X131700000Y-120000000D03*
%TO.P,K2,12*%
X127300000Y-120000000D03*
%TO.P,K2,13*%
%TO.N,GND*%
X140500000Y-126350000D03*
%TO.P,K2,14*%
%TO.N,/D2*%
X127300000Y-126350000D03*
%TD*%
D17*
%TO.N,GND*%
X136459000Y-137291000D02*
X137710000Y-136040000D01*
X110805000Y-100905000D02*
X113210000Y-98500000D01*
X163461000Y-137291000D02*
X185459000Y-137291000D01*
X167305000Y-49500000D02*
X168606000Y-48199000D01*
X190504000Y-48199000D02*
X191805000Y-49500000D01*
X194095000Y-98500000D02*
X196500000Y-100905000D01*
X129422735Y-88500000D02*
X127921735Y-86999000D01*
X147953398Y-86999000D02*
X146452398Y-88500000D01*
X106130000Y-143120000D02*
X113210000Y-136040000D01*
X140500000Y-88500000D02*
X129422735Y-88500000D01*
X164210000Y-100500000D02*
X162210000Y-98500000D01*
X160959000Y-137291000D02*
X162210000Y-136040000D01*
X138961000Y-137291000D02*
X160959000Y-137291000D01*
X185459000Y-137291000D02*
X186710000Y-136040000D01*
X184710000Y-100500000D02*
X164210000Y-100500000D01*
X95900000Y-100905000D02*
X110805000Y-100905000D01*
X111151000Y-121501000D02*
X116000000Y-126350000D01*
X168606000Y-48199000D02*
X190504000Y-48199000D01*
X127921735Y-86999000D02*
X117501000Y-86999000D01*
X162210000Y-136040000D02*
X163461000Y-137291000D01*
X93000000Y-120620000D02*
X93881000Y-121501000D01*
X146452398Y-88500000D02*
X140500000Y-88500000D01*
X163499000Y-86999000D02*
X147953398Y-86999000D01*
X114461000Y-137291000D02*
X136459000Y-137291000D01*
X144106000Y-48199000D02*
X166004000Y-48199000D01*
X137710000Y-136040000D02*
X138961000Y-137291000D01*
X165000000Y-88500000D02*
X163499000Y-86999000D01*
X186710000Y-98500000D02*
X194095000Y-98500000D01*
X93000000Y-143120000D02*
X106130000Y-143120000D01*
X142805000Y-49500000D02*
X144106000Y-48199000D01*
X186710000Y-98500000D02*
X184710000Y-100500000D01*
X166004000Y-48199000D02*
X167305000Y-49500000D01*
X113210000Y-136040000D02*
X114461000Y-137291000D01*
X117501000Y-86999000D02*
X116000000Y-88500000D01*
X93881000Y-121501000D02*
X111151000Y-121501000D01*
D18*
%TO.N,/D3*%
X107200000Y-120000000D02*
X111600000Y-120000000D01*
X102245000Y-119445000D02*
X102800000Y-120000000D01*
X165000000Y-82150000D02*
X166375000Y-80775000D01*
X89285000Y-119255000D02*
X89285000Y-136865000D01*
X102800000Y-120000000D02*
X107200000Y-120000000D01*
X111600000Y-120000000D02*
X116000000Y-120000000D01*
X156105456Y-84000000D02*
X163150000Y-84000000D01*
X90460000Y-118080000D02*
X91825000Y-119445000D01*
X177380456Y-80775000D02*
X180605456Y-84000000D01*
X166375000Y-80775000D02*
X177380456Y-80775000D01*
X187650000Y-84000000D02*
X189500000Y-82150000D01*
X91825000Y-119445000D02*
X102245000Y-119445000D01*
X89285000Y-136865000D02*
X90460000Y-138040000D01*
X163150000Y-84000000D02*
X165000000Y-82150000D01*
X90460000Y-118080000D02*
X89285000Y-119255000D01*
X180605456Y-84000000D02*
X187650000Y-84000000D01*
X152880456Y-80775000D02*
X156105456Y-84000000D01*
X141875000Y-80775000D02*
X152880456Y-80775000D01*
X140500000Y-82150000D02*
X141875000Y-80775000D01*
%TO.N,/D2*%
X152875000Y-74425000D02*
X160600000Y-82150000D01*
X123690000Y-116390000D02*
X127300000Y-120000000D01*
X93000000Y-115540000D02*
X93850000Y-116390000D01*
X130000000Y-82500000D02*
X130000000Y-79500000D01*
X93850000Y-116390000D02*
X123690000Y-116390000D01*
X135075000Y-74425000D02*
X152875000Y-74425000D01*
X131025000Y-83525000D02*
X130000000Y-82500000D01*
X134725000Y-83525000D02*
X131025000Y-83525000D01*
X127300000Y-120000000D02*
X131700000Y-120000000D01*
X131700000Y-120000000D02*
X136100000Y-120000000D01*
X136100000Y-120000000D02*
X140500000Y-120000000D01*
X160600000Y-82150000D02*
X168325000Y-74425000D01*
X177375000Y-74425000D02*
X185100000Y-82150000D01*
X130000000Y-79500000D02*
X135075000Y-74425000D01*
X168325000Y-74425000D02*
X177375000Y-74425000D01*
X136100000Y-82150000D02*
X134725000Y-83525000D01*
%TO.N,/D1*%
X131700000Y-82150000D02*
X136675000Y-77175000D01*
X178050000Y-79500000D02*
X180700000Y-82150000D01*
X101695000Y-115500000D02*
X160500000Y-115500000D01*
X160600000Y-115600000D02*
X160600000Y-119950000D01*
X151800000Y-119950000D02*
X156200000Y-119950000D01*
X157575000Y-83525000D02*
X161680456Y-83525000D01*
X165705456Y-79500000D02*
X178050000Y-79500000D01*
X136675000Y-77175000D02*
X151675000Y-77175000D01*
X160600000Y-119950000D02*
X165000000Y-119950000D01*
X91635000Y-114365000D02*
X100560000Y-114365000D01*
X152500000Y-78450000D02*
X156200000Y-82150000D01*
X90460000Y-115540000D02*
X91635000Y-114365000D01*
X151675000Y-77175000D02*
X152500000Y-78000000D01*
X100560000Y-114365000D02*
X101695000Y-115500000D01*
X152500000Y-78000000D02*
X152500000Y-78450000D01*
X156200000Y-82150000D02*
X157575000Y-83525000D01*
X156200000Y-119950000D02*
X160600000Y-119950000D01*
X161680456Y-83525000D02*
X165705456Y-79500000D01*
X160500000Y-115500000D02*
X160600000Y-115600000D01*
%TO.N,/D0*%
X151800000Y-82150000D02*
X155150000Y-85500000D01*
X180700000Y-119950000D02*
X185100000Y-119950000D01*
X93850000Y-112150000D02*
X189994544Y-112150000D01*
X191000000Y-118450000D02*
X189500000Y-119950000D01*
X148450000Y-85500000D02*
X151800000Y-82150000D01*
X155150000Y-85500000D02*
X172950000Y-85500000D01*
X191000000Y-113155456D02*
X191000000Y-118450000D01*
X148000000Y-85500000D02*
X148450000Y-85500000D01*
X172950000Y-85500000D02*
X176300000Y-82150000D01*
X93000000Y-113000000D02*
X93850000Y-112150000D01*
X127300000Y-82150000D02*
X131150000Y-86000000D01*
X185100000Y-119950000D02*
X189500000Y-119950000D01*
X147500000Y-86000000D02*
X148000000Y-85500000D01*
X189994544Y-112150000D02*
X191000000Y-113155456D01*
X176300000Y-119950000D02*
X180700000Y-119950000D01*
X131150000Y-86000000D02*
X147500000Y-86000000D01*
%TO.N,Net-(D1-K)*%
X130512190Y-86000000D02*
X130963190Y-86451000D01*
X102800000Y-86300000D02*
X102800000Y-88500000D01*
X102800000Y-88500000D02*
X105300000Y-86000000D01*
X148137810Y-86000000D02*
X196165000Y-86000000D01*
X102165000Y-85665000D02*
X102800000Y-86300000D01*
X95900000Y-85665000D02*
X102165000Y-85665000D01*
X196165000Y-86000000D02*
X196500000Y-85665000D01*
X130963190Y-86451000D02*
X147686810Y-86451000D01*
X105300000Y-86000000D02*
X130512190Y-86000000D01*
X147686810Y-86451000D02*
X148137810Y-86000000D01*
D17*
%TO.N,Net-(BITS0-3-+V)*%
X101825000Y-83125000D02*
X102800000Y-82150000D01*
X148224000Y-141801000D02*
X149525000Y-140500000D01*
X102800000Y-82150000D02*
X107200000Y-82150000D01*
X125025000Y-49500000D02*
X126326000Y-50801000D01*
X107200000Y-82150000D02*
X111600000Y-82150000D01*
X196500000Y-75660000D02*
X196500000Y-83125000D01*
X179055000Y-58215000D02*
X196500000Y-75660000D01*
X126326000Y-50801000D02*
X148224000Y-50801000D01*
X151025000Y-51000000D02*
X172525000Y-51000000D01*
X148224000Y-50801000D02*
X149525000Y-49500000D01*
X126326000Y-141801000D02*
X148224000Y-141801000D01*
X172025000Y-142500000D02*
X174025000Y-140500000D01*
X151525000Y-142500000D02*
X172025000Y-142500000D01*
X125025000Y-140500000D02*
X126326000Y-141801000D01*
X90460000Y-88565000D02*
X90460000Y-113000000D01*
X95900000Y-83125000D02*
X90460000Y-88565000D01*
X149525000Y-140500000D02*
X151525000Y-142500000D01*
X172525000Y-51000000D02*
X174025000Y-49500000D01*
X149525000Y-49500000D02*
X151025000Y-51000000D01*
X95900000Y-83125000D02*
X101825000Y-83125000D01*
X111600000Y-82150000D02*
X116000000Y-82150000D01*
D18*
%TO.N,Net-(D8-K)*%
X155086514Y-99925000D02*
X127395000Y-99925000D01*
X176395000Y-97075000D02*
X177820000Y-98500000D01*
X120755000Y-93285000D02*
X95900000Y-93285000D01*
X177820000Y-98500000D02*
X179090000Y-98500000D01*
X127395000Y-99925000D02*
X120755000Y-93285000D01*
X179090000Y-98500000D02*
X179090000Y-97230000D01*
X179090000Y-97230000D02*
X183035000Y-93285000D01*
X183035000Y-93285000D02*
X196500000Y-93285000D01*
X157936514Y-97075000D02*
X155086514Y-99925000D01*
X176395000Y-97075000D02*
X157936514Y-97075000D01*
%TO.N,Net-(D7-K)*%
X195745000Y-91500000D02*
X161000000Y-91500000D01*
X95900000Y-90745000D02*
X96095000Y-90550000D01*
X149750000Y-90550000D02*
X151800000Y-88500000D01*
X154590000Y-97910000D02*
X154590000Y-98500000D01*
X196500000Y-90745000D02*
X195745000Y-91500000D01*
X96095000Y-90550000D02*
X149750000Y-90550000D01*
X161000000Y-91500000D02*
X154590000Y-97910000D01*
%TO.N,Net-(K-RESET1-Pad1)*%
X151750000Y-113650000D02*
X151800000Y-113600000D01*
X180700000Y-113600000D02*
X185100000Y-113600000D01*
X151800000Y-113600000D02*
X156200000Y-113600000D01*
X111600000Y-113650000D02*
X116000000Y-113650000D01*
X102800000Y-71700000D02*
X107200000Y-71700000D01*
X165000000Y-113600000D02*
X176300000Y-113600000D01*
X185100000Y-113600000D02*
X189500000Y-113600000D01*
X136100000Y-113650000D02*
X140500000Y-113650000D01*
X111600000Y-71700000D02*
X116000000Y-71700000D01*
X107200000Y-71700000D02*
X111600000Y-71700000D01*
X116000000Y-113650000D02*
X127300000Y-113650000D01*
X156200000Y-113600000D02*
X160600000Y-113600000D01*
X140500000Y-113650000D02*
X151750000Y-113650000D01*
X107200000Y-113650000D02*
X111600000Y-113650000D01*
X131700000Y-113650000D02*
X136100000Y-113650000D01*
X160600000Y-113600000D02*
X165000000Y-113600000D01*
X102800000Y-113650000D02*
X107200000Y-113650000D01*
X127300000Y-113650000D02*
X131700000Y-113650000D01*
X176300000Y-113600000D02*
X180700000Y-113600000D01*
%TO.N,Net-(D6-K)*%
X97570000Y-89875000D02*
X125925000Y-89875000D01*
X125925000Y-89875000D02*
X127300000Y-88500000D01*
X137590000Y-91000000D02*
X130090000Y-98500000D01*
X196500000Y-88205000D02*
X193705000Y-91000000D01*
X95900000Y-88205000D02*
X97570000Y-89875000D01*
X193705000Y-91000000D02*
X137590000Y-91000000D01*
%TD*%
M02*
