%TF.GenerationSoftware,KiCad,Pcbnew,9.0.3-9.0.3-0~ubuntu24.04.1*%
%TF.CreationDate,2026-03-24T14:19:41+03:00*%
%TF.ProjectId,logic_binary,6c6f6769-635f-4626-996e-6172792e6b69,rev?*%
%TF.SameCoordinates,Original*%
%TF.FileFunction,Soldermask,Bot*%
%TF.FilePolarity,Negative*%
%FSLAX46Y46*%
G04 Gerber Fmt 4.6, Leading zero omitted, Abs format (unit mm)*
G04 Created by KiCad (PCBNEW 9.0.3-9.0.3-0~ubuntu24.04.1) date 2026-03-24 14:19:41*
%MOMM*%
%LPD*%
G01*
G04 APERTURE LIST*
G04 Aperture macros list*
%AMRoundRect*
0 Rectangle with rounded corners*
0 $1 Rounding radius*
0 $2 $3 $4 $5 $6 $7 $8 $9 X,Y pos of 4 corners*
0 Add a 4 corners polygon primitive as box body*
4,1,4,$2,$3,$4,$5,$6,$7,$8,$9,$2,$3,0*
0 Add four circle primitives for the rounded corners*
1,1,$1+$1,$2,$3*
1,1,$1+$1,$4,$5*
1,1,$1+$1,$6,$7*
1,1,$1+$1,$8,$9*
0 Add four rect primitives between the rounded corners*
20,1,$1+$1,$2,$3,$4,$5,0*
20,1,$1+$1,$4,$5,$6,$7,0*
20,1,$1+$1,$6,$7,$8,$9,0*
20,1,$1+$1,$8,$9,$2,$3,0*%
G04 Aperture macros list end*
%ADD10C,2.100000*%
%ADD11RoundRect,0.250000X-0.550000X-0.550000X0.550000X-0.550000X0.550000X0.550000X-0.550000X0.550000X0*%
%ADD12C,1.600000*%
%ADD13R,1.700000X1.700000*%
%ADD14C,1.700000*%
%ADD15RoundRect,0.250000X0.600000X-0.600000X0.600000X0.600000X-0.600000X0.600000X-0.600000X-0.600000X0*%
G04 APERTURE END LIST*
D10*
%TO.C,K6*%
X137000000Y-97125855D03*
X132600000Y-97125855D03*
X128200000Y-97125855D03*
X123800000Y-97125855D03*
X137000000Y-101225855D03*
X132600000Y-101225855D03*
X128200000Y-101225855D03*
X123800000Y-101225855D03*
X137000000Y-107575855D03*
X132600000Y-107575855D03*
X128200000Y-107575855D03*
X123800000Y-107575855D03*
X137000000Y-113925855D03*
X123800000Y-113925855D03*
%TD*%
%TO.C,K1*%
X187200000Y-57975855D03*
X182800000Y-57975855D03*
X178400000Y-57975855D03*
X174000000Y-57975855D03*
X187200000Y-62075855D03*
X182800000Y-62075855D03*
X178400000Y-62075855D03*
X174000000Y-62075855D03*
X187200000Y-68425855D03*
X182800000Y-68425855D03*
X178400000Y-68425855D03*
X174000000Y-68425855D03*
X187200000Y-74775855D03*
X174000000Y-74775855D03*
%TD*%
D11*
%TO.C,D5*%
X126590000Y-87575855D03*
D12*
X134210000Y-87575855D03*
%TD*%
D13*
%TO.C,J6*%
X131625000Y-143025855D03*
D14*
X134165000Y-143025855D03*
X136705000Y-143025855D03*
X139245000Y-143025855D03*
X141785000Y-143025855D03*
X144325000Y-143025855D03*
X146865000Y-143025855D03*
X149405000Y-143025855D03*
%TD*%
D10*
%TO.C,K3*%
X162082222Y-57975855D03*
X157682222Y-57975855D03*
X153282222Y-57975855D03*
X148882222Y-57975855D03*
X162082222Y-62075855D03*
X157682222Y-62075855D03*
X153282222Y-62075855D03*
X148882222Y-62075855D03*
X162082222Y-68425855D03*
X157682222Y-68425855D03*
X153282222Y-68425855D03*
X148882222Y-68425855D03*
X162082222Y-74775855D03*
X148882222Y-74775855D03*
%TD*%
D15*
%TO.C,J9*%
X151920000Y-45965855D03*
D14*
X151920000Y-43425855D03*
X154460000Y-45965855D03*
X154460000Y-43425855D03*
X157000000Y-45965855D03*
X157000000Y-43425855D03*
X159540000Y-45965855D03*
X159540000Y-43425855D03*
%TD*%
D11*
%TO.C,D8*%
X101436666Y-126475855D03*
D12*
X109056666Y-126475855D03*
%TD*%
D13*
%TO.C,J5*%
X107125000Y-143025855D03*
D14*
X109665000Y-143025855D03*
X112205000Y-143025855D03*
X114745000Y-143025855D03*
X117285000Y-143025855D03*
X119825000Y-143025855D03*
X122365000Y-143025855D03*
X124905000Y-143025855D03*
%TD*%
D10*
%TO.C,K7*%
X111846666Y-57975855D03*
X107446666Y-57975855D03*
X103046666Y-57975855D03*
X98646666Y-57975855D03*
X111846666Y-62075855D03*
X107446666Y-62075855D03*
X103046666Y-62075855D03*
X98646666Y-62075855D03*
X111846666Y-68425855D03*
X107446666Y-68425855D03*
X103046666Y-68425855D03*
X98646666Y-68425855D03*
X111846666Y-74775855D03*
X98646666Y-74775855D03*
%TD*%
D13*
%TO.C,J2*%
X197125000Y-79550855D03*
D14*
X197125000Y-82090855D03*
X197125000Y-84630855D03*
X197125000Y-87170855D03*
X197125000Y-89710855D03*
X197125000Y-92250855D03*
X197125000Y-94790855D03*
X197125000Y-97330855D03*
%TD*%
D10*
%TO.C,K8*%
X111846666Y-96975855D03*
X107446666Y-96975855D03*
X103046666Y-96975855D03*
X98646666Y-96975855D03*
X111846666Y-101075855D03*
X107446666Y-101075855D03*
X103046666Y-101075855D03*
X98646666Y-101075855D03*
X111846666Y-107425855D03*
X107446666Y-107425855D03*
X103046666Y-107425855D03*
X98646666Y-107425855D03*
X111846666Y-113775855D03*
X98646666Y-113775855D03*
%TD*%
D13*
%TO.C,J7*%
X156125000Y-143025855D03*
D14*
X158665000Y-143025855D03*
X161205000Y-143025855D03*
X163745000Y-143025855D03*
X166285000Y-143025855D03*
X168825000Y-143025855D03*
X171365000Y-143025855D03*
X173905000Y-143025855D03*
%TD*%
D13*
%TO.C,J4*%
X171625000Y-41425855D03*
D14*
X174165000Y-41425855D03*
X176705000Y-41425855D03*
X179245000Y-41425855D03*
X181785000Y-41425855D03*
X184325000Y-41425855D03*
X186865000Y-41425855D03*
X189405000Y-41425855D03*
%TD*%
D11*
%TO.C,D3*%
X151556666Y-87425855D03*
D12*
X159176666Y-87425855D03*
%TD*%
D11*
%TO.C,D2*%
X176790000Y-126475855D03*
D12*
X184410000Y-126475855D03*
%TD*%
D10*
%TO.C,K4*%
X161966666Y-96975855D03*
X157566666Y-96975855D03*
X153166666Y-96975855D03*
X148766666Y-96975855D03*
X161966666Y-101075855D03*
X157566666Y-101075855D03*
X153166666Y-101075855D03*
X148766666Y-101075855D03*
X161966666Y-107425855D03*
X157566666Y-107425855D03*
X153166666Y-107425855D03*
X148766666Y-107425855D03*
X161966666Y-113775855D03*
X148766666Y-113775855D03*
%TD*%
D13*
%TO.C,J1*%
X87500000Y-78925855D03*
D14*
X87500000Y-81465855D03*
X87500000Y-84005855D03*
X87500000Y-86545855D03*
X87500000Y-89085855D03*
X87500000Y-91625855D03*
X87500000Y-94165855D03*
X87500000Y-96705855D03*
%TD*%
D11*
%TO.C,D1*%
X176790000Y-87425855D03*
D12*
X184410000Y-87425855D03*
%TD*%
D11*
%TO.C,D6*%
X126590000Y-126625855D03*
D12*
X134210000Y-126625855D03*
%TD*%
D15*
%TO.C,J11*%
X136460000Y-136465855D03*
D14*
X136460000Y-133925855D03*
X139000000Y-136465855D03*
X139000000Y-133925855D03*
X141540000Y-136465855D03*
X141540000Y-133925855D03*
X144080000Y-136465855D03*
X144080000Y-133925855D03*
%TD*%
D10*
%TO.C,K2*%
X187200000Y-96975855D03*
X182800000Y-96975855D03*
X178400000Y-96975855D03*
X174000000Y-96975855D03*
X187200000Y-101075855D03*
X182800000Y-101075855D03*
X178400000Y-101075855D03*
X174000000Y-101075855D03*
X187200000Y-107425855D03*
X182800000Y-107425855D03*
X178400000Y-107425855D03*
X174000000Y-107425855D03*
X187200000Y-113775855D03*
X174000000Y-113775855D03*
%TD*%
D15*
%TO.C,J8*%
X126420000Y-45965855D03*
D14*
X126420000Y-43425855D03*
X128960000Y-45965855D03*
X128960000Y-43425855D03*
X131500000Y-45965855D03*
X131500000Y-43425855D03*
X134040000Y-45965855D03*
X134040000Y-43425855D03*
%TD*%
D13*
%TO.C,J3*%
X96125000Y-41300855D03*
D14*
X98665000Y-41300855D03*
X101205000Y-41300855D03*
X103745000Y-41300855D03*
X106285000Y-41300855D03*
X108825000Y-41300855D03*
X111365000Y-41300855D03*
X113905000Y-41300855D03*
%TD*%
D15*
%TO.C,J10*%
X111880000Y-136465855D03*
D14*
X111880000Y-133925855D03*
X114420000Y-136465855D03*
X114420000Y-133925855D03*
X116960000Y-136465855D03*
X116960000Y-133925855D03*
X119500000Y-136465855D03*
X119500000Y-133925855D03*
%TD*%
D10*
%TO.C,K5*%
X136964444Y-57975855D03*
X132564444Y-57975855D03*
X128164444Y-57975855D03*
X123764444Y-57975855D03*
X136964444Y-62075855D03*
X132564444Y-62075855D03*
X128164444Y-62075855D03*
X123764444Y-62075855D03*
X136964444Y-68425855D03*
X132564444Y-68425855D03*
X128164444Y-68425855D03*
X123764444Y-68425855D03*
X136964444Y-74775855D03*
X123764444Y-74775855D03*
%TD*%
D15*
%TO.C,J12*%
X161500000Y-136465855D03*
D14*
X161500000Y-133925855D03*
X164040000Y-136465855D03*
X164040000Y-133925855D03*
X166580000Y-136465855D03*
X166580000Y-133925855D03*
X169120000Y-136465855D03*
X169120000Y-133925855D03*
%TD*%
D11*
%TO.C,D4*%
X151556666Y-126475855D03*
D12*
X159176666Y-126475855D03*
%TD*%
D11*
%TO.C,D7*%
X101436666Y-87425855D03*
D12*
X109056666Y-87425855D03*
%TD*%
M02*
