M48
; DRILL file {KiCad 9.0.3-9.0.3-0~ubuntu24.04.1} date 2026-04-16T11:51:34+0300
; FORMAT={-:-/ absolute / metric / decimal}
; #@! TF.CreationDate,2026-04-16T11:51:34+03:00
; #@! TF.GenerationSoftware,Kicad,Pcbnew,9.0.3-9.0.3-0~ubuntu24.04.1
; #@! TF.FileFunction,Plated,1,2,PTH
FMAT,2
METRIC
; #@! TA.AperFunction,Plated,PTH,ComponentDrill
T1C0.800
; #@! TA.AperFunction,Plated,PTH,ComponentDrill
T2C1.000
; #@! TA.AperFunction,Plated,PTH,ComponentDrill
T3C1.400
%
G90
G05
T1
X101.437Y-87.426
X101.437Y-126.476
X109.057Y-87.426
X109.057Y-126.476
X126.59Y-87.576
X126.59Y-126.626
X134.21Y-87.576
X134.21Y-126.626
X151.557Y-87.426
X151.557Y-126.476
X159.177Y-87.426
X159.177Y-126.476
X176.79Y-87.426
X176.79Y-126.476
X184.41Y-87.426
X184.41Y-126.476
T2
X87.5Y-78.926
X87.5Y-81.466
X87.5Y-84.006
X87.5Y-86.546
X87.5Y-89.086
X87.5Y-91.626
X87.5Y-94.166
X87.5Y-96.706
X96.125Y-41.301
X98.665Y-41.301
X101.205Y-41.301
X103.745Y-41.301
X106.285Y-41.301
X107.125Y-143.026
X108.825Y-41.301
X109.665Y-143.026
X111.365Y-41.301
X111.88Y-133.926
X111.88Y-136.466
X112.205Y-143.026
X113.905Y-41.301
X114.42Y-133.926
X114.42Y-136.466
X114.745Y-143.026
X116.96Y-133.926
X116.96Y-136.466
X117.285Y-143.026
X119.5Y-133.926
X119.5Y-136.466
X119.825Y-143.026
X122.365Y-143.026
X124.905Y-143.026
X126.42Y-43.426
X126.42Y-45.966
X128.96Y-43.426
X128.96Y-45.966
X131.5Y-43.426
X131.5Y-45.966
X131.625Y-143.026
X134.04Y-43.426
X134.04Y-45.966
X134.165Y-143.026
X136.46Y-133.926
X136.46Y-136.466
X136.705Y-143.026
X139.0Y-133.926
X139.0Y-136.466
X139.245Y-143.026
X141.54Y-133.926
X141.54Y-136.466
X141.785Y-143.026
X144.08Y-133.926
X144.08Y-136.466
X144.325Y-143.026
X146.865Y-143.026
X149.405Y-143.026
X151.92Y-43.426
X151.92Y-45.966
X154.46Y-43.426
X154.46Y-45.966
X156.125Y-143.026
X157.0Y-43.426
X157.0Y-45.966
X158.665Y-143.026
X159.54Y-43.426
X159.54Y-45.966
X161.205Y-143.026
X161.5Y-133.926
X161.5Y-136.466
X163.745Y-143.026
X164.04Y-133.926
X164.04Y-136.466
X166.285Y-143.026
X166.58Y-133.926
X166.58Y-136.466
X168.825Y-143.026
X169.12Y-133.926
X169.12Y-136.466
X171.365Y-143.026
X171.625Y-41.426
X173.905Y-143.026
X174.165Y-41.426
X176.705Y-41.426
X179.245Y-41.426
X181.785Y-41.426
X184.325Y-41.426
X186.865Y-41.426
X189.405Y-41.426
X197.125Y-79.551
X197.125Y-82.091
X197.125Y-84.631
X197.125Y-87.171
X197.125Y-89.711
X197.125Y-92.251
X197.125Y-94.791
X197.125Y-97.331
T3
X98.647Y-57.976
X98.647Y-62.076
X98.647Y-68.426
X98.647Y-74.776
X98.647Y-96.976
X98.647Y-101.076
X98.647Y-107.426
X98.647Y-113.776
X103.047Y-57.976
X103.047Y-62.076
X103.047Y-68.426
X103.047Y-96.976
X103.047Y-101.076
X103.047Y-107.426
X107.447Y-57.976
X107.447Y-62.076
X107.447Y-68.426
X107.447Y-96.976
X107.447Y-101.076
X107.447Y-107.426
X111.847Y-57.976
X111.847Y-62.076
X111.847Y-68.426
X111.847Y-74.776
X111.847Y-96.976
X111.847Y-101.076
X111.847Y-107.426
X111.847Y-113.776
X123.764Y-57.976
X123.764Y-62.076
X123.764Y-68.426
X123.764Y-74.776
X123.8Y-97.126
X123.8Y-101.226
X123.8Y-107.576
X123.8Y-113.926
X128.164Y-57.976
X128.164Y-62.076
X128.164Y-68.426
X128.2Y-97.126
X128.2Y-101.226
X128.2Y-107.576
X132.564Y-57.976
X132.564Y-62.076
X132.564Y-68.426
X132.6Y-97.126
X132.6Y-101.226
X132.6Y-107.576
X136.964Y-57.976
X136.964Y-62.076
X136.964Y-68.426
X136.964Y-74.776
X137.0Y-97.126
X137.0Y-101.226
X137.0Y-107.576
X137.0Y-113.926
X148.767Y-96.976
X148.767Y-101.076
X148.767Y-107.426
X148.767Y-113.776
X148.882Y-57.976
X148.882Y-62.076
X148.882Y-68.426
X148.882Y-74.776
X153.167Y-96.976
X153.167Y-101.076
X153.167Y-107.426
X153.282Y-57.976
X153.282Y-62.076
X153.282Y-68.426
X157.567Y-96.976
X157.567Y-101.076
X157.567Y-107.426
X157.682Y-57.976
X157.682Y-62.076
X157.682Y-68.426
X161.967Y-96.976
X161.967Y-101.076
X161.967Y-107.426
X161.967Y-113.776
X162.082Y-57.976
X162.082Y-62.076
X162.082Y-68.426
X162.082Y-74.776
X174.0Y-57.976
X174.0Y-62.076
X174.0Y-68.426
X174.0Y-74.776
X174.0Y-96.976
X174.0Y-101.076
X174.0Y-107.426
X174.0Y-113.776
X178.4Y-57.976
X178.4Y-62.076
X178.4Y-68.426
X178.4Y-96.976
X178.4Y-101.076
X178.4Y-107.426
X182.8Y-57.976
X182.8Y-62.076
X182.8Y-68.426
X182.8Y-96.976
X182.8Y-101.076
X182.8Y-107.426
X187.2Y-57.976
X187.2Y-62.076
X187.2Y-68.426
X187.2Y-74.776
X187.2Y-96.976
X187.2Y-101.076
X187.2Y-107.426
X187.2Y-113.776
M30
