%TF.GenerationSoftware,KiCad,Pcbnew,9.0.3-9.0.3-0~ubuntu24.04.1*%
%TF.CreationDate,2026-04-21T10:36:48+03:00*%
%TF.ProjectId,switchboard,73776974-6368-4626-9f61-72642e6b6963,rev?*%
%TF.SameCoordinates,Original*%
%TF.FileFunction,Soldermask,Bot*%
%TF.FilePolarity,Negative*%
%FSLAX46Y46*%
G04 Gerber Fmt 4.6, Leading zero omitted, Abs format (unit mm)*
G04 Created by KiCad (PCBNEW 9.0.3-9.0.3-0~ubuntu24.04.1) date 2026-04-21 10:36:48*
%MOMM*%
%LPD*%
G01*
G04 APERTURE LIST*
G04 Aperture macros list*
%AMRoundRect*
0 Rectangle with rounded corners*
0 $1 Rounding radius*
0 $2 $3 $4 $5 $6 $7 $8 $9 X,Y pos of 4 corners*
0 Add a 4 corners polygon primitive as box body*
4,1,4,$2,$3,$4,$5,$6,$7,$8,$9,$2,$3,0*
0 Add four circle primitives for the rounded corners*
1,1,$1+$1,$2,$3*
1,1,$1+$1,$4,$5*
1,1,$1+$1,$6,$7*
1,1,$1+$1,$8,$9*
0 Add four rect primitives between the rounded corners*
20,1,$1+$1,$2,$3,$4,$5,0*
20,1,$1+$1,$4,$5,$6,$7,0*
20,1,$1+$1,$6,$7,$8,$9,0*
20,1,$1+$1,$8,$9,$2,$3,0*%
G04 Aperture macros list end*
%ADD10R,1.700000X1.700000*%
%ADD11C,1.700000*%
%ADD12RoundRect,0.250000X-0.600000X-0.600000X0.600000X-0.600000X0.600000X0.600000X-0.600000X0.600000X0*%
%ADD13RoundRect,0.250000X0.600000X0.600000X-0.600000X0.600000X-0.600000X-0.600000X0.600000X-0.600000X0*%
%ADD14RoundRect,0.250000X0.600000X-0.600000X0.600000X0.600000X-0.600000X0.600000X-0.600000X-0.600000X0*%
%ADD15RoundRect,0.250000X-0.600000X0.600000X-0.600000X-0.600000X0.600000X-0.600000X0.600000X0.600000X0*%
G04 APERTURE END LIST*
D10*
%TO.C,J12*%
X146940000Y-119750000D03*
D11*
X149480000Y-119750000D03*
X152020000Y-119750000D03*
X154560000Y-119750000D03*
%TD*%
D10*
%TO.C,J7*%
X147115000Y-87500000D03*
D11*
X149655000Y-87500000D03*
X152195000Y-87500000D03*
X154735000Y-87500000D03*
%TD*%
D10*
%TO.C,J1*%
X128000000Y-92625000D03*
D11*
X128000000Y-95165000D03*
X128000000Y-97705000D03*
X128000000Y-100245000D03*
X128000000Y-102785000D03*
X128000000Y-105325000D03*
X128000000Y-107865000D03*
X128000000Y-110405000D03*
%TD*%
D10*
%TO.C,J13*%
X146940000Y-115750000D03*
D11*
X149480000Y-115750000D03*
X152020000Y-115750000D03*
X154560000Y-115750000D03*
%TD*%
D10*
%TO.C,J11*%
X169000000Y-97345000D03*
D11*
X169000000Y-99885000D03*
X169000000Y-102425000D03*
X169000000Y-104965000D03*
%TD*%
D12*
%TO.C,J2*%
X133460000Y-81250000D03*
D11*
X136000000Y-81250000D03*
X133460000Y-83790000D03*
X136000000Y-83790000D03*
X133460000Y-86330000D03*
X136000000Y-86330000D03*
X133460000Y-88870000D03*
X136000000Y-88870000D03*
%TD*%
D10*
%TO.C,J3*%
X142670000Y-78750000D03*
D11*
X145210000Y-78750000D03*
X147750000Y-78750000D03*
X150290000Y-78750000D03*
X152830000Y-78750000D03*
X155370000Y-78750000D03*
X157910000Y-78750000D03*
X160450000Y-78750000D03*
%TD*%
D13*
%TO.C,J16*%
X168290000Y-120750000D03*
D11*
X165750000Y-120750000D03*
X168290000Y-118210000D03*
X165750000Y-118210000D03*
X168290000Y-115670000D03*
X165750000Y-115670000D03*
X168290000Y-113130000D03*
X165750000Y-113130000D03*
%TD*%
D10*
%TO.C,J17*%
X142125000Y-124000000D03*
D11*
X144665000Y-124000000D03*
X147205000Y-124000000D03*
X149745000Y-124000000D03*
X152285000Y-124000000D03*
X154825000Y-124000000D03*
X157365000Y-124000000D03*
X159905000Y-124000000D03*
%TD*%
D10*
%TO.C,J14*%
X142250000Y-83710000D03*
D11*
X142250000Y-86250000D03*
X142250000Y-88790000D03*
X142250000Y-91330000D03*
%TD*%
D10*
%TO.C,J10*%
X165000000Y-97345000D03*
D11*
X165000000Y-99885000D03*
X165000000Y-102425000D03*
X165000000Y-104965000D03*
%TD*%
D14*
%TO.C,J18*%
X131170000Y-118540000D03*
D11*
X131170000Y-116000000D03*
X133710000Y-118540000D03*
X133710000Y-116000000D03*
X136250000Y-118540000D03*
X136250000Y-116000000D03*
X138790000Y-118540000D03*
X138790000Y-116000000D03*
%TD*%
D10*
%TO.C,J5*%
X159500000Y-119750000D03*
D11*
X159500000Y-117210000D03*
X159500000Y-114670000D03*
X159500000Y-112130000D03*
%TD*%
D10*
%TO.C,J15*%
X173750000Y-92220000D03*
D11*
X173750000Y-94760000D03*
X173750000Y-97300000D03*
X173750000Y-99840000D03*
X173750000Y-102380000D03*
X173750000Y-104920000D03*
X173750000Y-107460000D03*
X173750000Y-110000000D03*
%TD*%
D10*
%TO.C,J8*%
X147115000Y-83500000D03*
D11*
X149655000Y-83500000D03*
X152195000Y-83500000D03*
X154735000Y-83500000D03*
%TD*%
D10*
%TO.C,J6*%
X132500000Y-97690000D03*
D11*
X132500000Y-100230000D03*
X132500000Y-102770000D03*
X132500000Y-105310000D03*
%TD*%
D15*
%TO.C,J4*%
X170370000Y-84210000D03*
D11*
X170370000Y-86750000D03*
X167830000Y-84210000D03*
X167830000Y-86750000D03*
X165290000Y-84210000D03*
X165290000Y-86750000D03*
X162750000Y-84210000D03*
X162750000Y-86750000D03*
%TD*%
D10*
%TO.C,J9*%
X136500000Y-97690000D03*
D11*
X136500000Y-100230000D03*
X136500000Y-102770000D03*
X136500000Y-105310000D03*
%TD*%
M02*
