%TF.GenerationSoftware,KiCad,Pcbnew,9.0.3-9.0.3-0~ubuntu24.04.1*%
%TF.CreationDate,2026-04-21T10:36:48+03:00*%
%TF.ProjectId,switchboard,73776974-6368-4626-9f61-72642e6b6963,rev?*%
%TF.SameCoordinates,Original*%
%TF.FileFunction,Copper,L1,Top*%
%TF.FilePolarity,Positive*%
%FSLAX46Y46*%
G04 Gerber Fmt 4.6, Leading zero omitted, Abs format (unit mm)*
G04 Created by KiCad (PCBNEW 9.0.3-9.0.3-0~ubuntu24.04.1) date 2026-04-21 10:36:48*
%MOMM*%
%LPD*%
G01*
G04 APERTURE LIST*
G04 Aperture macros list*
%AMRoundRect*
0 Rectangle with rounded corners*
0 $1 Rounding radius*
0 $2 $3 $4 $5 $6 $7 $8 $9 X,Y pos of 4 corners*
0 Add a 4 corners polygon primitive as box body*
4,1,4,$2,$3,$4,$5,$6,$7,$8,$9,$2,$3,0*
0 Add four circle primitives for the rounded corners*
1,1,$1+$1,$2,$3*
1,1,$1+$1,$4,$5*
1,1,$1+$1,$6,$7*
1,1,$1+$1,$8,$9*
0 Add four rect primitives between the rounded corners*
20,1,$1+$1,$2,$3,$4,$5,0*
20,1,$1+$1,$4,$5,$6,$7,0*
20,1,$1+$1,$6,$7,$8,$9,0*
20,1,$1+$1,$8,$9,$2,$3,0*%
G04 Aperture macros list end*
%TA.AperFunction,ComponentPad*%
%ADD10R,1.700000X1.700000*%
%TD*%
%TA.AperFunction,ComponentPad*%
%ADD11C,1.700000*%
%TD*%
%TA.AperFunction,ComponentPad*%
%ADD12RoundRect,0.250000X-0.600000X-0.600000X0.600000X-0.600000X0.600000X0.600000X-0.600000X0.600000X0*%
%TD*%
%TA.AperFunction,ComponentPad*%
%ADD13RoundRect,0.250000X0.600000X0.600000X-0.600000X0.600000X-0.600000X-0.600000X0.600000X-0.600000X0*%
%TD*%
%TA.AperFunction,ComponentPad*%
%ADD14RoundRect,0.250000X0.600000X-0.600000X0.600000X0.600000X-0.600000X0.600000X-0.600000X-0.600000X0*%
%TD*%
%TA.AperFunction,ComponentPad*%
%ADD15RoundRect,0.250000X-0.600000X0.600000X-0.600000X-0.600000X0.600000X-0.600000X0.600000X0.600000X0*%
%TD*%
%TA.AperFunction,Conductor*%
%ADD16C,0.200000*%
%TD*%
G04 APERTURE END LIST*
D10*
%TO.P,J12,1,Pin_1*%
%TO.N,Net-(J12-Pin_1)*%
X146940000Y-119750000D03*
D11*
%TO.P,J12,2,Pin_2*%
%TO.N,Net-(J12-Pin_2)*%
X149480000Y-119750000D03*
%TO.P,J12,3,Pin_3*%
%TO.N,Net-(J12-Pin_3)*%
X152020000Y-119750000D03*
%TO.P,J12,4,Pin_4*%
%TO.N,Net-(J12-Pin_4)*%
X154560000Y-119750000D03*
%TD*%
D10*
%TO.P,J7,1,Pin_1*%
%TO.N,Net-(J3-D0)*%
X147115000Y-87500000D03*
D11*
%TO.P,J7,2,Pin_2*%
%TO.N,Net-(J3-D1)*%
X149655000Y-87500000D03*
%TO.P,J7,3,Pin_3*%
%TO.N,Net-(J3-D2)*%
X152195000Y-87500000D03*
%TO.P,J7,4,Pin_4*%
%TO.N,Net-(J3-D3)*%
X154735000Y-87500000D03*
%TD*%
D10*
%TO.P,J1,1,+V*%
%TO.N,+24V*%
X128000000Y-92625000D03*
D11*
%TO.P,J1,2,D0*%
%TO.N,Net-(J1-D0)*%
X128000000Y-95165000D03*
%TO.P,J1,3,D1*%
%TO.N,Net-(J1-D1)*%
X128000000Y-97705000D03*
%TO.P,J1,4,D2*%
%TO.N,Net-(J1-D2)*%
X128000000Y-100245000D03*
%TO.P,J1,5,D3*%
%TO.N,Net-(J1-D3)*%
X128000000Y-102785000D03*
%TO.P,J1,6,NC*%
%TO.N,unconnected-(J1-NC-Pad6)*%
X128000000Y-105325000D03*
%TO.P,J1,7,NC*%
%TO.N,unconnected-(J1-NC-Pad7)*%
X128000000Y-107865000D03*
%TO.P,J1,8,GND*%
%TO.N,GND*%
X128000000Y-110405000D03*
%TD*%
D10*
%TO.P,J13,1,Pin_1*%
%TO.N,Net-(J12-Pin_1)*%
X146940000Y-115750000D03*
D11*
%TO.P,J13,2,Pin_2*%
%TO.N,Net-(J12-Pin_2)*%
X149480000Y-115750000D03*
%TO.P,J13,3,Pin_3*%
%TO.N,Net-(J12-Pin_3)*%
X152020000Y-115750000D03*
%TO.P,J13,4,Pin_4*%
%TO.N,Net-(J12-Pin_4)*%
X154560000Y-115750000D03*
%TD*%
D10*
%TO.P,J11,1,Pin_1*%
%TO.N,Net-(J10-Pin_1)*%
X169000000Y-97345000D03*
D11*
%TO.P,J11,2,Pin_2*%
%TO.N,Net-(J10-Pin_2)*%
X169000000Y-99885000D03*
%TO.P,J11,3,Pin_3*%
%TO.N,Net-(J10-Pin_3)*%
X169000000Y-102425000D03*
%TO.P,J11,4,Pin_4*%
%TO.N,Net-(J10-Pin_4)*%
X169000000Y-104965000D03*
%TD*%
D12*
%TO.P,J2,1,+V*%
%TO.N,+24V*%
X133460000Y-81250000D03*
D11*
%TO.P,J2,2,D0*%
%TO.N,Net-(J1-D0)*%
X136000000Y-81250000D03*
%TO.P,J2,3,D1*%
%TO.N,Net-(J1-D1)*%
X133460000Y-83790000D03*
%TO.P,J2,4,D2*%
%TO.N,Net-(J1-D2)*%
X136000000Y-83790000D03*
%TO.P,J2,5,D3*%
%TO.N,Net-(J1-D3)*%
X133460000Y-86330000D03*
%TO.P,J2,6,NC*%
%TO.N,unconnected-(J2-NC-Pad6)*%
X136000000Y-86330000D03*
%TO.P,J2,7,NC*%
%TO.N,unconnected-(J2-NC-Pad7)*%
X133460000Y-88870000D03*
%TO.P,J2,8,GND*%
%TO.N,GND*%
X136000000Y-88870000D03*
%TD*%
D10*
%TO.P,J3,1,+V*%
%TO.N,+24V*%
X142670000Y-78750000D03*
D11*
%TO.P,J3,2,D0*%
%TO.N,Net-(J3-D0)*%
X145210000Y-78750000D03*
%TO.P,J3,3,D1*%
%TO.N,Net-(J3-D1)*%
X147750000Y-78750000D03*
%TO.P,J3,4,D2*%
%TO.N,Net-(J3-D2)*%
X150290000Y-78750000D03*
%TO.P,J3,5,D3*%
%TO.N,Net-(J3-D3)*%
X152830000Y-78750000D03*
%TO.P,J3,6,NC*%
%TO.N,unconnected-(J3-NC-Pad6)*%
X155370000Y-78750000D03*
%TO.P,J3,7,NC*%
%TO.N,unconnected-(J3-NC-Pad7)*%
X157910000Y-78750000D03*
%TO.P,J3,8,GND*%
%TO.N,GND*%
X160450000Y-78750000D03*
%TD*%
D13*
%TO.P,J16,1,+V*%
%TO.N,+24V*%
X168290000Y-120750000D03*
D11*
%TO.P,J16,2,D0*%
%TO.N,Net-(J10-Pin_1)*%
X165750000Y-120750000D03*
%TO.P,J16,3,D1*%
%TO.N,Net-(J10-Pin_2)*%
X168290000Y-118210000D03*
%TO.P,J16,4,D2*%
%TO.N,Net-(J10-Pin_3)*%
X165750000Y-118210000D03*
%TO.P,J16,5,D3*%
%TO.N,Net-(J10-Pin_4)*%
X168290000Y-115670000D03*
%TO.P,J16,6,NC*%
%TO.N,unconnected-(J16-NC-Pad6)*%
X165750000Y-115670000D03*
%TO.P,J16,7,NC*%
%TO.N,unconnected-(J16-NC-Pad7)*%
X168290000Y-113130000D03*
%TO.P,J16,8,GND*%
%TO.N,GND*%
X165750000Y-113130000D03*
%TD*%
D10*
%TO.P,J17,1,+V*%
%TO.N,+24V*%
X142125000Y-124000000D03*
D11*
%TO.P,J17,2,D0*%
%TO.N,Net-(J12-Pin_1)*%
X144665000Y-124000000D03*
%TO.P,J17,3,D1*%
%TO.N,Net-(J12-Pin_2)*%
X147205000Y-124000000D03*
%TO.P,J17,4,D2*%
%TO.N,Net-(J12-Pin_3)*%
X149745000Y-124000000D03*
%TO.P,J17,5,D3*%
%TO.N,Net-(J12-Pin_4)*%
X152285000Y-124000000D03*
%TO.P,J17,6,NC*%
%TO.N,unconnected-(J17-NC-Pad6)*%
X154825000Y-124000000D03*
%TO.P,J17,7,NC*%
%TO.N,unconnected-(J17-NC-Pad7)*%
X157365000Y-124000000D03*
%TO.P,J17,8,GND*%
%TO.N,GND*%
X159905000Y-124000000D03*
%TD*%
D10*
%TO.P,J14,1,Pin_1*%
%TO.N,+24V*%
X142250000Y-83710000D03*
D11*
%TO.P,J14,2,Pin_2*%
X142250000Y-86250000D03*
%TO.P,J14,3,Pin_3*%
X142250000Y-88790000D03*
%TO.P,J14,4,Pin_4*%
X142250000Y-91330000D03*
%TD*%
D10*
%TO.P,J10,1,Pin_1*%
%TO.N,Net-(J10-Pin_1)*%
X165000000Y-97345000D03*
D11*
%TO.P,J10,2,Pin_2*%
%TO.N,Net-(J10-Pin_2)*%
X165000000Y-99885000D03*
%TO.P,J10,3,Pin_3*%
%TO.N,Net-(J10-Pin_3)*%
X165000000Y-102425000D03*
%TO.P,J10,4,Pin_4*%
%TO.N,Net-(J10-Pin_4)*%
X165000000Y-104965000D03*
%TD*%
D14*
%TO.P,J18,1,+V*%
%TO.N,+24V*%
X131170000Y-118540000D03*
D11*
%TO.P,J18,2,D0*%
%TO.N,Net-(J12-Pin_1)*%
X131170000Y-116000000D03*
%TO.P,J18,3,D1*%
%TO.N,Net-(J12-Pin_2)*%
X133710000Y-118540000D03*
%TO.P,J18,4,D2*%
%TO.N,Net-(J12-Pin_3)*%
X133710000Y-116000000D03*
%TO.P,J18,5,D3*%
%TO.N,Net-(J12-Pin_4)*%
X136250000Y-118540000D03*
%TO.P,J18,6,NC*%
%TO.N,unconnected-(J18-NC-Pad6)*%
X136250000Y-116000000D03*
%TO.P,J18,7,NC*%
%TO.N,unconnected-(J18-NC-Pad7)*%
X138790000Y-118540000D03*
%TO.P,J18,8,GND*%
%TO.N,GND*%
X138790000Y-116000000D03*
%TD*%
D10*
%TO.P,J5,1,Pin_1*%
%TO.N,+24V*%
X159500000Y-119750000D03*
D11*
%TO.P,J5,2,Pin_2*%
X159500000Y-117210000D03*
%TO.P,J5,3,Pin_3*%
X159500000Y-114670000D03*
%TO.P,J5,4,Pin_4*%
X159500000Y-112130000D03*
%TD*%
D10*
%TO.P,J15,1,+V*%
%TO.N,+24V*%
X173750000Y-92220000D03*
D11*
%TO.P,J15,2,D0*%
%TO.N,Net-(J10-Pin_1)*%
X173750000Y-94760000D03*
%TO.P,J15,3,D1*%
%TO.N,Net-(J10-Pin_2)*%
X173750000Y-97300000D03*
%TO.P,J15,4,D2*%
%TO.N,Net-(J10-Pin_3)*%
X173750000Y-99840000D03*
%TO.P,J15,5,D3*%
%TO.N,Net-(J10-Pin_4)*%
X173750000Y-102380000D03*
%TO.P,J15,6,NC*%
%TO.N,unconnected-(J15-NC-Pad6)*%
X173750000Y-104920000D03*
%TO.P,J15,7,NC*%
%TO.N,unconnected-(J15-NC-Pad7)*%
X173750000Y-107460000D03*
%TO.P,J15,8,GND*%
%TO.N,GND*%
X173750000Y-110000000D03*
%TD*%
D10*
%TO.P,J8,1,Pin_1*%
%TO.N,Net-(J3-D0)*%
X147115000Y-83500000D03*
D11*
%TO.P,J8,2,Pin_2*%
%TO.N,Net-(J3-D1)*%
X149655000Y-83500000D03*
%TO.P,J8,3,Pin_3*%
%TO.N,Net-(J3-D2)*%
X152195000Y-83500000D03*
%TO.P,J8,4,Pin_4*%
%TO.N,Net-(J3-D3)*%
X154735000Y-83500000D03*
%TD*%
D10*
%TO.P,J6,1,Pin_1*%
%TO.N,Net-(J1-D0)*%
X132500000Y-97690000D03*
D11*
%TO.P,J6,2,Pin_2*%
%TO.N,Net-(J1-D1)*%
X132500000Y-100230000D03*
%TO.P,J6,3,Pin_3*%
%TO.N,Net-(J1-D2)*%
X132500000Y-102770000D03*
%TO.P,J6,4,Pin_4*%
%TO.N,Net-(J1-D3)*%
X132500000Y-105310000D03*
%TD*%
D15*
%TO.P,J4,1,+V*%
%TO.N,+24V*%
X170370000Y-84210000D03*
D11*
%TO.P,J4,2,D0*%
%TO.N,Net-(J3-D0)*%
X170370000Y-86750000D03*
%TO.P,J4,3,D1*%
%TO.N,Net-(J3-D1)*%
X167830000Y-84210000D03*
%TO.P,J4,4,D2*%
%TO.N,Net-(J3-D2)*%
X167830000Y-86750000D03*
%TO.P,J4,5,D3*%
%TO.N,Net-(J3-D3)*%
X165290000Y-84210000D03*
%TO.P,J4,6,NC*%
%TO.N,unconnected-(J4-NC-Pad6)*%
X165290000Y-86750000D03*
%TO.P,J4,7,NC*%
%TO.N,unconnected-(J4-NC-Pad7)*%
X162750000Y-84210000D03*
%TO.P,J4,8,GND*%
%TO.N,GND*%
X162750000Y-86750000D03*
%TD*%
D10*
%TO.P,J9,1,Pin_1*%
%TO.N,Net-(J1-D0)*%
X136500000Y-97690000D03*
D11*
%TO.P,J9,2,Pin_2*%
%TO.N,Net-(J1-D1)*%
X136500000Y-100230000D03*
%TO.P,J9,3,Pin_3*%
%TO.N,Net-(J1-D2)*%
X136500000Y-102770000D03*
%TO.P,J9,4,Pin_4*%
%TO.N,Net-(J1-D3)*%
X136500000Y-105310000D03*
%TD*%
D16*
%TO.N,Net-(J1-D2)*%
X130525000Y-102770000D02*
X132500000Y-102770000D01*
X132500000Y-102770000D02*
X136500000Y-102770000D01*
X128000000Y-100245000D02*
X130525000Y-102770000D01*
%TO.N,Net-(J1-D1)*%
X128000000Y-97705000D02*
X130525000Y-100230000D01*
X132500000Y-100230000D02*
X136500000Y-100230000D01*
X130525000Y-100230000D02*
X132500000Y-100230000D01*
%TO.N,Net-(J1-D3)*%
X128000000Y-102785000D02*
X130525000Y-105310000D01*
X132500000Y-105310000D02*
X136500000Y-105310000D01*
X130525000Y-105310000D02*
X132500000Y-105310000D01*
%TO.N,Net-(J1-D0)*%
X130525000Y-97690000D02*
X132500000Y-97690000D01*
X128000000Y-95165000D02*
X130525000Y-97690000D01*
X132500000Y-97690000D02*
X136500000Y-97690000D01*
%TO.N,Net-(J3-D2)*%
X166580000Y-85500000D02*
X154195000Y-85500000D01*
X167830000Y-86750000D02*
X166580000Y-85500000D01*
X154195000Y-85500000D02*
X152195000Y-83500000D01*
%TO.N,Net-(J3-D1)*%
X161219000Y-77599000D02*
X148901000Y-77599000D01*
X167830000Y-84210000D02*
X161219000Y-77599000D01*
X148901000Y-77599000D02*
X147750000Y-78750000D01*
%TO.N,Net-(J3-D0)*%
X155211760Y-86349000D02*
X148266000Y-86349000D01*
X169219000Y-87901000D02*
X156763760Y-87901000D01*
X156763760Y-87901000D02*
X155211760Y-86349000D01*
X170370000Y-86750000D02*
X169219000Y-87901000D01*
X148266000Y-86349000D02*
X147115000Y-87500000D01*
%TO.N,Net-(J3-D3)*%
X153981000Y-79901000D02*
X152830000Y-78750000D01*
X160981000Y-79901000D02*
X153981000Y-79901000D01*
X165290000Y-84210000D02*
X160981000Y-79901000D01*
%TO.N,Net-(J10-Pin_1)*%
X163849000Y-98496000D02*
X165000000Y-97345000D01*
X163849000Y-118849000D02*
X163849000Y-98496000D01*
X165750000Y-120750000D02*
X163849000Y-118849000D01*
%TO.N,Net-(J10-Pin_4)*%
X168290000Y-115670000D02*
X172599000Y-111361000D01*
X172599000Y-111361000D02*
X172599000Y-103531000D01*
X172599000Y-103531000D02*
X173750000Y-102380000D01*
%TO.N,Net-(J10-Pin_3)*%
X165750000Y-118210000D02*
X167139000Y-116821000D01*
X167139000Y-116821000D02*
X167139000Y-104564000D01*
X167139000Y-104564000D02*
X165000000Y-102425000D01*
%TO.N,Net-(J10-Pin_2)*%
X174901000Y-98451000D02*
X173750000Y-97300000D01*
X174901000Y-111599000D02*
X174901000Y-98451000D01*
X168290000Y-118210000D02*
X174901000Y-111599000D01*
%TO.N,Net-(J12-Pin_1)*%
X146940000Y-115750000D02*
X146940000Y-119750000D01*
X146940000Y-119750000D02*
X146940000Y-121725000D01*
X146940000Y-121725000D02*
X144665000Y-124000000D01*
%TO.N,Net-(J12-Pin_2)*%
X147205000Y-124000000D02*
X149480000Y-121725000D01*
X149480000Y-121725000D02*
X149480000Y-119750000D01*
X149480000Y-115750000D02*
X149480000Y-119750000D01*
%TO.N,Net-(J12-Pin_4)*%
X154560000Y-121725000D02*
X154560000Y-119750000D01*
X154560000Y-119750000D02*
X154560000Y-115750000D01*
X152285000Y-124000000D02*
X154560000Y-121725000D01*
%TO.N,Net-(J12-Pin_3)*%
X152020000Y-119750000D02*
X152020000Y-115750000D01*
X149745000Y-124000000D02*
X152020000Y-121725000D01*
X152020000Y-121725000D02*
X152020000Y-119750000D01*
%TD*%
%TA.AperFunction,Conductor*%
%TO.N,+24V*%
G36*
X176152539Y-76100185D02*
G01*
X176198294Y-76152989D01*
X176209500Y-76204500D01*
X176209500Y-132705500D01*
X176189815Y-132772539D01*
X176137011Y-132818294D01*
X176085500Y-132829500D01*
X119584500Y-132829500D01*
X119517461Y-132809815D01*
X119471706Y-132757011D01*
X119460500Y-132705500D01*
X119460500Y-123893713D01*
X143314500Y-123893713D01*
X143314500Y-124106286D01*
X143347753Y-124316239D01*
X143413444Y-124518414D01*
X143509951Y-124707820D01*
X143634890Y-124879786D01*
X143785213Y-125030109D01*
X143957179Y-125155048D01*
X143957181Y-125155049D01*
X143957184Y-125155051D01*
X144146588Y-125251557D01*
X144348757Y-125317246D01*
X144558713Y-125350500D01*
X144558714Y-125350500D01*
X144771286Y-125350500D01*
X144771287Y-125350500D01*
X144981243Y-125317246D01*
X145183412Y-125251557D01*
X145372816Y-125155051D01*
X145394789Y-125139086D01*
X145544786Y-125030109D01*
X145544788Y-125030106D01*
X145544792Y-125030104D01*
X145695104Y-124879792D01*
X145695106Y-124879788D01*
X145695109Y-124879786D01*
X145820048Y-124707820D01*
X145820047Y-124707820D01*
X145820051Y-124707816D01*
X145824514Y-124699054D01*
X145872488Y-124648259D01*
X145940308Y-124631463D01*
X146006444Y-124653999D01*
X146045486Y-124699056D01*
X146049951Y-124707820D01*
X146174890Y-124879786D01*
X146325213Y-125030109D01*
X146497179Y-125155048D01*
X146497181Y-125155049D01*
X146497184Y-125155051D01*
X146686588Y-125251557D01*
X146888757Y-125317246D01*
X147098713Y-125350500D01*
X147098714Y-125350500D01*
X147311286Y-125350500D01*
X147311287Y-125350500D01*
X147521243Y-125317246D01*
X147723412Y-125251557D01*
X147912816Y-125155051D01*
X147934789Y-125139086D01*
X148084786Y-125030109D01*
X148084788Y-125030106D01*
X148084792Y-125030104D01*
X148235104Y-124879792D01*
X148235106Y-124879788D01*
X148235109Y-124879786D01*
X148360048Y-124707820D01*
X148360047Y-124707820D01*
X148360051Y-124707816D01*
X148364514Y-124699054D01*
X148412488Y-124648259D01*
X148480308Y-124631463D01*
X148546444Y-124653999D01*
X148585486Y-124699056D01*
X148589951Y-124707820D01*
X148714890Y-124879786D01*
X148865213Y-125030109D01*
X149037179Y-125155048D01*
X149037181Y-125155049D01*
X149037184Y-125155051D01*
X149226588Y-125251557D01*
X149428757Y-125317246D01*
X149638713Y-125350500D01*
X149638714Y-125350500D01*
X149851286Y-125350500D01*
X149851287Y-125350500D01*
X150061243Y-125317246D01*
X150263412Y-125251557D01*
X150452816Y-125155051D01*
X150474789Y-125139086D01*
X150624786Y-125030109D01*
X150624788Y-125030106D01*
X150624792Y-125030104D01*
X150775104Y-124879792D01*
X150775106Y-124879788D01*
X150775109Y-124879786D01*
X150900048Y-124707820D01*
X150900047Y-124707820D01*
X150900051Y-124707816D01*
X150904514Y-124699054D01*
X150952488Y-124648259D01*
X151020308Y-124631463D01*
X151086444Y-124653999D01*
X151125486Y-124699056D01*
X151129951Y-124707820D01*
X151254890Y-124879786D01*
X151405213Y-125030109D01*
X151577179Y-125155048D01*
X151577181Y-125155049D01*
X151577184Y-125155051D01*
X151766588Y-125251557D01*
X151968757Y-125317246D01*
X152178713Y-125350500D01*
X152178714Y-125350500D01*
X152391286Y-125350500D01*
X152391287Y-125350500D01*
X152601243Y-125317246D01*
X152803412Y-125251557D01*
X152992816Y-125155051D01*
X153014789Y-125139086D01*
X153164786Y-125030109D01*
X153164788Y-125030106D01*
X153164792Y-125030104D01*
X153315104Y-124879792D01*
X153315106Y-124879788D01*
X153315109Y-124879786D01*
X153440048Y-124707820D01*
X153440047Y-124707820D01*
X153440051Y-124707816D01*
X153444514Y-124699054D01*
X153492488Y-124648259D01*
X153560308Y-124631463D01*
X153626444Y-124653999D01*
X153665486Y-124699056D01*
X153669951Y-124707820D01*
X153794890Y-124879786D01*
X153945213Y-125030109D01*
X154117179Y-125155048D01*
X154117181Y-125155049D01*
X154117184Y-125155051D01*
X154306588Y-125251557D01*
X154508757Y-125317246D01*
X154718713Y-125350500D01*
X154718714Y-125350500D01*
X154931286Y-125350500D01*
X154931287Y-125350500D01*
X155141243Y-125317246D01*
X155343412Y-125251557D01*
X155532816Y-125155051D01*
X155554789Y-125139086D01*
X155704786Y-125030109D01*
X155704788Y-125030106D01*
X155704792Y-125030104D01*
X155855104Y-124879792D01*
X155855106Y-124879788D01*
X155855109Y-124879786D01*
X155980048Y-124707820D01*
X155980047Y-124707820D01*
X155980051Y-124707816D01*
X155984514Y-124699054D01*
X156032488Y-124648259D01*
X156100308Y-124631463D01*
X156166444Y-124653999D01*
X156205486Y-124699056D01*
X156209951Y-124707820D01*
X156334890Y-124879786D01*
X156485213Y-125030109D01*
X156657179Y-125155048D01*
X156657181Y-125155049D01*
X156657184Y-125155051D01*
X156846588Y-125251557D01*
X157048757Y-125317246D01*
X157258713Y-125350500D01*
X157258714Y-125350500D01*
X157471286Y-125350500D01*
X157471287Y-125350500D01*
X157681243Y-125317246D01*
X157883412Y-125251557D01*
X158072816Y-125155051D01*
X158094789Y-125139086D01*
X158244786Y-125030109D01*
X158244788Y-125030106D01*
X158244792Y-125030104D01*
X158395104Y-124879792D01*
X158395106Y-124879788D01*
X158395109Y-124879786D01*
X158520048Y-124707820D01*
X158520047Y-124707820D01*
X158520051Y-124707816D01*
X158524514Y-124699054D01*
X158572488Y-124648259D01*
X158640308Y-124631463D01*
X158706444Y-124653999D01*
X158745486Y-124699056D01*
X158749951Y-124707820D01*
X158874890Y-124879786D01*
X159025213Y-125030109D01*
X159197179Y-125155048D01*
X159197181Y-125155049D01*
X159197184Y-125155051D01*
X159386588Y-125251557D01*
X159588757Y-125317246D01*
X159798713Y-125350500D01*
X159798714Y-125350500D01*
X160011286Y-125350500D01*
X160011287Y-125350500D01*
X160221243Y-125317246D01*
X160423412Y-125251557D01*
X160612816Y-125155051D01*
X160634789Y-125139086D01*
X160784786Y-125030109D01*
X160784788Y-125030106D01*
X160784792Y-125030104D01*
X160935104Y-124879792D01*
X160935106Y-124879788D01*
X160935109Y-124879786D01*
X161060048Y-124707820D01*
X161060047Y-124707820D01*
X161060051Y-124707816D01*
X161156557Y-124518412D01*
X161222246Y-124316243D01*
X161255500Y-124106287D01*
X161255500Y-123893713D01*
X161222246Y-123683757D01*
X161156557Y-123481588D01*
X161060051Y-123292184D01*
X161060049Y-123292181D01*
X161060048Y-123292179D01*
X160935109Y-123120213D01*
X160784786Y-122969890D01*
X160612820Y-122844951D01*
X160423414Y-122748444D01*
X160423413Y-122748443D01*
X160423412Y-122748443D01*
X160221243Y-122682754D01*
X160221241Y-122682753D01*
X160221240Y-122682753D01*
X160059957Y-122657208D01*
X160011287Y-122649500D01*
X159798713Y-122649500D01*
X159750042Y-122657208D01*
X159588760Y-122682753D01*
X159386585Y-122748444D01*
X159197179Y-122844951D01*
X159025213Y-122969890D01*
X158874890Y-123120213D01*
X158749949Y-123292182D01*
X158745484Y-123300946D01*
X158697509Y-123351742D01*
X158629688Y-123368536D01*
X158563553Y-123345998D01*
X158524516Y-123300946D01*
X158520050Y-123292182D01*
X158395109Y-123120213D01*
X158244786Y-122969890D01*
X158072820Y-122844951D01*
X157883414Y-122748444D01*
X157883413Y-122748443D01*
X157883412Y-122748443D01*
X157681243Y-122682754D01*
X157681241Y-122682753D01*
X157681240Y-122682753D01*
X157519957Y-122657208D01*
X157471287Y-122649500D01*
X157258713Y-122649500D01*
X157210042Y-122657208D01*
X157048760Y-122682753D01*
X156846585Y-122748444D01*
X156657179Y-122844951D01*
X156485213Y-122969890D01*
X156334890Y-123120213D01*
X156209949Y-123292182D01*
X156205484Y-123300946D01*
X156157509Y-123351742D01*
X156089688Y-123368536D01*
X156023553Y-123345998D01*
X155984516Y-123300946D01*
X155980050Y-123292182D01*
X155855109Y-123120213D01*
X155704786Y-122969890D01*
X155532820Y-122844951D01*
X155343414Y-122748444D01*
X155343413Y-122748443D01*
X155343412Y-122748443D01*
X155141243Y-122682754D01*
X155141241Y-122682753D01*
X155141240Y-122682753D01*
X154979957Y-122657208D01*
X154931287Y-122649500D01*
X154784096Y-122649500D01*
X154717057Y-122629815D01*
X154671302Y-122577011D01*
X154661358Y-122507853D01*
X154690383Y-122444297D01*
X154696415Y-122437819D01*
X154918506Y-122215728D01*
X154918511Y-122215724D01*
X154928714Y-122205520D01*
X154928716Y-122205520D01*
X155040520Y-122093716D01*
X155093728Y-122001557D01*
X155119577Y-121956785D01*
X155160501Y-121804057D01*
X155160501Y-121645943D01*
X155160501Y-121638348D01*
X155160500Y-121638330D01*
X155160500Y-121035718D01*
X155180185Y-120968679D01*
X155228207Y-120925233D01*
X155267815Y-120905052D01*
X155267815Y-120905051D01*
X155267816Y-120905051D01*
X155359193Y-120838661D01*
X155439786Y-120780109D01*
X155439788Y-120780106D01*
X155439792Y-120780104D01*
X155590104Y-120629792D01*
X155590106Y-120629788D01*
X155590109Y-120629786D01*
X155715048Y-120457820D01*
X155715047Y-120457820D01*
X155715051Y-120457816D01*
X155811557Y-120268412D01*
X155877246Y-120066243D01*
X155910500Y-119856287D01*
X155910500Y-119643713D01*
X155877246Y-119433757D01*
X155811557Y-119231588D01*
X155715051Y-119042184D01*
X155715049Y-119042181D01*
X155715048Y-119042179D01*
X155632132Y-118928054D01*
X163248498Y-118928054D01*
X163248499Y-118928057D01*
X163279078Y-119042179D01*
X163289424Y-119080787D01*
X163307570Y-119112216D01*
X163307571Y-119112218D01*
X163368477Y-119217712D01*
X163368481Y-119217717D01*
X163487349Y-119336585D01*
X163487355Y-119336590D01*
X164416241Y-120265476D01*
X164449726Y-120326799D01*
X164446492Y-120391473D01*
X164432753Y-120433757D01*
X164399500Y-120643713D01*
X164399500Y-120856286D01*
X164429198Y-121043796D01*
X164432754Y-121066243D01*
X164467437Y-121172987D01*
X164498444Y-121268414D01*
X164594951Y-121457820D01*
X164719890Y-121629786D01*
X164870213Y-121780109D01*
X165042179Y-121905048D01*
X165042181Y-121905049D01*
X165042184Y-121905051D01*
X165231588Y-122001557D01*
X165433757Y-122067246D01*
X165643713Y-122100500D01*
X165643714Y-122100500D01*
X165856286Y-122100500D01*
X165856287Y-122100500D01*
X166066243Y-122067246D01*
X166268412Y-122001557D01*
X166457816Y-121905051D01*
X166479789Y-121889086D01*
X166629786Y-121780109D01*
X166629788Y-121780106D01*
X166629792Y-121780104D01*
X166780104Y-121629792D01*
X166780106Y-121629788D01*
X166780109Y-121629786D01*
X166905048Y-121457820D01*
X166905047Y-121457820D01*
X166905051Y-121457816D01*
X167001557Y-121268412D01*
X167067246Y-121066243D01*
X167100500Y-120856287D01*
X167100500Y-120643713D01*
X167067246Y-120433757D01*
X167001557Y-120231588D01*
X166905051Y-120042184D01*
X166905049Y-120042181D01*
X166905048Y-120042179D01*
X166780109Y-119870213D01*
X166629786Y-119719890D01*
X166457820Y-119594951D01*
X166457115Y-119594591D01*
X166449054Y-119590485D01*
X166398259Y-119542512D01*
X166381463Y-119474692D01*
X166403999Y-119408556D01*
X166449054Y-119369515D01*
X166457816Y-119365051D01*
X166479789Y-119349086D01*
X166629786Y-119240109D01*
X166629788Y-119240106D01*
X166629792Y-119240104D01*
X166780104Y-119089792D01*
X166780106Y-119089788D01*
X166780109Y-119089786D01*
X166889086Y-118939789D01*
X166905051Y-118917816D01*
X166909514Y-118909054D01*
X166957488Y-118858259D01*
X167025308Y-118841463D01*
X167091444Y-118863999D01*
X167130486Y-118909056D01*
X167134951Y-118917820D01*
X167259890Y-119089786D01*
X167410213Y-119240109D01*
X167582179Y-119365048D01*
X167582181Y-119365049D01*
X167582184Y-119365051D01*
X167771588Y-119461557D01*
X167973757Y-119527246D01*
X168183713Y-119560500D01*
X168183714Y-119560500D01*
X168396286Y-119560500D01*
X168396287Y-119560500D01*
X168606243Y-119527246D01*
X168808412Y-119461557D01*
X168997816Y-119365051D01*
X169019789Y-119349086D01*
X169169786Y-119240109D01*
X169169788Y-119240106D01*
X169169792Y-119240104D01*
X169320104Y-119089792D01*
X169320106Y-119089788D01*
X169320109Y-119089786D01*
X169429086Y-118939789D01*
X169445051Y-118917816D01*
X169541557Y-118728412D01*
X169607246Y-118526243D01*
X169640500Y-118316287D01*
X169640500Y-118103713D01*
X169607246Y-117893757D01*
X169593506Y-117851473D01*
X169591512Y-117781635D01*
X169623755Y-117725478D01*
X175259506Y-112089728D01*
X175259511Y-112089724D01*
X175269714Y-112079520D01*
X175269716Y-112079520D01*
X175381520Y-111967716D01*
X175454379Y-111841520D01*
X175454380Y-111841517D01*
X175454382Y-111841516D01*
X175460575Y-111830788D01*
X175460574Y-111830788D01*
X175460577Y-111830785D01*
X175501501Y-111678057D01*
X175501501Y-111519943D01*
X175501501Y-111512348D01*
X175501500Y-111512330D01*
X175501500Y-98540060D01*
X175501501Y-98540047D01*
X175501501Y-98371945D01*
X175501501Y-98371943D01*
X175460577Y-98219215D01*
X175428649Y-98163914D01*
X175381520Y-98082284D01*
X175269716Y-97970480D01*
X175269715Y-97970479D01*
X175265385Y-97966149D01*
X175265374Y-97966139D01*
X175083757Y-97784522D01*
X175050272Y-97723199D01*
X175053507Y-97658523D01*
X175067246Y-97616243D01*
X175100500Y-97406287D01*
X175100500Y-97193713D01*
X175067246Y-96983757D01*
X175001557Y-96781588D01*
X174905051Y-96592184D01*
X174905049Y-96592181D01*
X174905048Y-96592179D01*
X174780109Y-96420213D01*
X174629786Y-96269890D01*
X174457820Y-96144951D01*
X174457115Y-96144591D01*
X174449054Y-96140485D01*
X174398259Y-96092512D01*
X174381463Y-96024692D01*
X174403999Y-95958556D01*
X174449054Y-95919515D01*
X174457816Y-95915051D01*
X174479789Y-95899086D01*
X174629786Y-95790109D01*
X174629788Y-95790106D01*
X174629792Y-95790104D01*
X174780104Y-95639792D01*
X174780106Y-95639788D01*
X174780109Y-95639786D01*
X174895296Y-95481243D01*
X174905051Y-95467816D01*
X175001557Y-95278412D01*
X175067246Y-95076243D01*
X175100500Y-94866287D01*
X175100500Y-94653713D01*
X175067246Y-94443757D01*
X175001557Y-94241588D01*
X174905051Y-94052184D01*
X174905049Y-94052181D01*
X174905048Y-94052179D01*
X174780109Y-93880213D01*
X174629786Y-93729890D01*
X174457820Y-93604951D01*
X174268414Y-93508444D01*
X174268413Y-93508443D01*
X174268412Y-93508443D01*
X174066243Y-93442754D01*
X174066241Y-93442753D01*
X174066240Y-93442753D01*
X173904957Y-93417208D01*
X173856287Y-93409500D01*
X173643713Y-93409500D01*
X173595042Y-93417208D01*
X173433760Y-93442753D01*
X173231585Y-93508444D01*
X173042179Y-93604951D01*
X172870213Y-93729890D01*
X172719890Y-93880213D01*
X172594951Y-94052179D01*
X172498444Y-94241585D01*
X172432753Y-94443760D01*
X172399500Y-94653713D01*
X172399500Y-94866286D01*
X172432753Y-95076239D01*
X172498444Y-95278414D01*
X172594951Y-95467820D01*
X172719890Y-95639786D01*
X172870213Y-95790109D01*
X173042182Y-95915050D01*
X173050946Y-95919516D01*
X173101742Y-95967491D01*
X173118536Y-96035312D01*
X173095998Y-96101447D01*
X173050946Y-96140484D01*
X173042182Y-96144949D01*
X172870213Y-96269890D01*
X172719890Y-96420213D01*
X172594951Y-96592179D01*
X172498444Y-96781585D01*
X172432753Y-96983760D01*
X172399500Y-97193713D01*
X172399500Y-97406286D01*
X172432753Y-97616239D01*
X172432753Y-97616241D01*
X172432754Y-97616243D01*
X172487431Y-97784522D01*
X172498444Y-97818414D01*
X172594951Y-98007820D01*
X172719890Y-98179786D01*
X172870213Y-98330109D01*
X173042182Y-98455050D01*
X173050946Y-98459516D01*
X173101742Y-98507491D01*
X173118536Y-98575312D01*
X173095998Y-98641447D01*
X173050946Y-98680484D01*
X173042182Y-98684949D01*
X172870213Y-98809890D01*
X172719890Y-98960213D01*
X172594951Y-99132179D01*
X172498444Y-99321585D01*
X172432753Y-99523760D01*
X172399500Y-99733713D01*
X172399500Y-99946286D01*
X172429977Y-100138713D01*
X172432754Y-100156243D01*
X172447375Y-100201243D01*
X172498444Y-100358414D01*
X172594951Y-100547820D01*
X172719890Y-100719786D01*
X172870213Y-100870109D01*
X173042182Y-100995050D01*
X173050946Y-100999516D01*
X173101742Y-101047491D01*
X173118536Y-101115312D01*
X173095998Y-101181447D01*
X173050946Y-101220484D01*
X173042182Y-101224949D01*
X172870213Y-101349890D01*
X172719890Y-101500213D01*
X172594951Y-101672179D01*
X172498444Y-101861585D01*
X172432753Y-102063760D01*
X172399500Y-102273713D01*
X172399500Y-102486286D01*
X172432754Y-102696244D01*
X172432754Y-102696247D01*
X172446491Y-102738523D01*
X172448486Y-102808364D01*
X172416241Y-102864522D01*
X172233305Y-103047458D01*
X172233298Y-103047465D01*
X172230286Y-103050478D01*
X172230284Y-103050480D01*
X172118480Y-103162284D01*
X172095470Y-103202139D01*
X172089465Y-103212539D01*
X172089463Y-103212542D01*
X172056566Y-103269522D01*
X172039423Y-103299215D01*
X171998499Y-103451943D01*
X171998499Y-103451945D01*
X171998499Y-103620046D01*
X171998500Y-103620059D01*
X171998500Y-111060902D01*
X171978815Y-111127941D01*
X171962181Y-111148583D01*
X169852181Y-113258583D01*
X169790858Y-113292068D01*
X169721166Y-113287084D01*
X169665233Y-113245212D01*
X169640816Y-113179748D01*
X169640500Y-113170902D01*
X169640500Y-113023713D01*
X169607246Y-112813760D01*
X169607246Y-112813757D01*
X169541557Y-112611588D01*
X169445051Y-112422184D01*
X169445049Y-112422181D01*
X169445048Y-112422179D01*
X169320109Y-112250213D01*
X169169786Y-112099890D01*
X168997820Y-111974951D01*
X168808414Y-111878444D01*
X168808413Y-111878443D01*
X168808412Y-111878443D01*
X168606243Y-111812754D01*
X168606241Y-111812753D01*
X168606240Y-111812753D01*
X168444957Y-111787208D01*
X168396287Y-111779500D01*
X168183713Y-111779500D01*
X168144202Y-111785757D01*
X167973759Y-111812753D01*
X167973755Y-111812754D01*
X167901817Y-111836128D01*
X167831976Y-111838123D01*
X167772143Y-111802042D01*
X167741316Y-111739341D01*
X167739500Y-111718197D01*
X167739500Y-105909312D01*
X167759185Y-105842273D01*
X167811989Y-105796518D01*
X167881147Y-105786574D01*
X167944703Y-105815599D01*
X167963820Y-105836430D01*
X167969890Y-105844785D01*
X167969894Y-105844790D01*
X168120213Y-105995109D01*
X168292179Y-106120048D01*
X168292181Y-106120049D01*
X168292184Y-106120051D01*
X168481588Y-106216557D01*
X168683757Y-106282246D01*
X168893713Y-106315500D01*
X168893714Y-106315500D01*
X169106286Y-106315500D01*
X169106287Y-106315500D01*
X169316243Y-106282246D01*
X169518412Y-106216557D01*
X169707816Y-106120051D01*
X169729789Y-106104086D01*
X169879786Y-105995109D01*
X169879788Y-105995106D01*
X169879792Y-105995104D01*
X170030104Y-105844792D01*
X170030106Y-105844788D01*
X170030109Y-105844786D01*
X170155048Y-105672820D01*
X170155047Y-105672820D01*
X170155051Y-105672816D01*
X170251557Y-105483412D01*
X170317246Y-105281243D01*
X170350500Y-105071287D01*
X170350500Y-104858713D01*
X170317246Y-104648757D01*
X170251557Y-104446588D01*
X170155051Y-104257184D01*
X170155049Y-104257181D01*
X170155048Y-104257179D01*
X170030109Y-104085213D01*
X169879786Y-103934890D01*
X169707820Y-103809951D01*
X169707115Y-103809591D01*
X169699054Y-103805485D01*
X169648259Y-103757512D01*
X169631463Y-103689692D01*
X169653999Y-103623556D01*
X169699054Y-103584515D01*
X169707816Y-103580051D01*
X169729789Y-103564086D01*
X169879786Y-103455109D01*
X169879788Y-103455106D01*
X169879792Y-103455104D01*
X170030104Y-103304792D01*
X170030106Y-103304788D01*
X170030109Y-103304786D01*
X170155048Y-103132820D01*
X170155047Y-103132820D01*
X170155051Y-103132816D01*
X170251557Y-102943412D01*
X170317246Y-102741243D01*
X170350500Y-102531287D01*
X170350500Y-102318713D01*
X170317246Y-102108757D01*
X170251557Y-101906588D01*
X170155051Y-101717184D01*
X170155049Y-101717181D01*
X170155048Y-101717179D01*
X170030109Y-101545213D01*
X169879786Y-101394890D01*
X169707820Y-101269951D01*
X169707115Y-101269591D01*
X169699054Y-101265485D01*
X169648259Y-101217512D01*
X169631463Y-101149692D01*
X169653999Y-101083556D01*
X169699054Y-101044515D01*
X169707816Y-101040051D01*
X169769755Y-100995050D01*
X169879786Y-100915109D01*
X169879788Y-100915106D01*
X169879792Y-100915104D01*
X170030104Y-100764792D01*
X170030106Y-100764788D01*
X170030109Y-100764786D01*
X170155048Y-100592820D01*
X170155047Y-100592820D01*
X170155051Y-100592816D01*
X170251557Y-100403412D01*
X170317246Y-100201243D01*
X170350500Y-99991287D01*
X170350500Y-99778713D01*
X170317246Y-99568757D01*
X170251557Y-99366588D01*
X170155051Y-99177184D01*
X170155049Y-99177181D01*
X170155048Y-99177179D01*
X170030109Y-99005213D01*
X169916569Y-98891673D01*
X169883084Y-98830350D01*
X169888068Y-98760658D01*
X169929940Y-98704725D01*
X169960915Y-98687810D01*
X170092331Y-98638796D01*
X170207546Y-98552546D01*
X170293796Y-98437331D01*
X170344091Y-98302483D01*
X170350500Y-98242873D01*
X170350499Y-96447128D01*
X170344091Y-96387517D01*
X170328572Y-96345909D01*
X170293797Y-96252671D01*
X170293793Y-96252664D01*
X170207547Y-96137455D01*
X170207544Y-96137452D01*
X170092335Y-96051206D01*
X170092328Y-96051202D01*
X169957482Y-96000908D01*
X169957483Y-96000908D01*
X169897883Y-95994501D01*
X169897881Y-95994500D01*
X169897873Y-95994500D01*
X169897864Y-95994500D01*
X168102129Y-95994500D01*
X168102123Y-95994501D01*
X168042516Y-96000908D01*
X167907671Y-96051202D01*
X167907664Y-96051206D01*
X167792455Y-96137452D01*
X167792452Y-96137455D01*
X167706206Y-96252664D01*
X167706202Y-96252671D01*
X167655908Y-96387517D01*
X167649501Y-96447116D01*
X167649501Y-96447123D01*
X167649500Y-96447135D01*
X167649500Y-98242870D01*
X167649501Y-98242876D01*
X167655908Y-98302483D01*
X167706202Y-98437328D01*
X167706206Y-98437335D01*
X167792452Y-98552544D01*
X167792455Y-98552547D01*
X167907664Y-98638793D01*
X167907671Y-98638797D01*
X168039082Y-98687810D01*
X168095016Y-98729681D01*
X168119433Y-98795145D01*
X168104582Y-98863418D01*
X168083431Y-98891673D01*
X167969889Y-99005215D01*
X167844951Y-99177179D01*
X167748444Y-99366585D01*
X167682753Y-99568760D01*
X167649500Y-99778713D01*
X167649500Y-99991286D01*
X167675626Y-100156243D01*
X167682754Y-100201243D01*
X167733822Y-100358414D01*
X167748444Y-100403414D01*
X167844951Y-100592820D01*
X167969890Y-100764786D01*
X168120213Y-100915109D01*
X168292182Y-101040050D01*
X168300946Y-101044516D01*
X168351742Y-101092491D01*
X168368536Y-101160312D01*
X168345998Y-101226447D01*
X168300946Y-101265484D01*
X168292182Y-101269949D01*
X168120213Y-101394890D01*
X167969890Y-101545213D01*
X167844951Y-101717179D01*
X167748444Y-101906585D01*
X167682753Y-102108760D01*
X167649500Y-102318713D01*
X167649500Y-102531286D01*
X167682753Y-102741239D01*
X167682753Y-102741241D01*
X167682754Y-102741243D01*
X167737431Y-102909522D01*
X167748444Y-102943414D01*
X167844951Y-103132820D01*
X167969890Y-103304786D01*
X168120213Y-103455109D01*
X168292182Y-103580050D01*
X168300946Y-103584516D01*
X168351742Y-103632491D01*
X168368536Y-103700312D01*
X168345998Y-103766447D01*
X168300946Y-103805484D01*
X168292182Y-103809949D01*
X168120213Y-103934890D01*
X167969894Y-104085209D01*
X167969890Y-104085214D01*
X167851484Y-104248187D01*
X167796154Y-104290853D01*
X167726541Y-104296832D01*
X167664746Y-104264226D01*
X167657657Y-104256740D01*
X167649777Y-104247692D01*
X167619520Y-104195284D01*
X167507716Y-104083480D01*
X167507713Y-104083478D01*
X166333757Y-102909522D01*
X166300272Y-102848199D01*
X166303507Y-102783523D01*
X166317246Y-102741243D01*
X166350500Y-102531287D01*
X166350500Y-102318713D01*
X166317246Y-102108757D01*
X166251557Y-101906588D01*
X166155051Y-101717184D01*
X166155049Y-101717181D01*
X166155048Y-101717179D01*
X166030109Y-101545213D01*
X165879786Y-101394890D01*
X165707820Y-101269951D01*
X165707115Y-101269591D01*
X165699054Y-101265485D01*
X165648259Y-101217512D01*
X165631463Y-101149692D01*
X165653999Y-101083556D01*
X165699054Y-101044515D01*
X165707816Y-101040051D01*
X165769755Y-100995050D01*
X165879786Y-100915109D01*
X165879788Y-100915106D01*
X165879792Y-100915104D01*
X166030104Y-100764792D01*
X166030106Y-100764788D01*
X166030109Y-100764786D01*
X166155048Y-100592820D01*
X166155047Y-100592820D01*
X166155051Y-100592816D01*
X166251557Y-100403412D01*
X166317246Y-100201243D01*
X166350500Y-99991287D01*
X166350500Y-99778713D01*
X166317246Y-99568757D01*
X166251557Y-99366588D01*
X166155051Y-99177184D01*
X166155049Y-99177181D01*
X166155048Y-99177179D01*
X166030109Y-99005213D01*
X165916569Y-98891673D01*
X165883084Y-98830350D01*
X165888068Y-98760658D01*
X165929940Y-98704725D01*
X165960915Y-98687810D01*
X166092331Y-98638796D01*
X166207546Y-98552546D01*
X166293796Y-98437331D01*
X166344091Y-98302483D01*
X166350500Y-98242873D01*
X166350499Y-96447128D01*
X166344091Y-96387517D01*
X166328572Y-96345909D01*
X166293797Y-96252671D01*
X166293793Y-96252664D01*
X166207547Y-96137455D01*
X166207544Y-96137452D01*
X166092335Y-96051206D01*
X166092328Y-96051202D01*
X165957482Y-96000908D01*
X165957483Y-96000908D01*
X165897883Y-95994501D01*
X165897881Y-95994500D01*
X165897873Y-95994500D01*
X165897864Y-95994500D01*
X164102129Y-95994500D01*
X164102123Y-95994501D01*
X164042516Y-96000908D01*
X163907671Y-96051202D01*
X163907664Y-96051206D01*
X163792455Y-96137452D01*
X163792452Y-96137455D01*
X163706206Y-96252664D01*
X163706202Y-96252671D01*
X163655908Y-96387517D01*
X163649501Y-96447116D01*
X163649501Y-96447123D01*
X163649500Y-96447135D01*
X163649500Y-97794902D01*
X163629815Y-97861941D01*
X163613181Y-97882583D01*
X163368481Y-98127282D01*
X163368479Y-98127284D01*
X163350934Y-98157674D01*
X163343518Y-98170520D01*
X163289423Y-98264215D01*
X163248499Y-98416943D01*
X163248499Y-98575057D01*
X163248499Y-98575059D01*
X163248500Y-98585053D01*
X163248500Y-118762330D01*
X163248499Y-118762348D01*
X163248499Y-118928054D01*
X163248498Y-118928054D01*
X155632132Y-118928054D01*
X155590109Y-118870213D01*
X155439786Y-118719890D01*
X155267815Y-118594948D01*
X155267814Y-118594947D01*
X155228205Y-118574765D01*
X155177409Y-118526791D01*
X155160500Y-118464281D01*
X155160500Y-117035718D01*
X155180185Y-116968679D01*
X155228207Y-116925233D01*
X155267815Y-116905052D01*
X155267815Y-116905051D01*
X155267816Y-116905051D01*
X155371782Y-116829516D01*
X155439786Y-116780109D01*
X155439788Y-116780106D01*
X155439792Y-116780104D01*
X155590104Y-116629792D01*
X155590106Y-116629788D01*
X155590109Y-116629786D01*
X155715048Y-116457820D01*
X155715047Y-116457820D01*
X155715051Y-116457816D01*
X155811557Y-116268412D01*
X155877246Y-116066243D01*
X155910500Y-115856287D01*
X155910500Y-115643713D01*
X155877246Y-115433757D01*
X155811557Y-115231588D01*
X155715051Y-115042184D01*
X155715049Y-115042181D01*
X155715048Y-115042179D01*
X155590109Y-114870213D01*
X155439786Y-114719890D01*
X155267820Y-114594951D01*
X155078414Y-114498444D01*
X155078413Y-114498443D01*
X155078412Y-114498443D01*
X154876243Y-114432754D01*
X154876241Y-114432753D01*
X154876240Y-114432753D01*
X154714957Y-114407208D01*
X154666287Y-114399500D01*
X154453713Y-114399500D01*
X154405042Y-114407208D01*
X154243760Y-114432753D01*
X154041585Y-114498444D01*
X153852179Y-114594951D01*
X153680213Y-114719890D01*
X153529890Y-114870213D01*
X153404949Y-115042182D01*
X153400484Y-115050946D01*
X153352509Y-115101742D01*
X153284688Y-115118536D01*
X153218553Y-115095998D01*
X153179516Y-115050946D01*
X153175050Y-115042182D01*
X153050109Y-114870213D01*
X152899786Y-114719890D01*
X152727820Y-114594951D01*
X152538414Y-114498444D01*
X152538413Y-114498443D01*
X152538412Y-114498443D01*
X152336243Y-114432754D01*
X152336241Y-114432753D01*
X152336240Y-114432753D01*
X152174957Y-114407208D01*
X152126287Y-114399500D01*
X151913713Y-114399500D01*
X151865042Y-114407208D01*
X151703760Y-114432753D01*
X151501585Y-114498444D01*
X151312179Y-114594951D01*
X151140213Y-114719890D01*
X150989890Y-114870213D01*
X150864949Y-115042182D01*
X150860484Y-115050946D01*
X150812509Y-115101742D01*
X150744688Y-115118536D01*
X150678553Y-115095998D01*
X150639516Y-115050946D01*
X150635050Y-115042182D01*
X150510109Y-114870213D01*
X150359786Y-114719890D01*
X150187820Y-114594951D01*
X149998414Y-114498444D01*
X149998413Y-114498443D01*
X149998412Y-114498443D01*
X149796243Y-114432754D01*
X149796241Y-114432753D01*
X149796240Y-114432753D01*
X149634957Y-114407208D01*
X149586287Y-114399500D01*
X149373713Y-114399500D01*
X149325042Y-114407208D01*
X149163760Y-114432753D01*
X148961585Y-114498444D01*
X148772179Y-114594951D01*
X148600215Y-114719889D01*
X148486673Y-114833431D01*
X148425350Y-114866915D01*
X148355658Y-114861931D01*
X148299725Y-114820059D01*
X148282810Y-114789082D01*
X148233797Y-114657671D01*
X148233793Y-114657664D01*
X148147547Y-114542455D01*
X148147544Y-114542452D01*
X148032335Y-114456206D01*
X148032328Y-114456202D01*
X147897482Y-114405908D01*
X147897483Y-114405908D01*
X147837883Y-114399501D01*
X147837881Y-114399500D01*
X147837873Y-114399500D01*
X147837864Y-114399500D01*
X146042129Y-114399500D01*
X146042123Y-114399501D01*
X145982516Y-114405908D01*
X145847671Y-114456202D01*
X145847664Y-114456206D01*
X145732455Y-114542452D01*
X145732452Y-114542455D01*
X145646206Y-114657664D01*
X145646202Y-114657671D01*
X145595908Y-114792517D01*
X145589501Y-114852116D01*
X145589500Y-114852135D01*
X145589500Y-116647870D01*
X145589501Y-116647876D01*
X145595908Y-116707483D01*
X145646202Y-116842328D01*
X145646206Y-116842335D01*
X145732452Y-116957544D01*
X145732455Y-116957547D01*
X145847664Y-117043793D01*
X145847671Y-117043797D01*
X145865600Y-117050484D01*
X145982517Y-117094091D01*
X146042127Y-117100500D01*
X146215500Y-117100499D01*
X146282539Y-117120183D01*
X146328294Y-117172987D01*
X146339500Y-117224499D01*
X146339500Y-118275500D01*
X146319815Y-118342539D01*
X146267011Y-118388294D01*
X146215501Y-118399500D01*
X146042130Y-118399500D01*
X146042123Y-118399501D01*
X145982516Y-118405908D01*
X145847671Y-118456202D01*
X145847664Y-118456206D01*
X145732455Y-118542452D01*
X145732452Y-118542455D01*
X145646206Y-118657664D01*
X145646202Y-118657671D01*
X145595908Y-118792517D01*
X145589501Y-118852116D01*
X145589500Y-118852135D01*
X145589500Y-120647870D01*
X145589501Y-120647876D01*
X145595908Y-120707483D01*
X145646202Y-120842328D01*
X145646206Y-120842335D01*
X145732452Y-120957544D01*
X145732455Y-120957547D01*
X145847664Y-121043793D01*
X145847671Y-121043797D01*
X145892618Y-121060561D01*
X145982517Y-121094091D01*
X146042127Y-121100500D01*
X146215500Y-121100499D01*
X146224185Y-121103049D01*
X146233147Y-121101761D01*
X146257184Y-121112738D01*
X146282539Y-121120183D01*
X146288467Y-121127025D01*
X146296703Y-121130786D01*
X146310989Y-121153017D01*
X146328294Y-121172987D01*
X146330581Y-121183502D01*
X146334477Y-121189564D01*
X146339500Y-121224499D01*
X146339500Y-121424902D01*
X146319815Y-121491941D01*
X146303181Y-121512583D01*
X145149522Y-122666241D01*
X145088199Y-122699726D01*
X145023523Y-122696491D01*
X144981245Y-122682754D01*
X144841272Y-122660584D01*
X144771287Y-122649500D01*
X144558713Y-122649500D01*
X144510042Y-122657208D01*
X144348760Y-122682753D01*
X144146585Y-122748444D01*
X143957179Y-122844951D01*
X143785213Y-122969890D01*
X143634890Y-123120213D01*
X143509951Y-123292179D01*
X143413444Y-123481585D01*
X143347753Y-123683760D01*
X143314500Y-123893713D01*
X119460500Y-123893713D01*
X119460500Y-115893713D01*
X129819500Y-115893713D01*
X129819500Y-116106286D01*
X129845178Y-116268414D01*
X129852754Y-116316243D01*
X129911072Y-116495727D01*
X129918444Y-116518414D01*
X130014951Y-116707820D01*
X130139890Y-116879786D01*
X130290213Y-117030109D01*
X130462179Y-117155048D01*
X130462181Y-117155049D01*
X130462184Y-117155051D01*
X130651588Y-117251557D01*
X130853757Y-117317246D01*
X131063713Y-117350500D01*
X131063714Y-117350500D01*
X131276286Y-117350500D01*
X131276287Y-117350500D01*
X131486243Y-117317246D01*
X131688412Y-117251557D01*
X131877816Y-117155051D01*
X131952901Y-117100499D01*
X132049786Y-117030109D01*
X132049788Y-117030106D01*
X132049792Y-117030104D01*
X132200104Y-116879792D01*
X132200106Y-116879788D01*
X132200109Y-116879786D01*
X132325048Y-116707820D01*
X132325047Y-116707820D01*
X132325051Y-116707816D01*
X132329514Y-116699054D01*
X132377488Y-116648259D01*
X132445308Y-116631463D01*
X132511444Y-116653999D01*
X132550486Y-116699056D01*
X132554951Y-116707820D01*
X132679890Y-116879786D01*
X132830213Y-117030109D01*
X133002182Y-117155050D01*
X133010946Y-117159516D01*
X133061742Y-117207491D01*
X133078536Y-117275312D01*
X133055998Y-117341447D01*
X133010946Y-117380484D01*
X133002182Y-117384949D01*
X132830213Y-117509890D01*
X132679890Y-117660213D01*
X132554951Y-117832179D01*
X132458444Y-118021585D01*
X132392753Y-118223760D01*
X132359500Y-118433713D01*
X132359500Y-118646286D01*
X132382116Y-118789082D01*
X132392754Y-118856243D01*
X132453170Y-119042184D01*
X132458444Y-119058414D01*
X132554951Y-119247820D01*
X132679890Y-119419786D01*
X132830213Y-119570109D01*
X133002179Y-119695048D01*
X133002181Y-119695049D01*
X133002184Y-119695051D01*
X133191588Y-119791557D01*
X133393757Y-119857246D01*
X133603713Y-119890500D01*
X133603714Y-119890500D01*
X133816286Y-119890500D01*
X133816287Y-119890500D01*
X134026243Y-119857246D01*
X134228412Y-119791557D01*
X134417816Y-119695051D01*
X134555596Y-119594949D01*
X134589786Y-119570109D01*
X134589788Y-119570106D01*
X134589792Y-119570104D01*
X134740104Y-119419792D01*
X134740106Y-119419788D01*
X134740109Y-119419786D01*
X134865048Y-119247820D01*
X134865047Y-119247820D01*
X134865051Y-119247816D01*
X134869514Y-119239054D01*
X134917488Y-119188259D01*
X134985308Y-119171463D01*
X135051444Y-119193999D01*
X135090486Y-119239056D01*
X135094951Y-119247820D01*
X135219890Y-119419786D01*
X135370213Y-119570109D01*
X135542179Y-119695048D01*
X135542181Y-119695049D01*
X135542184Y-119695051D01*
X135731588Y-119791557D01*
X135933757Y-119857246D01*
X136143713Y-119890500D01*
X136143714Y-119890500D01*
X136356286Y-119890500D01*
X136356287Y-119890500D01*
X136566243Y-119857246D01*
X136768412Y-119791557D01*
X136957816Y-119695051D01*
X137095596Y-119594949D01*
X137129786Y-119570109D01*
X137129788Y-119570106D01*
X137129792Y-119570104D01*
X137280104Y-119419792D01*
X137280106Y-119419788D01*
X137280109Y-119419786D01*
X137405048Y-119247820D01*
X137405047Y-119247820D01*
X137405051Y-119247816D01*
X137409514Y-119239054D01*
X137457488Y-119188259D01*
X137525308Y-119171463D01*
X137591444Y-119193999D01*
X137630486Y-119239056D01*
X137634951Y-119247820D01*
X137759890Y-119419786D01*
X137910213Y-119570109D01*
X138082179Y-119695048D01*
X138082181Y-119695049D01*
X138082184Y-119695051D01*
X138271588Y-119791557D01*
X138473757Y-119857246D01*
X138683713Y-119890500D01*
X138683714Y-119890500D01*
X138896286Y-119890500D01*
X138896287Y-119890500D01*
X139106243Y-119857246D01*
X139308412Y-119791557D01*
X139497816Y-119695051D01*
X139635596Y-119594949D01*
X139669786Y-119570109D01*
X139669788Y-119570106D01*
X139669792Y-119570104D01*
X139820104Y-119419792D01*
X139820106Y-119419788D01*
X139820109Y-119419786D01*
X139945048Y-119247820D01*
X139945047Y-119247820D01*
X139945051Y-119247816D01*
X140041557Y-119058412D01*
X140107246Y-118856243D01*
X140140500Y-118646287D01*
X140140500Y-118433713D01*
X140107246Y-118223757D01*
X140041557Y-118021588D01*
X139945051Y-117832184D01*
X139945049Y-117832181D01*
X139945048Y-117832179D01*
X139820109Y-117660213D01*
X139669786Y-117509890D01*
X139497820Y-117384951D01*
X139497115Y-117384591D01*
X139489054Y-117380485D01*
X139438259Y-117332512D01*
X139421463Y-117264692D01*
X139443999Y-117198556D01*
X139489054Y-117159515D01*
X139497816Y-117155051D01*
X139572901Y-117100499D01*
X139669786Y-117030109D01*
X139669788Y-117030106D01*
X139669792Y-117030104D01*
X139820104Y-116879792D01*
X139820106Y-116879788D01*
X139820109Y-116879786D01*
X139945048Y-116707820D01*
X139945047Y-116707820D01*
X139945051Y-116707816D01*
X140041557Y-116518412D01*
X140107246Y-116316243D01*
X140140500Y-116106287D01*
X140140500Y-115893713D01*
X140107246Y-115683757D01*
X140041557Y-115481588D01*
X139945051Y-115292184D01*
X139945049Y-115292181D01*
X139945048Y-115292179D01*
X139820109Y-115120213D01*
X139669786Y-114969890D01*
X139497820Y-114844951D01*
X139308414Y-114748444D01*
X139308413Y-114748443D01*
X139308412Y-114748443D01*
X139106243Y-114682754D01*
X139106241Y-114682753D01*
X139106240Y-114682753D01*
X138944957Y-114657208D01*
X138896287Y-114649500D01*
X138683713Y-114649500D01*
X138635042Y-114657208D01*
X138473760Y-114682753D01*
X138271585Y-114748444D01*
X138082179Y-114844951D01*
X137910213Y-114969890D01*
X137759890Y-115120213D01*
X137634949Y-115292182D01*
X137630484Y-115300946D01*
X137582509Y-115351742D01*
X137514688Y-115368536D01*
X137448553Y-115345998D01*
X137409516Y-115300946D01*
X137405050Y-115292182D01*
X137280109Y-115120213D01*
X137129786Y-114969890D01*
X136957820Y-114844951D01*
X136768414Y-114748444D01*
X136768413Y-114748443D01*
X136768412Y-114748443D01*
X136566243Y-114682754D01*
X136566241Y-114682753D01*
X136566240Y-114682753D01*
X136404957Y-114657208D01*
X136356287Y-114649500D01*
X136143713Y-114649500D01*
X136095042Y-114657208D01*
X135933760Y-114682753D01*
X135731585Y-114748444D01*
X135542179Y-114844951D01*
X135370213Y-114969890D01*
X135219890Y-115120213D01*
X135094949Y-115292182D01*
X135090484Y-115300946D01*
X135042509Y-115351742D01*
X134974688Y-115368536D01*
X134908553Y-115345998D01*
X134869516Y-115300946D01*
X134865050Y-115292182D01*
X134740109Y-115120213D01*
X134589786Y-114969890D01*
X134417820Y-114844951D01*
X134228414Y-114748444D01*
X134228413Y-114748443D01*
X134228412Y-114748443D01*
X134026243Y-114682754D01*
X134026241Y-114682753D01*
X134026240Y-114682753D01*
X133864957Y-114657208D01*
X133816287Y-114649500D01*
X133603713Y-114649500D01*
X133555042Y-114657208D01*
X133393760Y-114682753D01*
X133191585Y-114748444D01*
X133002179Y-114844951D01*
X132830213Y-114969890D01*
X132679890Y-115120213D01*
X132554949Y-115292182D01*
X132550484Y-115300946D01*
X132502509Y-115351742D01*
X132434688Y-115368536D01*
X132368553Y-115345998D01*
X132329516Y-115300946D01*
X132325050Y-115292182D01*
X132200109Y-115120213D01*
X132049786Y-114969890D01*
X131877820Y-114844951D01*
X131688414Y-114748444D01*
X131688413Y-114748443D01*
X131688412Y-114748443D01*
X131486243Y-114682754D01*
X131486241Y-114682753D01*
X131486240Y-114682753D01*
X131324957Y-114657208D01*
X131276287Y-114649500D01*
X131063713Y-114649500D01*
X131015042Y-114657208D01*
X130853760Y-114682753D01*
X130651585Y-114748444D01*
X130462179Y-114844951D01*
X130290213Y-114969890D01*
X130139890Y-115120213D01*
X130014951Y-115292179D01*
X129918444Y-115481585D01*
X129852753Y-115683760D01*
X129819500Y-115893713D01*
X119460500Y-115893713D01*
X119460500Y-95058713D01*
X126649500Y-95058713D01*
X126649500Y-95271287D01*
X126650629Y-95278414D01*
X126682753Y-95481239D01*
X126682753Y-95481241D01*
X126682754Y-95481243D01*
X126737431Y-95649522D01*
X126748444Y-95683414D01*
X126844951Y-95872820D01*
X126969890Y-96044786D01*
X127120213Y-96195109D01*
X127292182Y-96320050D01*
X127300946Y-96324516D01*
X127351742Y-96372491D01*
X127368536Y-96440312D01*
X127345998Y-96506447D01*
X127300946Y-96545484D01*
X127292182Y-96549949D01*
X127120213Y-96674890D01*
X126969890Y-96825213D01*
X126844951Y-96997179D01*
X126748444Y-97186585D01*
X126682753Y-97388760D01*
X126649762Y-97597058D01*
X126649500Y-97598713D01*
X126649500Y-97811287D01*
X126650629Y-97818414D01*
X126682753Y-98021239D01*
X126682753Y-98021241D01*
X126682754Y-98021243D01*
X126747079Y-98219215D01*
X126748444Y-98223414D01*
X126844951Y-98412820D01*
X126969890Y-98584786D01*
X127120213Y-98735109D01*
X127292182Y-98860050D01*
X127300946Y-98864516D01*
X127351742Y-98912491D01*
X127368536Y-98980312D01*
X127345998Y-99046447D01*
X127300946Y-99085484D01*
X127292182Y-99089949D01*
X127120213Y-99214890D01*
X126969890Y-99365213D01*
X126844951Y-99537179D01*
X126748444Y-99726585D01*
X126682753Y-99928760D01*
X126651876Y-100123713D01*
X126649500Y-100138713D01*
X126649500Y-100351287D01*
X126650629Y-100358414D01*
X126682753Y-100561239D01*
X126682753Y-100561241D01*
X126682754Y-100561243D01*
X126743569Y-100748412D01*
X126748444Y-100763414D01*
X126844951Y-100952820D01*
X126969890Y-101124786D01*
X127120213Y-101275109D01*
X127292182Y-101400050D01*
X127300946Y-101404516D01*
X127351742Y-101452491D01*
X127368536Y-101520312D01*
X127345998Y-101586447D01*
X127300946Y-101625484D01*
X127292182Y-101629949D01*
X127120213Y-101754890D01*
X126969890Y-101905213D01*
X126844951Y-102077179D01*
X126748444Y-102266585D01*
X126682753Y-102468760D01*
X126649500Y-102678713D01*
X126649500Y-102891286D01*
X126682753Y-103101239D01*
X126682753Y-103101241D01*
X126682754Y-103101243D01*
X126747079Y-103299215D01*
X126748444Y-103303414D01*
X126844951Y-103492820D01*
X126969890Y-103664786D01*
X127120213Y-103815109D01*
X127292182Y-103940050D01*
X127300946Y-103944516D01*
X127351742Y-103992491D01*
X127368536Y-104060312D01*
X127345998Y-104126447D01*
X127300946Y-104165484D01*
X127292182Y-104169949D01*
X127120213Y-104294890D01*
X126969890Y-104445213D01*
X126844951Y-104617179D01*
X126748444Y-104806585D01*
X126682753Y-105008760D01*
X126651876Y-105203713D01*
X126649500Y-105218713D01*
X126649500Y-105431287D01*
X126657756Y-105483412D01*
X126680377Y-105626239D01*
X126682754Y-105641243D01*
X126746174Y-105836430D01*
X126748444Y-105843414D01*
X126844951Y-106032820D01*
X126969890Y-106204786D01*
X127120213Y-106355109D01*
X127292182Y-106480050D01*
X127300946Y-106484516D01*
X127351742Y-106532491D01*
X127368536Y-106600312D01*
X127345998Y-106666447D01*
X127300946Y-106705484D01*
X127292182Y-106709949D01*
X127120213Y-106834890D01*
X126969890Y-106985213D01*
X126844951Y-107157179D01*
X126748444Y-107346585D01*
X126682753Y-107548760D01*
X126649500Y-107758713D01*
X126649500Y-107971286D01*
X126682753Y-108181239D01*
X126748444Y-108383414D01*
X126844951Y-108572820D01*
X126969890Y-108744786D01*
X127120213Y-108895109D01*
X127292182Y-109020050D01*
X127300946Y-109024516D01*
X127351742Y-109072491D01*
X127368536Y-109140312D01*
X127345998Y-109206447D01*
X127300946Y-109245484D01*
X127292182Y-109249949D01*
X127120213Y-109374890D01*
X126969890Y-109525213D01*
X126844951Y-109697179D01*
X126748444Y-109886585D01*
X126682753Y-110088760D01*
X126649500Y-110298713D01*
X126649500Y-110511286D01*
X126682753Y-110721239D01*
X126748444Y-110923414D01*
X126844951Y-111112820D01*
X126969890Y-111284786D01*
X127120213Y-111435109D01*
X127292179Y-111560048D01*
X127292181Y-111560049D01*
X127292184Y-111560051D01*
X127481588Y-111656557D01*
X127683757Y-111722246D01*
X127893713Y-111755500D01*
X127893714Y-111755500D01*
X128106286Y-111755500D01*
X128106287Y-111755500D01*
X128316243Y-111722246D01*
X128518412Y-111656557D01*
X128707816Y-111560051D01*
X128739817Y-111536801D01*
X128879786Y-111435109D01*
X128879788Y-111435106D01*
X128879792Y-111435104D01*
X129030104Y-111284792D01*
X129030106Y-111284788D01*
X129030109Y-111284786D01*
X129155048Y-111112820D01*
X129155047Y-111112820D01*
X129155051Y-111112816D01*
X129251557Y-110923412D01*
X129317246Y-110721243D01*
X129350500Y-110511287D01*
X129350500Y-110298713D01*
X129317246Y-110088757D01*
X129251557Y-109886588D01*
X129155051Y-109697184D01*
X129155049Y-109697181D01*
X129155048Y-109697179D01*
X129030109Y-109525213D01*
X128879786Y-109374890D01*
X128707820Y-109249951D01*
X128707115Y-109249591D01*
X128699054Y-109245485D01*
X128648259Y-109197512D01*
X128631463Y-109129692D01*
X128653999Y-109063556D01*
X128699054Y-109024515D01*
X128707816Y-109020051D01*
X128729789Y-109004086D01*
X128879786Y-108895109D01*
X128879788Y-108895106D01*
X128879792Y-108895104D01*
X129030104Y-108744792D01*
X129030106Y-108744788D01*
X129030109Y-108744786D01*
X129155048Y-108572820D01*
X129155047Y-108572820D01*
X129155051Y-108572816D01*
X129251557Y-108383412D01*
X129317246Y-108181243D01*
X129350500Y-107971287D01*
X129350500Y-107758713D01*
X129317246Y-107548757D01*
X129251557Y-107346588D01*
X129155051Y-107157184D01*
X129155049Y-107157181D01*
X129155048Y-107157179D01*
X129030109Y-106985213D01*
X128879786Y-106834890D01*
X128707820Y-106709951D01*
X128707115Y-106709591D01*
X128699054Y-106705485D01*
X128648259Y-106657512D01*
X128631463Y-106589692D01*
X128653999Y-106523556D01*
X128699054Y-106484515D01*
X128707816Y-106480051D01*
X128729789Y-106464086D01*
X128879786Y-106355109D01*
X128879788Y-106355106D01*
X128879792Y-106355104D01*
X129030104Y-106204792D01*
X129030106Y-106204788D01*
X129030109Y-106204786D01*
X129155048Y-106032820D01*
X129155047Y-106032820D01*
X129155051Y-106032816D01*
X129251557Y-105843412D01*
X129317246Y-105641243D01*
X129350500Y-105431287D01*
X129350500Y-105284097D01*
X129370185Y-105217058D01*
X129422989Y-105171303D01*
X129492147Y-105161359D01*
X129555703Y-105190384D01*
X129562181Y-105196416D01*
X130040139Y-105674374D01*
X130040149Y-105674385D01*
X130044479Y-105678715D01*
X130044480Y-105678716D01*
X130156284Y-105790520D01*
X130221917Y-105828412D01*
X130243095Y-105840639D01*
X130243097Y-105840641D01*
X130293213Y-105869576D01*
X130293215Y-105869577D01*
X130445942Y-105910500D01*
X130445943Y-105910500D01*
X131214281Y-105910500D01*
X131281320Y-105930185D01*
X131324765Y-105978205D01*
X131344947Y-106017814D01*
X131344948Y-106017815D01*
X131469890Y-106189786D01*
X131620213Y-106340109D01*
X131792179Y-106465048D01*
X131792181Y-106465049D01*
X131792184Y-106465051D01*
X131981588Y-106561557D01*
X132183757Y-106627246D01*
X132393713Y-106660500D01*
X132393714Y-106660500D01*
X132606286Y-106660500D01*
X132606287Y-106660500D01*
X132816243Y-106627246D01*
X133018412Y-106561557D01*
X133207816Y-106465051D01*
X133229789Y-106449086D01*
X133379786Y-106340109D01*
X133379788Y-106340106D01*
X133379792Y-106340104D01*
X133530104Y-106189792D01*
X133530106Y-106189788D01*
X133530109Y-106189786D01*
X133588661Y-106109193D01*
X133655051Y-106017816D01*
X133666621Y-105995109D01*
X133675235Y-105978205D01*
X133723209Y-105927409D01*
X133785719Y-105910500D01*
X135214281Y-105910500D01*
X135281320Y-105930185D01*
X135324765Y-105978205D01*
X135344947Y-106017814D01*
X135344948Y-106017815D01*
X135469890Y-106189786D01*
X135620213Y-106340109D01*
X135792179Y-106465048D01*
X135792181Y-106465049D01*
X135792184Y-106465051D01*
X135981588Y-106561557D01*
X136183757Y-106627246D01*
X136393713Y-106660500D01*
X136393714Y-106660500D01*
X136606286Y-106660500D01*
X136606287Y-106660500D01*
X136816243Y-106627246D01*
X137018412Y-106561557D01*
X137207816Y-106465051D01*
X137229789Y-106449086D01*
X137379786Y-106340109D01*
X137379788Y-106340106D01*
X137379792Y-106340104D01*
X137530104Y-106189792D01*
X137530106Y-106189788D01*
X137530109Y-106189786D01*
X137655048Y-106017820D01*
X137655047Y-106017820D01*
X137655051Y-106017816D01*
X137751557Y-105828412D01*
X137817246Y-105626243D01*
X137850500Y-105416287D01*
X137850500Y-105203713D01*
X137817246Y-104993757D01*
X137751557Y-104791588D01*
X137655051Y-104602184D01*
X137655049Y-104602181D01*
X137655048Y-104602179D01*
X137530109Y-104430213D01*
X137379786Y-104279890D01*
X137207820Y-104154951D01*
X137207115Y-104154591D01*
X137199054Y-104150485D01*
X137148259Y-104102512D01*
X137131463Y-104034692D01*
X137153999Y-103968556D01*
X137199054Y-103929515D01*
X137207816Y-103925051D01*
X137229789Y-103909086D01*
X137379786Y-103800109D01*
X137379788Y-103800106D01*
X137379792Y-103800104D01*
X137530104Y-103649792D01*
X137530106Y-103649788D01*
X137530109Y-103649786D01*
X137655048Y-103477820D01*
X137655047Y-103477820D01*
X137655051Y-103477816D01*
X137751557Y-103288412D01*
X137817246Y-103086243D01*
X137850500Y-102876287D01*
X137850500Y-102663713D01*
X137817246Y-102453757D01*
X137751557Y-102251588D01*
X137655051Y-102062184D01*
X137655049Y-102062181D01*
X137655048Y-102062179D01*
X137530109Y-101890213D01*
X137379786Y-101739890D01*
X137207820Y-101614951D01*
X137207115Y-101614591D01*
X137199054Y-101610485D01*
X137148259Y-101562512D01*
X137131463Y-101494692D01*
X137153999Y-101428556D01*
X137199054Y-101389515D01*
X137207816Y-101385051D01*
X137256211Y-101349890D01*
X137379786Y-101260109D01*
X137379788Y-101260106D01*
X137379792Y-101260104D01*
X137530104Y-101109792D01*
X137530106Y-101109788D01*
X137530109Y-101109786D01*
X137655048Y-100937820D01*
X137655047Y-100937820D01*
X137655051Y-100937816D01*
X137751557Y-100748412D01*
X137817246Y-100546243D01*
X137850500Y-100336287D01*
X137850500Y-100123713D01*
X137817246Y-99913757D01*
X137751557Y-99711588D01*
X137655051Y-99522184D01*
X137655049Y-99522181D01*
X137655048Y-99522179D01*
X137530109Y-99350213D01*
X137416569Y-99236673D01*
X137383084Y-99175350D01*
X137388068Y-99105658D01*
X137429940Y-99049725D01*
X137460915Y-99032810D01*
X137592331Y-98983796D01*
X137707546Y-98897546D01*
X137793796Y-98782331D01*
X137844091Y-98647483D01*
X137850500Y-98587873D01*
X137850499Y-97664097D01*
X137850499Y-96792129D01*
X137850498Y-96792123D01*
X137850497Y-96792116D01*
X137844091Y-96732517D01*
X137793796Y-96597669D01*
X137793795Y-96597668D01*
X137793793Y-96597664D01*
X137707547Y-96482455D01*
X137707544Y-96482452D01*
X137592335Y-96396206D01*
X137592328Y-96396202D01*
X137457482Y-96345908D01*
X137457483Y-96345908D01*
X137397883Y-96339501D01*
X137397881Y-96339500D01*
X137397873Y-96339500D01*
X137397864Y-96339500D01*
X135602129Y-96339500D01*
X135602123Y-96339501D01*
X135542516Y-96345908D01*
X135407671Y-96396202D01*
X135407664Y-96396206D01*
X135292455Y-96482452D01*
X135292452Y-96482455D01*
X135206206Y-96597664D01*
X135206202Y-96597671D01*
X135155908Y-96732517D01*
X135150633Y-96781585D01*
X135149501Y-96792123D01*
X135149500Y-96792135D01*
X135149500Y-96965500D01*
X135129815Y-97032539D01*
X135077011Y-97078294D01*
X135025500Y-97089500D01*
X133974499Y-97089500D01*
X133907460Y-97069815D01*
X133861705Y-97017011D01*
X133850499Y-96965500D01*
X133850499Y-96792129D01*
X133850498Y-96792123D01*
X133850497Y-96792116D01*
X133844091Y-96732517D01*
X133793796Y-96597669D01*
X133793795Y-96597668D01*
X133793793Y-96597664D01*
X133707547Y-96482455D01*
X133707544Y-96482452D01*
X133592335Y-96396206D01*
X133592328Y-96396202D01*
X133457482Y-96345908D01*
X133457483Y-96345908D01*
X133397883Y-96339501D01*
X133397881Y-96339500D01*
X133397873Y-96339500D01*
X133397864Y-96339500D01*
X131602129Y-96339500D01*
X131602123Y-96339501D01*
X131542516Y-96345908D01*
X131407671Y-96396202D01*
X131407664Y-96396206D01*
X131292455Y-96482452D01*
X131292452Y-96482455D01*
X131206206Y-96597664D01*
X131206202Y-96597671D01*
X131155908Y-96732517D01*
X131150633Y-96781585D01*
X131149501Y-96792123D01*
X131149500Y-96792135D01*
X131149500Y-96965500D01*
X131146949Y-96974185D01*
X131148238Y-96983147D01*
X131137259Y-97007187D01*
X131129815Y-97032539D01*
X131122974Y-97038466D01*
X131119213Y-97046703D01*
X131096978Y-97060992D01*
X131077011Y-97078294D01*
X131066496Y-97080581D01*
X131060435Y-97084477D01*
X131025500Y-97089500D01*
X130825097Y-97089500D01*
X130758058Y-97069815D01*
X130737416Y-97053181D01*
X129333757Y-95649522D01*
X129300272Y-95588199D01*
X129303507Y-95523523D01*
X129317246Y-95481243D01*
X129350500Y-95271287D01*
X129350500Y-95058713D01*
X129317246Y-94848757D01*
X129251557Y-94646588D01*
X129155051Y-94457184D01*
X129155049Y-94457181D01*
X129155048Y-94457179D01*
X129030109Y-94285213D01*
X128879786Y-94134890D01*
X128707820Y-94009951D01*
X128518414Y-93913444D01*
X128518413Y-93913443D01*
X128518412Y-93913443D01*
X128316243Y-93847754D01*
X128316241Y-93847753D01*
X128316240Y-93847753D01*
X128154957Y-93822208D01*
X128106287Y-93814500D01*
X127893713Y-93814500D01*
X127845042Y-93822208D01*
X127683760Y-93847753D01*
X127481585Y-93913444D01*
X127292179Y-94009951D01*
X127120213Y-94134890D01*
X126969890Y-94285213D01*
X126844951Y-94457179D01*
X126748444Y-94646585D01*
X126682753Y-94848760D01*
X126649500Y-95058713D01*
X119460500Y-95058713D01*
X119460500Y-83683713D01*
X132109500Y-83683713D01*
X132109500Y-83896287D01*
X132142754Y-84106243D01*
X132175757Y-84207816D01*
X132208444Y-84308414D01*
X132304951Y-84497820D01*
X132429890Y-84669786D01*
X132580213Y-84820109D01*
X132752182Y-84945050D01*
X132760946Y-84949516D01*
X132811742Y-84997491D01*
X132828536Y-85065312D01*
X132805998Y-85131447D01*
X132760946Y-85170484D01*
X132752182Y-85174949D01*
X132580213Y-85299890D01*
X132429890Y-85450213D01*
X132304951Y-85622179D01*
X132208444Y-85811585D01*
X132208443Y-85811587D01*
X132208443Y-85811588D01*
X132175598Y-85912672D01*
X132142753Y-86013760D01*
X132109500Y-86223713D01*
X132109500Y-86436286D01*
X132142753Y-86646239D01*
X132208444Y-86848414D01*
X132304951Y-87037820D01*
X132429890Y-87209786D01*
X132580213Y-87360109D01*
X132752182Y-87485050D01*
X132760946Y-87489516D01*
X132811742Y-87537491D01*
X132828536Y-87605312D01*
X132805998Y-87671447D01*
X132760946Y-87710484D01*
X132752182Y-87714949D01*
X132580213Y-87839890D01*
X132429890Y-87990213D01*
X132304951Y-88162179D01*
X132208444Y-88351585D01*
X132142753Y-88553760D01*
X132109500Y-88763713D01*
X132109500Y-88976286D01*
X132142753Y-89186239D01*
X132208444Y-89388414D01*
X132304951Y-89577820D01*
X132429890Y-89749786D01*
X132580213Y-89900109D01*
X132752179Y-90025048D01*
X132752181Y-90025049D01*
X132752184Y-90025051D01*
X132941588Y-90121557D01*
X133143757Y-90187246D01*
X133353713Y-90220500D01*
X133353714Y-90220500D01*
X133566286Y-90220500D01*
X133566287Y-90220500D01*
X133776243Y-90187246D01*
X133978412Y-90121557D01*
X134167816Y-90025051D01*
X134189789Y-90009086D01*
X134339786Y-89900109D01*
X134339788Y-89900106D01*
X134339792Y-89900104D01*
X134490104Y-89749792D01*
X134490106Y-89749788D01*
X134490109Y-89749786D01*
X134615048Y-89577820D01*
X134615047Y-89577820D01*
X134615051Y-89577816D01*
X134619514Y-89569054D01*
X134667488Y-89518259D01*
X134735308Y-89501463D01*
X134801444Y-89523999D01*
X134840486Y-89569056D01*
X134844951Y-89577820D01*
X134969890Y-89749786D01*
X135120213Y-89900109D01*
X135292179Y-90025048D01*
X135292181Y-90025049D01*
X135292184Y-90025051D01*
X135481588Y-90121557D01*
X135683757Y-90187246D01*
X135893713Y-90220500D01*
X135893714Y-90220500D01*
X136106286Y-90220500D01*
X136106287Y-90220500D01*
X136316243Y-90187246D01*
X136518412Y-90121557D01*
X136707816Y-90025051D01*
X136729789Y-90009086D01*
X136879786Y-89900109D01*
X136879788Y-89900106D01*
X136879792Y-89900104D01*
X137030104Y-89749792D01*
X137030106Y-89749788D01*
X137030109Y-89749786D01*
X137155048Y-89577820D01*
X137155047Y-89577820D01*
X137155051Y-89577816D01*
X137251557Y-89388412D01*
X137317246Y-89186243D01*
X137350500Y-88976287D01*
X137350500Y-88763713D01*
X137317246Y-88553757D01*
X137251557Y-88351588D01*
X137155051Y-88162184D01*
X137155049Y-88162181D01*
X137155048Y-88162179D01*
X137030109Y-87990213D01*
X136879786Y-87839890D01*
X136707820Y-87714951D01*
X136707115Y-87714591D01*
X136699054Y-87710485D01*
X136648259Y-87662512D01*
X136631463Y-87594692D01*
X136653999Y-87528556D01*
X136699054Y-87489515D01*
X136707816Y-87485051D01*
X136745302Y-87457816D01*
X136879786Y-87360109D01*
X136879788Y-87360106D01*
X136879792Y-87360104D01*
X137030104Y-87209792D01*
X137030106Y-87209788D01*
X137030109Y-87209786D01*
X137155048Y-87037820D01*
X137155047Y-87037820D01*
X137155051Y-87037816D01*
X137251557Y-86848412D01*
X137317246Y-86646243D01*
X137350500Y-86436287D01*
X137350500Y-86223713D01*
X137317246Y-86013757D01*
X137251557Y-85811588D01*
X137155051Y-85622184D01*
X137155049Y-85622181D01*
X137155048Y-85622179D01*
X137030109Y-85450213D01*
X136879786Y-85299890D01*
X136707820Y-85174951D01*
X136707115Y-85174591D01*
X136699054Y-85170485D01*
X136648259Y-85122512D01*
X136631463Y-85054692D01*
X136653999Y-84988556D01*
X136699054Y-84949515D01*
X136707816Y-84945051D01*
X136745302Y-84917816D01*
X136879786Y-84820109D01*
X136879788Y-84820106D01*
X136879792Y-84820104D01*
X137030104Y-84669792D01*
X137030106Y-84669788D01*
X137030109Y-84669786D01*
X137155048Y-84497820D01*
X137155047Y-84497820D01*
X137155051Y-84497816D01*
X137251557Y-84308412D01*
X137317246Y-84106243D01*
X137350500Y-83896287D01*
X137350500Y-83683713D01*
X137317246Y-83473757D01*
X137251557Y-83271588D01*
X137155051Y-83082184D01*
X137155049Y-83082181D01*
X137155048Y-83082179D01*
X137030109Y-82910213D01*
X136879786Y-82759890D01*
X136707820Y-82634951D01*
X136707115Y-82634591D01*
X136699054Y-82630485D01*
X136648259Y-82582512D01*
X136631463Y-82514692D01*
X136653999Y-82448556D01*
X136699054Y-82409515D01*
X136707816Y-82405051D01*
X136790540Y-82344949D01*
X136879786Y-82280109D01*
X136879788Y-82280106D01*
X136879792Y-82280104D01*
X137030104Y-82129792D01*
X137030106Y-82129788D01*
X137030109Y-82129786D01*
X137155048Y-81957820D01*
X137155047Y-81957820D01*
X137155051Y-81957816D01*
X137251557Y-81768412D01*
X137317246Y-81566243D01*
X137350500Y-81356287D01*
X137350500Y-81143713D01*
X137317246Y-80933757D01*
X137251557Y-80731588D01*
X137155051Y-80542184D01*
X137155049Y-80542181D01*
X137155048Y-80542179D01*
X137030109Y-80370213D01*
X136879786Y-80219890D01*
X136707820Y-80094951D01*
X136518414Y-79998444D01*
X136518413Y-79998443D01*
X136518412Y-79998443D01*
X136316243Y-79932754D01*
X136316241Y-79932753D01*
X136316240Y-79932753D01*
X136141315Y-79905048D01*
X136106287Y-79899500D01*
X135893713Y-79899500D01*
X135858685Y-79905048D01*
X135683760Y-79932753D01*
X135481585Y-79998444D01*
X135292179Y-80094951D01*
X135120213Y-80219890D01*
X134969890Y-80370213D01*
X134844951Y-80542179D01*
X134748444Y-80731585D01*
X134682753Y-80933760D01*
X134649500Y-81143713D01*
X134649500Y-81356286D01*
X134682753Y-81566239D01*
X134748444Y-81768414D01*
X134844951Y-81957820D01*
X134969890Y-82129786D01*
X135120213Y-82280109D01*
X135292182Y-82405050D01*
X135300946Y-82409516D01*
X135351742Y-82457491D01*
X135368536Y-82525312D01*
X135345998Y-82591447D01*
X135300946Y-82630484D01*
X135292182Y-82634949D01*
X135120213Y-82759890D01*
X134969890Y-82910213D01*
X134844949Y-83082182D01*
X134840484Y-83090946D01*
X134792509Y-83141742D01*
X134724688Y-83158536D01*
X134658553Y-83135998D01*
X134619516Y-83090946D01*
X134615050Y-83082182D01*
X134490109Y-82910213D01*
X134339786Y-82759890D01*
X134167820Y-82634951D01*
X133978414Y-82538444D01*
X133978413Y-82538443D01*
X133978412Y-82538443D01*
X133776243Y-82472754D01*
X133776241Y-82472753D01*
X133776240Y-82472753D01*
X133614957Y-82447208D01*
X133566287Y-82439500D01*
X133353713Y-82439500D01*
X133305042Y-82447208D01*
X133143760Y-82472753D01*
X132941585Y-82538444D01*
X132752179Y-82634951D01*
X132580213Y-82759890D01*
X132429890Y-82910213D01*
X132304951Y-83082179D01*
X132208444Y-83271585D01*
X132208443Y-83271587D01*
X132208443Y-83271588D01*
X132175598Y-83372672D01*
X132142753Y-83473760D01*
X132121763Y-83606286D01*
X132109500Y-83683713D01*
X119460500Y-83683713D01*
X119460500Y-78643713D01*
X143859500Y-78643713D01*
X143859500Y-78856287D01*
X143892754Y-79066243D01*
X143938175Y-79206035D01*
X143958444Y-79268414D01*
X144054951Y-79457820D01*
X144179890Y-79629786D01*
X144330213Y-79780109D01*
X144502179Y-79905048D01*
X144502181Y-79905049D01*
X144502184Y-79905051D01*
X144691588Y-80001557D01*
X144893757Y-80067246D01*
X145103713Y-80100500D01*
X145103714Y-80100500D01*
X145316286Y-80100500D01*
X145316287Y-80100500D01*
X145526243Y-80067246D01*
X145728412Y-80001557D01*
X145917816Y-79905051D01*
X145939789Y-79889086D01*
X146089786Y-79780109D01*
X146089788Y-79780106D01*
X146089792Y-79780104D01*
X146240104Y-79629792D01*
X146240106Y-79629788D01*
X146240109Y-79629786D01*
X146365048Y-79457820D01*
X146365047Y-79457820D01*
X146365051Y-79457816D01*
X146369514Y-79449054D01*
X146417488Y-79398259D01*
X146485308Y-79381463D01*
X146551444Y-79403999D01*
X146590486Y-79449056D01*
X146594951Y-79457820D01*
X146719890Y-79629786D01*
X146870213Y-79780109D01*
X147042179Y-79905048D01*
X147042181Y-79905049D01*
X147042184Y-79905051D01*
X147231588Y-80001557D01*
X147433757Y-80067246D01*
X147643713Y-80100500D01*
X147643714Y-80100500D01*
X147856286Y-80100500D01*
X147856287Y-80100500D01*
X148066243Y-80067246D01*
X148268412Y-80001557D01*
X148457816Y-79905051D01*
X148479789Y-79889086D01*
X148629786Y-79780109D01*
X148629788Y-79780106D01*
X148629792Y-79780104D01*
X148780104Y-79629792D01*
X148780106Y-79629788D01*
X148780109Y-79629786D01*
X148905048Y-79457820D01*
X148905047Y-79457820D01*
X148905051Y-79457816D01*
X148909514Y-79449054D01*
X148957488Y-79398259D01*
X149025308Y-79381463D01*
X149091444Y-79403999D01*
X149130486Y-79449056D01*
X149134951Y-79457820D01*
X149259890Y-79629786D01*
X149410213Y-79780109D01*
X149582179Y-79905048D01*
X149582181Y-79905049D01*
X149582184Y-79905051D01*
X149771588Y-80001557D01*
X149973757Y-80067246D01*
X150183713Y-80100500D01*
X150183714Y-80100500D01*
X150396286Y-80100500D01*
X150396287Y-80100500D01*
X150606243Y-80067246D01*
X150808412Y-80001557D01*
X150997816Y-79905051D01*
X151019789Y-79889086D01*
X151169786Y-79780109D01*
X151169788Y-79780106D01*
X151169792Y-79780104D01*
X151320104Y-79629792D01*
X151320106Y-79629788D01*
X151320109Y-79629786D01*
X151445048Y-79457820D01*
X151445047Y-79457820D01*
X151445051Y-79457816D01*
X151449514Y-79449054D01*
X151497488Y-79398259D01*
X151565308Y-79381463D01*
X151631444Y-79403999D01*
X151670486Y-79449056D01*
X151674951Y-79457820D01*
X151799890Y-79629786D01*
X151950213Y-79780109D01*
X152122179Y-79905048D01*
X152122181Y-79905049D01*
X152122184Y-79905051D01*
X152311588Y-80001557D01*
X152513757Y-80067246D01*
X152723713Y-80100500D01*
X152723714Y-80100500D01*
X152936286Y-80100500D01*
X152936287Y-80100500D01*
X153146243Y-80067246D01*
X153188523Y-80053507D01*
X153258362Y-80051511D01*
X153314522Y-80083757D01*
X153496139Y-80265374D01*
X153496149Y-80265385D01*
X153500479Y-80269715D01*
X153500480Y-80269716D01*
X153612284Y-80381520D01*
X153699095Y-80431639D01*
X153699097Y-80431641D01*
X153737151Y-80453611D01*
X153749215Y-80460577D01*
X153901943Y-80501501D01*
X153901946Y-80501501D01*
X154067654Y-80501501D01*
X154067670Y-80501500D01*
X160680903Y-80501500D01*
X160747942Y-80521185D01*
X160768584Y-80537819D01*
X162878584Y-82647819D01*
X162912069Y-82709142D01*
X162907085Y-82778834D01*
X162865213Y-82834767D01*
X162799749Y-82859184D01*
X162790903Y-82859500D01*
X162643713Y-82859500D01*
X162595042Y-82867208D01*
X162433760Y-82892753D01*
X162231585Y-82958444D01*
X162042179Y-83054951D01*
X161870213Y-83179890D01*
X161719890Y-83330213D01*
X161594951Y-83502179D01*
X161498444Y-83691585D01*
X161432753Y-83893760D01*
X161399500Y-84103713D01*
X161399500Y-84316286D01*
X161428251Y-84497816D01*
X161432754Y-84526243D01*
X161491663Y-84707546D01*
X161499949Y-84733046D01*
X161498868Y-84733397D01*
X161505760Y-84797521D01*
X161474483Y-84859999D01*
X161414392Y-84895649D01*
X161383731Y-84899500D01*
X155479555Y-84899500D01*
X155412516Y-84879815D01*
X155366761Y-84827011D01*
X155356817Y-84757853D01*
X155385842Y-84694297D01*
X155423261Y-84665015D01*
X155429796Y-84661684D01*
X155442816Y-84655051D01*
X155529138Y-84592335D01*
X155614786Y-84530109D01*
X155614788Y-84530106D01*
X155614792Y-84530104D01*
X155765104Y-84379792D01*
X155765106Y-84379788D01*
X155765109Y-84379786D01*
X155890048Y-84207820D01*
X155890047Y-84207820D01*
X155890051Y-84207816D01*
X155986557Y-84018412D01*
X156052246Y-83816243D01*
X156085500Y-83606287D01*
X156085500Y-83393713D01*
X156052246Y-83183757D01*
X155986557Y-82981588D01*
X155890051Y-82792184D01*
X155890049Y-82792181D01*
X155890048Y-82792179D01*
X155765109Y-82620213D01*
X155614786Y-82469890D01*
X155442820Y-82344951D01*
X155253414Y-82248444D01*
X155253413Y-82248443D01*
X155253412Y-82248443D01*
X155051243Y-82182754D01*
X155051241Y-82182753D01*
X155051240Y-82182753D01*
X154889957Y-82157208D01*
X154841287Y-82149500D01*
X154628713Y-82149500D01*
X154580042Y-82157208D01*
X154418760Y-82182753D01*
X154216585Y-82248444D01*
X154027179Y-82344951D01*
X153855213Y-82469890D01*
X153704890Y-82620213D01*
X153579949Y-82792182D01*
X153575484Y-82800946D01*
X153527509Y-82851742D01*
X153459688Y-82868536D01*
X153393553Y-82845998D01*
X153354516Y-82800946D01*
X153350050Y-82792182D01*
X153225109Y-82620213D01*
X153074786Y-82469890D01*
X152902820Y-82344951D01*
X152713414Y-82248444D01*
X152713413Y-82248443D01*
X152713412Y-82248443D01*
X152511243Y-82182754D01*
X152511241Y-82182753D01*
X152511240Y-82182753D01*
X152349957Y-82157208D01*
X152301287Y-82149500D01*
X152088713Y-82149500D01*
X152040042Y-82157208D01*
X151878760Y-82182753D01*
X151676585Y-82248444D01*
X151487179Y-82344951D01*
X151315213Y-82469890D01*
X151164890Y-82620213D01*
X151039949Y-82792182D01*
X151035484Y-82800946D01*
X150987509Y-82851742D01*
X150919688Y-82868536D01*
X150853553Y-82845998D01*
X150814516Y-82800946D01*
X150810050Y-82792182D01*
X150685109Y-82620213D01*
X150534786Y-82469890D01*
X150362820Y-82344951D01*
X150173414Y-82248444D01*
X150173413Y-82248443D01*
X150173412Y-82248443D01*
X149971243Y-82182754D01*
X149971241Y-82182753D01*
X149971240Y-82182753D01*
X149809957Y-82157208D01*
X149761287Y-82149500D01*
X149548713Y-82149500D01*
X149500042Y-82157208D01*
X149338760Y-82182753D01*
X149136585Y-82248444D01*
X148947179Y-82344951D01*
X148775215Y-82469889D01*
X148661673Y-82583431D01*
X148600350Y-82616915D01*
X148530658Y-82611931D01*
X148474725Y-82570059D01*
X148457810Y-82539082D01*
X148408797Y-82407671D01*
X148408793Y-82407664D01*
X148322547Y-82292455D01*
X148322544Y-82292452D01*
X148207335Y-82206206D01*
X148207328Y-82206202D01*
X148072482Y-82155908D01*
X148072483Y-82155908D01*
X148012883Y-82149501D01*
X148012881Y-82149500D01*
X148012873Y-82149500D01*
X148012864Y-82149500D01*
X146217129Y-82149500D01*
X146217123Y-82149501D01*
X146157516Y-82155908D01*
X146022671Y-82206202D01*
X146022664Y-82206206D01*
X145907455Y-82292452D01*
X145907452Y-82292455D01*
X145821206Y-82407664D01*
X145821202Y-82407671D01*
X145770908Y-82542517D01*
X145764501Y-82602116D01*
X145764500Y-82602135D01*
X145764500Y-84397870D01*
X145764501Y-84397876D01*
X145770908Y-84457483D01*
X145821202Y-84592328D01*
X145821206Y-84592335D01*
X145907452Y-84707544D01*
X145907455Y-84707547D01*
X146022664Y-84793793D01*
X146022671Y-84793797D01*
X146157517Y-84844091D01*
X146157516Y-84844091D01*
X146164444Y-84844835D01*
X146217127Y-84850500D01*
X148012872Y-84850499D01*
X148072483Y-84844091D01*
X148207331Y-84793796D01*
X148322546Y-84707546D01*
X148408796Y-84592331D01*
X148457810Y-84460916D01*
X148499681Y-84404984D01*
X148565145Y-84380566D01*
X148633418Y-84395417D01*
X148661673Y-84416569D01*
X148775213Y-84530109D01*
X148947179Y-84655048D01*
X148947181Y-84655049D01*
X148947184Y-84655051D01*
X149136588Y-84751557D01*
X149338757Y-84817246D01*
X149548713Y-84850500D01*
X149548714Y-84850500D01*
X149761286Y-84850500D01*
X149761287Y-84850500D01*
X149971243Y-84817246D01*
X150173412Y-84751557D01*
X150362816Y-84655051D01*
X150449138Y-84592335D01*
X150534786Y-84530109D01*
X150534788Y-84530106D01*
X150534792Y-84530104D01*
X150685104Y-84379792D01*
X150685106Y-84379788D01*
X150685109Y-84379786D01*
X150810048Y-84207820D01*
X150810047Y-84207820D01*
X150810051Y-84207816D01*
X150814514Y-84199054D01*
X150862488Y-84148259D01*
X150930308Y-84131463D01*
X150996444Y-84153999D01*
X151035486Y-84199056D01*
X151039951Y-84207820D01*
X151164890Y-84379786D01*
X151315213Y-84530109D01*
X151487179Y-84655048D01*
X151487181Y-84655049D01*
X151487184Y-84655051D01*
X151676588Y-84751557D01*
X151878757Y-84817246D01*
X152088713Y-84850500D01*
X152088714Y-84850500D01*
X152301286Y-84850500D01*
X152301287Y-84850500D01*
X152511243Y-84817246D01*
X152553523Y-84803507D01*
X152623362Y-84801511D01*
X152679522Y-84833757D01*
X153382584Y-85536819D01*
X153416069Y-85598142D01*
X153411085Y-85667834D01*
X153369213Y-85723767D01*
X153303749Y-85748184D01*
X153294903Y-85748500D01*
X148352670Y-85748500D01*
X148352654Y-85748499D01*
X148345058Y-85748499D01*
X148186943Y-85748499D01*
X148107010Y-85769917D01*
X148034216Y-85789422D01*
X147995823Y-85811589D01*
X147995822Y-85811588D01*
X147897287Y-85868477D01*
X147897282Y-85868481D01*
X147785480Y-85980283D01*
X147785480Y-85980284D01*
X147785478Y-85980286D01*
X147714818Y-86050946D01*
X147652582Y-86113182D01*
X147591259Y-86146666D01*
X147564901Y-86149500D01*
X146217129Y-86149500D01*
X146217123Y-86149501D01*
X146157516Y-86155908D01*
X146022671Y-86206202D01*
X146022664Y-86206206D01*
X145907455Y-86292452D01*
X145907452Y-86292455D01*
X145821206Y-86407664D01*
X145821202Y-86407671D01*
X145770908Y-86542517D01*
X145764501Y-86602116D01*
X145764500Y-86602135D01*
X145764500Y-88397870D01*
X145764501Y-88397876D01*
X145770908Y-88457483D01*
X145821202Y-88592328D01*
X145821206Y-88592335D01*
X145907452Y-88707544D01*
X145907455Y-88707547D01*
X146022664Y-88793793D01*
X146022671Y-88793797D01*
X146157517Y-88844091D01*
X146157516Y-88844091D01*
X146164444Y-88844835D01*
X146217127Y-88850500D01*
X148012872Y-88850499D01*
X148072483Y-88844091D01*
X148207331Y-88793796D01*
X148322546Y-88707546D01*
X148408796Y-88592331D01*
X148457810Y-88460916D01*
X148499681Y-88404984D01*
X148565145Y-88380566D01*
X148633418Y-88395417D01*
X148661673Y-88416569D01*
X148775213Y-88530109D01*
X148947179Y-88655048D01*
X148947181Y-88655049D01*
X148947184Y-88655051D01*
X149136588Y-88751557D01*
X149338757Y-88817246D01*
X149548713Y-88850500D01*
X149548714Y-88850500D01*
X149761286Y-88850500D01*
X149761287Y-88850500D01*
X149971243Y-88817246D01*
X150173412Y-88751557D01*
X150362816Y-88655051D01*
X150449138Y-88592335D01*
X150534786Y-88530109D01*
X150534788Y-88530106D01*
X150534792Y-88530104D01*
X150685104Y-88379792D01*
X150685106Y-88379788D01*
X150685109Y-88379786D01*
X150810048Y-88207820D01*
X150810050Y-88207817D01*
X150810051Y-88207816D01*
X150814514Y-88199054D01*
X150862488Y-88148259D01*
X150930308Y-88131463D01*
X150996444Y-88153999D01*
X151035486Y-88199056D01*
X151039951Y-88207820D01*
X151164890Y-88379786D01*
X151315213Y-88530109D01*
X151487179Y-88655048D01*
X151487181Y-88655049D01*
X151487184Y-88655051D01*
X151676588Y-88751557D01*
X151878757Y-88817246D01*
X152088713Y-88850500D01*
X152088714Y-88850500D01*
X152301286Y-88850500D01*
X152301287Y-88850500D01*
X152511243Y-88817246D01*
X152713412Y-88751557D01*
X152902816Y-88655051D01*
X152989138Y-88592335D01*
X153074786Y-88530109D01*
X153074788Y-88530106D01*
X153074792Y-88530104D01*
X153225104Y-88379792D01*
X153225106Y-88379788D01*
X153225109Y-88379786D01*
X153350048Y-88207820D01*
X153350050Y-88207817D01*
X153350051Y-88207816D01*
X153354514Y-88199054D01*
X153402488Y-88148259D01*
X153470308Y-88131463D01*
X153536444Y-88153999D01*
X153575486Y-88199056D01*
X153579951Y-88207820D01*
X153704890Y-88379786D01*
X153855213Y-88530109D01*
X154027179Y-88655048D01*
X154027181Y-88655049D01*
X154027184Y-88655051D01*
X154216588Y-88751557D01*
X154418757Y-88817246D01*
X154628713Y-88850500D01*
X154628714Y-88850500D01*
X154841286Y-88850500D01*
X154841287Y-88850500D01*
X155051243Y-88817246D01*
X155253412Y-88751557D01*
X155442816Y-88655051D01*
X155529138Y-88592335D01*
X155614786Y-88530109D01*
X155614788Y-88530106D01*
X155614792Y-88530104D01*
X155765104Y-88379792D01*
X155765106Y-88379788D01*
X155765109Y-88379786D01*
X155890050Y-88207817D01*
X155913302Y-88162184D01*
X155924391Y-88140418D01*
X155943705Y-88119968D01*
X155960566Y-88097446D01*
X155967375Y-88094906D01*
X155972365Y-88089623D01*
X155999670Y-88082860D01*
X156026030Y-88073029D01*
X156033131Y-88074573D01*
X156040185Y-88072827D01*
X156066812Y-88081900D01*
X156094303Y-88087881D01*
X156102609Y-88094099D01*
X156106321Y-88095364D01*
X156122557Y-88109032D01*
X156278899Y-88265374D01*
X156278909Y-88265385D01*
X156283239Y-88269715D01*
X156283240Y-88269716D01*
X156395044Y-88381520D01*
X156395046Y-88381521D01*
X156395050Y-88381524D01*
X156526617Y-88457483D01*
X156531976Y-88460577D01*
X156643779Y-88490534D01*
X156684702Y-88501500D01*
X156684703Y-88501500D01*
X169132331Y-88501500D01*
X169132347Y-88501501D01*
X169139943Y-88501501D01*
X169298054Y-88501501D01*
X169298057Y-88501501D01*
X169450785Y-88460577D01*
X169500904Y-88431639D01*
X169587716Y-88381520D01*
X169699520Y-88269716D01*
X169699520Y-88269714D01*
X169709728Y-88259507D01*
X169709730Y-88259504D01*
X169885478Y-88083755D01*
X169946799Y-88050272D01*
X170011473Y-88053506D01*
X170053757Y-88067246D01*
X170263713Y-88100500D01*
X170263714Y-88100500D01*
X170476286Y-88100500D01*
X170476287Y-88100500D01*
X170686243Y-88067246D01*
X170888412Y-88001557D01*
X171077816Y-87905051D01*
X171167503Y-87839890D01*
X171249786Y-87780109D01*
X171249788Y-87780106D01*
X171249792Y-87780104D01*
X171400104Y-87629792D01*
X171400106Y-87629788D01*
X171400109Y-87629786D01*
X171525048Y-87457820D01*
X171525047Y-87457820D01*
X171525051Y-87457816D01*
X171621557Y-87268412D01*
X171687246Y-87066243D01*
X171720500Y-86856287D01*
X171720500Y-86643713D01*
X171687246Y-86433757D01*
X171621557Y-86231588D01*
X171525051Y-86042184D01*
X171525049Y-86042181D01*
X171525048Y-86042179D01*
X171400109Y-85870213D01*
X171249786Y-85719890D01*
X171077820Y-85594951D01*
X170888414Y-85498444D01*
X170888413Y-85498443D01*
X170888412Y-85498443D01*
X170686243Y-85432754D01*
X170686241Y-85432753D01*
X170686240Y-85432753D01*
X170524957Y-85407208D01*
X170476287Y-85399500D01*
X170263713Y-85399500D01*
X170215042Y-85407208D01*
X170053760Y-85432753D01*
X169851585Y-85498444D01*
X169662179Y-85594951D01*
X169490213Y-85719890D01*
X169339890Y-85870213D01*
X169214949Y-86042182D01*
X169210484Y-86050946D01*
X169162509Y-86101742D01*
X169094688Y-86118536D01*
X169028553Y-86095998D01*
X168989516Y-86050946D01*
X168985050Y-86042182D01*
X168860109Y-85870213D01*
X168709786Y-85719890D01*
X168537820Y-85594951D01*
X168537115Y-85594591D01*
X168529054Y-85590485D01*
X168478259Y-85542512D01*
X168461463Y-85474692D01*
X168483999Y-85408556D01*
X168529054Y-85369515D01*
X168537816Y-85365051D01*
X168627503Y-85299890D01*
X168709786Y-85240109D01*
X168709788Y-85240106D01*
X168709792Y-85240104D01*
X168860104Y-85089792D01*
X168860106Y-85089788D01*
X168860109Y-85089786D01*
X168985048Y-84917820D01*
X168985047Y-84917820D01*
X168985051Y-84917816D01*
X169081557Y-84728412D01*
X169147246Y-84526243D01*
X169180500Y-84316287D01*
X169180500Y-84103713D01*
X169147246Y-83893757D01*
X169081557Y-83691588D01*
X168985051Y-83502184D01*
X168985049Y-83502181D01*
X168985048Y-83502179D01*
X168860109Y-83330213D01*
X168709786Y-83179890D01*
X168537820Y-83054951D01*
X168348414Y-82958444D01*
X168348413Y-82958443D01*
X168348412Y-82958443D01*
X168146243Y-82892754D01*
X168146241Y-82892753D01*
X168146240Y-82892753D01*
X167984957Y-82867208D01*
X167936287Y-82859500D01*
X167723713Y-82859500D01*
X167695006Y-82864046D01*
X167513757Y-82892753D01*
X167471473Y-82906492D01*
X167401632Y-82908486D01*
X167345476Y-82876241D01*
X161706590Y-77237355D01*
X161706588Y-77237352D01*
X161587717Y-77118481D01*
X161587716Y-77118480D01*
X161500904Y-77068360D01*
X161500904Y-77068359D01*
X161500900Y-77068358D01*
X161450785Y-77039423D01*
X161298057Y-76998499D01*
X161139943Y-76998499D01*
X161132347Y-76998499D01*
X161132331Y-76998500D01*
X148987670Y-76998500D01*
X148987654Y-76998499D01*
X148980058Y-76998499D01*
X148821943Y-76998499D01*
X148714587Y-77027265D01*
X148669210Y-77039424D01*
X148669209Y-77039425D01*
X148619096Y-77068359D01*
X148619095Y-77068360D01*
X148575689Y-77093420D01*
X148532285Y-77118479D01*
X148532282Y-77118481D01*
X148420478Y-77230286D01*
X148234522Y-77416241D01*
X148173199Y-77449726D01*
X148108523Y-77446491D01*
X148066245Y-77432754D01*
X147926272Y-77410584D01*
X147856287Y-77399500D01*
X147643713Y-77399500D01*
X147595042Y-77407208D01*
X147433760Y-77432753D01*
X147231585Y-77498444D01*
X147042179Y-77594951D01*
X146870213Y-77719890D01*
X146719890Y-77870213D01*
X146594949Y-78042182D01*
X146590484Y-78050946D01*
X146542509Y-78101742D01*
X146474688Y-78118536D01*
X146408553Y-78095998D01*
X146369516Y-78050946D01*
X146365050Y-78042182D01*
X146240109Y-77870213D01*
X146089786Y-77719890D01*
X145917820Y-77594951D01*
X145728414Y-77498444D01*
X145728413Y-77498443D01*
X145728412Y-77498443D01*
X145526243Y-77432754D01*
X145526241Y-77432753D01*
X145526240Y-77432753D01*
X145364957Y-77407208D01*
X145316287Y-77399500D01*
X145103713Y-77399500D01*
X145055042Y-77407208D01*
X144893760Y-77432753D01*
X144691585Y-77498444D01*
X144502179Y-77594951D01*
X144330213Y-77719890D01*
X144179890Y-77870213D01*
X144054951Y-78042179D01*
X143958444Y-78231585D01*
X143892753Y-78433760D01*
X143859500Y-78643713D01*
X119460500Y-78643713D01*
X119460500Y-76204500D01*
X119480185Y-76137461D01*
X119532989Y-76091706D01*
X119584500Y-76080500D01*
X176085500Y-76080500D01*
X176152539Y-76100185D01*
G37*
%TD.AperFunction*%
%TD*%
M02*
