%TF.GenerationSoftware,KiCad,Pcbnew,9.0.3-9.0.3-0~ubuntu24.04.1*%
%TF.CreationDate,2026-04-21T10:36:48+03:00*%
%TF.ProjectId,switchboard,73776974-6368-4626-9f61-72642e6b6963,rev?*%
%TF.SameCoordinates,Original*%
%TF.FileFunction,Legend,Bot*%
%TF.FilePolarity,Positive*%
%FSLAX46Y46*%
G04 Gerber Fmt 4.6, Leading zero omitted, Abs format (unit mm)*
G04 Created by KiCad (PCBNEW 9.0.3-9.0.3-0~ubuntu24.04.1) date 2026-04-21 10:36:48*
%MOMM*%
%LPD*%
G01*
G04 APERTURE LIST*
%ADD10C,0.100000*%
G04 APERTURE END LIST*
D10*
X175708020Y-129280150D02*
X175708020Y-127280150D01*
X175708020Y-127280150D02*
X175041353Y-128708721D01*
X175041353Y-128708721D02*
X174374687Y-127280150D01*
X174374687Y-127280150D02*
X174374687Y-129280150D01*
X172565163Y-129280150D02*
X172565163Y-128232531D01*
X172565163Y-128232531D02*
X172660401Y-128042054D01*
X172660401Y-128042054D02*
X172850877Y-127946816D01*
X172850877Y-127946816D02*
X173231830Y-127946816D01*
X173231830Y-127946816D02*
X173422306Y-128042054D01*
X172565163Y-129184912D02*
X172755639Y-129280150D01*
X172755639Y-129280150D02*
X173231830Y-129280150D01*
X173231830Y-129280150D02*
X173422306Y-129184912D01*
X173422306Y-129184912D02*
X173517544Y-128994435D01*
X173517544Y-128994435D02*
X173517544Y-128803959D01*
X173517544Y-128803959D02*
X173422306Y-128613483D01*
X173422306Y-128613483D02*
X173231830Y-128518245D01*
X173231830Y-128518245D02*
X172755639Y-128518245D01*
X172755639Y-128518245D02*
X172565163Y-128423007D01*
X171898496Y-127946816D02*
X171136592Y-127946816D01*
X171612782Y-127280150D02*
X171612782Y-128994435D01*
X171612782Y-128994435D02*
X171517544Y-129184912D01*
X171517544Y-129184912D02*
X171327068Y-129280150D01*
X171327068Y-129280150D02*
X171136592Y-129280150D01*
X170469925Y-129280150D02*
X170469925Y-127946816D01*
X170469925Y-128327769D02*
X170374687Y-128137292D01*
X170374687Y-128137292D02*
X170279449Y-128042054D01*
X170279449Y-128042054D02*
X170088973Y-127946816D01*
X170088973Y-127946816D02*
X169898496Y-127946816D01*
X169231830Y-129280150D02*
X169231830Y-127946816D01*
X169231830Y-127280150D02*
X169327068Y-127375388D01*
X169327068Y-127375388D02*
X169231830Y-127470626D01*
X169231830Y-127470626D02*
X169136592Y-127375388D01*
X169136592Y-127375388D02*
X169231830Y-127280150D01*
X169231830Y-127280150D02*
X169231830Y-127470626D01*
X168469925Y-129280150D02*
X167422306Y-127946816D01*
X168469925Y-127946816D02*
X167422306Y-129280150D01*
X165136591Y-129280150D02*
X165136591Y-127280150D01*
X165136591Y-128042054D02*
X164946115Y-127946816D01*
X164946115Y-127946816D02*
X164565162Y-127946816D01*
X164565162Y-127946816D02*
X164374686Y-128042054D01*
X164374686Y-128042054D02*
X164279448Y-128137292D01*
X164279448Y-128137292D02*
X164184210Y-128327769D01*
X164184210Y-128327769D02*
X164184210Y-128899197D01*
X164184210Y-128899197D02*
X164279448Y-129089673D01*
X164279448Y-129089673D02*
X164374686Y-129184912D01*
X164374686Y-129184912D02*
X164565162Y-129280150D01*
X164565162Y-129280150D02*
X164946115Y-129280150D01*
X164946115Y-129280150D02*
X165136591Y-129184912D01*
X163041353Y-129280150D02*
X163231829Y-129184912D01*
X163231829Y-129184912D02*
X163327067Y-129089673D01*
X163327067Y-129089673D02*
X163422305Y-128899197D01*
X163422305Y-128899197D02*
X163422305Y-128327769D01*
X163422305Y-128327769D02*
X163327067Y-128137292D01*
X163327067Y-128137292D02*
X163231829Y-128042054D01*
X163231829Y-128042054D02*
X163041353Y-127946816D01*
X163041353Y-127946816D02*
X162755638Y-127946816D01*
X162755638Y-127946816D02*
X162565162Y-128042054D01*
X162565162Y-128042054D02*
X162469924Y-128137292D01*
X162469924Y-128137292D02*
X162374686Y-128327769D01*
X162374686Y-128327769D02*
X162374686Y-128899197D01*
X162374686Y-128899197D02*
X162469924Y-129089673D01*
X162469924Y-129089673D02*
X162565162Y-129184912D01*
X162565162Y-129184912D02*
X162755638Y-129280150D01*
X162755638Y-129280150D02*
X163041353Y-129280150D01*
X160660400Y-129280150D02*
X160660400Y-128232531D01*
X160660400Y-128232531D02*
X160755638Y-128042054D01*
X160755638Y-128042054D02*
X160946114Y-127946816D01*
X160946114Y-127946816D02*
X161327067Y-127946816D01*
X161327067Y-127946816D02*
X161517543Y-128042054D01*
X160660400Y-129184912D02*
X160850876Y-129280150D01*
X160850876Y-129280150D02*
X161327067Y-129280150D01*
X161327067Y-129280150D02*
X161517543Y-129184912D01*
X161517543Y-129184912D02*
X161612781Y-128994435D01*
X161612781Y-128994435D02*
X161612781Y-128803959D01*
X161612781Y-128803959D02*
X161517543Y-128613483D01*
X161517543Y-128613483D02*
X161327067Y-128518245D01*
X161327067Y-128518245D02*
X160850876Y-128518245D01*
X160850876Y-128518245D02*
X160660400Y-128423007D01*
X159708019Y-129280150D02*
X159708019Y-127946816D01*
X159708019Y-128327769D02*
X159612781Y-128137292D01*
X159612781Y-128137292D02*
X159517543Y-128042054D01*
X159517543Y-128042054D02*
X159327067Y-127946816D01*
X159327067Y-127946816D02*
X159136590Y-127946816D01*
X157612781Y-129280150D02*
X157612781Y-127280150D01*
X157612781Y-129184912D02*
X157803257Y-129280150D01*
X157803257Y-129280150D02*
X158184210Y-129280150D01*
X158184210Y-129280150D02*
X158374686Y-129184912D01*
X158374686Y-129184912D02*
X158469924Y-129089673D01*
X158469924Y-129089673D02*
X158565162Y-128899197D01*
X158565162Y-128899197D02*
X158565162Y-128327769D01*
X158565162Y-128327769D02*
X158469924Y-128137292D01*
X158469924Y-128137292D02*
X158374686Y-128042054D01*
X158374686Y-128042054D02*
X158184210Y-127946816D01*
X158184210Y-127946816D02*
X157803257Y-127946816D01*
X157803257Y-127946816D02*
X157612781Y-128042054D01*
X155136590Y-129280150D02*
X155136590Y-127946816D01*
X155136590Y-128327769D02*
X155041352Y-128137292D01*
X155041352Y-128137292D02*
X154946114Y-128042054D01*
X154946114Y-128042054D02*
X154755638Y-127946816D01*
X154755638Y-127946816D02*
X154565161Y-127946816D01*
X153136590Y-129184912D02*
X153327066Y-129280150D01*
X153327066Y-129280150D02*
X153708019Y-129280150D01*
X153708019Y-129280150D02*
X153898495Y-129184912D01*
X153898495Y-129184912D02*
X153993733Y-128994435D01*
X153993733Y-128994435D02*
X153993733Y-128232531D01*
X153993733Y-128232531D02*
X153898495Y-128042054D01*
X153898495Y-128042054D02*
X153708019Y-127946816D01*
X153708019Y-127946816D02*
X153327066Y-127946816D01*
X153327066Y-127946816D02*
X153136590Y-128042054D01*
X153136590Y-128042054D02*
X153041352Y-128232531D01*
X153041352Y-128232531D02*
X153041352Y-128423007D01*
X153041352Y-128423007D02*
X153993733Y-128613483D01*
X152374685Y-127946816D02*
X151898495Y-129280150D01*
X151898495Y-129280150D02*
X151422304Y-127946816D01*
X149803256Y-127280150D02*
X150184209Y-127280150D01*
X150184209Y-127280150D02*
X150374685Y-127375388D01*
X150374685Y-127375388D02*
X150469923Y-127470626D01*
X150469923Y-127470626D02*
X150660399Y-127756340D01*
X150660399Y-127756340D02*
X150755637Y-128137292D01*
X150755637Y-128137292D02*
X150755637Y-128899197D01*
X150755637Y-128899197D02*
X150660399Y-129089673D01*
X150660399Y-129089673D02*
X150565161Y-129184912D01*
X150565161Y-129184912D02*
X150374685Y-129280150D01*
X150374685Y-129280150D02*
X149993732Y-129280150D01*
X149993732Y-129280150D02*
X149803256Y-129184912D01*
X149803256Y-129184912D02*
X149708018Y-129089673D01*
X149708018Y-129089673D02*
X149612780Y-128899197D01*
X149612780Y-128899197D02*
X149612780Y-128423007D01*
X149612780Y-128423007D02*
X149708018Y-128232531D01*
X149708018Y-128232531D02*
X149803256Y-128137292D01*
X149803256Y-128137292D02*
X149993732Y-128042054D01*
X149993732Y-128042054D02*
X150374685Y-128042054D01*
X150374685Y-128042054D02*
X150565161Y-128137292D01*
X150565161Y-128137292D02*
X150660399Y-128232531D01*
X150660399Y-128232531D02*
X150755637Y-128423007D01*
X175708020Y-132500038D02*
X175708020Y-130500038D01*
X175708020Y-130500038D02*
X174946115Y-130500038D01*
X174946115Y-130500038D02*
X174755639Y-130595276D01*
X174755639Y-130595276D02*
X174660401Y-130690514D01*
X174660401Y-130690514D02*
X174565163Y-130880990D01*
X174565163Y-130880990D02*
X174565163Y-131166704D01*
X174565163Y-131166704D02*
X174660401Y-131357180D01*
X174660401Y-131357180D02*
X174755639Y-131452419D01*
X174755639Y-131452419D02*
X174946115Y-131547657D01*
X174946115Y-131547657D02*
X175708020Y-131547657D01*
X173708020Y-132309561D02*
X173612782Y-132404800D01*
X173612782Y-132404800D02*
X173708020Y-132500038D01*
X173708020Y-132500038D02*
X173803258Y-132404800D01*
X173803258Y-132404800D02*
X173708020Y-132309561D01*
X173708020Y-132309561D02*
X173708020Y-132500038D01*
X171231829Y-132500038D02*
X171231829Y-130500038D01*
X171231829Y-130500038D02*
X170755639Y-130500038D01*
X170755639Y-130500038D02*
X170469924Y-130595276D01*
X170469924Y-130595276D02*
X170279448Y-130785752D01*
X170279448Y-130785752D02*
X170184210Y-130976228D01*
X170184210Y-130976228D02*
X170088972Y-131357180D01*
X170088972Y-131357180D02*
X170088972Y-131642895D01*
X170088972Y-131642895D02*
X170184210Y-132023847D01*
X170184210Y-132023847D02*
X170279448Y-132214323D01*
X170279448Y-132214323D02*
X170469924Y-132404800D01*
X170469924Y-132404800D02*
X170755639Y-132500038D01*
X170755639Y-132500038D02*
X171231829Y-132500038D01*
X168946115Y-132500038D02*
X169136591Y-132404800D01*
X169136591Y-132404800D02*
X169231829Y-132309561D01*
X169231829Y-132309561D02*
X169327067Y-132119085D01*
X169327067Y-132119085D02*
X169327067Y-131547657D01*
X169327067Y-131547657D02*
X169231829Y-131357180D01*
X169231829Y-131357180D02*
X169136591Y-131261942D01*
X169136591Y-131261942D02*
X168946115Y-131166704D01*
X168946115Y-131166704D02*
X168660400Y-131166704D01*
X168660400Y-131166704D02*
X168469924Y-131261942D01*
X168469924Y-131261942D02*
X168374686Y-131357180D01*
X168374686Y-131357180D02*
X168279448Y-131547657D01*
X168279448Y-131547657D02*
X168279448Y-132119085D01*
X168279448Y-132119085D02*
X168374686Y-132309561D01*
X168374686Y-132309561D02*
X168469924Y-132404800D01*
X168469924Y-132404800D02*
X168660400Y-132500038D01*
X168660400Y-132500038D02*
X168946115Y-132500038D01*
X167612781Y-131166704D02*
X167136591Y-132500038D01*
X167136591Y-132500038D02*
X166660400Y-131166704D01*
X165041352Y-131166704D02*
X165041352Y-132785752D01*
X165041352Y-132785752D02*
X165136590Y-132976228D01*
X165136590Y-132976228D02*
X165231828Y-133071466D01*
X165231828Y-133071466D02*
X165422305Y-133166704D01*
X165422305Y-133166704D02*
X165708019Y-133166704D01*
X165708019Y-133166704D02*
X165898495Y-133071466D01*
X165041352Y-132404800D02*
X165231828Y-132500038D01*
X165231828Y-132500038D02*
X165612781Y-132500038D01*
X165612781Y-132500038D02*
X165803257Y-132404800D01*
X165803257Y-132404800D02*
X165898495Y-132309561D01*
X165898495Y-132309561D02*
X165993733Y-132119085D01*
X165993733Y-132119085D02*
X165993733Y-131547657D01*
X165993733Y-131547657D02*
X165898495Y-131357180D01*
X165898495Y-131357180D02*
X165803257Y-131261942D01*
X165803257Y-131261942D02*
X165612781Y-131166704D01*
X165612781Y-131166704D02*
X165231828Y-131166704D01*
X165231828Y-131166704D02*
X165041352Y-131261942D01*
X163231828Y-132500038D02*
X163231828Y-131452419D01*
X163231828Y-131452419D02*
X163327066Y-131261942D01*
X163327066Y-131261942D02*
X163517542Y-131166704D01*
X163517542Y-131166704D02*
X163898495Y-131166704D01*
X163898495Y-131166704D02*
X164088971Y-131261942D01*
X163231828Y-132404800D02*
X163422304Y-132500038D01*
X163422304Y-132500038D02*
X163898495Y-132500038D01*
X163898495Y-132500038D02*
X164088971Y-132404800D01*
X164088971Y-132404800D02*
X164184209Y-132214323D01*
X164184209Y-132214323D02*
X164184209Y-132023847D01*
X164184209Y-132023847D02*
X164088971Y-131833371D01*
X164088971Y-131833371D02*
X163898495Y-131738133D01*
X163898495Y-131738133D02*
X163422304Y-131738133D01*
X163422304Y-131738133D02*
X163231828Y-131642895D01*
X161993733Y-132500038D02*
X162184209Y-132404800D01*
X162184209Y-132404800D02*
X162279447Y-132214323D01*
X162279447Y-132214323D02*
X162279447Y-130500038D01*
X161422304Y-131166704D02*
X160946114Y-132500038D01*
X160469923Y-131166704D02*
X160946114Y-132500038D01*
X160946114Y-132500038D02*
X161136590Y-132976228D01*
X161136590Y-132976228D02*
X161231828Y-133071466D01*
X161231828Y-133071466D02*
X161422304Y-133166704D01*
X158850875Y-131166704D02*
X158850875Y-132500038D01*
X159708018Y-131166704D02*
X159708018Y-132214323D01*
X159708018Y-132214323D02*
X159612780Y-132404800D01*
X159612780Y-132404800D02*
X159422304Y-132500038D01*
X159422304Y-132500038D02*
X159136589Y-132500038D01*
X159136589Y-132500038D02*
X158946113Y-132404800D01*
X158946113Y-132404800D02*
X158850875Y-132309561D01*
X157898494Y-132500038D02*
X157898494Y-130500038D01*
X157708018Y-131738133D02*
X157136589Y-132500038D01*
X157136589Y-131166704D02*
X157898494Y-131928609D01*
X156184208Y-132404800D02*
X156184208Y-132500038D01*
X156184208Y-132500038D02*
X156279446Y-132690514D01*
X156279446Y-132690514D02*
X156374684Y-132785752D01*
X153898493Y-130690514D02*
X153803255Y-130595276D01*
X153803255Y-130595276D02*
X153612779Y-130500038D01*
X153612779Y-130500038D02*
X153136588Y-130500038D01*
X153136588Y-130500038D02*
X152946112Y-130595276D01*
X152946112Y-130595276D02*
X152850874Y-130690514D01*
X152850874Y-130690514D02*
X152755636Y-130880990D01*
X152755636Y-130880990D02*
X152755636Y-131071466D01*
X152755636Y-131071466D02*
X152850874Y-131357180D01*
X152850874Y-131357180D02*
X153993731Y-132500038D01*
X153993731Y-132500038D02*
X152755636Y-132500038D01*
X151517541Y-130500038D02*
X151327064Y-130500038D01*
X151327064Y-130500038D02*
X151136588Y-130595276D01*
X151136588Y-130595276D02*
X151041350Y-130690514D01*
X151041350Y-130690514D02*
X150946112Y-130880990D01*
X150946112Y-130880990D02*
X150850874Y-131261942D01*
X150850874Y-131261942D02*
X150850874Y-131738133D01*
X150850874Y-131738133D02*
X150946112Y-132119085D01*
X150946112Y-132119085D02*
X151041350Y-132309561D01*
X151041350Y-132309561D02*
X151136588Y-132404800D01*
X151136588Y-132404800D02*
X151327064Y-132500038D01*
X151327064Y-132500038D02*
X151517541Y-132500038D01*
X151517541Y-132500038D02*
X151708017Y-132404800D01*
X151708017Y-132404800D02*
X151803255Y-132309561D01*
X151803255Y-132309561D02*
X151898493Y-132119085D01*
X151898493Y-132119085D02*
X151993731Y-131738133D01*
X151993731Y-131738133D02*
X151993731Y-131261942D01*
X151993731Y-131261942D02*
X151898493Y-130880990D01*
X151898493Y-130880990D02*
X151803255Y-130690514D01*
X151803255Y-130690514D02*
X151708017Y-130595276D01*
X151708017Y-130595276D02*
X151517541Y-130500038D01*
X150088969Y-130690514D02*
X149993731Y-130595276D01*
X149993731Y-130595276D02*
X149803255Y-130500038D01*
X149803255Y-130500038D02*
X149327064Y-130500038D01*
X149327064Y-130500038D02*
X149136588Y-130595276D01*
X149136588Y-130595276D02*
X149041350Y-130690514D01*
X149041350Y-130690514D02*
X148946112Y-130880990D01*
X148946112Y-130880990D02*
X148946112Y-131071466D01*
X148946112Y-131071466D02*
X149041350Y-131357180D01*
X149041350Y-131357180D02*
X150184207Y-132500038D01*
X150184207Y-132500038D02*
X148946112Y-132500038D01*
X147231826Y-130500038D02*
X147612779Y-130500038D01*
X147612779Y-130500038D02*
X147803255Y-130595276D01*
X147803255Y-130595276D02*
X147898493Y-130690514D01*
X147898493Y-130690514D02*
X148088969Y-130976228D01*
X148088969Y-130976228D02*
X148184207Y-131357180D01*
X148184207Y-131357180D02*
X148184207Y-132119085D01*
X148184207Y-132119085D02*
X148088969Y-132309561D01*
X148088969Y-132309561D02*
X147993731Y-132404800D01*
X147993731Y-132404800D02*
X147803255Y-132500038D01*
X147803255Y-132500038D02*
X147422302Y-132500038D01*
X147422302Y-132500038D02*
X147231826Y-132404800D01*
X147231826Y-132404800D02*
X147136588Y-132309561D01*
X147136588Y-132309561D02*
X147041350Y-132119085D01*
X147041350Y-132119085D02*
X147041350Y-131642895D01*
X147041350Y-131642895D02*
X147136588Y-131452419D01*
X147136588Y-131452419D02*
X147231826Y-131357180D01*
X147231826Y-131357180D02*
X147422302Y-131261942D01*
X147422302Y-131261942D02*
X147803255Y-131261942D01*
X147803255Y-131261942D02*
X147993731Y-131357180D01*
X147993731Y-131357180D02*
X148088969Y-131452419D01*
X148088969Y-131452419D02*
X148184207Y-131642895D01*
M02*
