%TF.GenerationSoftware,KiCad,Pcbnew,9.0.3-9.0.3-0~ubuntu24.04.1*%
%TF.CreationDate,2026-04-16T14:24:12+03:00*%
%TF.ProjectId,switchboard,73776974-6368-4626-9f61-72642e6b6963,rev?*%
%TF.SameCoordinates,Original*%
%TF.FileFunction,Copper,L1,Top*%
%TF.FilePolarity,Positive*%
%FSLAX46Y46*%
G04 Gerber Fmt 4.6, Leading zero omitted, Abs format (unit mm)*
G04 Created by KiCad (PCBNEW 9.0.3-9.0.3-0~ubuntu24.04.1) date 2026-04-16 14:24:12*
%MOMM*%
%LPD*%
G01*
G04 APERTURE LIST*
G04 Aperture macros list*
%AMRoundRect*
0 Rectangle with rounded corners*
0 $1 Rounding radius*
0 $2 $3 $4 $5 $6 $7 $8 $9 X,Y pos of 4 corners*
0 Add a 4 corners polygon primitive as box body*
4,1,4,$2,$3,$4,$5,$6,$7,$8,$9,$2,$3,0*
0 Add four circle primitives for the rounded corners*
1,1,$1+$1,$2,$3*
1,1,$1+$1,$4,$5*
1,1,$1+$1,$6,$7*
1,1,$1+$1,$8,$9*
0 Add four rect primitives between the rounded corners*
20,1,$1+$1,$2,$3,$4,$5,0*
20,1,$1+$1,$4,$5,$6,$7,0*
20,1,$1+$1,$6,$7,$8,$9,0*
20,1,$1+$1,$8,$9,$2,$3,0*%
G04 Aperture macros list end*
%TA.AperFunction,ComponentPad*%
%ADD10R,1.700000X1.700000*%
%TD*%
%TA.AperFunction,ComponentPad*%
%ADD11C,1.700000*%
%TD*%
%TA.AperFunction,ComponentPad*%
%ADD12RoundRect,0.250000X-0.600000X-0.600000X0.600000X-0.600000X0.600000X0.600000X-0.600000X0.600000X0*%
%TD*%
%TA.AperFunction,ComponentPad*%
%ADD13RoundRect,0.250000X0.600000X0.600000X-0.600000X0.600000X-0.600000X-0.600000X0.600000X-0.600000X0*%
%TD*%
%TA.AperFunction,ComponentPad*%
%ADD14RoundRect,0.250000X0.600000X-0.600000X0.600000X0.600000X-0.600000X0.600000X-0.600000X-0.600000X0*%
%TD*%
%TA.AperFunction,ComponentPad*%
%ADD15RoundRect,0.250000X-0.600000X0.600000X-0.600000X-0.600000X0.600000X-0.600000X0.600000X0.600000X0*%
%TD*%
%TA.AperFunction,Conductor*%
%ADD16C,0.200000*%
%TD*%
G04 APERTURE END LIST*
D10*
%TO.P,J12,1,Pin_1*%
%TO.N,Net-(J12-Pin_1)*%
X146940000Y-119750000D03*
D11*
%TO.P,J12,2,Pin_2*%
%TO.N,Net-(J12-Pin_2)*%
X149480000Y-119750000D03*
%TO.P,J12,3,Pin_3*%
%TO.N,Net-(J12-Pin_3)*%
X152020000Y-119750000D03*
%TO.P,J12,4,Pin_4*%
%TO.N,Net-(J12-Pin_4)*%
X154560000Y-119750000D03*
%TD*%
D10*
%TO.P,J7,1,Pin_1*%
%TO.N,Net-(J3-D0)*%
X147115000Y-87500000D03*
D11*
%TO.P,J7,2,Pin_2*%
%TO.N,Net-(J3-D1)*%
X149655000Y-87500000D03*
%TO.P,J7,3,Pin_3*%
%TO.N,Net-(J3-D2)*%
X152195000Y-87500000D03*
%TO.P,J7,4,Pin_4*%
%TO.N,Net-(J3-D3)*%
X154735000Y-87500000D03*
%TD*%
D10*
%TO.P,J1,1,+V*%
%TO.N,+24V*%
X121000000Y-92625000D03*
D11*
%TO.P,J1,2,D0*%
%TO.N,Net-(J1-D0)*%
X121000000Y-95165000D03*
%TO.P,J1,3,D1*%
%TO.N,Net-(J1-D1)*%
X121000000Y-97705000D03*
%TO.P,J1,4,D2*%
%TO.N,Net-(J1-D2)*%
X121000000Y-100245000D03*
%TO.P,J1,5,D3*%
%TO.N,Net-(J1-D3)*%
X121000000Y-102785000D03*
%TO.P,J1,6,NC*%
%TO.N,unconnected-(J1-NC-Pad6)*%
X121000000Y-105325000D03*
%TO.P,J1,7,NC*%
%TO.N,unconnected-(J1-NC-Pad7)*%
X121000000Y-107865000D03*
%TO.P,J1,8,GND*%
%TO.N,GND*%
X121000000Y-110405000D03*
%TD*%
D10*
%TO.P,J13,1,Pin_1*%
%TO.N,Net-(J12-Pin_1)*%
X146940000Y-115750000D03*
D11*
%TO.P,J13,2,Pin_2*%
%TO.N,Net-(J12-Pin_2)*%
X149480000Y-115750000D03*
%TO.P,J13,3,Pin_3*%
%TO.N,Net-(J12-Pin_3)*%
X152020000Y-115750000D03*
%TO.P,J13,4,Pin_4*%
%TO.N,Net-(J12-Pin_4)*%
X154560000Y-115750000D03*
%TD*%
D10*
%TO.P,J11,1,Pin_1*%
%TO.N,Net-(J10-Pin_1)*%
X169000000Y-97345000D03*
D11*
%TO.P,J11,2,Pin_2*%
%TO.N,Net-(J10-Pin_2)*%
X169000000Y-99885000D03*
%TO.P,J11,3,Pin_3*%
%TO.N,Net-(J10-Pin_3)*%
X169000000Y-102425000D03*
%TO.P,J11,4,Pin_4*%
%TO.N,Net-(J10-Pin_4)*%
X169000000Y-104965000D03*
%TD*%
D12*
%TO.P,J2,1,+V*%
%TO.N,+24V*%
X127960000Y-80500000D03*
D11*
%TO.P,J2,2,D0*%
%TO.N,Net-(J1-D0)*%
X130500000Y-80500000D03*
%TO.P,J2,3,D1*%
%TO.N,Net-(J1-D1)*%
X127960000Y-83040000D03*
%TO.P,J2,4,D2*%
%TO.N,Net-(J1-D2)*%
X130500000Y-83040000D03*
%TO.P,J2,5,D3*%
%TO.N,Net-(J1-D3)*%
X127960000Y-85580000D03*
%TO.P,J2,6,NC*%
%TO.N,unconnected-(J2-NC-Pad6)*%
X130500000Y-85580000D03*
%TO.P,J2,7,NC*%
%TO.N,unconnected-(J2-NC-Pad7)*%
X127960000Y-88120000D03*
%TO.P,J2,8,GND*%
%TO.N,GND*%
X130500000Y-88120000D03*
%TD*%
D10*
%TO.P,J3,1,+V*%
%TO.N,+24V*%
X142670000Y-70830000D03*
D11*
%TO.P,J3,2,D0*%
%TO.N,Net-(J3-D0)*%
X145210000Y-70830000D03*
%TO.P,J3,3,D1*%
%TO.N,Net-(J3-D1)*%
X147750000Y-70830000D03*
%TO.P,J3,4,D2*%
%TO.N,Net-(J3-D2)*%
X150290000Y-70830000D03*
%TO.P,J3,5,D3*%
%TO.N,Net-(J3-D3)*%
X152830000Y-70830000D03*
%TO.P,J3,6,NC*%
%TO.N,unconnected-(J3-NC-Pad6)*%
X155370000Y-70830000D03*
%TO.P,J3,7,NC*%
%TO.N,unconnected-(J3-NC-Pad7)*%
X157910000Y-70830000D03*
%TO.P,J3,8,GND*%
%TO.N,GND*%
X160450000Y-70830000D03*
%TD*%
D13*
%TO.P,J16,1,+V*%
%TO.N,+24V*%
X174500000Y-121870000D03*
D11*
%TO.P,J16,2,D0*%
%TO.N,Net-(J10-Pin_1)*%
X171960000Y-121870000D03*
%TO.P,J16,3,D1*%
%TO.N,Net-(J10-Pin_2)*%
X174500000Y-119330000D03*
%TO.P,J16,4,D2*%
%TO.N,Net-(J10-Pin_3)*%
X171960000Y-119330000D03*
%TO.P,J16,5,D3*%
%TO.N,Net-(J10-Pin_4)*%
X174500000Y-116790000D03*
%TO.P,J16,6,NC*%
%TO.N,unconnected-(J16-NC-Pad6)*%
X171960000Y-116790000D03*
%TO.P,J16,7,NC*%
%TO.N,unconnected-(J16-NC-Pad7)*%
X174500000Y-114250000D03*
%TO.P,J16,8,GND*%
%TO.N,GND*%
X171960000Y-114250000D03*
%TD*%
D10*
%TO.P,J17,1,+V*%
%TO.N,+24V*%
X142125000Y-131250000D03*
D11*
%TO.P,J17,2,D0*%
%TO.N,Net-(J12-Pin_1)*%
X144665000Y-131250000D03*
%TO.P,J17,3,D1*%
%TO.N,Net-(J12-Pin_2)*%
X147205000Y-131250000D03*
%TO.P,J17,4,D2*%
%TO.N,Net-(J12-Pin_3)*%
X149745000Y-131250000D03*
%TO.P,J17,5,D3*%
%TO.N,Net-(J12-Pin_4)*%
X152285000Y-131250000D03*
%TO.P,J17,6,NC*%
%TO.N,unconnected-(J17-NC-Pad6)*%
X154825000Y-131250000D03*
%TO.P,J17,7,NC*%
%TO.N,unconnected-(J17-NC-Pad7)*%
X157365000Y-131250000D03*
%TO.P,J17,8,GND*%
%TO.N,GND*%
X159905000Y-131250000D03*
%TD*%
D10*
%TO.P,J14,1,Pin_1*%
%TO.N,+24V*%
X139750000Y-82670000D03*
D11*
%TO.P,J14,2,Pin_2*%
X139750000Y-85210000D03*
%TO.P,J14,3,Pin_3*%
X139750000Y-87750000D03*
%TO.P,J14,4,Pin_4*%
X139750000Y-90290000D03*
%TD*%
D10*
%TO.P,J10,1,Pin_1*%
%TO.N,Net-(J10-Pin_1)*%
X165000000Y-97345000D03*
D11*
%TO.P,J10,2,Pin_2*%
%TO.N,Net-(J10-Pin_2)*%
X165000000Y-99885000D03*
%TO.P,J10,3,Pin_3*%
%TO.N,Net-(J10-Pin_3)*%
X165000000Y-102425000D03*
%TO.P,J10,4,Pin_4*%
%TO.N,Net-(J10-Pin_4)*%
X165000000Y-104965000D03*
%TD*%
D14*
%TO.P,J18,1,+V*%
%TO.N,+24V*%
X129880000Y-124290000D03*
D11*
%TO.P,J18,2,D0*%
%TO.N,Net-(J12-Pin_1)*%
X129880000Y-121750000D03*
%TO.P,J18,3,D1*%
%TO.N,Net-(J12-Pin_2)*%
X132420000Y-124290000D03*
%TO.P,J18,4,D2*%
%TO.N,Net-(J12-Pin_3)*%
X132420000Y-121750000D03*
%TO.P,J18,5,D3*%
%TO.N,Net-(J12-Pin_4)*%
X134960000Y-124290000D03*
%TO.P,J18,6,NC*%
%TO.N,unconnected-(J18-NC-Pad6)*%
X134960000Y-121750000D03*
%TO.P,J18,7,NC*%
%TO.N,unconnected-(J18-NC-Pad7)*%
X137500000Y-124290000D03*
%TO.P,J18,8,GND*%
%TO.N,GND*%
X137500000Y-121750000D03*
%TD*%
D10*
%TO.P,J5,1,Pin_1*%
%TO.N,+24V*%
X162000000Y-120060000D03*
D11*
%TO.P,J5,2,Pin_2*%
X162000000Y-117520000D03*
%TO.P,J5,3,Pin_3*%
X162000000Y-114980000D03*
%TO.P,J5,4,Pin_4*%
X162000000Y-112440000D03*
%TD*%
D10*
%TO.P,J15,1,+V*%
%TO.N,+24V*%
X181460000Y-92250000D03*
D11*
%TO.P,J15,2,D0*%
%TO.N,Net-(J10-Pin_1)*%
X181460000Y-94790000D03*
%TO.P,J15,3,D1*%
%TO.N,Net-(J10-Pin_2)*%
X181460000Y-97330000D03*
%TO.P,J15,4,D2*%
%TO.N,Net-(J10-Pin_3)*%
X181460000Y-99870000D03*
%TO.P,J15,5,D3*%
%TO.N,Net-(J10-Pin_4)*%
X181460000Y-102410000D03*
%TO.P,J15,6,NC*%
%TO.N,unconnected-(J15-NC-Pad6)*%
X181460000Y-104950000D03*
%TO.P,J15,7,NC*%
%TO.N,unconnected-(J15-NC-Pad7)*%
X181460000Y-107490000D03*
%TO.P,J15,8,GND*%
%TO.N,GND*%
X181460000Y-110030000D03*
%TD*%
D10*
%TO.P,J8,1,Pin_1*%
%TO.N,Net-(J3-D0)*%
X147115000Y-83500000D03*
D11*
%TO.P,J8,2,Pin_2*%
%TO.N,Net-(J3-D1)*%
X149655000Y-83500000D03*
%TO.P,J8,3,Pin_3*%
%TO.N,Net-(J3-D2)*%
X152195000Y-83500000D03*
%TO.P,J8,4,Pin_4*%
%TO.N,Net-(J3-D3)*%
X154735000Y-83500000D03*
%TD*%
D10*
%TO.P,J6,1,Pin_1*%
%TO.N,Net-(J1-D0)*%
X132500000Y-97690000D03*
D11*
%TO.P,J6,2,Pin_2*%
%TO.N,Net-(J1-D1)*%
X132500000Y-100230000D03*
%TO.P,J6,3,Pin_3*%
%TO.N,Net-(J1-D2)*%
X132500000Y-102770000D03*
%TO.P,J6,4,Pin_4*%
%TO.N,Net-(J1-D3)*%
X132500000Y-105310000D03*
%TD*%
D15*
%TO.P,J4,1,+V*%
%TO.N,+24V*%
X173000000Y-77580000D03*
D11*
%TO.P,J4,2,D0*%
%TO.N,Net-(J3-D0)*%
X173000000Y-80120000D03*
%TO.P,J4,3,D1*%
%TO.N,Net-(J3-D1)*%
X170460000Y-77580000D03*
%TO.P,J4,4,D2*%
%TO.N,Net-(J3-D2)*%
X170460000Y-80120000D03*
%TO.P,J4,5,D3*%
%TO.N,Net-(J3-D3)*%
X167920000Y-77580000D03*
%TO.P,J4,6,NC*%
%TO.N,unconnected-(J4-NC-Pad6)*%
X167920000Y-80120000D03*
%TO.P,J4,7,NC*%
%TO.N,unconnected-(J4-NC-Pad7)*%
X165380000Y-77580000D03*
%TO.P,J4,8,GND*%
%TO.N,GND*%
X165380000Y-80120000D03*
%TD*%
D10*
%TO.P,J9,1,Pin_1*%
%TO.N,Net-(J1-D0)*%
X136500000Y-97690000D03*
D11*
%TO.P,J9,2,Pin_2*%
%TO.N,Net-(J1-D1)*%
X136500000Y-100230000D03*
%TO.P,J9,3,Pin_3*%
%TO.N,Net-(J1-D2)*%
X136500000Y-102770000D03*
%TO.P,J9,4,Pin_4*%
%TO.N,Net-(J1-D3)*%
X136500000Y-105310000D03*
%TD*%
D16*
%TO.N,Net-(J1-D2)*%
X132500000Y-102770000D02*
X136500000Y-102770000D01*
X123525000Y-102770000D02*
X132500000Y-102770000D01*
X121000000Y-100245000D02*
X123525000Y-102770000D01*
%TO.N,Net-(J1-D1)*%
X132500000Y-100230000D02*
X136500000Y-100230000D01*
X129349000Y-81651000D02*
X129349000Y-80023240D01*
X127960000Y-83040000D02*
X129349000Y-81651000D01*
X130976760Y-79349000D02*
X137651000Y-86023240D01*
X130023240Y-79349000D02*
X130976760Y-79349000D01*
X129349000Y-80023240D02*
X130023240Y-79349000D01*
X137651000Y-99079000D02*
X136500000Y-100230000D01*
X123525000Y-100230000D02*
X132500000Y-100230000D01*
X137651000Y-86023240D02*
X137651000Y-99079000D01*
X121000000Y-97705000D02*
X123525000Y-100230000D01*
%TO.N,Net-(J1-D3)*%
X123525000Y-105310000D02*
X132500000Y-105310000D01*
X132500000Y-105310000D02*
X136500000Y-105310000D01*
X121000000Y-102785000D02*
X123525000Y-105310000D01*
%TO.N,Net-(J1-D0)*%
X121000000Y-95165000D02*
X123525000Y-97690000D01*
X134250000Y-84250000D02*
X134250000Y-95940000D01*
X134250000Y-95940000D02*
X132500000Y-97690000D01*
X123525000Y-97690000D02*
X132500000Y-97690000D01*
X132500000Y-97690000D02*
X136500000Y-97690000D01*
X130500000Y-80500000D02*
X134250000Y-84250000D01*
%TO.N,Net-(J3-D2)*%
X161929000Y-88651000D02*
X153346000Y-88651000D01*
X152195000Y-83500000D02*
X152195000Y-87500000D01*
X152195000Y-72735000D02*
X152195000Y-83500000D01*
X153346000Y-88651000D02*
X152195000Y-87500000D01*
X170460000Y-80120000D02*
X161929000Y-88651000D01*
X150290000Y-70830000D02*
X152195000Y-72735000D01*
%TO.N,Net-(J3-D1)*%
X162559000Y-69679000D02*
X148901000Y-69679000D01*
X149655000Y-83500000D02*
X149655000Y-87500000D01*
X149655000Y-72735000D02*
X149655000Y-83500000D01*
X148901000Y-69679000D02*
X147750000Y-70830000D01*
X147750000Y-70830000D02*
X149655000Y-72735000D01*
X170460000Y-77580000D02*
X162559000Y-69679000D01*
%TO.N,Net-(J3-D0)*%
X147115000Y-87500000D02*
X147115000Y-83500000D01*
X171849000Y-78969000D02*
X171849000Y-77341240D01*
X146762000Y-69278000D02*
X145210000Y-70830000D01*
X171849000Y-77341240D02*
X163785760Y-69278000D01*
X147115000Y-72735000D02*
X147115000Y-83500000D01*
X173000000Y-80120000D02*
X171849000Y-78969000D01*
X163785760Y-69278000D02*
X146762000Y-69278000D01*
X145210000Y-70830000D02*
X147115000Y-72735000D01*
%TO.N,Net-(J3-D3)*%
X163075000Y-72735000D02*
X154735000Y-72735000D01*
X152830000Y-70830000D02*
X154735000Y-72735000D01*
X154735000Y-83500000D02*
X154735000Y-87500000D01*
X154735000Y-72735000D02*
X154735000Y-83500000D01*
X167920000Y-77580000D02*
X163075000Y-72735000D01*
%TO.N,Net-(J10-Pin_1)*%
X183250000Y-96580000D02*
X181460000Y-94790000D01*
X171960000Y-121870000D02*
X173349000Y-120481000D01*
X175519000Y-120481000D02*
X183250000Y-112750000D01*
X173349000Y-120481000D02*
X175519000Y-120481000D01*
X183250000Y-112750000D02*
X183250000Y-96580000D01*
X181460000Y-94790000D02*
X178905000Y-97345000D01*
X169000000Y-97345000D02*
X165000000Y-97345000D01*
X178905000Y-97345000D02*
X169000000Y-97345000D01*
%TO.N,Net-(J10-Pin_4)*%
X169000000Y-104965000D02*
X178905000Y-104965000D01*
X165000000Y-104965000D02*
X169000000Y-104965000D01*
X178905000Y-104965000D02*
X181460000Y-102410000D01*
X178905000Y-112385000D02*
X178905000Y-104965000D01*
X174500000Y-116790000D02*
X178905000Y-112385000D01*
%TO.N,Net-(J10-Pin_3)*%
X165000000Y-102425000D02*
X169000000Y-102425000D01*
X169000000Y-102425000D02*
X178905000Y-102425000D01*
X178905000Y-102425000D02*
X181460000Y-99870000D01*
X163849000Y-111219000D02*
X163849000Y-103576000D01*
X171960000Y-119330000D02*
X163849000Y-111219000D01*
X163849000Y-103576000D02*
X165000000Y-102425000D01*
%TO.N,Net-(J10-Pin_2)*%
X174500000Y-119330000D02*
X182611000Y-111219000D01*
X165000000Y-99885000D02*
X169000000Y-99885000D01*
X178905000Y-99885000D02*
X181460000Y-97330000D01*
X182611000Y-111219000D02*
X182611000Y-98481000D01*
X169000000Y-99885000D02*
X178905000Y-99885000D01*
X182611000Y-98481000D02*
X181460000Y-97330000D01*
%TO.N,Net-(J12-Pin_1)*%
X146940000Y-119750000D02*
X146940000Y-115750000D01*
X146940000Y-128975000D02*
X146940000Y-119750000D01*
X144665000Y-131250000D02*
X146940000Y-128975000D01*
X135880000Y-115750000D02*
X146940000Y-115750000D01*
X129880000Y-121750000D02*
X135880000Y-115750000D01*
%TO.N,Net-(J12-Pin_2)*%
X147205000Y-131250000D02*
X149480000Y-128975000D01*
X149480000Y-128975000D02*
X149480000Y-119750000D01*
X149480000Y-115750000D02*
X149480000Y-119750000D01*
%TO.N,Net-(J12-Pin_4)*%
X152285000Y-131250000D02*
X154560000Y-128975000D01*
X154560000Y-128975000D02*
X154560000Y-119750000D01*
X154560000Y-115750000D02*
X154560000Y-119750000D01*
%TO.N,Net-(J12-Pin_3)*%
X128729000Y-122226760D02*
X128729000Y-121273240D01*
X128729000Y-121273240D02*
X135403240Y-114599000D01*
X152020000Y-119750000D02*
X152020000Y-115750000D01*
X150869000Y-114599000D02*
X152020000Y-115750000D01*
X132420000Y-121750000D02*
X131269000Y-122901000D01*
X135403240Y-114599000D02*
X150869000Y-114599000D01*
X149745000Y-131250000D02*
X152020000Y-128975000D01*
X129403240Y-122901000D02*
X128729000Y-122226760D01*
X152020000Y-128975000D02*
X152020000Y-119750000D01*
X131269000Y-122901000D02*
X129403240Y-122901000D01*
%TD*%
%TA.AperFunction,Conductor*%
%TO.N,+24V*%
G36*
X146377941Y-68600185D02*
G01*
X146423696Y-68652989D01*
X146433640Y-68722147D01*
X146404615Y-68785703D01*
X146398583Y-68792181D01*
X146281478Y-68909286D01*
X145694522Y-69496241D01*
X145633199Y-69529726D01*
X145568523Y-69526491D01*
X145526245Y-69512754D01*
X145386272Y-69490584D01*
X145316287Y-69479500D01*
X145103713Y-69479500D01*
X145055042Y-69487208D01*
X144893760Y-69512753D01*
X144691585Y-69578444D01*
X144502179Y-69674951D01*
X144330213Y-69799890D01*
X144179890Y-69950213D01*
X144054951Y-70122179D01*
X143958444Y-70311585D01*
X143892753Y-70513760D01*
X143859500Y-70723713D01*
X143859500Y-70936286D01*
X143892753Y-71146239D01*
X143958444Y-71348414D01*
X144054951Y-71537820D01*
X144179890Y-71709786D01*
X144330213Y-71860109D01*
X144502179Y-71985048D01*
X144502181Y-71985049D01*
X144502184Y-71985051D01*
X144691588Y-72081557D01*
X144893757Y-72147246D01*
X145103713Y-72180500D01*
X145103714Y-72180500D01*
X145316286Y-72180500D01*
X145316287Y-72180500D01*
X145526243Y-72147246D01*
X145568523Y-72133507D01*
X145638362Y-72131511D01*
X145694522Y-72163757D01*
X146478181Y-72947416D01*
X146511666Y-73008739D01*
X146514500Y-73035097D01*
X146514500Y-82025500D01*
X146494815Y-82092539D01*
X146442011Y-82138294D01*
X146390501Y-82149500D01*
X146217130Y-82149500D01*
X146217123Y-82149501D01*
X146157516Y-82155908D01*
X146022671Y-82206202D01*
X146022664Y-82206206D01*
X145907455Y-82292452D01*
X145907452Y-82292455D01*
X145821206Y-82407664D01*
X145821202Y-82407671D01*
X145770908Y-82542517D01*
X145764501Y-82602116D01*
X145764500Y-82602135D01*
X145764500Y-84397870D01*
X145764501Y-84397876D01*
X145770908Y-84457483D01*
X145821202Y-84592328D01*
X145821206Y-84592335D01*
X145907452Y-84707544D01*
X145907455Y-84707547D01*
X146022664Y-84793793D01*
X146022671Y-84793797D01*
X146067618Y-84810561D01*
X146157517Y-84844091D01*
X146217127Y-84850500D01*
X146390500Y-84850499D01*
X146457539Y-84870183D01*
X146503294Y-84922987D01*
X146514500Y-84974499D01*
X146514500Y-86025500D01*
X146494815Y-86092539D01*
X146442011Y-86138294D01*
X146390501Y-86149500D01*
X146217130Y-86149500D01*
X146217123Y-86149501D01*
X146157516Y-86155908D01*
X146022671Y-86206202D01*
X146022664Y-86206206D01*
X145907455Y-86292452D01*
X145907452Y-86292455D01*
X145821206Y-86407664D01*
X145821202Y-86407671D01*
X145770908Y-86542517D01*
X145764501Y-86602116D01*
X145764500Y-86602135D01*
X145764500Y-88397870D01*
X145764501Y-88397876D01*
X145770908Y-88457483D01*
X145821202Y-88592328D01*
X145821206Y-88592335D01*
X145907452Y-88707544D01*
X145907455Y-88707547D01*
X146022664Y-88793793D01*
X146022671Y-88793797D01*
X146157517Y-88844091D01*
X146157516Y-88844091D01*
X146164444Y-88844835D01*
X146217127Y-88850500D01*
X148012872Y-88850499D01*
X148072483Y-88844091D01*
X148207331Y-88793796D01*
X148322546Y-88707546D01*
X148408796Y-88592331D01*
X148457810Y-88460916D01*
X148499681Y-88404984D01*
X148565145Y-88380566D01*
X148633418Y-88395417D01*
X148661673Y-88416569D01*
X148775213Y-88530109D01*
X148947179Y-88655048D01*
X148947181Y-88655049D01*
X148947184Y-88655051D01*
X149136588Y-88751557D01*
X149338757Y-88817246D01*
X149548713Y-88850500D01*
X149548714Y-88850500D01*
X149761286Y-88850500D01*
X149761287Y-88850500D01*
X149971243Y-88817246D01*
X150173412Y-88751557D01*
X150362816Y-88655051D01*
X150449138Y-88592335D01*
X150534786Y-88530109D01*
X150534788Y-88530106D01*
X150534792Y-88530104D01*
X150685104Y-88379792D01*
X150685106Y-88379788D01*
X150685109Y-88379786D01*
X150810048Y-88207820D01*
X150810047Y-88207820D01*
X150810051Y-88207816D01*
X150814514Y-88199054D01*
X150862488Y-88148259D01*
X150930308Y-88131463D01*
X150996444Y-88153999D01*
X151035486Y-88199056D01*
X151039951Y-88207820D01*
X151164890Y-88379786D01*
X151315213Y-88530109D01*
X151487179Y-88655048D01*
X151487181Y-88655049D01*
X151487184Y-88655051D01*
X151676588Y-88751557D01*
X151878757Y-88817246D01*
X152088713Y-88850500D01*
X152088714Y-88850500D01*
X152301286Y-88850500D01*
X152301287Y-88850500D01*
X152511243Y-88817246D01*
X152553523Y-88803507D01*
X152623362Y-88801511D01*
X152679522Y-88833757D01*
X152861139Y-89015374D01*
X152861149Y-89015385D01*
X152865479Y-89019715D01*
X152865480Y-89019716D01*
X152977284Y-89131520D01*
X153064095Y-89181639D01*
X153064097Y-89181641D01*
X153102151Y-89203611D01*
X153114215Y-89210577D01*
X153266943Y-89251501D01*
X153266946Y-89251501D01*
X153432654Y-89251501D01*
X153432670Y-89251500D01*
X161842331Y-89251500D01*
X161842347Y-89251501D01*
X161849943Y-89251501D01*
X162008054Y-89251501D01*
X162008057Y-89251501D01*
X162160785Y-89210577D01*
X162210904Y-89181639D01*
X162297716Y-89131520D01*
X162409520Y-89019716D01*
X162409520Y-89019714D01*
X162419728Y-89009507D01*
X162419730Y-89009504D01*
X169975478Y-81453755D01*
X170036799Y-81420272D01*
X170101473Y-81423506D01*
X170143757Y-81437246D01*
X170353713Y-81470500D01*
X170353714Y-81470500D01*
X170566286Y-81470500D01*
X170566287Y-81470500D01*
X170776243Y-81437246D01*
X170978412Y-81371557D01*
X171167816Y-81275051D01*
X171189789Y-81259086D01*
X171339786Y-81150109D01*
X171339788Y-81150106D01*
X171339792Y-81150104D01*
X171490104Y-80999792D01*
X171490106Y-80999788D01*
X171490109Y-80999786D01*
X171615048Y-80827820D01*
X171615047Y-80827820D01*
X171615051Y-80827816D01*
X171619514Y-80819054D01*
X171667488Y-80768259D01*
X171735308Y-80751463D01*
X171801444Y-80773999D01*
X171840486Y-80819056D01*
X171844951Y-80827820D01*
X171969890Y-80999786D01*
X172120213Y-81150109D01*
X172292179Y-81275048D01*
X172292181Y-81275049D01*
X172292184Y-81275051D01*
X172481588Y-81371557D01*
X172683757Y-81437246D01*
X172893713Y-81470500D01*
X172893714Y-81470500D01*
X173106286Y-81470500D01*
X173106287Y-81470500D01*
X173316243Y-81437246D01*
X173518412Y-81371557D01*
X173707816Y-81275051D01*
X173729789Y-81259086D01*
X173879786Y-81150109D01*
X173879788Y-81150106D01*
X173879792Y-81150104D01*
X174030104Y-80999792D01*
X174030106Y-80999788D01*
X174030109Y-80999786D01*
X174155048Y-80827820D01*
X174155047Y-80827820D01*
X174155051Y-80827816D01*
X174251557Y-80638412D01*
X174317246Y-80436243D01*
X174350500Y-80226287D01*
X174350500Y-80013713D01*
X174317246Y-79803757D01*
X174251557Y-79601588D01*
X174155051Y-79412184D01*
X174155049Y-79412181D01*
X174155048Y-79412179D01*
X174030109Y-79240213D01*
X173879786Y-79089890D01*
X173707820Y-78964951D01*
X173518414Y-78868444D01*
X173518413Y-78868443D01*
X173518412Y-78868443D01*
X173316243Y-78802754D01*
X173316241Y-78802753D01*
X173316240Y-78802753D01*
X173154957Y-78777208D01*
X173106287Y-78769500D01*
X172893713Y-78769500D01*
X172865006Y-78774046D01*
X172683757Y-78802753D01*
X172641473Y-78816492D01*
X172626260Y-78816926D01*
X172612003Y-78822244D01*
X172592048Y-78817903D01*
X172571632Y-78818486D01*
X172557545Y-78810397D01*
X172543730Y-78807392D01*
X172515476Y-78786241D01*
X172485819Y-78756584D01*
X172452334Y-78695261D01*
X172449500Y-78668903D01*
X172449500Y-77262185D01*
X172449500Y-77262183D01*
X172408577Y-77109456D01*
X172380939Y-77061585D01*
X172329524Y-76972530D01*
X172329521Y-76972526D01*
X172329520Y-76972524D01*
X172217716Y-76860720D01*
X172217715Y-76860719D01*
X172213385Y-76856389D01*
X172213374Y-76856379D01*
X164273350Y-68916355D01*
X164266281Y-68909286D01*
X164266280Y-68909284D01*
X164154476Y-68797480D01*
X164154473Y-68797478D01*
X164149176Y-68792181D01*
X164115692Y-68730858D01*
X164120676Y-68661166D01*
X164162548Y-68605233D01*
X164228012Y-68580816D01*
X164236858Y-68580500D01*
X183335500Y-68580500D01*
X183402539Y-68600185D01*
X183448294Y-68652989D01*
X183459500Y-68704500D01*
X183459500Y-95640903D01*
X183439815Y-95707942D01*
X183387011Y-95753697D01*
X183317853Y-95763641D01*
X183254297Y-95734616D01*
X183247819Y-95728584D01*
X182793757Y-95274522D01*
X182760272Y-95213199D01*
X182763507Y-95148523D01*
X182777246Y-95106243D01*
X182810500Y-94896287D01*
X182810500Y-94683713D01*
X182777246Y-94473757D01*
X182711557Y-94271588D01*
X182615051Y-94082184D01*
X182615049Y-94082181D01*
X182615048Y-94082179D01*
X182490109Y-93910213D01*
X182339786Y-93759890D01*
X182167820Y-93634951D01*
X181978414Y-93538444D01*
X181978413Y-93538443D01*
X181978412Y-93538443D01*
X181776243Y-93472754D01*
X181776241Y-93472753D01*
X181776240Y-93472753D01*
X181614957Y-93447208D01*
X181566287Y-93439500D01*
X181353713Y-93439500D01*
X181305042Y-93447208D01*
X181143760Y-93472753D01*
X180941585Y-93538444D01*
X180752179Y-93634951D01*
X180580213Y-93759890D01*
X180429890Y-93910213D01*
X180304951Y-94082179D01*
X180208444Y-94271585D01*
X180142753Y-94473760D01*
X180109500Y-94683713D01*
X180109500Y-94896286D01*
X180142754Y-95106244D01*
X180142754Y-95106247D01*
X180156491Y-95148523D01*
X180158486Y-95218364D01*
X180126241Y-95274522D01*
X178692584Y-96708181D01*
X178631261Y-96741666D01*
X178604903Y-96744500D01*
X170474499Y-96744500D01*
X170407460Y-96724815D01*
X170361705Y-96672011D01*
X170350499Y-96620500D01*
X170350499Y-96447129D01*
X170350498Y-96447123D01*
X170350497Y-96447116D01*
X170344091Y-96387517D01*
X170328572Y-96345909D01*
X170293797Y-96252671D01*
X170293793Y-96252664D01*
X170207547Y-96137455D01*
X170207544Y-96137452D01*
X170092335Y-96051206D01*
X170092328Y-96051202D01*
X169957482Y-96000908D01*
X169957483Y-96000908D01*
X169897883Y-95994501D01*
X169897881Y-95994500D01*
X169897873Y-95994500D01*
X169897864Y-95994500D01*
X168102129Y-95994500D01*
X168102123Y-95994501D01*
X168042516Y-96000908D01*
X167907671Y-96051202D01*
X167907664Y-96051206D01*
X167792455Y-96137452D01*
X167792452Y-96137455D01*
X167706206Y-96252664D01*
X167706202Y-96252671D01*
X167655908Y-96387517D01*
X167649501Y-96447116D01*
X167649501Y-96447123D01*
X167649500Y-96447135D01*
X167649500Y-96620500D01*
X167629815Y-96687539D01*
X167577011Y-96733294D01*
X167525500Y-96744500D01*
X166474499Y-96744500D01*
X166407460Y-96724815D01*
X166361705Y-96672011D01*
X166350499Y-96620500D01*
X166350499Y-96447129D01*
X166350498Y-96447123D01*
X166350497Y-96447116D01*
X166344091Y-96387517D01*
X166328572Y-96345909D01*
X166293797Y-96252671D01*
X166293793Y-96252664D01*
X166207547Y-96137455D01*
X166207544Y-96137452D01*
X166092335Y-96051206D01*
X166092328Y-96051202D01*
X165957482Y-96000908D01*
X165957483Y-96000908D01*
X165897883Y-95994501D01*
X165897881Y-95994500D01*
X165897873Y-95994500D01*
X165897864Y-95994500D01*
X164102129Y-95994500D01*
X164102123Y-95994501D01*
X164042516Y-96000908D01*
X163907671Y-96051202D01*
X163907664Y-96051206D01*
X163792455Y-96137452D01*
X163792452Y-96137455D01*
X163706206Y-96252664D01*
X163706202Y-96252671D01*
X163655908Y-96387517D01*
X163649501Y-96447116D01*
X163649501Y-96447123D01*
X163649500Y-96447135D01*
X163649500Y-98242870D01*
X163649501Y-98242876D01*
X163655908Y-98302483D01*
X163706202Y-98437328D01*
X163706206Y-98437335D01*
X163792452Y-98552544D01*
X163792455Y-98552547D01*
X163907664Y-98638793D01*
X163907671Y-98638797D01*
X164039082Y-98687810D01*
X164095016Y-98729681D01*
X164119433Y-98795145D01*
X164104582Y-98863418D01*
X164083431Y-98891673D01*
X163969889Y-99005215D01*
X163844951Y-99177179D01*
X163748444Y-99366585D01*
X163682753Y-99568760D01*
X163649500Y-99778713D01*
X163649500Y-99991286D01*
X163669318Y-100116416D01*
X163682754Y-100201243D01*
X163731506Y-100351287D01*
X163748444Y-100403414D01*
X163844951Y-100592820D01*
X163969890Y-100764786D01*
X164120213Y-100915109D01*
X164292182Y-101040050D01*
X164300946Y-101044516D01*
X164351742Y-101092491D01*
X164368536Y-101160312D01*
X164345998Y-101226447D01*
X164300946Y-101265484D01*
X164292182Y-101269949D01*
X164120213Y-101394890D01*
X163969890Y-101545213D01*
X163844951Y-101717179D01*
X163748444Y-101906585D01*
X163682753Y-102108760D01*
X163649500Y-102318713D01*
X163649500Y-102531286D01*
X163682754Y-102741244D01*
X163682754Y-102741247D01*
X163696491Y-102783523D01*
X163698486Y-102853364D01*
X163666241Y-102909522D01*
X163483439Y-103092324D01*
X163483432Y-103092331D01*
X163480286Y-103095478D01*
X163480284Y-103095480D01*
X163368480Y-103207284D01*
X163343518Y-103250520D01*
X163337611Y-103260750D01*
X163337610Y-103260752D01*
X163312187Y-103304786D01*
X163289423Y-103344215D01*
X163248499Y-103496943D01*
X163248499Y-103496945D01*
X163248499Y-103665046D01*
X163248500Y-103665059D01*
X163248500Y-111132330D01*
X163248499Y-111132348D01*
X163248499Y-111298054D01*
X163248498Y-111298054D01*
X163289423Y-111450785D01*
X163318358Y-111500900D01*
X163318359Y-111500904D01*
X163318360Y-111500904D01*
X163368479Y-111587714D01*
X163368481Y-111587717D01*
X163487349Y-111706585D01*
X163487355Y-111706590D01*
X170626241Y-118845476D01*
X170659726Y-118906799D01*
X170656492Y-118971473D01*
X170642753Y-119013757D01*
X170609500Y-119223713D01*
X170609500Y-119436286D01*
X170642753Y-119646239D01*
X170708444Y-119848414D01*
X170804951Y-120037820D01*
X170929890Y-120209786D01*
X171080213Y-120360109D01*
X171252182Y-120485050D01*
X171260946Y-120489516D01*
X171311742Y-120537491D01*
X171328536Y-120605312D01*
X171305998Y-120671447D01*
X171260946Y-120710484D01*
X171252182Y-120714949D01*
X171080213Y-120839890D01*
X171080209Y-120839894D01*
X170929896Y-120990208D01*
X170929890Y-120990213D01*
X170804951Y-121162179D01*
X170708444Y-121351585D01*
X170642753Y-121553760D01*
X170642753Y-121553762D01*
X170609500Y-121763713D01*
X170609500Y-121976287D01*
X170642754Y-122186243D01*
X170669452Y-122268412D01*
X170708444Y-122388414D01*
X170804951Y-122577820D01*
X170929890Y-122749786D01*
X171080213Y-122900109D01*
X171252179Y-123025048D01*
X171252181Y-123025049D01*
X171252184Y-123025051D01*
X171441588Y-123121557D01*
X171643757Y-123187246D01*
X171853713Y-123220500D01*
X171853714Y-123220500D01*
X172066286Y-123220500D01*
X172066287Y-123220500D01*
X172276243Y-123187246D01*
X172478412Y-123121557D01*
X172667816Y-123025051D01*
X172760805Y-122957491D01*
X172839786Y-122900109D01*
X172839788Y-122900106D01*
X172839792Y-122900104D01*
X172990104Y-122749792D01*
X172990106Y-122749788D01*
X172990109Y-122749786D01*
X173115048Y-122577820D01*
X173115047Y-122577820D01*
X173115051Y-122577816D01*
X173211557Y-122388412D01*
X173277246Y-122186243D01*
X173310500Y-121976287D01*
X173310500Y-121763713D01*
X173277246Y-121553757D01*
X173263506Y-121511473D01*
X173261512Y-121441635D01*
X173293753Y-121385480D01*
X173561418Y-121117817D01*
X173622741Y-121084334D01*
X173649098Y-121081500D01*
X175432331Y-121081500D01*
X175432347Y-121081501D01*
X175439943Y-121081501D01*
X175598054Y-121081501D01*
X175598057Y-121081501D01*
X175750785Y-121040577D01*
X175838026Y-120990208D01*
X175887716Y-120961520D01*
X175999520Y-120849716D01*
X175999520Y-120849714D01*
X176009724Y-120839511D01*
X176009727Y-120839506D01*
X183247821Y-113601413D01*
X183309142Y-113567930D01*
X183378834Y-113572914D01*
X183434767Y-113614786D01*
X183459184Y-113680250D01*
X183459500Y-113689096D01*
X183459500Y-139705500D01*
X183439815Y-139772539D01*
X183387011Y-139818294D01*
X183335500Y-139829500D01*
X112834500Y-139829500D01*
X112767461Y-139809815D01*
X112721706Y-139757011D01*
X112710500Y-139705500D01*
X112710500Y-122305814D01*
X128128498Y-122305814D01*
X128128499Y-122305817D01*
X128169423Y-122458545D01*
X128176324Y-122470498D01*
X128176325Y-122470501D01*
X128176326Y-122470501D01*
X128248477Y-122595472D01*
X128248481Y-122595477D01*
X128367349Y-122714345D01*
X128367355Y-122714350D01*
X128918379Y-123265374D01*
X128918389Y-123265385D01*
X128922719Y-123269715D01*
X128922720Y-123269716D01*
X129034524Y-123381520D01*
X129034526Y-123381521D01*
X129034530Y-123381524D01*
X129084222Y-123410213D01*
X129171456Y-123460577D01*
X129283259Y-123490534D01*
X129324182Y-123501500D01*
X129324183Y-123501500D01*
X131103710Y-123501500D01*
X131170749Y-123521185D01*
X131216504Y-123573989D01*
X131226448Y-123643147D01*
X131214195Y-123681795D01*
X131168444Y-123771585D01*
X131102753Y-123973760D01*
X131069500Y-124183713D01*
X131069500Y-124396286D01*
X131102753Y-124606239D01*
X131168444Y-124808414D01*
X131264951Y-124997820D01*
X131389890Y-125169786D01*
X131540213Y-125320109D01*
X131712179Y-125445048D01*
X131712181Y-125445049D01*
X131712184Y-125445051D01*
X131901588Y-125541557D01*
X132103757Y-125607246D01*
X132313713Y-125640500D01*
X132313714Y-125640500D01*
X132526286Y-125640500D01*
X132526287Y-125640500D01*
X132736243Y-125607246D01*
X132938412Y-125541557D01*
X133127816Y-125445051D01*
X133149789Y-125429086D01*
X133299786Y-125320109D01*
X133299788Y-125320106D01*
X133299792Y-125320104D01*
X133450104Y-125169792D01*
X133450106Y-125169788D01*
X133450109Y-125169786D01*
X133575048Y-124997820D01*
X133575047Y-124997820D01*
X133575051Y-124997816D01*
X133579514Y-124989054D01*
X133627488Y-124938259D01*
X133695308Y-124921463D01*
X133761444Y-124943999D01*
X133800486Y-124989056D01*
X133804951Y-124997820D01*
X133929890Y-125169786D01*
X134080213Y-125320109D01*
X134252179Y-125445048D01*
X134252181Y-125445049D01*
X134252184Y-125445051D01*
X134441588Y-125541557D01*
X134643757Y-125607246D01*
X134853713Y-125640500D01*
X134853714Y-125640500D01*
X135066286Y-125640500D01*
X135066287Y-125640500D01*
X135276243Y-125607246D01*
X135478412Y-125541557D01*
X135667816Y-125445051D01*
X135689789Y-125429086D01*
X135839786Y-125320109D01*
X135839788Y-125320106D01*
X135839792Y-125320104D01*
X135990104Y-125169792D01*
X135990106Y-125169788D01*
X135990109Y-125169786D01*
X136115048Y-124997820D01*
X136115047Y-124997820D01*
X136115051Y-124997816D01*
X136119514Y-124989054D01*
X136167488Y-124938259D01*
X136235308Y-124921463D01*
X136301444Y-124943999D01*
X136340486Y-124989056D01*
X136344951Y-124997820D01*
X136469890Y-125169786D01*
X136620213Y-125320109D01*
X136792179Y-125445048D01*
X136792181Y-125445049D01*
X136792184Y-125445051D01*
X136981588Y-125541557D01*
X137183757Y-125607246D01*
X137393713Y-125640500D01*
X137393714Y-125640500D01*
X137606286Y-125640500D01*
X137606287Y-125640500D01*
X137816243Y-125607246D01*
X138018412Y-125541557D01*
X138207816Y-125445051D01*
X138229789Y-125429086D01*
X138379786Y-125320109D01*
X138379788Y-125320106D01*
X138379792Y-125320104D01*
X138530104Y-125169792D01*
X138530106Y-125169788D01*
X138530109Y-125169786D01*
X138655048Y-124997820D01*
X138655047Y-124997820D01*
X138655051Y-124997816D01*
X138751557Y-124808412D01*
X138817246Y-124606243D01*
X138850500Y-124396287D01*
X138850500Y-124183713D01*
X138817246Y-123973757D01*
X138751557Y-123771588D01*
X138655051Y-123582184D01*
X138655049Y-123582181D01*
X138655048Y-123582179D01*
X138530109Y-123410213D01*
X138379786Y-123259890D01*
X138207820Y-123134951D01*
X138207115Y-123134591D01*
X138199054Y-123130485D01*
X138148259Y-123082512D01*
X138131463Y-123014692D01*
X138153999Y-122948556D01*
X138199054Y-122909515D01*
X138207816Y-122905051D01*
X138229789Y-122889086D01*
X138379786Y-122780109D01*
X138379788Y-122780106D01*
X138379792Y-122780104D01*
X138530104Y-122629792D01*
X138530106Y-122629788D01*
X138530109Y-122629786D01*
X138645835Y-122470501D01*
X138655051Y-122457816D01*
X138751557Y-122268412D01*
X138817246Y-122066243D01*
X138850500Y-121856287D01*
X138850500Y-121643713D01*
X138817246Y-121433757D01*
X138751557Y-121231588D01*
X138655051Y-121042184D01*
X138655049Y-121042181D01*
X138655048Y-121042179D01*
X138530109Y-120870213D01*
X138379786Y-120719890D01*
X138207820Y-120594951D01*
X138018414Y-120498444D01*
X138018413Y-120498443D01*
X138018412Y-120498443D01*
X137816243Y-120432754D01*
X137816241Y-120432753D01*
X137816240Y-120432753D01*
X137634692Y-120403999D01*
X137606287Y-120399500D01*
X137393713Y-120399500D01*
X137365308Y-120403999D01*
X137183760Y-120432753D01*
X136981585Y-120498444D01*
X136792179Y-120594951D01*
X136620213Y-120719890D01*
X136469890Y-120870213D01*
X136344949Y-121042182D01*
X136340484Y-121050946D01*
X136292509Y-121101742D01*
X136224688Y-121118536D01*
X136158553Y-121095998D01*
X136119516Y-121050946D01*
X136115050Y-121042182D01*
X135990109Y-120870213D01*
X135839786Y-120719890D01*
X135667820Y-120594951D01*
X135478414Y-120498444D01*
X135478413Y-120498443D01*
X135478412Y-120498443D01*
X135276243Y-120432754D01*
X135276241Y-120432753D01*
X135276240Y-120432753D01*
X135094692Y-120403999D01*
X135066287Y-120399500D01*
X134853713Y-120399500D01*
X134825308Y-120403999D01*
X134643760Y-120432753D01*
X134441585Y-120498444D01*
X134252179Y-120594951D01*
X134080213Y-120719890D01*
X133929890Y-120870213D01*
X133804949Y-121042182D01*
X133800484Y-121050946D01*
X133752509Y-121101742D01*
X133684688Y-121118536D01*
X133618553Y-121095998D01*
X133579516Y-121050946D01*
X133575050Y-121042182D01*
X133450109Y-120870213D01*
X133299786Y-120719890D01*
X133127820Y-120594951D01*
X132938414Y-120498444D01*
X132938413Y-120498443D01*
X132938412Y-120498443D01*
X132736243Y-120432754D01*
X132736241Y-120432753D01*
X132736240Y-120432753D01*
X132554692Y-120403999D01*
X132526287Y-120399500D01*
X132379096Y-120399500D01*
X132312057Y-120379815D01*
X132266302Y-120327011D01*
X132256358Y-120257853D01*
X132285383Y-120194297D01*
X132291415Y-120187819D01*
X134079734Y-118399501D01*
X136092416Y-116386819D01*
X136153739Y-116353334D01*
X136180097Y-116350500D01*
X145465501Y-116350500D01*
X145532540Y-116370185D01*
X145578295Y-116422989D01*
X145589501Y-116474500D01*
X145589501Y-116647876D01*
X145595908Y-116707483D01*
X145646202Y-116842328D01*
X145646206Y-116842335D01*
X145732452Y-116957544D01*
X145732455Y-116957547D01*
X145847664Y-117043793D01*
X145847671Y-117043797D01*
X145892618Y-117060561D01*
X145982517Y-117094091D01*
X146042127Y-117100500D01*
X146215500Y-117100499D01*
X146282539Y-117120183D01*
X146328294Y-117172987D01*
X146339500Y-117224499D01*
X146339500Y-118275500D01*
X146319815Y-118342539D01*
X146267011Y-118388294D01*
X146215501Y-118399500D01*
X146042130Y-118399500D01*
X146042123Y-118399501D01*
X145982516Y-118405908D01*
X145847671Y-118456202D01*
X145847664Y-118456206D01*
X145732455Y-118542452D01*
X145732452Y-118542455D01*
X145646206Y-118657664D01*
X145646202Y-118657671D01*
X145595908Y-118792517D01*
X145589501Y-118852116D01*
X145589500Y-118852135D01*
X145589500Y-120647870D01*
X145589501Y-120647876D01*
X145595908Y-120707483D01*
X145646202Y-120842328D01*
X145646206Y-120842335D01*
X145732452Y-120957544D01*
X145732455Y-120957547D01*
X145847664Y-121043793D01*
X145847671Y-121043797D01*
X145866839Y-121050946D01*
X145982517Y-121094091D01*
X146042127Y-121100500D01*
X146215500Y-121100499D01*
X146282539Y-121120183D01*
X146328294Y-121172987D01*
X146339500Y-121224499D01*
X146339500Y-128674902D01*
X146319815Y-128741941D01*
X146303181Y-128762583D01*
X145149522Y-129916241D01*
X145088199Y-129949726D01*
X145023523Y-129946491D01*
X144981245Y-129932754D01*
X144841272Y-129910584D01*
X144771287Y-129899500D01*
X144558713Y-129899500D01*
X144510042Y-129907208D01*
X144348760Y-129932753D01*
X144146585Y-129998444D01*
X143957179Y-130094951D01*
X143785213Y-130219890D01*
X143634890Y-130370213D01*
X143509951Y-130542179D01*
X143413444Y-130731585D01*
X143347753Y-130933760D01*
X143314500Y-131143713D01*
X143314500Y-131356286D01*
X143347753Y-131566239D01*
X143413444Y-131768414D01*
X143509951Y-131957820D01*
X143634890Y-132129786D01*
X143785213Y-132280109D01*
X143957179Y-132405048D01*
X143957181Y-132405049D01*
X143957184Y-132405051D01*
X144146588Y-132501557D01*
X144348757Y-132567246D01*
X144558713Y-132600500D01*
X144558714Y-132600500D01*
X144771286Y-132600500D01*
X144771287Y-132600500D01*
X144981243Y-132567246D01*
X145183412Y-132501557D01*
X145372816Y-132405051D01*
X145394789Y-132389086D01*
X145544786Y-132280109D01*
X145544788Y-132280106D01*
X145544792Y-132280104D01*
X145695104Y-132129792D01*
X145695106Y-132129788D01*
X145695109Y-132129786D01*
X145820048Y-131957820D01*
X145820047Y-131957820D01*
X145820051Y-131957816D01*
X145824514Y-131949054D01*
X145872488Y-131898259D01*
X145940308Y-131881463D01*
X146006444Y-131903999D01*
X146045486Y-131949056D01*
X146049951Y-131957820D01*
X146174890Y-132129786D01*
X146325213Y-132280109D01*
X146497179Y-132405048D01*
X146497181Y-132405049D01*
X146497184Y-132405051D01*
X146686588Y-132501557D01*
X146888757Y-132567246D01*
X147098713Y-132600500D01*
X147098714Y-132600500D01*
X147311286Y-132600500D01*
X147311287Y-132600500D01*
X147521243Y-132567246D01*
X147723412Y-132501557D01*
X147912816Y-132405051D01*
X147934789Y-132389086D01*
X148084786Y-132280109D01*
X148084788Y-132280106D01*
X148084792Y-132280104D01*
X148235104Y-132129792D01*
X148235106Y-132129788D01*
X148235109Y-132129786D01*
X148360048Y-131957820D01*
X148360047Y-131957820D01*
X148360051Y-131957816D01*
X148364514Y-131949054D01*
X148412488Y-131898259D01*
X148480308Y-131881463D01*
X148546444Y-131903999D01*
X148585486Y-131949056D01*
X148589951Y-131957820D01*
X148714890Y-132129786D01*
X148865213Y-132280109D01*
X149037179Y-132405048D01*
X149037181Y-132405049D01*
X149037184Y-132405051D01*
X149226588Y-132501557D01*
X149428757Y-132567246D01*
X149638713Y-132600500D01*
X149638714Y-132600500D01*
X149851286Y-132600500D01*
X149851287Y-132600500D01*
X150061243Y-132567246D01*
X150263412Y-132501557D01*
X150452816Y-132405051D01*
X150474789Y-132389086D01*
X150624786Y-132280109D01*
X150624788Y-132280106D01*
X150624792Y-132280104D01*
X150775104Y-132129792D01*
X150775106Y-132129788D01*
X150775109Y-132129786D01*
X150900048Y-131957820D01*
X150900047Y-131957820D01*
X150900051Y-131957816D01*
X150904514Y-131949054D01*
X150952488Y-131898259D01*
X151020308Y-131881463D01*
X151086444Y-131903999D01*
X151125486Y-131949056D01*
X151129951Y-131957820D01*
X151254890Y-132129786D01*
X151405213Y-132280109D01*
X151577179Y-132405048D01*
X151577181Y-132405049D01*
X151577184Y-132405051D01*
X151766588Y-132501557D01*
X151968757Y-132567246D01*
X152178713Y-132600500D01*
X152178714Y-132600500D01*
X152391286Y-132600500D01*
X152391287Y-132600500D01*
X152601243Y-132567246D01*
X152803412Y-132501557D01*
X152992816Y-132405051D01*
X153014789Y-132389086D01*
X153164786Y-132280109D01*
X153164788Y-132280106D01*
X153164792Y-132280104D01*
X153315104Y-132129792D01*
X153315106Y-132129788D01*
X153315109Y-132129786D01*
X153440048Y-131957820D01*
X153440047Y-131957820D01*
X153440051Y-131957816D01*
X153444514Y-131949054D01*
X153492488Y-131898259D01*
X153560308Y-131881463D01*
X153626444Y-131903999D01*
X153665486Y-131949056D01*
X153669951Y-131957820D01*
X153794890Y-132129786D01*
X153945213Y-132280109D01*
X154117179Y-132405048D01*
X154117181Y-132405049D01*
X154117184Y-132405051D01*
X154306588Y-132501557D01*
X154508757Y-132567246D01*
X154718713Y-132600500D01*
X154718714Y-132600500D01*
X154931286Y-132600500D01*
X154931287Y-132600500D01*
X155141243Y-132567246D01*
X155343412Y-132501557D01*
X155532816Y-132405051D01*
X155554789Y-132389086D01*
X155704786Y-132280109D01*
X155704788Y-132280106D01*
X155704792Y-132280104D01*
X155855104Y-132129792D01*
X155855106Y-132129788D01*
X155855109Y-132129786D01*
X155980048Y-131957820D01*
X155980047Y-131957820D01*
X155980051Y-131957816D01*
X155984514Y-131949054D01*
X156032488Y-131898259D01*
X156100308Y-131881463D01*
X156166444Y-131903999D01*
X156205486Y-131949056D01*
X156209951Y-131957820D01*
X156334890Y-132129786D01*
X156485213Y-132280109D01*
X156657179Y-132405048D01*
X156657181Y-132405049D01*
X156657184Y-132405051D01*
X156846588Y-132501557D01*
X157048757Y-132567246D01*
X157258713Y-132600500D01*
X157258714Y-132600500D01*
X157471286Y-132600500D01*
X157471287Y-132600500D01*
X157681243Y-132567246D01*
X157883412Y-132501557D01*
X158072816Y-132405051D01*
X158094789Y-132389086D01*
X158244786Y-132280109D01*
X158244788Y-132280106D01*
X158244792Y-132280104D01*
X158395104Y-132129792D01*
X158395106Y-132129788D01*
X158395109Y-132129786D01*
X158520048Y-131957820D01*
X158520047Y-131957820D01*
X158520051Y-131957816D01*
X158524514Y-131949054D01*
X158572488Y-131898259D01*
X158640308Y-131881463D01*
X158706444Y-131903999D01*
X158745486Y-131949056D01*
X158749951Y-131957820D01*
X158874890Y-132129786D01*
X159025213Y-132280109D01*
X159197179Y-132405048D01*
X159197181Y-132405049D01*
X159197184Y-132405051D01*
X159386588Y-132501557D01*
X159588757Y-132567246D01*
X159798713Y-132600500D01*
X159798714Y-132600500D01*
X160011286Y-132600500D01*
X160011287Y-132600500D01*
X160221243Y-132567246D01*
X160423412Y-132501557D01*
X160612816Y-132405051D01*
X160634789Y-132389086D01*
X160784786Y-132280109D01*
X160784788Y-132280106D01*
X160784792Y-132280104D01*
X160935104Y-132129792D01*
X160935106Y-132129788D01*
X160935109Y-132129786D01*
X161060048Y-131957820D01*
X161060047Y-131957820D01*
X161060051Y-131957816D01*
X161156557Y-131768412D01*
X161222246Y-131566243D01*
X161255500Y-131356287D01*
X161255500Y-131143713D01*
X161222246Y-130933757D01*
X161156557Y-130731588D01*
X161060051Y-130542184D01*
X161060049Y-130542181D01*
X161060048Y-130542179D01*
X160935109Y-130370213D01*
X160784786Y-130219890D01*
X160612820Y-130094951D01*
X160423414Y-129998444D01*
X160423413Y-129998443D01*
X160423412Y-129998443D01*
X160221243Y-129932754D01*
X160221241Y-129932753D01*
X160221240Y-129932753D01*
X160059957Y-129907208D01*
X160011287Y-129899500D01*
X159798713Y-129899500D01*
X159750042Y-129907208D01*
X159588760Y-129932753D01*
X159386585Y-129998444D01*
X159197179Y-130094951D01*
X159025213Y-130219890D01*
X158874890Y-130370213D01*
X158749949Y-130542182D01*
X158745484Y-130550946D01*
X158697509Y-130601742D01*
X158629688Y-130618536D01*
X158563553Y-130595998D01*
X158524516Y-130550946D01*
X158520050Y-130542182D01*
X158395109Y-130370213D01*
X158244786Y-130219890D01*
X158072820Y-130094951D01*
X157883414Y-129998444D01*
X157883413Y-129998443D01*
X157883412Y-129998443D01*
X157681243Y-129932754D01*
X157681241Y-129932753D01*
X157681240Y-129932753D01*
X157519957Y-129907208D01*
X157471287Y-129899500D01*
X157258713Y-129899500D01*
X157210042Y-129907208D01*
X157048760Y-129932753D01*
X156846585Y-129998444D01*
X156657179Y-130094951D01*
X156485213Y-130219890D01*
X156334890Y-130370213D01*
X156209949Y-130542182D01*
X156205484Y-130550946D01*
X156157509Y-130601742D01*
X156089688Y-130618536D01*
X156023553Y-130595998D01*
X155984516Y-130550946D01*
X155980050Y-130542182D01*
X155855109Y-130370213D01*
X155704786Y-130219890D01*
X155532820Y-130094951D01*
X155343414Y-129998444D01*
X155343413Y-129998443D01*
X155343412Y-129998443D01*
X155141243Y-129932754D01*
X155141241Y-129932753D01*
X155141240Y-129932753D01*
X154979957Y-129907208D01*
X154931287Y-129899500D01*
X154784096Y-129899500D01*
X154717057Y-129879815D01*
X154671302Y-129827011D01*
X154661358Y-129757853D01*
X154690383Y-129694297D01*
X154696415Y-129687819D01*
X154928713Y-129455521D01*
X154928716Y-129455520D01*
X155040520Y-129343716D01*
X155090639Y-129256904D01*
X155119577Y-129206785D01*
X155160501Y-129054057D01*
X155160501Y-128895943D01*
X155160501Y-128888348D01*
X155160500Y-128888330D01*
X155160500Y-121035718D01*
X155180185Y-120968679D01*
X155228207Y-120925233D01*
X155267815Y-120905052D01*
X155267815Y-120905051D01*
X155267816Y-120905051D01*
X155359193Y-120838661D01*
X155439786Y-120780109D01*
X155439788Y-120780106D01*
X155439792Y-120780104D01*
X155590104Y-120629792D01*
X155590106Y-120629788D01*
X155590109Y-120629786D01*
X155715048Y-120457820D01*
X155715047Y-120457820D01*
X155715051Y-120457816D01*
X155811557Y-120268412D01*
X155877246Y-120066243D01*
X155910500Y-119856287D01*
X155910500Y-119643713D01*
X155877246Y-119433757D01*
X155811557Y-119231588D01*
X155715051Y-119042184D01*
X155715049Y-119042181D01*
X155715048Y-119042179D01*
X155590109Y-118870213D01*
X155439786Y-118719890D01*
X155267815Y-118594948D01*
X155267814Y-118594947D01*
X155228205Y-118574765D01*
X155177409Y-118526791D01*
X155160500Y-118464281D01*
X155160500Y-117035718D01*
X155180185Y-116968679D01*
X155228207Y-116925233D01*
X155267815Y-116905052D01*
X155267815Y-116905051D01*
X155267816Y-116905051D01*
X155369874Y-116830902D01*
X155439786Y-116780109D01*
X155439788Y-116780106D01*
X155439792Y-116780104D01*
X155590104Y-116629792D01*
X155590106Y-116629788D01*
X155590109Y-116629786D01*
X155715048Y-116457820D01*
X155715047Y-116457820D01*
X155715051Y-116457816D01*
X155811557Y-116268412D01*
X155877246Y-116066243D01*
X155910500Y-115856287D01*
X155910500Y-115643713D01*
X155877246Y-115433757D01*
X155811557Y-115231588D01*
X155715051Y-115042184D01*
X155715049Y-115042181D01*
X155715048Y-115042179D01*
X155590109Y-114870213D01*
X155439786Y-114719890D01*
X155267820Y-114594951D01*
X155078414Y-114498444D01*
X155078413Y-114498443D01*
X155078412Y-114498443D01*
X154876243Y-114432754D01*
X154876241Y-114432753D01*
X154876240Y-114432753D01*
X154714164Y-114407083D01*
X154666287Y-114399500D01*
X154453713Y-114399500D01*
X154405836Y-114407083D01*
X154243760Y-114432753D01*
X154041585Y-114498444D01*
X153852179Y-114594951D01*
X153680213Y-114719890D01*
X153529890Y-114870213D01*
X153404949Y-115042182D01*
X153400484Y-115050946D01*
X153352509Y-115101742D01*
X153284688Y-115118536D01*
X153218553Y-115095998D01*
X153179516Y-115050946D01*
X153175050Y-115042182D01*
X153050109Y-114870213D01*
X152899786Y-114719890D01*
X152727820Y-114594951D01*
X152538414Y-114498444D01*
X152538413Y-114498443D01*
X152538412Y-114498443D01*
X152336243Y-114432754D01*
X152336241Y-114432753D01*
X152336240Y-114432753D01*
X152174164Y-114407083D01*
X152126287Y-114399500D01*
X151913713Y-114399500D01*
X151885006Y-114404046D01*
X151703757Y-114432753D01*
X151661473Y-114446492D01*
X151591632Y-114448486D01*
X151535476Y-114416241D01*
X151356590Y-114237355D01*
X151356588Y-114237352D01*
X151237717Y-114118481D01*
X151237716Y-114118480D01*
X151150904Y-114068360D01*
X151150904Y-114068359D01*
X151150900Y-114068358D01*
X151100785Y-114039423D01*
X150948057Y-113998499D01*
X150789943Y-113998499D01*
X150782347Y-113998499D01*
X150782331Y-113998500D01*
X135489910Y-113998500D01*
X135489894Y-113998499D01*
X135482298Y-113998499D01*
X135324183Y-113998499D01*
X135247819Y-114018961D01*
X135171454Y-114039423D01*
X135171449Y-114039426D01*
X135034530Y-114118475D01*
X135034522Y-114118481D01*
X128248481Y-120904522D01*
X128248475Y-120904530D01*
X128215574Y-120961518D01*
X128215574Y-120961519D01*
X128169424Y-121041451D01*
X128169423Y-121041452D01*
X128144868Y-121133091D01*
X128128499Y-121194183D01*
X128128499Y-121352297D01*
X128128499Y-121352299D01*
X128128500Y-121362293D01*
X128128500Y-122140090D01*
X128128499Y-122140108D01*
X128128499Y-122305814D01*
X128128498Y-122305814D01*
X112710500Y-122305814D01*
X112710500Y-95058713D01*
X119649500Y-95058713D01*
X119649500Y-95271287D01*
X119659534Y-95334644D01*
X119682753Y-95481239D01*
X119682753Y-95481241D01*
X119682754Y-95481243D01*
X119737431Y-95649522D01*
X119748444Y-95683414D01*
X119844951Y-95872820D01*
X119969890Y-96044786D01*
X120120213Y-96195109D01*
X120292182Y-96320050D01*
X120300946Y-96324516D01*
X120351742Y-96372491D01*
X120368536Y-96440312D01*
X120345998Y-96506447D01*
X120300946Y-96545484D01*
X120292182Y-96549949D01*
X120120213Y-96674890D01*
X119969890Y-96825213D01*
X119844951Y-96997179D01*
X119748444Y-97186585D01*
X119682753Y-97388760D01*
X119649762Y-97597058D01*
X119649500Y-97598713D01*
X119649500Y-97811287D01*
X119651754Y-97825519D01*
X119682753Y-98021239D01*
X119682753Y-98021241D01*
X119682754Y-98021243D01*
X119737431Y-98189522D01*
X119748444Y-98223414D01*
X119844951Y-98412820D01*
X119969890Y-98584786D01*
X120120213Y-98735109D01*
X120292182Y-98860050D01*
X120300946Y-98864516D01*
X120351742Y-98912491D01*
X120368536Y-98980312D01*
X120345998Y-99046447D01*
X120300946Y-99085484D01*
X120292182Y-99089949D01*
X120120213Y-99214890D01*
X119969890Y-99365213D01*
X119844951Y-99537179D01*
X119748444Y-99726585D01*
X119682753Y-99928760D01*
X119651876Y-100123713D01*
X119649500Y-100138713D01*
X119649500Y-100351287D01*
X119651754Y-100365519D01*
X119682753Y-100561239D01*
X119682753Y-100561241D01*
X119682754Y-100561243D01*
X119743569Y-100748412D01*
X119748444Y-100763414D01*
X119844951Y-100952820D01*
X119969890Y-101124786D01*
X120120213Y-101275109D01*
X120292182Y-101400050D01*
X120300946Y-101404516D01*
X120351742Y-101452491D01*
X120368536Y-101520312D01*
X120345998Y-101586447D01*
X120300946Y-101625484D01*
X120292182Y-101629949D01*
X120120213Y-101754890D01*
X119969890Y-101905213D01*
X119844951Y-102077179D01*
X119748444Y-102266585D01*
X119682753Y-102468760D01*
X119651876Y-102663713D01*
X119649500Y-102678713D01*
X119649500Y-102891287D01*
X119651754Y-102905519D01*
X119682753Y-103101239D01*
X119682753Y-103101241D01*
X119682754Y-103101243D01*
X119743569Y-103288412D01*
X119748444Y-103303414D01*
X119844951Y-103492820D01*
X119969890Y-103664786D01*
X120120213Y-103815109D01*
X120292182Y-103940050D01*
X120300946Y-103944516D01*
X120351742Y-103992491D01*
X120368536Y-104060312D01*
X120345998Y-104126447D01*
X120300946Y-104165484D01*
X120292182Y-104169949D01*
X120120213Y-104294890D01*
X119969890Y-104445213D01*
X119844951Y-104617179D01*
X119748444Y-104806585D01*
X119682753Y-105008760D01*
X119649500Y-105218713D01*
X119649500Y-105431286D01*
X119682238Y-105637989D01*
X119682754Y-105641243D01*
X119743569Y-105828412D01*
X119748444Y-105843414D01*
X119844951Y-106032820D01*
X119969890Y-106204786D01*
X120120213Y-106355109D01*
X120292182Y-106480050D01*
X120300946Y-106484516D01*
X120351742Y-106532491D01*
X120368536Y-106600312D01*
X120345998Y-106666447D01*
X120300946Y-106705484D01*
X120292182Y-106709949D01*
X120120213Y-106834890D01*
X119969890Y-106985213D01*
X119844951Y-107157179D01*
X119748444Y-107346585D01*
X119682753Y-107548760D01*
X119675226Y-107596286D01*
X119649500Y-107758713D01*
X119649500Y-107971287D01*
X119682754Y-108181243D01*
X119688140Y-108197820D01*
X119748444Y-108383414D01*
X119844951Y-108572820D01*
X119969890Y-108744786D01*
X120120213Y-108895109D01*
X120292182Y-109020050D01*
X120300946Y-109024516D01*
X120351742Y-109072491D01*
X120368536Y-109140312D01*
X120345998Y-109206447D01*
X120300946Y-109245484D01*
X120292182Y-109249949D01*
X120120213Y-109374890D01*
X119969890Y-109525213D01*
X119844951Y-109697179D01*
X119748444Y-109886585D01*
X119682753Y-110088760D01*
X119675226Y-110136286D01*
X119649500Y-110298713D01*
X119649500Y-110511287D01*
X119682754Y-110721243D01*
X119688140Y-110737820D01*
X119748444Y-110923414D01*
X119844951Y-111112820D01*
X119969890Y-111284786D01*
X120120213Y-111435109D01*
X120292179Y-111560048D01*
X120292181Y-111560049D01*
X120292184Y-111560051D01*
X120481588Y-111656557D01*
X120683757Y-111722246D01*
X120893713Y-111755500D01*
X120893714Y-111755500D01*
X121106286Y-111755500D01*
X121106287Y-111755500D01*
X121316243Y-111722246D01*
X121518412Y-111656557D01*
X121707816Y-111560051D01*
X121741962Y-111535243D01*
X121879786Y-111435109D01*
X121879788Y-111435106D01*
X121879792Y-111435104D01*
X122030104Y-111284792D01*
X122030106Y-111284788D01*
X122030109Y-111284786D01*
X122155048Y-111112820D01*
X122155047Y-111112820D01*
X122155051Y-111112816D01*
X122251557Y-110923412D01*
X122317246Y-110721243D01*
X122350500Y-110511287D01*
X122350500Y-110298713D01*
X122317246Y-110088757D01*
X122251557Y-109886588D01*
X122155051Y-109697184D01*
X122155049Y-109697181D01*
X122155048Y-109697179D01*
X122030109Y-109525213D01*
X121879786Y-109374890D01*
X121707820Y-109249951D01*
X121707115Y-109249591D01*
X121699054Y-109245485D01*
X121648259Y-109197512D01*
X121631463Y-109129692D01*
X121653999Y-109063556D01*
X121699054Y-109024515D01*
X121707816Y-109020051D01*
X121735565Y-108999890D01*
X121879786Y-108895109D01*
X121879788Y-108895106D01*
X121879792Y-108895104D01*
X122030104Y-108744792D01*
X122030106Y-108744788D01*
X122030109Y-108744786D01*
X122155048Y-108572820D01*
X122155047Y-108572820D01*
X122155051Y-108572816D01*
X122251557Y-108383412D01*
X122317246Y-108181243D01*
X122350500Y-107971287D01*
X122350500Y-107758713D01*
X122317246Y-107548757D01*
X122251557Y-107346588D01*
X122155051Y-107157184D01*
X122155049Y-107157181D01*
X122155048Y-107157179D01*
X122030109Y-106985213D01*
X121879786Y-106834890D01*
X121707820Y-106709951D01*
X121707115Y-106709591D01*
X121699054Y-106705485D01*
X121648259Y-106657512D01*
X121631463Y-106589692D01*
X121653999Y-106523556D01*
X121699054Y-106484515D01*
X121707816Y-106480051D01*
X121735565Y-106459890D01*
X121879786Y-106355109D01*
X121879788Y-106355106D01*
X121879792Y-106355104D01*
X122030104Y-106204792D01*
X122030106Y-106204788D01*
X122030109Y-106204786D01*
X122155048Y-106032820D01*
X122155047Y-106032820D01*
X122155051Y-106032816D01*
X122251557Y-105843412D01*
X122317246Y-105641243D01*
X122350500Y-105431287D01*
X122350500Y-105284097D01*
X122370185Y-105217058D01*
X122422989Y-105171303D01*
X122492147Y-105161359D01*
X122555703Y-105190384D01*
X122562181Y-105196416D01*
X123040139Y-105674374D01*
X123040149Y-105674385D01*
X123044479Y-105678715D01*
X123044480Y-105678716D01*
X123156284Y-105790520D01*
X123156286Y-105790521D01*
X123156290Y-105790524D01*
X123224301Y-105829790D01*
X123224305Y-105829791D01*
X123224306Y-105829792D01*
X123247900Y-105843414D01*
X123293212Y-105869576D01*
X123293214Y-105869576D01*
X123293215Y-105869577D01*
X123445942Y-105910500D01*
X123445943Y-105910500D01*
X131214281Y-105910500D01*
X131281320Y-105930185D01*
X131324765Y-105978205D01*
X131344947Y-106017814D01*
X131344948Y-106017815D01*
X131469890Y-106189786D01*
X131620213Y-106340109D01*
X131792179Y-106465048D01*
X131792181Y-106465049D01*
X131792184Y-106465051D01*
X131981588Y-106561557D01*
X132183757Y-106627246D01*
X132393713Y-106660500D01*
X132393714Y-106660500D01*
X132606286Y-106660500D01*
X132606287Y-106660500D01*
X132816243Y-106627246D01*
X133018412Y-106561557D01*
X133207816Y-106465051D01*
X133229789Y-106449086D01*
X133379786Y-106340109D01*
X133379788Y-106340106D01*
X133379792Y-106340104D01*
X133530104Y-106189792D01*
X133530106Y-106189788D01*
X133530109Y-106189786D01*
X133588661Y-106109193D01*
X133655051Y-106017816D01*
X133666621Y-105995109D01*
X133675235Y-105978205D01*
X133723209Y-105927409D01*
X133785719Y-105910500D01*
X135214281Y-105910500D01*
X135281320Y-105930185D01*
X135324765Y-105978205D01*
X135344947Y-106017814D01*
X135344948Y-106017815D01*
X135469890Y-106189786D01*
X135620213Y-106340109D01*
X135792179Y-106465048D01*
X135792181Y-106465049D01*
X135792184Y-106465051D01*
X135981588Y-106561557D01*
X136183757Y-106627246D01*
X136393713Y-106660500D01*
X136393714Y-106660500D01*
X136606286Y-106660500D01*
X136606287Y-106660500D01*
X136816243Y-106627246D01*
X137018412Y-106561557D01*
X137207816Y-106465051D01*
X137229789Y-106449086D01*
X137379786Y-106340109D01*
X137379788Y-106340106D01*
X137379792Y-106340104D01*
X137530104Y-106189792D01*
X137530106Y-106189788D01*
X137530109Y-106189786D01*
X137655048Y-106017820D01*
X137655047Y-106017820D01*
X137655051Y-106017816D01*
X137751557Y-105828412D01*
X137817246Y-105626243D01*
X137850500Y-105416287D01*
X137850500Y-105203713D01*
X137817246Y-104993757D01*
X137751557Y-104791588D01*
X137655051Y-104602184D01*
X137655049Y-104602181D01*
X137655048Y-104602179D01*
X137530109Y-104430213D01*
X137379786Y-104279890D01*
X137207820Y-104154951D01*
X137207115Y-104154591D01*
X137199054Y-104150485D01*
X137148259Y-104102512D01*
X137131463Y-104034692D01*
X137153999Y-103968556D01*
X137199054Y-103929515D01*
X137207816Y-103925051D01*
X137229789Y-103909086D01*
X137379786Y-103800109D01*
X137379788Y-103800106D01*
X137379792Y-103800104D01*
X137530104Y-103649792D01*
X137530106Y-103649788D01*
X137530109Y-103649786D01*
X137655048Y-103477820D01*
X137655047Y-103477820D01*
X137655051Y-103477816D01*
X137751557Y-103288412D01*
X137817246Y-103086243D01*
X137850500Y-102876287D01*
X137850500Y-102663713D01*
X137817246Y-102453757D01*
X137751557Y-102251588D01*
X137655051Y-102062184D01*
X137655049Y-102062181D01*
X137655048Y-102062179D01*
X137530109Y-101890213D01*
X137379786Y-101739890D01*
X137207820Y-101614951D01*
X137207115Y-101614591D01*
X137199054Y-101610485D01*
X137148259Y-101562512D01*
X137131463Y-101494692D01*
X137153999Y-101428556D01*
X137199054Y-101389515D01*
X137207816Y-101385051D01*
X137229789Y-101369086D01*
X137379786Y-101260109D01*
X137379788Y-101260106D01*
X137379792Y-101260104D01*
X137530104Y-101109792D01*
X137530106Y-101109788D01*
X137530109Y-101109786D01*
X137655048Y-100937820D01*
X137655047Y-100937820D01*
X137655051Y-100937816D01*
X137751557Y-100748412D01*
X137817246Y-100546243D01*
X137850500Y-100336287D01*
X137850500Y-100123713D01*
X137817246Y-99913757D01*
X137803506Y-99871473D01*
X137803072Y-99856262D01*
X137797754Y-99842003D01*
X137802095Y-99822047D01*
X137801512Y-99801635D01*
X137809599Y-99787548D01*
X137812606Y-99773730D01*
X137833754Y-99745479D01*
X138009506Y-99569728D01*
X138009511Y-99569724D01*
X138019714Y-99559520D01*
X138019716Y-99559520D01*
X138131520Y-99447716D01*
X138187812Y-99350215D01*
X138191765Y-99343369D01*
X138191766Y-99343366D01*
X138210576Y-99310787D01*
X138217620Y-99284500D01*
X138251501Y-99158057D01*
X138251501Y-98999942D01*
X138251501Y-98992347D01*
X138251500Y-98992329D01*
X138251500Y-86112300D01*
X138251501Y-86112287D01*
X138251501Y-85944184D01*
X138210576Y-85791454D01*
X138210573Y-85791449D01*
X138131524Y-85654530D01*
X138131518Y-85654522D01*
X131464350Y-78987355D01*
X131464348Y-78987352D01*
X131345477Y-78868481D01*
X131345476Y-78868480D01*
X131258664Y-78818360D01*
X131258664Y-78818359D01*
X131258660Y-78818358D01*
X131208545Y-78789423D01*
X131055817Y-78748499D01*
X130897703Y-78748499D01*
X130890107Y-78748499D01*
X130890091Y-78748500D01*
X129944180Y-78748500D01*
X129903259Y-78759464D01*
X129903259Y-78759465D01*
X129865991Y-78769451D01*
X129791454Y-78789423D01*
X129791449Y-78789426D01*
X129654530Y-78868475D01*
X129654522Y-78868481D01*
X128868481Y-79654522D01*
X128868479Y-79654525D01*
X128848753Y-79688692D01*
X128829026Y-79722861D01*
X128789423Y-79791455D01*
X128748499Y-79944183D01*
X128748499Y-79944185D01*
X128748499Y-80112286D01*
X128748500Y-80112299D01*
X128748500Y-81350902D01*
X128728815Y-81417941D01*
X128712181Y-81438583D01*
X128444522Y-81706241D01*
X128383199Y-81739726D01*
X128318523Y-81736491D01*
X128276245Y-81722754D01*
X128136272Y-81700584D01*
X128066287Y-81689500D01*
X127853713Y-81689500D01*
X127805042Y-81697208D01*
X127643760Y-81722753D01*
X127441585Y-81788444D01*
X127252179Y-81884951D01*
X127080213Y-82009890D01*
X126929890Y-82160213D01*
X126804951Y-82332179D01*
X126708444Y-82521585D01*
X126642753Y-82723760D01*
X126609500Y-82933713D01*
X126609500Y-83146286D01*
X126642753Y-83356239D01*
X126708444Y-83558414D01*
X126804951Y-83747820D01*
X126929890Y-83919786D01*
X127080213Y-84070109D01*
X127252182Y-84195050D01*
X127260946Y-84199516D01*
X127311742Y-84247491D01*
X127328536Y-84315312D01*
X127305998Y-84381447D01*
X127260946Y-84420484D01*
X127252182Y-84424949D01*
X127080213Y-84549890D01*
X126929890Y-84700213D01*
X126804951Y-84872179D01*
X126708444Y-85061585D01*
X126642753Y-85263760D01*
X126609500Y-85473713D01*
X126609500Y-85686287D01*
X126642754Y-85896243D01*
X126701489Y-86077011D01*
X126708444Y-86098414D01*
X126804951Y-86287820D01*
X126929890Y-86459786D01*
X127080213Y-86610109D01*
X127252182Y-86735050D01*
X127260946Y-86739516D01*
X127311742Y-86787491D01*
X127328536Y-86855312D01*
X127305998Y-86921447D01*
X127260946Y-86960484D01*
X127252182Y-86964949D01*
X127080213Y-87089890D01*
X126929890Y-87240213D01*
X126804951Y-87412179D01*
X126708444Y-87601585D01*
X126642753Y-87803760D01*
X126609500Y-88013713D01*
X126609500Y-88226286D01*
X126636676Y-88397873D01*
X126642754Y-88436243D01*
X126693470Y-88592331D01*
X126708444Y-88638414D01*
X126804951Y-88827820D01*
X126929890Y-88999786D01*
X127080213Y-89150109D01*
X127252179Y-89275048D01*
X127252181Y-89275049D01*
X127252184Y-89275051D01*
X127441588Y-89371557D01*
X127643757Y-89437246D01*
X127853713Y-89470500D01*
X127853714Y-89470500D01*
X128066286Y-89470500D01*
X128066287Y-89470500D01*
X128276243Y-89437246D01*
X128478412Y-89371557D01*
X128667816Y-89275051D01*
X128700231Y-89251500D01*
X128839786Y-89150109D01*
X128839788Y-89150106D01*
X128839792Y-89150104D01*
X128990104Y-88999792D01*
X128990106Y-88999788D01*
X128990109Y-88999786D01*
X129115048Y-88827820D01*
X129115047Y-88827820D01*
X129115051Y-88827816D01*
X129119514Y-88819054D01*
X129167488Y-88768259D01*
X129235308Y-88751463D01*
X129301444Y-88773999D01*
X129340486Y-88819056D01*
X129344951Y-88827820D01*
X129469890Y-88999786D01*
X129620213Y-89150109D01*
X129792179Y-89275048D01*
X129792181Y-89275049D01*
X129792184Y-89275051D01*
X129981588Y-89371557D01*
X130183757Y-89437246D01*
X130393713Y-89470500D01*
X130393714Y-89470500D01*
X130606286Y-89470500D01*
X130606287Y-89470500D01*
X130816243Y-89437246D01*
X131018412Y-89371557D01*
X131207816Y-89275051D01*
X131240231Y-89251500D01*
X131379786Y-89150109D01*
X131379788Y-89150106D01*
X131379792Y-89150104D01*
X131530104Y-88999792D01*
X131530106Y-88999788D01*
X131530109Y-88999786D01*
X131655048Y-88827820D01*
X131655047Y-88827820D01*
X131655051Y-88827816D01*
X131751557Y-88638412D01*
X131817246Y-88436243D01*
X131850500Y-88226287D01*
X131850500Y-88013713D01*
X131817246Y-87803757D01*
X131751557Y-87601588D01*
X131655051Y-87412184D01*
X131655049Y-87412181D01*
X131655048Y-87412179D01*
X131530109Y-87240213D01*
X131379786Y-87089890D01*
X131207820Y-86964951D01*
X131207115Y-86964591D01*
X131199054Y-86960485D01*
X131148259Y-86912512D01*
X131131463Y-86844692D01*
X131153999Y-86778556D01*
X131199054Y-86739515D01*
X131207816Y-86735051D01*
X131229789Y-86719086D01*
X131379786Y-86610109D01*
X131379788Y-86610106D01*
X131379792Y-86610104D01*
X131530104Y-86459792D01*
X131530106Y-86459788D01*
X131530109Y-86459786D01*
X131651683Y-86292452D01*
X131655051Y-86287816D01*
X131751557Y-86098412D01*
X131817246Y-85896243D01*
X131850500Y-85686287D01*
X131850500Y-85473713D01*
X131817246Y-85263757D01*
X131751557Y-85061588D01*
X131655051Y-84872184D01*
X131655049Y-84872181D01*
X131655048Y-84872179D01*
X131530109Y-84700213D01*
X131379786Y-84549890D01*
X131207820Y-84424951D01*
X131207115Y-84424591D01*
X131199054Y-84420485D01*
X131148259Y-84372512D01*
X131131463Y-84304692D01*
X131153999Y-84238556D01*
X131199054Y-84199515D01*
X131207816Y-84195051D01*
X131295338Y-84131463D01*
X131379786Y-84070109D01*
X131379788Y-84070106D01*
X131379792Y-84070104D01*
X131530104Y-83919792D01*
X131530106Y-83919788D01*
X131530109Y-83919786D01*
X131655048Y-83747820D01*
X131655047Y-83747820D01*
X131655051Y-83747816D01*
X131751557Y-83558412D01*
X131817246Y-83356243D01*
X131850500Y-83146287D01*
X131850500Y-82999097D01*
X131870185Y-82932058D01*
X131922989Y-82886303D01*
X131992147Y-82876359D01*
X132055703Y-82905384D01*
X132062181Y-82911416D01*
X133613181Y-84462416D01*
X133646666Y-84523739D01*
X133649500Y-84550097D01*
X133649500Y-95639902D01*
X133629815Y-95706941D01*
X133613181Y-95727583D01*
X133037582Y-96303181D01*
X132976259Y-96336666D01*
X132949901Y-96339500D01*
X131602129Y-96339500D01*
X131602123Y-96339501D01*
X131542516Y-96345908D01*
X131407671Y-96396202D01*
X131407664Y-96396206D01*
X131292455Y-96482452D01*
X131292452Y-96482455D01*
X131206206Y-96597664D01*
X131206202Y-96597671D01*
X131155908Y-96732517D01*
X131149501Y-96792116D01*
X131149500Y-96792135D01*
X131149500Y-96965500D01*
X131129815Y-97032539D01*
X131077011Y-97078294D01*
X131025500Y-97089500D01*
X123825097Y-97089500D01*
X123758058Y-97069815D01*
X123737416Y-97053181D01*
X122333757Y-95649522D01*
X122300272Y-95588199D01*
X122303507Y-95523523D01*
X122317246Y-95481243D01*
X122350500Y-95271287D01*
X122350500Y-95058713D01*
X122317246Y-94848757D01*
X122251557Y-94646588D01*
X122155051Y-94457184D01*
X122155049Y-94457181D01*
X122155048Y-94457179D01*
X122030109Y-94285213D01*
X121879786Y-94134890D01*
X121707820Y-94009951D01*
X121518414Y-93913444D01*
X121518413Y-93913443D01*
X121518412Y-93913443D01*
X121316243Y-93847754D01*
X121316241Y-93847753D01*
X121316240Y-93847753D01*
X121154957Y-93822208D01*
X121106287Y-93814500D01*
X120893713Y-93814500D01*
X120845042Y-93822208D01*
X120683760Y-93847753D01*
X120481585Y-93913444D01*
X120292179Y-94009951D01*
X120120213Y-94134890D01*
X119969890Y-94285213D01*
X119844951Y-94457179D01*
X119748444Y-94646585D01*
X119682753Y-94848760D01*
X119675226Y-94896286D01*
X119649500Y-95058713D01*
X112710500Y-95058713D01*
X112710500Y-68704500D01*
X112730185Y-68637461D01*
X112782989Y-68591706D01*
X112834500Y-68580500D01*
X146310902Y-68580500D01*
X146377941Y-68600185D01*
G37*
%TD.AperFunction*%
%TD*%
M02*
