%TF.GenerationSoftware,KiCad,Pcbnew,9.0.3-9.0.3-0~ubuntu24.04.1*%
%TF.CreationDate,2026-04-16T14:24:12+03:00*%
%TF.ProjectId,switchboard,73776974-6368-4626-9f61-72642e6b6963,rev?*%
%TF.SameCoordinates,Original*%
%TF.FileFunction,Soldermask,Top*%
%TF.FilePolarity,Negative*%
%FSLAX46Y46*%
G04 Gerber Fmt 4.6, Leading zero omitted, Abs format (unit mm)*
G04 Created by KiCad (PCBNEW 9.0.3-9.0.3-0~ubuntu24.04.1) date 2026-04-16 14:24:12*
%MOMM*%
%LPD*%
G01*
G04 APERTURE LIST*
G04 Aperture macros list*
%AMRoundRect*
0 Rectangle with rounded corners*
0 $1 Rounding radius*
0 $2 $3 $4 $5 $6 $7 $8 $9 X,Y pos of 4 corners*
0 Add a 4 corners polygon primitive as box body*
4,1,4,$2,$3,$4,$5,$6,$7,$8,$9,$2,$3,0*
0 Add four circle primitives for the rounded corners*
1,1,$1+$1,$2,$3*
1,1,$1+$1,$4,$5*
1,1,$1+$1,$6,$7*
1,1,$1+$1,$8,$9*
0 Add four rect primitives between the rounded corners*
20,1,$1+$1,$2,$3,$4,$5,0*
20,1,$1+$1,$4,$5,$6,$7,0*
20,1,$1+$1,$6,$7,$8,$9,0*
20,1,$1+$1,$8,$9,$2,$3,0*%
G04 Aperture macros list end*
%ADD10R,1.700000X1.700000*%
%ADD11C,1.700000*%
%ADD12RoundRect,0.250000X-0.600000X-0.600000X0.600000X-0.600000X0.600000X0.600000X-0.600000X0.600000X0*%
%ADD13RoundRect,0.250000X0.600000X0.600000X-0.600000X0.600000X-0.600000X-0.600000X0.600000X-0.600000X0*%
%ADD14RoundRect,0.250000X0.600000X-0.600000X0.600000X0.600000X-0.600000X0.600000X-0.600000X-0.600000X0*%
%ADD15RoundRect,0.250000X-0.600000X0.600000X-0.600000X-0.600000X0.600000X-0.600000X0.600000X0.600000X0*%
G04 APERTURE END LIST*
D10*
%TO.C,J12*%
X146940000Y-119750000D03*
D11*
X149480000Y-119750000D03*
X152020000Y-119750000D03*
X154560000Y-119750000D03*
%TD*%
D10*
%TO.C,J7*%
X147115000Y-87500000D03*
D11*
X149655000Y-87500000D03*
X152195000Y-87500000D03*
X154735000Y-87500000D03*
%TD*%
D10*
%TO.C,J1*%
X121000000Y-92625000D03*
D11*
X121000000Y-95165000D03*
X121000000Y-97705000D03*
X121000000Y-100245000D03*
X121000000Y-102785000D03*
X121000000Y-105325000D03*
X121000000Y-107865000D03*
X121000000Y-110405000D03*
%TD*%
D10*
%TO.C,J13*%
X146940000Y-115750000D03*
D11*
X149480000Y-115750000D03*
X152020000Y-115750000D03*
X154560000Y-115750000D03*
%TD*%
D10*
%TO.C,J11*%
X169000000Y-97345000D03*
D11*
X169000000Y-99885000D03*
X169000000Y-102425000D03*
X169000000Y-104965000D03*
%TD*%
D12*
%TO.C,J2*%
X127960000Y-80500000D03*
D11*
X130500000Y-80500000D03*
X127960000Y-83040000D03*
X130500000Y-83040000D03*
X127960000Y-85580000D03*
X130500000Y-85580000D03*
X127960000Y-88120000D03*
X130500000Y-88120000D03*
%TD*%
D10*
%TO.C,J3*%
X142670000Y-70830000D03*
D11*
X145210000Y-70830000D03*
X147750000Y-70830000D03*
X150290000Y-70830000D03*
X152830000Y-70830000D03*
X155370000Y-70830000D03*
X157910000Y-70830000D03*
X160450000Y-70830000D03*
%TD*%
D13*
%TO.C,J16*%
X174500000Y-121870000D03*
D11*
X171960000Y-121870000D03*
X174500000Y-119330000D03*
X171960000Y-119330000D03*
X174500000Y-116790000D03*
X171960000Y-116790000D03*
X174500000Y-114250000D03*
X171960000Y-114250000D03*
%TD*%
D10*
%TO.C,J17*%
X142125000Y-131250000D03*
D11*
X144665000Y-131250000D03*
X147205000Y-131250000D03*
X149745000Y-131250000D03*
X152285000Y-131250000D03*
X154825000Y-131250000D03*
X157365000Y-131250000D03*
X159905000Y-131250000D03*
%TD*%
D10*
%TO.C,J14*%
X139750000Y-82670000D03*
D11*
X139750000Y-85210000D03*
X139750000Y-87750000D03*
X139750000Y-90290000D03*
%TD*%
D10*
%TO.C,J10*%
X165000000Y-97345000D03*
D11*
X165000000Y-99885000D03*
X165000000Y-102425000D03*
X165000000Y-104965000D03*
%TD*%
D14*
%TO.C,J18*%
X129880000Y-124290000D03*
D11*
X129880000Y-121750000D03*
X132420000Y-124290000D03*
X132420000Y-121750000D03*
X134960000Y-124290000D03*
X134960000Y-121750000D03*
X137500000Y-124290000D03*
X137500000Y-121750000D03*
%TD*%
D10*
%TO.C,J5*%
X162000000Y-120060000D03*
D11*
X162000000Y-117520000D03*
X162000000Y-114980000D03*
X162000000Y-112440000D03*
%TD*%
D10*
%TO.C,J15*%
X181460000Y-92250000D03*
D11*
X181460000Y-94790000D03*
X181460000Y-97330000D03*
X181460000Y-99870000D03*
X181460000Y-102410000D03*
X181460000Y-104950000D03*
X181460000Y-107490000D03*
X181460000Y-110030000D03*
%TD*%
D10*
%TO.C,J8*%
X147115000Y-83500000D03*
D11*
X149655000Y-83500000D03*
X152195000Y-83500000D03*
X154735000Y-83500000D03*
%TD*%
D10*
%TO.C,J6*%
X132500000Y-97690000D03*
D11*
X132500000Y-100230000D03*
X132500000Y-102770000D03*
X132500000Y-105310000D03*
%TD*%
D15*
%TO.C,J4*%
X173000000Y-77580000D03*
D11*
X173000000Y-80120000D03*
X170460000Y-77580000D03*
X170460000Y-80120000D03*
X167920000Y-77580000D03*
X167920000Y-80120000D03*
X165380000Y-77580000D03*
X165380000Y-80120000D03*
%TD*%
D10*
%TO.C,J9*%
X136500000Y-97690000D03*
D11*
X136500000Y-100230000D03*
X136500000Y-102770000D03*
X136500000Y-105310000D03*
%TD*%
M02*
