M48
; DRILL file {KiCad 9.0.3-9.0.3-0~ubuntu24.04.1} date 2026-04-21T10:36:48+0300
; FORMAT={-:-/ absolute / metric / decimal}
; #@! TF.CreationDate,2026-04-21T10:36:48+03:00
; #@! TF.GenerationSoftware,Kicad,Pcbnew,9.0.3-9.0.3-0~ubuntu24.04.1
; #@! TF.FileFunction,Plated,1,2,PTH
FMAT,2
METRIC
; #@! TA.AperFunction,Plated,PTH,ComponentDrill
T1C1.000
%
G90
G05
T1
X128.0Y-92.625
X128.0Y-95.165
X128.0Y-97.705
X128.0Y-100.245
X128.0Y-102.785
X128.0Y-105.325
X128.0Y-107.865
X128.0Y-110.405
X131.17Y-116.0
X131.17Y-118.54
X132.5Y-97.69
X132.5Y-100.23
X132.5Y-102.77
X132.5Y-105.31
X133.46Y-81.25
X133.46Y-83.79
X133.46Y-86.33
X133.46Y-88.87
X133.71Y-116.0
X133.71Y-118.54
X136.0Y-81.25
X136.0Y-83.79
X136.0Y-86.33
X136.0Y-88.87
X136.25Y-116.0
X136.25Y-118.54
X136.5Y-97.69
X136.5Y-100.23
X136.5Y-102.77
X136.5Y-105.31
X138.79Y-116.0
X138.79Y-118.54
X142.125Y-124.0
X142.25Y-83.71
X142.25Y-86.25
X142.25Y-88.79
X142.25Y-91.33
X142.67Y-78.75
X144.665Y-124.0
X145.21Y-78.75
X146.94Y-115.75
X146.94Y-119.75
X147.115Y-83.5
X147.115Y-87.5
X147.205Y-124.0
X147.75Y-78.75
X149.48Y-115.75
X149.48Y-119.75
X149.655Y-83.5
X149.655Y-87.5
X149.745Y-124.0
X150.29Y-78.75
X152.02Y-115.75
X152.02Y-119.75
X152.195Y-83.5
X152.195Y-87.5
X152.285Y-124.0
X152.83Y-78.75
X154.56Y-115.75
X154.56Y-119.75
X154.735Y-83.5
X154.735Y-87.5
X154.825Y-124.0
X155.37Y-78.75
X157.365Y-124.0
X157.91Y-78.75
X159.5Y-112.13
X159.5Y-114.67
X159.5Y-117.21
X159.5Y-119.75
X159.905Y-124.0
X160.45Y-78.75
X162.75Y-84.21
X162.75Y-86.75
X165.0Y-97.345
X165.0Y-99.885
X165.0Y-102.425
X165.0Y-104.965
X165.29Y-84.21
X165.29Y-86.75
X165.75Y-113.13
X165.75Y-115.67
X165.75Y-118.21
X165.75Y-120.75
X167.83Y-84.21
X167.83Y-86.75
X168.29Y-113.13
X168.29Y-115.67
X168.29Y-118.21
X168.29Y-120.75
X169.0Y-97.345
X169.0Y-99.885
X169.0Y-102.425
X169.0Y-104.965
X170.37Y-84.21
X170.37Y-86.75
X173.75Y-92.22
X173.75Y-94.76
X173.75Y-97.3
X173.75Y-99.84
X173.75Y-102.38
X173.75Y-104.92
X173.75Y-107.46
X173.75Y-110.0
M30
