M48
; DRILL file {KiCad 9.0.3-9.0.3-0~ubuntu24.04.1} date 2026-04-16T14:24:13+0300
; FORMAT={-:-/ absolute / metric / decimal}
; #@! TF.CreationDate,2026-04-16T14:24:13+03:00
; #@! TF.GenerationSoftware,Kicad,Pcbnew,9.0.3-9.0.3-0~ubuntu24.04.1
; #@! TF.FileFunction,Plated,1,2,PTH
FMAT,2
METRIC
; #@! TA.AperFunction,Plated,PTH,ComponentDrill
T1C1.000
%
G90
G05
T1
X121.0Y-92.625
X121.0Y-95.165
X121.0Y-97.705
X121.0Y-100.245
X121.0Y-102.785
X121.0Y-105.325
X121.0Y-107.865
X121.0Y-110.405
X127.96Y-80.5
X127.96Y-83.04
X127.96Y-85.58
X127.96Y-88.12
X129.88Y-121.75
X129.88Y-124.29
X130.5Y-80.5
X130.5Y-83.04
X130.5Y-85.58
X130.5Y-88.12
X132.42Y-121.75
X132.42Y-124.29
X132.5Y-97.69
X132.5Y-100.23
X132.5Y-102.77
X132.5Y-105.31
X134.96Y-121.75
X134.96Y-124.29
X136.5Y-97.69
X136.5Y-100.23
X136.5Y-102.77
X136.5Y-105.31
X137.5Y-121.75
X137.5Y-124.29
X139.75Y-82.67
X139.75Y-85.21
X139.75Y-87.75
X139.75Y-90.29
X142.125Y-131.25
X142.67Y-70.83
X144.665Y-131.25
X145.21Y-70.83
X146.94Y-115.75
X146.94Y-119.75
X147.115Y-83.5
X147.115Y-87.5
X147.205Y-131.25
X147.75Y-70.83
X149.48Y-115.75
X149.48Y-119.75
X149.655Y-83.5
X149.655Y-87.5
X149.745Y-131.25
X150.29Y-70.83
X152.02Y-115.75
X152.02Y-119.75
X152.195Y-83.5
X152.195Y-87.5
X152.285Y-131.25
X152.83Y-70.83
X154.56Y-115.75
X154.56Y-119.75
X154.735Y-83.5
X154.735Y-87.5
X154.825Y-131.25
X155.37Y-70.83
X157.365Y-131.25
X157.91Y-70.83
X159.905Y-131.25
X160.45Y-70.83
X162.0Y-112.44
X162.0Y-114.98
X162.0Y-117.52
X162.0Y-120.06
X165.0Y-97.345
X165.0Y-99.885
X165.0Y-102.425
X165.0Y-104.965
X165.38Y-77.58
X165.38Y-80.12
X167.92Y-77.58
X167.92Y-80.12
X169.0Y-97.345
X169.0Y-99.885
X169.0Y-102.425
X169.0Y-104.965
X170.46Y-77.58
X170.46Y-80.12
X171.96Y-114.25
X171.96Y-116.79
X171.96Y-119.33
X171.96Y-121.87
X173.0Y-77.58
X173.0Y-80.12
X174.5Y-114.25
X174.5Y-116.79
X174.5Y-119.33
X174.5Y-121.87
X181.46Y-92.25
X181.46Y-94.79
X181.46Y-97.33
X181.46Y-99.87
X181.46Y-102.41
X181.46Y-104.95
X181.46Y-107.49
X181.46Y-110.03
M30
