%TF.GenerationSoftware,KiCad,Pcbnew,9.0.3-9.0.3-0~ubuntu24.04.1*%
%TF.CreationDate,2026-04-21T10:36:39+03:00*%
%TF.ProjectId,bus,6275732e-6b69-4636-9164-5f7063625858,rev?*%
%TF.SameCoordinates,Original*%
%TF.FileFunction,Legend,Top*%
%TF.FilePolarity,Positive*%
%FSLAX46Y46*%
G04 Gerber Fmt 4.6, Leading zero omitted, Abs format (unit mm)*
G04 Created by KiCad (PCBNEW 9.0.3-9.0.3-0~ubuntu24.04.1) date 2026-04-21 10:36:39*
%MOMM*%
%LPD*%
G01*
G04 APERTURE LIST*
%ADD10C,0.375000*%
%ADD11C,0.120000*%
G04 APERTURE END LIST*
D10*
X124710995Y-76541928D02*
X125139567Y-76684785D01*
X125139567Y-76684785D02*
X125282424Y-76827642D01*
X125282424Y-76827642D02*
X125425281Y-77113357D01*
X125425281Y-77113357D02*
X125425281Y-77541928D01*
X125425281Y-77541928D02*
X125282424Y-77827642D01*
X125282424Y-77827642D02*
X125139567Y-77970500D01*
X125139567Y-77970500D02*
X124853852Y-78113357D01*
X124853852Y-78113357D02*
X123710995Y-78113357D01*
X123710995Y-78113357D02*
X123710995Y-75113357D01*
X123710995Y-75113357D02*
X124710995Y-75113357D01*
X124710995Y-75113357D02*
X124996710Y-75256214D01*
X124996710Y-75256214D02*
X125139567Y-75399071D01*
X125139567Y-75399071D02*
X125282424Y-75684785D01*
X125282424Y-75684785D02*
X125282424Y-75970500D01*
X125282424Y-75970500D02*
X125139567Y-76256214D01*
X125139567Y-76256214D02*
X124996710Y-76399071D01*
X124996710Y-76399071D02*
X124710995Y-76541928D01*
X124710995Y-76541928D02*
X123710995Y-76541928D01*
X127996710Y-76113357D02*
X127996710Y-78113357D01*
X126710995Y-76113357D02*
X126710995Y-77684785D01*
X126710995Y-77684785D02*
X126853852Y-77970500D01*
X126853852Y-77970500D02*
X127139567Y-78113357D01*
X127139567Y-78113357D02*
X127568138Y-78113357D01*
X127568138Y-78113357D02*
X127853852Y-77970500D01*
X127853852Y-77970500D02*
X127996710Y-77827642D01*
X129282424Y-77970500D02*
X129568138Y-78113357D01*
X129568138Y-78113357D02*
X130139567Y-78113357D01*
X130139567Y-78113357D02*
X130425281Y-77970500D01*
X130425281Y-77970500D02*
X130568138Y-77684785D01*
X130568138Y-77684785D02*
X130568138Y-77541928D01*
X130568138Y-77541928D02*
X130425281Y-77256214D01*
X130425281Y-77256214D02*
X130139567Y-77113357D01*
X130139567Y-77113357D02*
X129710996Y-77113357D01*
X129710996Y-77113357D02*
X129425281Y-76970500D01*
X129425281Y-76970500D02*
X129282424Y-76684785D01*
X129282424Y-76684785D02*
X129282424Y-76541928D01*
X129282424Y-76541928D02*
X129425281Y-76256214D01*
X129425281Y-76256214D02*
X129710996Y-76113357D01*
X129710996Y-76113357D02*
X130139567Y-76113357D01*
X130139567Y-76113357D02*
X130425281Y-76256214D01*
D11*
%TO.C,J4*%
X146785000Y-84000000D02*
X146785000Y-85000000D01*
X146785000Y-85000000D02*
X147785000Y-84500000D01*
X147785000Y-84500000D02*
X146785000Y-84000000D01*
X148175000Y-79290000D02*
X157295000Y-79290000D01*
X148175000Y-86260000D02*
X149485000Y-86260000D01*
X148175000Y-97330000D02*
X148175000Y-79290000D01*
X149485000Y-80590000D02*
X155985000Y-80590000D01*
X149485000Y-86260000D02*
X149485000Y-80590000D01*
X149485000Y-90360000D02*
X148175000Y-90360000D01*
X149485000Y-96030000D02*
X149485000Y-90360000D01*
X155985000Y-80590000D02*
X155985000Y-96030000D01*
X155985000Y-96030000D02*
X149485000Y-96030000D01*
X157295000Y-79290000D02*
X157295000Y-97330000D01*
X157295000Y-97330000D02*
X148175000Y-97330000D01*
%TO.C,J1*%
X95800000Y-84000000D02*
X95800000Y-85000000D01*
X95800000Y-85000000D02*
X96800000Y-84500000D01*
X96800000Y-84500000D02*
X95800000Y-84000000D01*
X97190000Y-79290000D02*
X106310000Y-79290000D01*
X97190000Y-86260000D02*
X98500000Y-86260000D01*
X97190000Y-97330000D02*
X97190000Y-79290000D01*
X98500000Y-80590000D02*
X105000000Y-80590000D01*
X98500000Y-86260000D02*
X98500000Y-80590000D01*
X98500000Y-90360000D02*
X97190000Y-90360000D01*
X98500000Y-96030000D02*
X98500000Y-90360000D01*
X105000000Y-80590000D02*
X105000000Y-96030000D01*
X105000000Y-96030000D02*
X98500000Y-96030000D01*
X106310000Y-79290000D02*
X106310000Y-97330000D01*
X106310000Y-97330000D02*
X97190000Y-97330000D01*
%TO.C,J6*%
X80810000Y-78295000D02*
X80810000Y-98735000D01*
X80810000Y-78295000D02*
X89440000Y-78295000D01*
X80810000Y-78415000D02*
X89440000Y-78415000D01*
X80810000Y-78533095D02*
X89440000Y-78533095D01*
X80810000Y-78651190D02*
X89440000Y-78651190D01*
X80810000Y-78769285D02*
X89440000Y-78769285D01*
X80810000Y-78887380D02*
X89440000Y-78887380D01*
X80810000Y-79005475D02*
X89440000Y-79005475D01*
X80810000Y-79123570D02*
X89440000Y-79123570D01*
X80810000Y-79241665D02*
X89440000Y-79241665D01*
X80810000Y-79359760D02*
X89440000Y-79359760D01*
X80810000Y-79477855D02*
X89440000Y-79477855D01*
X80810000Y-79595950D02*
X89440000Y-79595950D01*
X80810000Y-79714045D02*
X89440000Y-79714045D01*
X80810000Y-79832140D02*
X89440000Y-79832140D01*
X80810000Y-79950235D02*
X89440000Y-79950235D01*
X80810000Y-80068330D02*
X89440000Y-80068330D01*
X80810000Y-80186425D02*
X89440000Y-80186425D01*
X80810000Y-80304520D02*
X89440000Y-80304520D01*
X80810000Y-80422615D02*
X89440000Y-80422615D01*
X80810000Y-80540710D02*
X89440000Y-80540710D01*
X80810000Y-80658805D02*
X89440000Y-80658805D01*
X80810000Y-80776900D02*
X89440000Y-80776900D01*
X80810000Y-80895000D02*
X89440000Y-80895000D01*
X80810000Y-83435000D02*
X89440000Y-83435000D01*
X80810000Y-85975000D02*
X89440000Y-85975000D01*
X80810000Y-88515000D02*
X89440000Y-88515000D01*
X80810000Y-91055000D02*
X89440000Y-91055000D01*
X80810000Y-93595000D02*
X89440000Y-93595000D01*
X80810000Y-96135000D02*
X89440000Y-96135000D01*
X80810000Y-98735000D02*
X89440000Y-98735000D01*
X89440000Y-78295000D02*
X89440000Y-98735000D01*
X89440000Y-79265000D02*
X89790000Y-79265000D01*
X89440000Y-79985000D02*
X89790000Y-79985000D01*
X89440000Y-81805000D02*
X89850000Y-81805000D01*
X89440000Y-82525000D02*
X89850000Y-82525000D01*
X89440000Y-84345000D02*
X89850000Y-84345000D01*
X89440000Y-85065000D02*
X89850000Y-85065000D01*
X89440000Y-86885000D02*
X89850000Y-86885000D01*
X89440000Y-87605000D02*
X89850000Y-87605000D01*
X89440000Y-89425000D02*
X89850000Y-89425000D01*
X89440000Y-90145000D02*
X89850000Y-90145000D01*
X89440000Y-91965000D02*
X89850000Y-91965000D01*
X89440000Y-92685000D02*
X89850000Y-92685000D01*
X89440000Y-94505000D02*
X89850000Y-94505000D01*
X89440000Y-95225000D02*
X89850000Y-95225000D01*
X89440000Y-97045000D02*
X89850000Y-97045000D01*
X89440000Y-97765000D02*
X89850000Y-97765000D01*
X90900000Y-78295000D02*
X92010000Y-78295000D01*
X92010000Y-78295000D02*
X92010000Y-79625000D01*
%TO.C,J5*%
X162345000Y-78340000D02*
X163615000Y-78340000D01*
X162345000Y-79610000D02*
X162345000Y-78340000D01*
X164692358Y-81720000D02*
X165005000Y-81720000D01*
X164692358Y-82580000D02*
X165005000Y-82580000D01*
X164692358Y-84260000D02*
X165005000Y-84260000D01*
X164692358Y-85120000D02*
X165005000Y-85120000D01*
X164692358Y-86800000D02*
X165005000Y-86800000D01*
X164692358Y-87660000D02*
X165005000Y-87660000D01*
X164692358Y-89340000D02*
X165005000Y-89340000D01*
X164692358Y-90200000D02*
X165005000Y-90200000D01*
X164692358Y-91880000D02*
X165005000Y-91880000D01*
X164692358Y-92740000D02*
X165005000Y-92740000D01*
X164692358Y-94420000D02*
X165005000Y-94420000D01*
X164692358Y-95280000D02*
X165005000Y-95280000D01*
X164692358Y-96960000D02*
X165005000Y-96960000D01*
X164692358Y-97820000D02*
X165005000Y-97820000D01*
X164775000Y-79180000D02*
X165005000Y-79180000D01*
X164775000Y-80040000D02*
X165005000Y-80040000D01*
X165005000Y-78230000D02*
X165005000Y-98770000D01*
X165005000Y-80880000D02*
X167765000Y-80880000D01*
X165005000Y-83420000D02*
X167765000Y-83420000D01*
X165005000Y-85960000D02*
X167765000Y-85960000D01*
X165005000Y-88500000D02*
X167765000Y-88500000D01*
X165005000Y-91040000D02*
X167765000Y-91040000D01*
X165005000Y-93580000D02*
X167765000Y-93580000D01*
X165005000Y-96120000D02*
X167765000Y-96120000D01*
X165005000Y-98770000D02*
X167765000Y-98770000D01*
X167765000Y-78230000D02*
X165005000Y-78230000D01*
X167765000Y-81720000D02*
X173765000Y-81720000D01*
X167765000Y-84260000D02*
X173765000Y-84260000D01*
X167765000Y-86800000D02*
X173765000Y-86800000D01*
X167765000Y-89340000D02*
X173765000Y-89340000D01*
X167765000Y-91880000D02*
X173765000Y-91880000D01*
X167765000Y-94420000D02*
X173765000Y-94420000D01*
X167765000Y-96960000D02*
X173765000Y-96960000D01*
X167765000Y-98770000D02*
X167765000Y-78230000D01*
X173765000Y-81720000D02*
X173765000Y-82580000D01*
X173765000Y-82580000D02*
X167765000Y-82580000D01*
X173765000Y-84260000D02*
X173765000Y-85120000D01*
X173765000Y-85120000D02*
X167765000Y-85120000D01*
X173765000Y-86800000D02*
X173765000Y-87660000D01*
X173765000Y-87660000D02*
X167765000Y-87660000D01*
X173765000Y-89340000D02*
X173765000Y-90200000D01*
X173765000Y-90200000D02*
X167765000Y-90200000D01*
X173765000Y-91880000D02*
X173765000Y-92740000D01*
X173765000Y-92740000D02*
X167765000Y-92740000D01*
X173765000Y-94420000D02*
X173765000Y-95280000D01*
X173765000Y-95280000D02*
X167765000Y-95280000D01*
X173765000Y-96960000D02*
X173765000Y-97820000D01*
X173765000Y-97820000D02*
X167765000Y-97820000D01*
X167765000Y-79180000D02*
X173765000Y-79180000D01*
X173765000Y-80040000D01*
X167765000Y-80040000D01*
X167765000Y-79180000D01*
G36*
X167765000Y-79180000D02*
G01*
X173765000Y-79180000D01*
X173765000Y-80040000D01*
X167765000Y-80040000D01*
X167765000Y-79180000D01*
G37*
%TO.C,J3*%
X129790000Y-84000000D02*
X129790000Y-85000000D01*
X129790000Y-85000000D02*
X130790000Y-84500000D01*
X130790000Y-84500000D02*
X129790000Y-84000000D01*
X131180000Y-79290000D02*
X140300000Y-79290000D01*
X131180000Y-86260000D02*
X132490000Y-86260000D01*
X131180000Y-97330000D02*
X131180000Y-79290000D01*
X132490000Y-80590000D02*
X138990000Y-80590000D01*
X132490000Y-86260000D02*
X132490000Y-80590000D01*
X132490000Y-90360000D02*
X131180000Y-90360000D01*
X132490000Y-96030000D02*
X132490000Y-90360000D01*
X138990000Y-80590000D02*
X138990000Y-96030000D01*
X138990000Y-96030000D02*
X132490000Y-96030000D01*
X140300000Y-79290000D02*
X140300000Y-97330000D01*
X140300000Y-97330000D02*
X131180000Y-97330000D01*
%TO.C,J2*%
X112795000Y-84000000D02*
X112795000Y-85000000D01*
X112795000Y-85000000D02*
X113795000Y-84500000D01*
X113795000Y-84500000D02*
X112795000Y-84000000D01*
X114185000Y-79290000D02*
X123305000Y-79290000D01*
X114185000Y-86260000D02*
X115495000Y-86260000D01*
X114185000Y-97330000D02*
X114185000Y-79290000D01*
X115495000Y-80590000D02*
X121995000Y-80590000D01*
X115495000Y-86260000D02*
X115495000Y-80590000D01*
X115495000Y-90360000D02*
X114185000Y-90360000D01*
X115495000Y-96030000D02*
X115495000Y-90360000D01*
X121995000Y-80590000D02*
X121995000Y-96030000D01*
X121995000Y-96030000D02*
X115495000Y-96030000D01*
X123305000Y-79290000D02*
X123305000Y-97330000D01*
X123305000Y-97330000D02*
X114185000Y-97330000D01*
%TD*%
M02*
