%TF.GenerationSoftware,KiCad,Pcbnew,9.0.3-9.0.3-0~ubuntu24.04.1*%
%TF.CreationDate,2026-04-16T14:24:07+03:00*%
%TF.ProjectId,bus,6275732e-6b69-4636-9164-5f7063625858,rev?*%
%TF.SameCoordinates,Original*%
%TF.FileFunction,Copper,L1,Top*%
%TF.FilePolarity,Positive*%
%FSLAX46Y46*%
G04 Gerber Fmt 4.6, Leading zero omitted, Abs format (unit mm)*
G04 Created by KiCad (PCBNEW 9.0.3-9.0.3-0~ubuntu24.04.1) date 2026-04-16 14:24:07*
%MOMM*%
%LPD*%
G01*
G04 APERTURE LIST*
G04 Aperture macros list*
%AMRoundRect*
0 Rectangle with rounded corners*
0 $1 Rounding radius*
0 $2 $3 $4 $5 $6 $7 $8 $9 X,Y pos of 4 corners*
0 Add a 4 corners polygon primitive as box body*
4,1,4,$2,$3,$4,$5,$6,$7,$8,$9,$2,$3,0*
0 Add four circle primitives for the rounded corners*
1,1,$1+$1,$2,$3*
1,1,$1+$1,$4,$5*
1,1,$1+$1,$6,$7*
1,1,$1+$1,$8,$9*
0 Add four rect primitives between the rounded corners*
20,1,$1+$1,$2,$3,$4,$5,0*
20,1,$1+$1,$4,$5,$6,$7,0*
20,1,$1+$1,$6,$7,$8,$9,0*
20,1,$1+$1,$8,$9,$2,$3,0*%
G04 Aperture macros list end*
%TA.AperFunction,ComponentPad*%
%ADD10RoundRect,0.250000X-0.600000X-0.600000X0.600000X-0.600000X0.600000X0.600000X-0.600000X0.600000X0*%
%TD*%
%TA.AperFunction,ComponentPad*%
%ADD11C,1.700000*%
%TD*%
%TA.AperFunction,ComponentPad*%
%ADD12R,1.700000X1.700000*%
%TD*%
%TA.AperFunction,ViaPad*%
%ADD13C,0.700000*%
%TD*%
%TA.AperFunction,Conductor*%
%ADD14C,0.500000*%
%TD*%
G04 APERTURE END LIST*
D10*
%TO.P,J4,1,+V*%
%TO.N,+24V*%
X151465000Y-84500000D03*
D11*
%TO.P,J4,2,D0*%
%TO.N,Net-(J1-D0)*%
X154005000Y-84500000D03*
%TO.P,J4,3,D1*%
%TO.N,Net-(J1-D1)*%
X151465000Y-87040000D03*
%TO.P,J4,4,D2*%
%TO.N,Net-(J1-D2)*%
X154005000Y-87040000D03*
%TO.P,J4,5,D3*%
%TO.N,Net-(J1-D3)*%
X151465000Y-89580000D03*
%TO.P,J4,6,NC*%
%TO.N,unconnected-(J4-NC-Pad6)*%
X154005000Y-89580000D03*
%TO.P,J4,7,NC*%
%TO.N,unconnected-(J4-NC-Pad7)*%
X151465000Y-92120000D03*
%TO.P,J4,8,GND*%
%TO.N,GND*%
X154005000Y-92120000D03*
%TD*%
D10*
%TO.P,J1,1,+V*%
%TO.N,+24V*%
X100480000Y-84500000D03*
D11*
%TO.P,J1,2,D0*%
%TO.N,Net-(J1-D0)*%
X103020000Y-84500000D03*
%TO.P,J1,3,D1*%
%TO.N,Net-(J1-D1)*%
X100480000Y-87040000D03*
%TO.P,J1,4,D2*%
%TO.N,Net-(J1-D2)*%
X103020000Y-87040000D03*
%TO.P,J1,5,D3*%
%TO.N,Net-(J1-D3)*%
X100480000Y-89580000D03*
%TO.P,J1,6,NC*%
%TO.N,unconnected-(J1-NC-Pad6)*%
X103020000Y-89580000D03*
%TO.P,J1,7,NC*%
%TO.N,unconnected-(J1-NC-Pad7)*%
X100480000Y-92120000D03*
%TO.P,J1,8,GND*%
%TO.N,GND*%
X103020000Y-92120000D03*
%TD*%
D12*
%TO.P,J6,1,+V*%
%TO.N,+24V*%
X90900000Y-79625000D03*
D11*
%TO.P,J6,2,D0*%
%TO.N,Net-(J1-D0)*%
X90900000Y-82165000D03*
%TO.P,J6,3,D1*%
%TO.N,Net-(J1-D1)*%
X90900000Y-84705000D03*
%TO.P,J6,4,D2*%
%TO.N,Net-(J1-D2)*%
X90900000Y-87245000D03*
%TO.P,J6,5,D3*%
%TO.N,Net-(J1-D3)*%
X90900000Y-89785000D03*
%TO.P,J6,6,NC*%
%TO.N,unconnected-(J6-NC-Pad6)*%
X90900000Y-92325000D03*
%TO.P,J6,7,NC*%
%TO.N,unconnected-(J6-NC-Pad7)*%
X90900000Y-94865000D03*
%TO.P,J6,8,GND*%
%TO.N,GND*%
X90900000Y-97405000D03*
%TD*%
D12*
%TO.P,J5,1,+V*%
%TO.N,+24V*%
X163615000Y-79610000D03*
D11*
%TO.P,J5,2,D0*%
%TO.N,Net-(J1-D0)*%
X163615000Y-82150000D03*
%TO.P,J5,3,D1*%
%TO.N,Net-(J1-D1)*%
X163615000Y-84690000D03*
%TO.P,J5,4,D2*%
%TO.N,Net-(J1-D2)*%
X163615000Y-87230000D03*
%TO.P,J5,5,D3*%
%TO.N,Net-(J1-D3)*%
X163615000Y-89770000D03*
%TO.P,J5,6,NC*%
%TO.N,unconnected-(J5-NC-Pad6)*%
X163615000Y-92310000D03*
%TO.P,J5,7,NC*%
%TO.N,unconnected-(J5-NC-Pad7)*%
X163615000Y-94850000D03*
%TO.P,J5,8,GND*%
%TO.N,GND*%
X163615000Y-97390000D03*
%TD*%
D10*
%TO.P,J3,1,+V*%
%TO.N,+24V*%
X134470000Y-84500000D03*
D11*
%TO.P,J3,2,D0*%
%TO.N,Net-(J1-D0)*%
X137010000Y-84500000D03*
%TO.P,J3,3,D1*%
%TO.N,Net-(J1-D1)*%
X134470000Y-87040000D03*
%TO.P,J3,4,D2*%
%TO.N,Net-(J1-D2)*%
X137010000Y-87040000D03*
%TO.P,J3,5,D3*%
%TO.N,Net-(J1-D3)*%
X134470000Y-89580000D03*
%TO.P,J3,6,NC*%
%TO.N,unconnected-(J3-NC-Pad6)*%
X137010000Y-89580000D03*
%TO.P,J3,7,NC*%
%TO.N,unconnected-(J3-NC-Pad7)*%
X134470000Y-92120000D03*
%TO.P,J3,8,GND*%
%TO.N,GND*%
X137010000Y-92120000D03*
%TD*%
D10*
%TO.P,J2,1,+V*%
%TO.N,+24V*%
X117475000Y-84500000D03*
D11*
%TO.P,J2,2,D0*%
%TO.N,Net-(J1-D0)*%
X120015000Y-84500000D03*
%TO.P,J2,3,D1*%
%TO.N,Net-(J1-D1)*%
X117475000Y-87040000D03*
%TO.P,J2,4,D2*%
%TO.N,Net-(J1-D2)*%
X120015000Y-87040000D03*
%TO.P,J2,5,D3*%
%TO.N,Net-(J1-D3)*%
X117475000Y-89580000D03*
%TO.P,J2,6,NC*%
%TO.N,unconnected-(J2-NC-Pad6)*%
X120015000Y-89580000D03*
%TO.P,J2,7,NC*%
%TO.N,unconnected-(J2-NC-Pad7)*%
X117475000Y-92120000D03*
%TO.P,J2,8,GND*%
%TO.N,GND*%
X120015000Y-92120000D03*
%TD*%
D13*
%TO.N,Net-(J1-D0)*%
X154000000Y-81000000D03*
X137010000Y-81000000D03*
X120015000Y-81000000D03*
%TO.N,Net-(J1-D2)*%
X138750000Y-96000000D03*
X105000000Y-96000000D03*
X122000000Y-96000000D03*
%TO.N,Net-(J1-D1)*%
X132500000Y-79750000D03*
X149500000Y-79750000D03*
X115500000Y-79750000D03*
%TO.N,Net-(J1-D3)*%
X132750000Y-97500000D03*
X115750000Y-97500000D03*
X98615000Y-97500000D03*
X150000000Y-97500000D03*
%TD*%
D14*
%TO.N,Net-(J1-D0)*%
X89250000Y-80515000D02*
X90900000Y-82165000D01*
X97500000Y-81000000D02*
X94250000Y-77750000D01*
X89500000Y-77750000D02*
X89250000Y-78000000D01*
X137010000Y-81000000D02*
X120015000Y-81000000D01*
X89250000Y-78000000D02*
X89250000Y-80515000D01*
X120015000Y-81000000D02*
X97500000Y-81000000D01*
X154000000Y-81000000D02*
X137010000Y-81000000D01*
X94250000Y-77750000D02*
X89500000Y-77750000D01*
%TO.N,Net-(J1-D2)*%
X90900000Y-87245000D02*
X99655000Y-96000000D01*
X138750000Y-96000000D02*
X154845000Y-96000000D01*
X105000000Y-96000000D02*
X122000000Y-96000000D01*
X122000000Y-96000000D02*
X138750000Y-96000000D01*
X99655000Y-96000000D02*
X105000000Y-96000000D01*
X154845000Y-96000000D02*
X163615000Y-87230000D01*
%TO.N,Net-(J1-D1)*%
X156750000Y-77500000D02*
X164107000Y-77500000D01*
X115500000Y-79750000D02*
X132500000Y-79750000D01*
X149500000Y-79750000D02*
X154500000Y-79750000D01*
X88549000Y-77709636D02*
X88549000Y-82354000D01*
X132500000Y-79750000D02*
X149500000Y-79750000D01*
X165249000Y-78642000D02*
X165249000Y-83056000D01*
X97241364Y-79750000D02*
X94540364Y-77049000D01*
X165249000Y-83056000D02*
X163615000Y-84690000D01*
X94540364Y-77049000D02*
X89209636Y-77049000D01*
X88549000Y-82354000D02*
X90900000Y-84705000D01*
X154500000Y-79750000D02*
X156750000Y-77500000D01*
X89209636Y-77049000D02*
X88549000Y-77709636D01*
X115500000Y-79750000D02*
X97241364Y-79750000D01*
X164107000Y-77500000D02*
X165249000Y-78642000D01*
%TO.N,Net-(J1-D3)*%
X90900000Y-89785000D02*
X98615000Y-97500000D01*
X150000000Y-97500000D02*
X155885000Y-97500000D01*
X132750000Y-97500000D02*
X150000000Y-97500000D01*
X155885000Y-97500000D02*
X163615000Y-89770000D01*
X98615000Y-97500000D02*
X115750000Y-97500000D01*
X115750000Y-97500000D02*
X132750000Y-97500000D01*
%TD*%
%TA.AperFunction,Conductor*%
%TO.N,+24V*%
G36*
X163811809Y-78270185D02*
G01*
X163832451Y-78286819D01*
X164462181Y-78916549D01*
X164495666Y-78977872D01*
X164498500Y-79004230D01*
X164498500Y-80882114D01*
X164478815Y-80949153D01*
X164426011Y-80994908D01*
X164356853Y-81004852D01*
X164318205Y-80992599D01*
X164133414Y-80898444D01*
X164133413Y-80898443D01*
X164133412Y-80898443D01*
X163931243Y-80832754D01*
X163931241Y-80832753D01*
X163931240Y-80832753D01*
X163769957Y-80807208D01*
X163721287Y-80799500D01*
X163508713Y-80799500D01*
X163460042Y-80807208D01*
X163298760Y-80832753D01*
X163096585Y-80898444D01*
X162907179Y-80994951D01*
X162735213Y-81119890D01*
X162584890Y-81270213D01*
X162459951Y-81442179D01*
X162363444Y-81631585D01*
X162297753Y-81833760D01*
X162264592Y-82043132D01*
X162264500Y-82043713D01*
X162264500Y-82256287D01*
X162297754Y-82466243D01*
X162332413Y-82572913D01*
X162363444Y-82668414D01*
X162459951Y-82857820D01*
X162584890Y-83029786D01*
X162735213Y-83180109D01*
X162907182Y-83305050D01*
X162915946Y-83309516D01*
X162966742Y-83357491D01*
X162983536Y-83425312D01*
X162960998Y-83491447D01*
X162915946Y-83530484D01*
X162907182Y-83534949D01*
X162735213Y-83659890D01*
X162584890Y-83810213D01*
X162459951Y-83982179D01*
X162363444Y-84171585D01*
X162297753Y-84373760D01*
X162284488Y-84457514D01*
X162264500Y-84583713D01*
X162264500Y-84796287D01*
X162297754Y-85006243D01*
X162363249Y-85207816D01*
X162363444Y-85208414D01*
X162459951Y-85397820D01*
X162584890Y-85569786D01*
X162735213Y-85720109D01*
X162907182Y-85845050D01*
X162915946Y-85849516D01*
X162966742Y-85897491D01*
X162983536Y-85965312D01*
X162960998Y-86031447D01*
X162915946Y-86070484D01*
X162907182Y-86074949D01*
X162735213Y-86199890D01*
X162584890Y-86350213D01*
X162459951Y-86522179D01*
X162363444Y-86711585D01*
X162297753Y-86913760D01*
X162264500Y-87123713D01*
X162264500Y-87336291D01*
X162279616Y-87431726D01*
X162270662Y-87501020D01*
X162244824Y-87538806D01*
X154570451Y-95213181D01*
X154509128Y-95246666D01*
X154482770Y-95249500D01*
X139185261Y-95249500D01*
X139137808Y-95240061D01*
X138998082Y-95182184D01*
X138998074Y-95182182D01*
X138833771Y-95149500D01*
X138833767Y-95149500D01*
X138666233Y-95149500D01*
X138666228Y-95149500D01*
X138501925Y-95182182D01*
X138501917Y-95182184D01*
X138362192Y-95240061D01*
X138314739Y-95249500D01*
X122435261Y-95249500D01*
X122387808Y-95240061D01*
X122248082Y-95182184D01*
X122248074Y-95182182D01*
X122083771Y-95149500D01*
X122083767Y-95149500D01*
X121916233Y-95149500D01*
X121916228Y-95149500D01*
X121751925Y-95182182D01*
X121751917Y-95182184D01*
X121612192Y-95240061D01*
X121564739Y-95249500D01*
X105435261Y-95249500D01*
X105387808Y-95240061D01*
X105248082Y-95182184D01*
X105248074Y-95182182D01*
X105083771Y-95149500D01*
X105083767Y-95149500D01*
X104916233Y-95149500D01*
X104916228Y-95149500D01*
X104751925Y-95182182D01*
X104751917Y-95182184D01*
X104612192Y-95240061D01*
X104564739Y-95249500D01*
X100017230Y-95249500D01*
X99950191Y-95229815D01*
X99929549Y-95213181D01*
X92270175Y-87553807D01*
X92236690Y-87492484D01*
X92235383Y-87446728D01*
X92249715Y-87356243D01*
X92250500Y-87351287D01*
X92250500Y-87138713D01*
X92218031Y-86933713D01*
X99129500Y-86933713D01*
X99129500Y-87146286D01*
X99161968Y-87351285D01*
X99162754Y-87356243D01*
X99192154Y-87446728D01*
X99228444Y-87558414D01*
X99324951Y-87747820D01*
X99449890Y-87919786D01*
X99600213Y-88070109D01*
X99772182Y-88195050D01*
X99780946Y-88199516D01*
X99831742Y-88247491D01*
X99848536Y-88315312D01*
X99825998Y-88381447D01*
X99780946Y-88420484D01*
X99772182Y-88424949D01*
X99600213Y-88549890D01*
X99449890Y-88700213D01*
X99324951Y-88872179D01*
X99228444Y-89061585D01*
X99162753Y-89263760D01*
X99129500Y-89473713D01*
X99129500Y-89686286D01*
X99154796Y-89846003D01*
X99162754Y-89896243D01*
X99225386Y-90089005D01*
X99228444Y-90098414D01*
X99324951Y-90287820D01*
X99449890Y-90459786D01*
X99600213Y-90610109D01*
X99772182Y-90735050D01*
X99780946Y-90739516D01*
X99831742Y-90787491D01*
X99848536Y-90855312D01*
X99825998Y-90921447D01*
X99780946Y-90960484D01*
X99772182Y-90964949D01*
X99600213Y-91089890D01*
X99449890Y-91240213D01*
X99324951Y-91412179D01*
X99228444Y-91601585D01*
X99162753Y-91803760D01*
X99129500Y-92013713D01*
X99129500Y-92226286D01*
X99154796Y-92386002D01*
X99162754Y-92436243D01*
X99173490Y-92469286D01*
X99228444Y-92638414D01*
X99324951Y-92827820D01*
X99449890Y-92999786D01*
X99600213Y-93150109D01*
X99772179Y-93275048D01*
X99772181Y-93275049D01*
X99772184Y-93275051D01*
X99961588Y-93371557D01*
X100163757Y-93437246D01*
X100373713Y-93470500D01*
X100373714Y-93470500D01*
X100586286Y-93470500D01*
X100586287Y-93470500D01*
X100796243Y-93437246D01*
X100998412Y-93371557D01*
X101187816Y-93275051D01*
X101284520Y-93204792D01*
X101359786Y-93150109D01*
X101359788Y-93150106D01*
X101359792Y-93150104D01*
X101510104Y-92999792D01*
X101510106Y-92999788D01*
X101510109Y-92999786D01*
X101623720Y-92843412D01*
X101635051Y-92827816D01*
X101639514Y-92819054D01*
X101687488Y-92768259D01*
X101755308Y-92751463D01*
X101821444Y-92773999D01*
X101860486Y-92819056D01*
X101864951Y-92827820D01*
X101989890Y-92999786D01*
X102140213Y-93150109D01*
X102312179Y-93275048D01*
X102312181Y-93275049D01*
X102312184Y-93275051D01*
X102501588Y-93371557D01*
X102703757Y-93437246D01*
X102913713Y-93470500D01*
X102913714Y-93470500D01*
X103126286Y-93470500D01*
X103126287Y-93470500D01*
X103336243Y-93437246D01*
X103538412Y-93371557D01*
X103727816Y-93275051D01*
X103824520Y-93204792D01*
X103899786Y-93150109D01*
X103899788Y-93150106D01*
X103899792Y-93150104D01*
X104050104Y-92999792D01*
X104050106Y-92999788D01*
X104050109Y-92999786D01*
X104163720Y-92843412D01*
X104175051Y-92827816D01*
X104271557Y-92638412D01*
X104337246Y-92436243D01*
X104370500Y-92226287D01*
X104370500Y-92013713D01*
X104337246Y-91803757D01*
X104271557Y-91601588D01*
X104175051Y-91412184D01*
X104175049Y-91412181D01*
X104175048Y-91412179D01*
X104050109Y-91240213D01*
X103899786Y-91089890D01*
X103727820Y-90964951D01*
X103727115Y-90964591D01*
X103719054Y-90960485D01*
X103668259Y-90912512D01*
X103651463Y-90844692D01*
X103673999Y-90778556D01*
X103719054Y-90739515D01*
X103727816Y-90735051D01*
X103824520Y-90664792D01*
X103899786Y-90610109D01*
X103899788Y-90610106D01*
X103899792Y-90610104D01*
X104050104Y-90459792D01*
X104050106Y-90459788D01*
X104050109Y-90459786D01*
X104163720Y-90303412D01*
X104175051Y-90287816D01*
X104271557Y-90098412D01*
X104337246Y-89896243D01*
X104370500Y-89686287D01*
X104370500Y-89473713D01*
X104337246Y-89263757D01*
X104271557Y-89061588D01*
X104175051Y-88872184D01*
X104175049Y-88872181D01*
X104175048Y-88872179D01*
X104050109Y-88700213D01*
X103899786Y-88549890D01*
X103727820Y-88424951D01*
X103727115Y-88424591D01*
X103719054Y-88420485D01*
X103668259Y-88372512D01*
X103651463Y-88304692D01*
X103673999Y-88238556D01*
X103719054Y-88199515D01*
X103727816Y-88195051D01*
X103824520Y-88124792D01*
X103899786Y-88070109D01*
X103899788Y-88070106D01*
X103899792Y-88070104D01*
X104050104Y-87919792D01*
X104050106Y-87919788D01*
X104050109Y-87919786D01*
X104163720Y-87763412D01*
X104175051Y-87747816D01*
X104271557Y-87558412D01*
X104337246Y-87356243D01*
X104370500Y-87146287D01*
X104370500Y-86933713D01*
X116124500Y-86933713D01*
X116124500Y-87146286D01*
X116156968Y-87351285D01*
X116157754Y-87356243D01*
X116187154Y-87446728D01*
X116223444Y-87558414D01*
X116319951Y-87747820D01*
X116444890Y-87919786D01*
X116595213Y-88070109D01*
X116767182Y-88195050D01*
X116775946Y-88199516D01*
X116826742Y-88247491D01*
X116843536Y-88315312D01*
X116820998Y-88381447D01*
X116775946Y-88420484D01*
X116767182Y-88424949D01*
X116595213Y-88549890D01*
X116444890Y-88700213D01*
X116319951Y-88872179D01*
X116223444Y-89061585D01*
X116157753Y-89263760D01*
X116124500Y-89473713D01*
X116124500Y-89686286D01*
X116149796Y-89846003D01*
X116157754Y-89896243D01*
X116220386Y-90089005D01*
X116223444Y-90098414D01*
X116319951Y-90287820D01*
X116444890Y-90459786D01*
X116595213Y-90610109D01*
X116767182Y-90735050D01*
X116775946Y-90739516D01*
X116826742Y-90787491D01*
X116843536Y-90855312D01*
X116820998Y-90921447D01*
X116775946Y-90960484D01*
X116767182Y-90964949D01*
X116595213Y-91089890D01*
X116444890Y-91240213D01*
X116319951Y-91412179D01*
X116223444Y-91601585D01*
X116157753Y-91803760D01*
X116124500Y-92013713D01*
X116124500Y-92226286D01*
X116149796Y-92386002D01*
X116157754Y-92436243D01*
X116168490Y-92469286D01*
X116223444Y-92638414D01*
X116319951Y-92827820D01*
X116444890Y-92999786D01*
X116595213Y-93150109D01*
X116767179Y-93275048D01*
X116767181Y-93275049D01*
X116767184Y-93275051D01*
X116956588Y-93371557D01*
X117158757Y-93437246D01*
X117368713Y-93470500D01*
X117368714Y-93470500D01*
X117581286Y-93470500D01*
X117581287Y-93470500D01*
X117791243Y-93437246D01*
X117993412Y-93371557D01*
X118182816Y-93275051D01*
X118279520Y-93204792D01*
X118354786Y-93150109D01*
X118354788Y-93150106D01*
X118354792Y-93150104D01*
X118505104Y-92999792D01*
X118505106Y-92999788D01*
X118505109Y-92999786D01*
X118618720Y-92843412D01*
X118630051Y-92827816D01*
X118634514Y-92819054D01*
X118682488Y-92768259D01*
X118750308Y-92751463D01*
X118816444Y-92773999D01*
X118855486Y-92819056D01*
X118859951Y-92827820D01*
X118984890Y-92999786D01*
X119135213Y-93150109D01*
X119307179Y-93275048D01*
X119307181Y-93275049D01*
X119307184Y-93275051D01*
X119496588Y-93371557D01*
X119698757Y-93437246D01*
X119908713Y-93470500D01*
X119908714Y-93470500D01*
X120121286Y-93470500D01*
X120121287Y-93470500D01*
X120331243Y-93437246D01*
X120533412Y-93371557D01*
X120722816Y-93275051D01*
X120819520Y-93204792D01*
X120894786Y-93150109D01*
X120894788Y-93150106D01*
X120894792Y-93150104D01*
X121045104Y-92999792D01*
X121045106Y-92999788D01*
X121045109Y-92999786D01*
X121158720Y-92843412D01*
X121170051Y-92827816D01*
X121266557Y-92638412D01*
X121332246Y-92436243D01*
X121365500Y-92226287D01*
X121365500Y-92013713D01*
X121332246Y-91803757D01*
X121266557Y-91601588D01*
X121170051Y-91412184D01*
X121170049Y-91412181D01*
X121170048Y-91412179D01*
X121045109Y-91240213D01*
X120894786Y-91089890D01*
X120722820Y-90964951D01*
X120722115Y-90964591D01*
X120714054Y-90960485D01*
X120663259Y-90912512D01*
X120646463Y-90844692D01*
X120668999Y-90778556D01*
X120714054Y-90739515D01*
X120722816Y-90735051D01*
X120819520Y-90664792D01*
X120894786Y-90610109D01*
X120894788Y-90610106D01*
X120894792Y-90610104D01*
X121045104Y-90459792D01*
X121045106Y-90459788D01*
X121045109Y-90459786D01*
X121158720Y-90303412D01*
X121170051Y-90287816D01*
X121266557Y-90098412D01*
X121332246Y-89896243D01*
X121365500Y-89686287D01*
X121365500Y-89473713D01*
X121332246Y-89263757D01*
X121266557Y-89061588D01*
X121170051Y-88872184D01*
X121170049Y-88872181D01*
X121170048Y-88872179D01*
X121045109Y-88700213D01*
X120894786Y-88549890D01*
X120722820Y-88424951D01*
X120722115Y-88424591D01*
X120714054Y-88420485D01*
X120663259Y-88372512D01*
X120646463Y-88304692D01*
X120668999Y-88238556D01*
X120714054Y-88199515D01*
X120722816Y-88195051D01*
X120819520Y-88124792D01*
X120894786Y-88070109D01*
X120894788Y-88070106D01*
X120894792Y-88070104D01*
X121045104Y-87919792D01*
X121045106Y-87919788D01*
X121045109Y-87919786D01*
X121158720Y-87763412D01*
X121170051Y-87747816D01*
X121266557Y-87558412D01*
X121332246Y-87356243D01*
X121365500Y-87146287D01*
X121365500Y-86933713D01*
X133119500Y-86933713D01*
X133119500Y-87146286D01*
X133151968Y-87351285D01*
X133152754Y-87356243D01*
X133182154Y-87446728D01*
X133218444Y-87558414D01*
X133314951Y-87747820D01*
X133439890Y-87919786D01*
X133590213Y-88070109D01*
X133762182Y-88195050D01*
X133770946Y-88199516D01*
X133821742Y-88247491D01*
X133838536Y-88315312D01*
X133815998Y-88381447D01*
X133770946Y-88420484D01*
X133762182Y-88424949D01*
X133590213Y-88549890D01*
X133439890Y-88700213D01*
X133314951Y-88872179D01*
X133218444Y-89061585D01*
X133152753Y-89263760D01*
X133119500Y-89473713D01*
X133119500Y-89686286D01*
X133144796Y-89846003D01*
X133152754Y-89896243D01*
X133215386Y-90089005D01*
X133218444Y-90098414D01*
X133314951Y-90287820D01*
X133439890Y-90459786D01*
X133590213Y-90610109D01*
X133762182Y-90735050D01*
X133770946Y-90739516D01*
X133821742Y-90787491D01*
X133838536Y-90855312D01*
X133815998Y-90921447D01*
X133770946Y-90960484D01*
X133762182Y-90964949D01*
X133590213Y-91089890D01*
X133439890Y-91240213D01*
X133314951Y-91412179D01*
X133218444Y-91601585D01*
X133152753Y-91803760D01*
X133119500Y-92013713D01*
X133119500Y-92226286D01*
X133144796Y-92386002D01*
X133152754Y-92436243D01*
X133163490Y-92469286D01*
X133218444Y-92638414D01*
X133314951Y-92827820D01*
X133439890Y-92999786D01*
X133590213Y-93150109D01*
X133762179Y-93275048D01*
X133762181Y-93275049D01*
X133762184Y-93275051D01*
X133951588Y-93371557D01*
X134153757Y-93437246D01*
X134363713Y-93470500D01*
X134363714Y-93470500D01*
X134576286Y-93470500D01*
X134576287Y-93470500D01*
X134786243Y-93437246D01*
X134988412Y-93371557D01*
X135177816Y-93275051D01*
X135274520Y-93204792D01*
X135349786Y-93150109D01*
X135349788Y-93150106D01*
X135349792Y-93150104D01*
X135500104Y-92999792D01*
X135500106Y-92999788D01*
X135500109Y-92999786D01*
X135613720Y-92843412D01*
X135625051Y-92827816D01*
X135629514Y-92819054D01*
X135677488Y-92768259D01*
X135745308Y-92751463D01*
X135811444Y-92773999D01*
X135850486Y-92819056D01*
X135854951Y-92827820D01*
X135979890Y-92999786D01*
X136130213Y-93150109D01*
X136302179Y-93275048D01*
X136302181Y-93275049D01*
X136302184Y-93275051D01*
X136491588Y-93371557D01*
X136693757Y-93437246D01*
X136903713Y-93470500D01*
X136903714Y-93470500D01*
X137116286Y-93470500D01*
X137116287Y-93470500D01*
X137326243Y-93437246D01*
X137528412Y-93371557D01*
X137717816Y-93275051D01*
X137814520Y-93204792D01*
X137889786Y-93150109D01*
X137889788Y-93150106D01*
X137889792Y-93150104D01*
X138040104Y-92999792D01*
X138040106Y-92999788D01*
X138040109Y-92999786D01*
X138153720Y-92843412D01*
X138165051Y-92827816D01*
X138261557Y-92638412D01*
X138327246Y-92436243D01*
X138360500Y-92226287D01*
X138360500Y-92013713D01*
X138327246Y-91803757D01*
X138261557Y-91601588D01*
X138165051Y-91412184D01*
X138165049Y-91412181D01*
X138165048Y-91412179D01*
X138040109Y-91240213D01*
X137889786Y-91089890D01*
X137717820Y-90964951D01*
X137717115Y-90964591D01*
X137709054Y-90960485D01*
X137658259Y-90912512D01*
X137641463Y-90844692D01*
X137663999Y-90778556D01*
X137709054Y-90739515D01*
X137717816Y-90735051D01*
X137814520Y-90664792D01*
X137889786Y-90610109D01*
X137889788Y-90610106D01*
X137889792Y-90610104D01*
X138040104Y-90459792D01*
X138040106Y-90459788D01*
X138040109Y-90459786D01*
X138153720Y-90303412D01*
X138165051Y-90287816D01*
X138261557Y-90098412D01*
X138327246Y-89896243D01*
X138360500Y-89686287D01*
X138360500Y-89473713D01*
X138327246Y-89263757D01*
X138261557Y-89061588D01*
X138165051Y-88872184D01*
X138165049Y-88872181D01*
X138165048Y-88872179D01*
X138040109Y-88700213D01*
X137889786Y-88549890D01*
X137717820Y-88424951D01*
X137717115Y-88424591D01*
X137709054Y-88420485D01*
X137658259Y-88372512D01*
X137641463Y-88304692D01*
X137663999Y-88238556D01*
X137709054Y-88199515D01*
X137717816Y-88195051D01*
X137814520Y-88124792D01*
X137889786Y-88070109D01*
X137889788Y-88070106D01*
X137889792Y-88070104D01*
X138040104Y-87919792D01*
X138040106Y-87919788D01*
X138040109Y-87919786D01*
X138153720Y-87763412D01*
X138165051Y-87747816D01*
X138261557Y-87558412D01*
X138327246Y-87356243D01*
X138360500Y-87146287D01*
X138360500Y-86933713D01*
X150114500Y-86933713D01*
X150114500Y-87146286D01*
X150146968Y-87351285D01*
X150147754Y-87356243D01*
X150177154Y-87446728D01*
X150213444Y-87558414D01*
X150309951Y-87747820D01*
X150434890Y-87919786D01*
X150585213Y-88070109D01*
X150757182Y-88195050D01*
X150765946Y-88199516D01*
X150816742Y-88247491D01*
X150833536Y-88315312D01*
X150810998Y-88381447D01*
X150765946Y-88420484D01*
X150757182Y-88424949D01*
X150585213Y-88549890D01*
X150434890Y-88700213D01*
X150309951Y-88872179D01*
X150213444Y-89061585D01*
X150147753Y-89263760D01*
X150114500Y-89473713D01*
X150114500Y-89686286D01*
X150139796Y-89846003D01*
X150147754Y-89896243D01*
X150210386Y-90089005D01*
X150213444Y-90098414D01*
X150309951Y-90287820D01*
X150434890Y-90459786D01*
X150585213Y-90610109D01*
X150757182Y-90735050D01*
X150765946Y-90739516D01*
X150816742Y-90787491D01*
X150833536Y-90855312D01*
X150810998Y-90921447D01*
X150765946Y-90960484D01*
X150757182Y-90964949D01*
X150585213Y-91089890D01*
X150434890Y-91240213D01*
X150309951Y-91412179D01*
X150213444Y-91601585D01*
X150147753Y-91803760D01*
X150114500Y-92013713D01*
X150114500Y-92226286D01*
X150139796Y-92386002D01*
X150147754Y-92436243D01*
X150158490Y-92469286D01*
X150213444Y-92638414D01*
X150309951Y-92827820D01*
X150434890Y-92999786D01*
X150585213Y-93150109D01*
X150757179Y-93275048D01*
X150757181Y-93275049D01*
X150757184Y-93275051D01*
X150946588Y-93371557D01*
X151148757Y-93437246D01*
X151358713Y-93470500D01*
X151358714Y-93470500D01*
X151571286Y-93470500D01*
X151571287Y-93470500D01*
X151781243Y-93437246D01*
X151983412Y-93371557D01*
X152172816Y-93275051D01*
X152269520Y-93204792D01*
X152344786Y-93150109D01*
X152344788Y-93150106D01*
X152344792Y-93150104D01*
X152495104Y-92999792D01*
X152495106Y-92999788D01*
X152495109Y-92999786D01*
X152608720Y-92843412D01*
X152620051Y-92827816D01*
X152624514Y-92819054D01*
X152672488Y-92768259D01*
X152740308Y-92751463D01*
X152806444Y-92773999D01*
X152845486Y-92819056D01*
X152849951Y-92827820D01*
X152974890Y-92999786D01*
X153125213Y-93150109D01*
X153297179Y-93275048D01*
X153297181Y-93275049D01*
X153297184Y-93275051D01*
X153486588Y-93371557D01*
X153688757Y-93437246D01*
X153898713Y-93470500D01*
X153898714Y-93470500D01*
X154111286Y-93470500D01*
X154111287Y-93470500D01*
X154321243Y-93437246D01*
X154523412Y-93371557D01*
X154712816Y-93275051D01*
X154809520Y-93204792D01*
X154884786Y-93150109D01*
X154884788Y-93150106D01*
X154884792Y-93150104D01*
X155035104Y-92999792D01*
X155035106Y-92999788D01*
X155035109Y-92999786D01*
X155148720Y-92843412D01*
X155160051Y-92827816D01*
X155256557Y-92638412D01*
X155322246Y-92436243D01*
X155355500Y-92226287D01*
X155355500Y-92013713D01*
X155322246Y-91803757D01*
X155256557Y-91601588D01*
X155160051Y-91412184D01*
X155160049Y-91412181D01*
X155160048Y-91412179D01*
X155035109Y-91240213D01*
X154884786Y-91089890D01*
X154712820Y-90964951D01*
X154712115Y-90964591D01*
X154704054Y-90960485D01*
X154653259Y-90912512D01*
X154636463Y-90844692D01*
X154658999Y-90778556D01*
X154704054Y-90739515D01*
X154712816Y-90735051D01*
X154809520Y-90664792D01*
X154884786Y-90610109D01*
X154884788Y-90610106D01*
X154884792Y-90610104D01*
X155035104Y-90459792D01*
X155035106Y-90459788D01*
X155035109Y-90459786D01*
X155148720Y-90303412D01*
X155160051Y-90287816D01*
X155256557Y-90098412D01*
X155322246Y-89896243D01*
X155355500Y-89686287D01*
X155355500Y-89473713D01*
X155322246Y-89263757D01*
X155256557Y-89061588D01*
X155160051Y-88872184D01*
X155160049Y-88872181D01*
X155160048Y-88872179D01*
X155035109Y-88700213D01*
X154884786Y-88549890D01*
X154712820Y-88424951D01*
X154712115Y-88424591D01*
X154704054Y-88420485D01*
X154653259Y-88372512D01*
X154636463Y-88304692D01*
X154658999Y-88238556D01*
X154704054Y-88199515D01*
X154712816Y-88195051D01*
X154809520Y-88124792D01*
X154884786Y-88070109D01*
X154884788Y-88070106D01*
X154884792Y-88070104D01*
X155035104Y-87919792D01*
X155035106Y-87919788D01*
X155035109Y-87919786D01*
X155148720Y-87763412D01*
X155160051Y-87747816D01*
X155256557Y-87558412D01*
X155322246Y-87356243D01*
X155355500Y-87146287D01*
X155355500Y-86933713D01*
X155322246Y-86723757D01*
X155256557Y-86521588D01*
X155160051Y-86332184D01*
X155160049Y-86332181D01*
X155160048Y-86332179D01*
X155035109Y-86160213D01*
X154884786Y-86009890D01*
X154712820Y-85884951D01*
X154712115Y-85884591D01*
X154704054Y-85880485D01*
X154653259Y-85832512D01*
X154636463Y-85764692D01*
X154658999Y-85698556D01*
X154704054Y-85659515D01*
X154712816Y-85655051D01*
X154809520Y-85584792D01*
X154884786Y-85530109D01*
X154884788Y-85530106D01*
X154884792Y-85530104D01*
X155035104Y-85379792D01*
X155035106Y-85379788D01*
X155035109Y-85379786D01*
X155148720Y-85223412D01*
X155160051Y-85207816D01*
X155256557Y-85018412D01*
X155322246Y-84816243D01*
X155355500Y-84606287D01*
X155355500Y-84393713D01*
X155322246Y-84183757D01*
X155256557Y-83981588D01*
X155160051Y-83792184D01*
X155160049Y-83792181D01*
X155160048Y-83792179D01*
X155035109Y-83620213D01*
X154884786Y-83469890D01*
X154712820Y-83344951D01*
X154523414Y-83248444D01*
X154523413Y-83248443D01*
X154523412Y-83248443D01*
X154321243Y-83182754D01*
X154321241Y-83182753D01*
X154321240Y-83182753D01*
X154159957Y-83157208D01*
X154111287Y-83149500D01*
X153898713Y-83149500D01*
X153850042Y-83157208D01*
X153688760Y-83182753D01*
X153486585Y-83248444D01*
X153297179Y-83344951D01*
X153125213Y-83469890D01*
X152974890Y-83620213D01*
X152849951Y-83792179D01*
X152753444Y-83981585D01*
X152687753Y-84183760D01*
X152654500Y-84393713D01*
X152654500Y-84606286D01*
X152687753Y-84816239D01*
X152753444Y-85018414D01*
X152849951Y-85207820D01*
X152974890Y-85379786D01*
X153125213Y-85530109D01*
X153297182Y-85655050D01*
X153305946Y-85659516D01*
X153356742Y-85707491D01*
X153373536Y-85775312D01*
X153350998Y-85841447D01*
X153305946Y-85880484D01*
X153297182Y-85884949D01*
X153125213Y-86009890D01*
X152974890Y-86160213D01*
X152849949Y-86332182D01*
X152845484Y-86340946D01*
X152797509Y-86391742D01*
X152729688Y-86408536D01*
X152663553Y-86385998D01*
X152624516Y-86340946D01*
X152620050Y-86332182D01*
X152495109Y-86160213D01*
X152344786Y-86009890D01*
X152172820Y-85884951D01*
X151983414Y-85788444D01*
X151983413Y-85788443D01*
X151983412Y-85788443D01*
X151781243Y-85722754D01*
X151781241Y-85722753D01*
X151781240Y-85722753D01*
X151619957Y-85697208D01*
X151571287Y-85689500D01*
X151358713Y-85689500D01*
X151310042Y-85697208D01*
X151148760Y-85722753D01*
X150946585Y-85788444D01*
X150757179Y-85884951D01*
X150585213Y-86009890D01*
X150434890Y-86160213D01*
X150309951Y-86332179D01*
X150213444Y-86521585D01*
X150147753Y-86723760D01*
X150114500Y-86933713D01*
X138360500Y-86933713D01*
X138327246Y-86723757D01*
X138261557Y-86521588D01*
X138165051Y-86332184D01*
X138165049Y-86332181D01*
X138165048Y-86332179D01*
X138040109Y-86160213D01*
X137889786Y-86009890D01*
X137717820Y-85884951D01*
X137717115Y-85884591D01*
X137709054Y-85880485D01*
X137658259Y-85832512D01*
X137641463Y-85764692D01*
X137663999Y-85698556D01*
X137709054Y-85659515D01*
X137717816Y-85655051D01*
X137814520Y-85584792D01*
X137889786Y-85530109D01*
X137889788Y-85530106D01*
X137889792Y-85530104D01*
X138040104Y-85379792D01*
X138040106Y-85379788D01*
X138040109Y-85379786D01*
X138153720Y-85223412D01*
X138165051Y-85207816D01*
X138261557Y-85018412D01*
X138327246Y-84816243D01*
X138360500Y-84606287D01*
X138360500Y-84393713D01*
X138327246Y-84183757D01*
X138261557Y-83981588D01*
X138165051Y-83792184D01*
X138165049Y-83792181D01*
X138165048Y-83792179D01*
X138040109Y-83620213D01*
X137889786Y-83469890D01*
X137717820Y-83344951D01*
X137528414Y-83248444D01*
X137528413Y-83248443D01*
X137528412Y-83248443D01*
X137326243Y-83182754D01*
X137326241Y-83182753D01*
X137326240Y-83182753D01*
X137164957Y-83157208D01*
X137116287Y-83149500D01*
X136903713Y-83149500D01*
X136855042Y-83157208D01*
X136693760Y-83182753D01*
X136491585Y-83248444D01*
X136302179Y-83344951D01*
X136130213Y-83469890D01*
X135979890Y-83620213D01*
X135854951Y-83792179D01*
X135758444Y-83981585D01*
X135692753Y-84183760D01*
X135659500Y-84393713D01*
X135659500Y-84606286D01*
X135692753Y-84816239D01*
X135758444Y-85018414D01*
X135854951Y-85207820D01*
X135979890Y-85379786D01*
X136130213Y-85530109D01*
X136302182Y-85655050D01*
X136310946Y-85659516D01*
X136361742Y-85707491D01*
X136378536Y-85775312D01*
X136355998Y-85841447D01*
X136310946Y-85880484D01*
X136302182Y-85884949D01*
X136130213Y-86009890D01*
X135979890Y-86160213D01*
X135854949Y-86332182D01*
X135850484Y-86340946D01*
X135802509Y-86391742D01*
X135734688Y-86408536D01*
X135668553Y-86385998D01*
X135629516Y-86340946D01*
X135625050Y-86332182D01*
X135500109Y-86160213D01*
X135349786Y-86009890D01*
X135177820Y-85884951D01*
X134988414Y-85788444D01*
X134988413Y-85788443D01*
X134988412Y-85788443D01*
X134786243Y-85722754D01*
X134786241Y-85722753D01*
X134786240Y-85722753D01*
X134624957Y-85697208D01*
X134576287Y-85689500D01*
X134363713Y-85689500D01*
X134315042Y-85697208D01*
X134153760Y-85722753D01*
X133951585Y-85788444D01*
X133762179Y-85884951D01*
X133590213Y-86009890D01*
X133439890Y-86160213D01*
X133314951Y-86332179D01*
X133218444Y-86521585D01*
X133152753Y-86723760D01*
X133119500Y-86933713D01*
X121365500Y-86933713D01*
X121332246Y-86723757D01*
X121266557Y-86521588D01*
X121170051Y-86332184D01*
X121170049Y-86332181D01*
X121170048Y-86332179D01*
X121045109Y-86160213D01*
X120894786Y-86009890D01*
X120722820Y-85884951D01*
X120722115Y-85884591D01*
X120714054Y-85880485D01*
X120663259Y-85832512D01*
X120646463Y-85764692D01*
X120668999Y-85698556D01*
X120714054Y-85659515D01*
X120722816Y-85655051D01*
X120819520Y-85584792D01*
X120894786Y-85530109D01*
X120894788Y-85530106D01*
X120894792Y-85530104D01*
X121045104Y-85379792D01*
X121045106Y-85379788D01*
X121045109Y-85379786D01*
X121158720Y-85223412D01*
X121170051Y-85207816D01*
X121266557Y-85018412D01*
X121332246Y-84816243D01*
X121365500Y-84606287D01*
X121365500Y-84393713D01*
X121332246Y-84183757D01*
X121266557Y-83981588D01*
X121170051Y-83792184D01*
X121170049Y-83792181D01*
X121170048Y-83792179D01*
X121045109Y-83620213D01*
X120894786Y-83469890D01*
X120722820Y-83344951D01*
X120533414Y-83248444D01*
X120533413Y-83248443D01*
X120533412Y-83248443D01*
X120331243Y-83182754D01*
X120331241Y-83182753D01*
X120331240Y-83182753D01*
X120169957Y-83157208D01*
X120121287Y-83149500D01*
X119908713Y-83149500D01*
X119860042Y-83157208D01*
X119698760Y-83182753D01*
X119496585Y-83248444D01*
X119307179Y-83344951D01*
X119135213Y-83469890D01*
X118984890Y-83620213D01*
X118859951Y-83792179D01*
X118763444Y-83981585D01*
X118697753Y-84183760D01*
X118664500Y-84393713D01*
X118664500Y-84606286D01*
X118697753Y-84816239D01*
X118763444Y-85018414D01*
X118859951Y-85207820D01*
X118984890Y-85379786D01*
X119135213Y-85530109D01*
X119307182Y-85655050D01*
X119315946Y-85659516D01*
X119366742Y-85707491D01*
X119383536Y-85775312D01*
X119360998Y-85841447D01*
X119315946Y-85880484D01*
X119307182Y-85884949D01*
X119135213Y-86009890D01*
X118984890Y-86160213D01*
X118859949Y-86332182D01*
X118855484Y-86340946D01*
X118807509Y-86391742D01*
X118739688Y-86408536D01*
X118673553Y-86385998D01*
X118634516Y-86340946D01*
X118630050Y-86332182D01*
X118505109Y-86160213D01*
X118354786Y-86009890D01*
X118182820Y-85884951D01*
X117993414Y-85788444D01*
X117993413Y-85788443D01*
X117993412Y-85788443D01*
X117791243Y-85722754D01*
X117791241Y-85722753D01*
X117791240Y-85722753D01*
X117629957Y-85697208D01*
X117581287Y-85689500D01*
X117368713Y-85689500D01*
X117320042Y-85697208D01*
X117158760Y-85722753D01*
X116956585Y-85788444D01*
X116767179Y-85884951D01*
X116595213Y-86009890D01*
X116444890Y-86160213D01*
X116319951Y-86332179D01*
X116223444Y-86521585D01*
X116157753Y-86723760D01*
X116124500Y-86933713D01*
X104370500Y-86933713D01*
X104337246Y-86723757D01*
X104271557Y-86521588D01*
X104175051Y-86332184D01*
X104175049Y-86332181D01*
X104175048Y-86332179D01*
X104050109Y-86160213D01*
X103899786Y-86009890D01*
X103727820Y-85884951D01*
X103727115Y-85884591D01*
X103719054Y-85880485D01*
X103668259Y-85832512D01*
X103651463Y-85764692D01*
X103673999Y-85698556D01*
X103719054Y-85659515D01*
X103727816Y-85655051D01*
X103824520Y-85584792D01*
X103899786Y-85530109D01*
X103899788Y-85530106D01*
X103899792Y-85530104D01*
X104050104Y-85379792D01*
X104050106Y-85379788D01*
X104050109Y-85379786D01*
X104163720Y-85223412D01*
X104175051Y-85207816D01*
X104271557Y-85018412D01*
X104337246Y-84816243D01*
X104370500Y-84606287D01*
X104370500Y-84393713D01*
X104337246Y-84183757D01*
X104271557Y-83981588D01*
X104175051Y-83792184D01*
X104175049Y-83792181D01*
X104175048Y-83792179D01*
X104050109Y-83620213D01*
X103899786Y-83469890D01*
X103727820Y-83344951D01*
X103538414Y-83248444D01*
X103538413Y-83248443D01*
X103538412Y-83248443D01*
X103336243Y-83182754D01*
X103336241Y-83182753D01*
X103336240Y-83182753D01*
X103174957Y-83157208D01*
X103126287Y-83149500D01*
X102913713Y-83149500D01*
X102865042Y-83157208D01*
X102703760Y-83182753D01*
X102501585Y-83248444D01*
X102312179Y-83344951D01*
X102140213Y-83469890D01*
X101989890Y-83620213D01*
X101864951Y-83792179D01*
X101768444Y-83981585D01*
X101702753Y-84183760D01*
X101669500Y-84393713D01*
X101669500Y-84606286D01*
X101702753Y-84816239D01*
X101768444Y-85018414D01*
X101864951Y-85207820D01*
X101989890Y-85379786D01*
X102140213Y-85530109D01*
X102312182Y-85655050D01*
X102320946Y-85659516D01*
X102371742Y-85707491D01*
X102388536Y-85775312D01*
X102365998Y-85841447D01*
X102320946Y-85880484D01*
X102312182Y-85884949D01*
X102140213Y-86009890D01*
X101989890Y-86160213D01*
X101864949Y-86332182D01*
X101860484Y-86340946D01*
X101812509Y-86391742D01*
X101744688Y-86408536D01*
X101678553Y-86385998D01*
X101639516Y-86340946D01*
X101635050Y-86332182D01*
X101510109Y-86160213D01*
X101359786Y-86009890D01*
X101187820Y-85884951D01*
X100998414Y-85788444D01*
X100998413Y-85788443D01*
X100998412Y-85788443D01*
X100796243Y-85722754D01*
X100796241Y-85722753D01*
X100796240Y-85722753D01*
X100634957Y-85697208D01*
X100586287Y-85689500D01*
X100373713Y-85689500D01*
X100325042Y-85697208D01*
X100163760Y-85722753D01*
X99961585Y-85788444D01*
X99772179Y-85884951D01*
X99600213Y-86009890D01*
X99449890Y-86160213D01*
X99324951Y-86332179D01*
X99228444Y-86521585D01*
X99162753Y-86723760D01*
X99129500Y-86933713D01*
X92218031Y-86933713D01*
X92217246Y-86928757D01*
X92151557Y-86726588D01*
X92055051Y-86537184D01*
X92055049Y-86537181D01*
X92055048Y-86537179D01*
X91930109Y-86365213D01*
X91779786Y-86214890D01*
X91607820Y-86089951D01*
X91607115Y-86089591D01*
X91599054Y-86085485D01*
X91548259Y-86037512D01*
X91531463Y-85969692D01*
X91553999Y-85903556D01*
X91599054Y-85864515D01*
X91607816Y-85860051D01*
X91633422Y-85841447D01*
X91779786Y-85735109D01*
X91779788Y-85735106D01*
X91779792Y-85735104D01*
X91930104Y-85584792D01*
X91930106Y-85584788D01*
X91930109Y-85584786D01*
X92055048Y-85412820D01*
X92055047Y-85412820D01*
X92055051Y-85412816D01*
X92151557Y-85223412D01*
X92217246Y-85021243D01*
X92250500Y-84811287D01*
X92250500Y-84598713D01*
X92217246Y-84388757D01*
X92151557Y-84186588D01*
X92055051Y-83997184D01*
X92055049Y-83997181D01*
X92055048Y-83997179D01*
X91930109Y-83825213D01*
X91779786Y-83674890D01*
X91607820Y-83549951D01*
X91607115Y-83549591D01*
X91599054Y-83545485D01*
X91548259Y-83497512D01*
X91531463Y-83429692D01*
X91553999Y-83363556D01*
X91599054Y-83324515D01*
X91607816Y-83320051D01*
X91629789Y-83304086D01*
X91779786Y-83195109D01*
X91779788Y-83195106D01*
X91779792Y-83195104D01*
X91930104Y-83044792D01*
X91930106Y-83044788D01*
X91930109Y-83044786D01*
X92055048Y-82872820D01*
X92055047Y-82872820D01*
X92055051Y-82872816D01*
X92151557Y-82683412D01*
X92217246Y-82481243D01*
X92250500Y-82271287D01*
X92250500Y-82058713D01*
X92217246Y-81848757D01*
X92151557Y-81646588D01*
X92055051Y-81457184D01*
X92055049Y-81457181D01*
X92055048Y-81457179D01*
X91930109Y-81285213D01*
X91779786Y-81134890D01*
X91607820Y-81009951D01*
X91418414Y-80913444D01*
X91418413Y-80913443D01*
X91418412Y-80913443D01*
X91216243Y-80847754D01*
X91216241Y-80847753D01*
X91216240Y-80847753D01*
X91045192Y-80820662D01*
X91006287Y-80814500D01*
X90793713Y-80814500D01*
X90793708Y-80814500D01*
X90698270Y-80829616D01*
X90628977Y-80820662D01*
X90591191Y-80794824D01*
X90036819Y-80240451D01*
X90003334Y-80179128D01*
X90000500Y-80152770D01*
X90000500Y-78624500D01*
X90020185Y-78557461D01*
X90072989Y-78511706D01*
X90124500Y-78500500D01*
X93887770Y-78500500D01*
X93954809Y-78520185D01*
X93975451Y-78536819D01*
X97021586Y-81582954D01*
X97050700Y-81602406D01*
X97094375Y-81631588D01*
X97144505Y-81665084D01*
X97144506Y-81665084D01*
X97144507Y-81665085D01*
X97144509Y-81665086D01*
X97281082Y-81721656D01*
X97281087Y-81721658D01*
X97281091Y-81721658D01*
X97281092Y-81721659D01*
X97426079Y-81750500D01*
X97426082Y-81750500D01*
X97426083Y-81750500D01*
X97573917Y-81750500D01*
X119579739Y-81750500D01*
X119627191Y-81759938D01*
X119766918Y-81817816D01*
X119922470Y-81848757D01*
X119931228Y-81850499D01*
X119931232Y-81850500D01*
X119931233Y-81850500D01*
X120098768Y-81850500D01*
X120098769Y-81850499D01*
X120263082Y-81817816D01*
X120402808Y-81759938D01*
X120450261Y-81750500D01*
X136574739Y-81750500D01*
X136622191Y-81759938D01*
X136761918Y-81817816D01*
X136917470Y-81848757D01*
X136926228Y-81850499D01*
X136926232Y-81850500D01*
X136926233Y-81850500D01*
X137093768Y-81850500D01*
X137093769Y-81850499D01*
X137258082Y-81817816D01*
X137397808Y-81759938D01*
X137445261Y-81750500D01*
X153564739Y-81750500D01*
X153612191Y-81759938D01*
X153751918Y-81817816D01*
X153907470Y-81848757D01*
X153916228Y-81850499D01*
X153916232Y-81850500D01*
X153916233Y-81850500D01*
X154083768Y-81850500D01*
X154083769Y-81850499D01*
X154248082Y-81817816D01*
X154402863Y-81753703D01*
X154542162Y-81660626D01*
X154660626Y-81542162D01*
X154753703Y-81402863D01*
X154817816Y-81248082D01*
X154850500Y-81083767D01*
X154850500Y-80916233D01*
X154817816Y-80751918D01*
X154753703Y-80597137D01*
X154753702Y-80597135D01*
X154751697Y-80592295D01*
X154744228Y-80522826D01*
X154775503Y-80460347D01*
X154818804Y-80430281D01*
X154855495Y-80415084D01*
X154909162Y-80379225D01*
X154978416Y-80332952D01*
X157024548Y-78286818D01*
X157085871Y-78253334D01*
X157112229Y-78250500D01*
X163744770Y-78250500D01*
X163811809Y-78270185D01*
G37*
%TD.AperFunction*%
%TD*%
M02*
