M48
; DRILL file {KiCad 9.0.3-9.0.3-0~ubuntu24.04.1} date 2026-04-21T10:36:39+0300
; FORMAT={-:-/ absolute / metric / decimal}
; #@! TF.CreationDate,2026-04-21T10:36:39+03:00
; #@! TF.GenerationSoftware,Kicad,Pcbnew,9.0.3-9.0.3-0~ubuntu24.04.1
; #@! TF.FileFunction,Plated,1,2,PTH
FMAT,2
METRIC
; #@! TA.AperFunction,Plated,PTH,ViaDrill
T1C0.400
; #@! TA.AperFunction,Plated,PTH,ComponentDrill
T2C1.000
%
G90
G05
T1
X98.615Y-97.5
X105.0Y-96.0
X115.5Y-79.75
X115.75Y-97.5
X120.015Y-81.0
X122.0Y-96.0
X132.5Y-79.75
X132.75Y-97.5
X137.01Y-81.0
X138.75Y-96.0
X149.5Y-79.75
X150.0Y-97.5
X154.0Y-81.0
T2
X90.9Y-79.625
X90.9Y-82.165
X90.9Y-84.705
X90.9Y-87.245
X90.9Y-89.785
X90.9Y-92.325
X90.9Y-94.865
X90.9Y-97.405
X100.48Y-84.5
X100.48Y-87.04
X100.48Y-89.58
X100.48Y-92.12
X103.02Y-84.5
X103.02Y-87.04
X103.02Y-89.58
X103.02Y-92.12
X117.475Y-84.5
X117.475Y-87.04
X117.475Y-89.58
X117.475Y-92.12
X120.015Y-84.5
X120.015Y-87.04
X120.015Y-89.58
X120.015Y-92.12
X134.47Y-84.5
X134.47Y-87.04
X134.47Y-89.58
X134.47Y-92.12
X137.01Y-84.5
X137.01Y-87.04
X137.01Y-89.58
X137.01Y-92.12
X151.465Y-84.5
X151.465Y-87.04
X151.465Y-89.58
X151.465Y-92.12
X154.005Y-84.5
X154.005Y-87.04
X154.005Y-89.58
X154.005Y-92.12
X163.615Y-79.61
X163.615Y-82.15
X163.615Y-84.69
X163.615Y-87.23
X163.615Y-89.77
X163.615Y-92.31
X163.615Y-94.85
X163.615Y-97.39
M30
