%TF.GenerationSoftware,KiCad,Pcbnew,9.0.3-9.0.3-0~ubuntu24.04.1*%
%TF.CreationDate,2026-04-16T14:24:07+03:00*%
%TF.ProjectId,bus,6275732e-6b69-4636-9164-5f7063625858,rev?*%
%TF.SameCoordinates,Original*%
%TF.FileFunction,Soldermask,Bot*%
%TF.FilePolarity,Negative*%
%FSLAX46Y46*%
G04 Gerber Fmt 4.6, Leading zero omitted, Abs format (unit mm)*
G04 Created by KiCad (PCBNEW 9.0.3-9.0.3-0~ubuntu24.04.1) date 2026-04-16 14:24:07*
%MOMM*%
%LPD*%
G01*
G04 APERTURE LIST*
G04 Aperture macros list*
%AMRoundRect*
0 Rectangle with rounded corners*
0 $1 Rounding radius*
0 $2 $3 $4 $5 $6 $7 $8 $9 X,Y pos of 4 corners*
0 Add a 4 corners polygon primitive as box body*
4,1,4,$2,$3,$4,$5,$6,$7,$8,$9,$2,$3,0*
0 Add four circle primitives for the rounded corners*
1,1,$1+$1,$2,$3*
1,1,$1+$1,$4,$5*
1,1,$1+$1,$6,$7*
1,1,$1+$1,$8,$9*
0 Add four rect primitives between the rounded corners*
20,1,$1+$1,$2,$3,$4,$5,0*
20,1,$1+$1,$4,$5,$6,$7,0*
20,1,$1+$1,$6,$7,$8,$9,0*
20,1,$1+$1,$8,$9,$2,$3,0*%
G04 Aperture macros list end*
%ADD10RoundRect,0.250000X-0.600000X-0.600000X0.600000X-0.600000X0.600000X0.600000X-0.600000X0.600000X0*%
%ADD11C,1.700000*%
%ADD12R,1.700000X1.700000*%
G04 APERTURE END LIST*
D10*
%TO.C,J4*%
X151465000Y-84500000D03*
D11*
X154005000Y-84500000D03*
X151465000Y-87040000D03*
X154005000Y-87040000D03*
X151465000Y-89580000D03*
X154005000Y-89580000D03*
X151465000Y-92120000D03*
X154005000Y-92120000D03*
%TD*%
D10*
%TO.C,J1*%
X100480000Y-84500000D03*
D11*
X103020000Y-84500000D03*
X100480000Y-87040000D03*
X103020000Y-87040000D03*
X100480000Y-89580000D03*
X103020000Y-89580000D03*
X100480000Y-92120000D03*
X103020000Y-92120000D03*
%TD*%
D12*
%TO.C,J6*%
X90900000Y-79625000D03*
D11*
X90900000Y-82165000D03*
X90900000Y-84705000D03*
X90900000Y-87245000D03*
X90900000Y-89785000D03*
X90900000Y-92325000D03*
X90900000Y-94865000D03*
X90900000Y-97405000D03*
%TD*%
D12*
%TO.C,J5*%
X163615000Y-79610000D03*
D11*
X163615000Y-82150000D03*
X163615000Y-84690000D03*
X163615000Y-87230000D03*
X163615000Y-89770000D03*
X163615000Y-92310000D03*
X163615000Y-94850000D03*
X163615000Y-97390000D03*
%TD*%
D10*
%TO.C,J3*%
X134470000Y-84500000D03*
D11*
X137010000Y-84500000D03*
X134470000Y-87040000D03*
X137010000Y-87040000D03*
X134470000Y-89580000D03*
X137010000Y-89580000D03*
X134470000Y-92120000D03*
X137010000Y-92120000D03*
%TD*%
D10*
%TO.C,J2*%
X117475000Y-84500000D03*
D11*
X120015000Y-84500000D03*
X117475000Y-87040000D03*
X120015000Y-87040000D03*
X117475000Y-89580000D03*
X120015000Y-89580000D03*
X117475000Y-92120000D03*
X120015000Y-92120000D03*
%TD*%
M02*
