M48
; DRILL file {KiCad 9.0.3-9.0.3-0~ubuntu24.04.1} date 2026-04-16T11:51:33+0300
; FORMAT={-:-/ absolute / metric / decimal}
; #@! TF.CreationDate,2026-04-16T11:51:33+03:00
; #@! TF.GenerationSoftware,Kicad,Pcbnew,9.0.3-9.0.3-0~ubuntu24.04.1
; #@! TF.FileFunction,Plated,1,2,PTH
FMAT,2
METRIC
; #@! TA.AperFunction,Plated,PTH,ComponentDrill
T1C1.000
; #@! TA.AperFunction,Plated,PTH,ComponentDrill
T2C1.100
; #@! TA.AperFunction,Plated,PTH,ComponentDrill
T3C1.400
%
G90
G05
T1
X54.75Y-88.5
X54.75Y-91.04
X54.75Y-93.58
X54.75Y-96.12
X54.75Y-98.66
X54.75Y-101.2
X54.75Y-103.74
X54.75Y-106.28
X54.75Y-135.67
X54.75Y-138.21
X54.75Y-140.75
X54.75Y-143.29
X54.75Y-145.83
X54.75Y-148.37
X54.75Y-150.91
X54.75Y-153.45
X62.34Y-72.71
X62.34Y-75.25
X64.88Y-72.71
X64.88Y-75.25
X66.21Y-92.25
X66.21Y-94.79
X66.21Y-97.33
X66.21Y-99.87
X66.21Y-141.88
X66.21Y-144.42
X66.21Y-146.96
X66.21Y-149.5
X67.42Y-72.71
X67.42Y-75.25
X68.75Y-92.25
X68.75Y-94.79
X68.75Y-97.33
X68.75Y-99.87
X68.75Y-141.88
X68.75Y-144.42
X68.75Y-146.96
X68.75Y-149.5
X69.96Y-72.71
X69.96Y-75.25
X72.5Y-72.71
X72.5Y-75.25
X90.47Y-166.6
X90.565Y-39.0
X93.01Y-166.6
X93.105Y-39.0
X95.55Y-166.6
X95.645Y-39.0
X95.675Y-48.5
X95.675Y-51.04
X95.675Y-67.5
X95.675Y-70.04
X95.675Y-72.5
X98.09Y-166.6
X98.185Y-39.0
X98.215Y-48.5
X98.215Y-51.04
X98.215Y-67.5
X98.215Y-70.04
X98.215Y-72.5
X100.63Y-166.6
X100.725Y-39.0
X100.755Y-48.5
X100.755Y-51.04
X100.755Y-67.5
X100.755Y-70.04
X100.755Y-72.5
X103.17Y-166.6
X103.265Y-39.0
X103.295Y-48.5
X103.295Y-51.04
X103.295Y-67.5
X103.295Y-70.04
X103.295Y-72.5
X105.71Y-166.6
X105.805Y-39.0
X106.94Y-117.13
X106.94Y-119.67
X106.94Y-122.21
X106.94Y-124.75
X108.25Y-166.6
X108.345Y-39.0
X109.48Y-117.13
X109.48Y-119.67
X109.48Y-122.21
X109.48Y-124.75
X149.46Y-50.667
X149.46Y-53.207
X149.46Y-55.747
X149.46Y-58.287
X149.46Y-84.833
X149.46Y-87.373
X149.46Y-89.913
X149.46Y-92.453
X149.46Y-119.0
X149.46Y-121.54
X149.46Y-124.08
X149.46Y-126.62
X149.46Y-153.167
X149.46Y-155.707
X149.46Y-158.247
X149.46Y-160.787
X152.0Y-50.667
X152.0Y-53.207
X152.0Y-55.747
X152.0Y-58.287
X152.0Y-84.833
X152.0Y-87.373
X152.0Y-89.913
X152.0Y-92.453
X152.0Y-119.0
X152.0Y-121.54
X152.0Y-124.08
X152.0Y-126.62
X152.0Y-153.167
X152.0Y-155.707
X152.0Y-158.247
X152.0Y-160.787
T2
X104.25Y-96.5
X104.25Y-106.66
X104.25Y-134.75
X104.25Y-144.91
X142.0Y-49.417
X142.0Y-59.577
X142.0Y-83.583
X142.0Y-93.743
X142.0Y-117.75
X142.0Y-127.91
X142.0Y-151.917
X142.0Y-162.077
T3
X82.29Y-92.75
X82.29Y-96.85
X82.29Y-103.2
X82.29Y-109.55
X82.29Y-131.0
X82.29Y-135.1
X82.29Y-141.45
X82.29Y-147.8
X86.69Y-92.75
X86.69Y-96.85
X86.69Y-103.2
X86.69Y-131.0
X86.69Y-135.1
X86.69Y-141.45
X91.09Y-92.75
X91.09Y-96.85
X91.09Y-103.2
X91.09Y-131.0
X91.09Y-135.1
X91.09Y-141.45
X95.49Y-92.75
X95.49Y-96.85
X95.49Y-103.2
X95.49Y-109.55
X95.49Y-131.0
X95.49Y-135.1
X95.49Y-141.45
X95.49Y-147.8
X120.85Y-45.65
X120.85Y-49.75
X120.85Y-56.1
X120.85Y-62.45
X120.85Y-79.817
X120.85Y-83.917
X120.85Y-90.267
X120.85Y-96.617
X120.85Y-113.983
X120.85Y-118.083
X120.85Y-124.433
X120.85Y-130.783
X120.85Y-148.15
X120.85Y-152.25
X120.85Y-158.6
X120.85Y-164.95
X125.25Y-45.65
X125.25Y-49.75
X125.25Y-56.1
X125.25Y-79.817
X125.25Y-83.917
X125.25Y-90.267
X125.25Y-113.983
X125.25Y-118.083
X125.25Y-124.433
X125.25Y-148.15
X125.25Y-152.25
X125.25Y-158.6
X129.65Y-45.65
X129.65Y-49.75
X129.65Y-56.1
X129.65Y-79.817
X129.65Y-83.917
X129.65Y-90.267
X129.65Y-113.983
X129.65Y-118.083
X129.65Y-124.433
X129.65Y-148.15
X129.65Y-152.25
X129.65Y-158.6
X134.05Y-45.65
X134.05Y-49.75
X134.05Y-56.1
X134.05Y-62.45
X134.05Y-79.817
X134.05Y-83.917
X134.05Y-90.267
X134.05Y-96.617
X134.05Y-113.983
X134.05Y-118.083
X134.05Y-124.433
X134.05Y-130.783
X134.05Y-148.15
X134.05Y-152.25
X134.05Y-158.6
X134.05Y-164.95
M30
