%TF.GenerationSoftware,KiCad,Pcbnew,9.0.3-9.0.3-0~ubuntu24.04.1*%
%TF.CreationDate,2026-04-09T11:18:39+03:00*%
%TF.ProjectId,decoder,6465636f-6465-4722-9e6b-696361645f70,rev?*%
%TF.SameCoordinates,Original*%
%TF.FileFunction,Soldermask,Bot*%
%TF.FilePolarity,Negative*%
%FSLAX46Y46*%
G04 Gerber Fmt 4.6, Leading zero omitted, Abs format (unit mm)*
G04 Created by KiCad (PCBNEW 9.0.3-9.0.3-0~ubuntu24.04.1) date 2026-04-09 11:18:39*
%MOMM*%
%LPD*%
G01*
G04 APERTURE LIST*
G04 Aperture macros list*
%AMRoundRect*
0 Rectangle with rounded corners*
0 $1 Rounding radius*
0 $2 $3 $4 $5 $6 $7 $8 $9 X,Y pos of 4 corners*
0 Add a 4 corners polygon primitive as box body*
4,1,4,$2,$3,$4,$5,$6,$7,$8,$9,$2,$3,0*
0 Add four circle primitives for the rounded corners*
1,1,$1+$1,$2,$3*
1,1,$1+$1,$4,$5*
1,1,$1+$1,$6,$7*
1,1,$1+$1,$8,$9*
0 Add four rect primitives between the rounded corners*
20,1,$1+$1,$2,$3,$4,$5,0*
20,1,$1+$1,$4,$5,$6,$7,0*
20,1,$1+$1,$6,$7,$8,$9,0*
20,1,$1+$1,$8,$9,$2,$3,0*%
G04 Aperture macros list end*
%ADD10RoundRect,0.250000X0.600000X0.600000X-0.600000X0.600000X-0.600000X-0.600000X0.600000X-0.600000X0*%
%ADD11C,1.700000*%
%ADD12R,1.700000X1.700000*%
%ADD13C,2.100000*%
%ADD14RoundRect,0.249999X0.850001X-0.850001X0.850001X0.850001X-0.850001X0.850001X-0.850001X-0.850001X0*%
%ADD15C,2.200000*%
%ADD16RoundRect,0.250000X-0.600000X-0.600000X0.600000X-0.600000X0.600000X0.600000X-0.600000X0.600000X0*%
%ADD17RoundRect,0.250000X0.600000X-0.600000X0.600000X0.600000X-0.600000X0.600000X-0.600000X-0.600000X0*%
G04 APERTURE END LIST*
D10*
%TO.C,J4*%
X152000000Y-58286667D03*
D11*
X149460000Y-58286667D03*
X152000000Y-55746667D03*
X149460000Y-55746667D03*
X152000000Y-53206667D03*
X149460000Y-53206667D03*
X152000000Y-50666667D03*
X149460000Y-50666667D03*
%TD*%
D12*
%TO.C,J11*%
X90565000Y-39000000D03*
D11*
X93105000Y-39000000D03*
X95645000Y-39000000D03*
X98185000Y-39000000D03*
X100725000Y-39000000D03*
X103265000Y-39000000D03*
X105805000Y-39000000D03*
X108345000Y-39000000D03*
%TD*%
D10*
%TO.C,J6*%
X152000000Y-126620000D03*
D11*
X149460000Y-126620000D03*
X152000000Y-124080000D03*
X149460000Y-124080000D03*
X152000000Y-121540000D03*
X149460000Y-121540000D03*
X152000000Y-119000000D03*
X149460000Y-119000000D03*
%TD*%
D10*
%TO.C,J1*%
X68750000Y-149500000D03*
D11*
X66210000Y-149500000D03*
X68750000Y-146960000D03*
X66210000Y-146960000D03*
X68750000Y-144420000D03*
X66210000Y-144420000D03*
X68750000Y-141880000D03*
X66210000Y-141880000D03*
%TD*%
D13*
%TO.C,K5*%
X134050000Y-113983333D03*
X129650000Y-113983333D03*
X125250000Y-113983333D03*
X120850000Y-113983333D03*
X134050000Y-118083333D03*
X129650000Y-118083333D03*
X125250000Y-118083333D03*
X120850000Y-118083333D03*
X134050000Y-124433333D03*
X129650000Y-124433333D03*
X125250000Y-124433333D03*
X120850000Y-124433333D03*
X134050000Y-130783333D03*
X120850000Y-130783333D03*
%TD*%
%TO.C,K1*%
X95490000Y-92750000D03*
X91090000Y-92750000D03*
X86690000Y-92750000D03*
X82290000Y-92750000D03*
X95490000Y-96850000D03*
X91090000Y-96850000D03*
X86690000Y-96850000D03*
X82290000Y-96850000D03*
X95490000Y-103200000D03*
X91090000Y-103200000D03*
X86690000Y-103200000D03*
X82290000Y-103200000D03*
X95490000Y-109550000D03*
X82290000Y-109550000D03*
%TD*%
%TO.C,K4*%
X134050000Y-79816667D03*
X129650000Y-79816667D03*
X125250000Y-79816667D03*
X120850000Y-79816667D03*
X134050000Y-83916667D03*
X129650000Y-83916667D03*
X125250000Y-83916667D03*
X120850000Y-83916667D03*
X134050000Y-90266667D03*
X129650000Y-90266667D03*
X125250000Y-90266667D03*
X120850000Y-90266667D03*
X134050000Y-96616667D03*
X120850000Y-96616667D03*
%TD*%
D14*
%TO.C,D3*%
X142000000Y-59576667D03*
D15*
X142000000Y-49416667D03*
%TD*%
D12*
%TO.C,J13*%
X95675000Y-67500000D03*
D11*
X95675000Y-70040000D03*
X98215000Y-67500000D03*
X98215000Y-70040000D03*
X100755000Y-67500000D03*
X100755000Y-70040000D03*
X103295000Y-67500000D03*
X103295000Y-70040000D03*
%TD*%
D14*
%TO.C,D6*%
X142000000Y-162076667D03*
D15*
X142000000Y-151916667D03*
%TD*%
D13*
%TO.C,K6*%
X134050000Y-148150000D03*
X129650000Y-148150000D03*
X125250000Y-148150000D03*
X120850000Y-148150000D03*
X134050000Y-152250000D03*
X129650000Y-152250000D03*
X125250000Y-152250000D03*
X120850000Y-152250000D03*
X134050000Y-158600000D03*
X129650000Y-158600000D03*
X125250000Y-158600000D03*
X120850000Y-158600000D03*
X134050000Y-164950000D03*
X120850000Y-164950000D03*
%TD*%
D10*
%TO.C,J2*%
X68750000Y-99870000D03*
D11*
X66210000Y-99870000D03*
X68750000Y-97330000D03*
X66210000Y-97330000D03*
X68750000Y-94790000D03*
X66210000Y-94790000D03*
X68750000Y-92250000D03*
X66210000Y-92250000D03*
%TD*%
D10*
%TO.C,J5*%
X152000000Y-92453334D03*
D11*
X149460000Y-92453334D03*
X152000000Y-89913334D03*
X149460000Y-89913334D03*
X152000000Y-87373334D03*
X149460000Y-87373334D03*
X152000000Y-84833334D03*
X149460000Y-84833334D03*
%TD*%
D12*
%TO.C,J7*%
X54750000Y-153450000D03*
D11*
X54750000Y-150910000D03*
X54750000Y-148370000D03*
X54750000Y-145830000D03*
X54750000Y-143290000D03*
X54750000Y-140750000D03*
X54750000Y-138210000D03*
X54750000Y-135670000D03*
%TD*%
D13*
%TO.C,K3*%
X134050000Y-45650000D03*
X129650000Y-45650000D03*
X125250000Y-45650000D03*
X120850000Y-45650000D03*
X134050000Y-49750000D03*
X129650000Y-49750000D03*
X125250000Y-49750000D03*
X120850000Y-49750000D03*
X134050000Y-56100000D03*
X129650000Y-56100000D03*
X125250000Y-56100000D03*
X120850000Y-56100000D03*
X134050000Y-62450000D03*
X120850000Y-62450000D03*
%TD*%
%TO.C,K2*%
X95490000Y-131000000D03*
X91090000Y-131000000D03*
X86690000Y-131000000D03*
X82290000Y-131000000D03*
X95490000Y-135100000D03*
X91090000Y-135100000D03*
X86690000Y-135100000D03*
X82290000Y-135100000D03*
X95490000Y-141450000D03*
X91090000Y-141450000D03*
X86690000Y-141450000D03*
X82290000Y-141450000D03*
X95490000Y-147800000D03*
X82290000Y-147800000D03*
%TD*%
D12*
%TO.C,J3*%
X54750000Y-106280000D03*
D11*
X54750000Y-103740000D03*
X54750000Y-101200000D03*
X54750000Y-98660000D03*
X54750000Y-96120000D03*
X54750000Y-93580000D03*
X54750000Y-91040000D03*
X54750000Y-88500000D03*
%TD*%
D16*
%TO.C,J15*%
X106940000Y-117130000D03*
D11*
X109480000Y-117130000D03*
X106940000Y-119670000D03*
X109480000Y-119670000D03*
X106940000Y-122210000D03*
X109480000Y-122210000D03*
X106940000Y-124750000D03*
X109480000Y-124750000D03*
%TD*%
D14*
%TO.C,D1*%
X104250000Y-106660000D03*
D15*
X104250000Y-96500000D03*
%TD*%
D12*
%TO.C,J10*%
X62340000Y-75250000D03*
D11*
X62340000Y-72710000D03*
X64880000Y-75250000D03*
X64880000Y-72710000D03*
X67420000Y-75250000D03*
X67420000Y-72710000D03*
X69960000Y-75250000D03*
X69960000Y-72710000D03*
X72500000Y-75250000D03*
X72500000Y-72710000D03*
%TD*%
D14*
%TO.C,D5*%
X142000000Y-127910000D03*
D15*
X142000000Y-117750000D03*
%TD*%
D14*
%TO.C,D4*%
X142000000Y-93743334D03*
D15*
X142000000Y-83583334D03*
%TD*%
D12*
%TO.C,J16*%
X95675000Y-72500000D03*
D11*
X98215000Y-72500000D03*
X100755000Y-72500000D03*
X103295000Y-72500000D03*
%TD*%
D14*
%TO.C,D2*%
X104250000Y-144910000D03*
D15*
X104250000Y-134750000D03*
%TD*%
D12*
%TO.C,J12*%
X90470000Y-166600000D03*
D11*
X93010000Y-166600000D03*
X95550000Y-166600000D03*
X98090000Y-166600000D03*
X100630000Y-166600000D03*
X103170000Y-166600000D03*
X105710000Y-166600000D03*
X108250000Y-166600000D03*
%TD*%
D17*
%TO.C,J9*%
X95675000Y-51040000D03*
D11*
X95675000Y-48500000D03*
X98215000Y-51040000D03*
X98215000Y-48500000D03*
X100755000Y-51040000D03*
X100755000Y-48500000D03*
X103295000Y-51040000D03*
X103295000Y-48500000D03*
%TD*%
D10*
%TO.C,J8*%
X152000000Y-160786667D03*
D11*
X149460000Y-160786667D03*
X152000000Y-158246667D03*
X149460000Y-158246667D03*
X152000000Y-155706667D03*
X149460000Y-155706667D03*
X152000000Y-153166667D03*
X149460000Y-153166667D03*
%TD*%
M02*
