%TF.GenerationSoftware,KiCad,Pcbnew,9.0.3-9.0.3-0~ubuntu24.04.1*%
%TF.CreationDate,2026-04-09T11:18:39+03:00*%
%TF.ProjectId,decoder,6465636f-6465-4722-9e6b-696361645f70,rev?*%
%TF.SameCoordinates,Original*%
%TF.FileFunction,Legend,Top*%
%TF.FilePolarity,Positive*%
%FSLAX46Y46*%
G04 Gerber Fmt 4.6, Leading zero omitted, Abs format (unit mm)*
G04 Created by KiCad (PCBNEW 9.0.3-9.0.3-0~ubuntu24.04.1) date 2026-04-09 11:18:39*
%MOMM*%
%LPD*%
G01*
G04 APERTURE LIST*
%ADD10C,0.100000*%
%ADD11C,0.375000*%
%ADD12C,0.187500*%
%ADD13C,0.625000*%
%ADD14C,0.120000*%
G04 APERTURE END LIST*
D10*
X66750000Y-135500000D02*
X66750000Y-119250000D01*
X86250000Y-85750000D02*
X87000000Y-85000000D01*
X66750000Y-119250000D02*
X75000000Y-119250000D01*
X69750000Y-135500000D02*
X69750000Y-122250000D01*
X75000000Y-117000000D02*
X76250000Y-120000000D01*
X68250000Y-120750000D02*
X75000000Y-120750000D01*
X69750000Y-122250000D02*
X75000000Y-122250000D01*
X86250000Y-85750000D02*
X85500000Y-85000000D01*
X75500000Y-73750000D02*
X86250000Y-73750000D01*
X68250000Y-135500000D02*
X68250000Y-120750000D01*
X86250000Y-73750000D02*
X86250000Y-85750000D01*
X65250000Y-117750000D02*
X75000000Y-117750000D01*
X76250000Y-120000000D02*
X75000000Y-123000000D01*
X65250000Y-135500000D02*
X65250000Y-117750000D01*
D11*
X83460995Y-122113357D02*
X83460995Y-119113357D01*
X83460995Y-119113357D02*
X84175281Y-119113357D01*
X84175281Y-119113357D02*
X84603852Y-119256214D01*
X84603852Y-119256214D02*
X84889567Y-119541928D01*
X84889567Y-119541928D02*
X85032424Y-119827642D01*
X85032424Y-119827642D02*
X85175281Y-120399071D01*
X85175281Y-120399071D02*
X85175281Y-120827642D01*
X85175281Y-120827642D02*
X85032424Y-121399071D01*
X85032424Y-121399071D02*
X84889567Y-121684785D01*
X84889567Y-121684785D02*
X84603852Y-121970500D01*
X84603852Y-121970500D02*
X84175281Y-122113357D01*
X84175281Y-122113357D02*
X83460995Y-122113357D01*
X87603852Y-121970500D02*
X87318138Y-122113357D01*
X87318138Y-122113357D02*
X86746710Y-122113357D01*
X86746710Y-122113357D02*
X86460995Y-121970500D01*
X86460995Y-121970500D02*
X86318138Y-121684785D01*
X86318138Y-121684785D02*
X86318138Y-120541928D01*
X86318138Y-120541928D02*
X86460995Y-120256214D01*
X86460995Y-120256214D02*
X86746710Y-120113357D01*
X86746710Y-120113357D02*
X87318138Y-120113357D01*
X87318138Y-120113357D02*
X87603852Y-120256214D01*
X87603852Y-120256214D02*
X87746710Y-120541928D01*
X87746710Y-120541928D02*
X87746710Y-120827642D01*
X87746710Y-120827642D02*
X86318138Y-121113357D01*
X90318139Y-121970500D02*
X90032424Y-122113357D01*
X90032424Y-122113357D02*
X89460996Y-122113357D01*
X89460996Y-122113357D02*
X89175281Y-121970500D01*
X89175281Y-121970500D02*
X89032424Y-121827642D01*
X89032424Y-121827642D02*
X88889567Y-121541928D01*
X88889567Y-121541928D02*
X88889567Y-120684785D01*
X88889567Y-120684785D02*
X89032424Y-120399071D01*
X89032424Y-120399071D02*
X89175281Y-120256214D01*
X89175281Y-120256214D02*
X89460996Y-120113357D01*
X89460996Y-120113357D02*
X90032424Y-120113357D01*
X90032424Y-120113357D02*
X90318139Y-120256214D01*
X92032425Y-122113357D02*
X91746710Y-121970500D01*
X91746710Y-121970500D02*
X91603853Y-121827642D01*
X91603853Y-121827642D02*
X91460996Y-121541928D01*
X91460996Y-121541928D02*
X91460996Y-120684785D01*
X91460996Y-120684785D02*
X91603853Y-120399071D01*
X91603853Y-120399071D02*
X91746710Y-120256214D01*
X91746710Y-120256214D02*
X92032425Y-120113357D01*
X92032425Y-120113357D02*
X92460996Y-120113357D01*
X92460996Y-120113357D02*
X92746710Y-120256214D01*
X92746710Y-120256214D02*
X92889568Y-120399071D01*
X92889568Y-120399071D02*
X93032425Y-120684785D01*
X93032425Y-120684785D02*
X93032425Y-121541928D01*
X93032425Y-121541928D02*
X92889568Y-121827642D01*
X92889568Y-121827642D02*
X92746710Y-121970500D01*
X92746710Y-121970500D02*
X92460996Y-122113357D01*
X92460996Y-122113357D02*
X92032425Y-122113357D01*
X95603854Y-122113357D02*
X95603854Y-119113357D01*
X95603854Y-121970500D02*
X95318139Y-122113357D01*
X95318139Y-122113357D02*
X94746711Y-122113357D01*
X94746711Y-122113357D02*
X94460996Y-121970500D01*
X94460996Y-121970500D02*
X94318139Y-121827642D01*
X94318139Y-121827642D02*
X94175282Y-121541928D01*
X94175282Y-121541928D02*
X94175282Y-120684785D01*
X94175282Y-120684785D02*
X94318139Y-120399071D01*
X94318139Y-120399071D02*
X94460996Y-120256214D01*
X94460996Y-120256214D02*
X94746711Y-120113357D01*
X94746711Y-120113357D02*
X95318139Y-120113357D01*
X95318139Y-120113357D02*
X95603854Y-120256214D01*
X98175282Y-121970500D02*
X97889568Y-122113357D01*
X97889568Y-122113357D02*
X97318140Y-122113357D01*
X97318140Y-122113357D02*
X97032425Y-121970500D01*
X97032425Y-121970500D02*
X96889568Y-121684785D01*
X96889568Y-121684785D02*
X96889568Y-120541928D01*
X96889568Y-120541928D02*
X97032425Y-120256214D01*
X97032425Y-120256214D02*
X97318140Y-120113357D01*
X97318140Y-120113357D02*
X97889568Y-120113357D01*
X97889568Y-120113357D02*
X98175282Y-120256214D01*
X98175282Y-120256214D02*
X98318140Y-120541928D01*
X98318140Y-120541928D02*
X98318140Y-120827642D01*
X98318140Y-120827642D02*
X96889568Y-121113357D01*
X100889569Y-122113357D02*
X100889569Y-119113357D01*
X100889569Y-121970500D02*
X100603854Y-122113357D01*
X100603854Y-122113357D02*
X100032426Y-122113357D01*
X100032426Y-122113357D02*
X99746711Y-121970500D01*
X99746711Y-121970500D02*
X99603854Y-121827642D01*
X99603854Y-121827642D02*
X99460997Y-121541928D01*
X99460997Y-121541928D02*
X99460997Y-120684785D01*
X99460997Y-120684785D02*
X99603854Y-120399071D01*
X99603854Y-120399071D02*
X99746711Y-120256214D01*
X99746711Y-120256214D02*
X100032426Y-120113357D01*
X100032426Y-120113357D02*
X100603854Y-120113357D01*
X100603854Y-120113357D02*
X100889569Y-120256214D01*
D12*
X89730497Y-68056678D02*
X89730497Y-66556678D01*
X90444783Y-67056678D02*
X90444783Y-68056678D01*
X90444783Y-67199535D02*
X90516212Y-67128107D01*
X90516212Y-67128107D02*
X90659069Y-67056678D01*
X90659069Y-67056678D02*
X90873355Y-67056678D01*
X90873355Y-67056678D02*
X91016212Y-67128107D01*
X91016212Y-67128107D02*
X91087641Y-67270964D01*
X91087641Y-67270964D02*
X91087641Y-68056678D01*
D13*
X55601660Y-44855595D02*
X55601660Y-39855595D01*
X55601660Y-39855595D02*
X56792136Y-39855595D01*
X56792136Y-39855595D02*
X57506422Y-40093690D01*
X57506422Y-40093690D02*
X57982612Y-40569880D01*
X57982612Y-40569880D02*
X58220707Y-41046071D01*
X58220707Y-41046071D02*
X58458803Y-41998452D01*
X58458803Y-41998452D02*
X58458803Y-42712738D01*
X58458803Y-42712738D02*
X58220707Y-43665119D01*
X58220707Y-43665119D02*
X57982612Y-44141309D01*
X57982612Y-44141309D02*
X57506422Y-44617500D01*
X57506422Y-44617500D02*
X56792136Y-44855595D01*
X56792136Y-44855595D02*
X55601660Y-44855595D01*
X62506422Y-44617500D02*
X62030231Y-44855595D01*
X62030231Y-44855595D02*
X61077850Y-44855595D01*
X61077850Y-44855595D02*
X60601660Y-44617500D01*
X60601660Y-44617500D02*
X60363564Y-44141309D01*
X60363564Y-44141309D02*
X60363564Y-42236547D01*
X60363564Y-42236547D02*
X60601660Y-41760357D01*
X60601660Y-41760357D02*
X61077850Y-41522261D01*
X61077850Y-41522261D02*
X62030231Y-41522261D01*
X62030231Y-41522261D02*
X62506422Y-41760357D01*
X62506422Y-41760357D02*
X62744517Y-42236547D01*
X62744517Y-42236547D02*
X62744517Y-42712738D01*
X62744517Y-42712738D02*
X60363564Y-43188928D01*
X67030231Y-44617500D02*
X66554040Y-44855595D01*
X66554040Y-44855595D02*
X65601659Y-44855595D01*
X65601659Y-44855595D02*
X65125469Y-44617500D01*
X65125469Y-44617500D02*
X64887374Y-44379404D01*
X64887374Y-44379404D02*
X64649278Y-43903214D01*
X64649278Y-43903214D02*
X64649278Y-42474642D01*
X64649278Y-42474642D02*
X64887374Y-41998452D01*
X64887374Y-41998452D02*
X65125469Y-41760357D01*
X65125469Y-41760357D02*
X65601659Y-41522261D01*
X65601659Y-41522261D02*
X66554040Y-41522261D01*
X66554040Y-41522261D02*
X67030231Y-41760357D01*
X69887373Y-44855595D02*
X69411183Y-44617500D01*
X69411183Y-44617500D02*
X69173088Y-44379404D01*
X69173088Y-44379404D02*
X68934992Y-43903214D01*
X68934992Y-43903214D02*
X68934992Y-42474642D01*
X68934992Y-42474642D02*
X69173088Y-41998452D01*
X69173088Y-41998452D02*
X69411183Y-41760357D01*
X69411183Y-41760357D02*
X69887373Y-41522261D01*
X69887373Y-41522261D02*
X70601659Y-41522261D01*
X70601659Y-41522261D02*
X71077850Y-41760357D01*
X71077850Y-41760357D02*
X71315945Y-41998452D01*
X71315945Y-41998452D02*
X71554040Y-42474642D01*
X71554040Y-42474642D02*
X71554040Y-43903214D01*
X71554040Y-43903214D02*
X71315945Y-44379404D01*
X71315945Y-44379404D02*
X71077850Y-44617500D01*
X71077850Y-44617500D02*
X70601659Y-44855595D01*
X70601659Y-44855595D02*
X69887373Y-44855595D01*
X75839755Y-44855595D02*
X75839755Y-39855595D01*
X75839755Y-44617500D02*
X75363564Y-44855595D01*
X75363564Y-44855595D02*
X74411183Y-44855595D01*
X74411183Y-44855595D02*
X73934993Y-44617500D01*
X73934993Y-44617500D02*
X73696898Y-44379404D01*
X73696898Y-44379404D02*
X73458802Y-43903214D01*
X73458802Y-43903214D02*
X73458802Y-42474642D01*
X73458802Y-42474642D02*
X73696898Y-41998452D01*
X73696898Y-41998452D02*
X73934993Y-41760357D01*
X73934993Y-41760357D02*
X74411183Y-41522261D01*
X74411183Y-41522261D02*
X75363564Y-41522261D01*
X75363564Y-41522261D02*
X75839755Y-41760357D01*
X80125470Y-44617500D02*
X79649279Y-44855595D01*
X79649279Y-44855595D02*
X78696898Y-44855595D01*
X78696898Y-44855595D02*
X78220708Y-44617500D01*
X78220708Y-44617500D02*
X77982612Y-44141309D01*
X77982612Y-44141309D02*
X77982612Y-42236547D01*
X77982612Y-42236547D02*
X78220708Y-41760357D01*
X78220708Y-41760357D02*
X78696898Y-41522261D01*
X78696898Y-41522261D02*
X79649279Y-41522261D01*
X79649279Y-41522261D02*
X80125470Y-41760357D01*
X80125470Y-41760357D02*
X80363565Y-42236547D01*
X80363565Y-42236547D02*
X80363565Y-42712738D01*
X80363565Y-42712738D02*
X77982612Y-43188928D01*
X82506422Y-44855595D02*
X82506422Y-41522261D01*
X82506422Y-42474642D02*
X82744517Y-41998452D01*
X82744517Y-41998452D02*
X82982612Y-41760357D01*
X82982612Y-41760357D02*
X83458803Y-41522261D01*
X83458803Y-41522261D02*
X83934993Y-41522261D01*
D12*
X90016212Y-69056678D02*
X90301926Y-69056678D01*
X90301926Y-69056678D02*
X90444783Y-69128107D01*
X90444783Y-69128107D02*
X90587640Y-69270964D01*
X90587640Y-69270964D02*
X90659069Y-69556678D01*
X90659069Y-69556678D02*
X90659069Y-70056678D01*
X90659069Y-70056678D02*
X90587640Y-70342392D01*
X90587640Y-70342392D02*
X90444783Y-70485250D01*
X90444783Y-70485250D02*
X90301926Y-70556678D01*
X90301926Y-70556678D02*
X90016212Y-70556678D01*
X90016212Y-70556678D02*
X89873355Y-70485250D01*
X89873355Y-70485250D02*
X89730497Y-70342392D01*
X89730497Y-70342392D02*
X89659069Y-70056678D01*
X89659069Y-70056678D02*
X89659069Y-69556678D01*
X89659069Y-69556678D02*
X89730497Y-69270964D01*
X89730497Y-69270964D02*
X89873355Y-69128107D01*
X89873355Y-69128107D02*
X90016212Y-69056678D01*
X91944784Y-69556678D02*
X91944784Y-70556678D01*
X91301926Y-69556678D02*
X91301926Y-70342392D01*
X91301926Y-70342392D02*
X91373355Y-70485250D01*
X91373355Y-70485250D02*
X91516212Y-70556678D01*
X91516212Y-70556678D02*
X91730498Y-70556678D01*
X91730498Y-70556678D02*
X91873355Y-70485250D01*
X91873355Y-70485250D02*
X91944784Y-70413821D01*
X92444784Y-69556678D02*
X93016212Y-69556678D01*
X92659069Y-69056678D02*
X92659069Y-70342392D01*
X92659069Y-70342392D02*
X92730498Y-70485250D01*
X92730498Y-70485250D02*
X92873355Y-70556678D01*
X92873355Y-70556678D02*
X93016212Y-70556678D01*
X72047640Y-77806678D02*
X72976212Y-77806678D01*
X72976212Y-77806678D02*
X72476212Y-78378107D01*
X72476212Y-78378107D02*
X72690497Y-78378107D01*
X72690497Y-78378107D02*
X72833355Y-78449535D01*
X72833355Y-78449535D02*
X72904783Y-78520964D01*
X72904783Y-78520964D02*
X72976212Y-78663821D01*
X72976212Y-78663821D02*
X72976212Y-79020964D01*
X72976212Y-79020964D02*
X72904783Y-79163821D01*
X72904783Y-79163821D02*
X72833355Y-79235250D01*
X72833355Y-79235250D02*
X72690497Y-79306678D01*
X72690497Y-79306678D02*
X72261926Y-79306678D01*
X72261926Y-79306678D02*
X72119069Y-79235250D01*
X72119069Y-79235250D02*
X72047640Y-79163821D01*
D13*
X149720707Y-145605595D02*
X146863564Y-145605595D01*
X148292136Y-145605595D02*
X148292136Y-140605595D01*
X148292136Y-140605595D02*
X147815945Y-141319880D01*
X147815945Y-141319880D02*
X147339755Y-141796071D01*
X147339755Y-141796071D02*
X146863564Y-142034166D01*
X154482612Y-145605595D02*
X151625469Y-145605595D01*
X153054041Y-145605595D02*
X153054041Y-140605595D01*
X153054041Y-140605595D02*
X152577850Y-141319880D01*
X152577850Y-141319880D02*
X152101660Y-141796071D01*
X152101660Y-141796071D02*
X151625469Y-142034166D01*
D12*
X69369069Y-77949535D02*
X69440497Y-77878107D01*
X69440497Y-77878107D02*
X69583355Y-77806678D01*
X69583355Y-77806678D02*
X69940497Y-77806678D01*
X69940497Y-77806678D02*
X70083355Y-77878107D01*
X70083355Y-77878107D02*
X70154783Y-77949535D01*
X70154783Y-77949535D02*
X70226212Y-78092392D01*
X70226212Y-78092392D02*
X70226212Y-78235250D01*
X70226212Y-78235250D02*
X70154783Y-78449535D01*
X70154783Y-78449535D02*
X69297640Y-79306678D01*
X69297640Y-79306678D02*
X70226212Y-79306678D01*
X67726212Y-79306678D02*
X66869069Y-79306678D01*
X67297640Y-79306678D02*
X67297640Y-77806678D01*
X67297640Y-77806678D02*
X67154783Y-78020964D01*
X67154783Y-78020964D02*
X67011926Y-78163821D01*
X67011926Y-78163821D02*
X66869069Y-78235250D01*
D11*
X60778138Y-68970500D02*
X61206710Y-69113357D01*
X61206710Y-69113357D02*
X61920995Y-69113357D01*
X61920995Y-69113357D02*
X62206710Y-68970500D01*
X62206710Y-68970500D02*
X62349567Y-68827642D01*
X62349567Y-68827642D02*
X62492424Y-68541928D01*
X62492424Y-68541928D02*
X62492424Y-68256214D01*
X62492424Y-68256214D02*
X62349567Y-67970500D01*
X62349567Y-67970500D02*
X62206710Y-67827642D01*
X62206710Y-67827642D02*
X61920995Y-67684785D01*
X61920995Y-67684785D02*
X61349567Y-67541928D01*
X61349567Y-67541928D02*
X61063852Y-67399071D01*
X61063852Y-67399071D02*
X60920995Y-67256214D01*
X60920995Y-67256214D02*
X60778138Y-66970500D01*
X60778138Y-66970500D02*
X60778138Y-66684785D01*
X60778138Y-66684785D02*
X60920995Y-66399071D01*
X60920995Y-66399071D02*
X61063852Y-66256214D01*
X61063852Y-66256214D02*
X61349567Y-66113357D01*
X61349567Y-66113357D02*
X62063852Y-66113357D01*
X62063852Y-66113357D02*
X62492424Y-66256214D01*
X64920995Y-68970500D02*
X64635281Y-69113357D01*
X64635281Y-69113357D02*
X64063853Y-69113357D01*
X64063853Y-69113357D02*
X63778138Y-68970500D01*
X63778138Y-68970500D02*
X63635281Y-68684785D01*
X63635281Y-68684785D02*
X63635281Y-67541928D01*
X63635281Y-67541928D02*
X63778138Y-67256214D01*
X63778138Y-67256214D02*
X64063853Y-67113357D01*
X64063853Y-67113357D02*
X64635281Y-67113357D01*
X64635281Y-67113357D02*
X64920995Y-67256214D01*
X64920995Y-67256214D02*
X65063853Y-67541928D01*
X65063853Y-67541928D02*
X65063853Y-67827642D01*
X65063853Y-67827642D02*
X63635281Y-68113357D01*
X66778139Y-69113357D02*
X66492424Y-68970500D01*
X66492424Y-68970500D02*
X66349567Y-68684785D01*
X66349567Y-68684785D02*
X66349567Y-66113357D01*
X69063853Y-68970500D02*
X68778139Y-69113357D01*
X68778139Y-69113357D02*
X68206711Y-69113357D01*
X68206711Y-69113357D02*
X67920996Y-68970500D01*
X67920996Y-68970500D02*
X67778139Y-68684785D01*
X67778139Y-68684785D02*
X67778139Y-67541928D01*
X67778139Y-67541928D02*
X67920996Y-67256214D01*
X67920996Y-67256214D02*
X68206711Y-67113357D01*
X68206711Y-67113357D02*
X68778139Y-67113357D01*
X68778139Y-67113357D02*
X69063853Y-67256214D01*
X69063853Y-67256214D02*
X69206711Y-67541928D01*
X69206711Y-67541928D02*
X69206711Y-67827642D01*
X69206711Y-67827642D02*
X67778139Y-68113357D01*
X71778140Y-68970500D02*
X71492425Y-69113357D01*
X71492425Y-69113357D02*
X70920997Y-69113357D01*
X70920997Y-69113357D02*
X70635282Y-68970500D01*
X70635282Y-68970500D02*
X70492425Y-68827642D01*
X70492425Y-68827642D02*
X70349568Y-68541928D01*
X70349568Y-68541928D02*
X70349568Y-67684785D01*
X70349568Y-67684785D02*
X70492425Y-67399071D01*
X70492425Y-67399071D02*
X70635282Y-67256214D01*
X70635282Y-67256214D02*
X70920997Y-67113357D01*
X70920997Y-67113357D02*
X71492425Y-67113357D01*
X71492425Y-67113357D02*
X71778140Y-67256214D01*
X72635283Y-67113357D02*
X73778140Y-67113357D01*
X73063854Y-66113357D02*
X73063854Y-68684785D01*
X73063854Y-68684785D02*
X73206711Y-68970500D01*
X73206711Y-68970500D02*
X73492426Y-69113357D01*
X73492426Y-69113357D02*
X73778140Y-69113357D01*
D12*
X102837640Y-63056678D02*
X103766212Y-63056678D01*
X103766212Y-63056678D02*
X103266212Y-63628107D01*
X103266212Y-63628107D02*
X103480497Y-63628107D01*
X103480497Y-63628107D02*
X103623355Y-63699535D01*
X103623355Y-63699535D02*
X103694783Y-63770964D01*
X103694783Y-63770964D02*
X103766212Y-63913821D01*
X103766212Y-63913821D02*
X103766212Y-64270964D01*
X103766212Y-64270964D02*
X103694783Y-64413821D01*
X103694783Y-64413821D02*
X103623355Y-64485250D01*
X103623355Y-64485250D02*
X103480497Y-64556678D01*
X103480497Y-64556678D02*
X103051926Y-64556678D01*
X103051926Y-64556678D02*
X102909069Y-64485250D01*
X102909069Y-64485250D02*
X102837640Y-64413821D01*
X64726212Y-77806678D02*
X64869069Y-77806678D01*
X64869069Y-77806678D02*
X65011926Y-77878107D01*
X65011926Y-77878107D02*
X65083355Y-77949535D01*
X65083355Y-77949535D02*
X65154783Y-78092392D01*
X65154783Y-78092392D02*
X65226212Y-78378107D01*
X65226212Y-78378107D02*
X65226212Y-78735250D01*
X65226212Y-78735250D02*
X65154783Y-79020964D01*
X65154783Y-79020964D02*
X65083355Y-79163821D01*
X65083355Y-79163821D02*
X65011926Y-79235250D01*
X65011926Y-79235250D02*
X64869069Y-79306678D01*
X64869069Y-79306678D02*
X64726212Y-79306678D01*
X64726212Y-79306678D02*
X64583355Y-79235250D01*
X64583355Y-79235250D02*
X64511926Y-79163821D01*
X64511926Y-79163821D02*
X64440497Y-79020964D01*
X64440497Y-79020964D02*
X64369069Y-78735250D01*
X64369069Y-78735250D02*
X64369069Y-78378107D01*
X64369069Y-78378107D02*
X64440497Y-78092392D01*
X64440497Y-78092392D02*
X64511926Y-77949535D01*
X64511926Y-77949535D02*
X64583355Y-77878107D01*
X64583355Y-77878107D02*
X64726212Y-77806678D01*
X60440497Y-78735250D02*
X61583355Y-78735250D01*
X61011926Y-79306678D02*
X61011926Y-78163821D01*
X62083355Y-77806678D02*
X62583355Y-79306678D01*
X62583355Y-79306678D02*
X63083355Y-77806678D01*
D13*
X148054041Y-38355595D02*
X148530231Y-38355595D01*
X148530231Y-38355595D02*
X149006422Y-38593690D01*
X149006422Y-38593690D02*
X149244517Y-38831785D01*
X149244517Y-38831785D02*
X149482612Y-39307976D01*
X149482612Y-39307976D02*
X149720707Y-40260357D01*
X149720707Y-40260357D02*
X149720707Y-41450833D01*
X149720707Y-41450833D02*
X149482612Y-42403214D01*
X149482612Y-42403214D02*
X149244517Y-42879404D01*
X149244517Y-42879404D02*
X149006422Y-43117500D01*
X149006422Y-43117500D02*
X148530231Y-43355595D01*
X148530231Y-43355595D02*
X148054041Y-43355595D01*
X148054041Y-43355595D02*
X147577850Y-43117500D01*
X147577850Y-43117500D02*
X147339755Y-42879404D01*
X147339755Y-42879404D02*
X147101660Y-42403214D01*
X147101660Y-42403214D02*
X146863564Y-41450833D01*
X146863564Y-41450833D02*
X146863564Y-40260357D01*
X146863564Y-40260357D02*
X147101660Y-39307976D01*
X147101660Y-39307976D02*
X147339755Y-38831785D01*
X147339755Y-38831785D02*
X147577850Y-38593690D01*
X147577850Y-38593690D02*
X148054041Y-38355595D01*
X152815946Y-38355595D02*
X153292136Y-38355595D01*
X153292136Y-38355595D02*
X153768327Y-38593690D01*
X153768327Y-38593690D02*
X154006422Y-38831785D01*
X154006422Y-38831785D02*
X154244517Y-39307976D01*
X154244517Y-39307976D02*
X154482612Y-40260357D01*
X154482612Y-40260357D02*
X154482612Y-41450833D01*
X154482612Y-41450833D02*
X154244517Y-42403214D01*
X154244517Y-42403214D02*
X154006422Y-42879404D01*
X154006422Y-42879404D02*
X153768327Y-43117500D01*
X153768327Y-43117500D02*
X153292136Y-43355595D01*
X153292136Y-43355595D02*
X152815946Y-43355595D01*
X152815946Y-43355595D02*
X152339755Y-43117500D01*
X152339755Y-43117500D02*
X152101660Y-42879404D01*
X152101660Y-42879404D02*
X151863565Y-42403214D01*
X151863565Y-42403214D02*
X151625469Y-41450833D01*
X151625469Y-41450833D02*
X151625469Y-40260357D01*
X151625469Y-40260357D02*
X151863565Y-39307976D01*
X151863565Y-39307976D02*
X152101660Y-38831785D01*
X152101660Y-38831785D02*
X152339755Y-38593690D01*
X152339755Y-38593690D02*
X152815946Y-38355595D01*
D12*
X56976212Y-71806678D02*
X57261926Y-71806678D01*
X57261926Y-71806678D02*
X57404783Y-71878107D01*
X57404783Y-71878107D02*
X57547640Y-72020964D01*
X57547640Y-72020964D02*
X57619069Y-72306678D01*
X57619069Y-72306678D02*
X57619069Y-72806678D01*
X57619069Y-72806678D02*
X57547640Y-73092392D01*
X57547640Y-73092392D02*
X57404783Y-73235250D01*
X57404783Y-73235250D02*
X57261926Y-73306678D01*
X57261926Y-73306678D02*
X56976212Y-73306678D01*
X56976212Y-73306678D02*
X56833355Y-73235250D01*
X56833355Y-73235250D02*
X56690497Y-73092392D01*
X56690497Y-73092392D02*
X56619069Y-72806678D01*
X56619069Y-72806678D02*
X56619069Y-72306678D01*
X56619069Y-72306678D02*
X56690497Y-72020964D01*
X56690497Y-72020964D02*
X56833355Y-71878107D01*
X56833355Y-71878107D02*
X56976212Y-71806678D01*
X58904784Y-72306678D02*
X58904784Y-73306678D01*
X58261926Y-72306678D02*
X58261926Y-73092392D01*
X58261926Y-73092392D02*
X58333355Y-73235250D01*
X58333355Y-73235250D02*
X58476212Y-73306678D01*
X58476212Y-73306678D02*
X58690498Y-73306678D01*
X58690498Y-73306678D02*
X58833355Y-73235250D01*
X58833355Y-73235250D02*
X58904784Y-73163821D01*
X59404784Y-72306678D02*
X59976212Y-72306678D01*
X59619069Y-71806678D02*
X59619069Y-73092392D01*
X59619069Y-73092392D02*
X59690498Y-73235250D01*
X59690498Y-73235250D02*
X59833355Y-73306678D01*
X59833355Y-73306678D02*
X59976212Y-73306678D01*
X89730497Y-72735250D02*
X90873355Y-72735250D01*
X90301926Y-73306678D02*
X90301926Y-72163821D01*
X91373355Y-71806678D02*
X91873355Y-73306678D01*
X91873355Y-73306678D02*
X92373355Y-71806678D01*
D11*
X97210995Y-58041928D02*
X97639567Y-58184785D01*
X97639567Y-58184785D02*
X97782424Y-58327642D01*
X97782424Y-58327642D02*
X97925281Y-58613357D01*
X97925281Y-58613357D02*
X97925281Y-59041928D01*
X97925281Y-59041928D02*
X97782424Y-59327642D01*
X97782424Y-59327642D02*
X97639567Y-59470500D01*
X97639567Y-59470500D02*
X97353852Y-59613357D01*
X97353852Y-59613357D02*
X96210995Y-59613357D01*
X96210995Y-59613357D02*
X96210995Y-56613357D01*
X96210995Y-56613357D02*
X97210995Y-56613357D01*
X97210995Y-56613357D02*
X97496710Y-56756214D01*
X97496710Y-56756214D02*
X97639567Y-56899071D01*
X97639567Y-56899071D02*
X97782424Y-57184785D01*
X97782424Y-57184785D02*
X97782424Y-57470500D01*
X97782424Y-57470500D02*
X97639567Y-57756214D01*
X97639567Y-57756214D02*
X97496710Y-57899071D01*
X97496710Y-57899071D02*
X97210995Y-58041928D01*
X97210995Y-58041928D02*
X96210995Y-58041928D01*
X100496710Y-57613357D02*
X100496710Y-59613357D01*
X99210995Y-57613357D02*
X99210995Y-59184785D01*
X99210995Y-59184785D02*
X99353852Y-59470500D01*
X99353852Y-59470500D02*
X99639567Y-59613357D01*
X99639567Y-59613357D02*
X100068138Y-59613357D01*
X100068138Y-59613357D02*
X100353852Y-59470500D01*
X100353852Y-59470500D02*
X100496710Y-59327642D01*
X101782424Y-59470500D02*
X102068138Y-59613357D01*
X102068138Y-59613357D02*
X102639567Y-59613357D01*
X102639567Y-59613357D02*
X102925281Y-59470500D01*
X102925281Y-59470500D02*
X103068138Y-59184785D01*
X103068138Y-59184785D02*
X103068138Y-59041928D01*
X103068138Y-59041928D02*
X102925281Y-58756214D01*
X102925281Y-58756214D02*
X102639567Y-58613357D01*
X102639567Y-58613357D02*
X102210996Y-58613357D01*
X102210996Y-58613357D02*
X101925281Y-58470500D01*
X101925281Y-58470500D02*
X101782424Y-58184785D01*
X101782424Y-58184785D02*
X101782424Y-58041928D01*
X101782424Y-58041928D02*
X101925281Y-57756214D01*
X101925281Y-57756214D02*
X102210996Y-57613357D01*
X102210996Y-57613357D02*
X102639567Y-57613357D01*
X102639567Y-57613357D02*
X102925281Y-57756214D01*
D12*
X56690497Y-76056678D02*
X56690497Y-74556678D01*
X57404783Y-75056678D02*
X57404783Y-76056678D01*
X57404783Y-75199535D02*
X57476212Y-75128107D01*
X57476212Y-75128107D02*
X57619069Y-75056678D01*
X57619069Y-75056678D02*
X57833355Y-75056678D01*
X57833355Y-75056678D02*
X57976212Y-75128107D01*
X57976212Y-75128107D02*
X58047641Y-75270964D01*
X58047641Y-75270964D02*
X58047641Y-76056678D01*
X95516212Y-63056678D02*
X95659069Y-63056678D01*
X95659069Y-63056678D02*
X95801926Y-63128107D01*
X95801926Y-63128107D02*
X95873355Y-63199535D01*
X95873355Y-63199535D02*
X95944783Y-63342392D01*
X95944783Y-63342392D02*
X96016212Y-63628107D01*
X96016212Y-63628107D02*
X96016212Y-63985250D01*
X96016212Y-63985250D02*
X95944783Y-64270964D01*
X95944783Y-64270964D02*
X95873355Y-64413821D01*
X95873355Y-64413821D02*
X95801926Y-64485250D01*
X95801926Y-64485250D02*
X95659069Y-64556678D01*
X95659069Y-64556678D02*
X95516212Y-64556678D01*
X95516212Y-64556678D02*
X95373355Y-64485250D01*
X95373355Y-64485250D02*
X95301926Y-64413821D01*
X95301926Y-64413821D02*
X95230497Y-64270964D01*
X95230497Y-64270964D02*
X95159069Y-63985250D01*
X95159069Y-63985250D02*
X95159069Y-63628107D01*
X95159069Y-63628107D02*
X95230497Y-63342392D01*
X95230497Y-63342392D02*
X95301926Y-63199535D01*
X95301926Y-63199535D02*
X95373355Y-63128107D01*
X95373355Y-63128107D02*
X95516212Y-63056678D01*
X98516212Y-64556678D02*
X97659069Y-64556678D01*
X98087640Y-64556678D02*
X98087640Y-63056678D01*
X98087640Y-63056678D02*
X97944783Y-63270964D01*
X97944783Y-63270964D02*
X97801926Y-63413821D01*
X97801926Y-63413821D02*
X97659069Y-63485250D01*
X100159069Y-63199535D02*
X100230497Y-63128107D01*
X100230497Y-63128107D02*
X100373355Y-63056678D01*
X100373355Y-63056678D02*
X100730497Y-63056678D01*
X100730497Y-63056678D02*
X100873355Y-63128107D01*
X100873355Y-63128107D02*
X100944783Y-63199535D01*
X100944783Y-63199535D02*
X101016212Y-63342392D01*
X101016212Y-63342392D02*
X101016212Y-63485250D01*
X101016212Y-63485250D02*
X100944783Y-63699535D01*
X100944783Y-63699535D02*
X100087640Y-64556678D01*
X100087640Y-64556678D02*
X101016212Y-64556678D01*
D11*
X56068138Y-160756214D02*
X57496710Y-160756214D01*
X55782424Y-161613357D02*
X56782424Y-158613357D01*
X56782424Y-158613357D02*
X57782424Y-161613357D01*
X60068139Y-161613357D02*
X60068139Y-158613357D01*
X60068139Y-161470500D02*
X59782424Y-161613357D01*
X59782424Y-161613357D02*
X59210996Y-161613357D01*
X59210996Y-161613357D02*
X58925281Y-161470500D01*
X58925281Y-161470500D02*
X58782424Y-161327642D01*
X58782424Y-161327642D02*
X58639567Y-161041928D01*
X58639567Y-161041928D02*
X58639567Y-160184785D01*
X58639567Y-160184785D02*
X58782424Y-159899071D01*
X58782424Y-159899071D02*
X58925281Y-159756214D01*
X58925281Y-159756214D02*
X59210996Y-159613357D01*
X59210996Y-159613357D02*
X59782424Y-159613357D01*
X59782424Y-159613357D02*
X60068139Y-159756214D01*
X62782425Y-161613357D02*
X62782425Y-158613357D01*
X62782425Y-161470500D02*
X62496710Y-161613357D01*
X62496710Y-161613357D02*
X61925282Y-161613357D01*
X61925282Y-161613357D02*
X61639567Y-161470500D01*
X61639567Y-161470500D02*
X61496710Y-161327642D01*
X61496710Y-161327642D02*
X61353853Y-161041928D01*
X61353853Y-161041928D02*
X61353853Y-160184785D01*
X61353853Y-160184785D02*
X61496710Y-159899071D01*
X61496710Y-159899071D02*
X61639567Y-159756214D01*
X61639567Y-159756214D02*
X61925282Y-159613357D01*
X61925282Y-159613357D02*
X62496710Y-159613357D01*
X62496710Y-159613357D02*
X62782425Y-159756214D01*
X64210996Y-161613357D02*
X64210996Y-159613357D01*
X64210996Y-160184785D02*
X64353853Y-159899071D01*
X64353853Y-159899071D02*
X64496711Y-159756214D01*
X64496711Y-159756214D02*
X64782425Y-159613357D01*
X64782425Y-159613357D02*
X65068139Y-159613357D01*
X67210996Y-161470500D02*
X66925282Y-161613357D01*
X66925282Y-161613357D02*
X66353854Y-161613357D01*
X66353854Y-161613357D02*
X66068139Y-161470500D01*
X66068139Y-161470500D02*
X65925282Y-161184785D01*
X65925282Y-161184785D02*
X65925282Y-160041928D01*
X65925282Y-160041928D02*
X66068139Y-159756214D01*
X66068139Y-159756214D02*
X66353854Y-159613357D01*
X66353854Y-159613357D02*
X66925282Y-159613357D01*
X66925282Y-159613357D02*
X67210996Y-159756214D01*
X67210996Y-159756214D02*
X67353854Y-160041928D01*
X67353854Y-160041928D02*
X67353854Y-160327642D01*
X67353854Y-160327642D02*
X65925282Y-160613357D01*
X68496711Y-161470500D02*
X68782425Y-161613357D01*
X68782425Y-161613357D02*
X69353854Y-161613357D01*
X69353854Y-161613357D02*
X69639568Y-161470500D01*
X69639568Y-161470500D02*
X69782425Y-161184785D01*
X69782425Y-161184785D02*
X69782425Y-161041928D01*
X69782425Y-161041928D02*
X69639568Y-160756214D01*
X69639568Y-160756214D02*
X69353854Y-160613357D01*
X69353854Y-160613357D02*
X68925283Y-160613357D01*
X68925283Y-160613357D02*
X68639568Y-160470500D01*
X68639568Y-160470500D02*
X68496711Y-160184785D01*
X68496711Y-160184785D02*
X68496711Y-160041928D01*
X68496711Y-160041928D02*
X68639568Y-159756214D01*
X68639568Y-159756214D02*
X68925283Y-159613357D01*
X68925283Y-159613357D02*
X69353854Y-159613357D01*
X69353854Y-159613357D02*
X69639568Y-159756214D01*
X70925282Y-161470500D02*
X71210996Y-161613357D01*
X71210996Y-161613357D02*
X71782425Y-161613357D01*
X71782425Y-161613357D02*
X72068139Y-161470500D01*
X72068139Y-161470500D02*
X72210996Y-161184785D01*
X72210996Y-161184785D02*
X72210996Y-161041928D01*
X72210996Y-161041928D02*
X72068139Y-160756214D01*
X72068139Y-160756214D02*
X71782425Y-160613357D01*
X71782425Y-160613357D02*
X71353854Y-160613357D01*
X71353854Y-160613357D02*
X71068139Y-160470500D01*
X71068139Y-160470500D02*
X70925282Y-160184785D01*
X70925282Y-160184785D02*
X70925282Y-160041928D01*
X70925282Y-160041928D02*
X71068139Y-159756214D01*
X71068139Y-159756214D02*
X71353854Y-159613357D01*
X71353854Y-159613357D02*
X71782425Y-159613357D01*
X71782425Y-159613357D02*
X72068139Y-159756214D01*
D13*
X149720707Y-111605595D02*
X146863564Y-111605595D01*
X148292136Y-111605595D02*
X148292136Y-106605595D01*
X148292136Y-106605595D02*
X147815945Y-107319880D01*
X147815945Y-107319880D02*
X147339755Y-107796071D01*
X147339755Y-107796071D02*
X146863564Y-108034166D01*
X152815946Y-106605595D02*
X153292136Y-106605595D01*
X153292136Y-106605595D02*
X153768327Y-106843690D01*
X153768327Y-106843690D02*
X154006422Y-107081785D01*
X154006422Y-107081785D02*
X154244517Y-107557976D01*
X154244517Y-107557976D02*
X154482612Y-108510357D01*
X154482612Y-108510357D02*
X154482612Y-109700833D01*
X154482612Y-109700833D02*
X154244517Y-110653214D01*
X154244517Y-110653214D02*
X154006422Y-111129404D01*
X154006422Y-111129404D02*
X153768327Y-111367500D01*
X153768327Y-111367500D02*
X153292136Y-111605595D01*
X153292136Y-111605595D02*
X152815946Y-111605595D01*
X152815946Y-111605595D02*
X152339755Y-111367500D01*
X152339755Y-111367500D02*
X152101660Y-111129404D01*
X152101660Y-111129404D02*
X151863565Y-110653214D01*
X151863565Y-110653214D02*
X151625469Y-109700833D01*
X151625469Y-109700833D02*
X151625469Y-108510357D01*
X151625469Y-108510357D02*
X151863565Y-107557976D01*
X151863565Y-107557976D02*
X152101660Y-107081785D01*
X152101660Y-107081785D02*
X152339755Y-106843690D01*
X152339755Y-106843690D02*
X152815946Y-106605595D01*
X148054041Y-72355595D02*
X148530231Y-72355595D01*
X148530231Y-72355595D02*
X149006422Y-72593690D01*
X149006422Y-72593690D02*
X149244517Y-72831785D01*
X149244517Y-72831785D02*
X149482612Y-73307976D01*
X149482612Y-73307976D02*
X149720707Y-74260357D01*
X149720707Y-74260357D02*
X149720707Y-75450833D01*
X149720707Y-75450833D02*
X149482612Y-76403214D01*
X149482612Y-76403214D02*
X149244517Y-76879404D01*
X149244517Y-76879404D02*
X149006422Y-77117500D01*
X149006422Y-77117500D02*
X148530231Y-77355595D01*
X148530231Y-77355595D02*
X148054041Y-77355595D01*
X148054041Y-77355595D02*
X147577850Y-77117500D01*
X147577850Y-77117500D02*
X147339755Y-76879404D01*
X147339755Y-76879404D02*
X147101660Y-76403214D01*
X147101660Y-76403214D02*
X146863564Y-75450833D01*
X146863564Y-75450833D02*
X146863564Y-74260357D01*
X146863564Y-74260357D02*
X147101660Y-73307976D01*
X147101660Y-73307976D02*
X147339755Y-72831785D01*
X147339755Y-72831785D02*
X147577850Y-72593690D01*
X147577850Y-72593690D02*
X148054041Y-72355595D01*
X154482612Y-77355595D02*
X151625469Y-77355595D01*
X153054041Y-77355595D02*
X153054041Y-72355595D01*
X153054041Y-72355595D02*
X152577850Y-73069880D01*
X152577850Y-73069880D02*
X152101660Y-73546071D01*
X152101660Y-73546071D02*
X151625469Y-73784166D01*
D10*
X118111905Y-107440752D02*
X118111905Y-106440752D01*
X118683333Y-107440752D02*
X118254762Y-106869323D01*
X118683333Y-106440752D02*
X118111905Y-107012180D01*
X119588095Y-106440752D02*
X119111905Y-106440752D01*
X119111905Y-106440752D02*
X119064286Y-106916942D01*
X119064286Y-106916942D02*
X119111905Y-106869323D01*
X119111905Y-106869323D02*
X119207143Y-106821704D01*
X119207143Y-106821704D02*
X119445238Y-106821704D01*
X119445238Y-106821704D02*
X119540476Y-106869323D01*
X119540476Y-106869323D02*
X119588095Y-106916942D01*
X119588095Y-106916942D02*
X119635714Y-107012180D01*
X119635714Y-107012180D02*
X119635714Y-107250275D01*
X119635714Y-107250275D02*
X119588095Y-107345513D01*
X119588095Y-107345513D02*
X119540476Y-107393133D01*
X119540476Y-107393133D02*
X119445238Y-107440752D01*
X119445238Y-107440752D02*
X119207143Y-107440752D01*
X119207143Y-107440752D02*
X119111905Y-107393133D01*
X119111905Y-107393133D02*
X119064286Y-107345513D01*
X79551905Y-86207419D02*
X79551905Y-85207419D01*
X80123333Y-86207419D02*
X79694762Y-85635990D01*
X80123333Y-85207419D02*
X79551905Y-85778847D01*
X81075714Y-86207419D02*
X80504286Y-86207419D01*
X80790000Y-86207419D02*
X80790000Y-85207419D01*
X80790000Y-85207419D02*
X80694762Y-85350276D01*
X80694762Y-85350276D02*
X80599524Y-85445514D01*
X80599524Y-85445514D02*
X80504286Y-85493133D01*
X118011905Y-73207419D02*
X118011905Y-72207419D01*
X118583333Y-73207419D02*
X118154762Y-72635990D01*
X118583333Y-72207419D02*
X118011905Y-72778847D01*
X119440476Y-72540752D02*
X119440476Y-73207419D01*
X119202381Y-72159800D02*
X118964286Y-72874085D01*
X118964286Y-72874085D02*
X119583333Y-72874085D01*
X118111905Y-141607419D02*
X118111905Y-140607419D01*
X118683333Y-141607419D02*
X118254762Y-141035990D01*
X118683333Y-140607419D02*
X118111905Y-141178847D01*
X119540476Y-140607419D02*
X119350000Y-140607419D01*
X119350000Y-140607419D02*
X119254762Y-140655038D01*
X119254762Y-140655038D02*
X119207143Y-140702657D01*
X119207143Y-140702657D02*
X119111905Y-140845514D01*
X119111905Y-140845514D02*
X119064286Y-141035990D01*
X119064286Y-141035990D02*
X119064286Y-141416942D01*
X119064286Y-141416942D02*
X119111905Y-141512180D01*
X119111905Y-141512180D02*
X119159524Y-141559800D01*
X119159524Y-141559800D02*
X119254762Y-141607419D01*
X119254762Y-141607419D02*
X119445238Y-141607419D01*
X119445238Y-141607419D02*
X119540476Y-141559800D01*
X119540476Y-141559800D02*
X119588095Y-141512180D01*
X119588095Y-141512180D02*
X119635714Y-141416942D01*
X119635714Y-141416942D02*
X119635714Y-141178847D01*
X119635714Y-141178847D02*
X119588095Y-141083609D01*
X119588095Y-141083609D02*
X119540476Y-141035990D01*
X119540476Y-141035990D02*
X119445238Y-140988371D01*
X119445238Y-140988371D02*
X119254762Y-140988371D01*
X119254762Y-140988371D02*
X119159524Y-141035990D01*
X119159524Y-141035990D02*
X119111905Y-141083609D01*
X119111905Y-141083609D02*
X119064286Y-141178847D01*
X118111905Y-39107419D02*
X118111905Y-38107419D01*
X118683333Y-39107419D02*
X118254762Y-38535990D01*
X118683333Y-38107419D02*
X118111905Y-38678847D01*
X119016667Y-38107419D02*
X119635714Y-38107419D01*
X119635714Y-38107419D02*
X119302381Y-38488371D01*
X119302381Y-38488371D02*
X119445238Y-38488371D01*
X119445238Y-38488371D02*
X119540476Y-38535990D01*
X119540476Y-38535990D02*
X119588095Y-38583609D01*
X119588095Y-38583609D02*
X119635714Y-38678847D01*
X119635714Y-38678847D02*
X119635714Y-38916942D01*
X119635714Y-38916942D02*
X119588095Y-39012180D01*
X119588095Y-39012180D02*
X119540476Y-39059800D01*
X119540476Y-39059800D02*
X119445238Y-39107419D01*
X119445238Y-39107419D02*
X119159524Y-39107419D01*
X119159524Y-39107419D02*
X119064286Y-39059800D01*
X119064286Y-39059800D02*
X119016667Y-39012180D01*
X79551905Y-124457419D02*
X79551905Y-123457419D01*
X80123333Y-124457419D02*
X79694762Y-123885990D01*
X80123333Y-123457419D02*
X79551905Y-124028847D01*
X80504286Y-123552657D02*
X80551905Y-123505038D01*
X80551905Y-123505038D02*
X80647143Y-123457419D01*
X80647143Y-123457419D02*
X80885238Y-123457419D01*
X80885238Y-123457419D02*
X80980476Y-123505038D01*
X80980476Y-123505038D02*
X81028095Y-123552657D01*
X81028095Y-123552657D02*
X81075714Y-123647895D01*
X81075714Y-123647895D02*
X81075714Y-123743133D01*
X81075714Y-123743133D02*
X81028095Y-123885990D01*
X81028095Y-123885990D02*
X80456667Y-124457419D01*
X80456667Y-124457419D02*
X81075714Y-124457419D01*
D14*
%TO.C,J4*%
X146170000Y-45456667D02*
X155290000Y-45456667D01*
X146170000Y-63496667D02*
X146170000Y-45456667D01*
X147480000Y-46756667D02*
X153980000Y-46756667D01*
X147480000Y-62196667D02*
X147480000Y-46756667D01*
X153980000Y-46756667D02*
X153980000Y-52426667D01*
X153980000Y-52426667D02*
X155290000Y-52426667D01*
X153980000Y-56526667D02*
X153980000Y-62196667D01*
X153980000Y-62196667D02*
X147480000Y-62196667D01*
X155290000Y-45456667D02*
X155290000Y-63496667D01*
X155290000Y-56526667D02*
X153980000Y-56526667D01*
X155290000Y-63496667D02*
X146170000Y-63496667D01*
X155680000Y-58286667D02*
X156680000Y-58786667D01*
X156680000Y-57786667D02*
X155680000Y-58286667D01*
X156680000Y-58786667D02*
X156680000Y-57786667D01*
%TO.C,J11*%
X89185000Y-34850000D02*
X89185000Y-37610000D01*
X89185000Y-37610000D02*
X109725000Y-37610000D01*
X89295000Y-40270000D02*
X89295000Y-39000000D01*
X90135000Y-37840000D02*
X90135000Y-37610000D01*
X90565000Y-40270000D02*
X89295000Y-40270000D01*
X90995000Y-37840000D02*
X90995000Y-37610000D01*
X91835000Y-37610000D02*
X91835000Y-34850000D01*
X92675000Y-28850000D02*
X93535000Y-28850000D01*
X92675000Y-34850000D02*
X92675000Y-28850000D01*
X92675000Y-37922642D02*
X92675000Y-37610000D01*
X93535000Y-28850000D02*
X93535000Y-34850000D01*
X93535000Y-37922642D02*
X93535000Y-37610000D01*
X94375000Y-37610000D02*
X94375000Y-34850000D01*
X95215000Y-28850000D02*
X96075000Y-28850000D01*
X95215000Y-34850000D02*
X95215000Y-28850000D01*
X95215000Y-37922642D02*
X95215000Y-37610000D01*
X96075000Y-28850000D02*
X96075000Y-34850000D01*
X96075000Y-37922642D02*
X96075000Y-37610000D01*
X96915000Y-37610000D02*
X96915000Y-34850000D01*
X97755000Y-28850000D02*
X98615000Y-28850000D01*
X97755000Y-34850000D02*
X97755000Y-28850000D01*
X97755000Y-37922642D02*
X97755000Y-37610000D01*
X98615000Y-28850000D02*
X98615000Y-34850000D01*
X98615000Y-37922642D02*
X98615000Y-37610000D01*
X99455000Y-37610000D02*
X99455000Y-34850000D01*
X100295000Y-28850000D02*
X101155000Y-28850000D01*
X100295000Y-34850000D02*
X100295000Y-28850000D01*
X100295000Y-37922642D02*
X100295000Y-37610000D01*
X101155000Y-28850000D02*
X101155000Y-34850000D01*
X101155000Y-37922642D02*
X101155000Y-37610000D01*
X101995000Y-37610000D02*
X101995000Y-34850000D01*
X102835000Y-28850000D02*
X103695000Y-28850000D01*
X102835000Y-34850000D02*
X102835000Y-28850000D01*
X102835000Y-37922642D02*
X102835000Y-37610000D01*
X103695000Y-28850000D02*
X103695000Y-34850000D01*
X103695000Y-37922642D02*
X103695000Y-37610000D01*
X104535000Y-37610000D02*
X104535000Y-34850000D01*
X105375000Y-28850000D02*
X106235000Y-28850000D01*
X105375000Y-34850000D02*
X105375000Y-28850000D01*
X105375000Y-37922642D02*
X105375000Y-37610000D01*
X106235000Y-28850000D02*
X106235000Y-34850000D01*
X106235000Y-37922642D02*
X106235000Y-37610000D01*
X107075000Y-37610000D02*
X107075000Y-34850000D01*
X107915000Y-28850000D02*
X108775000Y-28850000D01*
X107915000Y-34850000D02*
X107915000Y-28850000D01*
X107915000Y-37922642D02*
X107915000Y-37610000D01*
X108775000Y-28850000D02*
X108775000Y-34850000D01*
X108775000Y-37922642D02*
X108775000Y-37610000D01*
X109725000Y-34850000D02*
X89185000Y-34850000D01*
X109725000Y-37610000D02*
X109725000Y-34850000D01*
X90135000Y-34850000D02*
X90995000Y-34850000D01*
X90995000Y-28850000D01*
X90135000Y-28850000D01*
X90135000Y-34850000D01*
G36*
X90135000Y-34850000D02*
G01*
X90995000Y-34850000D01*
X90995000Y-28850000D01*
X90135000Y-28850000D01*
X90135000Y-34850000D01*
G37*
%TO.C,J6*%
X146170000Y-113790000D02*
X155290000Y-113790000D01*
X146170000Y-131830000D02*
X146170000Y-113790000D01*
X147480000Y-115090000D02*
X153980000Y-115090000D01*
X147480000Y-130530000D02*
X147480000Y-115090000D01*
X153980000Y-115090000D02*
X153980000Y-120760000D01*
X153980000Y-120760000D02*
X155290000Y-120760000D01*
X153980000Y-124860000D02*
X153980000Y-130530000D01*
X153980000Y-130530000D02*
X147480000Y-130530000D01*
X155290000Y-113790000D02*
X155290000Y-131830000D01*
X155290000Y-124860000D02*
X153980000Y-124860000D01*
X155290000Y-131830000D02*
X146170000Y-131830000D01*
X155680000Y-126620000D02*
X156680000Y-127120000D01*
X156680000Y-126120000D02*
X155680000Y-126620000D01*
X156680000Y-127120000D02*
X156680000Y-126120000D01*
%TO.C,J1*%
X62920000Y-136670000D02*
X72040000Y-136670000D01*
X62920000Y-154710000D02*
X62920000Y-136670000D01*
X64230000Y-137970000D02*
X70730000Y-137970000D01*
X64230000Y-153410000D02*
X64230000Y-137970000D01*
X70730000Y-137970000D02*
X70730000Y-143640000D01*
X70730000Y-143640000D02*
X72040000Y-143640000D01*
X70730000Y-147740000D02*
X70730000Y-153410000D01*
X70730000Y-153410000D02*
X64230000Y-153410000D01*
X72040000Y-136670000D02*
X72040000Y-154710000D01*
X72040000Y-147740000D02*
X70730000Y-147740000D01*
X72040000Y-154710000D02*
X62920000Y-154710000D01*
X72430000Y-149500000D02*
X73430000Y-150000000D01*
X73430000Y-149000000D02*
X72430000Y-149500000D01*
X73430000Y-150000000D02*
X73430000Y-149000000D01*
%TO.C,K5*%
D10*
X116590000Y-108073333D02*
X138310000Y-108073333D01*
X138310000Y-137593333D01*
X116590000Y-137593333D01*
X116590000Y-108073333D01*
%TO.C,K1*%
X78030000Y-86840000D02*
X99750000Y-86840000D01*
X99750000Y-116360000D01*
X78030000Y-116360000D01*
X78030000Y-86840000D01*
%TO.C,K4*%
X116590000Y-73906667D02*
X138310000Y-73906667D01*
X138310000Y-103426667D01*
X116590000Y-103426667D01*
X116590000Y-73906667D01*
D14*
%TO.C,D3*%
X140530000Y-56196667D02*
X143470000Y-56196667D01*
X140530000Y-56316667D02*
X143470000Y-56316667D01*
X140530000Y-56436667D02*
X143470000Y-56436667D01*
X142000000Y-50756667D02*
X142000000Y-51776667D01*
X142000000Y-58236667D02*
X142000000Y-57216667D01*
X140530000Y-57216667D02*
X143470000Y-57216667D01*
X143470000Y-51776667D01*
X140530000Y-51776667D01*
X140530000Y-57216667D01*
%TO.C,J13*%
X94345000Y-66170000D02*
X95675000Y-66170000D01*
X94345000Y-67500000D02*
X94345000Y-66170000D01*
X94345000Y-68770000D02*
X96945000Y-68770000D01*
X94345000Y-71370000D02*
X94345000Y-68770000D01*
X94345000Y-71370000D02*
X104625000Y-71370000D01*
X96945000Y-66170000D02*
X104625000Y-66170000D01*
X96945000Y-68770000D02*
X96945000Y-66170000D01*
X104625000Y-71370000D02*
X104625000Y-66170000D01*
%TO.C,D6*%
X140530000Y-158696667D02*
X143470000Y-158696667D01*
X140530000Y-158816667D02*
X143470000Y-158816667D01*
X140530000Y-158936667D02*
X143470000Y-158936667D01*
X142000000Y-153256667D02*
X142000000Y-154276667D01*
X142000000Y-160736667D02*
X142000000Y-159716667D01*
X140530000Y-159716667D02*
X143470000Y-159716667D01*
X143470000Y-154276667D01*
X140530000Y-154276667D01*
X140530000Y-159716667D01*
%TO.C,K6*%
D10*
X116590000Y-142240000D02*
X138310000Y-142240000D01*
X138310000Y-171760000D01*
X116590000Y-171760000D01*
X116590000Y-142240000D01*
D14*
%TO.C,J2*%
X62920000Y-87040000D02*
X72040000Y-87040000D01*
X62920000Y-105080000D02*
X62920000Y-87040000D01*
X64230000Y-88340000D02*
X70730000Y-88340000D01*
X64230000Y-103780000D02*
X64230000Y-88340000D01*
X70730000Y-88340000D02*
X70730000Y-94010000D01*
X70730000Y-94010000D02*
X72040000Y-94010000D01*
X70730000Y-98110000D02*
X70730000Y-103780000D01*
X70730000Y-103780000D02*
X64230000Y-103780000D01*
X72040000Y-87040000D02*
X72040000Y-105080000D01*
X72040000Y-98110000D02*
X70730000Y-98110000D01*
X72040000Y-105080000D02*
X62920000Y-105080000D01*
X72430000Y-99870000D02*
X73430000Y-100370000D01*
X73430000Y-99370000D02*
X72430000Y-99870000D01*
X73430000Y-100370000D02*
X73430000Y-99370000D01*
%TO.C,J5*%
X146170000Y-79623334D02*
X155290000Y-79623334D01*
X146170000Y-97663334D02*
X146170000Y-79623334D01*
X147480000Y-80923334D02*
X153980000Y-80923334D01*
X147480000Y-96363334D02*
X147480000Y-80923334D01*
X153980000Y-80923334D02*
X153980000Y-86593334D01*
X153980000Y-86593334D02*
X155290000Y-86593334D01*
X153980000Y-90693334D02*
X153980000Y-96363334D01*
X153980000Y-96363334D02*
X147480000Y-96363334D01*
X155290000Y-79623334D02*
X155290000Y-97663334D01*
X155290000Y-90693334D02*
X153980000Y-90693334D01*
X155290000Y-97663334D02*
X146170000Y-97663334D01*
X155680000Y-92453334D02*
X156680000Y-92953334D01*
X156680000Y-91953334D02*
X155680000Y-92453334D01*
X156680000Y-92953334D02*
X156680000Y-91953334D01*
%TO.C,J7*%
X44600000Y-135240000D02*
X50600000Y-135240000D01*
X44600000Y-136100000D02*
X44600000Y-135240000D01*
X44600000Y-137780000D02*
X50600000Y-137780000D01*
X44600000Y-138640000D02*
X44600000Y-137780000D01*
X44600000Y-140320000D02*
X50600000Y-140320000D01*
X44600000Y-141180000D02*
X44600000Y-140320000D01*
X44600000Y-142860000D02*
X50600000Y-142860000D01*
X44600000Y-143720000D02*
X44600000Y-142860000D01*
X44600000Y-145400000D02*
X50600000Y-145400000D01*
X44600000Y-146260000D02*
X44600000Y-145400000D01*
X44600000Y-147940000D02*
X50600000Y-147940000D01*
X44600000Y-148800000D02*
X44600000Y-147940000D01*
X44600000Y-150480000D02*
X50600000Y-150480000D01*
X44600000Y-151340000D02*
X44600000Y-150480000D01*
X50600000Y-134290000D02*
X50600000Y-154830000D01*
X50600000Y-136100000D02*
X44600000Y-136100000D01*
X50600000Y-138640000D02*
X44600000Y-138640000D01*
X50600000Y-141180000D02*
X44600000Y-141180000D01*
X50600000Y-143720000D02*
X44600000Y-143720000D01*
X50600000Y-146260000D02*
X44600000Y-146260000D01*
X50600000Y-148800000D02*
X44600000Y-148800000D01*
X50600000Y-151340000D02*
X44600000Y-151340000D01*
X50600000Y-154830000D02*
X53360000Y-154830000D01*
X53360000Y-134290000D02*
X50600000Y-134290000D01*
X53360000Y-136940000D02*
X50600000Y-136940000D01*
X53360000Y-139480000D02*
X50600000Y-139480000D01*
X53360000Y-142020000D02*
X50600000Y-142020000D01*
X53360000Y-144560000D02*
X50600000Y-144560000D01*
X53360000Y-147100000D02*
X50600000Y-147100000D01*
X53360000Y-149640000D02*
X50600000Y-149640000D01*
X53360000Y-152180000D02*
X50600000Y-152180000D01*
X53360000Y-154830000D02*
X53360000Y-134290000D01*
X53590000Y-153020000D02*
X53360000Y-153020000D01*
X53590000Y-153880000D02*
X53360000Y-153880000D01*
X53672642Y-135240000D02*
X53360000Y-135240000D01*
X53672642Y-136100000D02*
X53360000Y-136100000D01*
X53672642Y-137780000D02*
X53360000Y-137780000D01*
X53672642Y-138640000D02*
X53360000Y-138640000D01*
X53672642Y-140320000D02*
X53360000Y-140320000D01*
X53672642Y-141180000D02*
X53360000Y-141180000D01*
X53672642Y-142860000D02*
X53360000Y-142860000D01*
X53672642Y-143720000D02*
X53360000Y-143720000D01*
X53672642Y-145400000D02*
X53360000Y-145400000D01*
X53672642Y-146260000D02*
X53360000Y-146260000D01*
X53672642Y-147940000D02*
X53360000Y-147940000D01*
X53672642Y-148800000D02*
X53360000Y-148800000D01*
X53672642Y-150480000D02*
X53360000Y-150480000D01*
X53672642Y-151340000D02*
X53360000Y-151340000D01*
X56020000Y-153450000D02*
X56020000Y-154720000D01*
X56020000Y-154720000D02*
X54750000Y-154720000D01*
X50600000Y-153880000D02*
X44600000Y-153880000D01*
X44600000Y-153020000D01*
X50600000Y-153020000D01*
X50600000Y-153880000D01*
G36*
X50600000Y-153880000D02*
G01*
X44600000Y-153880000D01*
X44600000Y-153020000D01*
X50600000Y-153020000D01*
X50600000Y-153880000D01*
G37*
%TO.C,K3*%
D10*
X116590000Y-39740000D02*
X138310000Y-39740000D01*
X138310000Y-69260000D01*
X116590000Y-69260000D01*
X116590000Y-39740000D01*
%TO.C,K2*%
X78030000Y-125090000D02*
X99750000Y-125090000D01*
X99750000Y-154610000D01*
X78030000Y-154610000D01*
X78030000Y-125090000D01*
D14*
%TO.C,J3*%
X44600000Y-88070000D02*
X50600000Y-88070000D01*
X44600000Y-88930000D02*
X44600000Y-88070000D01*
X44600000Y-90610000D02*
X50600000Y-90610000D01*
X44600000Y-91470000D02*
X44600000Y-90610000D01*
X44600000Y-93150000D02*
X50600000Y-93150000D01*
X44600000Y-94010000D02*
X44600000Y-93150000D01*
X44600000Y-95690000D02*
X50600000Y-95690000D01*
X44600000Y-96550000D02*
X44600000Y-95690000D01*
X44600000Y-98230000D02*
X50600000Y-98230000D01*
X44600000Y-99090000D02*
X44600000Y-98230000D01*
X44600000Y-100770000D02*
X50600000Y-100770000D01*
X44600000Y-101630000D02*
X44600000Y-100770000D01*
X44600000Y-103310000D02*
X50600000Y-103310000D01*
X44600000Y-104170000D02*
X44600000Y-103310000D01*
X50600000Y-87120000D02*
X50600000Y-107660000D01*
X50600000Y-88930000D02*
X44600000Y-88930000D01*
X50600000Y-91470000D02*
X44600000Y-91470000D01*
X50600000Y-94010000D02*
X44600000Y-94010000D01*
X50600000Y-96550000D02*
X44600000Y-96550000D01*
X50600000Y-99090000D02*
X44600000Y-99090000D01*
X50600000Y-101630000D02*
X44600000Y-101630000D01*
X50600000Y-104170000D02*
X44600000Y-104170000D01*
X50600000Y-107660000D02*
X53360000Y-107660000D01*
X53360000Y-87120000D02*
X50600000Y-87120000D01*
X53360000Y-89770000D02*
X50600000Y-89770000D01*
X53360000Y-92310000D02*
X50600000Y-92310000D01*
X53360000Y-94850000D02*
X50600000Y-94850000D01*
X53360000Y-97390000D02*
X50600000Y-97390000D01*
X53360000Y-99930000D02*
X50600000Y-99930000D01*
X53360000Y-102470000D02*
X50600000Y-102470000D01*
X53360000Y-105010000D02*
X50600000Y-105010000D01*
X53360000Y-107660000D02*
X53360000Y-87120000D01*
X53590000Y-105850000D02*
X53360000Y-105850000D01*
X53590000Y-106710000D02*
X53360000Y-106710000D01*
X53672642Y-88070000D02*
X53360000Y-88070000D01*
X53672642Y-88930000D02*
X53360000Y-88930000D01*
X53672642Y-90610000D02*
X53360000Y-90610000D01*
X53672642Y-91470000D02*
X53360000Y-91470000D01*
X53672642Y-93150000D02*
X53360000Y-93150000D01*
X53672642Y-94010000D02*
X53360000Y-94010000D01*
X53672642Y-95690000D02*
X53360000Y-95690000D01*
X53672642Y-96550000D02*
X53360000Y-96550000D01*
X53672642Y-98230000D02*
X53360000Y-98230000D01*
X53672642Y-99090000D02*
X53360000Y-99090000D01*
X53672642Y-100770000D02*
X53360000Y-100770000D01*
X53672642Y-101630000D02*
X53360000Y-101630000D01*
X53672642Y-103310000D02*
X53360000Y-103310000D01*
X53672642Y-104170000D02*
X53360000Y-104170000D01*
X56020000Y-106280000D02*
X56020000Y-107550000D01*
X56020000Y-107550000D02*
X54750000Y-107550000D01*
X50600000Y-106710000D02*
X44600000Y-106710000D01*
X44600000Y-105850000D01*
X50600000Y-105850000D01*
X50600000Y-106710000D01*
G36*
X50600000Y-106710000D02*
G01*
X44600000Y-106710000D01*
X44600000Y-105850000D01*
X50600000Y-105850000D01*
X50600000Y-106710000D01*
G37*
%TO.C,J15*%
X102260000Y-116630000D02*
X102260000Y-117630000D01*
X102260000Y-117630000D02*
X103260000Y-117130000D01*
X103260000Y-117130000D02*
X102260000Y-116630000D01*
X103650000Y-111920000D02*
X112770000Y-111920000D01*
X103650000Y-118890000D02*
X104960000Y-118890000D01*
X103650000Y-129960000D02*
X103650000Y-111920000D01*
X104960000Y-113220000D02*
X111460000Y-113220000D01*
X104960000Y-118890000D02*
X104960000Y-113220000D01*
X104960000Y-122990000D02*
X103650000Y-122990000D01*
X104960000Y-128660000D02*
X104960000Y-122990000D01*
X111460000Y-113220000D02*
X111460000Y-128660000D01*
X111460000Y-128660000D02*
X104960000Y-128660000D01*
X112770000Y-111920000D02*
X112770000Y-129960000D01*
X112770000Y-129960000D02*
X103650000Y-129960000D01*
%TO.C,D1*%
X102780000Y-103280000D02*
X105720000Y-103280000D01*
X102780000Y-103400000D02*
X105720000Y-103400000D01*
X102780000Y-103520000D02*
X105720000Y-103520000D01*
X104250000Y-97840000D02*
X104250000Y-98860000D01*
X104250000Y-105320000D02*
X104250000Y-104300000D01*
X102780000Y-104300000D02*
X105720000Y-104300000D01*
X105720000Y-98860000D01*
X102780000Y-98860000D01*
X102780000Y-104300000D01*
%TO.C,J10*%
X60960000Y-71330000D02*
X73880000Y-71330000D01*
X60960000Y-73980000D02*
X60960000Y-71330000D01*
X60960000Y-76630000D02*
X60960000Y-75250000D01*
X62340000Y-76630000D02*
X60960000Y-76630000D01*
X63610000Y-73980000D02*
X60960000Y-73980000D01*
X63610000Y-76630000D02*
X63610000Y-73980000D01*
X63610000Y-76630000D02*
X73880000Y-76630000D01*
X73880000Y-76630000D02*
X73880000Y-71330000D01*
%TO.C,D5*%
X140530000Y-124530000D02*
X143470000Y-124530000D01*
X140530000Y-124650000D02*
X143470000Y-124650000D01*
X140530000Y-124770000D02*
X143470000Y-124770000D01*
X142000000Y-119090000D02*
X142000000Y-120110000D01*
X142000000Y-126570000D02*
X142000000Y-125550000D01*
X140530000Y-125550000D02*
X143470000Y-125550000D01*
X143470000Y-120110000D01*
X140530000Y-120110000D01*
X140530000Y-125550000D01*
%TO.C,D4*%
X140530000Y-90363334D02*
X143470000Y-90363334D01*
X140530000Y-90483334D02*
X143470000Y-90483334D01*
X140530000Y-90603334D02*
X143470000Y-90603334D01*
X142000000Y-84923334D02*
X142000000Y-85943334D01*
X142000000Y-92403334D02*
X142000000Y-91383334D01*
X140530000Y-91383334D02*
X143470000Y-91383334D01*
X143470000Y-85943334D01*
X140530000Y-85943334D01*
X140530000Y-91383334D01*
%TO.C,J16*%
X94345000Y-71170000D02*
X95675000Y-71170000D01*
X94345000Y-72500000D02*
X94345000Y-71170000D01*
X96945000Y-71170000D02*
X104625000Y-71170000D01*
X96945000Y-73830000D02*
X96945000Y-71170000D01*
X96945000Y-73830000D02*
X104625000Y-73830000D01*
X104625000Y-73830000D02*
X104625000Y-71170000D01*
%TO.C,D2*%
X102780000Y-141530000D02*
X105720000Y-141530000D01*
X102780000Y-141650000D02*
X105720000Y-141650000D01*
X102780000Y-141770000D02*
X105720000Y-141770000D01*
X104250000Y-136090000D02*
X104250000Y-137110000D01*
X104250000Y-143570000D02*
X104250000Y-142550000D01*
X102780000Y-142550000D02*
X105720000Y-142550000D01*
X105720000Y-137110000D01*
X102780000Y-137110000D01*
X102780000Y-142550000D01*
%TO.C,J12*%
X89140000Y-165490000D02*
X90470000Y-165490000D01*
X89140000Y-166600000D02*
X89140000Y-165490000D01*
X89140000Y-168060000D02*
X109580000Y-168060000D01*
X89140000Y-176690000D02*
X89140000Y-168060000D01*
X89140000Y-176690000D02*
X109580000Y-176690000D01*
X89260000Y-176690000D02*
X89260000Y-168060000D01*
X89378095Y-176690000D02*
X89378095Y-168060000D01*
X89496190Y-176690000D02*
X89496190Y-168060000D01*
X89614285Y-176690000D02*
X89614285Y-168060000D01*
X89732380Y-176690000D02*
X89732380Y-168060000D01*
X89850475Y-176690000D02*
X89850475Y-168060000D01*
X89968570Y-176690000D02*
X89968570Y-168060000D01*
X90086665Y-176690000D02*
X90086665Y-168060000D01*
X90110000Y-168060000D02*
X90110000Y-167710000D01*
X90204760Y-176690000D02*
X90204760Y-168060000D01*
X90322855Y-176690000D02*
X90322855Y-168060000D01*
X90440950Y-176690000D02*
X90440950Y-168060000D01*
X90559045Y-176690000D02*
X90559045Y-168060000D01*
X90677140Y-176690000D02*
X90677140Y-168060000D01*
X90795235Y-176690000D02*
X90795235Y-168060000D01*
X90830000Y-168060000D02*
X90830000Y-167710000D01*
X90913330Y-176690000D02*
X90913330Y-168060000D01*
X91031425Y-176690000D02*
X91031425Y-168060000D01*
X91149520Y-176690000D02*
X91149520Y-168060000D01*
X91267615Y-176690000D02*
X91267615Y-168060000D01*
X91385710Y-176690000D02*
X91385710Y-168060000D01*
X91503805Y-176690000D02*
X91503805Y-168060000D01*
X91621900Y-176690000D02*
X91621900Y-168060000D01*
X91740000Y-176690000D02*
X91740000Y-168060000D01*
X92650000Y-168060000D02*
X92650000Y-167650000D01*
X93370000Y-168060000D02*
X93370000Y-167650000D01*
X94280000Y-176690000D02*
X94280000Y-168060000D01*
X95190000Y-168060000D02*
X95190000Y-167650000D01*
X95910000Y-168060000D02*
X95910000Y-167650000D01*
X96820000Y-176690000D02*
X96820000Y-168060000D01*
X97730000Y-168060000D02*
X97730000Y-167650000D01*
X98450000Y-168060000D02*
X98450000Y-167650000D01*
X99360000Y-176690000D02*
X99360000Y-168060000D01*
X100270000Y-168060000D02*
X100270000Y-167650000D01*
X100990000Y-168060000D02*
X100990000Y-167650000D01*
X101900000Y-176690000D02*
X101900000Y-168060000D01*
X102810000Y-168060000D02*
X102810000Y-167650000D01*
X103530000Y-168060000D02*
X103530000Y-167650000D01*
X104440000Y-176690000D02*
X104440000Y-168060000D01*
X105350000Y-168060000D02*
X105350000Y-167650000D01*
X106070000Y-168060000D02*
X106070000Y-167650000D01*
X106980000Y-176690000D02*
X106980000Y-168060000D01*
X107890000Y-168060000D02*
X107890000Y-167650000D01*
X108610000Y-168060000D02*
X108610000Y-167650000D01*
X109580000Y-176690000D02*
X109580000Y-168060000D01*
%TO.C,J9*%
X90465000Y-45210000D02*
X108505000Y-45210000D01*
X90465000Y-54330000D02*
X90465000Y-45210000D01*
X91765000Y-46520000D02*
X107205000Y-46520000D01*
X91765000Y-53020000D02*
X91765000Y-46520000D01*
X95175000Y-55720000D02*
X96175000Y-55720000D01*
X95675000Y-54720000D02*
X95175000Y-55720000D01*
X96175000Y-55720000D02*
X95675000Y-54720000D01*
X97435000Y-53020000D02*
X91765000Y-53020000D01*
X97435000Y-54330000D02*
X97435000Y-53020000D01*
X101535000Y-53020000D02*
X101535000Y-54330000D01*
X107205000Y-46520000D02*
X107205000Y-53020000D01*
X107205000Y-53020000D02*
X101535000Y-53020000D01*
X108505000Y-45210000D02*
X108505000Y-54330000D01*
X108505000Y-54330000D02*
X90465000Y-54330000D01*
%TO.C,J8*%
X146170000Y-147956667D02*
X155290000Y-147956667D01*
X146170000Y-165996667D02*
X146170000Y-147956667D01*
X147480000Y-149256667D02*
X153980000Y-149256667D01*
X147480000Y-164696667D02*
X147480000Y-149256667D01*
X153980000Y-149256667D02*
X153980000Y-154926667D01*
X153980000Y-154926667D02*
X155290000Y-154926667D01*
X153980000Y-159026667D02*
X153980000Y-164696667D01*
X153980000Y-164696667D02*
X147480000Y-164696667D01*
X155290000Y-147956667D02*
X155290000Y-165996667D01*
X155290000Y-159026667D02*
X153980000Y-159026667D01*
X155290000Y-165996667D02*
X146170000Y-165996667D01*
X155680000Y-160786667D02*
X156680000Y-161286667D01*
X156680000Y-160286667D02*
X155680000Y-160786667D01*
X156680000Y-161286667D02*
X156680000Y-160286667D01*
%TD*%
M02*
