M48
; DRILL file {KiCad 9.0.3-9.0.3-0~ubuntu24.04.1} date 2026-04-21T10:36:49+0300
; FORMAT={-:-/ absolute / metric / decimal}
; #@! TF.CreationDate,2026-04-21T10:36:49+03:00
; #@! TF.GenerationSoftware,Kicad,Pcbnew,9.0.3-9.0.3-0~ubuntu24.04.1
; #@! TF.FileFunction,Plated,1,2,PTH
FMAT,2
METRIC
; #@! TA.AperFunction,Plated,PTH,ComponentDrill
T1C1.000
; #@! TA.AperFunction,Plated,PTH,ComponentDrill
T2C1.300
%
G90
G05
T1
X129.625Y-72.5
X129.625Y-111.6
X132.165Y-72.5
X132.165Y-111.6
X134.5Y-102.5
X134.5Y-105.04
X134.705Y-72.5
X134.705Y-111.6
X137.04Y-102.5
X137.04Y-105.04
X137.245Y-72.5
X137.245Y-111.6
X139.58Y-102.5
X139.58Y-105.04
X139.785Y-72.5
X139.785Y-111.6
X142.12Y-102.5
X142.12Y-105.04
X142.325Y-72.5
X142.325Y-111.6
X144.865Y-72.5
X144.865Y-111.6
X147.405Y-72.5
X147.405Y-111.6
T2
X123.0Y-82.6G85X122.0Y-82.6
G05
X123.0Y-87.3G85X122.0Y-87.3
G05
X123.0Y-92.0G85X122.0Y-92.0
G05
X133.5Y-82.6G85X132.5Y-82.6
G05
X133.5Y-87.3G85X132.5Y-87.3
G05
X133.5Y-92.0G85X132.5Y-92.0
G05
X144.0Y-82.6G85X143.0Y-82.6
G05
X144.0Y-87.3G85X143.0Y-87.3
G05
X144.0Y-92.0G85X143.0Y-92.0
G05
X154.5Y-82.6G85X153.5Y-82.6
G05
X154.5Y-87.3G85X153.5Y-87.3
G05
X154.5Y-92.0G85X153.5Y-92.0
G05
M30
