%TF.GenerationSoftware,KiCad,Pcbnew,9.0.3-9.0.3-0~ubuntu24.04.1*%
%TF.CreationDate,2026-04-21T10:36:49+03:00*%
%TF.ProjectId,switches,73776974-6368-4657-932e-6b696361645f,rev?*%
%TF.SameCoordinates,Original*%
%TF.FileFunction,Copper,L1,Top*%
%TF.FilePolarity,Positive*%
%FSLAX46Y46*%
G04 Gerber Fmt 4.6, Leading zero omitted, Abs format (unit mm)*
G04 Created by KiCad (PCBNEW 9.0.3-9.0.3-0~ubuntu24.04.1) date 2026-04-21 10:36:49*
%MOMM*%
%LPD*%
G01*
G04 APERTURE LIST*
G04 Aperture macros list*
%AMRoundRect*
0 Rectangle with rounded corners*
0 $1 Rounding radius*
0 $2 $3 $4 $5 $6 $7 $8 $9 X,Y pos of 4 corners*
0 Add a 4 corners polygon primitive as box body*
4,1,4,$2,$3,$4,$5,$6,$7,$8,$9,$2,$3,0*
0 Add four circle primitives for the rounded corners*
1,1,$1+$1,$2,$3*
1,1,$1+$1,$4,$5*
1,1,$1+$1,$6,$7*
1,1,$1+$1,$8,$9*
0 Add four rect primitives between the rounded corners*
20,1,$1+$1,$2,$3,$4,$5,0*
20,1,$1+$1,$4,$5,$6,$7,0*
20,1,$1+$1,$6,$7,$8,$9,0*
20,1,$1+$1,$8,$9,$2,$3,0*%
G04 Aperture macros list end*
%TA.AperFunction,ComponentPad*%
%ADD10R,1.700000X1.700000*%
%TD*%
%TA.AperFunction,ComponentPad*%
%ADD11O,1.700000X1.700000*%
%TD*%
%TA.AperFunction,ComponentPad*%
%ADD12O,3.000000X2.000000*%
%TD*%
%TA.AperFunction,ComponentPad*%
%ADD13RoundRect,0.250000X0.600000X-0.600000X0.600000X0.600000X-0.600000X0.600000X-0.600000X-0.600000X0*%
%TD*%
%TA.AperFunction,ComponentPad*%
%ADD14C,1.700000*%
%TD*%
%TA.AperFunction,Conductor*%
%ADD15C,0.200000*%
%TD*%
G04 APERTURE END LIST*
D10*
%TO.P,J3,1,+V*%
%TO.N,+24V*%
X129625000Y-72500000D03*
D11*
%TO.P,J3,2,D0*%
%TO.N,Net-(J1-D0)*%
X132165000Y-72500000D03*
%TO.P,J3,3,D1*%
%TO.N,Net-(J1-D1)*%
X134705000Y-72500000D03*
%TO.P,J3,4,D2*%
%TO.N,Net-(J1-D2)*%
X137245000Y-72500000D03*
%TO.P,J3,5,D3*%
%TO.N,Net-(J1-D3)*%
X139785000Y-72500000D03*
%TO.P,J3,6,NC*%
%TO.N,unconnected-(J3-NC-Pad6)*%
X142325000Y-72500000D03*
%TO.P,J3,7,NC*%
%TO.N,unconnected-(J3-NC-Pad7)*%
X144865000Y-72500000D03*
%TO.P,J3,8,GND*%
%TO.N,GND*%
X147405000Y-72500000D03*
%TD*%
D12*
%TO.P,SW1,1,A*%
%TO.N,unconnected-(SW1-A-Pad1)*%
X154000000Y-82600000D03*
%TO.P,SW1,2,B*%
%TO.N,+24V*%
X154000000Y-87300000D03*
%TO.P,SW1,3,C*%
%TO.N,Net-(J1-D0)*%
X154000000Y-92000000D03*
%TD*%
%TO.P,SW4,1,A*%
%TO.N,unconnected-(SW4-A-Pad1)*%
X122500000Y-82600000D03*
%TO.P,SW4,2,B*%
%TO.N,+24V*%
X122500000Y-87300000D03*
%TO.P,SW4,3,C*%
%TO.N,Net-(J1-D3)*%
X122500000Y-92000000D03*
%TD*%
D13*
%TO.P,J2,1,+V*%
%TO.N,+24V*%
X134500000Y-105040000D03*
D14*
%TO.P,J2,2,D0*%
%TO.N,Net-(J1-D0)*%
X134500000Y-102500000D03*
%TO.P,J2,3,D1*%
%TO.N,Net-(J1-D1)*%
X137040000Y-105040000D03*
%TO.P,J2,4,D2*%
%TO.N,Net-(J1-D2)*%
X137040000Y-102500000D03*
%TO.P,J2,5,D3*%
%TO.N,Net-(J1-D3)*%
X139580000Y-105040000D03*
%TO.P,J2,6,NC*%
%TO.N,unconnected-(J2-NC-Pad6)*%
X139580000Y-102500000D03*
%TO.P,J2,7,NC*%
%TO.N,unconnected-(J2-NC-Pad7)*%
X142120000Y-105040000D03*
%TO.P,J2,8,GND*%
%TO.N,GND*%
X142120000Y-102500000D03*
%TD*%
D10*
%TO.P,J1,1,+V*%
%TO.N,+24V*%
X129625000Y-111600000D03*
D11*
%TO.P,J1,2,D0*%
%TO.N,Net-(J1-D0)*%
X132165000Y-111600000D03*
%TO.P,J1,3,D1*%
%TO.N,Net-(J1-D1)*%
X134705000Y-111600000D03*
%TO.P,J1,4,D2*%
%TO.N,Net-(J1-D2)*%
X137245000Y-111600000D03*
%TO.P,J1,5,D3*%
%TO.N,Net-(J1-D3)*%
X139785000Y-111600000D03*
%TO.P,J1,6,NC*%
%TO.N,unconnected-(J1-NC-Pad6)*%
X142325000Y-111600000D03*
%TO.P,J1,7,NC*%
%TO.N,unconnected-(J1-NC-Pad7)*%
X144865000Y-111600000D03*
%TO.P,J1,8,GND*%
%TO.N,GND*%
X147405000Y-111600000D03*
%TD*%
D12*
%TO.P,SW3,1,A*%
%TO.N,unconnected-(SW3-A-Pad1)*%
X133000000Y-82600000D03*
%TO.P,SW3,2,B*%
%TO.N,+24V*%
X133000000Y-87300000D03*
%TO.P,SW3,3,C*%
%TO.N,Net-(J1-D2)*%
X133000000Y-92000000D03*
%TD*%
%TO.P,SW2,1,A*%
%TO.N,unconnected-(SW2-A-Pad1)*%
X143500000Y-82600000D03*
%TO.P,SW2,2,B*%
%TO.N,+24V*%
X143500000Y-87300000D03*
%TO.P,SW2,3,C*%
%TO.N,Net-(J1-D1)*%
X143500000Y-92000000D03*
%TD*%
D15*
%TO.N,Net-(J1-D2)*%
X137245000Y-87755000D02*
X133000000Y-92000000D01*
X138191000Y-110654000D02*
X137245000Y-111600000D01*
X137245000Y-72500000D02*
X137245000Y-87755000D01*
X138191000Y-103651000D02*
X138191000Y-110654000D01*
X137040000Y-102500000D02*
X138191000Y-103651000D01*
%TO.N,Net-(J1-D3)*%
X139785000Y-72500000D02*
X138634000Y-71349000D01*
X139580000Y-105040000D02*
X139580000Y-111395000D01*
X138634000Y-71349000D02*
X136768240Y-71349000D01*
X136094000Y-76045892D02*
X122500000Y-89639892D01*
X122500000Y-89639892D02*
X122500000Y-92000000D01*
X136768240Y-71349000D02*
X136094000Y-72023240D01*
X136094000Y-72023240D02*
X136094000Y-76045892D01*
X139580000Y-111395000D02*
X139785000Y-111600000D01*
%TO.N,Net-(J1-D0)*%
X146782760Y-70250000D02*
X155801000Y-79268240D01*
X132165000Y-72500000D02*
X134415000Y-70250000D01*
X148750000Y-92000000D02*
X142000000Y-98750000D01*
X155801000Y-90199000D02*
X154000000Y-92000000D01*
X134415000Y-70250000D02*
X146782760Y-70250000D01*
X155801000Y-79268240D02*
X155801000Y-90199000D01*
X132165000Y-104835000D02*
X132165000Y-111600000D01*
X134500000Y-102500000D02*
X132165000Y-104835000D01*
X142000000Y-98750000D02*
X138250000Y-98750000D01*
X138250000Y-98750000D02*
X134500000Y-102500000D01*
X154000000Y-92000000D02*
X148750000Y-92000000D01*
%TO.N,Net-(J1-D1)*%
X137040000Y-105040000D02*
X134705000Y-107375000D01*
X134705000Y-107375000D02*
X134705000Y-111600000D01*
%TD*%
%TA.AperFunction,Conductor*%
%TO.N,+24V*%
G36*
X134116436Y-69520185D02*
G01*
X134162191Y-69572989D01*
X134172135Y-69642147D01*
X134143110Y-69705703D01*
X134111397Y-69731887D01*
X134046287Y-69769477D01*
X134046282Y-69769481D01*
X132649522Y-71166241D01*
X132588199Y-71199726D01*
X132523523Y-71196491D01*
X132481245Y-71182754D01*
X132341272Y-71160584D01*
X132271287Y-71149500D01*
X132058713Y-71149500D01*
X132010042Y-71157208D01*
X131848760Y-71182753D01*
X131646585Y-71248444D01*
X131457179Y-71344951D01*
X131285213Y-71469890D01*
X131134890Y-71620213D01*
X131009951Y-71792179D01*
X130913444Y-71981585D01*
X130847753Y-72183760D01*
X130814500Y-72393713D01*
X130814500Y-72606286D01*
X130847753Y-72816239D01*
X130913444Y-73018414D01*
X131009951Y-73207820D01*
X131134890Y-73379786D01*
X131285213Y-73530109D01*
X131457179Y-73655048D01*
X131457181Y-73655049D01*
X131457184Y-73655051D01*
X131646588Y-73751557D01*
X131848757Y-73817246D01*
X132058713Y-73850500D01*
X132058714Y-73850500D01*
X132271286Y-73850500D01*
X132271287Y-73850500D01*
X132481243Y-73817246D01*
X132683412Y-73751557D01*
X132872816Y-73655051D01*
X132953500Y-73596431D01*
X133044786Y-73530109D01*
X133044788Y-73530106D01*
X133044792Y-73530104D01*
X133195104Y-73379792D01*
X133195106Y-73379788D01*
X133195109Y-73379786D01*
X133320048Y-73207820D01*
X133320050Y-73207817D01*
X133320051Y-73207816D01*
X133324514Y-73199054D01*
X133372488Y-73148259D01*
X133440308Y-73131463D01*
X133506444Y-73153999D01*
X133545486Y-73199056D01*
X133549951Y-73207820D01*
X133674890Y-73379786D01*
X133825213Y-73530109D01*
X133997179Y-73655048D01*
X133997181Y-73655049D01*
X133997184Y-73655051D01*
X134186588Y-73751557D01*
X134388757Y-73817246D01*
X134598713Y-73850500D01*
X134598714Y-73850500D01*
X134811286Y-73850500D01*
X134811287Y-73850500D01*
X135021243Y-73817246D01*
X135223412Y-73751557D01*
X135313205Y-73705804D01*
X135381874Y-73692909D01*
X135446615Y-73719185D01*
X135486872Y-73776291D01*
X135493500Y-73816290D01*
X135493500Y-75745794D01*
X135473815Y-75812833D01*
X135457181Y-75833475D01*
X122019481Y-89271174D01*
X122019479Y-89271177D01*
X121969361Y-89357986D01*
X121969359Y-89357988D01*
X121940425Y-89408101D01*
X121940424Y-89408102D01*
X121940423Y-89408107D01*
X121899499Y-89560835D01*
X121899499Y-89560837D01*
X121899499Y-89728938D01*
X121899500Y-89728951D01*
X121899500Y-90390807D01*
X121879815Y-90457846D01*
X121827011Y-90503601D01*
X121794898Y-90513280D01*
X121648631Y-90536446D01*
X121424003Y-90609433D01*
X121213566Y-90716657D01*
X121104550Y-90795862D01*
X121022490Y-90855483D01*
X121022488Y-90855485D01*
X121022487Y-90855485D01*
X120855485Y-91022487D01*
X120855485Y-91022488D01*
X120855483Y-91022490D01*
X120813809Y-91079849D01*
X120716657Y-91213566D01*
X120609433Y-91424003D01*
X120536446Y-91648631D01*
X120499500Y-91881902D01*
X120499500Y-92118097D01*
X120536446Y-92351368D01*
X120609433Y-92575996D01*
X120716657Y-92786433D01*
X120855483Y-92977510D01*
X121022490Y-93144517D01*
X121213567Y-93283343D01*
X121312991Y-93334002D01*
X121424003Y-93390566D01*
X121424005Y-93390566D01*
X121424008Y-93390568D01*
X121544412Y-93429689D01*
X121648631Y-93463553D01*
X121881903Y-93500500D01*
X121881908Y-93500500D01*
X123118097Y-93500500D01*
X123351368Y-93463553D01*
X123575992Y-93390568D01*
X123786433Y-93283343D01*
X123977510Y-93144517D01*
X124144517Y-92977510D01*
X124283343Y-92786433D01*
X124390568Y-92575992D01*
X124463553Y-92351368D01*
X124500500Y-92118097D01*
X124500500Y-91881902D01*
X124463553Y-91648631D01*
X124421587Y-91519475D01*
X124390568Y-91424008D01*
X124390566Y-91424005D01*
X124390566Y-91424003D01*
X124283342Y-91213566D01*
X124235634Y-91147902D01*
X124144517Y-91022490D01*
X123977510Y-90855483D01*
X123786433Y-90716657D01*
X123575996Y-90609433D01*
X123351368Y-90536446D01*
X123205102Y-90513280D01*
X123141967Y-90483351D01*
X123105036Y-90424039D01*
X123100500Y-90390807D01*
X123100500Y-89939988D01*
X123120185Y-89872949D01*
X123136814Y-89852312D01*
X130822288Y-82166837D01*
X130883611Y-82133353D01*
X130953303Y-82138337D01*
X131009236Y-82180209D01*
X131033653Y-82245673D01*
X131032442Y-82273917D01*
X130999500Y-82481902D01*
X130999500Y-82718097D01*
X131036446Y-82951368D01*
X131109433Y-83175996D01*
X131216657Y-83386433D01*
X131355483Y-83577510D01*
X131522490Y-83744517D01*
X131713567Y-83883343D01*
X131799500Y-83927128D01*
X131924003Y-83990566D01*
X131924005Y-83990566D01*
X131924008Y-83990568D01*
X132044412Y-84029689D01*
X132148631Y-84063553D01*
X132381903Y-84100500D01*
X132381908Y-84100500D01*
X133618097Y-84100500D01*
X133851368Y-84063553D01*
X134075992Y-83990568D01*
X134286433Y-83883343D01*
X134477510Y-83744517D01*
X134644517Y-83577510D01*
X134783343Y-83386433D01*
X134890568Y-83175992D01*
X134963553Y-82951368D01*
X135000500Y-82718097D01*
X135000500Y-82481902D01*
X134963553Y-82248631D01*
X134890566Y-82024003D01*
X134783342Y-81813566D01*
X134644517Y-81622490D01*
X134477510Y-81455483D01*
X134286433Y-81316657D01*
X134075996Y-81209433D01*
X133851368Y-81136446D01*
X133618097Y-81099500D01*
X133618092Y-81099500D01*
X132381908Y-81099500D01*
X132381903Y-81099500D01*
X132173916Y-81132442D01*
X132104623Y-81123487D01*
X132051171Y-81078491D01*
X132030531Y-81011740D01*
X132049256Y-80944426D01*
X132066833Y-80922292D01*
X136432819Y-76556307D01*
X136494142Y-76522822D01*
X136563834Y-76527806D01*
X136619767Y-76569678D01*
X136644184Y-76635142D01*
X136644500Y-76643988D01*
X136644500Y-87454902D01*
X136624815Y-87521941D01*
X136608181Y-87542583D01*
X133687583Y-90463181D01*
X133626260Y-90496666D01*
X133599902Y-90499500D01*
X132381903Y-90499500D01*
X132148631Y-90536446D01*
X131924003Y-90609433D01*
X131713566Y-90716657D01*
X131604550Y-90795862D01*
X131522490Y-90855483D01*
X131522488Y-90855485D01*
X131522487Y-90855485D01*
X131355485Y-91022487D01*
X131355485Y-91022488D01*
X131355483Y-91022490D01*
X131313809Y-91079849D01*
X131216657Y-91213566D01*
X131109433Y-91424003D01*
X131036446Y-91648631D01*
X130999500Y-91881902D01*
X130999500Y-92118097D01*
X131036446Y-92351368D01*
X131109433Y-92575996D01*
X131216657Y-92786433D01*
X131355483Y-92977510D01*
X131522490Y-93144517D01*
X131713567Y-93283343D01*
X131812991Y-93334002D01*
X131924003Y-93390566D01*
X131924005Y-93390566D01*
X131924008Y-93390568D01*
X132044412Y-93429689D01*
X132148631Y-93463553D01*
X132381903Y-93500500D01*
X132381908Y-93500500D01*
X133618097Y-93500500D01*
X133851368Y-93463553D01*
X134075992Y-93390568D01*
X134286433Y-93283343D01*
X134477510Y-93144517D01*
X134644517Y-92977510D01*
X134783343Y-92786433D01*
X134890568Y-92575992D01*
X134963553Y-92351368D01*
X135000500Y-92118097D01*
X135000500Y-91881902D01*
X141499500Y-91881902D01*
X141499500Y-92118097D01*
X141536446Y-92351368D01*
X141609433Y-92575996D01*
X141716657Y-92786433D01*
X141855483Y-92977510D01*
X142022490Y-93144517D01*
X142213567Y-93283343D01*
X142312991Y-93334002D01*
X142424003Y-93390566D01*
X142424005Y-93390566D01*
X142424008Y-93390568D01*
X142544412Y-93429689D01*
X142648631Y-93463553D01*
X142881903Y-93500500D01*
X142881908Y-93500500D01*
X144118097Y-93500500D01*
X144351368Y-93463553D01*
X144575992Y-93390568D01*
X144786433Y-93283343D01*
X144977510Y-93144517D01*
X145144517Y-92977510D01*
X145283343Y-92786433D01*
X145390568Y-92575992D01*
X145463553Y-92351368D01*
X145500500Y-92118097D01*
X145500500Y-91881902D01*
X145463553Y-91648631D01*
X145421587Y-91519475D01*
X145390568Y-91424008D01*
X145390566Y-91424005D01*
X145390566Y-91424003D01*
X145283342Y-91213566D01*
X145235634Y-91147902D01*
X145144517Y-91022490D01*
X144977510Y-90855483D01*
X144786433Y-90716657D01*
X144575996Y-90609433D01*
X144351368Y-90536446D01*
X144118097Y-90499500D01*
X144118092Y-90499500D01*
X142881908Y-90499500D01*
X142881903Y-90499500D01*
X142648631Y-90536446D01*
X142424003Y-90609433D01*
X142213566Y-90716657D01*
X142104550Y-90795862D01*
X142022490Y-90855483D01*
X142022488Y-90855485D01*
X142022487Y-90855485D01*
X141855485Y-91022487D01*
X141855485Y-91022488D01*
X141855483Y-91022490D01*
X141813809Y-91079849D01*
X141716657Y-91213566D01*
X141609433Y-91424003D01*
X141536446Y-91648631D01*
X141499500Y-91881902D01*
X135000500Y-91881902D01*
X134963553Y-91648631D01*
X134921587Y-91519475D01*
X134890568Y-91424008D01*
X134890566Y-91424005D01*
X134890566Y-91424003D01*
X134783338Y-91213558D01*
X134780797Y-91209411D01*
X134781713Y-91208849D01*
X134759970Y-91147902D01*
X134775798Y-91079849D01*
X134796083Y-91053151D01*
X137725520Y-88123716D01*
X137804577Y-87986784D01*
X137845501Y-87834057D01*
X137845501Y-87675942D01*
X137845501Y-87668347D01*
X137845500Y-87668329D01*
X137845500Y-82481902D01*
X141499500Y-82481902D01*
X141499500Y-82718097D01*
X141536446Y-82951368D01*
X141609433Y-83175996D01*
X141716657Y-83386433D01*
X141855483Y-83577510D01*
X142022490Y-83744517D01*
X142213567Y-83883343D01*
X142299500Y-83927128D01*
X142424003Y-83990566D01*
X142424005Y-83990566D01*
X142424008Y-83990568D01*
X142544412Y-84029689D01*
X142648631Y-84063553D01*
X142881903Y-84100500D01*
X142881908Y-84100500D01*
X144118097Y-84100500D01*
X144351368Y-84063553D01*
X144575992Y-83990568D01*
X144786433Y-83883343D01*
X144977510Y-83744517D01*
X145144517Y-83577510D01*
X145283343Y-83386433D01*
X145390568Y-83175992D01*
X145463553Y-82951368D01*
X145500500Y-82718097D01*
X145500500Y-82481902D01*
X145463553Y-82248631D01*
X145390566Y-82024003D01*
X145283342Y-81813566D01*
X145144517Y-81622490D01*
X144977510Y-81455483D01*
X144786433Y-81316657D01*
X144575996Y-81209433D01*
X144351368Y-81136446D01*
X144118097Y-81099500D01*
X144118092Y-81099500D01*
X142881908Y-81099500D01*
X142881903Y-81099500D01*
X142648631Y-81136446D01*
X142424003Y-81209433D01*
X142213566Y-81316657D01*
X142104550Y-81395862D01*
X142022490Y-81455483D01*
X142022488Y-81455485D01*
X142022487Y-81455485D01*
X141855485Y-81622487D01*
X141855485Y-81622488D01*
X141855483Y-81622490D01*
X141825848Y-81663279D01*
X141716657Y-81813566D01*
X141609433Y-82024003D01*
X141536446Y-82248631D01*
X141499500Y-82481902D01*
X137845500Y-82481902D01*
X137845500Y-73785718D01*
X137865185Y-73718679D01*
X137913207Y-73675233D01*
X137952815Y-73655052D01*
X137952815Y-73655051D01*
X137952816Y-73655051D01*
X138044193Y-73588661D01*
X138124786Y-73530109D01*
X138124788Y-73530106D01*
X138124792Y-73530104D01*
X138275104Y-73379792D01*
X138275106Y-73379788D01*
X138275109Y-73379786D01*
X138400048Y-73207820D01*
X138400050Y-73207817D01*
X138400051Y-73207816D01*
X138404514Y-73199054D01*
X138452488Y-73148259D01*
X138520308Y-73131463D01*
X138586444Y-73153999D01*
X138625486Y-73199056D01*
X138629951Y-73207820D01*
X138754890Y-73379786D01*
X138905213Y-73530109D01*
X139077179Y-73655048D01*
X139077181Y-73655049D01*
X139077184Y-73655051D01*
X139266588Y-73751557D01*
X139468757Y-73817246D01*
X139678713Y-73850500D01*
X139678714Y-73850500D01*
X139891286Y-73850500D01*
X139891287Y-73850500D01*
X140101243Y-73817246D01*
X140303412Y-73751557D01*
X140492816Y-73655051D01*
X140573500Y-73596431D01*
X140664786Y-73530109D01*
X140664788Y-73530106D01*
X140664792Y-73530104D01*
X140815104Y-73379792D01*
X140815106Y-73379788D01*
X140815109Y-73379786D01*
X140940048Y-73207820D01*
X140940050Y-73207817D01*
X140940051Y-73207816D01*
X140944514Y-73199054D01*
X140992488Y-73148259D01*
X141060308Y-73131463D01*
X141126444Y-73153999D01*
X141165486Y-73199056D01*
X141169951Y-73207820D01*
X141294890Y-73379786D01*
X141445213Y-73530109D01*
X141617179Y-73655048D01*
X141617181Y-73655049D01*
X141617184Y-73655051D01*
X141806588Y-73751557D01*
X142008757Y-73817246D01*
X142218713Y-73850500D01*
X142218714Y-73850500D01*
X142431286Y-73850500D01*
X142431287Y-73850500D01*
X142641243Y-73817246D01*
X142843412Y-73751557D01*
X143032816Y-73655051D01*
X143113500Y-73596431D01*
X143204786Y-73530109D01*
X143204788Y-73530106D01*
X143204792Y-73530104D01*
X143355104Y-73379792D01*
X143355106Y-73379788D01*
X143355109Y-73379786D01*
X143480048Y-73207820D01*
X143480050Y-73207817D01*
X143480051Y-73207816D01*
X143484514Y-73199054D01*
X143532488Y-73148259D01*
X143600308Y-73131463D01*
X143666444Y-73153999D01*
X143705486Y-73199056D01*
X143709951Y-73207820D01*
X143834890Y-73379786D01*
X143985213Y-73530109D01*
X144157179Y-73655048D01*
X144157181Y-73655049D01*
X144157184Y-73655051D01*
X144346588Y-73751557D01*
X144548757Y-73817246D01*
X144758713Y-73850500D01*
X144758714Y-73850500D01*
X144971286Y-73850500D01*
X144971287Y-73850500D01*
X145181243Y-73817246D01*
X145383412Y-73751557D01*
X145572816Y-73655051D01*
X145653500Y-73596431D01*
X145744786Y-73530109D01*
X145744788Y-73530106D01*
X145744792Y-73530104D01*
X145895104Y-73379792D01*
X145895106Y-73379788D01*
X145895109Y-73379786D01*
X146020048Y-73207820D01*
X146020050Y-73207817D01*
X146020051Y-73207816D01*
X146024514Y-73199054D01*
X146072488Y-73148259D01*
X146140308Y-73131463D01*
X146206444Y-73153999D01*
X146245486Y-73199056D01*
X146249951Y-73207820D01*
X146374890Y-73379786D01*
X146525213Y-73530109D01*
X146697179Y-73655048D01*
X146697181Y-73655049D01*
X146697184Y-73655051D01*
X146886588Y-73751557D01*
X147088757Y-73817246D01*
X147298713Y-73850500D01*
X147298714Y-73850500D01*
X147511286Y-73850500D01*
X147511287Y-73850500D01*
X147721243Y-73817246D01*
X147923412Y-73751557D01*
X148112816Y-73655051D01*
X148193500Y-73596431D01*
X148284786Y-73530109D01*
X148284788Y-73530106D01*
X148284792Y-73530104D01*
X148435104Y-73379792D01*
X148435106Y-73379788D01*
X148435109Y-73379786D01*
X148560050Y-73207817D01*
X148590397Y-73148259D01*
X148594391Y-73140418D01*
X148642365Y-73089623D01*
X148710185Y-73072827D01*
X148776321Y-73095364D01*
X148792557Y-73109032D01*
X155164181Y-79480656D01*
X155197666Y-79541979D01*
X155200500Y-79568337D01*
X155200500Y-81079215D01*
X155180815Y-81146254D01*
X155128011Y-81192009D01*
X155058853Y-81201953D01*
X155038182Y-81197146D01*
X154851370Y-81136447D01*
X154618097Y-81099500D01*
X154618092Y-81099500D01*
X153381908Y-81099500D01*
X153381903Y-81099500D01*
X153148631Y-81136446D01*
X152924003Y-81209433D01*
X152713566Y-81316657D01*
X152604550Y-81395862D01*
X152522490Y-81455483D01*
X152522488Y-81455485D01*
X152522487Y-81455485D01*
X152355485Y-81622487D01*
X152355485Y-81622488D01*
X152355483Y-81622490D01*
X152325848Y-81663279D01*
X152216657Y-81813566D01*
X152109433Y-82024003D01*
X152036446Y-82248631D01*
X151999500Y-82481902D01*
X151999500Y-82718097D01*
X152036446Y-82951368D01*
X152109433Y-83175996D01*
X152216657Y-83386433D01*
X152355483Y-83577510D01*
X152522490Y-83744517D01*
X152713567Y-83883343D01*
X152799500Y-83927128D01*
X152924003Y-83990566D01*
X152924005Y-83990566D01*
X152924008Y-83990568D01*
X153044412Y-84029689D01*
X153148631Y-84063553D01*
X153381903Y-84100500D01*
X153381908Y-84100500D01*
X154618097Y-84100500D01*
X154851368Y-84063553D01*
X155038182Y-84002852D01*
X155108022Y-84000858D01*
X155167855Y-84036938D01*
X155198684Y-84099639D01*
X155200500Y-84120784D01*
X155200500Y-89898901D01*
X155180815Y-89965940D01*
X155164181Y-89986582D01*
X154687582Y-90463181D01*
X154626259Y-90496666D01*
X154599901Y-90499500D01*
X153381903Y-90499500D01*
X153148631Y-90536446D01*
X152924003Y-90609433D01*
X152713566Y-90716657D01*
X152604550Y-90795862D01*
X152522490Y-90855483D01*
X152522488Y-90855485D01*
X152522487Y-90855485D01*
X152355485Y-91022487D01*
X152355485Y-91022488D01*
X152355483Y-91022490D01*
X152313809Y-91079849D01*
X152216657Y-91213566D01*
X152156417Y-91331795D01*
X152108442Y-91382591D01*
X152045932Y-91399500D01*
X148836670Y-91399500D01*
X148836654Y-91399499D01*
X148829058Y-91399499D01*
X148670943Y-91399499D01*
X148594579Y-91419961D01*
X148518214Y-91440423D01*
X148518209Y-91440426D01*
X148381290Y-91519475D01*
X148381282Y-91519481D01*
X141787584Y-98113181D01*
X141726261Y-98146666D01*
X141699903Y-98149500D01*
X138336669Y-98149500D01*
X138336653Y-98149499D01*
X138329057Y-98149499D01*
X138170943Y-98149499D01*
X138063587Y-98178265D01*
X138018210Y-98190424D01*
X138018209Y-98190425D01*
X137968096Y-98219359D01*
X137968095Y-98219360D01*
X137924689Y-98244420D01*
X137881285Y-98269479D01*
X137881282Y-98269481D01*
X137769478Y-98381286D01*
X134984522Y-101166241D01*
X134923199Y-101199726D01*
X134858523Y-101196491D01*
X134816245Y-101182754D01*
X134676272Y-101160584D01*
X134606287Y-101149500D01*
X134393713Y-101149500D01*
X134345042Y-101157208D01*
X134183760Y-101182753D01*
X133981585Y-101248444D01*
X133792179Y-101344951D01*
X133620213Y-101469890D01*
X133469890Y-101620213D01*
X133344951Y-101792179D01*
X133248444Y-101981585D01*
X133182753Y-102183760D01*
X133149500Y-102393713D01*
X133149500Y-102606286D01*
X133182754Y-102816244D01*
X133182754Y-102816247D01*
X133196491Y-102858523D01*
X133198486Y-102928364D01*
X133166241Y-102984522D01*
X131796286Y-104354478D01*
X131684481Y-104466282D01*
X131684479Y-104466285D01*
X131652552Y-104521586D01*
X131652551Y-104521588D01*
X131605423Y-104603214D01*
X131605423Y-104603215D01*
X131564499Y-104755943D01*
X131564499Y-104755945D01*
X131564499Y-104924046D01*
X131564500Y-104924059D01*
X131564500Y-110314281D01*
X131544815Y-110381320D01*
X131496795Y-110424765D01*
X131457185Y-110444947D01*
X131457184Y-110444948D01*
X131285213Y-110569890D01*
X131134890Y-110720213D01*
X131009951Y-110892179D01*
X130913444Y-111081585D01*
X130847753Y-111283760D01*
X130814500Y-111493713D01*
X130814500Y-111706286D01*
X130847753Y-111916239D01*
X130913444Y-112118414D01*
X131009951Y-112307820D01*
X131134890Y-112479786D01*
X131285213Y-112630109D01*
X131457179Y-112755048D01*
X131457181Y-112755049D01*
X131457184Y-112755051D01*
X131646588Y-112851557D01*
X131848757Y-112917246D01*
X132058713Y-112950500D01*
X132058714Y-112950500D01*
X132271286Y-112950500D01*
X132271287Y-112950500D01*
X132481243Y-112917246D01*
X132683412Y-112851557D01*
X132872816Y-112755051D01*
X132894789Y-112739086D01*
X133044786Y-112630109D01*
X133044788Y-112630106D01*
X133044792Y-112630104D01*
X133195104Y-112479792D01*
X133195106Y-112479788D01*
X133195109Y-112479786D01*
X133320048Y-112307820D01*
X133320047Y-112307820D01*
X133320051Y-112307816D01*
X133324514Y-112299054D01*
X133372488Y-112248259D01*
X133440308Y-112231463D01*
X133506444Y-112253999D01*
X133545486Y-112299056D01*
X133549951Y-112307820D01*
X133674890Y-112479786D01*
X133825213Y-112630109D01*
X133997179Y-112755048D01*
X133997181Y-112755049D01*
X133997184Y-112755051D01*
X134186588Y-112851557D01*
X134388757Y-112917246D01*
X134598713Y-112950500D01*
X134598714Y-112950500D01*
X134811286Y-112950500D01*
X134811287Y-112950500D01*
X135021243Y-112917246D01*
X135223412Y-112851557D01*
X135412816Y-112755051D01*
X135434789Y-112739086D01*
X135584786Y-112630109D01*
X135584788Y-112630106D01*
X135584792Y-112630104D01*
X135735104Y-112479792D01*
X135735106Y-112479788D01*
X135735109Y-112479786D01*
X135860048Y-112307820D01*
X135860047Y-112307820D01*
X135860051Y-112307816D01*
X135864514Y-112299054D01*
X135912488Y-112248259D01*
X135980308Y-112231463D01*
X136046444Y-112253999D01*
X136085486Y-112299056D01*
X136089951Y-112307820D01*
X136214890Y-112479786D01*
X136365213Y-112630109D01*
X136537179Y-112755048D01*
X136537181Y-112755049D01*
X136537184Y-112755051D01*
X136726588Y-112851557D01*
X136928757Y-112917246D01*
X137138713Y-112950500D01*
X137138714Y-112950500D01*
X137351286Y-112950500D01*
X137351287Y-112950500D01*
X137561243Y-112917246D01*
X137763412Y-112851557D01*
X137952816Y-112755051D01*
X137974789Y-112739086D01*
X138124786Y-112630109D01*
X138124788Y-112630106D01*
X138124792Y-112630104D01*
X138275104Y-112479792D01*
X138275106Y-112479788D01*
X138275109Y-112479786D01*
X138400048Y-112307820D01*
X138400047Y-112307820D01*
X138400051Y-112307816D01*
X138404514Y-112299054D01*
X138452488Y-112248259D01*
X138520308Y-112231463D01*
X138586444Y-112253999D01*
X138625486Y-112299056D01*
X138629951Y-112307820D01*
X138754890Y-112479786D01*
X138905213Y-112630109D01*
X139077179Y-112755048D01*
X139077181Y-112755049D01*
X139077184Y-112755051D01*
X139266588Y-112851557D01*
X139468757Y-112917246D01*
X139678713Y-112950500D01*
X139678714Y-112950500D01*
X139891286Y-112950500D01*
X139891287Y-112950500D01*
X140101243Y-112917246D01*
X140303412Y-112851557D01*
X140492816Y-112755051D01*
X140514789Y-112739086D01*
X140664786Y-112630109D01*
X140664788Y-112630106D01*
X140664792Y-112630104D01*
X140815104Y-112479792D01*
X140815106Y-112479788D01*
X140815109Y-112479786D01*
X140940048Y-112307820D01*
X140940047Y-112307820D01*
X140940051Y-112307816D01*
X140944514Y-112299054D01*
X140992488Y-112248259D01*
X141060308Y-112231463D01*
X141126444Y-112253999D01*
X141165486Y-112299056D01*
X141169951Y-112307820D01*
X141294890Y-112479786D01*
X141445213Y-112630109D01*
X141617179Y-112755048D01*
X141617181Y-112755049D01*
X141617184Y-112755051D01*
X141806588Y-112851557D01*
X142008757Y-112917246D01*
X142218713Y-112950500D01*
X142218714Y-112950500D01*
X142431286Y-112950500D01*
X142431287Y-112950500D01*
X142641243Y-112917246D01*
X142843412Y-112851557D01*
X143032816Y-112755051D01*
X143054789Y-112739086D01*
X143204786Y-112630109D01*
X143204788Y-112630106D01*
X143204792Y-112630104D01*
X143355104Y-112479792D01*
X143355106Y-112479788D01*
X143355109Y-112479786D01*
X143480048Y-112307820D01*
X143480047Y-112307820D01*
X143480051Y-112307816D01*
X143484514Y-112299054D01*
X143532488Y-112248259D01*
X143600308Y-112231463D01*
X143666444Y-112253999D01*
X143705486Y-112299056D01*
X143709951Y-112307820D01*
X143834890Y-112479786D01*
X143985213Y-112630109D01*
X144157179Y-112755048D01*
X144157181Y-112755049D01*
X144157184Y-112755051D01*
X144346588Y-112851557D01*
X144548757Y-112917246D01*
X144758713Y-112950500D01*
X144758714Y-112950500D01*
X144971286Y-112950500D01*
X144971287Y-112950500D01*
X145181243Y-112917246D01*
X145383412Y-112851557D01*
X145572816Y-112755051D01*
X145594789Y-112739086D01*
X145744786Y-112630109D01*
X145744788Y-112630106D01*
X145744792Y-112630104D01*
X145895104Y-112479792D01*
X145895106Y-112479788D01*
X145895109Y-112479786D01*
X146020048Y-112307820D01*
X146020047Y-112307820D01*
X146020051Y-112307816D01*
X146024514Y-112299054D01*
X146072488Y-112248259D01*
X146140308Y-112231463D01*
X146206444Y-112253999D01*
X146245486Y-112299056D01*
X146249951Y-112307820D01*
X146374890Y-112479786D01*
X146525213Y-112630109D01*
X146697179Y-112755048D01*
X146697181Y-112755049D01*
X146697184Y-112755051D01*
X146886588Y-112851557D01*
X147088757Y-112917246D01*
X147298713Y-112950500D01*
X147298714Y-112950500D01*
X147511286Y-112950500D01*
X147511287Y-112950500D01*
X147721243Y-112917246D01*
X147923412Y-112851557D01*
X148112816Y-112755051D01*
X148134789Y-112739086D01*
X148284786Y-112630109D01*
X148284788Y-112630106D01*
X148284792Y-112630104D01*
X148435104Y-112479792D01*
X148435106Y-112479788D01*
X148435109Y-112479786D01*
X148560048Y-112307820D01*
X148560047Y-112307820D01*
X148560051Y-112307816D01*
X148656557Y-112118412D01*
X148722246Y-111916243D01*
X148755500Y-111706287D01*
X148755500Y-111493713D01*
X148722246Y-111283757D01*
X148656557Y-111081588D01*
X148560051Y-110892184D01*
X148560049Y-110892181D01*
X148560048Y-110892179D01*
X148435109Y-110720213D01*
X148284786Y-110569890D01*
X148112820Y-110444951D01*
X147923414Y-110348444D01*
X147923413Y-110348443D01*
X147923412Y-110348443D01*
X147721243Y-110282754D01*
X147721241Y-110282753D01*
X147721240Y-110282753D01*
X147545987Y-110254996D01*
X147511287Y-110249500D01*
X147298713Y-110249500D01*
X147264013Y-110254996D01*
X147088760Y-110282753D01*
X146886585Y-110348444D01*
X146697179Y-110444951D01*
X146525213Y-110569890D01*
X146374890Y-110720213D01*
X146249949Y-110892182D01*
X146245484Y-110900946D01*
X146197509Y-110951742D01*
X146129688Y-110968536D01*
X146063553Y-110945998D01*
X146024516Y-110900946D01*
X146020050Y-110892182D01*
X145895109Y-110720213D01*
X145744786Y-110569890D01*
X145572820Y-110444951D01*
X145383414Y-110348444D01*
X145383413Y-110348443D01*
X145383412Y-110348443D01*
X145181243Y-110282754D01*
X145181241Y-110282753D01*
X145181240Y-110282753D01*
X145005987Y-110254996D01*
X144971287Y-110249500D01*
X144758713Y-110249500D01*
X144724013Y-110254996D01*
X144548760Y-110282753D01*
X144346585Y-110348444D01*
X144157179Y-110444951D01*
X143985213Y-110569890D01*
X143834890Y-110720213D01*
X143709949Y-110892182D01*
X143705484Y-110900946D01*
X143657509Y-110951742D01*
X143589688Y-110968536D01*
X143523553Y-110945998D01*
X143484516Y-110900946D01*
X143480050Y-110892182D01*
X143355109Y-110720213D01*
X143204786Y-110569890D01*
X143032820Y-110444951D01*
X142843414Y-110348444D01*
X142843413Y-110348443D01*
X142843412Y-110348443D01*
X142641243Y-110282754D01*
X142641241Y-110282753D01*
X142641240Y-110282753D01*
X142465987Y-110254996D01*
X142431287Y-110249500D01*
X142218713Y-110249500D01*
X142184013Y-110254996D01*
X142008760Y-110282753D01*
X141806585Y-110348444D01*
X141617179Y-110444951D01*
X141445213Y-110569890D01*
X141294890Y-110720213D01*
X141169949Y-110892182D01*
X141165484Y-110900946D01*
X141117509Y-110951742D01*
X141049688Y-110968536D01*
X140983553Y-110945998D01*
X140944516Y-110900946D01*
X140940050Y-110892182D01*
X140815109Y-110720213D01*
X140664786Y-110569890D01*
X140492820Y-110444951D01*
X140303417Y-110348445D01*
X140303414Y-110348444D01*
X140303412Y-110348443D01*
X140266178Y-110336344D01*
X140208505Y-110296907D01*
X140181308Y-110232548D01*
X140180500Y-110218415D01*
X140180500Y-106325718D01*
X140200185Y-106258679D01*
X140248207Y-106215233D01*
X140287815Y-106195052D01*
X140287815Y-106195051D01*
X140287816Y-106195051D01*
X140379193Y-106128661D01*
X140459786Y-106070109D01*
X140459788Y-106070106D01*
X140459792Y-106070104D01*
X140610104Y-105919792D01*
X140610106Y-105919788D01*
X140610109Y-105919786D01*
X140735048Y-105747820D01*
X140735047Y-105747820D01*
X140735051Y-105747816D01*
X140739514Y-105739054D01*
X140787488Y-105688259D01*
X140855308Y-105671463D01*
X140921444Y-105693999D01*
X140960486Y-105739056D01*
X140964951Y-105747820D01*
X141089890Y-105919786D01*
X141240213Y-106070109D01*
X141412179Y-106195048D01*
X141412181Y-106195049D01*
X141412184Y-106195051D01*
X141601588Y-106291557D01*
X141803757Y-106357246D01*
X142013713Y-106390500D01*
X142013714Y-106390500D01*
X142226286Y-106390500D01*
X142226287Y-106390500D01*
X142436243Y-106357246D01*
X142638412Y-106291557D01*
X142827816Y-106195051D01*
X142908500Y-106136431D01*
X142999786Y-106070109D01*
X142999788Y-106070106D01*
X142999792Y-106070104D01*
X143150104Y-105919792D01*
X143150106Y-105919788D01*
X143150109Y-105919786D01*
X143275048Y-105747820D01*
X143275047Y-105747820D01*
X143275051Y-105747816D01*
X143371557Y-105558412D01*
X143437246Y-105356243D01*
X143470500Y-105146287D01*
X143470500Y-104933713D01*
X143437246Y-104723757D01*
X143371557Y-104521588D01*
X143275051Y-104332184D01*
X143275049Y-104332181D01*
X143275048Y-104332179D01*
X143150109Y-104160213D01*
X142999786Y-104009890D01*
X142827820Y-103884951D01*
X142827115Y-103884591D01*
X142819054Y-103880485D01*
X142768259Y-103832512D01*
X142751463Y-103764692D01*
X142773999Y-103698556D01*
X142819054Y-103659515D01*
X142827816Y-103655051D01*
X142908500Y-103596431D01*
X142999786Y-103530109D01*
X142999788Y-103530106D01*
X142999792Y-103530104D01*
X143150104Y-103379792D01*
X143150106Y-103379788D01*
X143150109Y-103379786D01*
X143275048Y-103207820D01*
X143275047Y-103207820D01*
X143275051Y-103207816D01*
X143371557Y-103018412D01*
X143437246Y-102816243D01*
X143470500Y-102606287D01*
X143470500Y-102393713D01*
X143437246Y-102183757D01*
X143371557Y-101981588D01*
X143275051Y-101792184D01*
X143275049Y-101792181D01*
X143275048Y-101792179D01*
X143150109Y-101620213D01*
X142999786Y-101469890D01*
X142827820Y-101344951D01*
X142638414Y-101248444D01*
X142638413Y-101248443D01*
X142638412Y-101248443D01*
X142436243Y-101182754D01*
X142436241Y-101182753D01*
X142436240Y-101182753D01*
X142274957Y-101157208D01*
X142226287Y-101149500D01*
X142013713Y-101149500D01*
X141965042Y-101157208D01*
X141803760Y-101182753D01*
X141601585Y-101248444D01*
X141412179Y-101344951D01*
X141240213Y-101469890D01*
X141089890Y-101620213D01*
X140964949Y-101792182D01*
X140960484Y-101800946D01*
X140912509Y-101851742D01*
X140844688Y-101868536D01*
X140778553Y-101845998D01*
X140739516Y-101800946D01*
X140735050Y-101792182D01*
X140610109Y-101620213D01*
X140459786Y-101469890D01*
X140287820Y-101344951D01*
X140098414Y-101248444D01*
X140098413Y-101248443D01*
X140098412Y-101248443D01*
X139896243Y-101182754D01*
X139896241Y-101182753D01*
X139896240Y-101182753D01*
X139734957Y-101157208D01*
X139686287Y-101149500D01*
X139473713Y-101149500D01*
X139425042Y-101157208D01*
X139263760Y-101182753D01*
X139061585Y-101248444D01*
X138872179Y-101344951D01*
X138700213Y-101469890D01*
X138549890Y-101620213D01*
X138424949Y-101792182D01*
X138420484Y-101800946D01*
X138372509Y-101851742D01*
X138304688Y-101868536D01*
X138238553Y-101845998D01*
X138199516Y-101800946D01*
X138195050Y-101792182D01*
X138070109Y-101620213D01*
X137919786Y-101469890D01*
X137747820Y-101344951D01*
X137558414Y-101248444D01*
X137558413Y-101248443D01*
X137558412Y-101248443D01*
X137356243Y-101182754D01*
X137356241Y-101182753D01*
X137356240Y-101182753D01*
X137194957Y-101157208D01*
X137146287Y-101149500D01*
X136999096Y-101149500D01*
X136932057Y-101129815D01*
X136886302Y-101077011D01*
X136876358Y-101007853D01*
X136905383Y-100944297D01*
X136911415Y-100937819D01*
X138462416Y-99386819D01*
X138523739Y-99353334D01*
X138550097Y-99350500D01*
X141913331Y-99350500D01*
X141913347Y-99350501D01*
X141920943Y-99350501D01*
X142079054Y-99350501D01*
X142079057Y-99350501D01*
X142231785Y-99309577D01*
X142281904Y-99280639D01*
X142368716Y-99230520D01*
X142480520Y-99118716D01*
X142480520Y-99118714D01*
X142490728Y-99108507D01*
X142490729Y-99108504D01*
X148962417Y-92636819D01*
X149023740Y-92603334D01*
X149050098Y-92600500D01*
X152045932Y-92600500D01*
X152112971Y-92620185D01*
X152156416Y-92668203D01*
X152216657Y-92786433D01*
X152355483Y-92977510D01*
X152522490Y-93144517D01*
X152713567Y-93283343D01*
X152812991Y-93334002D01*
X152924003Y-93390566D01*
X152924005Y-93390566D01*
X152924008Y-93390568D01*
X153044412Y-93429689D01*
X153148631Y-93463553D01*
X153381903Y-93500500D01*
X153381908Y-93500500D01*
X154618097Y-93500500D01*
X154851368Y-93463553D01*
X155075992Y-93390568D01*
X155286433Y-93283343D01*
X155477510Y-93144517D01*
X155644517Y-92977510D01*
X155783343Y-92786433D01*
X155890568Y-92575992D01*
X155963553Y-92351368D01*
X156000500Y-92118097D01*
X156000500Y-91881902D01*
X155963553Y-91648631D01*
X155921587Y-91519475D01*
X155890568Y-91424008D01*
X155890566Y-91424005D01*
X155890566Y-91424003D01*
X155783338Y-91213558D01*
X155780797Y-91209411D01*
X155781713Y-91208849D01*
X155759970Y-91147902D01*
X155775798Y-91079849D01*
X155796083Y-91053151D01*
X156281520Y-90567716D01*
X156360577Y-90430784D01*
X156401501Y-90278057D01*
X156401501Y-90119942D01*
X156401501Y-90112347D01*
X156401500Y-90112329D01*
X156401500Y-79189185D01*
X156401500Y-79189183D01*
X156360577Y-79036456D01*
X156360577Y-79036455D01*
X156360577Y-79036454D01*
X156331639Y-78986335D01*
X156331637Y-78986332D01*
X156281520Y-78899524D01*
X156169716Y-78787720D01*
X156169715Y-78787719D01*
X156165385Y-78783389D01*
X156165374Y-78783379D01*
X147270350Y-69888355D01*
X147270348Y-69888352D01*
X147151475Y-69769479D01*
X147113879Y-69747774D01*
X147086362Y-69731887D01*
X147038147Y-69681321D01*
X147024923Y-69612714D01*
X147050891Y-69547849D01*
X147107804Y-69507320D01*
X147148362Y-69500500D01*
X158875500Y-69500500D01*
X158942539Y-69520185D01*
X158988294Y-69572989D01*
X158999500Y-69624500D01*
X158999500Y-120375500D01*
X158979815Y-120442539D01*
X158927011Y-120488294D01*
X158875500Y-120499500D01*
X117624500Y-120499500D01*
X117557461Y-120479815D01*
X117511706Y-120427011D01*
X117500500Y-120375500D01*
X117500500Y-82481902D01*
X120499500Y-82481902D01*
X120499500Y-82718097D01*
X120536446Y-82951368D01*
X120609433Y-83175996D01*
X120716657Y-83386433D01*
X120855483Y-83577510D01*
X121022490Y-83744517D01*
X121213567Y-83883343D01*
X121299500Y-83927128D01*
X121424003Y-83990566D01*
X121424005Y-83990566D01*
X121424008Y-83990568D01*
X121544412Y-84029689D01*
X121648631Y-84063553D01*
X121881903Y-84100500D01*
X121881908Y-84100500D01*
X123118097Y-84100500D01*
X123351368Y-84063553D01*
X123575992Y-83990568D01*
X123786433Y-83883343D01*
X123977510Y-83744517D01*
X124144517Y-83577510D01*
X124283343Y-83386433D01*
X124390568Y-83175992D01*
X124463553Y-82951368D01*
X124500500Y-82718097D01*
X124500500Y-82481902D01*
X124463553Y-82248631D01*
X124390566Y-82024003D01*
X124283342Y-81813566D01*
X124144517Y-81622490D01*
X123977510Y-81455483D01*
X123786433Y-81316657D01*
X123575996Y-81209433D01*
X123351368Y-81136446D01*
X123118097Y-81099500D01*
X123118092Y-81099500D01*
X121881908Y-81099500D01*
X121881903Y-81099500D01*
X121648631Y-81136446D01*
X121424003Y-81209433D01*
X121213566Y-81316657D01*
X121104550Y-81395862D01*
X121022490Y-81455483D01*
X121022488Y-81455485D01*
X121022487Y-81455485D01*
X120855485Y-81622487D01*
X120855485Y-81622488D01*
X120855483Y-81622490D01*
X120825848Y-81663279D01*
X120716657Y-81813566D01*
X120609433Y-82024003D01*
X120536446Y-82248631D01*
X120499500Y-82481902D01*
X117500500Y-82481902D01*
X117500500Y-69624500D01*
X117520185Y-69557461D01*
X117572989Y-69511706D01*
X117624500Y-69500500D01*
X134049397Y-69500500D01*
X134116436Y-69520185D01*
G37*
%TD.AperFunction*%
%TA.AperFunction,Conductor*%
G36*
X135841444Y-103153999D02*
G01*
X135880486Y-103199056D01*
X135884951Y-103207820D01*
X136009890Y-103379786D01*
X136160213Y-103530109D01*
X136332182Y-103655050D01*
X136340946Y-103659516D01*
X136391742Y-103707491D01*
X136408536Y-103775312D01*
X136385998Y-103841447D01*
X136340946Y-103880484D01*
X136332182Y-103884949D01*
X136160213Y-104009890D01*
X136009890Y-104160213D01*
X135884951Y-104332179D01*
X135788444Y-104521585D01*
X135722753Y-104723760D01*
X135689500Y-104933713D01*
X135689500Y-105146286D01*
X135722754Y-105356244D01*
X135722754Y-105356247D01*
X135736491Y-105398523D01*
X135738486Y-105468364D01*
X135706241Y-105524522D01*
X134336286Y-106894478D01*
X134224481Y-107006282D01*
X134224479Y-107006285D01*
X134174361Y-107093094D01*
X134174359Y-107093096D01*
X134145425Y-107143209D01*
X134145424Y-107143210D01*
X134145423Y-107143215D01*
X134104499Y-107295943D01*
X134104499Y-107295945D01*
X134104499Y-107464046D01*
X134104500Y-107464059D01*
X134104500Y-110314281D01*
X134084815Y-110381320D01*
X134036795Y-110424765D01*
X133997185Y-110444947D01*
X133997184Y-110444948D01*
X133825213Y-110569890D01*
X133674890Y-110720213D01*
X133549949Y-110892182D01*
X133545484Y-110900946D01*
X133497509Y-110951742D01*
X133429688Y-110968536D01*
X133363553Y-110945998D01*
X133324516Y-110900946D01*
X133320050Y-110892182D01*
X133195109Y-110720213D01*
X133044786Y-110569890D01*
X132872815Y-110444948D01*
X132872814Y-110444947D01*
X132833205Y-110424765D01*
X132782409Y-110376791D01*
X132765500Y-110314281D01*
X132765500Y-105135096D01*
X132785185Y-105068057D01*
X132801814Y-105047420D01*
X134015478Y-103833755D01*
X134076799Y-103800272D01*
X134141473Y-103803506D01*
X134183757Y-103817246D01*
X134393713Y-103850500D01*
X134393714Y-103850500D01*
X134606286Y-103850500D01*
X134606287Y-103850500D01*
X134816243Y-103817246D01*
X135018412Y-103751557D01*
X135207816Y-103655051D01*
X135288500Y-103596431D01*
X135379786Y-103530109D01*
X135379788Y-103530106D01*
X135379792Y-103530104D01*
X135530104Y-103379792D01*
X135530106Y-103379788D01*
X135530109Y-103379786D01*
X135655048Y-103207820D01*
X135655047Y-103207820D01*
X135655051Y-103207816D01*
X135659514Y-103199054D01*
X135707488Y-103148259D01*
X135775308Y-103131463D01*
X135841444Y-103153999D01*
G37*
%TD.AperFunction*%
%TD*%
M02*
