%TF.GenerationSoftware,KiCad,Pcbnew,9.0.3-9.0.3-0~ubuntu24.04.1*%
%TF.CreationDate,2026-03-24T10:01:23+03:00*%
%TF.ProjectId,switches,73776974-6368-4657-932e-6b696361645f,rev?*%
%TF.SameCoordinates,Original*%
%TF.FileFunction,Copper,L2,Bot*%
%TF.FilePolarity,Positive*%
%FSLAX46Y46*%
G04 Gerber Fmt 4.6, Leading zero omitted, Abs format (unit mm)*
G04 Created by KiCad (PCBNEW 9.0.3-9.0.3-0~ubuntu24.04.1) date 2026-03-24 10:01:23*
%MOMM*%
%LPD*%
G01*
G04 APERTURE LIST*
G04 Aperture macros list*
%AMRoundRect*
0 Rectangle with rounded corners*
0 $1 Rounding radius*
0 $2 $3 $4 $5 $6 $7 $8 $9 X,Y pos of 4 corners*
0 Add a 4 corners polygon primitive as box body*
4,1,4,$2,$3,$4,$5,$6,$7,$8,$9,$2,$3,0*
0 Add four circle primitives for the rounded corners*
1,1,$1+$1,$2,$3*
1,1,$1+$1,$4,$5*
1,1,$1+$1,$6,$7*
1,1,$1+$1,$8,$9*
0 Add four rect primitives between the rounded corners*
20,1,$1+$1,$2,$3,$4,$5,0*
20,1,$1+$1,$4,$5,$6,$7,0*
20,1,$1+$1,$6,$7,$8,$9,0*
20,1,$1+$1,$8,$9,$2,$3,0*%
G04 Aperture macros list end*
%TA.AperFunction,ComponentPad*%
%ADD10R,1.700000X1.700000*%
%TD*%
%TA.AperFunction,ComponentPad*%
%ADD11O,1.700000X1.700000*%
%TD*%
%TA.AperFunction,ComponentPad*%
%ADD12O,3.000000X2.000000*%
%TD*%
%TA.AperFunction,ComponentPad*%
%ADD13RoundRect,0.250000X0.600000X-0.600000X0.600000X0.600000X-0.600000X0.600000X-0.600000X-0.600000X0*%
%TD*%
%TA.AperFunction,ComponentPad*%
%ADD14C,1.700000*%
%TD*%
%TA.AperFunction,Conductor*%
%ADD15C,0.200000*%
%TD*%
G04 APERTURE END LIST*
D10*
%TO.P,J3,1,+V*%
%TO.N,+24V*%
X129625000Y-72500000D03*
D11*
%TO.P,J3,2,D0*%
%TO.N,Net-(J1-D0)*%
X132165000Y-72500000D03*
%TO.P,J3,3,D1*%
%TO.N,Net-(J1-D1)*%
X134705000Y-72500000D03*
%TO.P,J3,4,D2*%
%TO.N,Net-(J1-D2)*%
X137245000Y-72500000D03*
%TO.P,J3,5,D3*%
%TO.N,Net-(J1-D3)*%
X139785000Y-72500000D03*
%TO.P,J3,6,NC*%
%TO.N,unconnected-(J3-NC-Pad6)*%
X142325000Y-72500000D03*
%TO.P,J3,7,NC*%
%TO.N,unconnected-(J3-NC-Pad7)*%
X144865000Y-72500000D03*
%TO.P,J3,8,GND*%
%TO.N,GND*%
X147405000Y-72500000D03*
%TD*%
D12*
%TO.P,SW1,1,A*%
%TO.N,unconnected-(SW1-A-Pad1)*%
X154000000Y-82600000D03*
%TO.P,SW1,2,B*%
%TO.N,+24V*%
X154000000Y-87300000D03*
%TO.P,SW1,3,C*%
%TO.N,Net-(J1-D0)*%
X154000000Y-92000000D03*
%TD*%
%TO.P,SW4,1,A*%
%TO.N,unconnected-(SW4-A-Pad1)*%
X122500000Y-82600000D03*
%TO.P,SW4,2,B*%
%TO.N,+24V*%
X122500000Y-87300000D03*
%TO.P,SW4,3,C*%
%TO.N,Net-(J1-D3)*%
X122500000Y-92000000D03*
%TD*%
D13*
%TO.P,J2,1,+V*%
%TO.N,+24V*%
X134500000Y-105040000D03*
D14*
%TO.P,J2,2,D0*%
%TO.N,Net-(J1-D0)*%
X134500000Y-102500000D03*
%TO.P,J2,3,D1*%
%TO.N,Net-(J1-D1)*%
X137040000Y-105040000D03*
%TO.P,J2,4,D2*%
%TO.N,Net-(J1-D2)*%
X137040000Y-102500000D03*
%TO.P,J2,5,D3*%
%TO.N,Net-(J1-D3)*%
X139580000Y-105040000D03*
%TO.P,J2,6,NC*%
%TO.N,unconnected-(J2-NC-Pad6)*%
X139580000Y-102500000D03*
%TO.P,J2,7,NC*%
%TO.N,unconnected-(J2-NC-Pad7)*%
X142120000Y-105040000D03*
%TO.P,J2,8,GND*%
%TO.N,GND*%
X142120000Y-102500000D03*
%TD*%
D10*
%TO.P,J1,1,+V*%
%TO.N,+24V*%
X129625000Y-111600000D03*
D11*
%TO.P,J1,2,D0*%
%TO.N,Net-(J1-D0)*%
X132165000Y-111600000D03*
%TO.P,J1,3,D1*%
%TO.N,Net-(J1-D1)*%
X134705000Y-111600000D03*
%TO.P,J1,4,D2*%
%TO.N,Net-(J1-D2)*%
X137245000Y-111600000D03*
%TO.P,J1,5,D3*%
%TO.N,Net-(J1-D3)*%
X139785000Y-111600000D03*
%TO.P,J1,6,NC*%
%TO.N,unconnected-(J1-NC-Pad6)*%
X142325000Y-111600000D03*
%TO.P,J1,7,NC*%
%TO.N,unconnected-(J1-NC-Pad7)*%
X144865000Y-111600000D03*
%TO.P,J1,8,GND*%
%TO.N,GND*%
X147405000Y-111600000D03*
%TD*%
D12*
%TO.P,SW3,1,A*%
%TO.N,unconnected-(SW3-A-Pad1)*%
X133000000Y-82600000D03*
%TO.P,SW3,2,B*%
%TO.N,+24V*%
X133000000Y-87300000D03*
%TO.P,SW3,3,C*%
%TO.N,Net-(J1-D2)*%
X133000000Y-92000000D03*
%TD*%
%TO.P,SW2,1,A*%
%TO.N,unconnected-(SW2-A-Pad1)*%
X143500000Y-82600000D03*
%TO.P,SW2,2,B*%
%TO.N,+24V*%
X143500000Y-87300000D03*
%TO.P,SW2,3,C*%
%TO.N,Net-(J1-D1)*%
X143500000Y-92000000D03*
%TD*%
D15*
%TO.N,Net-(J1-D2)*%
X133000000Y-92000000D02*
X133000000Y-98460000D01*
X133000000Y-98460000D02*
X137040000Y-102500000D01*
%TO.N,Net-(J1-D3)*%
X136620000Y-108000000D02*
X139580000Y-105040000D01*
X134500000Y-108000000D02*
X136620000Y-108000000D01*
X122500000Y-92000000D02*
X122500000Y-96000000D01*
X122500000Y-96000000D02*
X134500000Y-108000000D01*
%TO.N,Net-(J1-D1)*%
X134705000Y-72500000D02*
X135555000Y-73350000D01*
X135555000Y-84055000D02*
X143500000Y-92000000D01*
X135555000Y-73350000D02*
X135555000Y-84055000D01*
X138191000Y-97309000D02*
X138191000Y-103889000D01*
X138191000Y-103889000D02*
X137040000Y-105040000D01*
X143500000Y-92000000D02*
X138191000Y-97309000D01*
%TD*%
%TA.AperFunction,Conductor*%
%TO.N,GND*%
G36*
X158942539Y-69520185D02*
G01*
X158988294Y-69572989D01*
X158999500Y-69624500D01*
X158999500Y-120375500D01*
X158979815Y-120442539D01*
X158927011Y-120488294D01*
X158875500Y-120499500D01*
X117624500Y-120499500D01*
X117557461Y-120479815D01*
X117511706Y-120427011D01*
X117500500Y-120375500D01*
X117500500Y-110702135D01*
X128274500Y-110702135D01*
X128274500Y-112497870D01*
X128274501Y-112497876D01*
X128280908Y-112557483D01*
X128331202Y-112692328D01*
X128331206Y-112692335D01*
X128417452Y-112807544D01*
X128417455Y-112807547D01*
X128532664Y-112893793D01*
X128532671Y-112893797D01*
X128667517Y-112944091D01*
X128667516Y-112944091D01*
X128674444Y-112944835D01*
X128727127Y-112950500D01*
X130522872Y-112950499D01*
X130582483Y-112944091D01*
X130717331Y-112893796D01*
X130832546Y-112807546D01*
X130918796Y-112692331D01*
X130967810Y-112560916D01*
X131009681Y-112504984D01*
X131075145Y-112480566D01*
X131143418Y-112495417D01*
X131171673Y-112516569D01*
X131285213Y-112630109D01*
X131457179Y-112755048D01*
X131457181Y-112755049D01*
X131457184Y-112755051D01*
X131646588Y-112851557D01*
X131848757Y-112917246D01*
X132058713Y-112950500D01*
X132058714Y-112950500D01*
X132271286Y-112950500D01*
X132271287Y-112950500D01*
X132481243Y-112917246D01*
X132683412Y-112851557D01*
X132872816Y-112755051D01*
X132959138Y-112692335D01*
X133044786Y-112630109D01*
X133044788Y-112630106D01*
X133044792Y-112630104D01*
X133195104Y-112479792D01*
X133195106Y-112479788D01*
X133195109Y-112479786D01*
X133320048Y-112307820D01*
X133320047Y-112307820D01*
X133320051Y-112307816D01*
X133324514Y-112299054D01*
X133372488Y-112248259D01*
X133440308Y-112231463D01*
X133506444Y-112253999D01*
X133545486Y-112299056D01*
X133549951Y-112307820D01*
X133674890Y-112479786D01*
X133825213Y-112630109D01*
X133997179Y-112755048D01*
X133997181Y-112755049D01*
X133997184Y-112755051D01*
X134186588Y-112851557D01*
X134388757Y-112917246D01*
X134598713Y-112950500D01*
X134598714Y-112950500D01*
X134811286Y-112950500D01*
X134811287Y-112950500D01*
X135021243Y-112917246D01*
X135223412Y-112851557D01*
X135412816Y-112755051D01*
X135499138Y-112692335D01*
X135584786Y-112630109D01*
X135584788Y-112630106D01*
X135584792Y-112630104D01*
X135735104Y-112479792D01*
X135735106Y-112479788D01*
X135735109Y-112479786D01*
X135860048Y-112307820D01*
X135860047Y-112307820D01*
X135860051Y-112307816D01*
X135864514Y-112299054D01*
X135912488Y-112248259D01*
X135980308Y-112231463D01*
X136046444Y-112253999D01*
X136085486Y-112299056D01*
X136089951Y-112307820D01*
X136214890Y-112479786D01*
X136365213Y-112630109D01*
X136537179Y-112755048D01*
X136537181Y-112755049D01*
X136537184Y-112755051D01*
X136726588Y-112851557D01*
X136928757Y-112917246D01*
X137138713Y-112950500D01*
X137138714Y-112950500D01*
X137351286Y-112950500D01*
X137351287Y-112950500D01*
X137561243Y-112917246D01*
X137763412Y-112851557D01*
X137952816Y-112755051D01*
X138039138Y-112692335D01*
X138124786Y-112630109D01*
X138124788Y-112630106D01*
X138124792Y-112630104D01*
X138275104Y-112479792D01*
X138275106Y-112479788D01*
X138275109Y-112479786D01*
X138400048Y-112307820D01*
X138400047Y-112307820D01*
X138400051Y-112307816D01*
X138404514Y-112299054D01*
X138452488Y-112248259D01*
X138520308Y-112231463D01*
X138586444Y-112253999D01*
X138625486Y-112299056D01*
X138629951Y-112307820D01*
X138754890Y-112479786D01*
X138905213Y-112630109D01*
X139077179Y-112755048D01*
X139077181Y-112755049D01*
X139077184Y-112755051D01*
X139266588Y-112851557D01*
X139468757Y-112917246D01*
X139678713Y-112950500D01*
X139678714Y-112950500D01*
X139891286Y-112950500D01*
X139891287Y-112950500D01*
X140101243Y-112917246D01*
X140303412Y-112851557D01*
X140492816Y-112755051D01*
X140579138Y-112692335D01*
X140664786Y-112630109D01*
X140664788Y-112630106D01*
X140664792Y-112630104D01*
X140815104Y-112479792D01*
X140815106Y-112479788D01*
X140815109Y-112479786D01*
X140940048Y-112307820D01*
X140940047Y-112307820D01*
X140940051Y-112307816D01*
X140944514Y-112299054D01*
X140992488Y-112248259D01*
X141060308Y-112231463D01*
X141126444Y-112253999D01*
X141165486Y-112299056D01*
X141169951Y-112307820D01*
X141294890Y-112479786D01*
X141445213Y-112630109D01*
X141617179Y-112755048D01*
X141617181Y-112755049D01*
X141617184Y-112755051D01*
X141806588Y-112851557D01*
X142008757Y-112917246D01*
X142218713Y-112950500D01*
X142218714Y-112950500D01*
X142431286Y-112950500D01*
X142431287Y-112950500D01*
X142641243Y-112917246D01*
X142843412Y-112851557D01*
X143032816Y-112755051D01*
X143119138Y-112692335D01*
X143204786Y-112630109D01*
X143204788Y-112630106D01*
X143204792Y-112630104D01*
X143355104Y-112479792D01*
X143355106Y-112479788D01*
X143355109Y-112479786D01*
X143480048Y-112307820D01*
X143480047Y-112307820D01*
X143480051Y-112307816D01*
X143484514Y-112299054D01*
X143532488Y-112248259D01*
X143600308Y-112231463D01*
X143666444Y-112253999D01*
X143705486Y-112299056D01*
X143709951Y-112307820D01*
X143834890Y-112479786D01*
X143985213Y-112630109D01*
X144157179Y-112755048D01*
X144157181Y-112755049D01*
X144157184Y-112755051D01*
X144346588Y-112851557D01*
X144548757Y-112917246D01*
X144758713Y-112950500D01*
X144758714Y-112950500D01*
X144971286Y-112950500D01*
X144971287Y-112950500D01*
X145181243Y-112917246D01*
X145383412Y-112851557D01*
X145572816Y-112755051D01*
X145659138Y-112692335D01*
X145744786Y-112630109D01*
X145744788Y-112630106D01*
X145744792Y-112630104D01*
X145895104Y-112479792D01*
X145895106Y-112479788D01*
X145895109Y-112479786D01*
X146020048Y-112307820D01*
X146020047Y-112307820D01*
X146020051Y-112307816D01*
X146116557Y-112118412D01*
X146182246Y-111916243D01*
X146215500Y-111706287D01*
X146215500Y-111493713D01*
X146182246Y-111283757D01*
X146116557Y-111081588D01*
X146020051Y-110892184D01*
X146020049Y-110892181D01*
X146020048Y-110892179D01*
X145895109Y-110720213D01*
X145744786Y-110569890D01*
X145572820Y-110444951D01*
X145383414Y-110348444D01*
X145383413Y-110348443D01*
X145383412Y-110348443D01*
X145181243Y-110282754D01*
X145181241Y-110282753D01*
X145181240Y-110282753D01*
X145019957Y-110257208D01*
X144971287Y-110249500D01*
X144758713Y-110249500D01*
X144710042Y-110257208D01*
X144548760Y-110282753D01*
X144346585Y-110348444D01*
X144157179Y-110444951D01*
X143985213Y-110569890D01*
X143834890Y-110720213D01*
X143709949Y-110892182D01*
X143705484Y-110900946D01*
X143657509Y-110951742D01*
X143589688Y-110968536D01*
X143523553Y-110945998D01*
X143484516Y-110900946D01*
X143480050Y-110892182D01*
X143355109Y-110720213D01*
X143204786Y-110569890D01*
X143032820Y-110444951D01*
X142843414Y-110348444D01*
X142843413Y-110348443D01*
X142843412Y-110348443D01*
X142641243Y-110282754D01*
X142641241Y-110282753D01*
X142641240Y-110282753D01*
X142479957Y-110257208D01*
X142431287Y-110249500D01*
X142218713Y-110249500D01*
X142170042Y-110257208D01*
X142008760Y-110282753D01*
X141806585Y-110348444D01*
X141617179Y-110444951D01*
X141445213Y-110569890D01*
X141294890Y-110720213D01*
X141169949Y-110892182D01*
X141165484Y-110900946D01*
X141117509Y-110951742D01*
X141049688Y-110968536D01*
X140983553Y-110945998D01*
X140944516Y-110900946D01*
X140940050Y-110892182D01*
X140815109Y-110720213D01*
X140664786Y-110569890D01*
X140492820Y-110444951D01*
X140303414Y-110348444D01*
X140303413Y-110348443D01*
X140303412Y-110348443D01*
X140101243Y-110282754D01*
X140101241Y-110282753D01*
X140101240Y-110282753D01*
X139939957Y-110257208D01*
X139891287Y-110249500D01*
X139678713Y-110249500D01*
X139630042Y-110257208D01*
X139468760Y-110282753D01*
X139266585Y-110348444D01*
X139077179Y-110444951D01*
X138905213Y-110569890D01*
X138754890Y-110720213D01*
X138629949Y-110892182D01*
X138625484Y-110900946D01*
X138577509Y-110951742D01*
X138509688Y-110968536D01*
X138443553Y-110945998D01*
X138404516Y-110900946D01*
X138400050Y-110892182D01*
X138275109Y-110720213D01*
X138124786Y-110569890D01*
X137952820Y-110444951D01*
X137763414Y-110348444D01*
X137763413Y-110348443D01*
X137763412Y-110348443D01*
X137561243Y-110282754D01*
X137561241Y-110282753D01*
X137561240Y-110282753D01*
X137399957Y-110257208D01*
X137351287Y-110249500D01*
X137138713Y-110249500D01*
X137090042Y-110257208D01*
X136928760Y-110282753D01*
X136726585Y-110348444D01*
X136537179Y-110444951D01*
X136365213Y-110569890D01*
X136214890Y-110720213D01*
X136089949Y-110892182D01*
X136085484Y-110900946D01*
X136037509Y-110951742D01*
X135969688Y-110968536D01*
X135903553Y-110945998D01*
X135864516Y-110900946D01*
X135860050Y-110892182D01*
X135735109Y-110720213D01*
X135584786Y-110569890D01*
X135412820Y-110444951D01*
X135223414Y-110348444D01*
X135223413Y-110348443D01*
X135223412Y-110348443D01*
X135021243Y-110282754D01*
X135021241Y-110282753D01*
X135021240Y-110282753D01*
X134859957Y-110257208D01*
X134811287Y-110249500D01*
X134598713Y-110249500D01*
X134550042Y-110257208D01*
X134388760Y-110282753D01*
X134186585Y-110348444D01*
X133997179Y-110444951D01*
X133825213Y-110569890D01*
X133674890Y-110720213D01*
X133549949Y-110892182D01*
X133545484Y-110900946D01*
X133497509Y-110951742D01*
X133429688Y-110968536D01*
X133363553Y-110945998D01*
X133324516Y-110900946D01*
X133320050Y-110892182D01*
X133195109Y-110720213D01*
X133044786Y-110569890D01*
X132872820Y-110444951D01*
X132683414Y-110348444D01*
X132683413Y-110348443D01*
X132683412Y-110348443D01*
X132481243Y-110282754D01*
X132481241Y-110282753D01*
X132481240Y-110282753D01*
X132319957Y-110257208D01*
X132271287Y-110249500D01*
X132058713Y-110249500D01*
X132010042Y-110257208D01*
X131848760Y-110282753D01*
X131646585Y-110348444D01*
X131457179Y-110444951D01*
X131285215Y-110569889D01*
X131171673Y-110683431D01*
X131110350Y-110716915D01*
X131040658Y-110711931D01*
X130984725Y-110670059D01*
X130967810Y-110639082D01*
X130918797Y-110507671D01*
X130918793Y-110507664D01*
X130832547Y-110392455D01*
X130832544Y-110392452D01*
X130717335Y-110306206D01*
X130717328Y-110306202D01*
X130582482Y-110255908D01*
X130582483Y-110255908D01*
X130522883Y-110249501D01*
X130522881Y-110249500D01*
X130522873Y-110249500D01*
X130522864Y-110249500D01*
X128727129Y-110249500D01*
X128727123Y-110249501D01*
X128667516Y-110255908D01*
X128532671Y-110306202D01*
X128532664Y-110306206D01*
X128417455Y-110392452D01*
X128417452Y-110392455D01*
X128331206Y-110507664D01*
X128331202Y-110507671D01*
X128280908Y-110642517D01*
X128274501Y-110702116D01*
X128274500Y-110702135D01*
X117500500Y-110702135D01*
X117500500Y-91881902D01*
X120499500Y-91881902D01*
X120499500Y-92118097D01*
X120536446Y-92351368D01*
X120609433Y-92575996D01*
X120716657Y-92786433D01*
X120855483Y-92977510D01*
X121022490Y-93144517D01*
X121213567Y-93283343D01*
X121312991Y-93334002D01*
X121424003Y-93390566D01*
X121424005Y-93390566D01*
X121424008Y-93390568D01*
X121648632Y-93463553D01*
X121794898Y-93486719D01*
X121858032Y-93516648D01*
X121894964Y-93575959D01*
X121899500Y-93609192D01*
X121899500Y-95913330D01*
X121899499Y-95913348D01*
X121899499Y-96079054D01*
X121899498Y-96079054D01*
X121940423Y-96231785D01*
X121969358Y-96281900D01*
X121969359Y-96281904D01*
X121969360Y-96281904D01*
X122019479Y-96368714D01*
X122019481Y-96368717D01*
X122138349Y-96487585D01*
X122138354Y-96487589D01*
X134131284Y-108480520D01*
X134131286Y-108480521D01*
X134131290Y-108480524D01*
X134268209Y-108559573D01*
X134268216Y-108559577D01*
X134420943Y-108600501D01*
X134420945Y-108600501D01*
X134586654Y-108600501D01*
X134586670Y-108600500D01*
X136533331Y-108600500D01*
X136533347Y-108600501D01*
X136540943Y-108600501D01*
X136699054Y-108600501D01*
X136699057Y-108600501D01*
X136851785Y-108559577D01*
X136901904Y-108530639D01*
X136988716Y-108480520D01*
X137100520Y-108368716D01*
X137100520Y-108368714D01*
X137110728Y-108358507D01*
X137110730Y-108358504D01*
X139095478Y-106373755D01*
X139156799Y-106340272D01*
X139221473Y-106343506D01*
X139263757Y-106357246D01*
X139473713Y-106390500D01*
X139473714Y-106390500D01*
X139686286Y-106390500D01*
X139686287Y-106390500D01*
X139896243Y-106357246D01*
X140098412Y-106291557D01*
X140287816Y-106195051D01*
X140309789Y-106179086D01*
X140459786Y-106070109D01*
X140459788Y-106070106D01*
X140459792Y-106070104D01*
X140610104Y-105919792D01*
X140610106Y-105919788D01*
X140610109Y-105919786D01*
X140735048Y-105747820D01*
X140735047Y-105747820D01*
X140735051Y-105747816D01*
X140739514Y-105739054D01*
X140787488Y-105688259D01*
X140855308Y-105671463D01*
X140921444Y-105693999D01*
X140960486Y-105739056D01*
X140964951Y-105747820D01*
X141089890Y-105919786D01*
X141240213Y-106070109D01*
X141412179Y-106195048D01*
X141412181Y-106195049D01*
X141412184Y-106195051D01*
X141601588Y-106291557D01*
X141803757Y-106357246D01*
X142013713Y-106390500D01*
X142013714Y-106390500D01*
X142226286Y-106390500D01*
X142226287Y-106390500D01*
X142436243Y-106357246D01*
X142638412Y-106291557D01*
X142827816Y-106195051D01*
X142849789Y-106179086D01*
X142999786Y-106070109D01*
X142999788Y-106070106D01*
X142999792Y-106070104D01*
X143150104Y-105919792D01*
X143150106Y-105919788D01*
X143150109Y-105919786D01*
X143275048Y-105747820D01*
X143275047Y-105747820D01*
X143275051Y-105747816D01*
X143371557Y-105558412D01*
X143437246Y-105356243D01*
X143470500Y-105146287D01*
X143470500Y-104933713D01*
X143437246Y-104723757D01*
X143371557Y-104521588D01*
X143275051Y-104332184D01*
X143275049Y-104332181D01*
X143275048Y-104332179D01*
X143150109Y-104160213D01*
X142999786Y-104009890D01*
X142827820Y-103884951D01*
X142638414Y-103788444D01*
X142638413Y-103788443D01*
X142638412Y-103788443D01*
X142436243Y-103722754D01*
X142436241Y-103722753D01*
X142436240Y-103722753D01*
X142274957Y-103697208D01*
X142226287Y-103689500D01*
X142013713Y-103689500D01*
X141965042Y-103697208D01*
X141803760Y-103722753D01*
X141601585Y-103788444D01*
X141412179Y-103884951D01*
X141240213Y-104009890D01*
X141089890Y-104160213D01*
X140964949Y-104332182D01*
X140960484Y-104340946D01*
X140912509Y-104391742D01*
X140844688Y-104408536D01*
X140778553Y-104385998D01*
X140739516Y-104340946D01*
X140735050Y-104332182D01*
X140610109Y-104160213D01*
X140459786Y-104009890D01*
X140287820Y-103884951D01*
X140287115Y-103884591D01*
X140279054Y-103880485D01*
X140228259Y-103832512D01*
X140211463Y-103764692D01*
X140233999Y-103698556D01*
X140279054Y-103659515D01*
X140287816Y-103655051D01*
X140368500Y-103596431D01*
X140459786Y-103530109D01*
X140459788Y-103530106D01*
X140459792Y-103530104D01*
X140610104Y-103379792D01*
X140610106Y-103379788D01*
X140610109Y-103379786D01*
X140735048Y-103207820D01*
X140735047Y-103207820D01*
X140735051Y-103207816D01*
X140831557Y-103018412D01*
X140897246Y-102816243D01*
X140930500Y-102606287D01*
X140930500Y-102393713D01*
X140897246Y-102183757D01*
X140831557Y-101981588D01*
X140735051Y-101792184D01*
X140735049Y-101792181D01*
X140735048Y-101792179D01*
X140610109Y-101620213D01*
X140459786Y-101469890D01*
X140287820Y-101344951D01*
X140098414Y-101248444D01*
X140098413Y-101248443D01*
X140098412Y-101248443D01*
X139896243Y-101182754D01*
X139896241Y-101182753D01*
X139896240Y-101182753D01*
X139722502Y-101155236D01*
X139686287Y-101149500D01*
X139473713Y-101149500D01*
X139437498Y-101155236D01*
X139263760Y-101182753D01*
X139061582Y-101248445D01*
X138971794Y-101294194D01*
X138903125Y-101307090D01*
X138838385Y-101280813D01*
X138798128Y-101223707D01*
X138791500Y-101183709D01*
X138791500Y-97609097D01*
X138811185Y-97542058D01*
X138827819Y-97521416D01*
X142812416Y-93536819D01*
X142873739Y-93503334D01*
X142900097Y-93500500D01*
X144118097Y-93500500D01*
X144351368Y-93463553D01*
X144351371Y-93463552D01*
X144575992Y-93390568D01*
X144786433Y-93283343D01*
X144977510Y-93144517D01*
X145144517Y-92977510D01*
X145283343Y-92786433D01*
X145390568Y-92575992D01*
X145463553Y-92351368D01*
X145500500Y-92118097D01*
X145500500Y-91881902D01*
X151999500Y-91881902D01*
X151999500Y-92118097D01*
X152036446Y-92351368D01*
X152109433Y-92575996D01*
X152216657Y-92786433D01*
X152355483Y-92977510D01*
X152522490Y-93144517D01*
X152713567Y-93283343D01*
X152812991Y-93334002D01*
X152924003Y-93390566D01*
X152924005Y-93390566D01*
X152924008Y-93390568D01*
X153044412Y-93429689D01*
X153148631Y-93463553D01*
X153381903Y-93500500D01*
X153381908Y-93500500D01*
X154618097Y-93500500D01*
X154851368Y-93463553D01*
X154851371Y-93463552D01*
X155075992Y-93390568D01*
X155286433Y-93283343D01*
X155477510Y-93144517D01*
X155644517Y-92977510D01*
X155783343Y-92786433D01*
X155890568Y-92575992D01*
X155963553Y-92351368D01*
X156000500Y-92118097D01*
X156000500Y-91881902D01*
X155963553Y-91648631D01*
X155890566Y-91424003D01*
X155834002Y-91312991D01*
X155783343Y-91213567D01*
X155644517Y-91022490D01*
X155477510Y-90855483D01*
X155286433Y-90716657D01*
X155075996Y-90609433D01*
X154851368Y-90536446D01*
X154618097Y-90499500D01*
X154618092Y-90499500D01*
X153381908Y-90499500D01*
X153381903Y-90499500D01*
X153148631Y-90536446D01*
X152924003Y-90609433D01*
X152713566Y-90716657D01*
X152604550Y-90795862D01*
X152522490Y-90855483D01*
X152522488Y-90855485D01*
X152522487Y-90855485D01*
X152355485Y-91022487D01*
X152355485Y-91022488D01*
X152355483Y-91022490D01*
X152333209Y-91053148D01*
X152216657Y-91213566D01*
X152109433Y-91424003D01*
X152036446Y-91648631D01*
X151999500Y-91881902D01*
X145500500Y-91881902D01*
X145463553Y-91648631D01*
X145390566Y-91424003D01*
X145334002Y-91312991D01*
X145283343Y-91213567D01*
X145144517Y-91022490D01*
X144977510Y-90855483D01*
X144786433Y-90716657D01*
X144575996Y-90609433D01*
X144351368Y-90536446D01*
X144118097Y-90499500D01*
X144118092Y-90499500D01*
X142900098Y-90499500D01*
X142833059Y-90479815D01*
X142812417Y-90463181D01*
X139531138Y-87181902D01*
X141499500Y-87181902D01*
X141499500Y-87418097D01*
X141536446Y-87651368D01*
X141609433Y-87875996D01*
X141716657Y-88086433D01*
X141855483Y-88277510D01*
X142022490Y-88444517D01*
X142213567Y-88583343D01*
X142312991Y-88634002D01*
X142424003Y-88690566D01*
X142424005Y-88690566D01*
X142424008Y-88690568D01*
X142544412Y-88729689D01*
X142648631Y-88763553D01*
X142881903Y-88800500D01*
X142881908Y-88800500D01*
X144118097Y-88800500D01*
X144351368Y-88763553D01*
X144575992Y-88690568D01*
X144786433Y-88583343D01*
X144977510Y-88444517D01*
X145144517Y-88277510D01*
X145283343Y-88086433D01*
X145390568Y-87875992D01*
X145463553Y-87651368D01*
X145500500Y-87418097D01*
X145500500Y-87181902D01*
X151999500Y-87181902D01*
X151999500Y-87418097D01*
X152036446Y-87651368D01*
X152109433Y-87875996D01*
X152216657Y-88086433D01*
X152355483Y-88277510D01*
X152522490Y-88444517D01*
X152713567Y-88583343D01*
X152812991Y-88634002D01*
X152924003Y-88690566D01*
X152924005Y-88690566D01*
X152924008Y-88690568D01*
X153044412Y-88729689D01*
X153148631Y-88763553D01*
X153381903Y-88800500D01*
X153381908Y-88800500D01*
X154618097Y-88800500D01*
X154851368Y-88763553D01*
X155075992Y-88690568D01*
X155286433Y-88583343D01*
X155477510Y-88444517D01*
X155644517Y-88277510D01*
X155783343Y-88086433D01*
X155890568Y-87875992D01*
X155963553Y-87651368D01*
X156000500Y-87418097D01*
X156000500Y-87181902D01*
X155963553Y-86948631D01*
X155890566Y-86724003D01*
X155783342Y-86513566D01*
X155644517Y-86322490D01*
X155477510Y-86155483D01*
X155286433Y-86016657D01*
X155075996Y-85909433D01*
X154851368Y-85836446D01*
X154618097Y-85799500D01*
X154618092Y-85799500D01*
X153381908Y-85799500D01*
X153381903Y-85799500D01*
X153148631Y-85836446D01*
X152924003Y-85909433D01*
X152713566Y-86016657D01*
X152604550Y-86095862D01*
X152522490Y-86155483D01*
X152522488Y-86155485D01*
X152522487Y-86155485D01*
X152355485Y-86322487D01*
X152355485Y-86322488D01*
X152355483Y-86322490D01*
X152295862Y-86404550D01*
X152216657Y-86513566D01*
X152109433Y-86724003D01*
X152036446Y-86948631D01*
X151999500Y-87181902D01*
X145500500Y-87181902D01*
X145463553Y-86948631D01*
X145390566Y-86724003D01*
X145283342Y-86513566D01*
X145144517Y-86322490D01*
X144977510Y-86155483D01*
X144786433Y-86016657D01*
X144575996Y-85909433D01*
X144351368Y-85836446D01*
X144118097Y-85799500D01*
X144118092Y-85799500D01*
X142881908Y-85799500D01*
X142881903Y-85799500D01*
X142648631Y-85836446D01*
X142424003Y-85909433D01*
X142213566Y-86016657D01*
X142104550Y-86095862D01*
X142022490Y-86155483D01*
X142022488Y-86155485D01*
X142022487Y-86155485D01*
X141855485Y-86322487D01*
X141855485Y-86322488D01*
X141855483Y-86322490D01*
X141795862Y-86404550D01*
X141716657Y-86513566D01*
X141609433Y-86724003D01*
X141536446Y-86948631D01*
X141499500Y-87181902D01*
X139531138Y-87181902D01*
X136191819Y-83842583D01*
X136158334Y-83781260D01*
X136155500Y-83754902D01*
X136155500Y-82481902D01*
X141499500Y-82481902D01*
X141499500Y-82718097D01*
X141536446Y-82951368D01*
X141609433Y-83175996D01*
X141716657Y-83386433D01*
X141855483Y-83577510D01*
X142022490Y-83744517D01*
X142213567Y-83883343D01*
X142312991Y-83934002D01*
X142424003Y-83990566D01*
X142424005Y-83990566D01*
X142424008Y-83990568D01*
X142544412Y-84029689D01*
X142648631Y-84063553D01*
X142881903Y-84100500D01*
X142881908Y-84100500D01*
X144118097Y-84100500D01*
X144351368Y-84063553D01*
X144575992Y-83990568D01*
X144786433Y-83883343D01*
X144977510Y-83744517D01*
X145144517Y-83577510D01*
X145283343Y-83386433D01*
X145390568Y-83175992D01*
X145463553Y-82951368D01*
X145500500Y-82718097D01*
X145500500Y-82481902D01*
X151999500Y-82481902D01*
X151999500Y-82718097D01*
X152036446Y-82951368D01*
X152109433Y-83175996D01*
X152216657Y-83386433D01*
X152355483Y-83577510D01*
X152522490Y-83744517D01*
X152713567Y-83883343D01*
X152812991Y-83934002D01*
X152924003Y-83990566D01*
X152924005Y-83990566D01*
X152924008Y-83990568D01*
X153044412Y-84029689D01*
X153148631Y-84063553D01*
X153381903Y-84100500D01*
X153381908Y-84100500D01*
X154618097Y-84100500D01*
X154851368Y-84063553D01*
X155075992Y-83990568D01*
X155286433Y-83883343D01*
X155477510Y-83744517D01*
X155644517Y-83577510D01*
X155783343Y-83386433D01*
X155890568Y-83175992D01*
X155963553Y-82951368D01*
X156000500Y-82718097D01*
X156000500Y-82481902D01*
X155963553Y-82248631D01*
X155890566Y-82024003D01*
X155783342Y-81813566D01*
X155766401Y-81790249D01*
X155644517Y-81622490D01*
X155477510Y-81455483D01*
X155286433Y-81316657D01*
X155075996Y-81209433D01*
X154851368Y-81136446D01*
X154618097Y-81099500D01*
X154618092Y-81099500D01*
X153381908Y-81099500D01*
X153381903Y-81099500D01*
X153148631Y-81136446D01*
X152924003Y-81209433D01*
X152713566Y-81316657D01*
X152604550Y-81395862D01*
X152522490Y-81455483D01*
X152522488Y-81455485D01*
X152522487Y-81455485D01*
X152355485Y-81622487D01*
X152355485Y-81622488D01*
X152355483Y-81622490D01*
X152322773Y-81667511D01*
X152216657Y-81813566D01*
X152109433Y-82024003D01*
X152036446Y-82248631D01*
X151999500Y-82481902D01*
X145500500Y-82481902D01*
X145463553Y-82248631D01*
X145390566Y-82024003D01*
X145283342Y-81813566D01*
X145266401Y-81790249D01*
X145144517Y-81622490D01*
X144977510Y-81455483D01*
X144786433Y-81316657D01*
X144575996Y-81209433D01*
X144351368Y-81136446D01*
X144118097Y-81099500D01*
X144118092Y-81099500D01*
X142881908Y-81099500D01*
X142881903Y-81099500D01*
X142648631Y-81136446D01*
X142424003Y-81209433D01*
X142213566Y-81316657D01*
X142104550Y-81395862D01*
X142022490Y-81455483D01*
X142022488Y-81455485D01*
X142022487Y-81455485D01*
X141855485Y-81622487D01*
X141855485Y-81622488D01*
X141855483Y-81622490D01*
X141822773Y-81667511D01*
X141716657Y-81813566D01*
X141609433Y-82024003D01*
X141536446Y-82248631D01*
X141499500Y-82481902D01*
X136155500Y-82481902D01*
X136155500Y-73619758D01*
X136175185Y-73552719D01*
X136227989Y-73506964D01*
X136297147Y-73497020D01*
X136360703Y-73526045D01*
X136363445Y-73528598D01*
X136365213Y-73530109D01*
X136537179Y-73655048D01*
X136537181Y-73655049D01*
X136537184Y-73655051D01*
X136726588Y-73751557D01*
X136928757Y-73817246D01*
X137138713Y-73850500D01*
X137138714Y-73850500D01*
X137351286Y-73850500D01*
X137351287Y-73850500D01*
X137561243Y-73817246D01*
X137763412Y-73751557D01*
X137952816Y-73655051D01*
X138039138Y-73592335D01*
X138124786Y-73530109D01*
X138124788Y-73530106D01*
X138124792Y-73530104D01*
X138275104Y-73379792D01*
X138275106Y-73379788D01*
X138275109Y-73379786D01*
X138400048Y-73207820D01*
X138400047Y-73207820D01*
X138400051Y-73207816D01*
X138404514Y-73199054D01*
X138452488Y-73148259D01*
X138520308Y-73131463D01*
X138586444Y-73153999D01*
X138625486Y-73199056D01*
X138629951Y-73207820D01*
X138754890Y-73379786D01*
X138905213Y-73530109D01*
X139077179Y-73655048D01*
X139077181Y-73655049D01*
X139077184Y-73655051D01*
X139266588Y-73751557D01*
X139468757Y-73817246D01*
X139678713Y-73850500D01*
X139678714Y-73850500D01*
X139891286Y-73850500D01*
X139891287Y-73850500D01*
X140101243Y-73817246D01*
X140303412Y-73751557D01*
X140492816Y-73655051D01*
X140579138Y-73592335D01*
X140664786Y-73530109D01*
X140664788Y-73530106D01*
X140664792Y-73530104D01*
X140815104Y-73379792D01*
X140815106Y-73379788D01*
X140815109Y-73379786D01*
X140940048Y-73207820D01*
X140940047Y-73207820D01*
X140940051Y-73207816D01*
X140944514Y-73199054D01*
X140992488Y-73148259D01*
X141060308Y-73131463D01*
X141126444Y-73153999D01*
X141165486Y-73199056D01*
X141169951Y-73207820D01*
X141294890Y-73379786D01*
X141445213Y-73530109D01*
X141617179Y-73655048D01*
X141617181Y-73655049D01*
X141617184Y-73655051D01*
X141806588Y-73751557D01*
X142008757Y-73817246D01*
X142218713Y-73850500D01*
X142218714Y-73850500D01*
X142431286Y-73850500D01*
X142431287Y-73850500D01*
X142641243Y-73817246D01*
X142843412Y-73751557D01*
X143032816Y-73655051D01*
X143119138Y-73592335D01*
X143204786Y-73530109D01*
X143204788Y-73530106D01*
X143204792Y-73530104D01*
X143355104Y-73379792D01*
X143355106Y-73379788D01*
X143355109Y-73379786D01*
X143480048Y-73207820D01*
X143480047Y-73207820D01*
X143480051Y-73207816D01*
X143484514Y-73199054D01*
X143532488Y-73148259D01*
X143600308Y-73131463D01*
X143666444Y-73153999D01*
X143705486Y-73199056D01*
X143709951Y-73207820D01*
X143834890Y-73379786D01*
X143985213Y-73530109D01*
X144157179Y-73655048D01*
X144157181Y-73655049D01*
X144157184Y-73655051D01*
X144346588Y-73751557D01*
X144548757Y-73817246D01*
X144758713Y-73850500D01*
X144758714Y-73850500D01*
X144971286Y-73850500D01*
X144971287Y-73850500D01*
X145181243Y-73817246D01*
X145383412Y-73751557D01*
X145572816Y-73655051D01*
X145659138Y-73592335D01*
X145744786Y-73530109D01*
X145744788Y-73530106D01*
X145744792Y-73530104D01*
X145895104Y-73379792D01*
X145895106Y-73379788D01*
X145895109Y-73379786D01*
X146020048Y-73207820D01*
X146020047Y-73207820D01*
X146020051Y-73207816D01*
X146116557Y-73018412D01*
X146182246Y-72816243D01*
X146215500Y-72606287D01*
X146215500Y-72393713D01*
X146182246Y-72183757D01*
X146116557Y-71981588D01*
X146020051Y-71792184D01*
X146020049Y-71792181D01*
X146020048Y-71792179D01*
X145895109Y-71620213D01*
X145744786Y-71469890D01*
X145572820Y-71344951D01*
X145383414Y-71248444D01*
X145383413Y-71248443D01*
X145383412Y-71248443D01*
X145181243Y-71182754D01*
X145181241Y-71182753D01*
X145181240Y-71182753D01*
X145019957Y-71157208D01*
X144971287Y-71149500D01*
X144758713Y-71149500D01*
X144710042Y-71157208D01*
X144548760Y-71182753D01*
X144346585Y-71248444D01*
X144157179Y-71344951D01*
X143985213Y-71469890D01*
X143834890Y-71620213D01*
X143709949Y-71792182D01*
X143705484Y-71800946D01*
X143657509Y-71851742D01*
X143589688Y-71868536D01*
X143523553Y-71845998D01*
X143484516Y-71800946D01*
X143480050Y-71792182D01*
X143355109Y-71620213D01*
X143204786Y-71469890D01*
X143032820Y-71344951D01*
X142843414Y-71248444D01*
X142843413Y-71248443D01*
X142843412Y-71248443D01*
X142641243Y-71182754D01*
X142641241Y-71182753D01*
X142641240Y-71182753D01*
X142479957Y-71157208D01*
X142431287Y-71149500D01*
X142218713Y-71149500D01*
X142170042Y-71157208D01*
X142008760Y-71182753D01*
X141806585Y-71248444D01*
X141617179Y-71344951D01*
X141445213Y-71469890D01*
X141294890Y-71620213D01*
X141169949Y-71792182D01*
X141165484Y-71800946D01*
X141117509Y-71851742D01*
X141049688Y-71868536D01*
X140983553Y-71845998D01*
X140944516Y-71800946D01*
X140940050Y-71792182D01*
X140815109Y-71620213D01*
X140664786Y-71469890D01*
X140492820Y-71344951D01*
X140303414Y-71248444D01*
X140303413Y-71248443D01*
X140303412Y-71248443D01*
X140101243Y-71182754D01*
X140101241Y-71182753D01*
X140101240Y-71182753D01*
X139939957Y-71157208D01*
X139891287Y-71149500D01*
X139678713Y-71149500D01*
X139630042Y-71157208D01*
X139468760Y-71182753D01*
X139266585Y-71248444D01*
X139077179Y-71344951D01*
X138905213Y-71469890D01*
X138754890Y-71620213D01*
X138629949Y-71792182D01*
X138625484Y-71800946D01*
X138577509Y-71851742D01*
X138509688Y-71868536D01*
X138443553Y-71845998D01*
X138404516Y-71800946D01*
X138400050Y-71792182D01*
X138275109Y-71620213D01*
X138124786Y-71469890D01*
X137952820Y-71344951D01*
X137763414Y-71248444D01*
X137763413Y-71248443D01*
X137763412Y-71248443D01*
X137561243Y-71182754D01*
X137561241Y-71182753D01*
X137561240Y-71182753D01*
X137399957Y-71157208D01*
X137351287Y-71149500D01*
X137138713Y-71149500D01*
X137090042Y-71157208D01*
X136928760Y-71182753D01*
X136726585Y-71248444D01*
X136537179Y-71344951D01*
X136365213Y-71469890D01*
X136214890Y-71620213D01*
X136089949Y-71792182D01*
X136085484Y-71800946D01*
X136037509Y-71851742D01*
X135969688Y-71868536D01*
X135903553Y-71845998D01*
X135864516Y-71800946D01*
X135860050Y-71792182D01*
X135735109Y-71620213D01*
X135584786Y-71469890D01*
X135412820Y-71344951D01*
X135223414Y-71248444D01*
X135223413Y-71248443D01*
X135223412Y-71248443D01*
X135021243Y-71182754D01*
X135021241Y-71182753D01*
X135021240Y-71182753D01*
X134859957Y-71157208D01*
X134811287Y-71149500D01*
X134598713Y-71149500D01*
X134550042Y-71157208D01*
X134388760Y-71182753D01*
X134186585Y-71248444D01*
X133997179Y-71344951D01*
X133825213Y-71469890D01*
X133674890Y-71620213D01*
X133549949Y-71792182D01*
X133545484Y-71800946D01*
X133497509Y-71851742D01*
X133429688Y-71868536D01*
X133363553Y-71845998D01*
X133324516Y-71800946D01*
X133320050Y-71792182D01*
X133195109Y-71620213D01*
X133044786Y-71469890D01*
X132872820Y-71344951D01*
X132683414Y-71248444D01*
X132683413Y-71248443D01*
X132683412Y-71248443D01*
X132481243Y-71182754D01*
X132481241Y-71182753D01*
X132481240Y-71182753D01*
X132319957Y-71157208D01*
X132271287Y-71149500D01*
X132058713Y-71149500D01*
X132010042Y-71157208D01*
X131848760Y-71182753D01*
X131646585Y-71248444D01*
X131457179Y-71344951D01*
X131285215Y-71469889D01*
X131171673Y-71583431D01*
X131110350Y-71616915D01*
X131040658Y-71611931D01*
X130984725Y-71570059D01*
X130967810Y-71539082D01*
X130918797Y-71407671D01*
X130918793Y-71407664D01*
X130832547Y-71292455D01*
X130832544Y-71292452D01*
X130717335Y-71206206D01*
X130717328Y-71206202D01*
X130582482Y-71155908D01*
X130582483Y-71155908D01*
X130522883Y-71149501D01*
X130522881Y-71149500D01*
X130522873Y-71149500D01*
X130522864Y-71149500D01*
X128727129Y-71149500D01*
X128727123Y-71149501D01*
X128667516Y-71155908D01*
X128532671Y-71206202D01*
X128532664Y-71206206D01*
X128417455Y-71292452D01*
X128417452Y-71292455D01*
X128331206Y-71407664D01*
X128331202Y-71407671D01*
X128280908Y-71542517D01*
X128274501Y-71602116D01*
X128274500Y-71602135D01*
X128274500Y-73397870D01*
X128274501Y-73397876D01*
X128280908Y-73457483D01*
X128331202Y-73592328D01*
X128331206Y-73592335D01*
X128417452Y-73707544D01*
X128417455Y-73707547D01*
X128532664Y-73793793D01*
X128532671Y-73793797D01*
X128667517Y-73844091D01*
X128667516Y-73844091D01*
X128674444Y-73844835D01*
X128727127Y-73850500D01*
X130522872Y-73850499D01*
X130582483Y-73844091D01*
X130717331Y-73793796D01*
X130832546Y-73707546D01*
X130918796Y-73592331D01*
X130967810Y-73460916D01*
X131009681Y-73404984D01*
X131075145Y-73380566D01*
X131143418Y-73395417D01*
X131171673Y-73416569D01*
X131285213Y-73530109D01*
X131457179Y-73655048D01*
X131457181Y-73655049D01*
X131457184Y-73655051D01*
X131646588Y-73751557D01*
X131848757Y-73817246D01*
X132058713Y-73850500D01*
X132058714Y-73850500D01*
X132271286Y-73850500D01*
X132271287Y-73850500D01*
X132481243Y-73817246D01*
X132683412Y-73751557D01*
X132872816Y-73655051D01*
X132959138Y-73592335D01*
X133044786Y-73530109D01*
X133044788Y-73530106D01*
X133044792Y-73530104D01*
X133195104Y-73379792D01*
X133195106Y-73379788D01*
X133195109Y-73379786D01*
X133320048Y-73207820D01*
X133320047Y-73207820D01*
X133320051Y-73207816D01*
X133324514Y-73199054D01*
X133372488Y-73148259D01*
X133440308Y-73131463D01*
X133506444Y-73153999D01*
X133545486Y-73199056D01*
X133549951Y-73207820D01*
X133674890Y-73379786D01*
X133825213Y-73530109D01*
X133997179Y-73655048D01*
X133997181Y-73655049D01*
X133997184Y-73655051D01*
X134186588Y-73751557D01*
X134388757Y-73817246D01*
X134598713Y-73850500D01*
X134598714Y-73850500D01*
X134811287Y-73850500D01*
X134816138Y-73850118D01*
X134816222Y-73851191D01*
X134880392Y-73859482D01*
X134933845Y-73904476D01*
X134954487Y-73971227D01*
X134954500Y-73973002D01*
X134954500Y-81667511D01*
X134934815Y-81734550D01*
X134882011Y-81780305D01*
X134812853Y-81790249D01*
X134749297Y-81761224D01*
X134730182Y-81740397D01*
X134677227Y-81667511D01*
X134644517Y-81622490D01*
X134477510Y-81455483D01*
X134286433Y-81316657D01*
X134075996Y-81209433D01*
X133851368Y-81136446D01*
X133618097Y-81099500D01*
X133618092Y-81099500D01*
X132381908Y-81099500D01*
X132381903Y-81099500D01*
X132148631Y-81136446D01*
X131924003Y-81209433D01*
X131713566Y-81316657D01*
X131604550Y-81395862D01*
X131522490Y-81455483D01*
X131522488Y-81455485D01*
X131522487Y-81455485D01*
X131355485Y-81622487D01*
X131355485Y-81622488D01*
X131355483Y-81622490D01*
X131322773Y-81667511D01*
X131216657Y-81813566D01*
X131109433Y-82024003D01*
X131036446Y-82248631D01*
X130999500Y-82481902D01*
X130999500Y-82718097D01*
X131036446Y-82951368D01*
X131109433Y-83175996D01*
X131216657Y-83386433D01*
X131355483Y-83577510D01*
X131522490Y-83744517D01*
X131713567Y-83883343D01*
X131812991Y-83934002D01*
X131924003Y-83990566D01*
X131924005Y-83990566D01*
X131924008Y-83990568D01*
X132044412Y-84029689D01*
X132148631Y-84063553D01*
X132381903Y-84100500D01*
X132381908Y-84100500D01*
X133618097Y-84100500D01*
X133851368Y-84063553D01*
X134075992Y-83990568D01*
X134286433Y-83883343D01*
X134477510Y-83744517D01*
X134644517Y-83577510D01*
X134730183Y-83459601D01*
X134785512Y-83416937D01*
X134855126Y-83410958D01*
X134916921Y-83443564D01*
X134951278Y-83504403D01*
X134954500Y-83532488D01*
X134954500Y-83968330D01*
X134954499Y-83968348D01*
X134954499Y-84134054D01*
X134954498Y-84134054D01*
X134995423Y-84286785D01*
X135024358Y-84336900D01*
X135024359Y-84336904D01*
X135024360Y-84336904D01*
X135074479Y-84423714D01*
X135074481Y-84423717D01*
X135193349Y-84542585D01*
X135193355Y-84542590D01*
X141703912Y-91053148D01*
X141737397Y-91114471D01*
X141732413Y-91184163D01*
X141718943Y-91209260D01*
X141719200Y-91209418D01*
X141716656Y-91213568D01*
X141609433Y-91424003D01*
X141536446Y-91648631D01*
X141499500Y-91881902D01*
X141499500Y-92118097D01*
X141536446Y-92351368D01*
X141609433Y-92575996D01*
X141716661Y-92786441D01*
X141719203Y-92790589D01*
X141718288Y-92791149D01*
X141740029Y-92852108D01*
X141724194Y-92920159D01*
X141703911Y-92946851D01*
X137822286Y-96828478D01*
X137710481Y-96940282D01*
X137710479Y-96940285D01*
X137660361Y-97027094D01*
X137660359Y-97027096D01*
X137631425Y-97077209D01*
X137631424Y-97077210D01*
X137631423Y-97077215D01*
X137590499Y-97229943D01*
X137590499Y-97229945D01*
X137590499Y-97398046D01*
X137590500Y-97398059D01*
X137590500Y-101088197D01*
X137570815Y-101155236D01*
X137518011Y-101200991D01*
X137448853Y-101210935D01*
X137428183Y-101206128D01*
X137356244Y-101182754D01*
X137356240Y-101182753D01*
X137182502Y-101155236D01*
X137146287Y-101149500D01*
X136933713Y-101149500D01*
X136905006Y-101154046D01*
X136723757Y-101182753D01*
X136681473Y-101196492D01*
X136611632Y-101198486D01*
X136555476Y-101166241D01*
X133636819Y-98247583D01*
X133603334Y-98186260D01*
X133600500Y-98159902D01*
X133600500Y-93609192D01*
X133620185Y-93542153D01*
X133672989Y-93496398D01*
X133705102Y-93486719D01*
X133851368Y-93463553D01*
X134075992Y-93390568D01*
X134286433Y-93283343D01*
X134477510Y-93144517D01*
X134644517Y-92977510D01*
X134783343Y-92786433D01*
X134890568Y-92575992D01*
X134963553Y-92351368D01*
X135000500Y-92118097D01*
X135000500Y-91881902D01*
X134963553Y-91648631D01*
X134890566Y-91424003D01*
X134834002Y-91312991D01*
X134783343Y-91213567D01*
X134644517Y-91022490D01*
X134477510Y-90855483D01*
X134286433Y-90716657D01*
X134075996Y-90609433D01*
X133851368Y-90536446D01*
X133618097Y-90499500D01*
X133618092Y-90499500D01*
X132381908Y-90499500D01*
X132381903Y-90499500D01*
X132148631Y-90536446D01*
X131924003Y-90609433D01*
X131713566Y-90716657D01*
X131604550Y-90795862D01*
X131522490Y-90855483D01*
X131522488Y-90855485D01*
X131522487Y-90855485D01*
X131355485Y-91022487D01*
X131355485Y-91022488D01*
X131355483Y-91022490D01*
X131333209Y-91053148D01*
X131216657Y-91213566D01*
X131109433Y-91424003D01*
X131036446Y-91648631D01*
X130999500Y-91881902D01*
X130999500Y-92118097D01*
X131036446Y-92351368D01*
X131109433Y-92575996D01*
X131216657Y-92786433D01*
X131355483Y-92977510D01*
X131522490Y-93144517D01*
X131713567Y-93283343D01*
X131812991Y-93334002D01*
X131924003Y-93390566D01*
X131924005Y-93390566D01*
X131924008Y-93390568D01*
X132148632Y-93463553D01*
X132294898Y-93486719D01*
X132358032Y-93516648D01*
X132394964Y-93575959D01*
X132399500Y-93609192D01*
X132399500Y-98373330D01*
X132399499Y-98373348D01*
X132399499Y-98539054D01*
X132399498Y-98539054D01*
X132440423Y-98691785D01*
X132469358Y-98741900D01*
X132469359Y-98741904D01*
X132469360Y-98741904D01*
X132519479Y-98828714D01*
X132519481Y-98828717D01*
X132638349Y-98947585D01*
X132638355Y-98947590D01*
X134628583Y-100937819D01*
X134662068Y-100999142D01*
X134657084Y-101068834D01*
X134615212Y-101124767D01*
X134549748Y-101149184D01*
X134540902Y-101149500D01*
X134393713Y-101149500D01*
X134357498Y-101155236D01*
X134183760Y-101182753D01*
X133981585Y-101248444D01*
X133792179Y-101344951D01*
X133620213Y-101469890D01*
X133469890Y-101620213D01*
X133344951Y-101792179D01*
X133248444Y-101981585D01*
X133182753Y-102183760D01*
X133149500Y-102393713D01*
X133149500Y-102606286D01*
X133182753Y-102816239D01*
X133248444Y-103018414D01*
X133344951Y-103207820D01*
X133469890Y-103379786D01*
X133620209Y-103530105D01*
X133625106Y-103533663D01*
X133667771Y-103588994D01*
X133673750Y-103658607D01*
X133641144Y-103720402D01*
X133591229Y-103751685D01*
X133580673Y-103755183D01*
X133580663Y-103755187D01*
X133431342Y-103847289D01*
X133307289Y-103971342D01*
X133215187Y-104120663D01*
X133215185Y-104120668D01*
X133202083Y-104160208D01*
X133160001Y-104287203D01*
X133160001Y-104287204D01*
X133160000Y-104287204D01*
X133149500Y-104389983D01*
X133149500Y-105500902D01*
X133129815Y-105567941D01*
X133077011Y-105613696D01*
X133007853Y-105623640D01*
X132944297Y-105594615D01*
X132937819Y-105588583D01*
X123136819Y-95787583D01*
X123103334Y-95726260D01*
X123100500Y-95699902D01*
X123100500Y-93609192D01*
X123120185Y-93542153D01*
X123172989Y-93496398D01*
X123205102Y-93486719D01*
X123351368Y-93463553D01*
X123575992Y-93390568D01*
X123786433Y-93283343D01*
X123977510Y-93144517D01*
X124144517Y-92977510D01*
X124283343Y-92786433D01*
X124390568Y-92575992D01*
X124463553Y-92351368D01*
X124500500Y-92118097D01*
X124500500Y-91881902D01*
X124463553Y-91648631D01*
X124390566Y-91424003D01*
X124334002Y-91312991D01*
X124283343Y-91213567D01*
X124144517Y-91022490D01*
X123977510Y-90855483D01*
X123786433Y-90716657D01*
X123575996Y-90609433D01*
X123351368Y-90536446D01*
X123118097Y-90499500D01*
X123118092Y-90499500D01*
X121881908Y-90499500D01*
X121881903Y-90499500D01*
X121648631Y-90536446D01*
X121424003Y-90609433D01*
X121213566Y-90716657D01*
X121104550Y-90795862D01*
X121022490Y-90855483D01*
X121022488Y-90855485D01*
X121022487Y-90855485D01*
X120855485Y-91022487D01*
X120855485Y-91022488D01*
X120855483Y-91022490D01*
X120833209Y-91053148D01*
X120716657Y-91213566D01*
X120609433Y-91424003D01*
X120536446Y-91648631D01*
X120499500Y-91881902D01*
X117500500Y-91881902D01*
X117500500Y-87181902D01*
X120499500Y-87181902D01*
X120499500Y-87418097D01*
X120536446Y-87651368D01*
X120609433Y-87875996D01*
X120716657Y-88086433D01*
X120855483Y-88277510D01*
X121022490Y-88444517D01*
X121213567Y-88583343D01*
X121312991Y-88634002D01*
X121424003Y-88690566D01*
X121424005Y-88690566D01*
X121424008Y-88690568D01*
X121544412Y-88729689D01*
X121648631Y-88763553D01*
X121881903Y-88800500D01*
X121881908Y-88800500D01*
X123118097Y-88800500D01*
X123351368Y-88763553D01*
X123575992Y-88690568D01*
X123786433Y-88583343D01*
X123977510Y-88444517D01*
X124144517Y-88277510D01*
X124283343Y-88086433D01*
X124390568Y-87875992D01*
X124463553Y-87651368D01*
X124500500Y-87418097D01*
X124500500Y-87181902D01*
X130999500Y-87181902D01*
X130999500Y-87418097D01*
X131036446Y-87651368D01*
X131109433Y-87875996D01*
X131216657Y-88086433D01*
X131355483Y-88277510D01*
X131522490Y-88444517D01*
X131713567Y-88583343D01*
X131812991Y-88634002D01*
X131924003Y-88690566D01*
X131924005Y-88690566D01*
X131924008Y-88690568D01*
X132044412Y-88729689D01*
X132148631Y-88763553D01*
X132381903Y-88800500D01*
X132381908Y-88800500D01*
X133618097Y-88800500D01*
X133851368Y-88763553D01*
X134075992Y-88690568D01*
X134286433Y-88583343D01*
X134477510Y-88444517D01*
X134644517Y-88277510D01*
X134783343Y-88086433D01*
X134890568Y-87875992D01*
X134963553Y-87651368D01*
X135000500Y-87418097D01*
X135000500Y-87181902D01*
X134963553Y-86948631D01*
X134890566Y-86724003D01*
X134783342Y-86513566D01*
X134644517Y-86322490D01*
X134477510Y-86155483D01*
X134286433Y-86016657D01*
X134075996Y-85909433D01*
X133851368Y-85836446D01*
X133618097Y-85799500D01*
X133618092Y-85799500D01*
X132381908Y-85799500D01*
X132381903Y-85799500D01*
X132148631Y-85836446D01*
X131924003Y-85909433D01*
X131713566Y-86016657D01*
X131604550Y-86095862D01*
X131522490Y-86155483D01*
X131522488Y-86155485D01*
X131522487Y-86155485D01*
X131355485Y-86322487D01*
X131355485Y-86322488D01*
X131355483Y-86322490D01*
X131295862Y-86404550D01*
X131216657Y-86513566D01*
X131109433Y-86724003D01*
X131036446Y-86948631D01*
X130999500Y-87181902D01*
X124500500Y-87181902D01*
X124463553Y-86948631D01*
X124390566Y-86724003D01*
X124283342Y-86513566D01*
X124144517Y-86322490D01*
X123977510Y-86155483D01*
X123786433Y-86016657D01*
X123575996Y-85909433D01*
X123351368Y-85836446D01*
X123118097Y-85799500D01*
X123118092Y-85799500D01*
X121881908Y-85799500D01*
X121881903Y-85799500D01*
X121648631Y-85836446D01*
X121424003Y-85909433D01*
X121213566Y-86016657D01*
X121104550Y-86095862D01*
X121022490Y-86155483D01*
X121022488Y-86155485D01*
X121022487Y-86155485D01*
X120855485Y-86322487D01*
X120855485Y-86322488D01*
X120855483Y-86322490D01*
X120795862Y-86404550D01*
X120716657Y-86513566D01*
X120609433Y-86724003D01*
X120536446Y-86948631D01*
X120499500Y-87181902D01*
X117500500Y-87181902D01*
X117500500Y-82481902D01*
X120499500Y-82481902D01*
X120499500Y-82718097D01*
X120536446Y-82951368D01*
X120609433Y-83175996D01*
X120716657Y-83386433D01*
X120855483Y-83577510D01*
X121022490Y-83744517D01*
X121213567Y-83883343D01*
X121312991Y-83934002D01*
X121424003Y-83990566D01*
X121424005Y-83990566D01*
X121424008Y-83990568D01*
X121544412Y-84029689D01*
X121648631Y-84063553D01*
X121881903Y-84100500D01*
X121881908Y-84100500D01*
X123118097Y-84100500D01*
X123351368Y-84063553D01*
X123575992Y-83990568D01*
X123786433Y-83883343D01*
X123977510Y-83744517D01*
X124144517Y-83577510D01*
X124283343Y-83386433D01*
X124390568Y-83175992D01*
X124463553Y-82951368D01*
X124500500Y-82718097D01*
X124500500Y-82481902D01*
X124463553Y-82248631D01*
X124390566Y-82024003D01*
X124283342Y-81813566D01*
X124266401Y-81790249D01*
X124144517Y-81622490D01*
X123977510Y-81455483D01*
X123786433Y-81316657D01*
X123575996Y-81209433D01*
X123351368Y-81136446D01*
X123118097Y-81099500D01*
X123118092Y-81099500D01*
X121881908Y-81099500D01*
X121881903Y-81099500D01*
X121648631Y-81136446D01*
X121424003Y-81209433D01*
X121213566Y-81316657D01*
X121104550Y-81395862D01*
X121022490Y-81455483D01*
X121022488Y-81455485D01*
X121022487Y-81455485D01*
X120855485Y-81622487D01*
X120855485Y-81622488D01*
X120855483Y-81622490D01*
X120822773Y-81667511D01*
X120716657Y-81813566D01*
X120609433Y-82024003D01*
X120536446Y-82248631D01*
X120499500Y-82481902D01*
X117500500Y-82481902D01*
X117500500Y-69624500D01*
X117520185Y-69557461D01*
X117572989Y-69511706D01*
X117624500Y-69500500D01*
X158875500Y-69500500D01*
X158942539Y-69520185D01*
G37*
%TD.AperFunction*%
%TD*%
M02*
