%TF.GenerationSoftware,KiCad,Pcbnew,9.0.3-9.0.3-0~ubuntu24.04.1*%
%TF.CreationDate,2026-04-16T14:24:13+03:00*%
%TF.ProjectId,switches,73776974-6368-4657-932e-6b696361645f,rev?*%
%TF.SameCoordinates,Original*%
%TF.FileFunction,Legend,Bot*%
%TF.FilePolarity,Positive*%
%FSLAX46Y46*%
G04 Gerber Fmt 4.6, Leading zero omitted, Abs format (unit mm)*
G04 Created by KiCad (PCBNEW 9.0.3-9.0.3-0~ubuntu24.04.1) date 2026-04-16 14:24:13*
%MOMM*%
%LPD*%
G01*
G04 APERTURE LIST*
%ADD10C,0.100000*%
G04 APERTURE END LIST*
D10*
X158053258Y-116434912D02*
X157767544Y-116530150D01*
X157767544Y-116530150D02*
X157291353Y-116530150D01*
X157291353Y-116530150D02*
X157100877Y-116434912D01*
X157100877Y-116434912D02*
X157005639Y-116339673D01*
X157005639Y-116339673D02*
X156910401Y-116149197D01*
X156910401Y-116149197D02*
X156910401Y-115958721D01*
X156910401Y-115958721D02*
X157005639Y-115768245D01*
X157005639Y-115768245D02*
X157100877Y-115673007D01*
X157100877Y-115673007D02*
X157291353Y-115577769D01*
X157291353Y-115577769D02*
X157672306Y-115482531D01*
X157672306Y-115482531D02*
X157862782Y-115387292D01*
X157862782Y-115387292D02*
X157958020Y-115292054D01*
X157958020Y-115292054D02*
X158053258Y-115101578D01*
X158053258Y-115101578D02*
X158053258Y-114911102D01*
X158053258Y-114911102D02*
X157958020Y-114720626D01*
X157958020Y-114720626D02*
X157862782Y-114625388D01*
X157862782Y-114625388D02*
X157672306Y-114530150D01*
X157672306Y-114530150D02*
X157196115Y-114530150D01*
X157196115Y-114530150D02*
X156910401Y-114625388D01*
X156243734Y-115196816D02*
X155862782Y-116530150D01*
X155862782Y-116530150D02*
X155481829Y-115577769D01*
X155481829Y-115577769D02*
X155100877Y-116530150D01*
X155100877Y-116530150D02*
X154719925Y-115196816D01*
X153958020Y-116530150D02*
X153958020Y-115196816D01*
X153958020Y-114530150D02*
X154053258Y-114625388D01*
X154053258Y-114625388D02*
X153958020Y-114720626D01*
X153958020Y-114720626D02*
X153862782Y-114625388D01*
X153862782Y-114625388D02*
X153958020Y-114530150D01*
X153958020Y-114530150D02*
X153958020Y-114720626D01*
X153291353Y-115196816D02*
X152529449Y-115196816D01*
X153005639Y-114530150D02*
X153005639Y-116244435D01*
X153005639Y-116244435D02*
X152910401Y-116434912D01*
X152910401Y-116434912D02*
X152719925Y-116530150D01*
X152719925Y-116530150D02*
X152529449Y-116530150D01*
X151005639Y-116434912D02*
X151196115Y-116530150D01*
X151196115Y-116530150D02*
X151577068Y-116530150D01*
X151577068Y-116530150D02*
X151767544Y-116434912D01*
X151767544Y-116434912D02*
X151862782Y-116339673D01*
X151862782Y-116339673D02*
X151958020Y-116149197D01*
X151958020Y-116149197D02*
X151958020Y-115577769D01*
X151958020Y-115577769D02*
X151862782Y-115387292D01*
X151862782Y-115387292D02*
X151767544Y-115292054D01*
X151767544Y-115292054D02*
X151577068Y-115196816D01*
X151577068Y-115196816D02*
X151196115Y-115196816D01*
X151196115Y-115196816D02*
X151005639Y-115292054D01*
X150148496Y-116530150D02*
X150148496Y-114530150D01*
X149291353Y-116530150D02*
X149291353Y-115482531D01*
X149291353Y-115482531D02*
X149386591Y-115292054D01*
X149386591Y-115292054D02*
X149577067Y-115196816D01*
X149577067Y-115196816D02*
X149862782Y-115196816D01*
X149862782Y-115196816D02*
X150053258Y-115292054D01*
X150053258Y-115292054D02*
X150148496Y-115387292D01*
X147577067Y-116434912D02*
X147767543Y-116530150D01*
X147767543Y-116530150D02*
X148148496Y-116530150D01*
X148148496Y-116530150D02*
X148338972Y-116434912D01*
X148338972Y-116434912D02*
X148434210Y-116244435D01*
X148434210Y-116244435D02*
X148434210Y-115482531D01*
X148434210Y-115482531D02*
X148338972Y-115292054D01*
X148338972Y-115292054D02*
X148148496Y-115196816D01*
X148148496Y-115196816D02*
X147767543Y-115196816D01*
X147767543Y-115196816D02*
X147577067Y-115292054D01*
X147577067Y-115292054D02*
X147481829Y-115482531D01*
X147481829Y-115482531D02*
X147481829Y-115673007D01*
X147481829Y-115673007D02*
X148434210Y-115863483D01*
X146719924Y-116434912D02*
X146529448Y-116530150D01*
X146529448Y-116530150D02*
X146148496Y-116530150D01*
X146148496Y-116530150D02*
X145958019Y-116434912D01*
X145958019Y-116434912D02*
X145862781Y-116244435D01*
X145862781Y-116244435D02*
X145862781Y-116149197D01*
X145862781Y-116149197D02*
X145958019Y-115958721D01*
X145958019Y-115958721D02*
X146148496Y-115863483D01*
X146148496Y-115863483D02*
X146434210Y-115863483D01*
X146434210Y-115863483D02*
X146624686Y-115768245D01*
X146624686Y-115768245D02*
X146719924Y-115577769D01*
X146719924Y-115577769D02*
X146719924Y-115482531D01*
X146719924Y-115482531D02*
X146624686Y-115292054D01*
X146624686Y-115292054D02*
X146434210Y-115196816D01*
X146434210Y-115196816D02*
X146148496Y-115196816D01*
X146148496Y-115196816D02*
X145958019Y-115292054D01*
X143481828Y-116530150D02*
X143481828Y-114530150D01*
X143481828Y-115292054D02*
X143291352Y-115196816D01*
X143291352Y-115196816D02*
X142910399Y-115196816D01*
X142910399Y-115196816D02*
X142719923Y-115292054D01*
X142719923Y-115292054D02*
X142624685Y-115387292D01*
X142624685Y-115387292D02*
X142529447Y-115577769D01*
X142529447Y-115577769D02*
X142529447Y-116149197D01*
X142529447Y-116149197D02*
X142624685Y-116339673D01*
X142624685Y-116339673D02*
X142719923Y-116434912D01*
X142719923Y-116434912D02*
X142910399Y-116530150D01*
X142910399Y-116530150D02*
X143291352Y-116530150D01*
X143291352Y-116530150D02*
X143481828Y-116434912D01*
X141386590Y-116530150D02*
X141577066Y-116434912D01*
X141577066Y-116434912D02*
X141672304Y-116339673D01*
X141672304Y-116339673D02*
X141767542Y-116149197D01*
X141767542Y-116149197D02*
X141767542Y-115577769D01*
X141767542Y-115577769D02*
X141672304Y-115387292D01*
X141672304Y-115387292D02*
X141577066Y-115292054D01*
X141577066Y-115292054D02*
X141386590Y-115196816D01*
X141386590Y-115196816D02*
X141100875Y-115196816D01*
X141100875Y-115196816D02*
X140910399Y-115292054D01*
X140910399Y-115292054D02*
X140815161Y-115387292D01*
X140815161Y-115387292D02*
X140719923Y-115577769D01*
X140719923Y-115577769D02*
X140719923Y-116149197D01*
X140719923Y-116149197D02*
X140815161Y-116339673D01*
X140815161Y-116339673D02*
X140910399Y-116434912D01*
X140910399Y-116434912D02*
X141100875Y-116530150D01*
X141100875Y-116530150D02*
X141386590Y-116530150D01*
X139005637Y-116530150D02*
X139005637Y-115482531D01*
X139005637Y-115482531D02*
X139100875Y-115292054D01*
X139100875Y-115292054D02*
X139291351Y-115196816D01*
X139291351Y-115196816D02*
X139672304Y-115196816D01*
X139672304Y-115196816D02*
X139862780Y-115292054D01*
X139005637Y-116434912D02*
X139196113Y-116530150D01*
X139196113Y-116530150D02*
X139672304Y-116530150D01*
X139672304Y-116530150D02*
X139862780Y-116434912D01*
X139862780Y-116434912D02*
X139958018Y-116244435D01*
X139958018Y-116244435D02*
X139958018Y-116053959D01*
X139958018Y-116053959D02*
X139862780Y-115863483D01*
X139862780Y-115863483D02*
X139672304Y-115768245D01*
X139672304Y-115768245D02*
X139196113Y-115768245D01*
X139196113Y-115768245D02*
X139005637Y-115673007D01*
X138053256Y-116530150D02*
X138053256Y-115196816D01*
X138053256Y-115577769D02*
X137958018Y-115387292D01*
X137958018Y-115387292D02*
X137862780Y-115292054D01*
X137862780Y-115292054D02*
X137672304Y-115196816D01*
X137672304Y-115196816D02*
X137481827Y-115196816D01*
X135958018Y-116530150D02*
X135958018Y-114530150D01*
X135958018Y-116434912D02*
X136148494Y-116530150D01*
X136148494Y-116530150D02*
X136529447Y-116530150D01*
X136529447Y-116530150D02*
X136719923Y-116434912D01*
X136719923Y-116434912D02*
X136815161Y-116339673D01*
X136815161Y-116339673D02*
X136910399Y-116149197D01*
X136910399Y-116149197D02*
X136910399Y-115577769D01*
X136910399Y-115577769D02*
X136815161Y-115387292D01*
X136815161Y-115387292D02*
X136719923Y-115292054D01*
X136719923Y-115292054D02*
X136529447Y-115196816D01*
X136529447Y-115196816D02*
X136148494Y-115196816D01*
X136148494Y-115196816D02*
X135958018Y-115292054D01*
X133481827Y-116530150D02*
X133481827Y-115196816D01*
X133481827Y-115577769D02*
X133386589Y-115387292D01*
X133386589Y-115387292D02*
X133291351Y-115292054D01*
X133291351Y-115292054D02*
X133100875Y-115196816D01*
X133100875Y-115196816D02*
X132910398Y-115196816D01*
X131481827Y-116434912D02*
X131672303Y-116530150D01*
X131672303Y-116530150D02*
X132053256Y-116530150D01*
X132053256Y-116530150D02*
X132243732Y-116434912D01*
X132243732Y-116434912D02*
X132338970Y-116244435D01*
X132338970Y-116244435D02*
X132338970Y-115482531D01*
X132338970Y-115482531D02*
X132243732Y-115292054D01*
X132243732Y-115292054D02*
X132053256Y-115196816D01*
X132053256Y-115196816D02*
X131672303Y-115196816D01*
X131672303Y-115196816D02*
X131481827Y-115292054D01*
X131481827Y-115292054D02*
X131386589Y-115482531D01*
X131386589Y-115482531D02*
X131386589Y-115673007D01*
X131386589Y-115673007D02*
X132338970Y-115863483D01*
X130719922Y-115196816D02*
X130243732Y-116530150D01*
X130243732Y-116530150D02*
X129767541Y-115196816D01*
X128148493Y-114530150D02*
X128529446Y-114530150D01*
X128529446Y-114530150D02*
X128719922Y-114625388D01*
X128719922Y-114625388D02*
X128815160Y-114720626D01*
X128815160Y-114720626D02*
X129005636Y-115006340D01*
X129005636Y-115006340D02*
X129100874Y-115387292D01*
X129100874Y-115387292D02*
X129100874Y-116149197D01*
X129100874Y-116149197D02*
X129005636Y-116339673D01*
X129005636Y-116339673D02*
X128910398Y-116434912D01*
X128910398Y-116434912D02*
X128719922Y-116530150D01*
X128719922Y-116530150D02*
X128338969Y-116530150D01*
X128338969Y-116530150D02*
X128148493Y-116434912D01*
X128148493Y-116434912D02*
X128053255Y-116339673D01*
X128053255Y-116339673D02*
X127958017Y-116149197D01*
X127958017Y-116149197D02*
X127958017Y-115673007D01*
X127958017Y-115673007D02*
X128053255Y-115482531D01*
X128053255Y-115482531D02*
X128148493Y-115387292D01*
X128148493Y-115387292D02*
X128338969Y-115292054D01*
X128338969Y-115292054D02*
X128719922Y-115292054D01*
X128719922Y-115292054D02*
X128910398Y-115387292D01*
X128910398Y-115387292D02*
X129005636Y-115482531D01*
X129005636Y-115482531D02*
X129100874Y-115673007D01*
X157958020Y-119750038D02*
X157958020Y-117750038D01*
X157958020Y-117750038D02*
X157196115Y-117750038D01*
X157196115Y-117750038D02*
X157005639Y-117845276D01*
X157005639Y-117845276D02*
X156910401Y-117940514D01*
X156910401Y-117940514D02*
X156815163Y-118130990D01*
X156815163Y-118130990D02*
X156815163Y-118416704D01*
X156815163Y-118416704D02*
X156910401Y-118607180D01*
X156910401Y-118607180D02*
X157005639Y-118702419D01*
X157005639Y-118702419D02*
X157196115Y-118797657D01*
X157196115Y-118797657D02*
X157958020Y-118797657D01*
X155958020Y-119559561D02*
X155862782Y-119654800D01*
X155862782Y-119654800D02*
X155958020Y-119750038D01*
X155958020Y-119750038D02*
X156053258Y-119654800D01*
X156053258Y-119654800D02*
X155958020Y-119559561D01*
X155958020Y-119559561D02*
X155958020Y-119750038D01*
X153481829Y-119750038D02*
X153481829Y-117750038D01*
X153481829Y-117750038D02*
X153005639Y-117750038D01*
X153005639Y-117750038D02*
X152719924Y-117845276D01*
X152719924Y-117845276D02*
X152529448Y-118035752D01*
X152529448Y-118035752D02*
X152434210Y-118226228D01*
X152434210Y-118226228D02*
X152338972Y-118607180D01*
X152338972Y-118607180D02*
X152338972Y-118892895D01*
X152338972Y-118892895D02*
X152434210Y-119273847D01*
X152434210Y-119273847D02*
X152529448Y-119464323D01*
X152529448Y-119464323D02*
X152719924Y-119654800D01*
X152719924Y-119654800D02*
X153005639Y-119750038D01*
X153005639Y-119750038D02*
X153481829Y-119750038D01*
X151196115Y-119750038D02*
X151386591Y-119654800D01*
X151386591Y-119654800D02*
X151481829Y-119559561D01*
X151481829Y-119559561D02*
X151577067Y-119369085D01*
X151577067Y-119369085D02*
X151577067Y-118797657D01*
X151577067Y-118797657D02*
X151481829Y-118607180D01*
X151481829Y-118607180D02*
X151386591Y-118511942D01*
X151386591Y-118511942D02*
X151196115Y-118416704D01*
X151196115Y-118416704D02*
X150910400Y-118416704D01*
X150910400Y-118416704D02*
X150719924Y-118511942D01*
X150719924Y-118511942D02*
X150624686Y-118607180D01*
X150624686Y-118607180D02*
X150529448Y-118797657D01*
X150529448Y-118797657D02*
X150529448Y-119369085D01*
X150529448Y-119369085D02*
X150624686Y-119559561D01*
X150624686Y-119559561D02*
X150719924Y-119654800D01*
X150719924Y-119654800D02*
X150910400Y-119750038D01*
X150910400Y-119750038D02*
X151196115Y-119750038D01*
X149862781Y-118416704D02*
X149386591Y-119750038D01*
X149386591Y-119750038D02*
X148910400Y-118416704D01*
X147291352Y-118416704D02*
X147291352Y-120035752D01*
X147291352Y-120035752D02*
X147386590Y-120226228D01*
X147386590Y-120226228D02*
X147481828Y-120321466D01*
X147481828Y-120321466D02*
X147672305Y-120416704D01*
X147672305Y-120416704D02*
X147958019Y-120416704D01*
X147958019Y-120416704D02*
X148148495Y-120321466D01*
X147291352Y-119654800D02*
X147481828Y-119750038D01*
X147481828Y-119750038D02*
X147862781Y-119750038D01*
X147862781Y-119750038D02*
X148053257Y-119654800D01*
X148053257Y-119654800D02*
X148148495Y-119559561D01*
X148148495Y-119559561D02*
X148243733Y-119369085D01*
X148243733Y-119369085D02*
X148243733Y-118797657D01*
X148243733Y-118797657D02*
X148148495Y-118607180D01*
X148148495Y-118607180D02*
X148053257Y-118511942D01*
X148053257Y-118511942D02*
X147862781Y-118416704D01*
X147862781Y-118416704D02*
X147481828Y-118416704D01*
X147481828Y-118416704D02*
X147291352Y-118511942D01*
X145481828Y-119750038D02*
X145481828Y-118702419D01*
X145481828Y-118702419D02*
X145577066Y-118511942D01*
X145577066Y-118511942D02*
X145767542Y-118416704D01*
X145767542Y-118416704D02*
X146148495Y-118416704D01*
X146148495Y-118416704D02*
X146338971Y-118511942D01*
X145481828Y-119654800D02*
X145672304Y-119750038D01*
X145672304Y-119750038D02*
X146148495Y-119750038D01*
X146148495Y-119750038D02*
X146338971Y-119654800D01*
X146338971Y-119654800D02*
X146434209Y-119464323D01*
X146434209Y-119464323D02*
X146434209Y-119273847D01*
X146434209Y-119273847D02*
X146338971Y-119083371D01*
X146338971Y-119083371D02*
X146148495Y-118988133D01*
X146148495Y-118988133D02*
X145672304Y-118988133D01*
X145672304Y-118988133D02*
X145481828Y-118892895D01*
X144243733Y-119750038D02*
X144434209Y-119654800D01*
X144434209Y-119654800D02*
X144529447Y-119464323D01*
X144529447Y-119464323D02*
X144529447Y-117750038D01*
X143672304Y-118416704D02*
X143196114Y-119750038D01*
X142719923Y-118416704D02*
X143196114Y-119750038D01*
X143196114Y-119750038D02*
X143386590Y-120226228D01*
X143386590Y-120226228D02*
X143481828Y-120321466D01*
X143481828Y-120321466D02*
X143672304Y-120416704D01*
X141100875Y-118416704D02*
X141100875Y-119750038D01*
X141958018Y-118416704D02*
X141958018Y-119464323D01*
X141958018Y-119464323D02*
X141862780Y-119654800D01*
X141862780Y-119654800D02*
X141672304Y-119750038D01*
X141672304Y-119750038D02*
X141386589Y-119750038D01*
X141386589Y-119750038D02*
X141196113Y-119654800D01*
X141196113Y-119654800D02*
X141100875Y-119559561D01*
X140148494Y-119750038D02*
X140148494Y-117750038D01*
X139958018Y-118988133D02*
X139386589Y-119750038D01*
X139386589Y-118416704D02*
X140148494Y-119178609D01*
X138434208Y-119654800D02*
X138434208Y-119750038D01*
X138434208Y-119750038D02*
X138529446Y-119940514D01*
X138529446Y-119940514D02*
X138624684Y-120035752D01*
X136148493Y-117940514D02*
X136053255Y-117845276D01*
X136053255Y-117845276D02*
X135862779Y-117750038D01*
X135862779Y-117750038D02*
X135386588Y-117750038D01*
X135386588Y-117750038D02*
X135196112Y-117845276D01*
X135196112Y-117845276D02*
X135100874Y-117940514D01*
X135100874Y-117940514D02*
X135005636Y-118130990D01*
X135005636Y-118130990D02*
X135005636Y-118321466D01*
X135005636Y-118321466D02*
X135100874Y-118607180D01*
X135100874Y-118607180D02*
X136243731Y-119750038D01*
X136243731Y-119750038D02*
X135005636Y-119750038D01*
X133767541Y-117750038D02*
X133577064Y-117750038D01*
X133577064Y-117750038D02*
X133386588Y-117845276D01*
X133386588Y-117845276D02*
X133291350Y-117940514D01*
X133291350Y-117940514D02*
X133196112Y-118130990D01*
X133196112Y-118130990D02*
X133100874Y-118511942D01*
X133100874Y-118511942D02*
X133100874Y-118988133D01*
X133100874Y-118988133D02*
X133196112Y-119369085D01*
X133196112Y-119369085D02*
X133291350Y-119559561D01*
X133291350Y-119559561D02*
X133386588Y-119654800D01*
X133386588Y-119654800D02*
X133577064Y-119750038D01*
X133577064Y-119750038D02*
X133767541Y-119750038D01*
X133767541Y-119750038D02*
X133958017Y-119654800D01*
X133958017Y-119654800D02*
X134053255Y-119559561D01*
X134053255Y-119559561D02*
X134148493Y-119369085D01*
X134148493Y-119369085D02*
X134243731Y-118988133D01*
X134243731Y-118988133D02*
X134243731Y-118511942D01*
X134243731Y-118511942D02*
X134148493Y-118130990D01*
X134148493Y-118130990D02*
X134053255Y-117940514D01*
X134053255Y-117940514D02*
X133958017Y-117845276D01*
X133958017Y-117845276D02*
X133767541Y-117750038D01*
X132338969Y-117940514D02*
X132243731Y-117845276D01*
X132243731Y-117845276D02*
X132053255Y-117750038D01*
X132053255Y-117750038D02*
X131577064Y-117750038D01*
X131577064Y-117750038D02*
X131386588Y-117845276D01*
X131386588Y-117845276D02*
X131291350Y-117940514D01*
X131291350Y-117940514D02*
X131196112Y-118130990D01*
X131196112Y-118130990D02*
X131196112Y-118321466D01*
X131196112Y-118321466D02*
X131291350Y-118607180D01*
X131291350Y-118607180D02*
X132434207Y-119750038D01*
X132434207Y-119750038D02*
X131196112Y-119750038D01*
X129481826Y-117750038D02*
X129862779Y-117750038D01*
X129862779Y-117750038D02*
X130053255Y-117845276D01*
X130053255Y-117845276D02*
X130148493Y-117940514D01*
X130148493Y-117940514D02*
X130338969Y-118226228D01*
X130338969Y-118226228D02*
X130434207Y-118607180D01*
X130434207Y-118607180D02*
X130434207Y-119369085D01*
X130434207Y-119369085D02*
X130338969Y-119559561D01*
X130338969Y-119559561D02*
X130243731Y-119654800D01*
X130243731Y-119654800D02*
X130053255Y-119750038D01*
X130053255Y-119750038D02*
X129672302Y-119750038D01*
X129672302Y-119750038D02*
X129481826Y-119654800D01*
X129481826Y-119654800D02*
X129386588Y-119559561D01*
X129386588Y-119559561D02*
X129291350Y-119369085D01*
X129291350Y-119369085D02*
X129291350Y-118892895D01*
X129291350Y-118892895D02*
X129386588Y-118702419D01*
X129386588Y-118702419D02*
X129481826Y-118607180D01*
X129481826Y-118607180D02*
X129672302Y-118511942D01*
X129672302Y-118511942D02*
X130053255Y-118511942D01*
X130053255Y-118511942D02*
X130243731Y-118607180D01*
X130243731Y-118607180D02*
X130338969Y-118702419D01*
X130338969Y-118702419D02*
X130434207Y-118892895D01*
M02*
